%TF.GenerationSoftware,KiCad,Pcbnew,9.0.0*%
%TF.CreationDate,2025-05-16T05:55:15+02:00*%
%TF.ProjectId,EEE3088F Micromouse Design,45454533-3038-4384-9620-4d6963726f6d,rev?*%
%TF.SameCoordinates,Original*%
%TF.FileFunction,Copper,L1,Top*%
%TF.FilePolarity,Positive*%
%FSLAX46Y46*%
G04 Gerber Fmt 4.6, Leading zero omitted, Abs format (unit mm)*
G04 Created by KiCad (PCBNEW 9.0.0) date 2025-05-16 05:55:15*
%MOMM*%
%LPD*%
G01*
G04 APERTURE LIST*
G04 Aperture macros list*
%AMRoundRect*
0 Rectangle with rounded corners*
0 $1 Rounding radius*
0 $2 $3 $4 $5 $6 $7 $8 $9 X,Y pos of 4 corners*
0 Add a 4 corners polygon primitive as box body*
4,1,4,$2,$3,$4,$5,$6,$7,$8,$9,$2,$3,0*
0 Add four circle primitives for the rounded corners*
1,1,$1+$1,$2,$3*
1,1,$1+$1,$4,$5*
1,1,$1+$1,$6,$7*
1,1,$1+$1,$8,$9*
0 Add four rect primitives between the rounded corners*
20,1,$1+$1,$2,$3,$4,$5,0*
20,1,$1+$1,$4,$5,$6,$7,0*
20,1,$1+$1,$6,$7,$8,$9,0*
20,1,$1+$1,$8,$9,$2,$3,0*%
G04 Aperture macros list end*
%TA.AperFunction,SMDPad,CuDef*%
%ADD10RoundRect,0.250000X0.475000X-0.337500X0.475000X0.337500X-0.475000X0.337500X-0.475000X-0.337500X0*%
%TD*%
%TA.AperFunction,SMDPad,CuDef*%
%ADD11RoundRect,0.237500X0.237500X-0.250000X0.237500X0.250000X-0.237500X0.250000X-0.237500X-0.250000X0*%
%TD*%
%TA.AperFunction,SMDPad,CuDef*%
%ADD12RoundRect,0.250000X-0.625000X0.400000X-0.625000X-0.400000X0.625000X-0.400000X0.625000X0.400000X0*%
%TD*%
%TA.AperFunction,SMDPad,CuDef*%
%ADD13RoundRect,0.250000X-0.350000X-0.450000X0.350000X-0.450000X0.350000X0.450000X-0.350000X0.450000X0*%
%TD*%
%TA.AperFunction,SMDPad,CuDef*%
%ADD14RoundRect,0.250000X0.650000X-0.412500X0.650000X0.412500X-0.650000X0.412500X-0.650000X-0.412500X0*%
%TD*%
%TA.AperFunction,SMDPad,CuDef*%
%ADD15RoundRect,0.225000X0.250000X-0.225000X0.250000X0.225000X-0.250000X0.225000X-0.250000X-0.225000X0*%
%TD*%
%TA.AperFunction,SMDPad,CuDef*%
%ADD16RoundRect,0.250000X-0.475000X0.337500X-0.475000X-0.337500X0.475000X-0.337500X0.475000X0.337500X0*%
%TD*%
%TA.AperFunction,SMDPad,CuDef*%
%ADD17RoundRect,0.250000X-0.650000X0.412500X-0.650000X-0.412500X0.650000X-0.412500X0.650000X0.412500X0*%
%TD*%
%TA.AperFunction,SMDPad,CuDef*%
%ADD18R,2.200000X1.500000*%
%TD*%
%TA.AperFunction,SMDPad,CuDef*%
%ADD19RoundRect,0.160000X-0.197500X-0.160000X0.197500X-0.160000X0.197500X0.160000X-0.197500X0.160000X0*%
%TD*%
%TA.AperFunction,SMDPad,CuDef*%
%ADD20RoundRect,0.100000X-0.637500X-0.100000X0.637500X-0.100000X0.637500X0.100000X-0.637500X0.100000X0*%
%TD*%
%TA.AperFunction,ComponentPad*%
%ADD21RoundRect,0.250000X-0.625000X0.350000X-0.625000X-0.350000X0.625000X-0.350000X0.625000X0.350000X0*%
%TD*%
%TA.AperFunction,ComponentPad*%
%ADD22O,1.750000X1.200000*%
%TD*%
%TA.AperFunction,SMDPad,CuDef*%
%ADD23RoundRect,0.237500X0.300000X0.237500X-0.300000X0.237500X-0.300000X-0.237500X0.300000X-0.237500X0*%
%TD*%
%TA.AperFunction,SMDPad,CuDef*%
%ADD24C,2.000000*%
%TD*%
%TA.AperFunction,SMDPad,CuDef*%
%ADD25RoundRect,0.250000X0.625000X-0.400000X0.625000X0.400000X-0.625000X0.400000X-0.625000X-0.400000X0*%
%TD*%
%TA.AperFunction,SMDPad,CuDef*%
%ADD26RoundRect,0.155000X-0.212500X-0.155000X0.212500X-0.155000X0.212500X0.155000X-0.212500X0.155000X0*%
%TD*%
%TA.AperFunction,SMDPad,CuDef*%
%ADD27R,0.600000X0.600000*%
%TD*%
%TA.AperFunction,SMDPad,CuDef*%
%ADD28R,0.190000X0.600000*%
%TD*%
%TA.AperFunction,SMDPad,CuDef*%
%ADD29R,2.550000X0.950000*%
%TD*%
%TA.AperFunction,SMDPad,CuDef*%
%ADD30R,1.500000X2.200000*%
%TD*%
%TA.AperFunction,SMDPad,CuDef*%
%ADD31RoundRect,0.225000X-0.250000X0.225000X-0.250000X-0.225000X0.250000X-0.225000X0.250000X0.225000X0*%
%TD*%
%TA.AperFunction,SMDPad,CuDef*%
%ADD32RoundRect,0.250000X-0.450000X0.350000X-0.450000X-0.350000X0.450000X-0.350000X0.450000X0.350000X0*%
%TD*%
%TA.AperFunction,SMDPad,CuDef*%
%ADD33RoundRect,0.150000X-0.825000X-0.150000X0.825000X-0.150000X0.825000X0.150000X-0.825000X0.150000X0*%
%TD*%
%TA.AperFunction,SMDPad,CuDef*%
%ADD34RoundRect,0.250000X0.412500X0.925000X-0.412500X0.925000X-0.412500X-0.925000X0.412500X-0.925000X0*%
%TD*%
%TA.AperFunction,SMDPad,CuDef*%
%ADD35RoundRect,0.250000X1.000000X0.650000X-1.000000X0.650000X-1.000000X-0.650000X1.000000X-0.650000X0*%
%TD*%
%TA.AperFunction,SMDPad,CuDef*%
%ADD36RoundRect,0.250000X-1.000000X-0.650000X1.000000X-0.650000X1.000000X0.650000X-1.000000X0.650000X0*%
%TD*%
%TA.AperFunction,SMDPad,CuDef*%
%ADD37RoundRect,0.225000X0.225000X0.250000X-0.225000X0.250000X-0.225000X-0.250000X0.225000X-0.250000X0*%
%TD*%
%TA.AperFunction,SMDPad,CuDef*%
%ADD38RoundRect,0.250000X-0.412500X-0.650000X0.412500X-0.650000X0.412500X0.650000X-0.412500X0.650000X0*%
%TD*%
%TA.AperFunction,SMDPad,CuDef*%
%ADD39RoundRect,0.250000X0.450000X-0.262500X0.450000X0.262500X-0.450000X0.262500X-0.450000X-0.262500X0*%
%TD*%
%TA.AperFunction,SMDPad,CuDef*%
%ADD40RoundRect,0.250001X-0.499999X-0.999999X0.499999X-0.999999X0.499999X0.999999X-0.499999X0.999999X0*%
%TD*%
%TA.AperFunction,SMDPad,CuDef*%
%ADD41RoundRect,0.160000X0.160000X-0.197500X0.160000X0.197500X-0.160000X0.197500X-0.160000X-0.197500X0*%
%TD*%
%TA.AperFunction,SMDPad,CuDef*%
%ADD42RoundRect,0.250000X-0.412500X-0.925000X0.412500X-0.925000X0.412500X0.925000X-0.412500X0.925000X0*%
%TD*%
%TA.AperFunction,SMDPad,CuDef*%
%ADD43RoundRect,0.250000X0.337500X0.475000X-0.337500X0.475000X-0.337500X-0.475000X0.337500X-0.475000X0*%
%TD*%
%TA.AperFunction,SMDPad,CuDef*%
%ADD44RoundRect,0.237500X-0.237500X0.250000X-0.237500X-0.250000X0.237500X-0.250000X0.237500X0.250000X0*%
%TD*%
%TA.AperFunction,SMDPad,CuDef*%
%ADD45RoundRect,0.250000X0.400000X0.625000X-0.400000X0.625000X-0.400000X-0.625000X0.400000X-0.625000X0*%
%TD*%
%TA.AperFunction,SMDPad,CuDef*%
%ADD46R,0.244000X0.700000*%
%TD*%
%TA.AperFunction,SMDPad,CuDef*%
%ADD47R,0.700000X0.244000*%
%TD*%
%TA.AperFunction,SMDPad,CuDef*%
%ADD48C,1.524000*%
%TD*%
%TA.AperFunction,SMDPad,CuDef*%
%ADD49RoundRect,0.150000X-0.587500X-0.150000X0.587500X-0.150000X0.587500X0.150000X-0.587500X0.150000X0*%
%TD*%
%TA.AperFunction,SMDPad,CuDef*%
%ADD50RoundRect,0.155000X0.212500X0.155000X-0.212500X0.155000X-0.212500X-0.155000X0.212500X-0.155000X0*%
%TD*%
%TA.AperFunction,SMDPad,CuDef*%
%ADD51RoundRect,0.250000X-0.337500X-0.475000X0.337500X-0.475000X0.337500X0.475000X-0.337500X0.475000X0*%
%TD*%
%TA.AperFunction,SMDPad,CuDef*%
%ADD52RoundRect,0.250000X0.350000X0.450000X-0.350000X0.450000X-0.350000X-0.450000X0.350000X-0.450000X0*%
%TD*%
%TA.AperFunction,ComponentPad*%
%ADD53R,2.000000X3.000000*%
%TD*%
%TA.AperFunction,SMDPad,CuDef*%
%ADD54RoundRect,0.237500X-0.250000X-0.237500X0.250000X-0.237500X0.250000X0.237500X-0.250000X0.237500X0*%
%TD*%
%TA.AperFunction,SMDPad,CuDef*%
%ADD55RoundRect,0.237500X0.237500X-0.300000X0.237500X0.300000X-0.237500X0.300000X-0.237500X-0.300000X0*%
%TD*%
%TA.AperFunction,HeatsinkPad*%
%ADD56R,2.410000X3.300000*%
%TD*%
%TA.AperFunction,SMDPad,CuDef*%
%ADD57RoundRect,0.237500X0.250000X0.237500X-0.250000X0.237500X-0.250000X-0.237500X0.250000X-0.237500X0*%
%TD*%
%TA.AperFunction,ComponentPad*%
%ADD58R,1.700000X1.700000*%
%TD*%
%TA.AperFunction,ComponentPad*%
%ADD59O,1.700000X1.700000*%
%TD*%
%TA.AperFunction,SMDPad,CuDef*%
%ADD60RoundRect,0.155000X0.155000X-0.212500X0.155000X0.212500X-0.155000X0.212500X-0.155000X-0.212500X0*%
%TD*%
%TA.AperFunction,SMDPad,CuDef*%
%ADD61R,0.600000X1.140000*%
%TD*%
%TA.AperFunction,SMDPad,CuDef*%
%ADD62R,0.300000X1.140000*%
%TD*%
%TA.AperFunction,ComponentPad*%
%ADD63O,0.900000X2.000000*%
%TD*%
%TA.AperFunction,ComponentPad*%
%ADD64O,0.900000X1.700000*%
%TD*%
%TA.AperFunction,SMDPad,CuDef*%
%ADD65RoundRect,0.250000X-0.925000X0.412500X-0.925000X-0.412500X0.925000X-0.412500X0.925000X0.412500X0*%
%TD*%
%TA.AperFunction,SMDPad,CuDef*%
%ADD66RoundRect,0.150000X0.687500X0.150000X-0.687500X0.150000X-0.687500X-0.150000X0.687500X-0.150000X0*%
%TD*%
%TA.AperFunction,HeatsinkPad*%
%ADD67R,2.100000X3.300000*%
%TD*%
%TA.AperFunction,SMDPad,CuDef*%
%ADD68RoundRect,0.155000X-0.155000X0.212500X-0.155000X-0.212500X0.155000X-0.212500X0.155000X0.212500X0*%
%TD*%
%TA.AperFunction,ViaPad*%
%ADD69C,0.800000*%
%TD*%
%TA.AperFunction,ViaPad*%
%ADD70C,4.800000*%
%TD*%
%TA.AperFunction,Conductor*%
%ADD71C,0.250000*%
%TD*%
%TA.AperFunction,Conductor*%
%ADD72C,0.140000*%
%TD*%
%TA.AperFunction,Conductor*%
%ADD73C,0.600000*%
%TD*%
%TA.AperFunction,Conductor*%
%ADD74C,0.450000*%
%TD*%
%TA.AperFunction,Conductor*%
%ADD75C,0.189800*%
%TD*%
%TA.AperFunction,Conductor*%
%ADD76C,0.760000*%
%TD*%
%TA.AperFunction,Conductor*%
%ADD77C,0.300000*%
%TD*%
%TA.AperFunction,Conductor*%
%ADD78C,0.180000*%
%TD*%
%TA.AperFunction,Conductor*%
%ADD79C,0.240200*%
%TD*%
%TA.AperFunction,Conductor*%
%ADD80C,1.270000*%
%TD*%
%TA.AperFunction,Conductor*%
%ADD81C,0.400000*%
%TD*%
G04 APERTURE END LIST*
D10*
%TO.P,C44,1*%
%TO.N,/V_Battery+*%
X78306000Y-146349000D03*
%TO.P,C44,2*%
%TO.N,GND*%
X78306000Y-144274000D03*
%TD*%
D11*
%TO.P,R18,1*%
%TO.N,Net-(U9-VBUS)*%
X120206000Y-131386500D03*
%TO.P,R18,2*%
%TO.N,/HV*%
X120206000Y-129561500D03*
%TD*%
D12*
%TO.P,R1,1*%
%TO.N,Net-(SW1-B)*%
X69806000Y-90274000D03*
%TO.P,R1,2*%
%TO.N,/V_Battery+*%
X69806000Y-93374000D03*
%TD*%
D13*
%TO.P,R4,1*%
%TO.N,Net-(U3-FSW)*%
X84906000Y-82074000D03*
%TO.P,R4,2*%
%TO.N,Net-(R21-Pad2)*%
X86906000Y-82074000D03*
%TD*%
D14*
%TO.P,C15,1*%
%TO.N,/Stepped Down 5V*%
X101406000Y-143299000D03*
%TO.P,C15,2*%
%TO.N,GND*%
X101406000Y-140174000D03*
%TD*%
D15*
%TO.P,C19,1*%
%TO.N,Net-(C19-Pad1)*%
X95806000Y-74049000D03*
%TO.P,C19,2*%
%TO.N,GND*%
X95806000Y-72499000D03*
%TD*%
D16*
%TO.P,C41,1*%
%TO.N,GND*%
X101306000Y-121636500D03*
%TO.P,C41,2*%
%TO.N,/V_Battery+*%
X101306000Y-123711500D03*
%TD*%
D17*
%TO.P,C22,1*%
%TO.N,/5V Out*%
X97006000Y-76474000D03*
%TO.P,C22,2*%
%TO.N,GND*%
X97006000Y-79599000D03*
%TD*%
D14*
%TO.P,C56,1*%
%TO.N,/Stepped Down 5V*%
X124306000Y-102836500D03*
%TO.P,C56,2*%
%TO.N,GND*%
X124306000Y-99711500D03*
%TD*%
D18*
%TO.P,L3,1,1*%
%TO.N,Net-(D3-K)*%
X107606000Y-121674000D03*
%TO.P,L3,2,2*%
%TO.N,Net-(L3-Pad2)*%
X107606000Y-128074000D03*
%TD*%
D17*
%TO.P,C20,1*%
%TO.N,/5V Out*%
X89606000Y-76474000D03*
%TO.P,C20,2*%
%TO.N,GND*%
X89606000Y-79599000D03*
%TD*%
D13*
%TO.P,R8,1*%
%TO.N,/FB*%
X89406000Y-85974000D03*
%TO.P,R8,2*%
%TO.N,/5V Out*%
X91406000Y-85974000D03*
%TD*%
D19*
%TO.P,R2,1*%
%TO.N,Net-(U1-A1)*%
X62608500Y-88674000D03*
%TO.P,R2,2*%
%TO.N,/5V Out*%
X63803500Y-88674000D03*
%TD*%
D20*
%TO.P,U11,1,~{SLEEP}*%
%TO.N,unconnected-(U11-~{SLEEP}-Pad1)*%
X93306000Y-98774000D03*
%TO.P,U11,2,AOUT1*%
%TO.N,/MOTOR1_A_OUT*%
X93306000Y-99424000D03*
%TO.P,U11,3,AISEN*%
%TO.N,Net-(U11-AISEN)*%
X93306000Y-100074000D03*
%TO.P,U11,4,AOUT2*%
%TO.N,/MOTOR1_B_OUT*%
X93306000Y-100724000D03*
%TO.P,U11,5,BOUT2*%
%TO.N,/Motor2_B_OUT*%
X93306000Y-101374000D03*
%TO.P,U11,6,BISEN*%
%TO.N,Net-(U11-BISEN)*%
X93306000Y-102024000D03*
%TO.P,U11,7,BOUT1*%
%TO.N,/Motor2_A_OUT*%
X93306000Y-102674000D03*
%TO.P,U11,8,~{FAULT}*%
%TO.N,unconnected-(U11-~{FAULT}-Pad8)*%
X93306000Y-103324000D03*
%TO.P,U11,9,BIN1*%
%TO.N,/MOTOR2_CTRL1*%
X99031000Y-103324000D03*
%TO.P,U11,10,BIN2*%
%TO.N,/MOTOR2_CTRL2*%
X99031000Y-102674000D03*
%TO.P,U11,11,VCP*%
%TO.N,Net-(U11-VCP)*%
X99031000Y-102024000D03*
%TO.P,U11,12,VM*%
%TO.N,/V_Battery+*%
X99031000Y-101374000D03*
%TO.P,U11,13,GND*%
%TO.N,GND*%
X99031000Y-100724000D03*
%TO.P,U11,14,VINT*%
%TO.N,Net-(U11-VINT)*%
X99031000Y-100074000D03*
%TO.P,U11,15,AIN2*%
%TO.N,/MOTOR1_CTRL2*%
X99031000Y-99424000D03*
%TO.P,U11,16,AIN1*%
%TO.N,/MOTOR1_CTRL1*%
X99031000Y-98774000D03*
%TD*%
D17*
%TO.P,C47,1*%
%TO.N,/5V Out*%
X115406000Y-88611500D03*
%TO.P,C47,2*%
%TO.N,GND*%
X115406000Y-91736500D03*
%TD*%
D21*
%TO.P,J2,1,Pin_1*%
%TO.N,/V_Battery+*%
X64816000Y-105464000D03*
D22*
%TO.P,J2,2,Pin_2*%
%TO.N,GND*%
X64816000Y-107464000D03*
%TD*%
D23*
%TO.P,C29,1*%
%TO.N,GND*%
X106368500Y-97074000D03*
%TO.P,C29,2*%
%TO.N,Net-(U11-VINT)*%
X104643500Y-97074000D03*
%TD*%
D24*
%TO.P,ind1,1,1*%
%TO.N,Net-(U3-SW_4)*%
X84906000Y-91874000D03*
%TD*%
D25*
%TO.P,R27,1*%
%TO.N,Net-(Q2-D)*%
X73906000Y-143674000D03*
%TO.P,R27,2*%
%TO.N,Net-(R27-Pad2)*%
X73906000Y-140574000D03*
%TD*%
D26*
%TO.P,C1,1*%
%TO.N,/5V Out*%
X108306000Y-72474000D03*
%TO.P,C1,2*%
%TO.N,GND*%
X109441000Y-72474000D03*
%TD*%
%TO.P,C34,1*%
%TO.N,GND*%
X102401000Y-95574000D03*
%TO.P,C34,2*%
%TO.N,/EXT_LOAD2_OUT*%
X103536000Y-95574000D03*
%TD*%
D27*
%TO.P,U13,1*%
%TO.N,N/C*%
X100893500Y-92874000D03*
D28*
%TO.P,U13,3,EN1*%
%TO.N,/CTRL_EXT_LOAD1*%
X101493500Y-92874000D03*
%TO.P,U13,4,VBIAS*%
%TO.N,/5V Out*%
X101893500Y-92874000D03*
%TO.P,U13,5,EN2*%
%TO.N,/CTRL_EXT_LOAD2*%
X102293500Y-92874000D03*
D27*
%TO.P,U13,6*%
%TO.N,N/C*%
X102893500Y-92874000D03*
%TO.P,U13,8*%
X102893500Y-90874000D03*
D28*
%TO.P,U13,10,SS2*%
%TO.N,Net-(U13-SS2)*%
X102293500Y-90874000D03*
%TO.P,U13,11,GND*%
%TO.N,GND*%
X101893500Y-90874000D03*
%TO.P,U13,12,SS1*%
%TO.N,Net-(U13-SS1)*%
X101493500Y-90874000D03*
D27*
%TO.P,U13,14*%
%TO.N,N/C*%
X100893500Y-90874000D03*
D29*
%TO.P,U13,15,EXP*%
%TO.N,GND*%
X101893500Y-91874000D03*
%TD*%
D30*
%TO.P,L6,1,1*%
%TO.N,Net-(D4-K)*%
X119706000Y-75174000D03*
%TO.P,L6,2,2*%
%TO.N,/3.3V Out*%
X126106000Y-75174000D03*
%TD*%
D14*
%TO.P,C14,1*%
%TO.N,/Stepped Down 5V*%
X98106000Y-143274000D03*
%TO.P,C14,2*%
%TO.N,GND*%
X98106000Y-140149000D03*
%TD*%
D31*
%TO.P,C35,1*%
%TO.N,Net-(U13-SS1)*%
X106568500Y-90199000D03*
%TO.P,C35,2*%
%TO.N,GND*%
X106568500Y-91749000D03*
%TD*%
D32*
%TO.P,R16,1*%
%TO.N,GND*%
X114206000Y-134374000D03*
%TO.P,R16,2*%
%TO.N,Net-(U9-CFG1)*%
X114206000Y-136374000D03*
%TD*%
D33*
%TO.P,U14,1,VIN*%
%TO.N,/HV*%
X115031000Y-123174000D03*
%TO.P,U14,2,OUT*%
%TO.N,Net-(D3-K)*%
X115031000Y-124444000D03*
%TO.P,U14,3,FB*%
%TO.N,/Stepped Down 5V*%
X115031000Y-125714000D03*
%TO.P,U14,4,~{EN}*%
%TO.N,GND*%
X115031000Y-126984000D03*
%TO.P,U14,5,GND*%
X119981000Y-126984000D03*
%TO.P,U14,6,GND*%
X119981000Y-125714000D03*
%TO.P,U14,7,GND*%
X119981000Y-124444000D03*
%TO.P,U14,8,GND*%
X119981000Y-123174000D03*
%TD*%
D25*
%TO.P,R35,1*%
%TO.N,Net-(U11-AISEN)*%
X93306000Y-96624000D03*
%TO.P,R35,2*%
%TO.N,GND*%
X93306000Y-93524000D03*
%TD*%
D34*
%TO.P,C50,1*%
%TO.N,GND*%
X125443500Y-113979000D03*
%TO.P,C50,2*%
%TO.N,/HV*%
X122368500Y-113979000D03*
%TD*%
D35*
%TO.P,D4,1,K*%
%TO.N,Net-(D4-K)*%
X116606000Y-73674000D03*
%TO.P,D4,2,A*%
%TO.N,GND*%
X112606000Y-73674000D03*
%TD*%
D36*
%TO.P,D3,1,K*%
%TO.N,Net-(D3-K)*%
X115406000Y-118379000D03*
%TO.P,D3,2,A*%
%TO.N,GND*%
X119406000Y-118379000D03*
%TD*%
D24*
%TO.P,ind2,1,1*%
%TO.N,/Vcc*%
X73406000Y-85274000D03*
%TD*%
D33*
%TO.P,U2,1,VIN*%
%TO.N,/5V Out*%
X104631000Y-79269000D03*
%TO.P,U2,2,OUT*%
%TO.N,Net-(D4-K)*%
X104631000Y-80539000D03*
%TO.P,U2,3,FB*%
%TO.N,Net-(U2-FB)*%
X104631000Y-81809000D03*
%TO.P,U2,4,~{EN}*%
%TO.N,GND*%
X104631000Y-83079000D03*
%TO.P,U2,5,GND*%
X109581000Y-83079000D03*
%TO.P,U2,6,GND*%
X109581000Y-81809000D03*
%TO.P,U2,7,GND*%
X109581000Y-80539000D03*
%TO.P,U2,8,GND*%
X109581000Y-79269000D03*
%TD*%
D37*
%TO.P,C30,1*%
%TO.N,/V_Battery+*%
X101481000Y-125774000D03*
%TO.P,C30,2*%
%TO.N,Net-(U12-VCP)*%
X99931000Y-125774000D03*
%TD*%
D38*
%TO.P,C46,1*%
%TO.N,/5V Out*%
X114081000Y-80474000D03*
%TO.P,C46,2*%
%TO.N,GND*%
X117206000Y-80474000D03*
%TD*%
D39*
%TO.P,R6,1*%
%TO.N,Net-(C19-Pad1)*%
X92606000Y-74086500D03*
%TO.P,R6,2*%
%TO.N,Net-(U3-COMP)*%
X92606000Y-72261500D03*
%TD*%
D40*
%TO.P,L2,1,1*%
%TO.N,/Vcc*%
X71256000Y-73774000D03*
%TO.P,L2,2,2*%
%TO.N,Net-(U3-SW_4)*%
X74956000Y-73774000D03*
%TD*%
D26*
%TO.P,C27,1*%
%TO.N,/5V Out*%
X101001000Y-88374000D03*
%TO.P,C27,2*%
%TO.N,GND*%
X102136000Y-88374000D03*
%TD*%
D17*
%TO.P,C53,1*%
%TO.N,/3.3V Out*%
X121806000Y-94011500D03*
%TO.P,C53,2*%
%TO.N,Net-(U2-FB)*%
X121806000Y-97136500D03*
%TD*%
D41*
%TO.P,R15,1*%
%TO.N,/HV*%
X125706000Y-138371500D03*
%TO.P,R15,2*%
%TO.N,Net-(U9-VDD)*%
X125706000Y-137176500D03*
%TD*%
D38*
%TO.P,C40,1*%
%TO.N,/5V Out*%
X114143500Y-85674000D03*
%TO.P,C40,2*%
%TO.N,GND*%
X117268500Y-85674000D03*
%TD*%
D17*
%TO.P,C42,1*%
%TO.N,/3.3V Out*%
X118006000Y-94011500D03*
%TO.P,C42,2*%
%TO.N,Net-(U2-FB)*%
X118006000Y-97136500D03*
%TD*%
D42*
%TO.P,C49,1*%
%TO.N,GND*%
X115268500Y-105274000D03*
%TO.P,C49,2*%
%TO.N,/HV*%
X118343500Y-105274000D03*
%TD*%
D43*
%TO.P,C45,1*%
%TO.N,GND*%
X106343500Y-100374000D03*
%TO.P,C45,2*%
%TO.N,/V_Battery+*%
X104268500Y-100374000D03*
%TD*%
D44*
%TO.P,R29,1*%
%TO.N,Net-(U12-BISEN)*%
X91806000Y-124861500D03*
%TO.P,R29,2*%
%TO.N,GND*%
X91806000Y-126686500D03*
%TD*%
D23*
%TO.P,C18,1*%
%TO.N,Net-(U3-SS)*%
X81606000Y-85474000D03*
%TO.P,C18,2*%
%TO.N,GND*%
X79881000Y-85474000D03*
%TD*%
D24*
%TO.P,Comp1,1,1*%
%TO.N,Net-(U3-COMP)*%
X101906000Y-72874000D03*
%TD*%
D26*
%TO.P,C17,1*%
%TO.N,Net-(U3-BOOT)*%
X81871000Y-82674000D03*
%TO.P,C17,2*%
%TO.N,Net-(U3-SW_4)*%
X83006000Y-82674000D03*
%TD*%
D25*
%TO.P,R26,1*%
%TO.N,Net-(U11-BISEN)*%
X89506000Y-96424000D03*
%TO.P,R26,2*%
%TO.N,GND*%
X89506000Y-93324000D03*
%TD*%
D19*
%TO.P,R9,1*%
%TO.N,Net-(U1-SDA)*%
X61706000Y-101174000D03*
%TO.P,R9,2*%
%TO.N,/SDA_INA219*%
X62901000Y-101174000D03*
%TD*%
D45*
%TO.P,R21,1*%
%TO.N,Net-(U3-SW_4)*%
X86906000Y-84974000D03*
%TO.P,R21,2*%
%TO.N,Net-(R21-Pad2)*%
X83806000Y-84974000D03*
%TD*%
D26*
%TO.P,C51,1*%
%TO.N,GND*%
X66706000Y-90174000D03*
%TO.P,C51,2*%
%TO.N,/5V Out*%
X67841000Y-90174000D03*
%TD*%
D46*
%TO.P,U3,1,VCC*%
%TO.N,Net-(U3-VCC)*%
X82880500Y-75526500D03*
D47*
%TO.P,U3,2,EN*%
%TO.N,/Vcc*%
X81903500Y-75963500D03*
%TO.P,U3,3,FSW*%
%TO.N,Net-(U3-FSW)*%
X81903500Y-76463500D03*
%TO.P,U3,4,SW_7*%
%TO.N,unconnected-(U3-SW_7-Pad4)*%
X81903500Y-76963500D03*
%TO.P,U3,5,SW_4*%
%TO.N,Net-(U3-SW_4)*%
X81903500Y-77463500D03*
%TO.P,U3,6,SW_5*%
%TO.N,unconnected-(U3-SW_5-Pad6)*%
X81903500Y-77963500D03*
%TO.P,U3,7,SW_6*%
%TO.N,unconnected-(U3-SW_6-Pad7)*%
X81903500Y-78463500D03*
%TO.P,U3,8,BOOT*%
%TO.N,Net-(U3-BOOT)*%
X81903500Y-78963500D03*
%TO.P,U3,9,VIN*%
%TO.N,/Vcc*%
X81903500Y-79463500D03*
D46*
%TO.P,U3,10,SS*%
%TO.N,Net-(U3-SS)*%
X82880500Y-79896500D03*
%TO.P,U3,11,NC_11*%
%TO.N,unconnected-(U3-NC_11-Pad11)*%
X84380500Y-79896500D03*
D47*
%TO.P,U3,12,NC_12*%
%TO.N,unconnected-(U3-NC_12-Pad12)*%
X85357500Y-79463500D03*
%TO.P,U3,13,MODE*%
%TO.N,unconnected-(U3-MODE-Pad13)*%
X85357500Y-78963500D03*
%TO.P,U3,14,VOUT_16*%
%TO.N,unconnected-(U3-VOUT_16-Pad14)*%
X85357500Y-78463500D03*
%TO.P,U3,15,VOUT_14*%
%TO.N,/5V Out*%
X85357500Y-77963500D03*
%TO.P,U3,16,VOUT_15*%
%TO.N,unconnected-(U3-VOUT_15-Pad16)*%
X85357500Y-77463500D03*
%TO.P,U3,17,FB*%
%TO.N,/FB*%
X85357500Y-76963500D03*
%TO.P,U3,18,COMP*%
%TO.N,Net-(U3-COMP)*%
X85357500Y-76463500D03*
%TO.P,U3,19,ILIM*%
%TO.N,Net-(U3-ILIM)*%
X85357500Y-75963500D03*
D46*
%TO.P,U3,20,AGND*%
%TO.N,GND*%
X84380500Y-75526500D03*
D48*
%TO.P,U3,21,PGND*%
X83631000Y-77711500D03*
%TD*%
D18*
%TO.P,L5,1,1*%
%TO.N,Net-(L4-Pad2)*%
X107506000Y-140074000D03*
%TO.P,L5,2,2*%
%TO.N,/Stepped Down 5V*%
X107506000Y-146474000D03*
%TD*%
D24*
%TO.P,TP17,1,1*%
%TO.N,/5V Out*%
X123906000Y-86074000D03*
%TD*%
D17*
%TO.P,C38,1*%
%TO.N,/5V Out*%
X119906000Y-88511500D03*
%TO.P,C38,2*%
%TO.N,GND*%
X119906000Y-91636500D03*
%TD*%
D49*
%TO.P,Q2,1,G*%
%TO.N,/FAST_CHARGE_CTRL*%
X77006000Y-137174000D03*
%TO.P,Q2,2,S*%
%TO.N,Net-(Q2-S)*%
X77006000Y-139074000D03*
%TO.P,Q2,3,D*%
%TO.N,Net-(Q2-D)*%
X78881000Y-138124000D03*
%TD*%
D23*
%TO.P,C52,1*%
%TO.N,GND*%
X82331000Y-71074000D03*
%TO.P,C52,2*%
%TO.N,Net-(U3-VCC)*%
X80606000Y-71074000D03*
%TD*%
D50*
%TO.P,C32,1*%
%TO.N,GND*%
X102103500Y-85874000D03*
%TO.P,C32,2*%
%TO.N,/5V Out*%
X100968500Y-85874000D03*
%TD*%
D51*
%TO.P,C39,1*%
%TO.N,/Vcc*%
X77831000Y-83274000D03*
%TO.P,C39,2*%
%TO.N,GND*%
X79906000Y-83274000D03*
%TD*%
D17*
%TO.P,C37,1*%
%TO.N,/5V Out*%
X110806000Y-88611500D03*
%TO.P,C37,2*%
%TO.N,GND*%
X110806000Y-91736500D03*
%TD*%
D52*
%TO.P,R7,1*%
%TO.N,GND*%
X91106000Y-82274000D03*
%TO.P,R7,2*%
%TO.N,/FB*%
X89106000Y-82274000D03*
%TD*%
D53*
%TO.P,SW1,1,A*%
%TO.N,/Vcc*%
X66106000Y-80774000D03*
%TO.P,SW1,2,B*%
%TO.N,Net-(SW1-B)*%
X70906000Y-80774000D03*
%TO.P,SW1,3,C*%
%TO.N,unconnected-(SW1-C-Pad3)*%
X75706000Y-80774000D03*
%TD*%
D33*
%TO.P,U1,1,A1*%
%TO.N,Net-(U1-A1)*%
X61731000Y-93669000D03*
%TO.P,U1,2,A0*%
%TO.N,GND*%
X61731000Y-94939000D03*
%TO.P,U1,3,SDA*%
%TO.N,Net-(U1-SDA)*%
X61731000Y-96209000D03*
%TO.P,U1,4,SCL*%
%TO.N,Net-(U1-SCL)*%
X61731000Y-97479000D03*
%TO.P,U1,5,VS*%
%TO.N,/5V Out*%
X66681000Y-97479000D03*
%TO.P,U1,6,GND*%
%TO.N,GND*%
X66681000Y-96209000D03*
%TO.P,U1,7,IN-*%
%TO.N,Net-(SW1-B)*%
X66681000Y-94939000D03*
%TO.P,U1,8,IN+*%
%TO.N,/V_Battery+*%
X66681000Y-93669000D03*
%TD*%
D19*
%TO.P,R3,1*%
%TO.N,Net-(U1-SCL)*%
X66708500Y-87374000D03*
%TO.P,R3,2*%
%TO.N,/SCLK_INA219*%
X67903500Y-87374000D03*
%TD*%
D54*
%TO.P,R34,1*%
%TO.N,Net-(R33-Pad2)*%
X83181000Y-132374000D03*
%TO.P,R34,2*%
%TO.N,GND*%
X85006000Y-132374000D03*
%TD*%
D15*
%TO.P,C36,1*%
%TO.N,Net-(U13-SS2)*%
X106568500Y-94849000D03*
%TO.P,C36,2*%
%TO.N,GND*%
X106568500Y-93299000D03*
%TD*%
D55*
%TO.P,C31,1*%
%TO.N,GND*%
X102506000Y-119636500D03*
%TO.P,C31,2*%
%TO.N,Net-(U12-VINT)*%
X102506000Y-117911500D03*
%TD*%
D17*
%TO.P,C43,1*%
%TO.N,/3.3V Out*%
X114106000Y-94011500D03*
%TO.P,C43,2*%
%TO.N,Net-(U2-FB)*%
X114106000Y-97136500D03*
%TD*%
D44*
%TO.P,R30,1*%
%TO.N,Net-(U12-BISEN)*%
X88806000Y-124861500D03*
%TO.P,R30,2*%
%TO.N,GND*%
X88806000Y-126686500D03*
%TD*%
D33*
%TO.P,U15,1,TEMP*%
%TO.N,Net-(U15-TEMP)*%
X85231000Y-141969000D03*
%TO.P,U15,2,PROG*%
%TO.N,Net-(Q2-D)*%
X85231000Y-143239000D03*
%TO.P,U15,3,GND*%
%TO.N,GND*%
X85231000Y-144509000D03*
%TO.P,U15,4,V_{CC}*%
%TO.N,/Stepped Down 5V*%
X85231000Y-145779000D03*
%TO.P,U15,5,BAT*%
%TO.N,/V_Battery+*%
X90181000Y-145779000D03*
%TO.P,U15,6,~{STDBY}*%
%TO.N,unconnected-(U15-~{STDBY}-Pad6)*%
X90181000Y-144509000D03*
%TO.P,U15,7,~{CHRG}*%
%TO.N,unconnected-(U15-~{CHRG}-Pad7)*%
X90181000Y-143239000D03*
%TO.P,U15,8,CE*%
%TO.N,/Stepped Down 5V*%
X90181000Y-141969000D03*
D56*
%TO.P,U15,9,EPAD*%
%TO.N,GND*%
X87706000Y-143874000D03*
%TD*%
D57*
%TO.P,R19,1*%
%TO.N,GND*%
X85431000Y-134674000D03*
%TO.P,R19,2*%
%TO.N,Net-(U15-TEMP)*%
X83606000Y-134674000D03*
%TD*%
D18*
%TO.P,L4,1,1*%
%TO.N,Net-(L3-Pad2)*%
X107406000Y-130774000D03*
%TO.P,L4,2,2*%
%TO.N,Net-(L4-Pad2)*%
X107406000Y-137174000D03*
%TD*%
D34*
%TO.P,C26,1*%
%TO.N,GND*%
X125443500Y-127029000D03*
%TO.P,C26,2*%
%TO.N,/HV*%
X122368500Y-127029000D03*
%TD*%
D24*
%TO.P,HV1,1,1*%
%TO.N,/HV*%
X110406000Y-117974000D03*
%TD*%
D17*
%TO.P,C54,1*%
%TO.N,/3.3V Out*%
X125606000Y-92411500D03*
%TO.P,C54,2*%
%TO.N,Net-(U2-FB)*%
X125606000Y-95536500D03*
%TD*%
D38*
%TO.P,C55,1*%
%TO.N,/3.3V Out*%
X117043500Y-100674000D03*
%TO.P,C55,2*%
%TO.N,Net-(U2-FB)*%
X120168500Y-100674000D03*
%TD*%
D58*
%TO.P,J1,1,Pin_1*%
%TO.N,/Motor2_B_OUT*%
X76836000Y-90144000D03*
D59*
%TO.P,J1,2,Pin_2*%
%TO.N,/Motor2_A_OUT*%
X74296000Y-90144000D03*
%TO.P,J1,3,Pin_3*%
%TO.N,/Motor4_A_OUT*%
X76836000Y-92684000D03*
%TO.P,J1,4,Pin_4*%
%TO.N,/MOTOR2_CTRL1*%
X74296000Y-92684000D03*
%TO.P,J1,5,Pin_5*%
%TO.N,/Motor4_B_OUT*%
X76836000Y-95224000D03*
%TO.P,J1,6,Pin_6*%
%TO.N,/MOTOR2_CTRL2*%
X74296000Y-95224000D03*
%TO.P,J1,7,Pin_7*%
%TO.N,/CTRL_EXT_LOAD2*%
X76836000Y-97764000D03*
%TO.P,J1,8,Pin_8*%
%TO.N,/MOTOR4_CTRL1*%
X74296000Y-97764000D03*
%TO.P,J1,9,Pin_9*%
%TO.N,unconnected-(J1-Pin_9-Pad9)*%
X76836000Y-100304000D03*
%TO.P,J1,10,Pin_10*%
%TO.N,/MOTOR4_CTRL2*%
X74296000Y-100304000D03*
%TO.P,J1,11,Pin_11*%
%TO.N,/EXT_LOAD2_OUT*%
X76836000Y-102844000D03*
%TO.P,J1,12,Pin_12*%
%TO.N,unconnected-(J1-Pin_12-Pad12)*%
X74296000Y-102844000D03*
%TO.P,J1,13,Pin_13*%
%TO.N,/FAST_CHARGE_CTRL*%
X76836000Y-105384000D03*
%TO.P,J1,14,Pin_14*%
%TO.N,/V_Battery+*%
X74296000Y-105384000D03*
%TO.P,J1,15,Pin_15*%
%TO.N,unconnected-(J1-Pin_15-Pad15)*%
X76836000Y-107924000D03*
%TO.P,J1,16,Pin_16*%
%TO.N,/SCLK_INA219*%
X74296000Y-107924000D03*
%TO.P,J1,17,Pin_17*%
%TO.N,/SDA_INA219*%
X76836000Y-110464000D03*
%TO.P,J1,18,Pin_18*%
%TO.N,/3.3V Out*%
X74296000Y-110464000D03*
%TO.P,J1,19,Pin_19*%
%TO.N,GND*%
X76836000Y-113004000D03*
%TO.P,J1,20,Pin_20*%
%TO.N,/5V Out*%
X74296000Y-113004000D03*
%TO.P,J1,21,Pin_21*%
%TO.N,/EXT_LOAD1_OUT*%
X76836000Y-115544000D03*
%TO.P,J1,22,Pin_22*%
%TO.N,/HV*%
X74296000Y-115544000D03*
%TO.P,J1,23,Pin_23*%
%TO.N,GND*%
X76836000Y-118084000D03*
%TO.P,J1,24,Pin_24*%
%TO.N,/MOTOR3_CTRL1*%
X74296000Y-118084000D03*
%TO.P,J1,25,Pin_25*%
%TO.N,/CTRL_EXT_LOAD1*%
X76836000Y-120624000D03*
%TO.P,J1,26,Pin_26*%
%TO.N,/MOTOR3_CTRL2*%
X74296000Y-120624000D03*
%TO.P,J1,27,Pin_27*%
%TO.N,/MOTOR3_A_OUT*%
X76836000Y-123164000D03*
%TO.P,J1,28,Pin_28*%
%TO.N,/MOTOR1_CTRL1*%
X74296000Y-123164000D03*
%TO.P,J1,29,Pin_29*%
%TO.N,/MOTOR3_B_OUT*%
X76836000Y-125704000D03*
%TO.P,J1,30,Pin_30*%
%TO.N,/MOTOR1_CTRL2*%
X74296000Y-125704000D03*
%TO.P,J1,31,Pin_31*%
%TO.N,/MOTOR1_B_OUT*%
X76836000Y-128244000D03*
%TO.P,J1,32,Pin_32*%
%TO.N,/MOTOR1_A_OUT*%
X74296000Y-128244000D03*
%TD*%
D60*
%TO.P,C24,1*%
%TO.N,Net-(U9-VDD)*%
X125706000Y-133841500D03*
%TO.P,C24,2*%
%TO.N,GND*%
X125706000Y-132706500D03*
%TD*%
D57*
%TO.P,R33,1*%
%TO.N,Net-(Q2-S)*%
X84531000Y-137261500D03*
%TO.P,R33,2*%
%TO.N,Net-(R33-Pad2)*%
X82706000Y-137261500D03*
%TD*%
D54*
%TO.P,R31,1*%
%TO.N,Net-(U12-AISEN)*%
X95906000Y-112774000D03*
%TO.P,R31,2*%
%TO.N,GND*%
X97731000Y-112774000D03*
%TD*%
D20*
%TO.P,U12,1,~{SLEEP}*%
%TO.N,unconnected-(U12-~{SLEEP}-Pad1)*%
X92331000Y-117799000D03*
%TO.P,U12,2,AOUT1*%
%TO.N,/MOTOR3_A_OUT*%
X92331000Y-118449000D03*
%TO.P,U12,3,AISEN*%
%TO.N,Net-(U12-AISEN)*%
X92331000Y-119099000D03*
%TO.P,U12,4,AOUT2*%
%TO.N,/MOTOR3_B_OUT*%
X92331000Y-119749000D03*
%TO.P,U12,5,BOUT2*%
%TO.N,/Motor4_B_OUT*%
X92331000Y-120399000D03*
%TO.P,U12,6,BISEN*%
%TO.N,Net-(U12-BISEN)*%
X92331000Y-121049000D03*
%TO.P,U12,7,BOUT1*%
%TO.N,/Motor4_A_OUT*%
X92331000Y-121699000D03*
%TO.P,U12,8,~{FAULT}*%
%TO.N,unconnected-(U12-~{FAULT}-Pad8)*%
X92331000Y-122349000D03*
%TO.P,U12,9,BIN1*%
%TO.N,/MOTOR4_CTRL1*%
X98056000Y-122349000D03*
%TO.P,U12,10,BIN2*%
%TO.N,/MOTOR4_CTRL2*%
X98056000Y-121699000D03*
%TO.P,U12,11,VCP*%
%TO.N,Net-(U12-VCP)*%
X98056000Y-121049000D03*
%TO.P,U12,12,VM*%
%TO.N,/V_Battery+*%
X98056000Y-120399000D03*
%TO.P,U12,13,GND*%
%TO.N,GND*%
X98056000Y-119749000D03*
%TO.P,U12,14,VINT*%
%TO.N,Net-(U12-VINT)*%
X98056000Y-119099000D03*
%TO.P,U12,15,AIN2*%
%TO.N,/MOTOR3_CTRL2*%
X98056000Y-118449000D03*
%TO.P,U12,16,AIN1*%
%TO.N,/MOTOR3_CTRL1*%
X98056000Y-117799000D03*
%TD*%
D24*
%TO.P,3v3Reg1,1,1*%
%TO.N,/3.3V Out*%
X121606000Y-81874000D03*
%TD*%
D31*
%TO.P,C28,1*%
%TO.N,/V_Battery+*%
X103506000Y-103599000D03*
%TO.P,C28,2*%
%TO.N,Net-(U11-VCP)*%
X103506000Y-105149000D03*
%TD*%
D32*
%TO.P,R28,1*%
%TO.N,Net-(R27-Pad2)*%
X82306000Y-141774000D03*
%TO.P,R28,2*%
%TO.N,GND*%
X82306000Y-143774000D03*
%TD*%
D61*
%TO.P,J3,A1_B12,GND*%
%TO.N,GND*%
X117106000Y-140224000D03*
%TO.P,J3,A4_B9,VBUS*%
%TO.N,/HV*%
X117906000Y-140224000D03*
D62*
%TO.P,J3,A5,CC1*%
%TO.N,Net-(J3-CC1)*%
X119056000Y-140224000D03*
%TO.P,J3,A6,DP1*%
%TO.N,Net-(J3-DP1)*%
X120056000Y-140224000D03*
%TO.P,J3,A7,DN1*%
%TO.N,Net-(J3-DN1)*%
X120556000Y-140224000D03*
%TO.P,J3,A8,SBU1*%
%TO.N,unconnected-(J3-SBU1-PadA8)*%
X121556000Y-140224000D03*
D61*
%TO.P,J3,B1_A12,GND*%
%TO.N,GND*%
X123506000Y-140224000D03*
%TO.P,J3,B4_A9,VBUS*%
%TO.N,/HV*%
X122706000Y-140224000D03*
D62*
%TO.P,J3,B5,CC2*%
%TO.N,Net-(J3-CC2)*%
X122056000Y-140224000D03*
%TO.P,J3,B6,DP2*%
%TO.N,unconnected-(J3-DP2-PadB6)*%
X121056000Y-140224000D03*
%TO.P,J3,B7,DN2*%
%TO.N,unconnected-(J3-DN2-PadB7)*%
X119556000Y-140224000D03*
%TO.P,J3,B8,SBU2*%
%TO.N,unconnected-(J3-SBU2-PadB8)*%
X118556000Y-140224000D03*
D63*
%TO.P,J3,S1,SHIELD*%
%TO.N,GND*%
X115981000Y-140804000D03*
%TO.P,J3,S2,SHIELD*%
X124631000Y-140804000D03*
D64*
%TO.P,J3,S3,SHIELD*%
X115981000Y-144974000D03*
%TO.P,J3,S4,SHIELD*%
X124631000Y-144974000D03*
%TD*%
D65*
%TO.P,C48,1*%
%TO.N,GND*%
X68406000Y-115436500D03*
%TO.P,C48,2*%
%TO.N,/HV*%
X68406000Y-118511500D03*
%TD*%
D60*
%TO.P,C33,1*%
%TO.N,/EXT_LOAD1_OUT*%
X105368500Y-88809000D03*
%TO.P,C33,2*%
%TO.N,GND*%
X105368500Y-87674000D03*
%TD*%
D44*
%TO.P,R32,1*%
%TO.N,Net-(U12-AISEN)*%
X85806000Y-124761500D03*
%TO.P,R32,2*%
%TO.N,GND*%
X85806000Y-126586500D03*
%TD*%
D17*
%TO.P,C21,1*%
%TO.N,/5V Out*%
X93306000Y-76474000D03*
%TO.P,C21,2*%
%TO.N,GND*%
X93306000Y-79599000D03*
%TD*%
D66*
%TO.P,U9,1,VDD*%
%TO.N,Net-(U9-VDD)*%
X121981000Y-137774000D03*
%TO.P,U9,2,CFG2*%
%TO.N,unconnected-(U9-CFG2-Pad2)*%
X121981000Y-136774000D03*
%TO.P,U9,3,CFG3*%
%TO.N,unconnected-(U9-CFG3-Pad3)*%
X121981000Y-135774000D03*
%TO.P,U9,4,DP*%
%TO.N,Net-(J3-DP1)*%
X121981000Y-134774000D03*
%TO.P,U9,5,DM*%
%TO.N,Net-(J3-DN1)*%
X121981000Y-133774000D03*
%TO.P,U9,6,CC2*%
%TO.N,Net-(J3-CC2)*%
X116706000Y-133774000D03*
%TO.P,U9,7,CC1*%
%TO.N,Net-(J3-CC1)*%
X116706000Y-134774000D03*
%TO.P,U9,8,VBUS*%
%TO.N,Net-(U9-VBUS)*%
X116706000Y-135774000D03*
%TO.P,U9,9,CFG1*%
%TO.N,Net-(U9-CFG1)*%
X116706000Y-136774000D03*
%TO.P,U9,10,PG*%
%TO.N,unconnected-(U9-PG-Pad10)*%
X116706000Y-137774000D03*
D67*
%TO.P,U9,11,GND*%
%TO.N,GND*%
X119343500Y-135774000D03*
%TD*%
D68*
%TO.P,C16,1*%
%TO.N,GND*%
X78006000Y-72906500D03*
%TO.P,C16,2*%
%TO.N,/Vcc*%
X78006000Y-74041500D03*
%TD*%
D45*
%TO.P,R5,1*%
%TO.N,GND*%
X88806000Y-71274000D03*
%TO.P,R5,2*%
%TO.N,Net-(U3-ILIM)*%
X85706000Y-71274000D03*
%TD*%
D24*
%TO.P,VBat1,1,1*%
%TO.N,/V_Battery+*%
X90806000Y-108174000D03*
%TD*%
D69*
%TO.N,/5V Out*%
X91406000Y-84314400D03*
X68398700Y-97379100D03*
X123197000Y-87660300D03*
X63790800Y-91116500D03*
X112175000Y-87313100D03*
%TO.N,GND*%
X79306000Y-72974000D03*
X82106000Y-72574000D03*
D70*
X121726046Y-108914042D03*
D69*
X101006000Y-95774000D03*
X70724800Y-102136000D03*
X68406000Y-112253000D03*
X83006000Y-72474000D03*
D70*
X101726046Y-108914042D03*
D69*
X87637800Y-72474000D03*
X94710600Y-72499000D03*
X108506000Y-101074000D03*
D70*
X111726046Y-108914042D03*
D69*
X97201000Y-90452300D03*
%TO.N,/HV*%
X117832000Y-139048000D03*
X121806000Y-122674000D03*
X122806000Y-139074000D03*
X116206000Y-121074000D03*
%TO.N,/EXT_LOAD1_OUT*%
X107374000Y-115024000D03*
%TO.N,/EXT_LOAD2_OUT*%
X102729000Y-97967400D03*
%TO.N,/SDA_INA219*%
X63332200Y-109131000D03*
%TO.N,/MOTOR1_CTRL2*%
X89980100Y-120074000D03*
%TO.N,/MOTOR1_A_OUT*%
X85856700Y-119297000D03*
%TO.N,/Motor2_B_OUT*%
X95310000Y-95684600D03*
%TO.N,/MOTOR2_CTRL1*%
X96554100Y-101010000D03*
%TO.N,/MOTOR1_B_OUT*%
X78329300Y-120853000D03*
X86583800Y-120209000D03*
%TO.N,/MOTOR1_CTRL1*%
X88980800Y-118926000D03*
%TO.N,/MOTOR2_CTRL2*%
X97685200Y-101737000D03*
%TO.N,/Motor2_A_OUT*%
X91074600Y-100943000D03*
%TO.N,/MOTOR4_CTRL1*%
X95887100Y-117306000D03*
X82787000Y-118094000D03*
%TO.N,/MOTOR3_CTRL1*%
X98056000Y-116376000D03*
%TO.N,/MOTOR3_CTRL2*%
X99404900Y-117844000D03*
%TO.N,/MOTOR3_B_OUT*%
X93691200Y-119488000D03*
%TO.N,/Motor4_B_OUT*%
X95160400Y-119654000D03*
X85405400Y-95669900D03*
X85405400Y-115928000D03*
%TO.N,/MOTOR3_A_OUT*%
X90666200Y-118925000D03*
%TO.N,/MOTOR4_CTRL2*%
X96678800Y-121013000D03*
X83799200Y-115960000D03*
%TO.N,/CTRL_EXT_LOAD1*%
X80206000Y-98309000D03*
X79806000Y-120005000D03*
X79806000Y-115874000D03*
X99706000Y-91149000D03*
X81706000Y-112380000D03*
X83512000Y-112380000D03*
X91765400Y-91114700D03*
X81806000Y-115474000D03*
X82274100Y-97906000D03*
%TO.N,/CTRL_EXT_LOAD2*%
X79524700Y-97207000D03*
X81494000Y-97125700D03*
X96281000Y-88174000D03*
X99806000Y-92599000D03*
%TO.N,/3.3V Out*%
X115768000Y-100908000D03*
%TO.N,/V_Battery+*%
X79651400Y-146874000D03*
X92906000Y-146074000D03*
X100665000Y-101536000D03*
X90806000Y-104207000D03*
%TO.N,/SCLK_INA219*%
X71476500Y-104296000D03*
%TO.N,Net-(SW1-B)*%
X68227800Y-94375500D03*
%TO.N,Net-(U3-BOOT)*%
X80984600Y-78538200D03*
X80406000Y-80441500D03*
X81606000Y-83589400D03*
X77831000Y-80183700D03*
%TO.N,Net-(U3-SW_4)*%
X81077200Y-77394400D03*
X76506000Y-75374000D03*
X83739500Y-83407500D03*
X94379900Y-88903300D03*
%TO.N,Net-(U3-SS)*%
X77906000Y-81674000D03*
X76506000Y-86674000D03*
%TO.N,Net-(U3-FSW)*%
X79307600Y-78268800D03*
X83014500Y-81764000D03*
%TO.N,/FB*%
X88606800Y-80946500D03*
X86757800Y-77041000D03*
%TO.N,Net-(U9-VDD)*%
X124806000Y-135774000D03*
X119796000Y-138024000D03*
%TO.N,Net-(J3-DP1)*%
X114973000Y-138814000D03*
X120525000Y-133277000D03*
%TO.N,Net-(J3-DN1)*%
X113060000Y-131155000D03*
X121981000Y-131155000D03*
%TO.N,Net-(J3-CC2)*%
X117098000Y-132464000D03*
X126863000Y-132464000D03*
%TO.N,Net-(D3-K)*%
X115306000Y-118674000D03*
X112206000Y-124074000D03*
%TO.N,/Stepped Down 5V*%
X126617000Y-116952000D03*
X112906000Y-126974000D03*
X101506000Y-136974000D03*
%TO.N,Net-(U13-SS2)*%
X103906000Y-92574000D03*
X104606000Y-94274000D03*
%TO.N,Net-(U2-FB)*%
X112865000Y-92462400D03*
X107672000Y-87725600D03*
%TD*%
D71*
%TO.N,/5V Out*%
X92033700Y-85346300D02*
X92033700Y-77051700D01*
X101106000Y-90874000D02*
X101044000Y-90811500D01*
X97906000Y-91974000D02*
X99956000Y-94024000D01*
X100968000Y-86012900D02*
X100968000Y-85943400D01*
D72*
X101106000Y-91874000D02*
X100106000Y-91874000D01*
D71*
X108248000Y-72531600D02*
X108306000Y-72474000D01*
X85372000Y-77949000D02*
X85357500Y-77963500D01*
X100968000Y-86013400D02*
X100968000Y-86012900D01*
X114168000Y-80551500D02*
X114168000Y-85674000D01*
X103329000Y-80191200D02*
X103329000Y-80886800D01*
X104251000Y-79269000D02*
X103329000Y-80191200D01*
D73*
X99533500Y-76574000D02*
X101936000Y-76574000D01*
D71*
X101106000Y-88479000D02*
X101106000Y-90874000D01*
X111787000Y-87655700D02*
X110806000Y-88636500D01*
X100968000Y-85943400D02*
X100968000Y-85874000D01*
X104631000Y-79269000D02*
X104251000Y-79269000D01*
X97106000Y-76574000D02*
X97006000Y-76474000D01*
X100968000Y-82173300D02*
X100968000Y-82173800D01*
X91406000Y-85974000D02*
X92033700Y-85346300D01*
X110806000Y-88611500D02*
X110806000Y-88636500D01*
X100968000Y-86013400D02*
X100968000Y-86012900D01*
X100968000Y-84023900D02*
X100968000Y-84024400D01*
X114168000Y-85674000D02*
X114168000Y-87374000D01*
X85268500Y-77949000D02*
X85256000Y-77961500D01*
X100968000Y-86432600D02*
X100968000Y-86153300D01*
X111787000Y-87655700D02*
X111833000Y-87655700D01*
X100968000Y-78009000D02*
X100968000Y-82173300D01*
X119906000Y-88511500D02*
X119906000Y-86134000D01*
X100968000Y-85943400D02*
X100968500Y-85942900D01*
X101044000Y-90811500D02*
X100106000Y-89874000D01*
X91406000Y-84314400D02*
X91406000Y-85974000D01*
X100968000Y-82173300D02*
X100968000Y-82173800D01*
X114143500Y-85674000D02*
X113768000Y-85674000D01*
X97706000Y-76474000D02*
X97806000Y-76574000D01*
X119906000Y-86134000D02*
X114246000Y-80474000D01*
X119906000Y-88536500D02*
X119906000Y-88511500D01*
X99956000Y-94024000D02*
X101044000Y-92936500D01*
X100968000Y-86153300D02*
X100968000Y-86432600D01*
D73*
X97806000Y-76574000D02*
X97106000Y-76574000D01*
D74*
X85281000Y-77949000D02*
X85372000Y-77949000D01*
D71*
X63803500Y-88674000D02*
X64437900Y-89308400D01*
D73*
X91456000Y-76474000D02*
X93306000Y-76474000D01*
X101936000Y-76574000D02*
X104631000Y-79269000D01*
D71*
X100968000Y-82173800D02*
X100968000Y-84023900D01*
X63790800Y-89955500D02*
X63790800Y-91116500D01*
X100968000Y-84023900D02*
X100968000Y-84024400D01*
X113768000Y-85674000D02*
X111787000Y-87655700D01*
X101044000Y-92874000D02*
X101044000Y-92936500D01*
X114168000Y-85674000D02*
X114143500Y-85674000D01*
X100968000Y-85943400D02*
X100968000Y-85874000D01*
X101044000Y-90811500D02*
X101044000Y-90874000D01*
X97906000Y-89874000D02*
X97906000Y-90130600D01*
X100968000Y-86432600D02*
X100968000Y-86433100D01*
X97927000Y-90753000D02*
X97906000Y-90774000D01*
X100968000Y-82173800D02*
X100968000Y-84023900D01*
X68398700Y-97379100D02*
X66780900Y-97379100D01*
D73*
X89606000Y-76474000D02*
X91456000Y-76474000D01*
D71*
X111833000Y-87655700D02*
X112175000Y-87313100D01*
X92033700Y-77051700D02*
X91456000Y-76474000D01*
X103608000Y-81166300D02*
X108248000Y-81166300D01*
X97006000Y-76474000D02*
X97706000Y-76474000D01*
X67841000Y-90174000D02*
X66975400Y-89308400D01*
X108248000Y-86078900D02*
X108248000Y-81166300D01*
X101001000Y-88374000D02*
X101106000Y-88479000D01*
X97927000Y-90151600D02*
X97927000Y-90753000D01*
X100968000Y-84023900D02*
X100968000Y-84024400D01*
X100968000Y-86433100D02*
X100968000Y-88341500D01*
X103329000Y-80886800D02*
X103608000Y-81166300D01*
X97906000Y-91874000D02*
X97906000Y-91974000D01*
X97906000Y-91874000D02*
X100106000Y-91874000D01*
X123906000Y-86951600D02*
X123906000Y-86074000D01*
X97906000Y-90774000D02*
X97906000Y-91874000D01*
X100968000Y-84024400D02*
X100968000Y-85874000D01*
X100968500Y-85942900D02*
X100968500Y-85874000D01*
X101044000Y-92936500D02*
X101106000Y-92874000D01*
D73*
X88131000Y-77949000D02*
X89606000Y-76474000D01*
D71*
X100968000Y-86153300D02*
X100968000Y-86013400D01*
X110806000Y-88636500D02*
X108248000Y-86078900D01*
X97906000Y-90130600D02*
X97927000Y-90151600D01*
X100968000Y-86433100D02*
X100968000Y-86432600D01*
X100968000Y-88341500D02*
X101001000Y-88374000D01*
X100106000Y-89874000D02*
X97906000Y-89874000D01*
X64437900Y-89308400D02*
X63790800Y-89955500D01*
X123197000Y-87660300D02*
X123906000Y-86951600D01*
X114246000Y-80474000D02*
X114168000Y-80551500D01*
X100968000Y-86012900D02*
X100968000Y-85943400D01*
X66780900Y-97379100D02*
X66681000Y-97479000D01*
X85281000Y-77949000D02*
X85268500Y-77949000D01*
X66975400Y-89308400D02*
X64437900Y-89308400D01*
D74*
X85372000Y-77949000D02*
X88131000Y-77949000D01*
D71*
X100968000Y-84024400D02*
X100968000Y-85874000D01*
X99533500Y-76574000D02*
X100968000Y-78009000D01*
D73*
X99533500Y-76574000D02*
X97806000Y-76574000D01*
X93306000Y-76474000D02*
X97006000Y-76474000D01*
D71*
X114081000Y-80474000D02*
X114246000Y-80474000D01*
X108248000Y-81166300D02*
X108248000Y-72531600D01*
X100968000Y-84024400D02*
X100968000Y-85874000D01*
X114168000Y-87374000D02*
X115406000Y-88611500D01*
%TO.N,GND*%
X102908000Y-119234000D02*
X102707000Y-119435000D01*
X124420000Y-140179000D02*
X124630000Y-140388000D01*
X102401000Y-95574000D02*
X102136000Y-95309100D01*
X125444000Y-123429000D02*
X125444000Y-123054000D01*
X115980000Y-142750000D02*
X115980000Y-143414000D01*
X125443500Y-127029000D02*
X125444000Y-127029000D01*
X115381000Y-91711500D02*
X115406000Y-91736500D01*
X106344000Y-100373500D02*
X106344000Y-99300700D01*
X66706000Y-90174000D02*
X66706000Y-90427900D01*
X109581000Y-81809000D02*
X109581000Y-83079000D01*
X85006000Y-126502000D02*
X77764800Y-119261000D01*
X106368000Y-97074000D02*
X106368000Y-97473800D01*
X115981000Y-144740000D02*
X115981000Y-144974000D01*
X106568000Y-93105600D02*
X106568000Y-93106100D01*
X82331000Y-71280200D02*
X82331000Y-71074000D01*
X106568000Y-92274200D02*
X106568000Y-92274700D01*
X114206000Y-134374000D02*
X114206000Y-127809000D01*
X81218900Y-82274000D02*
X79906000Y-82274000D01*
X106568500Y-93203000D02*
X106568500Y-93299000D01*
X119406000Y-122599000D02*
X119406000Y-118379000D01*
D72*
X102806000Y-91874000D02*
X102136000Y-91874000D01*
D71*
X82206000Y-72474000D02*
X82106000Y-72574000D01*
X84106400Y-80507400D02*
X87963800Y-80507400D01*
X88806000Y-71274000D02*
X87637800Y-72442200D01*
X126411000Y-133412000D02*
X125706000Y-132706000D01*
X66706000Y-90427900D02*
X62194900Y-94939000D01*
X115980000Y-144740000D02*
X115980000Y-144929000D01*
X82288500Y-81491600D02*
X81742100Y-82038000D01*
X83631000Y-78974000D02*
X83631000Y-80032000D01*
X97006000Y-79599000D02*
X97006000Y-90002200D01*
X125706000Y-131448000D02*
X125706000Y-127292000D01*
X125706000Y-132706000D02*
X125706000Y-132077000D01*
X106568000Y-93106100D02*
X106568000Y-93202500D01*
X106568000Y-93202500D02*
X106568000Y-93299000D01*
X106344000Y-104296000D02*
X106344000Y-100373500D01*
X123551000Y-140179000D02*
X124420000Y-140179000D01*
X76468200Y-116907000D02*
X75659300Y-116098000D01*
X83631000Y-80032000D02*
X84106400Y-80507400D01*
X95806000Y-72499000D02*
X94710600Y-72499000D01*
X87818500Y-143774000D02*
X88518500Y-143774000D01*
X92732400Y-80172600D02*
X93306000Y-79599000D01*
X94881000Y-139999000D02*
X90465500Y-139999000D01*
X115268500Y-105274000D02*
X115268000Y-105274000D01*
X79238500Y-72906500D02*
X79306000Y-72974000D01*
X85806500Y-126586000D02*
X85806300Y-126586000D01*
X83934500Y-75549000D02*
X83934500Y-73402500D01*
X106568000Y-91749000D02*
X106568000Y-92136500D01*
X106344000Y-99300700D02*
X106368000Y-99275700D01*
X120611000Y-130474000D02*
X121032000Y-130895000D01*
X87706000Y-143874000D02*
X87718500Y-143874000D01*
X125706000Y-132706000D02*
X125706000Y-132706500D01*
X85805800Y-126586000D02*
X85806000Y-126586000D01*
X125444000Y-119080000D02*
X125444000Y-119079000D01*
X125444000Y-125229000D02*
X125444000Y-125230000D01*
X66706000Y-90427900D02*
X68199900Y-91921800D01*
X106568000Y-93105600D02*
X106568000Y-93106100D01*
X115980000Y-143414000D02*
X115980000Y-144172000D01*
X119344000Y-133427000D02*
X119344000Y-135774000D01*
X71013400Y-95920400D02*
X70724800Y-96209000D01*
X85006000Y-126586000D02*
X85006000Y-132374000D01*
X89506000Y-93324000D02*
X93106000Y-93324000D01*
X106568000Y-93202500D02*
X106568000Y-93299000D01*
X125444000Y-123430000D02*
X125444000Y-123429000D01*
X115980000Y-141352000D02*
X115980000Y-140759000D01*
X101956000Y-91874000D02*
X102136000Y-91874000D01*
X102707000Y-119435000D02*
X102606500Y-119535500D01*
X106368000Y-97074000D02*
X103257000Y-93963000D01*
X68406000Y-115436000D02*
X68406000Y-115436500D01*
X117104000Y-140179000D02*
X117061000Y-140179000D01*
X101726000Y-108914000D02*
X106344000Y-104296000D01*
X104631000Y-83079000D02*
X105368000Y-83816500D01*
X125706000Y-132077000D02*
X125706000Y-131448000D01*
X83006000Y-72474000D02*
X83006000Y-71955200D01*
X85806200Y-126586000D02*
X85806000Y-126586000D01*
X75659300Y-114990000D02*
X76468300Y-114181000D01*
X105368500Y-87674000D02*
X106266000Y-87674000D01*
X115980000Y-142750000D02*
X115980000Y-143414000D01*
X125444000Y-115025000D02*
X125444000Y-115024000D01*
X88806000Y-126686000D02*
X88706000Y-126586000D01*
X125444000Y-119080000D02*
X125444000Y-119079000D01*
X123551000Y-140179000D02*
X123506000Y-140224000D01*
X87118500Y-143492000D02*
X87323500Y-143492000D01*
X102707000Y-119435000D02*
X102606500Y-119535500D01*
X88806200Y-126686000D02*
X88806000Y-126686000D01*
X110303000Y-91711500D02*
X115381000Y-91711500D01*
X121032000Y-131892000D02*
X120672000Y-132252000D01*
X84343500Y-75549000D02*
X84356000Y-75561500D01*
X78488500Y-144092000D02*
X78306000Y-144274000D01*
X124630000Y-140388000D02*
X124630000Y-140389000D01*
X102104000Y-85874000D02*
X102136000Y-85906500D01*
X125444000Y-123054000D02*
X125444000Y-122679000D01*
X117268000Y-85674000D02*
X117268000Y-88626200D01*
X90456600Y-82923400D02*
X90456600Y-86649500D01*
X76836000Y-119261000D02*
X76836000Y-118084000D01*
X106368000Y-97874600D02*
X106368000Y-97875100D01*
X115980000Y-142086000D02*
X115980000Y-142750000D01*
X99031000Y-100724000D02*
X101736000Y-100724000D01*
X83094300Y-80568700D02*
X83094300Y-80585800D01*
X81455000Y-82038000D02*
X81218900Y-82274000D01*
X79906000Y-83274000D02*
X79906000Y-85449000D01*
X125444000Y-125230000D02*
X125444000Y-127029000D01*
X81742100Y-82038000D02*
X81455000Y-82038000D01*
X117268000Y-85674000D02*
X117268000Y-88626200D01*
X87323500Y-143492000D02*
X87706000Y-143874000D01*
X106368000Y-97473800D02*
X106368000Y-97074000D01*
X119343500Y-135774000D02*
X119344000Y-135774000D01*
X125444000Y-115024000D02*
X125444000Y-113979000D01*
X97201000Y-90452300D02*
X97201000Y-91969000D01*
X91806000Y-130274000D02*
X94881000Y-133349000D01*
X125444000Y-119079000D02*
X125444000Y-118329000D01*
X101306000Y-121636000D02*
X101306000Y-121636500D01*
X102136000Y-88191600D02*
X102136000Y-88374000D01*
X85131000Y-144409000D02*
X82623500Y-144409000D01*
X119906000Y-91636500D02*
X119906000Y-90724600D01*
X102506000Y-119636000D02*
X102506000Y-119636500D01*
X78006000Y-72906500D02*
X79238500Y-72906500D01*
X85806300Y-126586000D02*
X85806500Y-126586000D01*
X88806000Y-126686000D02*
X88806000Y-126686500D01*
X68406000Y-115436000D02*
X68406000Y-112253000D01*
X85805600Y-126586000D02*
X85805800Y-126586000D01*
X87118500Y-143492000D02*
X87118500Y-142574000D01*
X82306000Y-144092000D02*
X82306000Y-143774000D01*
X84380500Y-75530800D02*
X84380500Y-75526500D01*
X85805600Y-126586000D02*
X85805500Y-126586000D01*
X87963800Y-80507400D02*
X88872200Y-79599000D01*
X98106000Y-140149000D02*
X95031000Y-140149000D01*
X102136000Y-85906500D02*
X102136000Y-88191600D01*
X98174500Y-119868000D02*
X98056000Y-119749000D01*
X90456600Y-86649500D02*
X90810500Y-87003400D01*
X119981000Y-126984000D02*
X115031000Y-126984000D01*
X109581000Y-73674000D02*
X109581000Y-79269000D01*
X101893500Y-91874000D02*
X101893500Y-91500900D01*
X108506000Y-101074000D02*
X110406000Y-101074000D01*
X96827800Y-90002200D02*
X93306000Y-93524000D01*
X124630000Y-140759000D02*
X124630000Y-140389000D01*
X106368000Y-97874600D02*
X106368000Y-97474300D01*
X79906000Y-85449000D02*
X79881000Y-85474000D01*
X94881000Y-133349000D02*
X94881000Y-139999000D01*
X116125000Y-140614000D02*
X116124000Y-140614000D01*
X120519000Y-132252000D02*
X119344000Y-133427000D01*
X115980000Y-141352000D02*
X115980000Y-140759000D01*
X68199900Y-91921800D02*
X70253100Y-91921800D01*
X91806000Y-126686000D02*
X91806000Y-126686500D01*
X115980000Y-142086000D02*
X115980000Y-141352000D01*
X115980000Y-144550000D02*
X115980000Y-144740000D01*
X117268500Y-85674000D02*
X117268000Y-85674000D01*
X125444000Y-119830000D02*
X125444000Y-119080000D01*
X116124000Y-140614000D02*
X116052000Y-140686000D01*
X125444000Y-127029000D02*
X125444000Y-125230000D01*
X124631000Y-141350000D02*
X124631000Y-140804000D01*
X121726000Y-102292000D02*
X121726000Y-108914000D01*
X106568000Y-92524000D02*
X106568000Y-92524500D01*
X125444000Y-113979000D02*
X125444000Y-112632000D01*
X124631000Y-144974000D02*
X124630000Y-144973000D01*
X102908000Y-119234000D02*
X102707000Y-119435000D01*
X90465500Y-139999000D02*
X88518500Y-141946000D01*
X106368500Y-97074000D02*
X106368000Y-97074000D01*
X105837000Y-93299000D02*
X106568000Y-93299000D01*
D72*
X102136000Y-91874000D02*
X101956000Y-91874000D01*
D71*
X88518500Y-144974000D02*
X88518500Y-143774000D01*
X121427000Y-89203200D02*
X119906000Y-90724600D01*
X85431000Y-134674000D02*
X85431000Y-132799000D01*
X89606000Y-80774000D02*
X89606000Y-79599000D01*
X110806000Y-107994000D02*
X111726000Y-108914000D01*
X102408000Y-120001000D02*
X102275000Y-119868000D01*
X102104000Y-85606500D02*
X102104000Y-85874000D01*
X117244000Y-85698500D02*
X117268000Y-85674000D01*
X83006000Y-71955200D02*
X82331000Y-71280200D01*
X77764800Y-119261000D02*
X76836000Y-119261000D01*
X70253100Y-91921800D02*
X71013400Y-92682100D01*
X114206000Y-127809000D02*
X115031000Y-126984000D01*
X110806000Y-101474000D02*
X110806000Y-107994000D01*
X106568000Y-93106100D02*
X106568000Y-93202500D01*
X117268000Y-88626200D02*
X117244000Y-88650700D01*
X101381000Y-140149000D02*
X100119000Y-140149000D01*
X106568000Y-92524500D02*
X106568000Y-92911700D01*
X92732400Y-86295300D02*
X92732400Y-80172600D01*
X125444000Y-123429000D02*
X125444000Y-123054000D01*
X117244000Y-88650700D02*
X117244000Y-85698500D01*
X125706000Y-132706000D02*
X125706000Y-132077000D01*
X88706000Y-126586000D02*
X85806500Y-126586000D01*
X84362300Y-75549000D02*
X84380500Y-75530800D01*
X109441000Y-73534000D02*
X109581000Y-73674000D01*
X106568000Y-92912200D02*
X106568000Y-93105600D01*
X85806200Y-126586000D02*
X85806000Y-126586000D01*
X106368000Y-99275700D02*
X106368000Y-97875100D01*
X85806300Y-126586000D02*
X85806200Y-126586000D01*
X103257000Y-93723100D02*
X103681000Y-93299000D01*
X83934500Y-73402500D02*
X83006000Y-72474000D01*
X124306000Y-99711500D02*
X121726000Y-102292000D01*
X87118500Y-144974000D02*
X87118500Y-144409000D01*
X125444000Y-115025000D02*
X125444000Y-115024000D01*
X103159000Y-99300700D02*
X106344000Y-99300700D01*
X83606000Y-77711500D02*
X83631000Y-77711500D01*
X124630000Y-144973000D02*
X124630000Y-141352000D01*
X125444000Y-112632000D02*
X121726000Y-108914000D01*
X124630000Y-140389000D02*
X124630000Y-140388000D01*
X102104000Y-85874000D02*
X102136000Y-85906500D01*
X125444000Y-125229000D02*
X125444000Y-123430000D01*
X117061000Y-140179000D02*
X117106000Y-140224000D01*
X116052000Y-140686000D02*
X115980000Y-140759000D01*
X95031000Y-140149000D02*
X94881000Y-139999000D01*
X125444000Y-123054000D02*
X125444000Y-122679000D01*
X101406000Y-140174000D02*
X101381000Y-140149000D01*
X117244000Y-90047600D02*
X117244000Y-88650700D01*
X103311000Y-110499000D02*
X103311000Y-118832000D01*
X115980000Y-144172000D02*
X115980000Y-144550000D01*
X97006000Y-90002200D02*
X96977900Y-90002200D01*
X87118500Y-144409000D02*
X87118500Y-143492000D01*
X90810500Y-87003400D02*
X92024300Y-87003400D01*
X82710700Y-80969400D02*
X82710700Y-81041100D01*
X83631000Y-77711500D02*
X83631000Y-78224000D01*
X70724800Y-96209000D02*
X66681000Y-96209000D01*
X102136000Y-95309100D02*
X102136000Y-91874000D01*
X124763000Y-140389000D02*
X126411000Y-138740000D01*
X106568000Y-93202500D02*
X106568000Y-93299000D01*
X119229000Y-90047600D02*
X117244000Y-90047600D01*
X85006000Y-126586000D02*
X85805500Y-126586000D01*
X85131000Y-144409000D02*
X85231000Y-144509000D01*
X82306000Y-144092000D02*
X78488500Y-144092000D01*
X120672000Y-132252000D02*
X120519000Y-132252000D01*
X97201000Y-91969000D02*
X101006000Y-95774000D01*
X109441000Y-72474000D02*
X109441000Y-73534000D01*
X125444000Y-119079000D02*
X125444000Y-118329000D01*
X117061000Y-140179000D02*
X116560000Y-140179000D01*
X88872200Y-79599000D02*
X89606000Y-79599000D01*
X85805600Y-126586000D02*
X85805800Y-126586000D01*
X102408000Y-127178000D02*
X102408000Y-120001000D01*
X125444000Y-125230000D02*
X125444000Y-125229000D01*
X101956000Y-91874000D02*
X101894000Y-91874000D01*
X100119000Y-140149000D02*
X100119000Y-129468000D01*
X116052000Y-140686000D02*
X115980000Y-140759000D01*
X115031000Y-126984000D02*
X118521000Y-130474000D01*
X125706000Y-127292000D02*
X125444000Y-127029000D01*
X124630000Y-140759000D02*
X124630000Y-140389000D01*
X124630000Y-141352000D02*
X124630000Y-140759000D01*
X83934500Y-75549000D02*
X83934500Y-76120500D01*
X101736000Y-100724000D02*
X103159000Y-99300700D01*
X88806200Y-126686000D02*
X88806000Y-126686000D01*
X106568000Y-92524500D02*
X106568000Y-92911700D01*
X109581000Y-79269000D02*
X109581000Y-80539000D01*
X106568500Y-91749000D02*
X106568000Y-91749000D01*
X106568000Y-92274700D02*
X106568000Y-92274200D01*
X83631000Y-76424000D02*
X83631000Y-77711500D01*
X104631000Y-83079000D02*
X102104000Y-85606500D01*
X102606500Y-119535500D02*
X102506000Y-119636000D01*
X71013400Y-92682100D02*
X71013400Y-95920400D01*
X84362300Y-75549000D02*
X84343500Y-75549000D01*
X101306000Y-119868000D02*
X98174500Y-119868000D01*
X106368000Y-97474300D02*
X106368000Y-97473800D01*
X76836000Y-118084000D02*
X76836000Y-116907000D01*
X124630000Y-141352000D02*
X124631000Y-141350000D01*
X106568000Y-92274200D02*
X106568000Y-92136500D01*
X117181000Y-80474000D02*
X121427000Y-84720400D01*
X115980000Y-142086000D02*
X115980000Y-141352000D01*
X76836000Y-116907000D02*
X76468200Y-116907000D01*
X118521000Y-130474000D02*
X120611000Y-130474000D01*
X125444000Y-122679000D02*
X125444000Y-119830000D01*
X117206000Y-80474000D02*
X117181000Y-80474000D01*
X93106000Y-93324000D02*
X93306000Y-93524000D01*
X85006000Y-126586000D02*
X85006000Y-126502000D01*
X96977900Y-90002200D02*
X96977900Y-90229200D01*
X117181000Y-78249000D02*
X117181000Y-80474000D01*
X106368000Y-97473800D02*
X106368000Y-97074000D01*
X96977900Y-90229200D02*
X97201000Y-90452300D01*
X106568000Y-93106100D02*
X106568000Y-93202500D01*
X117268000Y-88626200D02*
X117244000Y-88650700D01*
X125706000Y-132077000D02*
X125706000Y-131448000D01*
X88518500Y-141946000D02*
X88518500Y-143774000D01*
X91106000Y-82274000D02*
X89606000Y-80774000D01*
X85806000Y-126586000D02*
X85805800Y-126586000D01*
X106568000Y-92912200D02*
X106568000Y-93105600D01*
X101206000Y-95574000D02*
X101006000Y-95774000D01*
X106568000Y-93202500D02*
X106568000Y-93299000D01*
X106568000Y-93105600D02*
X106568000Y-93106100D01*
X106568000Y-92136500D02*
X106568000Y-92274200D01*
X103681000Y-93299000D02*
X105837000Y-93299000D01*
X106343500Y-100374000D02*
X106344000Y-100373500D01*
X119981000Y-126984000D02*
X119981000Y-125714000D01*
X100119000Y-140149000D02*
X98106000Y-140149000D01*
X125444000Y-123054000D02*
X125444000Y-122679000D01*
X116560000Y-140179000D02*
X116125000Y-140614000D01*
X83006000Y-72474000D02*
X82206000Y-72474000D01*
X106568000Y-92524000D02*
X106568000Y-92524500D01*
X106568000Y-93106100D02*
X106568000Y-93202500D01*
X106368000Y-97474300D02*
X106368000Y-97473800D01*
X87118500Y-144409000D02*
X85131000Y-144409000D01*
X103311000Y-118832000D02*
X102908000Y-119234000D01*
X97866000Y-112774000D02*
X101726000Y-108914000D01*
X83934500Y-76120500D02*
X83631000Y-76424000D01*
X102606500Y-119535500D02*
X102506000Y-119636000D01*
X119906000Y-90724600D02*
X119229000Y-90047600D01*
X119981000Y-125714000D02*
X119981000Y-124444000D01*
X115980000Y-144172000D02*
X115980000Y-144550000D01*
X125444000Y-118329000D02*
X125444000Y-115025000D01*
X105368000Y-83816500D02*
X105368000Y-87674000D01*
X105837000Y-93299000D02*
X106568000Y-93299000D01*
X125443500Y-113979000D02*
X125444000Y-113979000D01*
X106266000Y-87674000D02*
X110303000Y-91711500D01*
X87637800Y-72442200D02*
X87637800Y-72474000D01*
X84381000Y-75549000D02*
X84362300Y-75549000D01*
X88806200Y-126686000D02*
X91806000Y-126686000D01*
X121032000Y-130895000D02*
X121032000Y-131892000D01*
X117244000Y-90047600D02*
X117095000Y-90047600D01*
X103257000Y-93963000D02*
X103257000Y-93723100D01*
X106568000Y-92911700D02*
X106568000Y-92912200D01*
D75*
X101893500Y-91500900D02*
X101893500Y-90874000D01*
D71*
X102506000Y-119636000D02*
X102275000Y-119868000D01*
X106568000Y-92911700D02*
X106568000Y-92912200D01*
X106568000Y-92912200D02*
X106568000Y-93105600D01*
X85431000Y-132799000D02*
X85006000Y-132374000D01*
X106568000Y-93202500D02*
X106568500Y-93203000D01*
X75659300Y-116098000D02*
X75659300Y-114990000D01*
X102136000Y-88374000D02*
X102136000Y-91874000D01*
X70724800Y-96209000D02*
X70724800Y-102136000D01*
X83631000Y-80032000D02*
X83094300Y-80568700D01*
X115980000Y-144740000D02*
X115981000Y-144740000D01*
X125444000Y-119080000D02*
X125444000Y-119079000D01*
X119981000Y-123174000D02*
X119406000Y-122599000D01*
X85805800Y-126586000D02*
X85806000Y-126586000D01*
X87718500Y-143874000D02*
X87818500Y-143774000D01*
X121427000Y-84720400D02*
X121427000Y-89203200D01*
X101894000Y-91874000D02*
X101893500Y-91874000D01*
X92024300Y-87003400D02*
X92732400Y-86295300D01*
X96977900Y-90002200D02*
X96827800Y-90002200D01*
X79906000Y-82274000D02*
X79906000Y-83274000D01*
X62194900Y-94939000D02*
X61731000Y-94939000D01*
X125444000Y-119830000D02*
X125444000Y-119080000D01*
X124630000Y-140389000D02*
X124763000Y-140389000D01*
X106368000Y-97474300D02*
X106368000Y-97874600D01*
X85805800Y-126586000D02*
X85806000Y-126586200D01*
X123504000Y-140179000D02*
X123551000Y-140179000D01*
X97731000Y-112774000D02*
X97866000Y-112774000D01*
X101726000Y-108914000D02*
X103311000Y-110499000D01*
X85805500Y-126586000D02*
X85805600Y-126586000D01*
X119981000Y-124444000D02*
X119981000Y-123174000D01*
X91106000Y-82274000D02*
X90456600Y-82923400D01*
X82623500Y-144409000D02*
X82306000Y-144092000D01*
X115980000Y-141352000D02*
X115981000Y-141350000D01*
X125444000Y-119079000D02*
X125444000Y-118329000D01*
X82288500Y-81463300D02*
X82288500Y-81491600D01*
X109581000Y-80539000D02*
X109581000Y-81809000D01*
X106568000Y-92524000D02*
X106568000Y-92274700D01*
X110806000Y-91736500D02*
X110806000Y-101474000D01*
D72*
X83631000Y-78974000D02*
X83631000Y-78224000D01*
D71*
X100119000Y-129468000D02*
X102408000Y-127178000D01*
X111726000Y-108914000D02*
X115268000Y-105372000D01*
X91806000Y-126686500D02*
X91806000Y-130274000D01*
X112606000Y-73674000D02*
X117181000Y-78249000D01*
X125444000Y-123430000D02*
X125444000Y-123429000D01*
X85805500Y-126586000D02*
X85805600Y-126586000D01*
X102103500Y-85874000D02*
X102104000Y-85874000D01*
X102401000Y-95574000D02*
X101206000Y-95574000D01*
X121726000Y-108914000D02*
X119406000Y-111234000D01*
X105368000Y-87674000D02*
X105368500Y-87674000D01*
X106368000Y-97473800D02*
X106368000Y-97474300D01*
X106368000Y-97875100D02*
X106368000Y-97874600D01*
X102275000Y-119868000D02*
X101306000Y-119868000D01*
X106568000Y-93105600D02*
X106568000Y-93106100D01*
X115268000Y-105372000D02*
X115268000Y-105274000D01*
X109581000Y-73674000D02*
X112606000Y-73674000D01*
X101306000Y-119868000D02*
X101306000Y-121636000D01*
X83094300Y-80585800D02*
X82710700Y-80969400D01*
X125444000Y-115024000D02*
X125444000Y-113979000D01*
X126411000Y-138740000D02*
X126411000Y-133412000D01*
X117095000Y-90047600D02*
X115406000Y-91736500D01*
X119406000Y-111234000D02*
X119406000Y-118379000D01*
X106568000Y-92911700D02*
X106568000Y-92912200D01*
X102136000Y-85906500D02*
X102136000Y-88191600D01*
X85806000Y-126586200D02*
X85806000Y-126586500D01*
X76468300Y-114181000D02*
X76836000Y-114181000D01*
X76836000Y-114181000D02*
X76836000Y-113004000D01*
X115981000Y-141350000D02*
X115981000Y-140804000D01*
X82710700Y-81041100D02*
X82288500Y-81463300D01*
X110406000Y-101074000D02*
X110806000Y-101474000D01*
X97006000Y-79599000D02*
X93306000Y-79599000D01*
X84343500Y-75549000D02*
X83934500Y-75549000D01*
X85805800Y-126586000D02*
X85805600Y-126586000D01*
%TO.N,/HV*%
X122368000Y-118329000D02*
X122368000Y-119416000D01*
X117406000Y-119605200D02*
X117406000Y-119605000D01*
D76*
X120206000Y-129192000D02*
X122368000Y-127030000D01*
D71*
X68406000Y-118512000D02*
X69957900Y-116960000D01*
X68406000Y-118511500D02*
X69957500Y-116960000D01*
D76*
X122368500Y-127029500D02*
X122369000Y-127029000D01*
D71*
X74296000Y-115544000D02*
X71373500Y-115544000D01*
D76*
X122369000Y-119416000D02*
X122369000Y-122679000D01*
D71*
X112931000Y-121074000D02*
X110406000Y-118549000D01*
D76*
X122369000Y-113979000D02*
X122369000Y-116154000D01*
X122369000Y-118329000D02*
X122369000Y-119416000D01*
D71*
X117406100Y-119605200D02*
X117406000Y-119605200D01*
X122704000Y-140179000D02*
X122706000Y-140180000D01*
D73*
X117906000Y-139122000D02*
X117832000Y-139048000D01*
X123596000Y-138372000D02*
X123597000Y-138372000D01*
D71*
X116206000Y-121074000D02*
X116481000Y-120799000D01*
X69958100Y-116960000D02*
X68406000Y-118512000D01*
D76*
X122369000Y-116154000D02*
X122369000Y-118329000D01*
X120206000Y-129562000D02*
X120206000Y-129561500D01*
D71*
X125705500Y-138372000D02*
X125706000Y-138371500D01*
X122368000Y-127030000D02*
X122368000Y-127029000D01*
D73*
X122806000Y-139153000D02*
X122727000Y-139153000D01*
X123508000Y-138372000D02*
X123596000Y-138372000D01*
D76*
X122369000Y-128737000D02*
X122369000Y-127029000D01*
D71*
X69957900Y-116960000D02*
X69958100Y-116960000D01*
D73*
X122727000Y-139153000D02*
X122707000Y-139153000D01*
D71*
X122368500Y-113979000D02*
X122368000Y-113979000D01*
X122369000Y-113979000D02*
X122368500Y-113979000D01*
X122368000Y-118329000D02*
X122368000Y-116154000D01*
D76*
X122368000Y-127030000D02*
X122368500Y-127029500D01*
D71*
X122368000Y-119416000D02*
X122369000Y-119416000D01*
D73*
X117906000Y-140224000D02*
X117906000Y-140180000D01*
X122806000Y-139074000D02*
X123508000Y-138372000D01*
X122706000Y-139174000D02*
X122727000Y-139153000D01*
D71*
X110406000Y-118549000D02*
X110406000Y-117974000D01*
X117906000Y-140180000D02*
X117904000Y-140179000D01*
D76*
X122369000Y-122679000D02*
X121811000Y-122679000D01*
D71*
X116206000Y-121074000D02*
X112931000Y-121074000D01*
D73*
X122727000Y-139153000D02*
X122806000Y-139074000D01*
D71*
X125705500Y-138372000D02*
X125706000Y-138372000D01*
X123596000Y-138372000D02*
X123597000Y-138372000D01*
X118343500Y-105274000D02*
X117406100Y-106211400D01*
D76*
X123706000Y-136174000D02*
X123706000Y-130074000D01*
D73*
X117906000Y-140180000D02*
X117906000Y-139122000D01*
D71*
X116481000Y-120799000D02*
X117406000Y-120799000D01*
X122705000Y-140179000D02*
X122704000Y-140179000D01*
X122368500Y-127029500D02*
X122368500Y-127029000D01*
X123597000Y-138372000D02*
X125705500Y-138372000D01*
D73*
X122706000Y-140180000D02*
X122706000Y-139174000D01*
D76*
X123706000Y-130074000D02*
X122369000Y-128737000D01*
D71*
X116206000Y-121999000D02*
X115031000Y-123174000D01*
X122368000Y-118329000D02*
X122369000Y-118329000D01*
D73*
X122706000Y-140224000D02*
X122706000Y-140180000D01*
D71*
X69957500Y-116960000D02*
X69957900Y-116960000D01*
X117406000Y-120799000D02*
X117406000Y-119605200D01*
D76*
X120206000Y-129561500D02*
X120206000Y-129192000D01*
X121811000Y-122679000D02*
X121806000Y-122674000D01*
X122369000Y-122679000D02*
X122369000Y-127029000D01*
X123597000Y-138372000D02*
X123597000Y-136283000D01*
D71*
X116206000Y-121074000D02*
X116206000Y-121999000D01*
X117406100Y-106211400D02*
X117406100Y-119605200D01*
D76*
X123597000Y-136283000D02*
X123706000Y-136174000D01*
D73*
X122806000Y-139074000D02*
X122806000Y-139153000D01*
D71*
X71373500Y-115544000D02*
X69958100Y-116960000D01*
X122368000Y-116154000D02*
X122369000Y-116154000D01*
X117904000Y-140179000D02*
X117905000Y-140179000D01*
%TO.N,/EXT_LOAD1_OUT*%
X106476000Y-88809000D02*
X105368500Y-88809000D01*
X103383000Y-90874000D02*
X102744000Y-90874000D01*
X103383000Y-90794800D02*
X103383000Y-90874000D01*
X107374000Y-115024000D02*
X107374000Y-89706400D01*
X107374000Y-89706400D02*
X106476000Y-88809000D01*
X105368000Y-88809000D02*
X103383000Y-90794800D01*
X105368500Y-88809000D02*
X105368000Y-88809000D01*
%TO.N,/EXT_LOAD2_OUT*%
X102806000Y-93364900D02*
X102806000Y-94844000D01*
X102744000Y-93195300D02*
X102744000Y-93194800D01*
X102744000Y-93302400D02*
X102744000Y-93195300D01*
X102806000Y-94844000D02*
X103536000Y-95574000D01*
X102729000Y-96381300D02*
X103536000Y-95574000D01*
X102744000Y-93194800D02*
X102744000Y-93088200D01*
X102744000Y-93194800D02*
X102744000Y-93088200D01*
X102806000Y-93364900D02*
X102744000Y-93302400D01*
X102744000Y-93088200D02*
X102744000Y-92874000D01*
X102729000Y-97967400D02*
X102729000Y-96381300D01*
X102744000Y-93195300D02*
X102744000Y-93194800D01*
X102806000Y-92874000D02*
X102806000Y-93364900D01*
%TO.N,/FAST_CHARGE_CTRL*%
X63006000Y-119174000D02*
X62006000Y-118174000D01*
X73808900Y-106560000D02*
X75660000Y-106560000D01*
X77006000Y-137174000D02*
X65206000Y-137174000D01*
X65206000Y-137174000D02*
X63006000Y-134974000D01*
X62006000Y-118174000D02*
X62006000Y-111074000D01*
X75660000Y-106560000D02*
X76836000Y-105384000D01*
X62006000Y-111074000D02*
X69294800Y-111074000D01*
X69294800Y-111074000D02*
X73808900Y-106560000D01*
X63006000Y-134974000D02*
X63006000Y-119174000D01*
%TO.N,/SDA_INA219*%
X62901000Y-101174000D02*
X62901000Y-108700000D01*
X62901000Y-108700000D02*
X63332200Y-109131000D01*
%TO.N,/MOTOR1_CTRL2*%
X89900800Y-119994000D02*
X89900800Y-114287000D01*
X96395200Y-100141000D02*
X97103000Y-100141000D01*
X89980100Y-120074000D02*
X89900800Y-119994000D01*
X95679900Y-108508000D02*
X95679900Y-100856000D01*
X97103000Y-100141000D02*
X97820100Y-99424000D01*
X89900800Y-114287000D02*
X95679900Y-108508000D01*
X95679900Y-100856000D02*
X96395200Y-100141000D01*
X97820100Y-99424000D02*
X99031000Y-99424000D01*
%TO.N,/MOTOR1_A_OUT*%
X86132100Y-97254600D02*
X86132100Y-119022000D01*
X93306000Y-99424000D02*
X92614400Y-99424000D01*
X86132100Y-119022000D02*
X85856700Y-119297000D01*
X91768800Y-98578400D02*
X91768800Y-96181400D01*
X90529000Y-94941600D02*
X88445100Y-94941600D01*
X91768800Y-96181400D02*
X90529000Y-94941600D01*
X88445100Y-94941600D02*
X86132100Y-97254600D01*
X92614400Y-99424000D02*
X91768800Y-98578400D01*
%TO.N,/Motor2_B_OUT*%
X95310000Y-95684600D02*
X95310000Y-99948700D01*
X94724800Y-100664000D02*
X94015100Y-101374000D01*
X94724800Y-100534000D02*
X94724800Y-100664000D01*
X95310000Y-99948700D02*
X94724800Y-100534000D01*
X94015100Y-101374000D02*
X93306000Y-101374000D01*
%TO.N,/MOTOR2_CTRL1*%
X96554100Y-101644000D02*
X96554100Y-101010000D01*
X99031000Y-103324000D02*
X98233800Y-103324000D01*
X98233800Y-103324000D02*
X96554100Y-101644000D01*
%TO.N,/MOTOR1_B_OUT*%
X90348500Y-95399900D02*
X90842500Y-95893900D01*
X86583800Y-97471300D02*
X88655200Y-95399900D01*
X92606300Y-100724000D02*
X93306000Y-100724000D01*
X88655200Y-95399900D02*
X90348500Y-95399900D01*
X90842500Y-98960200D02*
X92606300Y-100724000D01*
X78329300Y-125942000D02*
X78329300Y-120853000D01*
X76836000Y-128244000D02*
X76836000Y-127067000D01*
X76836000Y-127067000D02*
X77203700Y-127067000D01*
X90842500Y-95893900D02*
X90842500Y-98960200D01*
X86583800Y-120209000D02*
X86583800Y-97471300D01*
X77203700Y-127067000D02*
X78329300Y-125942000D01*
%TO.N,/MOTOR1_CTRL1*%
X95176500Y-100721000D02*
X95176500Y-106891000D01*
X88980800Y-113086000D02*
X88980800Y-118926000D01*
X95176500Y-106891000D02*
X88980800Y-113086000D01*
X97123500Y-98774000D02*
X95176500Y-100721000D01*
X99031000Y-98774000D02*
X97123500Y-98774000D01*
%TO.N,/MOTOR2_CTRL2*%
X97685200Y-102028000D02*
X97685200Y-101737000D01*
X99031000Y-102674000D02*
X98331200Y-102674000D01*
X98331200Y-102674000D02*
X97685200Y-102028000D01*
%TO.N,/Motor2_A_OUT*%
X91074600Y-101211000D02*
X92537300Y-102674000D01*
X92537300Y-102674000D02*
X93306000Y-102674000D01*
X91074600Y-100943000D02*
X91074600Y-101211000D01*
%TO.N,/MOTOR4_CTRL1*%
X76281600Y-98940700D02*
X77180500Y-98940700D01*
X95887100Y-121287000D02*
X95887100Y-117306000D01*
X74296000Y-97764000D02*
X75472700Y-97764000D01*
X75472700Y-97764000D02*
X75472700Y-98131800D01*
X82787000Y-104547000D02*
X82787000Y-118094000D01*
X77180500Y-98940700D02*
X82787000Y-104547000D01*
X75472700Y-98131800D02*
X76281600Y-98940700D01*
X96949200Y-122349000D02*
X95887100Y-121287000D01*
X98056000Y-122349000D02*
X96949200Y-122349000D01*
%TO.N,/MOTOR3_CTRL1*%
X98056000Y-117799000D02*
X98056000Y-116376000D01*
%TO.N,/MOTOR3_CTRL2*%
X98800200Y-118449000D02*
X99404900Y-117844000D01*
X98056000Y-118449000D02*
X98800200Y-118449000D01*
%TO.N,/Motor4_A_OUT*%
X84678700Y-101336000D02*
X84678700Y-124922000D01*
X85333600Y-125577000D02*
X86620100Y-125577000D01*
X77203700Y-93860700D02*
X84678700Y-101336000D01*
X84678700Y-124922000D02*
X85333600Y-125577000D01*
X86620100Y-125577000D02*
X90498500Y-121699000D01*
X76836000Y-93860700D02*
X77203700Y-93860700D01*
X90498500Y-121699000D02*
X92331000Y-121699000D01*
X76836000Y-92684000D02*
X76836000Y-93860700D01*
%TO.N,/MOTOR3_B_OUT*%
X93429900Y-119749000D02*
X93691200Y-119488000D01*
X92331000Y-119749000D02*
X93429900Y-119749000D01*
%TO.N,/Motor4_B_OUT*%
X85405400Y-115928000D02*
X85405400Y-95669900D01*
X92331000Y-120399000D02*
X94415600Y-120399000D01*
X94415600Y-120399000D02*
X95160400Y-119654000D01*
%TO.N,/MOTOR3_A_OUT*%
X92331000Y-118449000D02*
X91141800Y-118449000D01*
X91141800Y-118449000D02*
X90666200Y-118925000D01*
%TO.N,/MOTOR4_CTRL2*%
X83119900Y-118826000D02*
X83799200Y-118146000D01*
X82061000Y-118395000D02*
X82486300Y-118820000D01*
X76405200Y-104114000D02*
X77308600Y-104114000D01*
X82061000Y-117793000D02*
X82061000Y-118395000D01*
X83119900Y-118788000D02*
X83119900Y-118826000D01*
X74296000Y-100304000D02*
X74296000Y-101481000D01*
X98056000Y-121699000D02*
X97364400Y-121699000D01*
X75472700Y-103182000D02*
X76405200Y-104114000D01*
X82336000Y-117518000D02*
X82061000Y-117793000D01*
X74663800Y-101481000D02*
X75472700Y-102290000D01*
X78012700Y-112881000D02*
X82336000Y-117204000D01*
X78012700Y-104818000D02*
X78012700Y-112881000D01*
X83087700Y-118820000D02*
X83119900Y-118788000D01*
X82336000Y-117204000D02*
X82336000Y-117518000D01*
X83799200Y-118146000D02*
X83799200Y-115960000D01*
X75472700Y-102290000D02*
X75472700Y-103182000D01*
X77308600Y-104114000D02*
X78012700Y-104818000D01*
X97364400Y-121699000D02*
X96678800Y-121013000D01*
X74296000Y-101481000D02*
X74663800Y-101481000D01*
X82486300Y-118820000D02*
X83087700Y-118820000D01*
D72*
%TO.N,/CTRL_EXT_LOAD1*%
X83512000Y-101615000D02*
X80206000Y-98309000D01*
X80006000Y-88974000D02*
X80006000Y-95077700D01*
X81968400Y-97600300D02*
X82274100Y-97906000D01*
X101106000Y-91474000D02*
X100031000Y-91474000D01*
X79806000Y-115874000D02*
X79806000Y-120005000D01*
X89624700Y-88974000D02*
X80006000Y-88974000D01*
X81771900Y-96454700D02*
X82165000Y-96847800D01*
X100031000Y-91474000D02*
X99706000Y-91149000D01*
X82165000Y-97403600D02*
X81968400Y-97600300D01*
X80006000Y-95077700D02*
X81383000Y-96454700D01*
X82165000Y-96847800D02*
X82165000Y-97403600D01*
X81806000Y-112480000D02*
X81806000Y-115474000D01*
X81706000Y-112380000D02*
X81806000Y-112480000D01*
X83512000Y-112380000D02*
X83512000Y-101615000D01*
X91765400Y-91114700D02*
X89624700Y-88974000D01*
X81383000Y-96454700D02*
X81771900Y-96454700D01*
D71*
%TO.N,/CTRL_EXT_LOAD2*%
X79206000Y-88174000D02*
X96281000Y-88174000D01*
X76836000Y-97764000D02*
X78967700Y-97764000D01*
D72*
X101106000Y-92274000D02*
X100131000Y-92274000D01*
D71*
X79206000Y-94837700D02*
X79206000Y-88174000D01*
D72*
X100131000Y-92274000D02*
X99806000Y-92599000D01*
D71*
X81494000Y-97125700D02*
X79206000Y-94837700D01*
X78967700Y-97764000D02*
X79524700Y-97207000D01*
%TO.N,/3.3V Out*%
X126106000Y-80674000D02*
X122806000Y-80674000D01*
X121806000Y-94011500D02*
X118006000Y-94011500D01*
X124506000Y-89274000D02*
X125606000Y-90374000D01*
X126106000Y-80674000D02*
X126106000Y-87674000D01*
X126106000Y-87674000D02*
X124506000Y-89274000D01*
X121806000Y-94011500D02*
X124506000Y-91311500D01*
X126106000Y-75174000D02*
X126106000Y-80674000D01*
X124506000Y-91311500D02*
X124506000Y-89274000D01*
X125606000Y-90374000D02*
X125606000Y-92411500D01*
X117043500Y-100673500D02*
X117044000Y-100674000D01*
X116310000Y-100365000D02*
X115768000Y-100908000D01*
X115377000Y-95282600D02*
X116735000Y-95282600D01*
X116735000Y-95282600D02*
X116735000Y-100365000D01*
X116735000Y-100365000D02*
X116310000Y-100365000D01*
X122806000Y-80674000D02*
X121606000Y-81874000D01*
X117043500Y-100673500D02*
X117043500Y-100674000D01*
X116735000Y-95282600D02*
X118006000Y-94011500D01*
X116735000Y-100365000D02*
X117043500Y-100673500D01*
X114106000Y-94011500D02*
X115377000Y-95282600D01*
%TO.N,/V_Battery+*%
X101328000Y-123734000D02*
X101317000Y-123723000D01*
X104268000Y-101463000D02*
X104268000Y-101462000D01*
X101312000Y-123718000D02*
X101309000Y-123715000D01*
X66298700Y-93669000D02*
X66681000Y-93669000D01*
X104268000Y-101462000D02*
X104268000Y-101100000D01*
X90806000Y-108174000D02*
X90806000Y-104207000D01*
X74216000Y-105464000D02*
X74296000Y-105384000D01*
X101317000Y-123723000D02*
X101312000Y-123718000D01*
X66681000Y-93669000D02*
X67101000Y-93669000D01*
D76*
X65125000Y-95225000D02*
X65125000Y-94482100D01*
D71*
X101317000Y-123723000D02*
X101312000Y-123718000D01*
X101307500Y-123713500D02*
X101306000Y-123712000D01*
X103162000Y-102933000D02*
X104268000Y-101826000D01*
X103506000Y-103277000D02*
X103506000Y-103599000D01*
X64816000Y-105564000D02*
X64606000Y-105774000D01*
X101328000Y-123734000D02*
X101317000Y-123723000D01*
X90293500Y-145683000D02*
X90277000Y-145683000D01*
X101328000Y-123734000D02*
X101317000Y-123723000D01*
X96884200Y-109838000D02*
X100576000Y-106146000D01*
D76*
X66576000Y-93774000D02*
X66681000Y-93669000D01*
D71*
X101394000Y-123799000D02*
X101350000Y-123756000D01*
X98056000Y-120399000D02*
X97344400Y-120399000D01*
X104268000Y-101100000D02*
X104268000Y-100374000D01*
X101309000Y-123715000D02*
X101307500Y-123713500D01*
X101350000Y-123756000D02*
X101328000Y-123734000D01*
X101307500Y-123713500D02*
X101306000Y-123712000D01*
X101309000Y-123715000D02*
X101307500Y-123713500D01*
X101307500Y-123713500D02*
X101306000Y-123712000D01*
X101481000Y-123886000D02*
X101394000Y-123799000D01*
X92906000Y-146074000D02*
X92611000Y-145779000D01*
X64816000Y-105464000D02*
X64816000Y-105564000D01*
X64816000Y-105464000D02*
X64306000Y-104954000D01*
X101312000Y-123718000D02*
X101309000Y-123715000D01*
X104268000Y-101826000D02*
X104268000Y-101463000D01*
X104268500Y-100374000D02*
X104268000Y-100374000D01*
X103162000Y-102933000D02*
X103506000Y-103277000D01*
X101306000Y-123712000D02*
X99780700Y-122186000D01*
D76*
X65549100Y-94058000D02*
X66292000Y-94058000D01*
D71*
X99780700Y-122186000D02*
X99780700Y-121415000D01*
X100665000Y-101536000D02*
X100302000Y-101899000D01*
X98764400Y-120399000D02*
X98056000Y-120399000D01*
X104362000Y-104455000D02*
X103506000Y-103599000D01*
D76*
X66976000Y-93374000D02*
X69806000Y-93374000D01*
D71*
X78306000Y-146349000D02*
X78831000Y-146874000D01*
X104268000Y-101462000D02*
X104268000Y-101100000D01*
X90293500Y-145687000D02*
X90293500Y-145683000D01*
X100576000Y-106146000D02*
X103810000Y-106146000D01*
D76*
X65125000Y-94482100D02*
X65549100Y-94058000D01*
X66681000Y-93669000D02*
X66976000Y-93374000D01*
D71*
X104268000Y-101463000D02*
X104268000Y-101462000D01*
X101394000Y-123799000D02*
X101350000Y-123756000D01*
X90277000Y-145683000D02*
X90181000Y-145779000D01*
D76*
X64816000Y-105464000D02*
X74216000Y-105464000D01*
D71*
X101306000Y-123712000D02*
X101306000Y-123711500D01*
X101481000Y-125774000D02*
X101481000Y-123886000D01*
X97344400Y-120399000D02*
X96884200Y-119939000D01*
X66576000Y-93774000D02*
X66681000Y-93669000D01*
D76*
X66292000Y-94058000D02*
X66576000Y-93774000D01*
X64306000Y-96044000D02*
X65125000Y-95225000D01*
D71*
X78831000Y-146874000D02*
X79651400Y-146874000D01*
X99031000Y-101374000D02*
X99776700Y-101374000D01*
X101312000Y-123718000D02*
X101309000Y-123715000D01*
X99776700Y-101374000D02*
X100302000Y-101899000D01*
X104362000Y-105594000D02*
X104362000Y-104455000D01*
X101309000Y-123715000D02*
X101307500Y-123713500D01*
X103810000Y-106146000D02*
X104362000Y-105594000D01*
X96884200Y-119939000D02*
X96884200Y-109838000D01*
X101336000Y-102933000D02*
X103162000Y-102933000D01*
X101350000Y-123756000D02*
X101328000Y-123734000D01*
X92611000Y-145779000D02*
X90181000Y-145779000D01*
X99780700Y-121415000D02*
X98764400Y-120399000D01*
X100302000Y-101899000D02*
X101336000Y-102933000D01*
X101317000Y-123723000D02*
X101312000Y-123718000D01*
X90293500Y-145683000D02*
X90293500Y-145679000D01*
D76*
X64306000Y-104954000D02*
X64306000Y-96044000D01*
D71*
X101350000Y-123756000D02*
X101328000Y-123734000D01*
%TO.N,/SCLK_INA219*%
X70428800Y-91436400D02*
X71476500Y-92484100D01*
X68569600Y-88040100D02*
X68569600Y-90884000D01*
X68569600Y-90884000D02*
X69122000Y-91436400D01*
X71476500Y-92484100D02*
X71476500Y-104296000D01*
X69122000Y-91436400D02*
X70428800Y-91436400D01*
X67903500Y-87374000D02*
X68569600Y-88040100D01*
D76*
%TO.N,Net-(SW1-B)*%
X69806000Y-81874000D02*
X70906000Y-80774000D01*
X69806000Y-90274000D02*
X69806000Y-81874000D01*
D71*
X67664300Y-94939000D02*
X68227800Y-94375500D01*
X66681000Y-94939000D02*
X67664300Y-94939000D01*
%TO.N,Net-(U1-A1)*%
X62608500Y-92791500D02*
X61731000Y-93669000D01*
X62608500Y-88674000D02*
X62608500Y-92791500D01*
%TO.N,Net-(U1-SCL)*%
X66708500Y-87374000D02*
X62791400Y-87374000D01*
X61289300Y-97479000D02*
X61731000Y-97479000D01*
X62791400Y-87374000D02*
X60420100Y-89745300D01*
X60420100Y-96609800D02*
X61289300Y-97479000D01*
X60420100Y-89745300D02*
X60420100Y-96609800D01*
%TO.N,Net-(U1-SDA)*%
X63073000Y-99807000D02*
X63073000Y-97138400D01*
X61706000Y-101174000D02*
X63073000Y-99807000D01*
X62143600Y-96209000D02*
X61731000Y-96209000D01*
X63073000Y-97138400D02*
X62143600Y-96209000D01*
D76*
%TO.N,/Vcc*%
X75106000Y-76074000D02*
X76706000Y-77674000D01*
D77*
X81943500Y-79449000D02*
X81889000Y-79449000D01*
D76*
X69806000Y-73774000D02*
X71256000Y-73774000D01*
D71*
X76706000Y-77674000D02*
X77533000Y-76847100D01*
X77831000Y-78799000D02*
X77106000Y-79524000D01*
D77*
X80668500Y-79449000D02*
X80656000Y-79461500D01*
D76*
X69406000Y-77674000D02*
X71006000Y-76074000D01*
D71*
X77533000Y-76847100D02*
X77533000Y-75961500D01*
X81889000Y-79449000D02*
X81903500Y-79463500D01*
X78006000Y-74739200D02*
X78006000Y-74041500D01*
D76*
X69406000Y-77674000D02*
X69406000Y-76974000D01*
D71*
X81943500Y-75949000D02*
X81981000Y-75949000D01*
D77*
X81889000Y-79449000D02*
X80668500Y-79449000D01*
D76*
X68006000Y-75574000D02*
X69806000Y-73774000D01*
D71*
X81943500Y-79449000D02*
X81956000Y-79461500D01*
X81889000Y-75949000D02*
X81903500Y-75963500D01*
D76*
X78493500Y-79461500D02*
X80656000Y-79461500D01*
D71*
X73306000Y-76074000D02*
X73306000Y-85174000D01*
X80656000Y-75961500D02*
X80668500Y-75949000D01*
D76*
X69406000Y-76974000D02*
X68006000Y-75574000D01*
D71*
X79228300Y-75961500D02*
X80656000Y-75961500D01*
D76*
X71006000Y-76074000D02*
X73306000Y-76074000D01*
D71*
X81889000Y-75949000D02*
X81943500Y-75949000D01*
X77106000Y-79524000D02*
X77106000Y-82549000D01*
X77533000Y-75961500D02*
X79228300Y-75961500D01*
D76*
X73306000Y-76074000D02*
X75106000Y-76074000D01*
D77*
X81981000Y-79449000D02*
X81943500Y-79449000D01*
D71*
X81943500Y-75949000D02*
X81956000Y-75961500D01*
X79228300Y-75961500D02*
X78006000Y-74739200D01*
D76*
X77831000Y-78799000D02*
X78493500Y-79461500D01*
X76706000Y-77674000D02*
X77831000Y-78799000D01*
D71*
X66206000Y-80674000D02*
X66406000Y-80674000D01*
X73306000Y-85174000D02*
X73406000Y-85274000D01*
D76*
X66406000Y-80674000D02*
X69406000Y-77674000D01*
D71*
X80668500Y-75949000D02*
X81889000Y-75949000D01*
X66106000Y-80774000D02*
X66206000Y-80674000D01*
X77106000Y-82549000D02*
X77831000Y-83274000D01*
%TO.N,Net-(U3-BOOT)*%
X81943500Y-78949000D02*
X81956000Y-78961500D01*
D78*
X81943500Y-78949000D02*
X81889000Y-78949000D01*
X81606000Y-82939000D02*
X81871000Y-82674000D01*
D71*
X81889000Y-78949000D02*
X81903500Y-78963500D01*
D78*
X81981000Y-78949000D02*
X81943500Y-78949000D01*
X81889000Y-78949000D02*
X81395400Y-78949000D01*
X78088900Y-80441500D02*
X80406000Y-80441500D01*
X77831000Y-80183700D02*
X78088900Y-80441500D01*
X81606000Y-83589400D02*
X81606000Y-82939000D01*
X81395400Y-78949000D02*
X80984600Y-78538200D01*
D71*
%TO.N,Net-(U3-SW_4)*%
X74956000Y-73824000D02*
X74956000Y-73774000D01*
X94379900Y-89579800D02*
X94379900Y-88903300D01*
X84906000Y-91874000D02*
X92085700Y-91874000D01*
X85657700Y-86222300D02*
X86906000Y-84974000D01*
X86906000Y-84974000D02*
X86906000Y-85189700D01*
X82804100Y-85887900D02*
X83138500Y-86222300D01*
D79*
X81949500Y-77417500D02*
X81956000Y-77424000D01*
D71*
X81077200Y-77394400D02*
X81382100Y-77394400D01*
X81903500Y-77463500D02*
X81949500Y-77417500D01*
D79*
X81956000Y-77424000D02*
X81981000Y-77449000D01*
D71*
X83138500Y-86222300D02*
X85657700Y-86222300D01*
X83006000Y-82674000D02*
X82804100Y-82875900D01*
X82804100Y-82875900D02*
X82804100Y-85887900D01*
X92085700Y-91874000D02*
X94379900Y-89579800D01*
D79*
X81926400Y-77394400D02*
X81949500Y-77417500D01*
D71*
X81956000Y-77424000D02*
X81956000Y-77461500D01*
X76506000Y-75374000D02*
X74956000Y-73824000D01*
X83739500Y-83407500D02*
X83006000Y-82674000D01*
D79*
X81382100Y-77394400D02*
X81926400Y-77394400D01*
D77*
%TO.N,Net-(U3-SS)*%
X76506000Y-86674000D02*
X80406000Y-86674000D01*
X82617300Y-80112700D02*
X81056000Y-81674000D01*
D71*
X82664300Y-80112700D02*
X82880500Y-79896500D01*
X82617300Y-80112700D02*
X82664300Y-80112700D01*
D77*
X81056000Y-81674000D02*
X77906000Y-81674000D01*
X82881000Y-79849000D02*
X82617300Y-80112700D01*
X80406000Y-86674000D02*
X81606000Y-85474000D01*
D71*
%TO.N,Net-(C19-Pad1)*%
X95768500Y-74086500D02*
X95806000Y-74049000D01*
X92606000Y-74086500D02*
X95768500Y-74086500D01*
%TO.N,Net-(U3-VCC)*%
X82880500Y-75526500D02*
X82869500Y-75537500D01*
X82869500Y-75537500D02*
X82881000Y-75549000D01*
X80606000Y-71074000D02*
X80606000Y-73274000D01*
X80606000Y-73274000D02*
X82869500Y-75537500D01*
%TO.N,Net-(R21-Pad2)*%
X83806000Y-84974000D02*
X86706000Y-82074000D01*
X86706000Y-82074000D02*
X86906000Y-82074000D01*
%TO.N,Net-(U3-FSW)*%
X83014500Y-81764000D02*
X83024500Y-81774000D01*
X80911700Y-76503600D02*
X81382100Y-76503600D01*
X84606000Y-81774000D02*
X84906000Y-82074000D01*
X79307600Y-78107700D02*
X80911700Y-76503600D01*
X81956000Y-76474000D02*
X81956000Y-76461500D01*
D79*
X81863400Y-76503600D02*
X81926400Y-76503600D01*
X81926400Y-76503600D02*
X81956000Y-76474000D01*
D71*
X81863400Y-76503600D02*
X81903500Y-76463500D01*
D79*
X81382100Y-76503600D02*
X81863400Y-76503600D01*
X81956000Y-76474000D02*
X81981000Y-76449000D01*
D71*
X79307600Y-78268800D02*
X79307600Y-78107700D01*
X83024500Y-81774000D02*
X84606000Y-81774000D01*
%TO.N,Net-(U3-ILIM)*%
X85357500Y-75872500D02*
X85357500Y-75963500D01*
X85706000Y-71274000D02*
X85706000Y-75524000D01*
X85481000Y-75736500D02*
X85256000Y-75961500D01*
X85357500Y-75872500D02*
X85281000Y-75949000D01*
X85706000Y-75524000D02*
X85493500Y-75736500D01*
X85493500Y-75736500D02*
X85357500Y-75872500D01*
X85493500Y-75736500D02*
X85481000Y-75736500D01*
%TO.N,Net-(U3-COMP)*%
X86322200Y-76449000D02*
X90509700Y-72261500D01*
X93158500Y-71709000D02*
X100741000Y-71709000D01*
X100741000Y-71709000D02*
X101906000Y-72874000D01*
X90509700Y-72261500D02*
X92606000Y-72261500D01*
X92606000Y-72261500D02*
X93158500Y-71709000D01*
X85256000Y-76461500D02*
X85268500Y-76449000D01*
X85372000Y-76449000D02*
X86322200Y-76449000D01*
X85268500Y-76449000D02*
X85372000Y-76449000D01*
X85372000Y-76449000D02*
X85357500Y-76463500D01*
%TO.N,/FB*%
X85308300Y-76976300D02*
X85270800Y-76976300D01*
X89106000Y-82274000D02*
X89106000Y-81445700D01*
D79*
X85397600Y-77003600D02*
X85335600Y-77003600D01*
X85879900Y-77003600D02*
X85397600Y-77003600D01*
D71*
X89106000Y-81445700D02*
X88606800Y-80946500D01*
D79*
X85308300Y-76976300D02*
X85281000Y-76949000D01*
D71*
X85397600Y-77003600D02*
X85357500Y-76963500D01*
X86720400Y-77003600D02*
X85879900Y-77003600D01*
X86757800Y-77041000D02*
X86720400Y-77003600D01*
X89106000Y-85674000D02*
X89106000Y-82274000D01*
X85270800Y-76976300D02*
X85256000Y-76961500D01*
X89406000Y-85974000D02*
X89106000Y-85674000D01*
D79*
X85335600Y-77003600D02*
X85308300Y-76976300D01*
D71*
%TO.N,Net-(U9-VDD)*%
X125706000Y-136673000D02*
X125706000Y-137176000D01*
X121469000Y-138286000D02*
X121981000Y-137774000D01*
X125706000Y-136342000D02*
X125706000Y-136673000D01*
X125706000Y-137176000D02*
X125706000Y-137176500D01*
X125706000Y-133842000D02*
X125706000Y-135509000D01*
X125706000Y-136673000D02*
X124806000Y-135774000D01*
X125706000Y-135509000D02*
X125706000Y-136342000D01*
X119796000Y-138024000D02*
X120058000Y-138286000D01*
X125706000Y-133842000D02*
X125706000Y-133841500D01*
X125706000Y-135509000D02*
X125706000Y-136342000D01*
X120058000Y-138286000D02*
X121469000Y-138286000D01*
X125706000Y-136342000D02*
X125706000Y-136673000D01*
%TO.N,Net-(J3-DP1)*%
X120054000Y-140852000D02*
X120054000Y-140628000D01*
X113511000Y-140074000D02*
X113713000Y-140074000D01*
X120054000Y-140292000D02*
X120054000Y-140179000D01*
X120054000Y-140852000D02*
X120054000Y-140628000D01*
X115393000Y-146623000D02*
X113511000Y-144741000D01*
X120759000Y-134087000D02*
X121446000Y-134774000D01*
X120080000Y-143162000D02*
X116619000Y-146623000D01*
X120080000Y-141102000D02*
X120080000Y-143162000D01*
X120054000Y-140516000D02*
X120054000Y-140404000D01*
X120054000Y-140404000D02*
X120054000Y-140292000D01*
X121446000Y-134774000D02*
X121981000Y-134774000D01*
X120054000Y-140628000D02*
X120054000Y-140516000D01*
X120054000Y-140516000D02*
X120054000Y-140404000D01*
X120054000Y-141076000D02*
X120080000Y-141102000D01*
X120056000Y-140290000D02*
X120056000Y-140224000D01*
X116619000Y-146623000D02*
X115393000Y-146623000D01*
X113713000Y-140074000D02*
X114973000Y-138814000D01*
X120759000Y-133512000D02*
X120759000Y-134087000D01*
X120054000Y-140852000D02*
X120054000Y-141076000D01*
X120054000Y-140292000D02*
X120056000Y-140290000D01*
X113511000Y-144741000D02*
X113511000Y-140074000D01*
X120525000Y-133277000D02*
X120759000Y-133512000D01*
%TO.N,Net-(J3-DN1)*%
X113060000Y-131155000D02*
X113060000Y-144928000D01*
X120554000Y-141951000D02*
X120554000Y-141950000D01*
X120554000Y-141065000D02*
X120554000Y-141064000D01*
X120554000Y-141064000D02*
X120554000Y-140770000D01*
X120556000Y-140472000D02*
X120556000Y-140224000D01*
X120554000Y-141950000D02*
X120554000Y-141360000D01*
X120554000Y-143326000D02*
X120554000Y-141951000D01*
X116806000Y-147074000D02*
X120554000Y-143326000D01*
X120554000Y-141950000D02*
X120554000Y-141360000D01*
X120554000Y-140474000D02*
X120554000Y-140179000D01*
X113060000Y-144928000D02*
X115206000Y-147074000D01*
X115206000Y-147074000D02*
X116806000Y-147074000D01*
X120554000Y-141951000D02*
X120554000Y-141950000D01*
X120554000Y-140474000D02*
X120556000Y-140472000D01*
X120554000Y-141360000D02*
X120554000Y-141065000D01*
X121981000Y-133774000D02*
X121981000Y-131155000D01*
X120554000Y-140770000D02*
X120554000Y-140474000D01*
X120554000Y-141065000D02*
X120554000Y-141064000D01*
X120554000Y-141064000D02*
X120554000Y-140770000D01*
%TO.N,Net-(J3-CC1)*%
X119054000Y-140062000D02*
X119056000Y-140064000D01*
X119054000Y-139946000D02*
X119054000Y-140062000D01*
X119054000Y-139245000D02*
X119054000Y-139478000D01*
X119054000Y-140062000D02*
X119054000Y-140179000D01*
X117230000Y-134774000D02*
X117919000Y-135463000D01*
X119054000Y-139478000D02*
X119054000Y-139712000D01*
X119054000Y-139478000D02*
X119054000Y-139712000D01*
X116706000Y-134774000D02*
X117230000Y-134774000D01*
X119056000Y-140064000D02*
X119056000Y-140224000D01*
X119054000Y-139830000D02*
X119054000Y-139946000D01*
X119054000Y-139712000D02*
X119054000Y-139829000D01*
X117919000Y-138110000D02*
X119054000Y-139245000D01*
X119054000Y-139829000D02*
X119054000Y-139830000D01*
X119054000Y-139829000D02*
X119054000Y-139830000D01*
X117919000Y-135463000D02*
X117919000Y-138110000D01*
X119054000Y-139830000D02*
X119054000Y-139946000D01*
%TO.N,Net-(J3-CC2)*%
X122054000Y-142028000D02*
X122054000Y-141566000D01*
X122054000Y-142953000D02*
X122054000Y-142952000D01*
X126863000Y-132464000D02*
X126863000Y-146317000D01*
X122106000Y-143930000D02*
X122054000Y-143878000D01*
X126863000Y-146317000D02*
X126606000Y-146574000D01*
X122054000Y-143878000D02*
X122054000Y-142953000D01*
X122054000Y-142952000D02*
X122054000Y-142028000D01*
X122056000Y-140640000D02*
X122056000Y-140224000D01*
X116706000Y-133774000D02*
X117098000Y-133382000D01*
X122054000Y-141566000D02*
X122054000Y-141104000D01*
X117098000Y-133382000D02*
X117098000Y-132464000D01*
X122054000Y-142952000D02*
X122054000Y-142028000D01*
X122054000Y-140642000D02*
X122054000Y-140179000D01*
X122054000Y-142953000D02*
X122054000Y-142952000D01*
X122054000Y-141104000D02*
X122054000Y-140642000D01*
X126606000Y-146574000D02*
X122106000Y-146574000D01*
X122054000Y-140642000D02*
X122056000Y-140640000D01*
X122106000Y-146574000D02*
X122106000Y-143930000D01*
X122054000Y-141566000D02*
X122054000Y-141104000D01*
%TO.N,Net-(U9-CFG1)*%
X114606000Y-136774000D02*
X116706000Y-136774000D01*
X114206000Y-136374000D02*
X114606000Y-136774000D01*
%TO.N,Net-(U9-VBUS)*%
X115535000Y-132954000D02*
X115535000Y-135128000D01*
X120206000Y-131386000D02*
X120205500Y-131386000D01*
X117103000Y-131386000D02*
X115535000Y-132954000D01*
X115535000Y-135128000D02*
X116181000Y-135774000D01*
X116181000Y-135774000D02*
X116706000Y-135774000D01*
X120205500Y-131386000D02*
X117103000Y-131386000D01*
X120205500Y-131386000D02*
X120206000Y-131386500D01*
%TO.N,Net-(R33-Pad2)*%
X82706000Y-137261500D02*
X82706000Y-132849000D01*
X82706000Y-137262000D02*
X82706000Y-137261500D01*
X82706000Y-132849000D02*
X83181000Y-132374000D01*
%TO.N,Net-(R27-Pad2)*%
X73023400Y-144701000D02*
X72635500Y-144313000D01*
X74831600Y-144701000D02*
X73023400Y-144701000D01*
X77758200Y-141774000D02*
X74831600Y-144701000D01*
X82306000Y-141774000D02*
X77758200Y-141774000D01*
X72635500Y-144313000D02*
X72635500Y-141844000D01*
X72635500Y-141844000D02*
X73906000Y-140574000D01*
%TO.N,Net-(U15-TEMP)*%
X83618500Y-140144000D02*
X83606000Y-140132000D01*
X85231000Y-141969000D02*
X83618500Y-140356000D01*
X83618500Y-140356000D02*
X83618500Y-140144000D01*
X83606000Y-140132000D02*
X83606000Y-134674000D01*
X85343500Y-141869000D02*
X83618500Y-140144000D01*
%TO.N,Net-(Q2-D)*%
X85343500Y-143139000D02*
X85131000Y-143139000D01*
X83606000Y-143274000D02*
X83606000Y-141274000D01*
X85231000Y-143239000D02*
X83641100Y-143239000D01*
X83173000Y-140841000D02*
X76220700Y-140841000D01*
X85131000Y-143139000D02*
X84874200Y-143139000D01*
X76543400Y-138124000D02*
X78881000Y-138124000D01*
X75941200Y-140562000D02*
X75941200Y-138726000D01*
X76220700Y-140841000D02*
X75941200Y-140562000D01*
X75941200Y-138726000D02*
X76543400Y-138124000D01*
X76220700Y-141359000D02*
X76220700Y-140841000D01*
X83606000Y-141274000D02*
X83173000Y-140841000D01*
X73906000Y-143674000D02*
X76220700Y-141359000D01*
X83641100Y-143239000D02*
X83606000Y-143274000D01*
X85131000Y-143139000D02*
X85231000Y-143239000D01*
D80*
%TO.N,Net-(L4-Pad2)*%
X107406000Y-137174000D02*
X107406000Y-139974000D01*
D71*
X107406000Y-139974000D02*
X107506000Y-140074000D01*
%TO.N,Net-(L3-Pad2)*%
X107606000Y-128774000D02*
X107406000Y-128974000D01*
X107606000Y-128074000D02*
X107606000Y-128774000D01*
D80*
X107406000Y-128974000D02*
X107406000Y-130774000D01*
D76*
%TO.N,Net-(D3-K)*%
X115406000Y-118574000D02*
X115306000Y-118674000D01*
D71*
X112576000Y-124444000D02*
X115031000Y-124444000D01*
X112206000Y-124074000D02*
X112576000Y-124444000D01*
X109234000Y-124379000D02*
X107606000Y-122751000D01*
X111901000Y-124379000D02*
X109234000Y-124379000D01*
X107606000Y-122751000D02*
X107606000Y-121674000D01*
X112206000Y-124074000D02*
X111901000Y-124379000D01*
D76*
X115406000Y-118379000D02*
X115406000Y-118574000D01*
D81*
%TO.N,/Stepped Down 5V*%
X114166000Y-125714000D02*
X115031000Y-125714000D01*
D71*
X90337300Y-141669000D02*
X90181000Y-141825000D01*
X124306000Y-102837000D02*
X124306000Y-102836500D01*
X101131000Y-143299000D02*
X101106000Y-143274000D01*
D80*
X90337300Y-141669000D02*
X90181000Y-141669000D01*
X90493500Y-141669000D02*
X90337300Y-141669000D01*
D71*
X125462000Y-103992000D02*
X125173000Y-103703000D01*
D80*
X94806000Y-143074000D02*
X93401000Y-141669000D01*
X98106000Y-143274000D02*
X95006000Y-143274000D01*
D76*
X107506000Y-146474000D02*
X107506000Y-142974000D01*
D71*
X126617000Y-105148000D02*
X126040000Y-104570000D01*
X126040000Y-104570000D02*
X125462000Y-103992000D01*
X94806000Y-145474000D02*
X94806000Y-143074000D01*
X126617000Y-116952000D02*
X126617000Y-105148000D01*
D80*
X93401000Y-141669000D02*
X90493500Y-141669000D01*
D81*
X112906000Y-126974000D02*
X114166000Y-125714000D01*
D71*
X85231000Y-145779000D02*
X86926000Y-147474000D01*
D76*
X107506000Y-142974000D02*
X101506000Y-136974000D01*
D71*
X90181000Y-141825000D02*
X90181000Y-141969000D01*
X95006000Y-143274000D02*
X94806000Y-143074000D01*
D80*
X104581000Y-146474000D02*
X101406000Y-143299000D01*
D71*
X125173000Y-103703000D02*
X125172000Y-103703000D01*
X86926000Y-147474000D02*
X92806000Y-147474000D01*
X125172000Y-103703000D02*
X124306000Y-102837000D01*
X92806000Y-147474000D02*
X94806000Y-145474000D01*
X125173000Y-103703000D02*
X124884000Y-103414000D01*
D80*
X101106000Y-143274000D02*
X98106000Y-143274000D01*
D71*
X126040000Y-104570000D02*
X125462000Y-103992000D01*
X107506000Y-146474000D02*
X104581000Y-146474000D01*
X124306000Y-102836500D02*
X124306000Y-102836000D01*
X90493500Y-141669000D02*
X90293500Y-141869000D01*
X101406000Y-143299000D02*
X101131000Y-143299000D01*
%TO.N,Net-(Q2-S)*%
X84093500Y-131980000D02*
X83679200Y-131566000D01*
X84818500Y-136974000D02*
X84531000Y-137262000D01*
X80056100Y-134158000D02*
X80056100Y-138362000D01*
X83679200Y-131566000D02*
X82648400Y-131566000D01*
X82648400Y-131566000D02*
X80056100Y-134158000D01*
X84093500Y-133379000D02*
X84093500Y-131980000D01*
X84531000Y-133816000D02*
X84093500Y-133379000D01*
X80056100Y-138362000D02*
X79344400Y-139074000D01*
X84531000Y-137262000D02*
X84531000Y-137261500D01*
X84531000Y-137261500D02*
X84531000Y-133816000D01*
X79344400Y-139074000D02*
X77006000Y-139074000D01*
%TO.N,Net-(U11-VCP)*%
X99031000Y-102024000D02*
X99773700Y-102024000D01*
X100449000Y-102699000D02*
X100449000Y-103086000D01*
X99773700Y-102024000D02*
X100449000Y-102699000D01*
X100449000Y-103086000D02*
X102512000Y-105149000D01*
X102512000Y-105149000D02*
X103506000Y-105149000D01*
%TO.N,Net-(U11-VINT)*%
X104644000Y-97078200D02*
X104644000Y-97077100D01*
X104644000Y-97075800D02*
X104644000Y-97075500D01*
X104644000Y-97075500D02*
X104644000Y-97075100D01*
X104644000Y-97074100D02*
X104643600Y-97074100D01*
X104643600Y-97074100D02*
X104643500Y-97074000D01*
X104644000Y-97074100D02*
X104644000Y-97074000D01*
X99031000Y-100074000D02*
X101650000Y-100074000D01*
X104644000Y-97075100D02*
X104644000Y-97074700D01*
X104644000Y-97076300D02*
X104644000Y-97075800D01*
X104644000Y-97080300D02*
X104644000Y-97078700D01*
X104644000Y-97074500D02*
X104644000Y-97074300D01*
X104644000Y-97075800D02*
X104644000Y-97075500D01*
X104644000Y-97078700D02*
X104644000Y-97078200D01*
X104644000Y-97074500D02*
X104644000Y-97074300D01*
X104644000Y-97075100D02*
X104644000Y-97074700D01*
X104644000Y-97077100D02*
X104644000Y-97076300D01*
X104644000Y-97074300D02*
X104644000Y-97074100D01*
X104644000Y-97078700D02*
X104644000Y-97078200D01*
X101650000Y-100074000D02*
X104644000Y-97080300D01*
X104644000Y-97074700D02*
X104644000Y-97074500D01*
X104644000Y-97076300D02*
X104644000Y-97075800D01*
X104644000Y-97078200D02*
X104644000Y-97077100D01*
%TO.N,Net-(U12-VCP)*%
X99120600Y-121409000D02*
X98760500Y-121049000D01*
X99931000Y-125774000D02*
X99120600Y-124964000D01*
X99120600Y-124964000D02*
X99120600Y-121409000D01*
X98760500Y-121049000D02*
X98056000Y-121049000D01*
%TO.N,Net-(U12-VINT)*%
X102506000Y-117912000D02*
X101318000Y-119099000D01*
X102506000Y-117911500D02*
X102506000Y-117912000D01*
X101318000Y-119099000D02*
X98056000Y-119099000D01*
%TO.N,Net-(U11-BISEN)*%
X89506000Y-98347000D02*
X89506000Y-96424000D01*
X91801300Y-100642000D02*
X89506000Y-98347000D01*
X92542200Y-102024000D02*
X91801300Y-101283000D01*
X93306000Y-102024000D02*
X92542200Y-102024000D01*
X91801300Y-101283000D02*
X91801300Y-100642000D01*
%TO.N,Net-(U12-BISEN)*%
X91805900Y-124862000D02*
X91806000Y-124862000D01*
X91805800Y-124862000D02*
X91805900Y-124862000D01*
X93082100Y-121049000D02*
X92331000Y-121049000D01*
X91805900Y-124862000D02*
X91806000Y-124862000D01*
X91805500Y-124862000D02*
X88806500Y-124862000D01*
X93420000Y-121387000D02*
X93082100Y-121049000D01*
X91805500Y-124862000D02*
X91805800Y-124862000D01*
X91806000Y-124862000D02*
X93420000Y-123248000D01*
X91805900Y-124862000D02*
X91806000Y-124862000D01*
X88806500Y-124862000D02*
X88806000Y-124862000D01*
X91806000Y-124862000D02*
X91806000Y-124861500D01*
X93420000Y-123248000D02*
X93420000Y-121387000D01*
X91805800Y-124862000D02*
X91805900Y-124862000D01*
X91805800Y-124862000D02*
X91805900Y-124862000D01*
X91805500Y-124862000D02*
X91805800Y-124862000D01*
X91805900Y-124862000D02*
X91806000Y-124862000D01*
X88806500Y-124862000D02*
X88806000Y-124861500D01*
%TO.N,Net-(U12-AISEN)*%
X90706800Y-119997000D02*
X90706800Y-120375000D01*
X93037100Y-119099000D02*
X92331000Y-119099000D01*
X85806500Y-124762000D02*
X85806000Y-124762000D01*
X86319900Y-124762000D02*
X85806500Y-124762000D01*
X90706800Y-120375000D02*
X86319900Y-124762000D01*
X91604600Y-119099000D02*
X90706800Y-119997000D01*
X85806500Y-124762000D02*
X85806000Y-124761500D01*
X95906000Y-116230000D02*
X93037100Y-119099000D01*
X92331000Y-119099000D02*
X91604600Y-119099000D01*
X95906000Y-112774000D02*
X95906000Y-116230000D01*
%TO.N,Net-(U11-AISEN)*%
X94028500Y-100074000D02*
X93306000Y-100074000D01*
X94377900Y-99724600D02*
X94028500Y-100074000D01*
X94377900Y-97695900D02*
X94377900Y-99724600D01*
X93306000Y-96624000D02*
X94377900Y-97695900D01*
D72*
%TO.N,Net-(U13-SS1)*%
X106552000Y-90214600D02*
X106560000Y-90206800D01*
D71*
X106561000Y-90206800D02*
X106568000Y-90199000D01*
D72*
X106506000Y-90261400D02*
X106537000Y-90230200D01*
D71*
X106564000Y-90202900D02*
X106568000Y-90199000D01*
D72*
X105294000Y-91474000D02*
X106069000Y-90698500D01*
X104050000Y-91474000D02*
X105294000Y-91474000D01*
D71*
X106552000Y-90214600D02*
X106560000Y-90206800D01*
D72*
X102806000Y-91474000D02*
X103320000Y-91474000D01*
D71*
X106069000Y-90698500D02*
X106318000Y-90448700D01*
X106564000Y-90202900D02*
X106568000Y-90199000D01*
D72*
X103320000Y-91474000D02*
X104050000Y-91474000D01*
X106537000Y-90230200D02*
X106552000Y-90214600D01*
D71*
X106318000Y-90448700D02*
X106443000Y-90323800D01*
X106553000Y-90214600D02*
X106568000Y-90199000D01*
D72*
X106443000Y-90323800D02*
X106506000Y-90261400D01*
X106560000Y-90206800D02*
X106564000Y-90202900D01*
D71*
X106560000Y-90206800D02*
X106564000Y-90202900D01*
X106506000Y-90261400D02*
X106537000Y-90230200D01*
X106537000Y-90230200D02*
X106552000Y-90214600D01*
X106552000Y-90214600D02*
X106560000Y-90206800D01*
X106564000Y-90202900D02*
X106564600Y-90202900D01*
D72*
X106318000Y-90448700D02*
X106443000Y-90323800D01*
D71*
X106560000Y-90206800D02*
X106561000Y-90206800D01*
X106537000Y-90230200D02*
X106552000Y-90214600D01*
X106443000Y-90323800D02*
X106506000Y-90261400D01*
X106552000Y-90214600D02*
X106560000Y-90206800D01*
X104050000Y-91474000D02*
X103320000Y-91474000D01*
X106506000Y-90261400D02*
X106537000Y-90230200D01*
X106560000Y-90206800D02*
X106564000Y-90202900D01*
X106560000Y-90206800D02*
X106564000Y-90202900D01*
D72*
X106564000Y-90202900D02*
X106568000Y-90199000D01*
D71*
X106564600Y-90202900D02*
X106568500Y-90199000D01*
X106552000Y-90214600D02*
X106553000Y-90214600D01*
D72*
X106069000Y-90698500D02*
X106318000Y-90448700D01*
D71*
X106537000Y-90230200D02*
X106552000Y-90214600D01*
X106564000Y-90202900D02*
X106568000Y-90199000D01*
D72*
%TO.N,Net-(U13-SS2)*%
X102806000Y-92274000D02*
X103606000Y-92274000D01*
X105181000Y-94849000D02*
X106568000Y-94849000D01*
D71*
X106568000Y-94849000D02*
X106568500Y-94849000D01*
D72*
X103606000Y-92274000D02*
X103906000Y-92574000D01*
X104606000Y-94274000D02*
X105181000Y-94849000D01*
D71*
%TO.N,Net-(U2-FB)*%
X120168000Y-100154000D02*
X120168000Y-100155000D01*
X120168000Y-100328000D02*
X120168000Y-100501000D01*
X120168500Y-100501500D02*
X120168500Y-100674000D01*
X120168000Y-100154000D02*
X120168000Y-100155000D01*
X118772000Y-97902400D02*
X118006000Y-97136500D01*
X120168000Y-99634600D02*
X120168000Y-99635100D01*
X125606000Y-95536500D02*
X123406000Y-95536500D01*
X120168000Y-99635100D02*
X120168000Y-99981100D01*
X120168000Y-97902400D02*
X120168000Y-98595300D01*
X120168000Y-99981100D02*
X120168000Y-100154000D01*
X120168000Y-99635100D02*
X120168000Y-99981100D01*
X114106000Y-100348000D02*
X114106000Y-97136500D01*
X120168000Y-100155000D02*
X120168000Y-100328000D01*
X121806000Y-97136500D02*
X121040000Y-97902400D01*
X120168000Y-98595300D02*
X120168000Y-99288200D01*
X114106000Y-97136500D02*
X112865000Y-95895600D01*
X120168000Y-97902400D02*
X118772000Y-97902400D01*
X120168000Y-99634600D02*
X120168000Y-99635100D01*
X105105000Y-81809000D02*
X107672000Y-84376000D01*
X120168000Y-98595300D02*
X120168000Y-99288200D01*
X118772000Y-97902400D02*
X118772000Y-100864000D01*
X120168000Y-100155000D02*
X120168000Y-100328000D01*
X120168000Y-99288200D02*
X120168000Y-99634600D01*
X120168000Y-100501000D02*
X120168000Y-100674000D01*
X121040000Y-97902400D02*
X120168000Y-97902400D01*
X123406000Y-95536500D02*
X121806000Y-97136500D01*
X118772000Y-100864000D02*
X117703000Y-101933000D01*
X115691000Y-101933000D02*
X114106000Y-100348000D01*
X112865000Y-95895600D02*
X112865000Y-92462400D01*
X120168000Y-100501000D02*
X120168500Y-100501500D01*
X117703000Y-101933000D02*
X115691000Y-101933000D01*
X107672000Y-84376000D02*
X107672000Y-87725600D01*
X104631000Y-81809000D02*
X105105000Y-81809000D01*
%TO.N,Net-(D4-K)*%
X117129000Y-73674000D02*
X116606000Y-73674000D01*
X116606000Y-73674000D02*
X114726000Y-71793500D01*
X114726000Y-71793500D02*
X107901000Y-71793500D01*
X106544000Y-79005600D02*
X105011000Y-80539000D01*
X106544000Y-73150100D02*
X106544000Y-79005600D01*
X107901000Y-71793500D02*
X106544000Y-73150100D01*
X105011000Y-80539000D02*
X104631000Y-80539000D01*
X118629000Y-75174000D02*
X117129000Y-73674000D01*
X119706000Y-75174000D02*
X118629000Y-75174000D01*
%TD*%
M02*
