%TF.GenerationSoftware,KiCad,Pcbnew,9.0.0*%
%TF.CreationDate,2025-05-16T05:55:15+02:00*%
%TF.ProjectId,EEE3088F Micromouse Design,45454533-3038-4384-9620-4d6963726f6d,rev?*%
%TF.SameCoordinates,Original*%
%TF.FileFunction,Copper,L2,Bot*%
%TF.FilePolarity,Positive*%
%FSLAX46Y46*%
G04 Gerber Fmt 4.6, Leading zero omitted, Abs format (unit mm)*
G04 Created by KiCad (PCBNEW 9.0.0) date 2025-05-16 05:55:15*
%MOMM*%
%LPD*%
G01*
G04 APERTURE LIST*
G04 Aperture macros list*
%AMRoundRect*
0 Rectangle with rounded corners*
0 $1 Rounding radius*
0 $2 $3 $4 $5 $6 $7 $8 $9 X,Y pos of 4 corners*
0 Add a 4 corners polygon primitive as box body*
4,1,4,$2,$3,$4,$5,$6,$7,$8,$9,$2,$3,0*
0 Add four circle primitives for the rounded corners*
1,1,$1+$1,$2,$3*
1,1,$1+$1,$4,$5*
1,1,$1+$1,$6,$7*
1,1,$1+$1,$8,$9*
0 Add four rect primitives between the rounded corners*
20,1,$1+$1,$2,$3,$4,$5,0*
20,1,$1+$1,$4,$5,$6,$7,0*
20,1,$1+$1,$6,$7,$8,$9,0*
20,1,$1+$1,$8,$9,$2,$3,0*%
G04 Aperture macros list end*
%TA.AperFunction,ComponentPad*%
%ADD10RoundRect,0.250000X-0.625000X0.350000X-0.625000X-0.350000X0.625000X-0.350000X0.625000X0.350000X0*%
%TD*%
%TA.AperFunction,ComponentPad*%
%ADD11O,1.750000X1.200000*%
%TD*%
%TA.AperFunction,ComponentPad*%
%ADD12R,2.000000X3.000000*%
%TD*%
%TA.AperFunction,HeatsinkPad*%
%ADD13R,1.900000X2.900000*%
%TD*%
%TA.AperFunction,ComponentPad*%
%ADD14R,1.700000X1.700000*%
%TD*%
%TA.AperFunction,ComponentPad*%
%ADD15O,1.700000X1.700000*%
%TD*%
%TA.AperFunction,ComponentPad*%
%ADD16O,0.900000X2.000000*%
%TD*%
%TA.AperFunction,ComponentPad*%
%ADD17O,0.900000X1.700000*%
%TD*%
%TA.AperFunction,ViaPad*%
%ADD18C,0.800000*%
%TD*%
%TA.AperFunction,ViaPad*%
%ADD19C,4.800000*%
%TD*%
%TA.AperFunction,Conductor*%
%ADD20C,0.250000*%
%TD*%
%TA.AperFunction,Conductor*%
%ADD21C,0.400000*%
%TD*%
%TA.AperFunction,Conductor*%
%ADD22C,0.600000*%
%TD*%
%TA.AperFunction,Conductor*%
%ADD23C,0.760000*%
%TD*%
%TA.AperFunction,Conductor*%
%ADD24C,0.500000*%
%TD*%
%TA.AperFunction,Conductor*%
%ADD25C,0.140000*%
%TD*%
%TA.AperFunction,Conductor*%
%ADD26C,0.180000*%
%TD*%
%TA.AperFunction,Conductor*%
%ADD27C,0.300000*%
%TD*%
G04 APERTURE END LIST*
D10*
%TO.P,J2,1,Pin_1*%
%TO.N,/V_Battery+*%
X64816000Y-105464000D03*
D11*
%TO.P,J2,2,Pin_2*%
%TO.N,GND*%
X64816000Y-107464000D03*
%TD*%
D12*
%TO.P,SW1,1,A*%
%TO.N,/Vcc*%
X66106000Y-80774000D03*
%TO.P,SW1,2,B*%
%TO.N,Net-(SW1-B)*%
X70906000Y-80774000D03*
%TO.P,SW1,3,C*%
%TO.N,unconnected-(SW1-C-Pad3)*%
X75706000Y-80774000D03*
%TD*%
D13*
%TO.P,U15,9,EPAD*%
%TO.N,GND*%
X87706000Y-143874000D03*
%TD*%
D14*
%TO.P,J1,1,Pin_1*%
%TO.N,/Motor2_B_OUT*%
X76836000Y-90144000D03*
D15*
%TO.P,J1,2,Pin_2*%
%TO.N,/Motor2_A_OUT*%
X74296000Y-90144000D03*
%TO.P,J1,3,Pin_3*%
%TO.N,/Motor4_A_OUT*%
X76836000Y-92684000D03*
%TO.P,J1,4,Pin_4*%
%TO.N,/MOTOR2_CTRL1*%
X74296000Y-92684000D03*
%TO.P,J1,5,Pin_5*%
%TO.N,/Motor4_B_OUT*%
X76836000Y-95224000D03*
%TO.P,J1,6,Pin_6*%
%TO.N,/MOTOR2_CTRL2*%
X74296000Y-95224000D03*
%TO.P,J1,7,Pin_7*%
%TO.N,/CTRL_EXT_LOAD2*%
X76836000Y-97764000D03*
%TO.P,J1,8,Pin_8*%
%TO.N,/MOTOR4_CTRL1*%
X74296000Y-97764000D03*
%TO.P,J1,9,Pin_9*%
%TO.N,unconnected-(J1-Pin_9-Pad9)*%
X76836000Y-100304000D03*
%TO.P,J1,10,Pin_10*%
%TO.N,/MOTOR4_CTRL2*%
X74296000Y-100304000D03*
%TO.P,J1,11,Pin_11*%
%TO.N,/EXT_LOAD2_OUT*%
X76836000Y-102844000D03*
%TO.P,J1,12,Pin_12*%
%TO.N,unconnected-(J1-Pin_12-Pad12)*%
X74296000Y-102844000D03*
%TO.P,J1,13,Pin_13*%
%TO.N,/FAST_CHARGE_CTRL*%
X76836000Y-105384000D03*
%TO.P,J1,14,Pin_14*%
%TO.N,/V_Battery+*%
X74296000Y-105384000D03*
%TO.P,J1,15,Pin_15*%
%TO.N,unconnected-(J1-Pin_15-Pad15)*%
X76836000Y-107924000D03*
%TO.P,J1,16,Pin_16*%
%TO.N,/SCLK_INA219*%
X74296000Y-107924000D03*
%TO.P,J1,17,Pin_17*%
%TO.N,/SDA_INA219*%
X76836000Y-110464000D03*
%TO.P,J1,18,Pin_18*%
%TO.N,/3.3V Out*%
X74296000Y-110464000D03*
%TO.P,J1,19,Pin_19*%
%TO.N,GND*%
X76836000Y-113004000D03*
%TO.P,J1,20,Pin_20*%
%TO.N,/5V Out*%
X74296000Y-113004000D03*
%TO.P,J1,21,Pin_21*%
%TO.N,/EXT_LOAD1_OUT*%
X76836000Y-115544000D03*
%TO.P,J1,22,Pin_22*%
%TO.N,/HV*%
X74296000Y-115544000D03*
%TO.P,J1,23,Pin_23*%
%TO.N,GND*%
X76836000Y-118084000D03*
%TO.P,J1,24,Pin_24*%
%TO.N,/MOTOR3_CTRL1*%
X74296000Y-118084000D03*
%TO.P,J1,25,Pin_25*%
%TO.N,/CTRL_EXT_LOAD1*%
X76836000Y-120624000D03*
%TO.P,J1,26,Pin_26*%
%TO.N,/MOTOR3_CTRL2*%
X74296000Y-120624000D03*
%TO.P,J1,27,Pin_27*%
%TO.N,/MOTOR3_A_OUT*%
X76836000Y-123164000D03*
%TO.P,J1,28,Pin_28*%
%TO.N,/MOTOR1_CTRL1*%
X74296000Y-123164000D03*
%TO.P,J1,29,Pin_29*%
%TO.N,/MOTOR3_B_OUT*%
X76836000Y-125704000D03*
%TO.P,J1,30,Pin_30*%
%TO.N,/MOTOR1_CTRL2*%
X74296000Y-125704000D03*
%TO.P,J1,31,Pin_31*%
%TO.N,/MOTOR1_B_OUT*%
X76836000Y-128244000D03*
%TO.P,J1,32,Pin_32*%
%TO.N,/MOTOR1_A_OUT*%
X74296000Y-128244000D03*
%TD*%
D16*
%TO.P,J3,S1,SHIELD*%
%TO.N,GND*%
X115981000Y-140804000D03*
%TO.P,J3,S2,SHIELD*%
X124631000Y-140804000D03*
D17*
%TO.P,J3,S3,SHIELD*%
X115981000Y-144974000D03*
%TO.P,J3,S4,SHIELD*%
X124631000Y-144974000D03*
%TD*%
D18*
%TO.N,/5V Out*%
X91406000Y-84314400D03*
X68398700Y-97379100D03*
X123197000Y-87660300D03*
X63790800Y-91116500D03*
X112175000Y-87313100D03*
%TO.N,GND*%
X79306000Y-72974000D03*
X82106000Y-72574000D03*
D19*
X121726046Y-108914042D03*
D18*
X101006000Y-95774000D03*
X70724800Y-102136000D03*
X68406000Y-112253000D03*
X83006000Y-72474000D03*
D19*
X101726046Y-108914042D03*
D18*
X87637800Y-72474000D03*
X94710600Y-72499000D03*
X108506000Y-101074000D03*
D19*
X111726046Y-108914042D03*
D18*
X97201000Y-90452300D03*
%TO.N,/HV*%
X117832000Y-139048000D03*
X121806000Y-122674000D03*
X122806000Y-139074000D03*
X116206000Y-121074000D03*
%TO.N,/EXT_LOAD1_OUT*%
X107374000Y-115024000D03*
%TO.N,/EXT_LOAD2_OUT*%
X102729000Y-97967400D03*
%TO.N,/SDA_INA219*%
X63332200Y-109131000D03*
%TO.N,/MOTOR1_CTRL2*%
X89980100Y-120074000D03*
%TO.N,/MOTOR1_A_OUT*%
X85856700Y-119297000D03*
%TO.N,/Motor2_B_OUT*%
X95310000Y-95684600D03*
%TO.N,/MOTOR2_CTRL1*%
X96554100Y-101010000D03*
%TO.N,/MOTOR1_B_OUT*%
X78329300Y-120853000D03*
X86583800Y-120209000D03*
%TO.N,/MOTOR1_CTRL1*%
X88980800Y-118926000D03*
%TO.N,/MOTOR2_CTRL2*%
X97685200Y-101737000D03*
%TO.N,/Motor2_A_OUT*%
X91074600Y-100943000D03*
%TO.N,/MOTOR4_CTRL1*%
X95887100Y-117306000D03*
X82787000Y-118094000D03*
%TO.N,/MOTOR3_CTRL1*%
X98056000Y-116376000D03*
%TO.N,/MOTOR3_CTRL2*%
X99404900Y-117844000D03*
%TO.N,/MOTOR3_B_OUT*%
X93691200Y-119488000D03*
%TO.N,/Motor4_B_OUT*%
X95160400Y-119654000D03*
X85405400Y-95669900D03*
X85405400Y-115928000D03*
%TO.N,/MOTOR3_A_OUT*%
X90666200Y-118925000D03*
%TO.N,/MOTOR4_CTRL2*%
X96678800Y-121013000D03*
X83799200Y-115960000D03*
%TO.N,/CTRL_EXT_LOAD1*%
X80206000Y-98309000D03*
X79806000Y-120005000D03*
X79806000Y-115874000D03*
X99706000Y-91149000D03*
X81706000Y-112380000D03*
X83512000Y-112380000D03*
X91765400Y-91114700D03*
X81806000Y-115474000D03*
X82274100Y-97906000D03*
%TO.N,/CTRL_EXT_LOAD2*%
X79524700Y-97207000D03*
X81494000Y-97125700D03*
X96281000Y-88174000D03*
X99806000Y-92599000D03*
%TO.N,/3.3V Out*%
X115768000Y-100908000D03*
%TO.N,/V_Battery+*%
X79651400Y-146874000D03*
X92906000Y-146074000D03*
X100665000Y-101536000D03*
X90806000Y-104207000D03*
%TO.N,/SCLK_INA219*%
X71476500Y-104296000D03*
%TO.N,Net-(SW1-B)*%
X68227800Y-94375500D03*
%TO.N,Net-(U3-BOOT)*%
X80984600Y-78538200D03*
X80406000Y-80441500D03*
X81606000Y-83589400D03*
X77831000Y-80183700D03*
%TO.N,Net-(U3-SW_4)*%
X81077200Y-77394400D03*
X76506000Y-75374000D03*
X83739500Y-83407500D03*
X94379900Y-88903300D03*
%TO.N,Net-(U3-SS)*%
X77906000Y-81674000D03*
X76506000Y-86674000D03*
%TO.N,Net-(U3-FSW)*%
X79307600Y-78268800D03*
X83014500Y-81764000D03*
%TO.N,/FB*%
X88606800Y-80946500D03*
X86757800Y-77041000D03*
%TO.N,Net-(U9-VDD)*%
X124806000Y-135774000D03*
X119796000Y-138024000D03*
%TO.N,Net-(J3-DP1)*%
X114973000Y-138814000D03*
X120525000Y-133277000D03*
%TO.N,Net-(J3-DN1)*%
X113060000Y-131155000D03*
X121981000Y-131155000D03*
%TO.N,Net-(J3-CC2)*%
X117098000Y-132464000D03*
X126863000Y-132464000D03*
%TO.N,Net-(D3-K)*%
X115306000Y-118674000D03*
X112206000Y-124074000D03*
%TO.N,/Stepped Down 5V*%
X126617000Y-116952000D03*
X112906000Y-126974000D03*
X101506000Y-136974000D03*
%TO.N,Net-(U13-SS2)*%
X103906000Y-92574000D03*
X104606000Y-94274000D03*
%TO.N,Net-(U2-FB)*%
X112865000Y-92462400D03*
X107672000Y-87725600D03*
%TD*%
D20*
%TO.N,/5V Out*%
X122850000Y-87313100D02*
X112175000Y-87313100D01*
X88146400Y-87574000D02*
X91406000Y-84314400D01*
X75202800Y-87574000D02*
X88146400Y-87574000D01*
X69130800Y-93646100D02*
X75202800Y-87574000D01*
X63790800Y-91116500D02*
X67802400Y-95128100D01*
X68520100Y-95128100D02*
X69130800Y-94517400D01*
X67802400Y-95128100D02*
X68398700Y-95128100D01*
X68398700Y-95128100D02*
X68520100Y-95128100D01*
X65624600Y-106516000D02*
X63918600Y-106516000D01*
X123197000Y-87660300D02*
X122850000Y-87313100D01*
X68398700Y-97379100D02*
X68398700Y-103742000D01*
X62100400Y-109614000D02*
X65490900Y-113004000D01*
X62100400Y-108334000D02*
X62100400Y-109614000D01*
X68398700Y-103742000D02*
X65624600Y-106516000D01*
X69130800Y-94517400D02*
X69130800Y-93646100D01*
X63918600Y-106516000D02*
X62100400Y-108334000D01*
X68398700Y-97379100D02*
X68398700Y-95128100D01*
X65490900Y-113004000D02*
X74296000Y-113004000D01*
%TO.N,GND*%
X116026000Y-144929000D02*
X115981000Y-144974000D01*
X64987400Y-111827000D02*
X62566400Y-109406000D01*
X63614300Y-107464000D02*
X64816000Y-107464000D01*
X107459000Y-96407500D02*
X107459000Y-96033900D01*
X67144700Y-111827000D02*
X64987400Y-111827000D01*
X76836000Y-113004000D02*
X75659300Y-113004000D01*
X115980000Y-144929000D02*
X115980000Y-143752000D01*
X118142000Y-144929000D02*
X116026000Y-144929000D01*
X88540200Y-143752000D02*
X88518500Y-143774000D01*
X75659300Y-113004000D02*
X75659300Y-112690000D01*
X105817000Y-96774000D02*
X102006000Y-96774000D01*
X62566400Y-109406000D02*
X62566400Y-108512000D01*
X124630000Y-144929000D02*
X124586000Y-144929000D01*
X87637800Y-72474000D02*
X87662800Y-72499000D01*
X66017700Y-106843000D02*
X70724800Y-102136000D01*
X107449000Y-96417200D02*
X107459000Y-96407500D01*
X107459000Y-96033900D02*
X107195000Y-95769700D01*
X106821000Y-95769700D02*
X105817000Y-96774000D01*
X62566400Y-108512000D02*
X63614300Y-107464000D01*
X120305000Y-144929000D02*
X118142000Y-144929000D01*
X115980000Y-143752000D02*
X88540200Y-143752000D01*
X67144700Y-111827000D02*
X67570400Y-112253000D01*
X83006000Y-72474000D02*
X87637800Y-72474000D01*
X81706000Y-72974000D02*
X82106000Y-72574000D01*
X87806000Y-143774000D02*
X87118500Y-143774000D01*
X108506000Y-101074000D02*
X108506000Y-97474000D01*
X79306000Y-72974000D02*
X81706000Y-72974000D01*
X116026000Y-144929000D02*
X115980000Y-144929000D01*
X124586000Y-144929000D02*
X124631000Y-144974000D01*
X97201000Y-90569000D02*
X97201000Y-90452300D01*
X66017700Y-107464000D02*
X66017700Y-106843000D01*
X88518500Y-143774000D02*
X87806000Y-143774000D01*
X107195000Y-95769700D02*
X106821000Y-95769700D01*
X120305000Y-144929000D02*
X118142000Y-144929000D01*
X87806000Y-143774000D02*
X87706000Y-143874000D01*
X111726000Y-108914000D02*
X121726000Y-108914000D01*
X116026000Y-144929000D02*
X115980000Y-144929000D01*
X101726000Y-108914000D02*
X111726000Y-108914000D01*
X102006000Y-96774000D02*
X101006000Y-95774000D01*
X75659300Y-112690000D02*
X74797100Y-111827000D01*
X64816000Y-107464000D02*
X66017700Y-107464000D01*
X124586000Y-144929000D02*
X120305000Y-144929000D01*
X118142000Y-144929000D02*
X116026000Y-144929000D01*
X87662800Y-72499000D02*
X94710600Y-72499000D01*
X108506000Y-97474000D02*
X107449000Y-96417200D01*
X74797100Y-111827000D02*
X67144700Y-111827000D01*
X67570400Y-112253000D02*
X68406000Y-112253000D01*
D21*
%TO.N,/HV*%
X78541100Y-114272000D02*
X75568000Y-114272000D01*
D22*
X81325900Y-113274000D02*
X79539100Y-113274000D01*
X79539100Y-113274000D02*
X78541100Y-114272000D01*
X83131800Y-113274000D02*
X82086200Y-113274000D01*
X121806000Y-122674000D02*
X112406000Y-113274000D01*
X82079300Y-113281000D02*
X81332800Y-113281000D01*
X82086200Y-113274000D02*
X82079300Y-113281000D01*
D23*
X118706000Y-122674000D02*
X121806000Y-122674000D01*
D22*
X117832000Y-139048000D02*
X122780000Y-139048000D01*
X112406000Y-113274000D02*
X83892200Y-113274000D01*
D23*
X116206000Y-121074000D02*
X117106000Y-121074000D01*
X117106000Y-121074000D02*
X118706000Y-122674000D01*
D22*
X83138800Y-113281000D02*
X83131800Y-113274000D01*
X83892200Y-113274000D02*
X83885200Y-113281000D01*
X122780000Y-139048000D02*
X122806000Y-139074000D01*
D24*
X75568000Y-114272000D02*
X74296000Y-115544000D01*
D22*
X83885200Y-113281000D02*
X83138800Y-113281000D01*
X81332800Y-113281000D02*
X81325900Y-113274000D01*
D20*
%TO.N,/EXT_LOAD1_OUT*%
X107074000Y-114724000D02*
X107374000Y-115024000D01*
X76836000Y-115544000D02*
X79109300Y-115544000D01*
X79109300Y-115544000D02*
X79929300Y-114724000D01*
X79929300Y-114724000D02*
X107074000Y-114724000D01*
%TO.N,/EXT_LOAD2_OUT*%
X97852100Y-102844000D02*
X76836000Y-102844000D01*
X102729000Y-97967400D02*
X97852100Y-102844000D01*
%TO.N,/SDA_INA219*%
X74694300Y-109131000D02*
X63332200Y-109131000D01*
X75659300Y-110464000D02*
X75659300Y-110096000D01*
X75659300Y-110096000D02*
X74694300Y-109131000D01*
X76836000Y-110464000D02*
X75659300Y-110464000D01*
%TO.N,/MOTOR1_CTRL2*%
X75472700Y-125336000D02*
X76281600Y-124527000D01*
X76281600Y-124527000D02*
X85526400Y-124527000D01*
X74296000Y-125704000D02*
X75472700Y-125704000D01*
X85526400Y-124527000D02*
X89980100Y-120074000D01*
X75472700Y-125704000D02*
X75472700Y-125336000D01*
%TO.N,/MOTOR1_A_OUT*%
X87148200Y-127067000D02*
X76281600Y-127067000D01*
X75472700Y-127876000D02*
X75472700Y-128244000D01*
X86970500Y-118183000D02*
X93439200Y-118183000D01*
X75472700Y-128244000D02*
X74296000Y-128244000D01*
X85856700Y-119297000D02*
X86970500Y-118183000D01*
X94433700Y-119178000D02*
X94433700Y-119782000D01*
X76281600Y-127067000D02*
X75472700Y-127876000D01*
X94433700Y-119782000D02*
X87148200Y-127067000D01*
X93439200Y-118183000D02*
X94433700Y-119178000D01*
%TO.N,/Motor2_B_OUT*%
X88099400Y-88474000D02*
X95310000Y-95684600D01*
X76836000Y-90144000D02*
X78506000Y-88474000D01*
X78506000Y-88474000D02*
X88099400Y-88474000D01*
%TO.N,/MOTOR2_CTRL1*%
X89406100Y-93862200D02*
X96554100Y-101010000D01*
X74296000Y-92684000D02*
X75472700Y-92684000D01*
X75472700Y-93051800D02*
X76283100Y-93862200D01*
X76283100Y-93862200D02*
X89406100Y-93862200D01*
X75472700Y-92684000D02*
X75472700Y-93051800D01*
%TO.N,/MOTOR1_B_OUT*%
X85939600Y-120853000D02*
X86583800Y-120209000D01*
X78329300Y-120853000D02*
X85939600Y-120853000D01*
%TO.N,/MOTOR1_CTRL1*%
X75472700Y-122796000D02*
X76281600Y-121987000D01*
X76281600Y-121987000D02*
X85919400Y-121987000D01*
X74296000Y-123164000D02*
X75472700Y-123164000D01*
X85919400Y-121987000D02*
X88980800Y-118926000D01*
X75472700Y-123164000D02*
X75472700Y-122796000D01*
%TO.N,/MOTOR2_CTRL2*%
X90917100Y-96400800D02*
X96253200Y-101737000D01*
X76281600Y-96400700D02*
X90917100Y-96400700D01*
X90917100Y-96400700D02*
X90917100Y-96400800D01*
X96253200Y-101737000D02*
X97685200Y-101737000D01*
X75472700Y-95224000D02*
X75472700Y-95591800D01*
X75472700Y-95591800D02*
X76281600Y-96400700D01*
X74296000Y-95224000D02*
X75472700Y-95224000D01*
%TO.N,/Motor2_A_OUT*%
X73110000Y-95721600D02*
X73789100Y-96400700D01*
X73789100Y-96400700D02*
X74611600Y-96400700D01*
X74296000Y-90144000D02*
X74296000Y-91320700D01*
X73110000Y-92139000D02*
X73110000Y-95721600D01*
X74611600Y-96400700D02*
X75566000Y-97355100D01*
X74296000Y-91320700D02*
X73928300Y-91320700D01*
X73928300Y-91320700D02*
X73110000Y-92139000D01*
X89165300Y-99034000D02*
X91074600Y-100943000D01*
X75566000Y-98194800D02*
X76405200Y-99034000D01*
X75566000Y-97355100D02*
X75566000Y-98194800D01*
X76405200Y-99034000D02*
X89165300Y-99034000D01*
%TO.N,/MOTOR4_CTRL1*%
X95777800Y-117197000D02*
X95887100Y-117306000D01*
X85086300Y-118094000D02*
X85983200Y-117197000D01*
X82787000Y-118094000D02*
X85086300Y-118094000D01*
X85983200Y-117197000D02*
X95777800Y-117197000D01*
%TO.N,/MOTOR3_CTRL1*%
X86164700Y-116376000D02*
X98056000Y-116376000D01*
X74296000Y-118084000D02*
X75472700Y-118084000D01*
X75472700Y-118084000D02*
X75472700Y-117716000D01*
X76354300Y-116835000D02*
X85706400Y-116835000D01*
X75472700Y-117716000D02*
X76354300Y-116835000D01*
X85706400Y-116835000D02*
X86164700Y-116376000D01*
%TO.N,/MOTOR3_CTRL2*%
X99203200Y-118046000D02*
X99404900Y-117844000D01*
X84846300Y-119280000D02*
X86463200Y-117663000D01*
X75472700Y-120624000D02*
X75472700Y-120256000D01*
X75472700Y-120256000D02*
X76449200Y-119280000D01*
X74296000Y-120624000D02*
X75472700Y-120624000D01*
X76449200Y-119280000D02*
X84846300Y-119280000D01*
X86463200Y-117663000D02*
X95172000Y-117663000D01*
X95172000Y-117663000D02*
X95555200Y-118046000D01*
X95555200Y-118046000D02*
X99203200Y-118046000D01*
%TO.N,/MOTOR3_B_OUT*%
X87474900Y-125704000D02*
X93691200Y-119488000D01*
X76836000Y-125704000D02*
X87474900Y-125704000D01*
%TO.N,/Motor4_B_OUT*%
X85705900Y-115627000D02*
X85405400Y-115928000D01*
X95160400Y-119654000D02*
X98678300Y-119654000D01*
X100132000Y-117390000D02*
X98369200Y-115627000D01*
X78458600Y-95669900D02*
X85405400Y-95669900D01*
X78012700Y-95224000D02*
X78458600Y-95669900D01*
X76836000Y-95224000D02*
X78012700Y-95224000D01*
X100132000Y-118201000D02*
X100132000Y-117390000D01*
X98369200Y-115627000D02*
X85705900Y-115627000D01*
X98678300Y-119654000D02*
X100132000Y-118201000D01*
%TO.N,/MOTOR3_A_OUT*%
X85862100Y-123164000D02*
X90101500Y-118925000D01*
X76836000Y-123164000D02*
X85862100Y-123164000D01*
X90101500Y-118925000D02*
X90666200Y-118925000D01*
%TO.N,/MOTOR4_CTRL2*%
X98556300Y-115175000D02*
X84583900Y-115175000D01*
X84583900Y-115175000D02*
X83799200Y-115960000D01*
X100583000Y-117202000D02*
X98556300Y-115175000D01*
X100583000Y-118388000D02*
X100583000Y-117202000D01*
X96678800Y-121013000D02*
X97958000Y-121013000D01*
X97958000Y-121013000D02*
X100583000Y-118388000D01*
D25*
%TO.N,/CTRL_EXT_LOAD1*%
X77455000Y-120005000D02*
X76836000Y-120624000D01*
X79806000Y-120005000D02*
X77455000Y-120005000D01*
X83512000Y-112380000D02*
X81706000Y-112380000D01*
X80609100Y-97906000D02*
X80206000Y-98309000D01*
X99706000Y-91149000D02*
X91799700Y-91149000D01*
X91799700Y-91149000D02*
X91765400Y-91114700D01*
X81806000Y-115474000D02*
X81406000Y-115874000D01*
X82274100Y-97906000D02*
X80609100Y-97906000D01*
X81406000Y-115874000D02*
X79806000Y-115874000D01*
%TO.N,/CTRL_EXT_LOAD2*%
X100377000Y-90620000D02*
X100377000Y-92028000D01*
D20*
X81412700Y-97207000D02*
X81494000Y-97125700D01*
D25*
X97906000Y-88174000D02*
X98181100Y-88449000D01*
D20*
X79524700Y-97207000D02*
X81412700Y-97207000D01*
D25*
X98206000Y-88449000D02*
X100377000Y-90620000D01*
D20*
X97906000Y-88174000D02*
X96281000Y-88174000D01*
D25*
X100377000Y-92028000D02*
X99806000Y-92599000D01*
X98181100Y-88449000D02*
X98206000Y-88449000D01*
D20*
%TO.N,/3.3V Out*%
X75486600Y-111655000D02*
X91573600Y-111655000D01*
X74296000Y-110464000D02*
X75486600Y-111655000D01*
X96308000Y-107350000D02*
X98881000Y-104777000D01*
X111899000Y-104777000D02*
X115768000Y-100908000D01*
X98881000Y-104777000D02*
X111899000Y-104777000D01*
X91573600Y-111655000D02*
X95878600Y-107350000D01*
X95878600Y-107350000D02*
X96308000Y-107350000D01*
%TO.N,/V_Battery+*%
X64006000Y-136174000D02*
X64006000Y-127674000D01*
X90790400Y-104207000D02*
X76281600Y-104207000D01*
X79651400Y-146874000D02*
X79528300Y-146874000D01*
X76281600Y-104207000D02*
X75472700Y-105016000D01*
X69506000Y-146874000D02*
X69206000Y-146574000D01*
X79506000Y-146874000D02*
X78706000Y-146874000D01*
X69206000Y-141374000D02*
X64006000Y-136174000D01*
X79528300Y-146874000D02*
X79506000Y-146874000D01*
X97993200Y-104207000D02*
X90806000Y-104207000D01*
X92106100Y-146874000D02*
X80306000Y-146874000D01*
X80306000Y-146874000D02*
X79651400Y-146874000D01*
X79528300Y-146874000D02*
X79506000Y-146874000D01*
X75472700Y-105384000D02*
X74296000Y-105384000D01*
X75472700Y-105016000D02*
X75472700Y-105384000D01*
X64006000Y-127674000D02*
X60306000Y-123974000D01*
X79506000Y-146874000D02*
X78706000Y-146874000D01*
X61916100Y-105464000D02*
X64816000Y-105464000D01*
X80306000Y-146874000D02*
X79651400Y-146874000D01*
X78706000Y-146874000D02*
X69506000Y-146874000D01*
X90790400Y-104207000D02*
X90806000Y-104207000D01*
X60306000Y-107074000D02*
X61916100Y-105464000D01*
X60306000Y-123974000D02*
X60306000Y-107074000D01*
X92906000Y-146074000D02*
X92106100Y-146874000D01*
X100665000Y-101536000D02*
X97993200Y-104207000D01*
X90806000Y-104207000D02*
X90790400Y-104207000D01*
X79651400Y-146874000D02*
X79528300Y-146874000D01*
X69206000Y-146574000D02*
X69206000Y-141374000D01*
%TO.N,/SCLK_INA219*%
X74296000Y-107924000D02*
X74296000Y-106747000D01*
X74296000Y-106747000D02*
X73928300Y-106747000D01*
X73928300Y-106747000D02*
X71476500Y-104296000D01*
%TO.N,Net-(SW1-B)*%
X69579300Y-80774000D02*
X68227800Y-82125500D01*
X68227800Y-82125500D02*
X68227800Y-94375500D01*
X70906000Y-80774000D02*
X69579300Y-80774000D01*
D26*
%TO.N,Net-(U3-BOOT)*%
X80984600Y-78538200D02*
X80984600Y-79862900D01*
X80984600Y-79862900D02*
X80406000Y-80441500D01*
X78841600Y-83589400D02*
X81606000Y-83589400D01*
X78324800Y-80183700D02*
X78841600Y-80700500D01*
X77831000Y-80183700D02*
X78324800Y-80183700D01*
X78841600Y-80700500D02*
X78841600Y-83589400D01*
D20*
%TO.N,Net-(U3-SW_4)*%
X91531000Y-83407500D02*
X83739500Y-83407500D01*
X81077200Y-77394400D02*
X83739500Y-80056700D01*
X83739500Y-80056700D02*
X83739500Y-83407500D01*
X94379900Y-88903300D02*
X94379900Y-86256400D01*
X94379900Y-86256400D02*
X91531000Y-83407500D01*
X78526400Y-77394400D02*
X81077200Y-77394400D01*
X76506000Y-75374000D02*
X78526400Y-77394400D01*
D27*
%TO.N,Net-(U3-SS)*%
X77906000Y-81674000D02*
X76506000Y-83074000D01*
X76506000Y-83074000D02*
X76506000Y-86674000D01*
D20*
%TO.N,Net-(U3-FSW)*%
X81424000Y-82863400D02*
X81305300Y-82863400D01*
X83014500Y-81764000D02*
X82523400Y-81764000D01*
X80995300Y-83173400D02*
X79307600Y-83173400D01*
X82523400Y-81764000D02*
X81424000Y-82863400D01*
X81305300Y-82863400D02*
X80995300Y-83173400D01*
X79307600Y-83173400D02*
X79307600Y-78268800D01*
%TO.N,/FB*%
X86757800Y-79097500D02*
X88606800Y-80946500D01*
X86757800Y-77041000D02*
X86757800Y-79097500D01*
%TO.N,Net-(U9-VDD)*%
X120906000Y-137176000D02*
X120058000Y-138024000D01*
X124806000Y-135774000D02*
X123404000Y-137176000D01*
X123404000Y-137176000D02*
X120906000Y-137176000D01*
X120058000Y-138024000D02*
X119796000Y-138024000D01*
%TO.N,Net-(J3-DP1)*%
X120525000Y-133277000D02*
X120509000Y-133277000D01*
X120509000Y-133277000D02*
X114973000Y-138814000D01*
%TO.N,Net-(J3-DN1)*%
X121981000Y-131155000D02*
X113060000Y-131155000D01*
%TO.N,Net-(J3-CC2)*%
X117098000Y-132464000D02*
X126863000Y-132464000D01*
D23*
%TO.N,Net-(D3-K)*%
X112206000Y-124074000D02*
X114050000Y-122230000D01*
X114050000Y-119930000D02*
X115306000Y-118674000D01*
X114050000Y-122230000D02*
X114050000Y-119930000D01*
%TO.N,/Stepped Down 5V*%
X112806000Y-127674000D02*
X103506000Y-136974000D01*
D21*
X126617000Y-119063000D02*
X126617000Y-116952000D01*
X116506000Y-129174000D02*
X126617000Y-119063000D01*
X112906000Y-127574000D02*
X112906000Y-126974000D01*
X112806000Y-127674000D02*
X112906000Y-127574000D01*
X112806000Y-127674000D02*
X114306000Y-129174000D01*
X114306000Y-129174000D02*
X116506000Y-129174000D01*
D23*
X103506000Y-136974000D02*
X101506000Y-136974000D01*
D25*
%TO.N,Net-(U13-SS2)*%
X103906000Y-92574000D02*
X103906000Y-93574000D01*
X103906000Y-93574000D02*
X104606000Y-94274000D01*
D20*
%TO.N,Net-(U2-FB)*%
X111542000Y-87725600D02*
X112865000Y-89048200D01*
X112865000Y-89048200D02*
X112865000Y-92462400D01*
X107672000Y-87725600D02*
X111542000Y-87725600D01*
%TD*%
M02*
