M48
; DRILL file {KiCad 9.0.0} date 2025-03-27T21:08:07+0200
; FORMAT={-:-/ absolute / inch / decimal}
; #@! TF.CreationDate,2025-03-27T21:08:07+02:00
; #@! TF.GenerationSoftware,Kicad,Pcbnew,9.0.0
; #@! TF.FileFunction,Plated,1,2,PTH
FMAT,2
INCH
; #@! TA.AperFunction,Plated,PTH,ComponentDrill
T1C0.0079
; #@! TA.AperFunction,Plated,PTH,ComponentDrill
T2C0.0236
; #@! TA.AperFunction,Plated,PTH,ComponentDrill
T3C0.0295
; #@! TA.AperFunction,Plated,PTH,ComponentDrill
T4C0.0394
; #@! TA.AperFunction,Plated,PTH,ComponentDrill
T5C0.0433
; #@! TA.AperFunction,Plated,PTH,ComponentDrill
T6C0.0512
%
G90
G05
T1
X6.9571Y-4.463
X6.9571Y-4.5102
X6.9571Y-4.5575
X7.0122Y-4.463
X7.0122Y-4.5102
X7.0122Y-4.5575
X7.9341Y-4.178
X7.9341Y-4.2193
X7.9646Y-4.1484
X7.9646Y-4.178
X7.9646Y-4.2193
X7.9646Y-4.2488
X7.9951Y-4.178
X7.9951Y-4.2193
T3
X6.0614Y-2.9118
X6.0614Y-2.9906
T4
X6.0732Y-3.3913
X6.0732Y-3.4913
X6.0732Y-3.5913
X6.0732Y-3.6913
X6.0732Y-3.7913
X6.0732Y-3.8913
X6.0732Y-3.9913
X6.0732Y-4.0913
X6.0732Y-4.1913
X6.0732Y-4.2913
X6.0732Y-4.3913
X6.0732Y-4.4913
X6.0732Y-4.5913
X6.0732Y-4.6913
X6.0732Y-4.7913
X6.0732Y-4.8913
X6.1732Y-3.3913
X6.1732Y-3.4913
X6.1732Y-3.5913
X6.1732Y-3.6913
X6.1732Y-3.7913
X6.1732Y-3.8913
X6.1732Y-3.9913
X6.1732Y-4.0913
X6.1732Y-4.1913
X6.1732Y-4.2913
X6.1732Y-4.3913
X6.1732Y-4.4913
X6.1732Y-4.5913
X6.1732Y-4.6913
X6.1732Y-4.7913
X6.1732Y-4.8913
T5
X7.3187Y-2.8677
X7.7187Y-2.8677
T6
X6.3843Y-3.1173
X6.3843Y-3.3063
X6.3843Y-3.4953
T2
G00X7.878Y-2.8209
M15
G01X7.878Y-2.7894
M16
G05
G00X7.878Y-2.9909
M15
G01X7.878Y-2.9476
M16
G05
G00X8.2185Y-2.8209
M15
G01X8.2185Y-2.7894
M16
G05
G00X8.2185Y-2.9909
M15
G01X8.2185Y-2.9476
M16
G05
M30
