M48
; DRILL file {KiCad 9.0.0} date 2025-03-26T21:47:53+0200
; FORMAT={-:-/ absolute / inch / decimal}
; #@! TF.CreationDate,2025-03-26T21:47:53+02:00
; #@! TF.GenerationSoftware,Kicad,Pcbnew,9.0.0
; #@! TF.FileFunction,Plated,1,2,PTH
FMAT,2
INCH
; #@! TA.AperFunction,Plated,PTH,ComponentDrill
T1C0.0079
; #@! TA.AperFunction,Plated,PTH,ComponentDrill
T2C0.0118
; #@! TA.AperFunction,Plated,PTH,ComponentDrill
T3C0.0394
; #@! TA.AperFunction,Plated,PTH,ViaDrill
T4C0.0787
%
G90
G05
T1
X2.4917Y-2.8784
X2.4917Y-2.9336
X2.539Y-2.8784
X2.539Y-2.9336
X2.5862Y-2.8784
X2.5862Y-2.9336
T2
X2.4407Y-2.4214
X2.4407Y-2.4686
X2.488Y-2.4214
X2.488Y-2.4686
X2.5392Y-2.4214
X2.5392Y-2.4686
X2.5825Y-2.4214
X2.5825Y-2.4686
T3
X2.2512Y-2.3761
X2.2512Y-2.4745
X2.2724Y-4.9
X2.2724Y-5.0
X2.3724Y-4.9
X2.3724Y-5.0
X2.4724Y-4.9
X2.4724Y-5.0
X2.5724Y-4.9
X2.5724Y-5.0
X2.6724Y-4.9
X2.6724Y-5.0
X2.7724Y-4.9
X2.7724Y-5.0
X2.8724Y-4.9
X2.8724Y-5.0
X2.9724Y-4.9
X2.9724Y-5.0
X3.0724Y-4.9
X3.0724Y-5.0
X3.1724Y-4.9
X3.1724Y-5.0
X3.2724Y-4.9
X3.2724Y-5.0
X3.3724Y-4.9
X3.3724Y-5.0
X3.4724Y-4.9
X3.4724Y-5.0
X3.563Y-2.3745
X3.563Y-2.5745
X3.5724Y-4.9
X3.5724Y-5.0
X3.6724Y-4.9
X3.6724Y-5.0
X3.7724Y-4.9
X3.7724Y-5.0
T4
X3.0118Y-3.7402
X3.4252Y-3.7402
X3.8189Y-3.7402
M30
