%TF.GenerationSoftware,KiCad,Pcbnew,9.0.0*%
%TF.CreationDate,2025-03-28T12:28:05+02:00*%
%TF.ProjectId,EEE3088F Micromouse Design,45454533-3038-4384-9620-4d6963726f6d,rev?*%
%TF.SameCoordinates,Original*%
%TF.FileFunction,Soldermask,Top*%
%TF.FilePolarity,Negative*%
%FSLAX46Y46*%
G04 Gerber Fmt 4.6, Leading zero omitted, Abs format (unit mm)*
G04 Created by KiCad (PCBNEW 9.0.0) date 2025-03-28 12:28:05*
%MOMM*%
%LPD*%
G01*
G04 APERTURE LIST*
G04 Aperture macros list*
%AMRoundRect*
0 Rectangle with rounded corners*
0 $1 Rounding radius*
0 $2 $3 $4 $5 $6 $7 $8 $9 X,Y pos of 4 corners*
0 Add a 4 corners polygon primitive as box body*
4,1,4,$2,$3,$4,$5,$6,$7,$8,$9,$2,$3,0*
0 Add four circle primitives for the rounded corners*
1,1,$1+$1,$2,$3*
1,1,$1+$1,$4,$5*
1,1,$1+$1,$6,$7*
1,1,$1+$1,$8,$9*
0 Add four rect primitives between the rounded corners*
20,1,$1+$1,$2,$3,$4,$5,0*
20,1,$1+$1,$4,$5,$6,$7,0*
20,1,$1+$1,$6,$7,$8,$9,0*
20,1,$1+$1,$8,$9,$2,$3,0*%
G04 Aperture macros list end*
%ADD10C,0.010000*%
%ADD11R,0.244000X0.700000*%
%ADD12R,0.700000X0.244000*%
%ADD13C,1.524000*%
%ADD14RoundRect,0.250000X0.475000X-0.337500X0.475000X0.337500X-0.475000X0.337500X-0.475000X-0.337500X0*%
%ADD15RoundRect,0.237500X0.237500X-0.250000X0.237500X0.250000X-0.237500X0.250000X-0.237500X-0.250000X0*%
%ADD16RoundRect,0.250000X-0.625000X0.400000X-0.625000X-0.400000X0.625000X-0.400000X0.625000X0.400000X0*%
%ADD17RoundRect,0.250000X-0.350000X-0.450000X0.350000X-0.450000X0.350000X0.450000X-0.350000X0.450000X0*%
%ADD18RoundRect,0.250000X0.650000X-0.412500X0.650000X0.412500X-0.650000X0.412500X-0.650000X-0.412500X0*%
%ADD19RoundRect,0.225000X0.250000X-0.225000X0.250000X0.225000X-0.250000X0.225000X-0.250000X-0.225000X0*%
%ADD20RoundRect,0.250000X-0.475000X0.337500X-0.475000X-0.337500X0.475000X-0.337500X0.475000X0.337500X0*%
%ADD21RoundRect,0.250000X-0.650000X0.412500X-0.650000X-0.412500X0.650000X-0.412500X0.650000X0.412500X0*%
%ADD22R,2.200000X1.500000*%
%ADD23RoundRect,0.160000X-0.197500X-0.160000X0.197500X-0.160000X0.197500X0.160000X-0.197500X0.160000X0*%
%ADD24RoundRect,0.100000X-0.637500X-0.100000X0.637500X-0.100000X0.637500X0.100000X-0.637500X0.100000X0*%
%ADD25RoundRect,0.250000X-0.625000X0.350000X-0.625000X-0.350000X0.625000X-0.350000X0.625000X0.350000X0*%
%ADD26O,1.750000X1.200000*%
%ADD27RoundRect,0.237500X0.300000X0.237500X-0.300000X0.237500X-0.300000X-0.237500X0.300000X-0.237500X0*%
%ADD28C,2.000000*%
%ADD29RoundRect,0.250000X0.625000X-0.400000X0.625000X0.400000X-0.625000X0.400000X-0.625000X-0.400000X0*%
%ADD30RoundRect,0.155000X-0.212500X-0.155000X0.212500X-0.155000X0.212500X0.155000X-0.212500X0.155000X0*%
%ADD31R,1.500000X2.200000*%
%ADD32RoundRect,0.225000X-0.250000X0.225000X-0.250000X-0.225000X0.250000X-0.225000X0.250000X0.225000X0*%
%ADD33RoundRect,0.250000X-0.450000X0.350000X-0.450000X-0.350000X0.450000X-0.350000X0.450000X0.350000X0*%
%ADD34RoundRect,0.150000X-0.825000X-0.150000X0.825000X-0.150000X0.825000X0.150000X-0.825000X0.150000X0*%
%ADD35RoundRect,0.250000X0.412500X0.925000X-0.412500X0.925000X-0.412500X-0.925000X0.412500X-0.925000X0*%
%ADD36RoundRect,0.250000X1.000000X0.650000X-1.000000X0.650000X-1.000000X-0.650000X1.000000X-0.650000X0*%
%ADD37RoundRect,0.250000X-1.000000X-0.650000X1.000000X-0.650000X1.000000X0.650000X-1.000000X0.650000X0*%
%ADD38RoundRect,0.225000X0.225000X0.250000X-0.225000X0.250000X-0.225000X-0.250000X0.225000X-0.250000X0*%
%ADD39RoundRect,0.250000X-0.412500X-0.650000X0.412500X-0.650000X0.412500X0.650000X-0.412500X0.650000X0*%
%ADD40RoundRect,0.250000X0.450000X-0.262500X0.450000X0.262500X-0.450000X0.262500X-0.450000X-0.262500X0*%
%ADD41RoundRect,0.250001X-0.499999X-0.999999X0.499999X-0.999999X0.499999X0.999999X-0.499999X0.999999X0*%
%ADD42RoundRect,0.160000X0.160000X-0.197500X0.160000X0.197500X-0.160000X0.197500X-0.160000X-0.197500X0*%
%ADD43RoundRect,0.250000X-0.412500X-0.925000X0.412500X-0.925000X0.412500X0.925000X-0.412500X0.925000X0*%
%ADD44RoundRect,0.250000X0.337500X0.475000X-0.337500X0.475000X-0.337500X-0.475000X0.337500X-0.475000X0*%
%ADD45RoundRect,0.237500X-0.237500X0.250000X-0.237500X-0.250000X0.237500X-0.250000X0.237500X0.250000X0*%
%ADD46RoundRect,0.250000X0.400000X0.625000X-0.400000X0.625000X-0.400000X-0.625000X0.400000X-0.625000X0*%
%ADD47RoundRect,0.150000X-0.587500X-0.150000X0.587500X-0.150000X0.587500X0.150000X-0.587500X0.150000X0*%
%ADD48RoundRect,0.155000X0.212500X0.155000X-0.212500X0.155000X-0.212500X-0.155000X0.212500X-0.155000X0*%
%ADD49RoundRect,0.250000X-0.337500X-0.475000X0.337500X-0.475000X0.337500X0.475000X-0.337500X0.475000X0*%
%ADD50RoundRect,0.250000X0.350000X0.450000X-0.350000X0.450000X-0.350000X-0.450000X0.350000X-0.450000X0*%
%ADD51R,2.000000X3.000000*%
%ADD52RoundRect,0.237500X-0.250000X-0.237500X0.250000X-0.237500X0.250000X0.237500X-0.250000X0.237500X0*%
%ADD53RoundRect,0.237500X0.237500X-0.300000X0.237500X0.300000X-0.237500X0.300000X-0.237500X-0.300000X0*%
%ADD54R,2.410000X3.300000*%
%ADD55RoundRect,0.237500X0.250000X0.237500X-0.250000X0.237500X-0.250000X-0.237500X0.250000X-0.237500X0*%
%ADD56R,1.700000X1.700000*%
%ADD57O,1.700000X1.700000*%
%ADD58RoundRect,0.155000X0.155000X-0.212500X0.155000X0.212500X-0.155000X0.212500X-0.155000X-0.212500X0*%
%ADD59O,1.104000X2.204000*%
%ADD60O,1.104000X1.904000*%
%ADD61RoundRect,0.250000X-0.925000X0.412500X-0.925000X-0.412500X0.925000X-0.412500X0.925000X0.412500X0*%
%ADD62RoundRect,0.150000X0.687500X0.150000X-0.687500X0.150000X-0.687500X-0.150000X0.687500X-0.150000X0*%
%ADD63R,2.100000X3.300000*%
%ADD64RoundRect,0.155000X-0.155000X0.212500X-0.155000X-0.212500X0.155000X-0.212500X0.155000X0.212500X0*%
G04 APERTURE END LIST*
D10*
%TO.C,U13*%
X101343500Y-91249000D02*
X100743500Y-91249000D01*
X100743500Y-90499000D01*
X101343500Y-90499000D01*
X101343500Y-91249000D01*
G36*
X101343500Y-91249000D02*
G01*
X100743500Y-91249000D01*
X100743500Y-90499000D01*
X101343500Y-90499000D01*
X101343500Y-91249000D01*
G37*
X101343500Y-91649000D02*
X100743500Y-91649000D01*
X100743500Y-91299000D01*
X101343500Y-91299000D01*
X101343500Y-91649000D01*
G36*
X101343500Y-91649000D02*
G01*
X100743500Y-91649000D01*
X100743500Y-91299000D01*
X101343500Y-91299000D01*
X101343500Y-91649000D01*
G37*
X101343500Y-92049000D02*
X100743500Y-92049000D01*
X100743500Y-91699000D01*
X101343500Y-91699000D01*
X101343500Y-92049000D01*
G36*
X101343500Y-92049000D02*
G01*
X100743500Y-92049000D01*
X100743500Y-91699000D01*
X101343500Y-91699000D01*
X101343500Y-92049000D01*
G37*
X101343500Y-92449000D02*
X100743500Y-92449000D01*
X100743500Y-92099000D01*
X101343500Y-92099000D01*
X101343500Y-92449000D01*
G36*
X101343500Y-92449000D02*
G01*
X100743500Y-92449000D01*
X100743500Y-92099000D01*
X101343500Y-92099000D01*
X101343500Y-92449000D01*
G37*
X101343500Y-93249000D02*
X100743500Y-93249000D01*
X100743500Y-92499000D01*
X101343500Y-92499000D01*
X101343500Y-93249000D01*
G36*
X101343500Y-93249000D02*
G01*
X100743500Y-93249000D01*
X100743500Y-92499000D01*
X101343500Y-92499000D01*
X101343500Y-93249000D01*
G37*
X103043500Y-91249000D02*
X102443500Y-91249000D01*
X102443500Y-90499000D01*
X103043500Y-90499000D01*
X103043500Y-91249000D01*
G36*
X103043500Y-91249000D02*
G01*
X102443500Y-91249000D01*
X102443500Y-90499000D01*
X103043500Y-90499000D01*
X103043500Y-91249000D01*
G37*
X103043500Y-91649000D02*
X102443500Y-91649000D01*
X102443500Y-91299000D01*
X103043500Y-91299000D01*
X103043500Y-91649000D01*
G36*
X103043500Y-91649000D02*
G01*
X102443500Y-91649000D01*
X102443500Y-91299000D01*
X103043500Y-91299000D01*
X103043500Y-91649000D01*
G37*
X103043500Y-92049000D02*
X102443500Y-92049000D01*
X102443500Y-91699000D01*
X103043500Y-91699000D01*
X103043500Y-92049000D01*
G36*
X103043500Y-92049000D02*
G01*
X102443500Y-92049000D01*
X102443500Y-91699000D01*
X103043500Y-91699000D01*
X103043500Y-92049000D01*
G37*
X103043500Y-92449000D02*
X102443500Y-92449000D01*
X102443500Y-92099000D01*
X103043500Y-92099000D01*
X103043500Y-92449000D01*
G36*
X103043500Y-92449000D02*
G01*
X102443500Y-92449000D01*
X102443500Y-92099000D01*
X103043500Y-92099000D01*
X103043500Y-92449000D01*
G37*
X103043500Y-93249000D02*
X102443500Y-93249000D01*
X102443500Y-92499000D01*
X103043500Y-92499000D01*
X103043500Y-93249000D01*
G36*
X103043500Y-93249000D02*
G01*
X102443500Y-93249000D01*
X102443500Y-92499000D01*
X103043500Y-92499000D01*
X103043500Y-93249000D01*
G37*
X102418500Y-93199000D02*
X101368500Y-93199000D01*
X101368500Y-90724000D01*
X101377500Y-90724000D01*
X101386500Y-90723000D01*
X101395500Y-90722000D01*
X101404500Y-90720000D01*
X101413500Y-90718000D01*
X101422500Y-90715000D01*
X101431500Y-90712000D01*
X101439500Y-90709000D01*
X101447500Y-90705000D01*
X101455500Y-90701000D01*
X101463500Y-90696000D01*
X101471500Y-90691000D01*
X101478500Y-90685000D01*
X101485500Y-90679000D01*
X101492500Y-90673000D01*
X101498500Y-90666000D01*
X101504500Y-90659000D01*
X101510500Y-90652000D01*
X101515500Y-90644000D01*
X101520500Y-90637000D01*
X101524500Y-90628000D01*
X101528500Y-90620000D01*
X101531500Y-90612000D01*
X101534500Y-90603000D01*
X101537500Y-90594000D01*
X101539500Y-90585000D01*
X101541500Y-90576000D01*
X101542500Y-90567000D01*
X101543500Y-90558000D01*
X101543500Y-90549000D01*
X102418500Y-90549000D01*
X102418500Y-93199000D01*
G36*
X102418500Y-93199000D02*
G01*
X101368500Y-93199000D01*
X101368500Y-90724000D01*
X101377500Y-90724000D01*
X101386500Y-90723000D01*
X101395500Y-90722000D01*
X101404500Y-90720000D01*
X101413500Y-90718000D01*
X101422500Y-90715000D01*
X101431500Y-90712000D01*
X101439500Y-90709000D01*
X101447500Y-90705000D01*
X101455500Y-90701000D01*
X101463500Y-90696000D01*
X101471500Y-90691000D01*
X101478500Y-90685000D01*
X101485500Y-90679000D01*
X101492500Y-90673000D01*
X101498500Y-90666000D01*
X101504500Y-90659000D01*
X101510500Y-90652000D01*
X101515500Y-90644000D01*
X101520500Y-90637000D01*
X101524500Y-90628000D01*
X101528500Y-90620000D01*
X101531500Y-90612000D01*
X101534500Y-90603000D01*
X101537500Y-90594000D01*
X101539500Y-90585000D01*
X101541500Y-90576000D01*
X101542500Y-90567000D01*
X101543500Y-90558000D01*
X101543500Y-90549000D01*
X102418500Y-90549000D01*
X102418500Y-93199000D01*
G37*
%TO.C,J3*%
X117456000Y-140794000D02*
X116756000Y-140794000D01*
X116756000Y-139604000D01*
X117456000Y-139604000D01*
X117456000Y-140794000D01*
G36*
X117456000Y-140794000D02*
G01*
X116756000Y-140794000D01*
X116756000Y-139604000D01*
X117456000Y-139604000D01*
X117456000Y-140794000D01*
G37*
X118256000Y-140794000D02*
X117556000Y-140794000D01*
X117556000Y-139604000D01*
X118256000Y-139604000D01*
X118256000Y-140794000D01*
G36*
X118256000Y-140794000D02*
G01*
X117556000Y-140794000D01*
X117556000Y-139604000D01*
X118256000Y-139604000D01*
X118256000Y-140794000D01*
G37*
X118756000Y-140844000D02*
X118356000Y-140844000D01*
X118356000Y-139604000D01*
X118756000Y-139604000D01*
X118756000Y-140844000D01*
G36*
X118756000Y-140844000D02*
G01*
X118356000Y-140844000D01*
X118356000Y-139604000D01*
X118756000Y-139604000D01*
X118756000Y-140844000D01*
G37*
X119256000Y-140844000D02*
X118856000Y-140844000D01*
X118856000Y-139604000D01*
X119256000Y-139604000D01*
X119256000Y-140844000D01*
G36*
X119256000Y-140844000D02*
G01*
X118856000Y-140844000D01*
X118856000Y-139604000D01*
X119256000Y-139604000D01*
X119256000Y-140844000D01*
G37*
X119756000Y-140844000D02*
X119356000Y-140844000D01*
X119356000Y-139604000D01*
X119756000Y-139604000D01*
X119756000Y-140844000D01*
G36*
X119756000Y-140844000D02*
G01*
X119356000Y-140844000D01*
X119356000Y-139604000D01*
X119756000Y-139604000D01*
X119756000Y-140844000D01*
G37*
X120256000Y-140844000D02*
X119856000Y-140844000D01*
X119856000Y-139604000D01*
X120256000Y-139604000D01*
X120256000Y-140844000D01*
G36*
X120256000Y-140844000D02*
G01*
X119856000Y-140844000D01*
X119856000Y-139604000D01*
X120256000Y-139604000D01*
X120256000Y-140844000D01*
G37*
X120756000Y-140844000D02*
X120356000Y-140844000D01*
X120356000Y-139604000D01*
X120756000Y-139604000D01*
X120756000Y-140844000D01*
G36*
X120756000Y-140844000D02*
G01*
X120356000Y-140844000D01*
X120356000Y-139604000D01*
X120756000Y-139604000D01*
X120756000Y-140844000D01*
G37*
X121256000Y-140844000D02*
X120856000Y-140844000D01*
X120856000Y-139604000D01*
X121256000Y-139604000D01*
X121256000Y-140844000D01*
G36*
X121256000Y-140844000D02*
G01*
X120856000Y-140844000D01*
X120856000Y-139604000D01*
X121256000Y-139604000D01*
X121256000Y-140844000D01*
G37*
X121756000Y-140844000D02*
X121356000Y-140844000D01*
X121356000Y-139604000D01*
X121756000Y-139604000D01*
X121756000Y-140844000D01*
G36*
X121756000Y-140844000D02*
G01*
X121356000Y-140844000D01*
X121356000Y-139604000D01*
X121756000Y-139604000D01*
X121756000Y-140844000D01*
G37*
X122256000Y-140844000D02*
X121856000Y-140844000D01*
X121856000Y-139604000D01*
X122256000Y-139604000D01*
X122256000Y-140844000D01*
G36*
X122256000Y-140844000D02*
G01*
X121856000Y-140844000D01*
X121856000Y-139604000D01*
X122256000Y-139604000D01*
X122256000Y-140844000D01*
G37*
X123056000Y-140794000D02*
X122356000Y-140794000D01*
X122356000Y-139604000D01*
X123056000Y-139604000D01*
X123056000Y-140794000D01*
G36*
X123056000Y-140794000D02*
G01*
X122356000Y-140794000D01*
X122356000Y-139604000D01*
X123056000Y-139604000D01*
X123056000Y-140794000D01*
G37*
X123856000Y-140794000D02*
X123156000Y-140794000D01*
X123156000Y-139604000D01*
X123856000Y-139604000D01*
X123856000Y-140794000D01*
G36*
X123856000Y-140794000D02*
G01*
X123156000Y-140794000D01*
X123156000Y-139604000D01*
X123856000Y-139604000D01*
X123856000Y-140794000D01*
G37*
%TD*%
D11*
%TO.C,U3*%
X82880500Y-75526500D03*
D12*
X81903500Y-75963500D03*
X81903500Y-76463500D03*
X81903500Y-76963500D03*
X81903500Y-77463500D03*
X81903500Y-77963500D03*
X81903500Y-78463500D03*
X81903500Y-78963500D03*
X81903500Y-79463500D03*
D11*
X82880500Y-79896500D03*
X84380500Y-79896500D03*
D12*
X85357500Y-79463500D03*
X85357500Y-78963500D03*
X85357500Y-78463500D03*
X85357500Y-77963500D03*
X85357500Y-77463500D03*
X85357500Y-76963500D03*
X85357500Y-76463500D03*
X85357500Y-75963500D03*
D11*
X84380500Y-75526500D03*
D13*
X83631000Y-77711500D03*
%TD*%
D14*
%TO.C,C44*%
X78306000Y-146349000D03*
X78306000Y-144274000D03*
%TD*%
D15*
%TO.C,R18*%
X120206000Y-131386500D03*
X120206000Y-129561500D03*
%TD*%
D16*
%TO.C,R1*%
X69806000Y-90274000D03*
X69806000Y-93374000D03*
%TD*%
D17*
%TO.C,R4*%
X84906000Y-82074000D03*
X86906000Y-82074000D03*
%TD*%
D18*
%TO.C,C15*%
X101406000Y-143299000D03*
X101406000Y-140174000D03*
%TD*%
D19*
%TO.C,C19*%
X95806000Y-74049000D03*
X95806000Y-72499000D03*
%TD*%
D20*
%TO.C,C41*%
X101306000Y-121636500D03*
X101306000Y-123711500D03*
%TD*%
D21*
%TO.C,C22*%
X97006000Y-76474000D03*
X97006000Y-79599000D03*
%TD*%
D18*
%TO.C,C56*%
X124306000Y-102836500D03*
X124306000Y-99711500D03*
%TD*%
D22*
%TO.C,L3*%
X107606000Y-121674000D03*
X107606000Y-128074000D03*
%TD*%
D21*
%TO.C,C20*%
X89606000Y-76474000D03*
X89606000Y-79599000D03*
%TD*%
D17*
%TO.C,R8*%
X89406000Y-85974000D03*
X91406000Y-85974000D03*
%TD*%
D23*
%TO.C,R2*%
X62608500Y-88674000D03*
X63803500Y-88674000D03*
%TD*%
D24*
%TO.C,U11*%
X93306000Y-98774000D03*
X93306000Y-99424000D03*
X93306000Y-100074000D03*
X93306000Y-100724000D03*
X93306000Y-101374000D03*
X93306000Y-102024000D03*
X93306000Y-102674000D03*
X93306000Y-103324000D03*
X99031000Y-103324000D03*
X99031000Y-102674000D03*
X99031000Y-102024000D03*
X99031000Y-101374000D03*
X99031000Y-100724000D03*
X99031000Y-100074000D03*
X99031000Y-99424000D03*
X99031000Y-98774000D03*
%TD*%
D21*
%TO.C,C47*%
X115406000Y-88611500D03*
X115406000Y-91736500D03*
%TD*%
D25*
%TO.C,J2*%
X64816000Y-105464000D03*
D26*
X64816000Y-107464000D03*
%TD*%
D27*
%TO.C,C29*%
X106368500Y-97074000D03*
X104643500Y-97074000D03*
%TD*%
D28*
%TO.C,ind1*%
X84906000Y-91874000D03*
%TD*%
D29*
%TO.C,R27*%
X73906000Y-143674000D03*
X73906000Y-140574000D03*
%TD*%
D30*
%TO.C,C1*%
X108306000Y-72474000D03*
X109441000Y-72474000D03*
%TD*%
%TO.C,C34*%
X102401000Y-95574000D03*
X103536000Y-95574000D03*
%TD*%
D31*
%TO.C,L6*%
X119706000Y-75174000D03*
X126106000Y-75174000D03*
%TD*%
D18*
%TO.C,C14*%
X98106000Y-143274000D03*
X98106000Y-140149000D03*
%TD*%
D32*
%TO.C,C35*%
X106568500Y-90199000D03*
X106568500Y-91749000D03*
%TD*%
D33*
%TO.C,R16*%
X114206000Y-134374000D03*
X114206000Y-136374000D03*
%TD*%
D34*
%TO.C,U14*%
X115031000Y-123174000D03*
X115031000Y-124444000D03*
X115031000Y-125714000D03*
X115031000Y-126984000D03*
X119981000Y-126984000D03*
X119981000Y-125714000D03*
X119981000Y-124444000D03*
X119981000Y-123174000D03*
%TD*%
D29*
%TO.C,R35*%
X93306000Y-96624000D03*
X93306000Y-93524000D03*
%TD*%
D35*
%TO.C,C50*%
X125443500Y-113979000D03*
X122368500Y-113979000D03*
%TD*%
D36*
%TO.C,D4*%
X116606000Y-73674000D03*
X112606000Y-73674000D03*
%TD*%
D37*
%TO.C,D3*%
X115406000Y-118379000D03*
X119406000Y-118379000D03*
%TD*%
D28*
%TO.C,ind2*%
X73406000Y-85274000D03*
%TD*%
D34*
%TO.C,U2*%
X104631000Y-79269000D03*
X104631000Y-80539000D03*
X104631000Y-81809000D03*
X104631000Y-83079000D03*
X109581000Y-83079000D03*
X109581000Y-81809000D03*
X109581000Y-80539000D03*
X109581000Y-79269000D03*
%TD*%
D38*
%TO.C,C30*%
X101481000Y-125774000D03*
X99931000Y-125774000D03*
%TD*%
D39*
%TO.C,C46*%
X114081000Y-80474000D03*
X117206000Y-80474000D03*
%TD*%
D40*
%TO.C,R6*%
X92606000Y-74086500D03*
X92606000Y-72261500D03*
%TD*%
D41*
%TO.C,L2*%
X71256000Y-73774000D03*
X74956000Y-73774000D03*
%TD*%
D30*
%TO.C,C27*%
X101001000Y-88374000D03*
X102136000Y-88374000D03*
%TD*%
D21*
%TO.C,C53*%
X121806000Y-94011500D03*
X121806000Y-97136500D03*
%TD*%
D42*
%TO.C,R15*%
X125706000Y-138371500D03*
X125706000Y-137176500D03*
%TD*%
D39*
%TO.C,C40*%
X114143500Y-85674000D03*
X117268500Y-85674000D03*
%TD*%
D21*
%TO.C,C42*%
X118006000Y-94011500D03*
X118006000Y-97136500D03*
%TD*%
D43*
%TO.C,C49*%
X115268500Y-105274000D03*
X118343500Y-105274000D03*
%TD*%
D44*
%TO.C,C45*%
X106343500Y-100374000D03*
X104268500Y-100374000D03*
%TD*%
D45*
%TO.C,R29*%
X91806000Y-124861500D03*
X91806000Y-126686500D03*
%TD*%
D27*
%TO.C,C18*%
X81606000Y-85474000D03*
X79881000Y-85474000D03*
%TD*%
D28*
%TO.C,Comp1*%
X101906000Y-72874000D03*
%TD*%
D30*
%TO.C,C17*%
X81871000Y-82674000D03*
X83006000Y-82674000D03*
%TD*%
D29*
%TO.C,R26*%
X89506000Y-96424000D03*
X89506000Y-93324000D03*
%TD*%
D23*
%TO.C,R9*%
X61706000Y-101174000D03*
X62901000Y-101174000D03*
%TD*%
D46*
%TO.C,R21*%
X86906000Y-84974000D03*
X83806000Y-84974000D03*
%TD*%
D30*
%TO.C,C51*%
X66706000Y-90174000D03*
X67841000Y-90174000D03*
%TD*%
D22*
%TO.C,L5*%
X107506000Y-140074000D03*
X107506000Y-146474000D03*
%TD*%
D28*
%TO.C,TP17*%
X123906000Y-86074000D03*
%TD*%
D21*
%TO.C,C38*%
X119906000Y-88511500D03*
X119906000Y-91636500D03*
%TD*%
D47*
%TO.C,Q2*%
X77006000Y-137174000D03*
X77006000Y-139074000D03*
X78881000Y-138124000D03*
%TD*%
D27*
%TO.C,C52*%
X82331000Y-71074000D03*
X80606000Y-71074000D03*
%TD*%
D48*
%TO.C,C32*%
X102103500Y-85874000D03*
X100968500Y-85874000D03*
%TD*%
D49*
%TO.C,C39*%
X77831000Y-83274000D03*
X79906000Y-83274000D03*
%TD*%
D21*
%TO.C,C37*%
X110806000Y-88611500D03*
X110806000Y-91736500D03*
%TD*%
D50*
%TO.C,R7*%
X91106000Y-82274000D03*
X89106000Y-82274000D03*
%TD*%
D51*
%TO.C,SW1*%
X66106000Y-80774000D03*
X70906000Y-80774000D03*
X75706000Y-80774000D03*
%TD*%
D34*
%TO.C,U1*%
X61731000Y-93669000D03*
X61731000Y-94939000D03*
X61731000Y-96209000D03*
X61731000Y-97479000D03*
X66681000Y-97479000D03*
X66681000Y-96209000D03*
X66681000Y-94939000D03*
X66681000Y-93669000D03*
%TD*%
D23*
%TO.C,R3*%
X66708500Y-87374000D03*
X67903500Y-87374000D03*
%TD*%
D52*
%TO.C,R34*%
X83181000Y-132374000D03*
X85006000Y-132374000D03*
%TD*%
D19*
%TO.C,C36*%
X106568500Y-94849000D03*
X106568500Y-93299000D03*
%TD*%
D53*
%TO.C,C31*%
X102506000Y-119636500D03*
X102506000Y-117911500D03*
%TD*%
D21*
%TO.C,C43*%
X114106000Y-94011500D03*
X114106000Y-97136500D03*
%TD*%
D45*
%TO.C,R30*%
X88806000Y-124861500D03*
X88806000Y-126686500D03*
%TD*%
D34*
%TO.C,U15*%
X85231000Y-141969000D03*
X85231000Y-143239000D03*
X85231000Y-144509000D03*
X85231000Y-145779000D03*
X90181000Y-145779000D03*
X90181000Y-144509000D03*
X90181000Y-143239000D03*
X90181000Y-141969000D03*
D54*
X87706000Y-143874000D03*
%TD*%
D55*
%TO.C,R19*%
X85431000Y-134674000D03*
X83606000Y-134674000D03*
%TD*%
D22*
%TO.C,L4*%
X107406000Y-130774000D03*
X107406000Y-137174000D03*
%TD*%
D35*
%TO.C,C26*%
X125443500Y-127029000D03*
X122368500Y-127029000D03*
%TD*%
D28*
%TO.C,HV1*%
X110406000Y-117974000D03*
%TD*%
D21*
%TO.C,C54*%
X125606000Y-92411500D03*
X125606000Y-95536500D03*
%TD*%
D39*
%TO.C,C55*%
X117043500Y-100674000D03*
X120168500Y-100674000D03*
%TD*%
D56*
%TO.C,J1*%
X76836000Y-90144000D03*
D57*
X74296000Y-90144000D03*
X76836000Y-92684000D03*
X74296000Y-92684000D03*
X76836000Y-95224000D03*
X74296000Y-95224000D03*
X76836000Y-97764000D03*
X74296000Y-97764000D03*
X76836000Y-100304000D03*
X74296000Y-100304000D03*
X76836000Y-102844000D03*
X74296000Y-102844000D03*
X76836000Y-105384000D03*
X74296000Y-105384000D03*
X76836000Y-107924000D03*
X74296000Y-107924000D03*
X76836000Y-110464000D03*
X74296000Y-110464000D03*
X76836000Y-113004000D03*
X74296000Y-113004000D03*
X76836000Y-115544000D03*
X74296000Y-115544000D03*
X76836000Y-118084000D03*
X74296000Y-118084000D03*
X76836000Y-120624000D03*
X74296000Y-120624000D03*
X76836000Y-123164000D03*
X74296000Y-123164000D03*
X76836000Y-125704000D03*
X74296000Y-125704000D03*
X76836000Y-128244000D03*
X74296000Y-128244000D03*
%TD*%
D58*
%TO.C,C24*%
X125706000Y-133841500D03*
X125706000Y-132706500D03*
%TD*%
D55*
%TO.C,R33*%
X84531000Y-137261500D03*
X82706000Y-137261500D03*
%TD*%
D52*
%TO.C,R31*%
X95906000Y-112774000D03*
X97731000Y-112774000D03*
%TD*%
D24*
%TO.C,U12*%
X92331000Y-117799000D03*
X92331000Y-118449000D03*
X92331000Y-119099000D03*
X92331000Y-119749000D03*
X92331000Y-120399000D03*
X92331000Y-121049000D03*
X92331000Y-121699000D03*
X92331000Y-122349000D03*
X98056000Y-122349000D03*
X98056000Y-121699000D03*
X98056000Y-121049000D03*
X98056000Y-120399000D03*
X98056000Y-119749000D03*
X98056000Y-119099000D03*
X98056000Y-118449000D03*
X98056000Y-117799000D03*
%TD*%
D28*
%TO.C,3v3Reg1*%
X121606000Y-81874000D03*
%TD*%
D32*
%TO.C,C28*%
X103506000Y-103599000D03*
X103506000Y-105149000D03*
%TD*%
D33*
%TO.C,R28*%
X82306000Y-141774000D03*
X82306000Y-143774000D03*
%TD*%
D59*
%TO.C,J3*%
X115981000Y-140804000D03*
X124631000Y-140804000D03*
D60*
X115981000Y-144974000D03*
X124631000Y-144974000D03*
%TD*%
D61*
%TO.C,C48*%
X68406000Y-115436500D03*
X68406000Y-118511500D03*
%TD*%
D58*
%TO.C,C33*%
X105368500Y-88809000D03*
X105368500Y-87674000D03*
%TD*%
D45*
%TO.C,R32*%
X85806000Y-124761500D03*
X85806000Y-126586500D03*
%TD*%
D21*
%TO.C,C21*%
X93306000Y-76474000D03*
X93306000Y-79599000D03*
%TD*%
D62*
%TO.C,U9*%
X121981000Y-137774000D03*
X121981000Y-136774000D03*
X121981000Y-135774000D03*
X121981000Y-134774000D03*
X121981000Y-133774000D03*
X116706000Y-133774000D03*
X116706000Y-134774000D03*
X116706000Y-135774000D03*
X116706000Y-136774000D03*
X116706000Y-137774000D03*
D63*
X119343500Y-135774000D03*
%TD*%
D64*
%TO.C,C16*%
X78006000Y-72906500D03*
X78006000Y-74041500D03*
%TD*%
D46*
%TO.C,R5*%
X88806000Y-71274000D03*
X85706000Y-71274000D03*
%TD*%
D28*
%TO.C,VBat1*%
X90806000Y-108174000D03*
%TD*%
M02*
