%TF.GenerationSoftware,KiCad,Pcbnew,9.0.0*%
%TF.CreationDate,2025-03-26T21:47:53+02:00*%
%TF.ProjectId,EEE3088F Micromouse Design,45454533-3038-4384-9620-4d6963726f6d,rev?*%
%TF.SameCoordinates,Original*%
%TF.FileFunction,Copper,L1,Top*%
%TF.FilePolarity,Positive*%
%FSLAX46Y46*%
G04 Gerber Fmt 4.6, Leading zero omitted, Abs format (unit mm)*
G04 Created by KiCad (PCBNEW 9.0.0) date 2025-03-26 21:47:53*
%MOMM*%
%LPD*%
G01*
G04 APERTURE LIST*
G04 Aperture macros list*
%AMRoundRect*
0 Rectangle with rounded corners*
0 $1 Rounding radius*
0 $2 $3 $4 $5 $6 $7 $8 $9 X,Y pos of 4 corners*
0 Add a 4 corners polygon primitive as box body*
4,1,4,$2,$3,$4,$5,$6,$7,$8,$9,$2,$3,0*
0 Add four circle primitives for the rounded corners*
1,1,$1+$1,$2,$3*
1,1,$1+$1,$4,$5*
1,1,$1+$1,$6,$7*
1,1,$1+$1,$8,$9*
0 Add four rect primitives between the rounded corners*
20,1,$1+$1,$2,$3,$4,$5,0*
20,1,$1+$1,$4,$5,$6,$7,0*
20,1,$1+$1,$6,$7,$8,$9,0*
20,1,$1+$1,$8,$9,$2,$3,0*%
%AMFreePoly0*
4,1,37,0.478536,1.278536,0.480000,1.275000,0.480000,-1.275000,0.478536,-1.278536,0.475000,-1.280000,-0.475000,-1.280000,-0.478536,-1.278536,-0.480000,-1.275000,-0.480000,1.100000,-0.478536,1.103536,-0.475000,1.105000,-0.466273,1.105000,-0.448826,1.106938,-0.431331,1.110826,-0.413692,1.116706,-0.405996,1.119592,-0.398236,1.123472,-0.398031,1.123569,-0.389494,1.127363,-0.382906,1.132069,
-0.382650,1.132240,-0.374967,1.137041,-0.361254,1.148796,-0.354545,1.154545,-0.342796,1.168254,-0.337041,1.174967,-0.327365,1.190450,-0.319592,1.205996,-0.316706,1.213692,-0.310826,1.231331,-0.306938,1.248826,-0.305000,1.266273,-0.305000,1.275000,-0.303536,1.278536,-0.300000,1.280000,0.475000,1.280000,0.478536,1.278536,0.478536,1.278536,$1*%
G04 Aperture macros list end*
%TA.AperFunction,SMDPad,CuDef*%
%ADD10RoundRect,0.150000X0.150000X-0.825000X0.150000X0.825000X-0.150000X0.825000X-0.150000X-0.825000X0*%
%TD*%
%TA.AperFunction,HeatsinkPad*%
%ADD11C,0.500000*%
%TD*%
%TA.AperFunction,HeatsinkPad*%
%ADD12R,3.300000X2.410000*%
%TD*%
%TA.AperFunction,SMDPad,CuDef*%
%ADD13R,0.650000X0.500000*%
%TD*%
%TA.AperFunction,SMDPad,CuDef*%
%ADD14R,0.250000X0.500000*%
%TD*%
%TA.AperFunction,SMDPad,CuDef*%
%ADD15FreePoly0,90.000000*%
%TD*%
%TA.AperFunction,SMDPad,CuDef*%
%ADD16RoundRect,0.100000X0.100000X-0.637500X0.100000X0.637500X-0.100000X0.637500X-0.100000X-0.637500X0*%
%TD*%
%TA.AperFunction,SMDPad,CuDef*%
%ADD17RoundRect,0.150000X0.150000X-0.687500X0.150000X0.687500X-0.150000X0.687500X-0.150000X-0.687500X0*%
%TD*%
%TA.AperFunction,HeatsinkPad*%
%ADD18R,3.300000X2.100000*%
%TD*%
%TA.AperFunction,SMDPad,CuDef*%
%ADD19R,0.600000X1.550000*%
%TD*%
%TA.AperFunction,ComponentPad*%
%ADD20C,0.600000*%
%TD*%
%TA.AperFunction,SMDPad,CuDef*%
%ADD21R,3.100000X2.600000*%
%TD*%
%TA.AperFunction,SMDPad,CuDef*%
%ADD22R,4.500000X2.950000*%
%TD*%
%TA.AperFunction,SMDPad,CuDef*%
%ADD23RoundRect,0.237500X0.237500X-0.250000X0.237500X0.250000X-0.237500X0.250000X-0.237500X-0.250000X0*%
%TD*%
%TA.AperFunction,SMDPad,CuDef*%
%ADD24RoundRect,0.250000X0.450000X-0.350000X0.450000X0.350000X-0.450000X0.350000X-0.450000X-0.350000X0*%
%TD*%
%TA.AperFunction,SMDPad,CuDef*%
%ADD25RoundRect,0.250000X0.625000X-0.400000X0.625000X0.400000X-0.625000X0.400000X-0.625000X-0.400000X0*%
%TD*%
%TA.AperFunction,SMDPad,CuDef*%
%ADD26RoundRect,0.160000X0.160000X-0.197500X0.160000X0.197500X-0.160000X0.197500X-0.160000X-0.197500X0*%
%TD*%
%TA.AperFunction,SMDPad,CuDef*%
%ADD27RoundRect,0.250000X0.450000X-0.262500X0.450000X0.262500X-0.450000X0.262500X-0.450000X-0.262500X0*%
%TD*%
%TA.AperFunction,SMDPad,CuDef*%
%ADD28RoundRect,0.150000X0.150000X-0.587500X0.150000X0.587500X-0.150000X0.587500X-0.150000X-0.587500X0*%
%TD*%
%TA.AperFunction,SMDPad,CuDef*%
%ADD29RoundRect,0.250001X0.999999X-0.499999X0.999999X0.499999X-0.999999X0.499999X-0.999999X-0.499999X0*%
%TD*%
%TA.AperFunction,ComponentPad*%
%ADD30C,2.000000*%
%TD*%
%TA.AperFunction,ComponentPad*%
%ADD31O,2.000000X2.000000*%
%TD*%
%TA.AperFunction,ComponentPad*%
%ADD32RoundRect,0.250000X0.750000X-0.600000X0.750000X0.600000X-0.750000X0.600000X-0.750000X-0.600000X0*%
%TD*%
%TA.AperFunction,ComponentPad*%
%ADD33O,2.000000X1.700000*%
%TD*%
%TA.AperFunction,ComponentPad*%
%ADD34R,1.700000X1.700000*%
%TD*%
%TA.AperFunction,ComponentPad*%
%ADD35O,1.700000X1.700000*%
%TD*%
%TA.AperFunction,SMDPad,CuDef*%
%ADD36RoundRect,0.180000X0.920000X-0.420000X0.920000X0.420000X-0.920000X0.420000X-0.920000X-0.420000X0*%
%TD*%
%TA.AperFunction,SMDPad,CuDef*%
%ADD37RoundRect,0.250000X0.475000X-0.337500X0.475000X0.337500X-0.475000X0.337500X-0.475000X-0.337500X0*%
%TD*%
%TA.AperFunction,SMDPad,CuDef*%
%ADD38RoundRect,0.225000X0.250000X-0.225000X0.250000X0.225000X-0.250000X0.225000X-0.250000X-0.225000X0*%
%TD*%
%TA.AperFunction,SMDPad,CuDef*%
%ADD39RoundRect,0.155000X0.155000X-0.212500X0.155000X0.212500X-0.155000X0.212500X-0.155000X-0.212500X0*%
%TD*%
%TA.AperFunction,SMDPad,CuDef*%
%ADD40RoundRect,0.140000X0.170000X-0.140000X0.170000X0.140000X-0.170000X0.140000X-0.170000X-0.140000X0*%
%TD*%
%TA.AperFunction,SMDPad,CuDef*%
%ADD41RoundRect,0.250000X0.650000X-0.412500X0.650000X0.412500X-0.650000X0.412500X-0.650000X-0.412500X0*%
%TD*%
%TA.AperFunction,SMDPad,CuDef*%
%ADD42RoundRect,0.237500X0.237500X-0.300000X0.237500X0.300000X-0.237500X0.300000X-0.237500X-0.300000X0*%
%TD*%
%TA.AperFunction,ViaPad*%
%ADD43C,3.500000*%
%TD*%
G04 APERTURE END LIST*
D10*
%TO.P,U15,1,TEMP*%
%TO.N,Net-(U15-TEMP)*%
X62585000Y-76287500D03*
%TO.P,U15,2,PROG*%
%TO.N,Net-(Q2-D)*%
X63855000Y-76287500D03*
%TO.P,U15,3,GND*%
%TO.N,GND*%
X65125000Y-76287500D03*
%TO.P,U15,4,V_{CC}*%
%TO.N,/HV*%
X66395000Y-76287500D03*
%TO.P,U15,5,BAT*%
%TO.N,/V_Battery+*%
X66395000Y-71337500D03*
%TO.P,U15,6,~{STDBY}*%
%TO.N,unconnected-(U15-~{STDBY}-Pad6)*%
X65125000Y-71337500D03*
%TO.P,U15,7,~{CHRG}*%
%TO.N,unconnected-(U15-~{CHRG}-Pad7)*%
X63855000Y-71337500D03*
%TO.P,U15,8,CE*%
%TO.N,/HV*%
X62585000Y-71337500D03*
D11*
%TO.P,U15,9,EPAD*%
%TO.N,GND*%
X63290000Y-74512500D03*
X64490000Y-74512500D03*
X65690000Y-74512500D03*
D12*
X64490000Y-73812500D03*
D11*
X63290000Y-73112500D03*
X64490000Y-73112500D03*
X65690000Y-73112500D03*
%TD*%
D13*
%TO.P,U13,1_2,VIN1*%
%TO.N,/5V Out*%
X94670000Y-120575000D03*
D14*
%TO.P,U13,3,EN1*%
%TO.N,/CTRL_EXT_LOAD1*%
X95270000Y-120575000D03*
%TO.P,U13,4,VBIAS*%
%TO.N,/5V Out*%
X95670000Y-120575000D03*
%TO.P,U13,5,EN2*%
%TO.N,/CTRL_EXT_LOAD2*%
X96070000Y-120575000D03*
D13*
%TO.P,U13,6_7,VIN2*%
%TO.N,/5V Out*%
X96670000Y-120575000D03*
%TO.P,U13,13_14,VOUT1*%
%TO.N,/EXT_LOAD1_OUT*%
X94670000Y-118875000D03*
D14*
%TO.P,U13,12,SS1*%
%TO.N,Net-(U13-SS1)*%
X95270000Y-118875000D03*
%TO.P,U13,11,GND*%
%TO.N,GND*%
X95670000Y-118875000D03*
%TO.P,U13,10,SS2*%
%TO.N,Net-(U13-SS2)*%
X96070000Y-118875000D03*
D13*
%TO.P,U13,8_9,VOUT2*%
%TO.N,/EXT_LOAD2_OUT*%
X96670000Y-118875000D03*
D15*
%TO.P,U13,15,EXP*%
%TO.N,GND*%
X95670000Y-119725000D03*
%TD*%
D16*
%TO.P,U12,1,~{SLEEP}*%
%TO.N,unconnected-(U12-~{SLEEP}-Pad1)*%
X81905000Y-66530000D03*
%TO.P,U12,2,AOUT1*%
%TO.N,/MOTOR3_A_OUT*%
X82555000Y-66530000D03*
%TO.P,U12,3,AISEN*%
%TO.N,Net-(U12-AISEN)*%
X83205000Y-66530000D03*
%TO.P,U12,4,AOUT2*%
%TO.N,/MOTOR3_B_OUT*%
X83855000Y-66530000D03*
%TO.P,U12,5,BOUT2*%
%TO.N,/Motor4_B_OUT*%
X84505000Y-66530000D03*
%TO.P,U12,6,BISEN*%
%TO.N,Net-(U12-BISEN)*%
X85155000Y-66530000D03*
%TO.P,U12,7,BOUT1*%
%TO.N,/Motor4_A_OUT*%
X85805000Y-66530000D03*
%TO.P,U12,8,~{FAULT}*%
%TO.N,unconnected-(U12-~{FAULT}-Pad8)*%
X86455000Y-66530000D03*
%TO.P,U12,9,BIN1*%
%TO.N,/MOTOR4_CTRL1*%
X86455000Y-60805000D03*
%TO.P,U12,10,BIN2*%
%TO.N,/MOTOR4_CTRL2*%
X85805000Y-60805000D03*
%TO.P,U12,11,VCP*%
%TO.N,Net-(U12-VCP)*%
X85155000Y-60805000D03*
%TO.P,U12,12,VM*%
%TO.N,Net-(U12-VM)*%
X84505000Y-60805000D03*
%TO.P,U12,13,GND*%
%TO.N,GND*%
X83855000Y-60805000D03*
%TO.P,U12,14,VINT*%
%TO.N,Net-(U12-VINT)*%
X83205000Y-60805000D03*
%TO.P,U12,15,AIN2*%
%TO.N,/MOTOR3_CTRL2*%
X82555000Y-60805000D03*
%TO.P,U12,16,AIN1*%
%TO.N,/MOTOR3_CTRL1*%
X81905000Y-60805000D03*
%TD*%
%TO.P,U11,1,~{SLEEP}*%
%TO.N,unconnected-(U11-~{SLEEP}-Pad1)*%
X75315000Y-66530000D03*
%TO.P,U11,2,AOUT1*%
%TO.N,/MOTOR1_A_OUT*%
X75965000Y-66530000D03*
%TO.P,U11,3,AISEN*%
%TO.N,Net-(U11-AISEN)*%
X76615000Y-66530000D03*
%TO.P,U11,4,AOUT2*%
%TO.N,/MOTOR1_B_OUT*%
X77265000Y-66530000D03*
%TO.P,U11,5,BOUT2*%
%TO.N,/Motor2_B_OUT*%
X77915000Y-66530000D03*
%TO.P,U11,6,BISEN*%
%TO.N,Net-(U11-BISEN)*%
X78565000Y-66530000D03*
%TO.P,U11,7,BOUT1*%
%TO.N,/Motor2_A_OUT*%
X79215000Y-66530000D03*
%TO.P,U11,8,~{FAULT}*%
%TO.N,unconnected-(U11-~{FAULT}-Pad8)*%
X79865000Y-66530000D03*
%TO.P,U11,9,BIN1*%
%TO.N,/MOTOR2_CTRL1*%
X79865000Y-60805000D03*
%TO.P,U11,10,BIN2*%
%TO.N,/MOTOR2_CTRL2*%
X79215000Y-60805000D03*
%TO.P,U11,11,VCP*%
%TO.N,Net-(U11-VCP)*%
X78565000Y-60805000D03*
%TO.P,U11,12,VM*%
%TO.N,Net-(U11-VM)*%
X77915000Y-60805000D03*
%TO.P,U11,13,GND*%
%TO.N,GND*%
X77265000Y-60805000D03*
%TO.P,U11,14,VINT*%
%TO.N,Net-(U11-VINT)*%
X76615000Y-60805000D03*
%TO.P,U11,15,AIN2*%
%TO.N,/MOTOR1_CTRL2*%
X75965000Y-60805000D03*
%TO.P,U11,16,AIN1*%
%TO.N,/MOTOR1_CTRL1*%
X75315000Y-60805000D03*
%TD*%
D17*
%TO.P,U9,1,VDD*%
%TO.N,Net-(U9-VDD)*%
X68515000Y-64770000D03*
%TO.P,U9,2,CFG2*%
%TO.N,unconnected-(U9-CFG2-Pad2)*%
X69515000Y-64770000D03*
%TO.P,U9,3,CFG3*%
%TO.N,unconnected-(U9-CFG3-Pad3)*%
X70515000Y-64770000D03*
%TO.P,U9,4,DP*%
%TO.N,Net-(J3-DP1)*%
X71515000Y-64770000D03*
%TO.P,U9,5,DM*%
%TO.N,Net-(J3-DN1)*%
X72515000Y-64770000D03*
%TO.P,U9,6,CC2*%
%TO.N,Net-(J3-CC2)*%
X72515000Y-59495000D03*
%TO.P,U9,7,CC1*%
%TO.N,Net-(J3-CC1)*%
X71515000Y-59495000D03*
%TO.P,U9,8,VBUS*%
%TO.N,Net-(U9-VBUS)*%
X70515000Y-59495000D03*
%TO.P,U9,9,CFG1*%
%TO.N,Net-(U9-CFG1)*%
X69515000Y-59495000D03*
%TO.P,U9,10,PG*%
%TO.N,unconnected-(U9-PG-Pad10)*%
X68515000Y-59495000D03*
D18*
%TO.P,U9,11,GND*%
%TO.N,GND*%
X70515000Y-62132500D03*
%TD*%
D19*
%TO.P,U6,1,BOOT*%
%TO.N,Net-(U6-BOOT)*%
X61890000Y-64802500D03*
%TO.P,U6,2,NC*%
%TO.N,unconnected-(U6-NC-Pad2)*%
X63160000Y-64802500D03*
%TO.P,U6,3,NC*%
%TO.N,unconnected-(U6-NC-Pad3)*%
X64430000Y-64802500D03*
%TO.P,U6,4,VSENSE*%
%TO.N,Net-(U6-VSENSE)*%
X65700000Y-64802500D03*
%TO.P,U6,5,EN*%
%TO.N,unconnected-(U6-EN-Pad5)*%
X65700000Y-59402500D03*
%TO.P,U6,6,GND*%
%TO.N,GND*%
X64430000Y-59402500D03*
%TO.P,U6,7,VIN*%
%TO.N,/Vcc*%
X63160000Y-59402500D03*
%TO.P,U6,8,PH*%
%TO.N,Net-(D1-K)*%
X61890000Y-59402500D03*
D20*
%TO.P,U6,9,GNDPAD*%
%TO.N,GND*%
X61995000Y-62702500D03*
X63195000Y-62702500D03*
X64495000Y-62702500D03*
X65595000Y-62702500D03*
D21*
X63795000Y-62102500D03*
D22*
X63795000Y-62102500D03*
D20*
X61995000Y-61502500D03*
X63195000Y-61502500D03*
X64495000Y-61502500D03*
X65595000Y-61502500D03*
%TD*%
D10*
%TO.P,U1,1,A1*%
%TO.N,/V_Battery+*%
X56005000Y-76287500D03*
%TO.P,U1,2,A0*%
%TO.N,/V_Battery-*%
X57275000Y-76287500D03*
%TO.P,U1,3,SDA*%
%TO.N,/SDA_INA219*%
X58545000Y-76287500D03*
%TO.P,U1,4,SCL*%
%TO.N,/SCLK_INA219*%
X59815000Y-76287500D03*
%TO.P,U1,5,VS*%
%TO.N,/5V Out*%
X59815000Y-71337500D03*
%TO.P,U1,6,GND*%
%TO.N,GND*%
X58545000Y-71337500D03*
%TO.P,U1,7,IN-*%
%TO.N,Net-(SW1-B)*%
X57275000Y-71337500D03*
%TO.P,U1,8,IN+*%
%TO.N,/V_Battery+*%
X56005000Y-71337500D03*
%TD*%
D23*
%TO.P,R34,1*%
%TO.N,Net-(R33-Pad2)*%
X76730000Y-120912500D03*
%TO.P,R34,2*%
%TO.N,GND*%
X76730000Y-119087500D03*
%TD*%
%TO.P,R33,1*%
%TO.N,Net-(Q2-S)*%
X74220000Y-120912500D03*
%TO.P,R33,2*%
%TO.N,Net-(R33-Pad2)*%
X74220000Y-119087500D03*
%TD*%
%TO.P,R32,1*%
%TO.N,Net-(U12-AISEN)*%
X71710000Y-120912500D03*
%TO.P,R32,2*%
%TO.N,GND*%
X71710000Y-119087500D03*
%TD*%
%TO.P,R31,1*%
%TO.N,Net-(U12-AISEN)*%
X69200000Y-120912500D03*
%TO.P,R31,2*%
%TO.N,GND*%
X69200000Y-119087500D03*
%TD*%
%TO.P,R30,1*%
%TO.N,Net-(U12-BISEN)*%
X66690000Y-120912500D03*
%TO.P,R30,2*%
%TO.N,GND*%
X66690000Y-119087500D03*
%TD*%
%TO.P,R29,1*%
%TO.N,Net-(U12-BISEN)*%
X64180000Y-120912500D03*
%TO.P,R29,2*%
%TO.N,GND*%
X64180000Y-119087500D03*
%TD*%
D24*
%TO.P,R28,1*%
%TO.N,Net-(R27-Pad2)*%
X94310000Y-116450000D03*
%TO.P,R28,2*%
%TO.N,GND*%
X94310000Y-114450000D03*
%TD*%
D25*
%TO.P,R27,1*%
%TO.N,Net-(Q2-D)*%
X73490000Y-116400000D03*
%TO.P,R27,2*%
%TO.N,Net-(R27-Pad2)*%
X73490000Y-113300000D03*
%TD*%
%TO.P,R26,1*%
%TO.N,Net-(U11-BISEN)*%
X70200000Y-116400000D03*
%TO.P,R26,2*%
%TO.N,GND*%
X70200000Y-113300000D03*
%TD*%
%TO.P,R25,1*%
%TO.N,Net-(U11-AISEN)*%
X66910000Y-116400000D03*
%TO.P,R25,2*%
%TO.N,GND*%
X66910000Y-113300000D03*
%TD*%
%TO.P,R21,1*%
%TO.N,Net-(U7-SW_4)*%
X63620000Y-116400000D03*
%TO.P,R21,2*%
%TO.N,Net-(R21-Pad2)*%
X63620000Y-113300000D03*
%TD*%
D23*
%TO.P,R19,1*%
%TO.N,GND*%
X61670000Y-120912500D03*
%TO.P,R19,2*%
%TO.N,Net-(U15-TEMP)*%
X61670000Y-119087500D03*
%TD*%
%TO.P,R18,1*%
%TO.N,Net-(U9-VBUS)*%
X59160000Y-120912500D03*
%TO.P,R18,2*%
%TO.N,/HV*%
X59160000Y-119087500D03*
%TD*%
D24*
%TO.P,R16,1*%
%TO.N,GND*%
X91360000Y-116450000D03*
%TO.P,R16,2*%
%TO.N,Net-(U9-CFG1)*%
X91360000Y-114450000D03*
%TD*%
D26*
%TO.P,R15,1*%
%TO.N,/HV*%
X93350000Y-78210000D03*
%TO.P,R15,2*%
%TO.N,Net-(U9-VDD)*%
X93350000Y-77015000D03*
%TD*%
D24*
%TO.P,R8,1*%
%TO.N,/FB*%
X88410000Y-116450000D03*
%TO.P,R8,2*%
%TO.N,/5V Out*%
X88410000Y-114450000D03*
%TD*%
%TO.P,R7,1*%
%TO.N,GND*%
X85460000Y-116450000D03*
%TO.P,R7,2*%
%TO.N,/FB*%
X85460000Y-114450000D03*
%TD*%
D27*
%TO.P,R6,1*%
%TO.N,Net-(C19-Pad1)*%
X95000000Y-61325000D03*
%TO.P,R6,2*%
%TO.N,Net-(U7-COMP)*%
X95000000Y-59500000D03*
%TD*%
D25*
%TO.P,R5,1*%
%TO.N,GND*%
X60330000Y-116400000D03*
%TO.P,R5,2*%
%TO.N,Net-(U7-ILIM)*%
X60330000Y-113300000D03*
%TD*%
D24*
%TO.P,R4,1*%
%TO.N,Net-(U7-FSW)*%
X82510000Y-116450000D03*
%TO.P,R4,2*%
%TO.N,Net-(R21-Pad2)*%
X82510000Y-114450000D03*
%TD*%
%TO.P,R3,1*%
%TO.N,GND*%
X79560000Y-116450000D03*
%TO.P,R3,2*%
%TO.N,Net-(U6-VSENSE)*%
X79560000Y-114450000D03*
%TD*%
%TO.P,R2,1*%
%TO.N,Net-(U6-VSENSE)*%
X76610000Y-116450000D03*
%TO.P,R2,2*%
%TO.N,/3V3 Out*%
X76610000Y-114450000D03*
%TD*%
D25*
%TO.P,R1,1*%
%TO.N,Net-(SW1-B)*%
X57040000Y-116400000D03*
%TO.P,R1,2*%
%TO.N,/V_Battery+*%
X57040000Y-113300000D03*
%TD*%
D28*
%TO.P,Q2,1,G*%
%TO.N,/FAST_CHARGE_CTRL*%
X92495000Y-72920000D03*
%TO.P,Q2,2,S*%
%TO.N,Net-(Q2-S)*%
X94395000Y-72920000D03*
%TO.P,Q2,3,D*%
%TO.N,Net-(Q2-D)*%
X93445000Y-71045000D03*
%TD*%
D29*
%TO.P,L2,1,1*%
%TO.N,/Vcc*%
X70635000Y-76512500D03*
%TO.P,L2,2,2*%
%TO.N,Net-(U7-SW_4)*%
X70635000Y-72812500D03*
%TD*%
D30*
%TO.P,L1,1,1*%
%TO.N,Net-(D1-K)*%
X90500000Y-65392500D03*
D31*
%TO.P,L1,2,2*%
%TO.N,/3V3 Out*%
X90500000Y-60312500D03*
%TD*%
D32*
%TO.P,J2,1,Pin_1*%
%TO.N,/V_Battery+*%
X57180000Y-62852500D03*
D33*
%TO.P,J2,2,Pin_2*%
%TO.N,/V_Battery-*%
X57180000Y-60352500D03*
%TD*%
D34*
%TO.P,J1,1,Pin_1*%
%TO.N,/Motor2_B_OUT*%
X57720000Y-124460000D03*
D35*
%TO.P,J1,2,Pin_2*%
%TO.N,/Motor2_A_OUT*%
X57720000Y-127000000D03*
%TO.P,J1,3,Pin_3*%
%TO.N,/Motor4_A_OUT*%
X60260000Y-124460000D03*
%TO.P,J1,4,Pin_4*%
%TO.N,/MOTOR2_CTRL1*%
X60260000Y-127000000D03*
%TO.P,J1,5,Pin_5*%
%TO.N,/Motor4_B_OUT*%
X62800000Y-124460000D03*
%TO.P,J1,6,Pin_6*%
%TO.N,/MOTOR2_CTRL2*%
X62800000Y-127000000D03*
%TO.P,J1,7,Pin_7*%
%TO.N,/CTRL_EXT_LOAD2*%
X65340000Y-124460000D03*
%TO.P,J1,8,Pin_8*%
%TO.N,/MOTOR4_CTRL1*%
X65340000Y-127000000D03*
%TO.P,J1,9,Pin_9*%
%TO.N,unconnected-(J1-Pin_9-Pad9)*%
X67880000Y-124460000D03*
%TO.P,J1,10,Pin_10*%
%TO.N,/MOTOR4_CTRL2*%
X67880000Y-127000000D03*
%TO.P,J1,11,Pin_11*%
%TO.N,/EXT_LOAD2_OUT*%
X70420000Y-124460000D03*
%TO.P,J1,12,Pin_12*%
%TO.N,unconnected-(J1-Pin_12-Pad12)*%
X70420000Y-127000000D03*
%TO.P,J1,13,Pin_13*%
%TO.N,/FAST_CHARGE_CTRL*%
X72960000Y-124460000D03*
%TO.P,J1,14,Pin_14*%
%TO.N,/V_Battery+*%
X72960000Y-127000000D03*
%TO.P,J1,15,Pin_15*%
%TO.N,unconnected-(J1-Pin_15-Pad15)*%
X75500000Y-124460000D03*
%TO.P,J1,16,Pin_16*%
%TO.N,/SCLK_INA219*%
X75500000Y-127000000D03*
%TO.P,J1,17,Pin_17*%
%TO.N,/SDA_INA219*%
X78040000Y-124460000D03*
%TO.P,J1,18,Pin_18*%
%TO.N,/3V3 Out*%
X78040000Y-127000000D03*
%TO.P,J1,19,Pin_19*%
%TO.N,GND*%
X80580000Y-124460000D03*
%TO.P,J1,20,Pin_20*%
%TO.N,/5V Out*%
X80580000Y-127000000D03*
%TO.P,J1,21,Pin_21*%
%TO.N,/EXT_LOAD1_OUT*%
X83120000Y-124460000D03*
%TO.P,J1,22,Pin_22*%
%TO.N,/HV*%
X83120000Y-127000000D03*
%TO.P,J1,23,Pin_23*%
%TO.N,GND*%
X85660000Y-124460000D03*
%TO.P,J1,24,Pin_24*%
%TO.N,/MOTOR3_CTRL1*%
X85660000Y-127000000D03*
%TO.P,J1,25,Pin_25*%
%TO.N,/CTRL_EXT_LOAD1*%
X88200000Y-124460000D03*
%TO.P,J1,26,Pin_26*%
%TO.N,/MOTOR3_CTRL2*%
X88200000Y-127000000D03*
%TO.P,J1,27,Pin_27*%
%TO.N,/MOTOR3_A_OUT*%
X90740000Y-124460000D03*
%TO.P,J1,28,Pin_28*%
%TO.N,/MOTOR1_CTRL1*%
X90740000Y-127000000D03*
%TO.P,J1,29,Pin_29*%
%TO.N,/MOTOR3_B_OUT*%
X93280000Y-124460000D03*
%TO.P,J1,30,Pin_30*%
%TO.N,/MOTOR1_CTRL2*%
X93280000Y-127000000D03*
%TO.P,J1,31,Pin_31*%
%TO.N,/MOTOR1_B_OUT*%
X95820000Y-124460000D03*
%TO.P,J1,32,Pin_32*%
%TO.N,/MOTOR1_A_OUT*%
X95820000Y-127000000D03*
%TD*%
D36*
%TO.P,D1,1,K*%
%TO.N,Net-(D1-K)*%
X95125000Y-67317500D03*
%TO.P,D1,2,A*%
%TO.N,GND*%
X95125000Y-63717500D03*
%TD*%
D37*
%TO.P,C41,1*%
%TO.N,/3V3 Out*%
X90850000Y-77870000D03*
%TO.P,C41,2*%
%TO.N,GND*%
X90850000Y-75795000D03*
%TD*%
%TO.P,C39,1*%
%TO.N,/Vcc*%
X87840000Y-77870000D03*
%TO.P,C39,2*%
%TO.N,GND*%
X87840000Y-75795000D03*
%TD*%
%TO.P,C38,1*%
%TO.N,/V_Battery+*%
X84830000Y-77870000D03*
%TO.P,C38,2*%
%TO.N,Net-(U11-VM)*%
X84830000Y-75795000D03*
%TD*%
D38*
%TO.P,C37,1*%
%TO.N,Net-(U13-SS2)*%
X84260000Y-120945000D03*
%TO.P,C37,2*%
%TO.N,GND*%
X84260000Y-119395000D03*
%TD*%
%TO.P,C36,1*%
%TO.N,Net-(U13-SS1)*%
X81750000Y-120945000D03*
%TO.P,C36,2*%
%TO.N,GND*%
X81750000Y-119395000D03*
%TD*%
D39*
%TO.P,C35,1*%
%TO.N,GND*%
X67360000Y-68550000D03*
%TO.P,C35,2*%
%TO.N,/EXT_LOAD2_OUT*%
X67360000Y-67415000D03*
%TD*%
%TO.P,C34,1*%
%TO.N,/EXT_LOAD1_OUT*%
X65390000Y-68550000D03*
%TO.P,C34,2*%
%TO.N,GND*%
X65390000Y-67415000D03*
%TD*%
%TO.P,C33,1*%
%TO.N,GND*%
X63420000Y-68550000D03*
%TO.P,C33,2*%
%TO.N,/5V Out*%
X63420000Y-67415000D03*
%TD*%
%TO.P,C32,1*%
%TO.N,/5V Out*%
X61450000Y-68550000D03*
%TO.P,C32,2*%
%TO.N,GND*%
X61450000Y-67415000D03*
%TD*%
D40*
%TO.P,C31,1*%
%TO.N,GND*%
X92410000Y-121220000D03*
%TO.P,C31,2*%
%TO.N,Net-(U12-VINT)*%
X92410000Y-120260000D03*
%TD*%
%TO.P,C30,1*%
%TO.N,Net-(U12-VM)*%
X90440000Y-121220000D03*
%TO.P,C30,2*%
%TO.N,Net-(U12-VCP)*%
X90440000Y-120260000D03*
%TD*%
%TO.P,C29,1*%
%TO.N,GND*%
X88470000Y-121220000D03*
%TO.P,C29,2*%
%TO.N,Net-(U11-VINT)*%
X88470000Y-120260000D03*
%TD*%
%TO.P,C28,1*%
%TO.N,Net-(U11-VM)*%
X86500000Y-121220000D03*
%TO.P,C28,2*%
%TO.N,Net-(U11-VCP)*%
X86500000Y-120260000D03*
%TD*%
D37*
%TO.P,C27,1*%
%TO.N,/V_Battery+*%
X81820000Y-77870000D03*
%TO.P,C27,2*%
%TO.N,GND*%
X81820000Y-75795000D03*
%TD*%
%TO.P,C26,1*%
%TO.N,/V_Battery+*%
X78810000Y-77870000D03*
%TO.P,C26,2*%
%TO.N,Net-(U12-VM)*%
X78810000Y-75795000D03*
%TD*%
D39*
%TO.P,C24,1*%
%TO.N,Net-(U9-VDD)*%
X59480000Y-68550000D03*
%TO.P,C24,2*%
%TO.N,GND*%
X59480000Y-67415000D03*
%TD*%
D41*
%TO.P,C23,1*%
%TO.N,/3V3 Out*%
X89370000Y-72985000D03*
%TO.P,C23,2*%
%TO.N,GND*%
X89370000Y-69860000D03*
%TD*%
%TO.P,C22,1*%
%TO.N,/5V Out*%
X86020000Y-72985000D03*
%TO.P,C22,2*%
%TO.N,GND*%
X86020000Y-69860000D03*
%TD*%
%TO.P,C21,1*%
%TO.N,/5V Out*%
X82670000Y-72985000D03*
%TO.P,C21,2*%
%TO.N,GND*%
X82670000Y-69860000D03*
%TD*%
%TO.P,C20,1*%
%TO.N,/5V Out*%
X79320000Y-72985000D03*
%TO.P,C20,2*%
%TO.N,GND*%
X79320000Y-69860000D03*
%TD*%
D38*
%TO.P,C19,1*%
%TO.N,Net-(C19-Pad1)*%
X79240000Y-120945000D03*
%TO.P,C19,2*%
%TO.N,GND*%
X79240000Y-119395000D03*
%TD*%
D42*
%TO.P,C18,1*%
%TO.N,Net-(U7-SS)*%
X56650000Y-120862500D03*
%TO.P,C18,2*%
%TO.N,GND*%
X56650000Y-119137500D03*
%TD*%
D39*
%TO.P,C17,1*%
%TO.N,Net-(U7-BOOT)*%
X57510000Y-68550000D03*
%TO.P,C17,2*%
%TO.N,Net-(U7-SW_4)*%
X57510000Y-67415000D03*
%TD*%
%TO.P,C16,1*%
%TO.N,GND*%
X55540000Y-68550000D03*
%TO.P,C16,2*%
%TO.N,/Vcc*%
X55540000Y-67415000D03*
%TD*%
D37*
%TO.P,C14,1*%
%TO.N,Net-(D1-K)*%
X75800000Y-77870000D03*
%TO.P,C14,2*%
%TO.N,Net-(U6-BOOT)*%
X75800000Y-75795000D03*
%TD*%
D41*
%TO.P,C1,1*%
%TO.N,/3V3 Out*%
X75970000Y-72985000D03*
%TO.P,C1,2*%
%TO.N,GND*%
X75970000Y-69860000D03*
%TD*%
D43*
%TO.N,GND*%
X76500000Y-95000000D03*
X87000000Y-95000000D03*
X97000000Y-95000000D03*
%TD*%
M02*
