%TF.GenerationSoftware,KiCad,Pcbnew,9.0.0*%
%TF.CreationDate,2025-03-26T08:11:03+02:00*%
%TF.ProjectId,EEE3088F Micromouse Design,45454533-3038-4384-9620-4d6963726f6d,rev?*%
%TF.SameCoordinates,Original*%
%TF.FileFunction,Copper,L1,Top*%
%TF.FilePolarity,Positive*%
%FSLAX46Y46*%
G04 Gerber Fmt 4.6, Leading zero omitted, Abs format (unit mm)*
G04 Created by KiCad (PCBNEW 9.0.0) date 2025-03-26 08:11:03*
%MOMM*%
%LPD*%
G01*
G04 APERTURE LIST*
G04 Aperture macros list*
%AMRoundRect*
0 Rectangle with rounded corners*
0 $1 Rounding radius*
0 $2 $3 $4 $5 $6 $7 $8 $9 X,Y pos of 4 corners*
0 Add a 4 corners polygon primitive as box body*
4,1,4,$2,$3,$4,$5,$6,$7,$8,$9,$2,$3,0*
0 Add four circle primitives for the rounded corners*
1,1,$1+$1,$2,$3*
1,1,$1+$1,$4,$5*
1,1,$1+$1,$6,$7*
1,1,$1+$1,$8,$9*
0 Add four rect primitives between the rounded corners*
20,1,$1+$1,$2,$3,$4,$5,0*
20,1,$1+$1,$4,$5,$6,$7,0*
20,1,$1+$1,$6,$7,$8,$9,0*
20,1,$1+$1,$8,$9,$2,$3,0*%
%AMFreePoly0*
4,1,37,0.478536,1.278536,0.480000,1.275000,0.480000,-1.275000,0.478536,-1.278536,0.475000,-1.280000,-0.475000,-1.280000,-0.478536,-1.278536,-0.480000,-1.275000,-0.480000,1.100000,-0.478536,1.103536,-0.475000,1.105000,-0.466273,1.105000,-0.448826,1.106938,-0.431331,1.110826,-0.413692,1.116706,-0.405996,1.119592,-0.398236,1.123472,-0.398031,1.123569,-0.389494,1.127363,-0.382906,1.132069,
-0.382650,1.132240,-0.374967,1.137041,-0.361254,1.148796,-0.354545,1.154545,-0.342796,1.168254,-0.337041,1.174967,-0.327365,1.190450,-0.319592,1.205996,-0.316706,1.213692,-0.310826,1.231331,-0.306938,1.248826,-0.305000,1.266273,-0.305000,1.275000,-0.303536,1.278536,-0.300000,1.280000,0.475000,1.280000,0.478536,1.278536,0.478536,1.278536,$1*%
G04 Aperture macros list end*
%TA.AperFunction,SMDPad,CuDef*%
%ADD10RoundRect,0.150000X-0.825000X-0.150000X0.825000X-0.150000X0.825000X0.150000X-0.825000X0.150000X0*%
%TD*%
%TA.AperFunction,HeatsinkPad*%
%ADD11C,0.500000*%
%TD*%
%TA.AperFunction,HeatsinkPad*%
%ADD12R,2.410000X3.300000*%
%TD*%
%TA.AperFunction,SMDPad,CuDef*%
%ADD13R,0.500000X0.650000*%
%TD*%
%TA.AperFunction,SMDPad,CuDef*%
%ADD14R,0.500000X0.250000*%
%TD*%
%TA.AperFunction,SMDPad,CuDef*%
%ADD15FreePoly0,0.000000*%
%TD*%
%TA.AperFunction,SMDPad,CuDef*%
%ADD16RoundRect,0.100000X-0.637500X-0.100000X0.637500X-0.100000X0.637500X0.100000X-0.637500X0.100000X0*%
%TD*%
%TA.AperFunction,SMDPad,CuDef*%
%ADD17RoundRect,0.150000X-0.687500X-0.150000X0.687500X-0.150000X0.687500X0.150000X-0.687500X0.150000X0*%
%TD*%
%TA.AperFunction,HeatsinkPad*%
%ADD18R,2.100000X3.300000*%
%TD*%
%TA.AperFunction,SMDPad,CuDef*%
%ADD19R,1.550000X0.600000*%
%TD*%
%TA.AperFunction,ComponentPad*%
%ADD20C,0.600000*%
%TD*%
%TA.AperFunction,SMDPad,CuDef*%
%ADD21R,2.600000X3.100000*%
%TD*%
%TA.AperFunction,SMDPad,CuDef*%
%ADD22R,2.950000X4.500000*%
%TD*%
%TA.AperFunction,SMDPad,CuDef*%
%ADD23RoundRect,0.237500X-0.250000X-0.237500X0.250000X-0.237500X0.250000X0.237500X-0.250000X0.237500X0*%
%TD*%
%TA.AperFunction,SMDPad,CuDef*%
%ADD24RoundRect,0.250000X-0.350000X-0.450000X0.350000X-0.450000X0.350000X0.450000X-0.350000X0.450000X0*%
%TD*%
%TA.AperFunction,SMDPad,CuDef*%
%ADD25RoundRect,0.250000X-0.400000X-0.625000X0.400000X-0.625000X0.400000X0.625000X-0.400000X0.625000X0*%
%TD*%
%TA.AperFunction,SMDPad,CuDef*%
%ADD26RoundRect,0.160000X-0.197500X-0.160000X0.197500X-0.160000X0.197500X0.160000X-0.197500X0.160000X0*%
%TD*%
%TA.AperFunction,SMDPad,CuDef*%
%ADD27RoundRect,0.250000X-0.262500X-0.450000X0.262500X-0.450000X0.262500X0.450000X-0.262500X0.450000X0*%
%TD*%
%TA.AperFunction,SMDPad,CuDef*%
%ADD28RoundRect,0.250000X-0.362500X-1.425000X0.362500X-1.425000X0.362500X1.425000X-0.362500X1.425000X0*%
%TD*%
%TA.AperFunction,SMDPad,CuDef*%
%ADD29RoundRect,0.150000X-0.587500X-0.150000X0.587500X-0.150000X0.587500X0.150000X-0.587500X0.150000X0*%
%TD*%
%TA.AperFunction,SMDPad,CuDef*%
%ADD30RoundRect,0.250001X-0.499999X-0.999999X0.499999X-0.999999X0.499999X0.999999X-0.499999X0.999999X0*%
%TD*%
%TA.AperFunction,ComponentPad*%
%ADD31C,2.000000*%
%TD*%
%TA.AperFunction,ComponentPad*%
%ADD32O,2.000000X2.000000*%
%TD*%
%TA.AperFunction,ComponentPad*%
%ADD33RoundRect,0.250000X-0.600000X-0.750000X0.600000X-0.750000X0.600000X0.750000X-0.600000X0.750000X0*%
%TD*%
%TA.AperFunction,ComponentPad*%
%ADD34O,1.700000X2.000000*%
%TD*%
%TA.AperFunction,ComponentPad*%
%ADD35R,1.700000X1.700000*%
%TD*%
%TA.AperFunction,ComponentPad*%
%ADD36O,1.700000X1.700000*%
%TD*%
%TA.AperFunction,SMDPad,CuDef*%
%ADD37RoundRect,0.180000X-0.420000X-0.920000X0.420000X-0.920000X0.420000X0.920000X-0.420000X0.920000X0*%
%TD*%
%TA.AperFunction,SMDPad,CuDef*%
%ADD38RoundRect,0.250000X-0.337500X-0.475000X0.337500X-0.475000X0.337500X0.475000X-0.337500X0.475000X0*%
%TD*%
%TA.AperFunction,SMDPad,CuDef*%
%ADD39RoundRect,0.225000X-0.225000X-0.250000X0.225000X-0.250000X0.225000X0.250000X-0.225000X0.250000X0*%
%TD*%
%TA.AperFunction,SMDPad,CuDef*%
%ADD40RoundRect,0.155000X-0.212500X-0.155000X0.212500X-0.155000X0.212500X0.155000X-0.212500X0.155000X0*%
%TD*%
%TA.AperFunction,SMDPad,CuDef*%
%ADD41RoundRect,0.140000X-0.140000X-0.170000X0.140000X-0.170000X0.140000X0.170000X-0.140000X0.170000X0*%
%TD*%
%TA.AperFunction,SMDPad,CuDef*%
%ADD42RoundRect,0.250000X-0.325000X-0.650000X0.325000X-0.650000X0.325000X0.650000X-0.325000X0.650000X0*%
%TD*%
%TA.AperFunction,SMDPad,CuDef*%
%ADD43RoundRect,0.250000X-0.412500X-0.650000X0.412500X-0.650000X0.412500X0.650000X-0.412500X0.650000X0*%
%TD*%
%TA.AperFunction,SMDPad,CuDef*%
%ADD44RoundRect,0.237500X-0.300000X-0.237500X0.300000X-0.237500X0.300000X0.237500X-0.300000X0.237500X0*%
%TD*%
G04 APERTURE END LIST*
D10*
%TO.P,U15,1,TEMP*%
%TO.N,Net-(U15-TEMP)*%
X74575000Y-96645000D03*
%TO.P,U15,2,PROG*%
%TO.N,Net-(Q2-D)*%
X74575000Y-97915000D03*
%TO.P,U15,3,GND*%
%TO.N,GND*%
X74575000Y-99185000D03*
%TO.P,U15,4,V_{CC}*%
%TO.N,/HV*%
X74575000Y-100455000D03*
%TO.P,U15,5,BAT*%
%TO.N,/V_Battery+*%
X79525000Y-100455000D03*
%TO.P,U15,6,~{STDBY}*%
%TO.N,unconnected-(U15-~{STDBY}-Pad6)*%
X79525000Y-99185000D03*
%TO.P,U15,7,~{CHRG}*%
%TO.N,unconnected-(U15-~{CHRG}-Pad7)*%
X79525000Y-97915000D03*
%TO.P,U15,8,CE*%
%TO.N,/HV*%
X79525000Y-96645000D03*
D11*
%TO.P,U15,9,EPAD*%
%TO.N,GND*%
X76350000Y-97350000D03*
X76350000Y-98550000D03*
X76350000Y-99750000D03*
D12*
X77050000Y-98550000D03*
D11*
X77750000Y-97350000D03*
X77750000Y-98550000D03*
X77750000Y-99750000D03*
%TD*%
D13*
%TO.P,U13,1_2,VIN1*%
%TO.N,/5V Out*%
X98405000Y-103290000D03*
D14*
%TO.P,U13,3,EN1*%
%TO.N,/CTRL_EXT_LOAD1*%
X98405000Y-103890000D03*
%TO.P,U13,4,VBIAS*%
%TO.N,/5V Out*%
X98405000Y-104290000D03*
%TO.P,U13,5,EN2*%
%TO.N,/CTRL_EXT_LOAD2*%
X98405000Y-104690000D03*
D13*
%TO.P,U13,6_7,VIN2*%
%TO.N,/5V Out*%
X98405000Y-105290000D03*
%TO.P,U13,13_14,VOUT1*%
%TO.N,/EXT_LOAD1_OUT*%
X100105000Y-103290000D03*
D14*
%TO.P,U13,12,SS1*%
%TO.N,Net-(U13-SS1)*%
X100105000Y-103890000D03*
%TO.P,U13,11,GND*%
%TO.N,GND*%
X100105000Y-104290000D03*
%TO.P,U13,10,SS2*%
%TO.N,Net-(U13-SS2)*%
X100105000Y-104690000D03*
D13*
%TO.P,U13,8_9,VOUT2*%
%TO.N,/EXT_LOAD2_OUT*%
X100105000Y-105290000D03*
D15*
%TO.P,U13,15,EXP*%
%TO.N,GND*%
X99255000Y-104290000D03*
%TD*%
D16*
%TO.P,U12,1,~{SLEEP}*%
%TO.N,unconnected-(U12-~{SLEEP}-Pad1)*%
X78662500Y-81165000D03*
%TO.P,U12,2,AOUT1*%
%TO.N,/MOTOR3_A_OUT*%
X78662500Y-81815000D03*
%TO.P,U12,3,AISEN*%
%TO.N,Net-(U12-AISEN)*%
X78662500Y-82465000D03*
%TO.P,U12,4,AOUT2*%
%TO.N,/MOTOR3_B_OUT*%
X78662500Y-83115000D03*
%TO.P,U12,5,BOUT2*%
%TO.N,/Motor4_B_OUT*%
X78662500Y-83765000D03*
%TO.P,U12,6,BISEN*%
%TO.N,Net-(U12-BISEN)*%
X78662500Y-84415000D03*
%TO.P,U12,7,BOUT1*%
%TO.N,/Motor4_A_OUT*%
X78662500Y-85065000D03*
%TO.P,U12,8,~{FAULT}*%
%TO.N,unconnected-(U12-~{FAULT}-Pad8)*%
X78662500Y-85715000D03*
%TO.P,U12,9,BIN1*%
%TO.N,/MOTOR4_CTRL1*%
X84387500Y-85715000D03*
%TO.P,U12,10,BIN2*%
%TO.N,/MOTOR4_CTRL2*%
X84387500Y-85065000D03*
%TO.P,U12,11,VCP*%
%TO.N,Net-(U12-VCP)*%
X84387500Y-84415000D03*
%TO.P,U12,12,VM*%
%TO.N,Net-(U12-VM)*%
X84387500Y-83765000D03*
%TO.P,U12,13,GND*%
%TO.N,GND*%
X84387500Y-83115000D03*
%TO.P,U12,14,VINT*%
%TO.N,Net-(U12-VINT)*%
X84387500Y-82465000D03*
%TO.P,U12,15,AIN2*%
%TO.N,/MOTOR3_CTRL2*%
X84387500Y-81815000D03*
%TO.P,U12,16,AIN1*%
%TO.N,/MOTOR3_CTRL1*%
X84387500Y-81165000D03*
%TD*%
%TO.P,U11,1,~{SLEEP}*%
%TO.N,unconnected-(U11-~{SLEEP}-Pad1)*%
X78662500Y-74575000D03*
%TO.P,U11,2,AOUT1*%
%TO.N,/MOTOR1_A_OUT*%
X78662500Y-75225000D03*
%TO.P,U11,3,AISEN*%
%TO.N,Net-(U11-AISEN)*%
X78662500Y-75875000D03*
%TO.P,U11,4,AOUT2*%
%TO.N,/MOTOR1_B_OUT*%
X78662500Y-76525000D03*
%TO.P,U11,5,BOUT2*%
%TO.N,/Motor2_B_OUT*%
X78662500Y-77175000D03*
%TO.P,U11,6,BISEN*%
%TO.N,Net-(U11-BISEN)*%
X78662500Y-77825000D03*
%TO.P,U11,7,BOUT1*%
%TO.N,/Motor2_A_OUT*%
X78662500Y-78475000D03*
%TO.P,U11,8,~{FAULT}*%
%TO.N,unconnected-(U11-~{FAULT}-Pad8)*%
X78662500Y-79125000D03*
%TO.P,U11,9,BIN1*%
%TO.N,/MOTOR2_CTRL1*%
X84387500Y-79125000D03*
%TO.P,U11,10,BIN2*%
%TO.N,/MOTOR2_CTRL2*%
X84387500Y-78475000D03*
%TO.P,U11,11,VCP*%
%TO.N,Net-(U11-VCP)*%
X84387500Y-77825000D03*
%TO.P,U11,12,VM*%
%TO.N,Net-(U11-VM)*%
X84387500Y-77175000D03*
%TO.P,U11,13,GND*%
%TO.N,GND*%
X84387500Y-76525000D03*
%TO.P,U11,14,VINT*%
%TO.N,Net-(U11-VINT)*%
X84387500Y-75875000D03*
%TO.P,U11,15,AIN2*%
%TO.N,/MOTOR1_CTRL2*%
X84387500Y-75225000D03*
%TO.P,U11,16,AIN1*%
%TO.N,/MOTOR1_CTRL1*%
X84387500Y-74575000D03*
%TD*%
D17*
%TO.P,U9,1,VDD*%
%TO.N,Net-(U9-VDD)*%
X94542500Y-90065000D03*
%TO.P,U9,2,CFG2*%
%TO.N,unconnected-(U9-CFG2-Pad2)*%
X94542500Y-91065000D03*
%TO.P,U9,3,CFG3*%
%TO.N,unconnected-(U9-CFG3-Pad3)*%
X94542500Y-92065000D03*
%TO.P,U9,4,DP*%
%TO.N,Net-(J3-DP1)*%
X94542500Y-93065000D03*
%TO.P,U9,5,DM*%
%TO.N,Net-(J3-DN1)*%
X94542500Y-94065000D03*
%TO.P,U9,6,CC2*%
%TO.N,Net-(J3-CC2)*%
X99817500Y-94065000D03*
%TO.P,U9,7,CC1*%
%TO.N,Net-(J3-CC1)*%
X99817500Y-93065000D03*
%TO.P,U9,8,VBUS*%
%TO.N,Net-(U9-VBUS)*%
X99817500Y-92065000D03*
%TO.P,U9,9,CFG1*%
%TO.N,Net-(U9-CFG1)*%
X99817500Y-91065000D03*
%TO.P,U9,10,PG*%
%TO.N,unconnected-(U9-PG-Pad10)*%
X99817500Y-90065000D03*
D18*
%TO.P,U9,11,GND*%
%TO.N,GND*%
X97180000Y-92065000D03*
%TD*%
D19*
%TO.P,U6,1,BOOT*%
%TO.N,Net-(U6-BOOT)*%
X88500000Y-109550000D03*
%TO.P,U6,2,NC*%
%TO.N,unconnected-(U6-NC-Pad2)*%
X88500000Y-110820000D03*
%TO.P,U6,3,NC*%
%TO.N,unconnected-(U6-NC-Pad3)*%
X88500000Y-112090000D03*
%TO.P,U6,4,VSENSE*%
%TO.N,Net-(U6-VSENSE)*%
X88500000Y-113360000D03*
%TO.P,U6,5,EN*%
%TO.N,unconnected-(U6-EN-Pad5)*%
X93900000Y-113360000D03*
%TO.P,U6,6,GND*%
%TO.N,GND*%
X93900000Y-112090000D03*
%TO.P,U6,7,VIN*%
%TO.N,/Vcc*%
X93900000Y-110820000D03*
%TO.P,U6,8,PH*%
%TO.N,Net-(D1-K)*%
X93900000Y-109550000D03*
D20*
%TO.P,U6,9,GNDPAD*%
%TO.N,GND*%
X90600000Y-109655000D03*
X90600000Y-110855000D03*
X90600000Y-112155000D03*
X90600000Y-113255000D03*
D21*
X91200000Y-111455000D03*
D22*
X91200000Y-111455000D03*
D20*
X91800000Y-109655000D03*
X91800000Y-110855000D03*
X91800000Y-112155000D03*
X91800000Y-113255000D03*
%TD*%
D10*
%TO.P,U1,1,A1*%
%TO.N,/V_Battery+*%
X74575000Y-90065000D03*
%TO.P,U1,2,A0*%
%TO.N,/V_Battery-*%
X74575000Y-91335000D03*
%TO.P,U1,3,SDA*%
%TO.N,/SDA_INA219*%
X74575000Y-92605000D03*
%TO.P,U1,4,SCL*%
%TO.N,/SCLK_INA219*%
X74575000Y-93875000D03*
%TO.P,U1,5,VS*%
%TO.N,/V_Battery+*%
X79525000Y-93875000D03*
%TO.P,U1,6,GND*%
%TO.N,GND*%
X79525000Y-92605000D03*
%TO.P,U1,7,IN-*%
%TO.N,Net-(SW1-B)*%
X79525000Y-91335000D03*
%TO.P,U1,8,IN+*%
%TO.N,/V_Battery+*%
X79525000Y-90065000D03*
%TD*%
D23*
%TO.P,R34,1*%
%TO.N,Net-(R33-Pad2)*%
X73687500Y-84850000D03*
%TO.P,R34,2*%
%TO.N,GND*%
X75512500Y-84850000D03*
%TD*%
%TO.P,R33,1*%
%TO.N,Net-(Q2-S)*%
X73687500Y-82340000D03*
%TO.P,R33,2*%
%TO.N,Net-(R33-Pad2)*%
X75512500Y-82340000D03*
%TD*%
%TO.P,R32,1*%
%TO.N,Net-(U12-AISEN)*%
X73687500Y-79830000D03*
%TO.P,R32,2*%
%TO.N,GND*%
X75512500Y-79830000D03*
%TD*%
%TO.P,R31,1*%
%TO.N,Net-(U12-AISEN)*%
X73687500Y-77320000D03*
%TO.P,R31,2*%
%TO.N,GND*%
X75512500Y-77320000D03*
%TD*%
%TO.P,R30,1*%
%TO.N,Net-(U12-BISEN)*%
X73687500Y-74810000D03*
%TO.P,R30,2*%
%TO.N,GND*%
X75512500Y-74810000D03*
%TD*%
%TO.P,R29,1*%
%TO.N,Net-(U12-BISEN)*%
X69337500Y-87360000D03*
%TO.P,R29,2*%
%TO.N,GND*%
X71162500Y-87360000D03*
%TD*%
D24*
%TO.P,R28,1*%
%TO.N,Net-(R27-Pad2)*%
X69450000Y-110740000D03*
%TO.P,R28,2*%
%TO.N,GND*%
X71450000Y-110740000D03*
%TD*%
%TO.P,R27,1*%
%TO.N,Net-(Q2-D)*%
X69450000Y-107790000D03*
%TO.P,R27,2*%
%TO.N,Net-(R27-Pad2)*%
X71450000Y-107790000D03*
%TD*%
D23*
%TO.P,R26,1*%
%TO.N,Net-(U11-BISEN)*%
X69337500Y-84850000D03*
%TO.P,R26,2*%
%TO.N,GND*%
X71162500Y-84850000D03*
%TD*%
%TO.P,R25,1*%
%TO.N,Net-(U11-AISEN)*%
X69337500Y-82340000D03*
%TO.P,R25,2*%
%TO.N,GND*%
X71162500Y-82340000D03*
%TD*%
D25*
%TO.P,R21,1*%
%TO.N,Net-(U7-SW_4)*%
X96900000Y-113000000D03*
%TO.P,R21,2*%
%TO.N,Net-(R21-Pad2)*%
X100000000Y-113000000D03*
%TD*%
D23*
%TO.P,R19,1*%
%TO.N,GND*%
X69337500Y-79830000D03*
%TO.P,R19,2*%
%TO.N,Net-(U15-TEMP)*%
X71162500Y-79830000D03*
%TD*%
%TO.P,R18,1*%
%TO.N,Net-(U9-VBUS)*%
X69337500Y-77320000D03*
%TO.P,R18,2*%
%TO.N,/HV*%
X71162500Y-77320000D03*
%TD*%
D24*
%TO.P,R16,1*%
%TO.N,GND*%
X69450000Y-104840000D03*
%TO.P,R16,2*%
%TO.N,Net-(U9-CFG1)*%
X71450000Y-104840000D03*
%TD*%
D26*
%TO.P,R15,1*%
%TO.N,/HV*%
X86922500Y-85290000D03*
%TO.P,R15,2*%
%TO.N,Net-(U9-VDD)*%
X88117500Y-85290000D03*
%TD*%
D24*
%TO.P,R8,1*%
%TO.N,/FB*%
X69450000Y-101890000D03*
%TO.P,R8,2*%
%TO.N,/5V Out*%
X71450000Y-101890000D03*
%TD*%
%TO.P,R7,1*%
%TO.N,GND*%
X69450000Y-98940000D03*
%TO.P,R7,2*%
%TO.N,/FB*%
X71450000Y-98940000D03*
%TD*%
D27*
%TO.P,R6,1*%
%TO.N,Net-(C19-Pad1)*%
X82567500Y-114720000D03*
%TO.P,R6,2*%
%TO.N,Net-(U7-COMP)*%
X84392500Y-114720000D03*
%TD*%
D25*
%TO.P,R5,1*%
%TO.N,GND*%
X96900000Y-109710000D03*
%TO.P,R5,2*%
%TO.N,Net-(U7-ILIM)*%
X100000000Y-109710000D03*
%TD*%
D24*
%TO.P,R4,1*%
%TO.N,Net-(U7-FSW)*%
X69450000Y-95990000D03*
%TO.P,R4,2*%
%TO.N,Net-(R21-Pad2)*%
X71450000Y-95990000D03*
%TD*%
%TO.P,R3,1*%
%TO.N,GND*%
X69450000Y-93040000D03*
%TO.P,R3,2*%
%TO.N,Net-(U6-VSENSE)*%
X71450000Y-93040000D03*
%TD*%
%TO.P,R2,1*%
%TO.N,Net-(U6-VSENSE)*%
X69450000Y-90090000D03*
%TO.P,R2,2*%
%TO.N,/3V3 Out*%
X71450000Y-90090000D03*
%TD*%
D28*
%TO.P,R1,1*%
%TO.N,Net-(SW1-B)*%
X87277500Y-81850000D03*
%TO.P,R1,2*%
%TO.N,/V_Battery+*%
X93202500Y-81850000D03*
%TD*%
D29*
%TO.P,Q2,1,G*%
%TO.N,/FAST_CHARGE_CTRL*%
X96952500Y-75005000D03*
%TO.P,Q2,2,S*%
%TO.N,Net-(Q2-S)*%
X96952500Y-76905000D03*
%TO.P,Q2,3,D*%
%TO.N,Net-(Q2-D)*%
X98827500Y-75955000D03*
%TD*%
D30*
%TO.P,L2,1,1*%
%TO.N,/Vcc*%
X96110000Y-82325000D03*
%TO.P,L2,2,2*%
%TO.N,Net-(U7-SW_4)*%
X99810000Y-82325000D03*
%TD*%
D31*
%TO.P,L1,1,1*%
%TO.N,Net-(D1-K)*%
X89950000Y-105040000D03*
D32*
%TO.P,L1,2,2*%
%TO.N,/3V3 Out*%
X95030000Y-105040000D03*
%TD*%
D33*
%TO.P,J2,1,Pin_1*%
%TO.N,/V_Battery+*%
X89420000Y-76180000D03*
D34*
%TO.P,J2,2,Pin_2*%
%TO.N,/V_Battery-*%
X91920000Y-76180000D03*
%TD*%
D35*
%TO.P,J1,1,Pin_1*%
%TO.N,/Motor2_B_OUT*%
X65790000Y-75880000D03*
D36*
%TO.P,J1,2,Pin_2*%
%TO.N,/Motor2_A_OUT*%
X63250000Y-75880000D03*
%TO.P,J1,3,Pin_3*%
%TO.N,/Motor4_A_OUT*%
X65790000Y-78420000D03*
%TO.P,J1,4,Pin_4*%
%TO.N,/MOTOR2_CTRL1*%
X63250000Y-78420000D03*
%TO.P,J1,5,Pin_5*%
%TO.N,/Motor4_B_OUT*%
X65790000Y-80960000D03*
%TO.P,J1,6,Pin_6*%
%TO.N,/MOTOR2_CTRL2*%
X63250000Y-80960000D03*
%TO.P,J1,7,Pin_7*%
%TO.N,/CTRL_EXT_LOAD2*%
X65790000Y-83500000D03*
%TO.P,J1,8,Pin_8*%
%TO.N,/MOTOR4_CTRL1*%
X63250000Y-83500000D03*
%TO.P,J1,9,Pin_9*%
%TO.N,unconnected-(J1-Pin_9-Pad9)*%
X65790000Y-86040000D03*
%TO.P,J1,10,Pin_10*%
%TO.N,/MOTOR4_CTRL2*%
X63250000Y-86040000D03*
%TO.P,J1,11,Pin_11*%
%TO.N,/EXT_LOAD2_OUT*%
X65790000Y-88580000D03*
%TO.P,J1,12,Pin_12*%
%TO.N,unconnected-(J1-Pin_12-Pad12)*%
X63250000Y-88580000D03*
%TO.P,J1,13,Pin_13*%
%TO.N,/FAST_CHARGE_CTRL*%
X65790000Y-91120000D03*
%TO.P,J1,14,Pin_14*%
%TO.N,/V_Battery+*%
X63250000Y-91120000D03*
%TO.P,J1,15,Pin_15*%
%TO.N,unconnected-(J1-Pin_15-Pad15)*%
X65790000Y-93660000D03*
%TO.P,J1,16,Pin_16*%
%TO.N,/SCLK_INA219*%
X63250000Y-93660000D03*
%TO.P,J1,17,Pin_17*%
%TO.N,/SDA_INA219*%
X65790000Y-96200000D03*
%TO.P,J1,18,Pin_18*%
%TO.N,/3V3 Out*%
X63250000Y-96200000D03*
%TO.P,J1,19,Pin_19*%
%TO.N,GND*%
X65790000Y-98740000D03*
%TO.P,J1,20,Pin_20*%
%TO.N,/5V Out*%
X63250000Y-98740000D03*
%TO.P,J1,21,Pin_21*%
%TO.N,/EXT_LOAD1_OUT*%
X65790000Y-101280000D03*
%TO.P,J1,22,Pin_22*%
%TO.N,/HV*%
X63250000Y-101280000D03*
%TO.P,J1,23,Pin_23*%
%TO.N,GND*%
X65790000Y-103820000D03*
%TO.P,J1,24,Pin_24*%
%TO.N,/MOTOR3_CTRL1*%
X63250000Y-103820000D03*
%TO.P,J1,25,Pin_25*%
%TO.N,/CTRL_EXT_LOAD1*%
X65790000Y-106360000D03*
%TO.P,J1,26,Pin_26*%
%TO.N,/MOTOR3_CTRL2*%
X63250000Y-106360000D03*
%TO.P,J1,27,Pin_27*%
%TO.N,/MOTOR3_A_OUT*%
X65790000Y-108900000D03*
%TO.P,J1,28,Pin_28*%
%TO.N,/MOTOR1_CTRL1*%
X63250000Y-108900000D03*
%TO.P,J1,29,Pin_29*%
%TO.N,/MOTOR3_B_OUT*%
X65790000Y-111440000D03*
%TO.P,J1,30,Pin_30*%
%TO.N,/MOTOR1_CTRL2*%
X63250000Y-111440000D03*
%TO.P,J1,31,Pin_31*%
%TO.N,/MOTOR1_B_OUT*%
X65790000Y-113980000D03*
%TO.P,J1,32,Pin_32*%
%TO.N,/MOTOR1_A_OUT*%
X63250000Y-113980000D03*
%TD*%
D37*
%TO.P,D1,1,K*%
%TO.N,Net-(D1-K)*%
X95685000Y-86845000D03*
%TO.P,D1,2,A*%
%TO.N,GND*%
X99285000Y-86845000D03*
%TD*%
D38*
%TO.P,C41,1*%
%TO.N,/3V3 Out*%
X77402500Y-113820000D03*
%TO.P,C41,2*%
%TO.N,GND*%
X79477500Y-113820000D03*
%TD*%
D39*
%TO.P,C37,1*%
%TO.N,Net-(U13-SS2)*%
X77265000Y-108050000D03*
%TO.P,C37,2*%
%TO.N,GND*%
X78815000Y-108050000D03*
%TD*%
%TO.P,C36,1*%
%TO.N,Net-(U13-SS1)*%
X77265000Y-105540000D03*
%TO.P,C36,2*%
%TO.N,GND*%
X78815000Y-105540000D03*
%TD*%
D40*
%TO.P,C35,1*%
%TO.N,GND*%
X73862500Y-114580000D03*
%TO.P,C35,2*%
%TO.N,/EXT_LOAD2_OUT*%
X74997500Y-114580000D03*
%TD*%
%TO.P,C34,1*%
%TO.N,/EXT_LOAD1_OUT*%
X73862500Y-112610000D03*
%TO.P,C34,2*%
%TO.N,GND*%
X74997500Y-112610000D03*
%TD*%
%TO.P,C33,1*%
%TO.N,GND*%
X73862500Y-110640000D03*
%TO.P,C33,2*%
%TO.N,/5V Out*%
X74997500Y-110640000D03*
%TD*%
%TO.P,C32,1*%
%TO.N,/5V Out*%
X73862500Y-108670000D03*
%TO.P,C32,2*%
%TO.N,GND*%
X74997500Y-108670000D03*
%TD*%
D41*
%TO.P,C31,1*%
%TO.N,GND*%
X82230000Y-112260000D03*
%TO.P,C31,2*%
%TO.N,Net-(U12-VINT)*%
X83190000Y-112260000D03*
%TD*%
%TO.P,C30,1*%
%TO.N,Net-(U12-VM)*%
X82230000Y-110290000D03*
%TO.P,C30,2*%
%TO.N,Net-(U12-VCP)*%
X83190000Y-110290000D03*
%TD*%
%TO.P,C29,1*%
%TO.N,GND*%
X82230000Y-108320000D03*
%TO.P,C29,2*%
%TO.N,Net-(U11-VINT)*%
X83190000Y-108320000D03*
%TD*%
%TO.P,C28,1*%
%TO.N,Net-(U11-VM)*%
X82230000Y-106350000D03*
%TO.P,C28,2*%
%TO.N,Net-(U11-VCP)*%
X83190000Y-106350000D03*
%TD*%
D42*
%TO.P,C27,1*%
%TO.N,/V_Battery+*%
X82625000Y-103690000D03*
%TO.P,C27,2*%
%TO.N,GND*%
X85575000Y-103690000D03*
%TD*%
%TO.P,C26,1*%
%TO.N,/V_Battery+*%
X82625000Y-100340000D03*
%TO.P,C26,2*%
%TO.N,Net-(U12-VM)*%
X85575000Y-100340000D03*
%TD*%
%TO.P,C25,1*%
%TO.N,/V_Battery+*%
X82625000Y-96990000D03*
%TO.P,C25,2*%
%TO.N,Net-(U11-VM)*%
X85575000Y-96990000D03*
%TD*%
D40*
%TO.P,C24,1*%
%TO.N,Net-(U9-VDD)*%
X73862500Y-106700000D03*
%TO.P,C24,2*%
%TO.N,GND*%
X74997500Y-106700000D03*
%TD*%
D43*
%TO.P,C23,1*%
%TO.N,/3V3 Out*%
X88367500Y-100340000D03*
%TO.P,C23,2*%
%TO.N,GND*%
X91492500Y-100340000D03*
%TD*%
%TO.P,C22,1*%
%TO.N,/5V Out*%
X88367500Y-96990000D03*
%TO.P,C22,2*%
%TO.N,GND*%
X91492500Y-96990000D03*
%TD*%
%TO.P,C21,1*%
%TO.N,/5V Out*%
X88367500Y-93640000D03*
%TO.P,C21,2*%
%TO.N,GND*%
X91492500Y-93640000D03*
%TD*%
D42*
%TO.P,C20,1*%
%TO.N,/5V Out*%
X82625000Y-93640000D03*
%TO.P,C20,2*%
%TO.N,GND*%
X85575000Y-93640000D03*
%TD*%
D39*
%TO.P,C19,1*%
%TO.N,Net-(C19-Pad1)*%
X77265000Y-103030000D03*
%TO.P,C19,2*%
%TO.N,GND*%
X78815000Y-103030000D03*
%TD*%
D44*
%TO.P,C18,1*%
%TO.N,Net-(U7-SS)*%
X69387500Y-74810000D03*
%TO.P,C18,2*%
%TO.N,GND*%
X71112500Y-74810000D03*
%TD*%
D40*
%TO.P,C17,1*%
%TO.N,Net-(U7-BOOT)*%
X73862500Y-104730000D03*
%TO.P,C17,2*%
%TO.N,Net-(U7-SW_4)*%
X74997500Y-104730000D03*
%TD*%
%TO.P,C16,1*%
%TO.N,GND*%
X73862500Y-102760000D03*
%TO.P,C16,2*%
%TO.N,/Vcc*%
X74997500Y-102760000D03*
%TD*%
D42*
%TO.P,C15,1*%
%TO.N,/Vcc*%
X82625000Y-90290000D03*
%TO.P,C15,2*%
%TO.N,GND*%
X85575000Y-90290000D03*
%TD*%
D38*
%TO.P,C14,1*%
%TO.N,Net-(D1-K)*%
X77402500Y-110810000D03*
%TO.P,C14,2*%
%TO.N,Net-(U6-BOOT)*%
X79477500Y-110810000D03*
%TD*%
D43*
%TO.P,C1,1*%
%TO.N,/3V3 Out*%
X88367500Y-90290000D03*
%TO.P,C1,2*%
%TO.N,GND*%
X91492500Y-90290000D03*
%TD*%
M02*
