%TF.GenerationSoftware,KiCad,Pcbnew,9.0.0*%
%TF.CreationDate,2025-03-27T23:40:49+02:00*%
%TF.ProjectId,EEE3088F Micromouse Design,45454533-3038-4384-9620-4d6963726f6d,rev?*%
%TF.SameCoordinates,Original*%
%TF.FileFunction,Copper,L1,Top*%
%TF.FilePolarity,Positive*%
%FSLAX46Y46*%
G04 Gerber Fmt 4.6, Leading zero omitted, Abs format (unit mm)*
G04 Created by KiCad (PCBNEW 9.0.0) date 2025-03-27 23:40:49*
%MOMM*%
%LPD*%
G01*
G04 APERTURE LIST*
G04 Aperture macros list*
%AMRoundRect*
0 Rectangle with rounded corners*
0 $1 Rounding radius*
0 $2 $3 $4 $5 $6 $7 $8 $9 X,Y pos of 4 corners*
0 Add a 4 corners polygon primitive as box body*
4,1,4,$2,$3,$4,$5,$6,$7,$8,$9,$2,$3,0*
0 Add four circle primitives for the rounded corners*
1,1,$1+$1,$2,$3*
1,1,$1+$1,$4,$5*
1,1,$1+$1,$6,$7*
1,1,$1+$1,$8,$9*
0 Add four rect primitives between the rounded corners*
20,1,$1+$1,$2,$3,$4,$5,0*
20,1,$1+$1,$4,$5,$6,$7,0*
20,1,$1+$1,$6,$7,$8,$9,0*
20,1,$1+$1,$8,$9,$2,$3,0*%
%AMFreePoly0*
4,1,37,0.478536,1.278536,0.480000,1.275000,0.480000,-1.275000,0.478536,-1.278536,0.475000,-1.280000,-0.475000,-1.280000,-0.478536,-1.278536,-0.480000,-1.275000,-0.480000,1.100000,-0.478536,1.103536,-0.475000,1.105000,-0.466273,1.105000,-0.448826,1.106938,-0.431331,1.110826,-0.413692,1.116706,-0.405996,1.119592,-0.398236,1.123472,-0.398031,1.123569,-0.389494,1.127363,-0.382906,1.132069,
-0.382650,1.132240,-0.374967,1.137041,-0.361254,1.148796,-0.354545,1.154545,-0.342796,1.168254,-0.337041,1.174967,-0.327365,1.190450,-0.319592,1.205996,-0.316706,1.213692,-0.310826,1.231331,-0.306938,1.248826,-0.305000,1.266273,-0.305000,1.275000,-0.303536,1.278536,-0.300000,1.280000,0.475000,1.280000,0.478536,1.278536,0.478536,1.278536,$1*%
G04 Aperture macros list end*
%TA.AperFunction,SMDPad,CuDef*%
%ADD10R,1.500000X2.200000*%
%TD*%
%TA.AperFunction,SMDPad,CuDef*%
%ADD11RoundRect,0.150000X-0.825000X-0.150000X0.825000X-0.150000X0.825000X0.150000X-0.825000X0.150000X0*%
%TD*%
%TA.AperFunction,HeatsinkPad*%
%ADD12C,0.500000*%
%TD*%
%TA.AperFunction,HeatsinkPad*%
%ADD13R,2.410000X3.300000*%
%TD*%
%TA.AperFunction,SMDPad,CuDef*%
%ADD14R,0.500000X0.650000*%
%TD*%
%TA.AperFunction,SMDPad,CuDef*%
%ADD15R,0.500000X0.250000*%
%TD*%
%TA.AperFunction,SMDPad,CuDef*%
%ADD16FreePoly0,0.000000*%
%TD*%
%TA.AperFunction,SMDPad,CuDef*%
%ADD17RoundRect,0.100000X-0.637500X-0.100000X0.637500X-0.100000X0.637500X0.100000X-0.637500X0.100000X0*%
%TD*%
%TA.AperFunction,SMDPad,CuDef*%
%ADD18RoundRect,0.150000X-0.687500X-0.150000X0.687500X-0.150000X0.687500X0.150000X-0.687500X0.150000X0*%
%TD*%
%TA.AperFunction,HeatsinkPad*%
%ADD19R,2.100000X3.300000*%
%TD*%
%TA.AperFunction,SMDPad,CuDef*%
%ADD20C,2.000000*%
%TD*%
%TA.AperFunction,SMDPad,CuDef*%
%ADD21RoundRect,0.250000X-0.400000X-0.625000X0.400000X-0.625000X0.400000X0.625000X-0.400000X0.625000X0*%
%TD*%
%TA.AperFunction,SMDPad,CuDef*%
%ADD22RoundRect,0.237500X-0.250000X-0.237500X0.250000X-0.237500X0.250000X0.237500X-0.250000X0.237500X0*%
%TD*%
%TA.AperFunction,SMDPad,CuDef*%
%ADD23RoundRect,0.250000X-0.350000X-0.450000X0.350000X-0.450000X0.350000X0.450000X-0.350000X0.450000X0*%
%TD*%
%TA.AperFunction,SMDPad,CuDef*%
%ADD24RoundRect,0.160000X-0.197500X-0.160000X0.197500X-0.160000X0.197500X0.160000X-0.197500X0.160000X0*%
%TD*%
%TA.AperFunction,SMDPad,CuDef*%
%ADD25RoundRect,0.250000X-0.262500X-0.450000X0.262500X-0.450000X0.262500X0.450000X-0.262500X0.450000X0*%
%TD*%
%TA.AperFunction,SMDPad,CuDef*%
%ADD26RoundRect,0.150000X-0.587500X-0.150000X0.587500X-0.150000X0.587500X0.150000X-0.587500X0.150000X0*%
%TD*%
%TA.AperFunction,SMDPad,CuDef*%
%ADD27RoundRect,0.250001X-0.499999X-0.999999X0.499999X-0.999999X0.499999X0.999999X-0.499999X0.999999X0*%
%TD*%
%TA.AperFunction,SMDPad,CuDef*%
%ADD28R,0.600000X1.140000*%
%TD*%
%TA.AperFunction,SMDPad,CuDef*%
%ADD29R,0.300000X1.140000*%
%TD*%
%TA.AperFunction,ComponentPad*%
%ADD30O,0.900000X2.000000*%
%TD*%
%TA.AperFunction,ComponentPad*%
%ADD31O,0.900000X1.700000*%
%TD*%
%TA.AperFunction,SMDPad,CuDef*%
%ADD32RoundRect,0.250000X-1.000000X-0.650000X1.000000X-0.650000X1.000000X0.650000X-1.000000X0.650000X0*%
%TD*%
%TA.AperFunction,SMDPad,CuDef*%
%ADD33RoundRect,0.155000X-0.212500X-0.155000X0.212500X-0.155000X0.212500X0.155000X-0.212500X0.155000X0*%
%TD*%
%TA.AperFunction,SMDPad,CuDef*%
%ADD34RoundRect,0.250000X-0.412500X-0.925000X0.412500X-0.925000X0.412500X0.925000X-0.412500X0.925000X0*%
%TD*%
%TA.AperFunction,SMDPad,CuDef*%
%ADD35RoundRect,0.250000X-0.412500X-0.650000X0.412500X-0.650000X0.412500X0.650000X-0.412500X0.650000X0*%
%TD*%
%TA.AperFunction,SMDPad,CuDef*%
%ADD36RoundRect,0.250000X-0.337500X-0.475000X0.337500X-0.475000X0.337500X0.475000X-0.337500X0.475000X0*%
%TD*%
%TA.AperFunction,SMDPad,CuDef*%
%ADD37RoundRect,0.225000X-0.225000X-0.250000X0.225000X-0.250000X0.225000X0.250000X-0.225000X0.250000X0*%
%TD*%
%TA.AperFunction,SMDPad,CuDef*%
%ADD38RoundRect,0.237500X-0.300000X-0.237500X0.300000X-0.237500X0.300000X0.237500X-0.300000X0.237500X0*%
%TD*%
%TA.AperFunction,ComponentPad*%
%ADD39O,1.700000X1.700000*%
%TD*%
%TA.AperFunction,ComponentPad*%
%ADD40R,1.700000X1.700000*%
%TD*%
%TA.AperFunction,ComponentPad*%
%ADD41O,1.750000X1.200000*%
%TD*%
%TA.AperFunction,ComponentPad*%
%ADD42RoundRect,0.250000X0.625000X-0.350000X0.625000X0.350000X-0.625000X0.350000X-0.625000X-0.350000X0*%
%TD*%
G04 APERTURE END LIST*
D10*
%TO.P,L6,1,1*%
%TO.N,Net-(D4-K)*%
X89430000Y-78150000D03*
%TO.P,L6,2,2*%
%TO.N,/3.3V Out*%
X95830000Y-78150000D03*
%TD*%
D11*
%TO.P,U15,1,TEMP*%
%TO.N,Net-(U15-TEMP)*%
X99137500Y-122810000D03*
%TO.P,U15,2,PROG*%
%TO.N,Net-(Q2-D)*%
X99137500Y-124080000D03*
%TO.P,U15,3,GND*%
%TO.N,GND*%
X99137500Y-125350000D03*
%TO.P,U15,4,V_{CC}*%
%TO.N,/Stepped Down 5V*%
X99137500Y-126620000D03*
%TO.P,U15,5,BAT*%
%TO.N,/V_Battery+*%
X104087500Y-126620000D03*
%TO.P,U15,6,~{STDBY}*%
%TO.N,unconnected-(U15-~{STDBY}-Pad6)*%
X104087500Y-125350000D03*
%TO.P,U15,7,~{CHRG}*%
%TO.N,unconnected-(U15-~{CHRG}-Pad7)*%
X104087500Y-124080000D03*
%TO.P,U15,8,CE*%
%TO.N,/Stepped Down 5V*%
X104087500Y-122810000D03*
D12*
%TO.P,U15,9,EPAD*%
%TO.N,GND*%
X100912500Y-123515000D03*
X100912500Y-124715000D03*
X100912500Y-125915000D03*
D13*
X101612500Y-124715000D03*
D12*
X102312500Y-123515000D03*
X102312500Y-124715000D03*
X102312500Y-125915000D03*
%TD*%
D11*
%TO.P,U14,1,VIN*%
%TO.N,/HV*%
X99137500Y-116230000D03*
%TO.P,U14,2,OUT*%
%TO.N,Net-(D3-K)*%
X99137500Y-117500000D03*
%TO.P,U14,3,FB*%
%TO.N,/Stepped Down 5V*%
X99137500Y-118770000D03*
%TO.P,U14,4,~{EN}*%
%TO.N,GND*%
X99137500Y-120040000D03*
%TO.P,U14,5,GND*%
X104087500Y-120040000D03*
%TO.P,U14,6,GND*%
X104087500Y-118770000D03*
%TO.P,U14,7,GND*%
X104087500Y-117500000D03*
%TO.P,U14,8,GND*%
X104087500Y-116230000D03*
%TD*%
D14*
%TO.P,U13,1_2,VIN1*%
%TO.N,/5V Out*%
X113447500Y-129165000D03*
D15*
%TO.P,U13,3,EN1*%
%TO.N,/CTRL_EXT_LOAD1*%
X113447500Y-129765000D03*
%TO.P,U13,4,VBIAS*%
%TO.N,/5V Out*%
X113447500Y-130165000D03*
%TO.P,U13,5,EN2*%
%TO.N,/CTRL_EXT_LOAD2*%
X113447500Y-130565000D03*
D14*
%TO.P,U13,6_7,VIN2*%
%TO.N,/5V Out*%
X113447500Y-131165000D03*
%TO.P,U13,13_14,VOUT1*%
%TO.N,/EXT_LOAD1_OUT*%
X115147500Y-129165000D03*
D15*
%TO.P,U13,12,SS1*%
%TO.N,Net-(U13-SS1)*%
X115147500Y-129765000D03*
%TO.P,U13,11,GND*%
%TO.N,GND*%
X115147500Y-130165000D03*
%TO.P,U13,10,SS2*%
%TO.N,Net-(U13-SS2)*%
X115147500Y-130565000D03*
D14*
%TO.P,U13,8_9,VOUT2*%
%TO.N,/EXT_LOAD2_OUT*%
X115147500Y-131165000D03*
D16*
%TO.P,U13,15,EXP*%
%TO.N,GND*%
X114297500Y-130165000D03*
%TD*%
D17*
%TO.P,U12,1,~{SLEEP}*%
%TO.N,unconnected-(U12-~{SLEEP}-Pad1)*%
X117255000Y-91830000D03*
%TO.P,U12,2,AOUT1*%
%TO.N,/MOTOR3_A_OUT*%
X117255000Y-92480000D03*
%TO.P,U12,3,AISEN*%
%TO.N,Net-(U12-AISEN)*%
X117255000Y-93130000D03*
%TO.P,U12,4,AOUT2*%
%TO.N,/MOTOR3_B_OUT*%
X117255000Y-93780000D03*
%TO.P,U12,5,BOUT2*%
%TO.N,/Motor4_B_OUT*%
X117255000Y-94430000D03*
%TO.P,U12,6,BISEN*%
%TO.N,Net-(U12-BISEN)*%
X117255000Y-95080000D03*
%TO.P,U12,7,BOUT1*%
%TO.N,/Motor4_A_OUT*%
X117255000Y-95730000D03*
%TO.P,U12,8,~{FAULT}*%
%TO.N,unconnected-(U12-~{FAULT}-Pad8)*%
X117255000Y-96380000D03*
%TO.P,U12,9,BIN1*%
%TO.N,/MOTOR4_CTRL1*%
X122980000Y-96380000D03*
%TO.P,U12,10,BIN2*%
%TO.N,/MOTOR4_CTRL2*%
X122980000Y-95730000D03*
%TO.P,U12,11,VCP*%
%TO.N,Net-(U12-VCP)*%
X122980000Y-95080000D03*
%TO.P,U12,12,VM*%
%TO.N,/V_Battery+*%
X122980000Y-94430000D03*
%TO.P,U12,13,GND*%
%TO.N,GND*%
X122980000Y-93780000D03*
%TO.P,U12,14,VINT*%
%TO.N,Net-(U12-VINT)*%
X122980000Y-93130000D03*
%TO.P,U12,15,AIN2*%
%TO.N,/MOTOR3_CTRL2*%
X122980000Y-92480000D03*
%TO.P,U12,16,AIN1*%
%TO.N,/MOTOR3_CTRL1*%
X122980000Y-91830000D03*
%TD*%
%TO.P,U11,1,~{SLEEP}*%
%TO.N,unconnected-(U11-~{SLEEP}-Pad1)*%
X117255000Y-85240000D03*
%TO.P,U11,2,AOUT1*%
%TO.N,/MOTOR1_A_OUT*%
X117255000Y-85890000D03*
%TO.P,U11,3,AISEN*%
%TO.N,Net-(U11-AISEN)*%
X117255000Y-86540000D03*
%TO.P,U11,4,AOUT2*%
%TO.N,/MOTOR1_B_OUT*%
X117255000Y-87190000D03*
%TO.P,U11,5,BOUT2*%
%TO.N,/Motor2_B_OUT*%
X117255000Y-87840000D03*
%TO.P,U11,6,BISEN*%
%TO.N,Net-(U11-BISEN)*%
X117255000Y-88490000D03*
%TO.P,U11,7,BOUT1*%
%TO.N,/Motor2_A_OUT*%
X117255000Y-89140000D03*
%TO.P,U11,8,~{FAULT}*%
%TO.N,unconnected-(U11-~{FAULT}-Pad8)*%
X117255000Y-89790000D03*
%TO.P,U11,9,BIN1*%
%TO.N,/MOTOR2_CTRL1*%
X122980000Y-89790000D03*
%TO.P,U11,10,BIN2*%
%TO.N,/MOTOR2_CTRL2*%
X122980000Y-89140000D03*
%TO.P,U11,11,VCP*%
%TO.N,Net-(U11-VCP)*%
X122980000Y-88490000D03*
%TO.P,U11,12,VM*%
%TO.N,/V_Battery+*%
X122980000Y-87840000D03*
%TO.P,U11,13,GND*%
%TO.N,GND*%
X122980000Y-87190000D03*
%TO.P,U11,14,VINT*%
%TO.N,Net-(U11-VINT)*%
X122980000Y-86540000D03*
%TO.P,U11,15,AIN2*%
%TO.N,/MOTOR1_CTRL2*%
X122980000Y-85890000D03*
%TO.P,U11,16,AIN1*%
%TO.N,/MOTOR1_CTRL1*%
X122980000Y-85240000D03*
%TD*%
D18*
%TO.P,U9,1,VDD*%
%TO.N,Net-(U9-VDD)*%
X130845000Y-94770000D03*
%TO.P,U9,2,CFG2*%
%TO.N,unconnected-(U9-CFG2-Pad2)*%
X130845000Y-95770000D03*
%TO.P,U9,3,CFG3*%
%TO.N,unconnected-(U9-CFG3-Pad3)*%
X130845000Y-96770000D03*
%TO.P,U9,4,DP*%
%TO.N,Net-(J3-DP1)*%
X130845000Y-97770000D03*
%TO.P,U9,5,DM*%
%TO.N,Net-(J3-DN1)*%
X130845000Y-98770000D03*
%TO.P,U9,6,CC2*%
%TO.N,Net-(J3-CC2)*%
X136120000Y-98770000D03*
%TO.P,U9,7,CC1*%
%TO.N,Net-(J3-CC1)*%
X136120000Y-97770000D03*
%TO.P,U9,8,VBUS*%
%TO.N,Net-(U9-VBUS)*%
X136120000Y-96770000D03*
%TO.P,U9,9,CFG1*%
%TO.N,Net-(U9-CFG1)*%
X136120000Y-95770000D03*
%TO.P,U9,10,PG*%
%TO.N,unconnected-(U9-PG-Pad10)*%
X136120000Y-94770000D03*
D19*
%TO.P,U9,11,GND*%
%TO.N,GND*%
X133482500Y-96770000D03*
%TD*%
D11*
%TO.P,U2,1,VIN*%
%TO.N,/5V Out*%
X99137500Y-109650000D03*
%TO.P,U2,2,OUT*%
%TO.N,Net-(D4-K)*%
X99137500Y-110920000D03*
%TO.P,U2,3,FB*%
%TO.N,Net-(U2-FB)*%
X99137500Y-112190000D03*
%TO.P,U2,4,~{EN}*%
%TO.N,GND*%
X99137500Y-113460000D03*
%TO.P,U2,5,GND*%
X104087500Y-113460000D03*
%TO.P,U2,6,GND*%
X104087500Y-112190000D03*
%TO.P,U2,7,GND*%
X104087500Y-110920000D03*
%TO.P,U2,8,GND*%
X104087500Y-109650000D03*
%TD*%
%TO.P,U1,1,A1*%
%TO.N,Net-(U1-A1)*%
X99137500Y-103070000D03*
%TO.P,U1,2,A0*%
%TO.N,GND*%
X99137500Y-104340000D03*
%TO.P,U1,3,SDA*%
%TO.N,Net-(U1-SDA)*%
X99137500Y-105610000D03*
%TO.P,U1,4,SCL*%
%TO.N,Net-(U1-SCL)*%
X99137500Y-106880000D03*
%TO.P,U1,5,VS*%
%TO.N,/5V Out*%
X104087500Y-106880000D03*
%TO.P,U1,6,GND*%
%TO.N,GND*%
X104087500Y-105610000D03*
%TO.P,U1,7,IN-*%
%TO.N,Net-(SW1-B)*%
X104087500Y-104340000D03*
%TO.P,U1,8,IN+*%
%TO.N,/V_Battery+*%
X104087500Y-103070000D03*
%TD*%
D20*
%TO.P,TP23,1,1*%
%TO.N,/HV*%
X126022500Y-111745000D03*
%TD*%
%TO.P,TP22,1,1*%
%TO.N,Net-(U7-SW_4)*%
X126022500Y-107695000D03*
%TD*%
%TO.P,TP21,1,1*%
%TO.N,/Vcc*%
X126022500Y-103645000D03*
%TD*%
%TO.P,TP20,1,1*%
%TO.N,Net-(U7-COMP)*%
X121972500Y-115795000D03*
%TD*%
%TO.P,TP17,1,1*%
%TO.N,/5V Out*%
X121972500Y-111745000D03*
%TD*%
%TO.P,TP16,1,1*%
%TO.N,/3.3V Out*%
X121972500Y-107695000D03*
%TD*%
%TO.P,TP14,1,1*%
%TO.N,Net-(Q2-S)*%
X121972500Y-103645000D03*
%TD*%
%TO.P,TP13,1,1*%
%TO.N,GND*%
X117922500Y-115795000D03*
%TD*%
%TO.P,TP12,1,1*%
%TO.N,GND*%
X117922500Y-111745000D03*
%TD*%
%TO.P,TP11,1,1*%
%TO.N,Net-(Q2-D)*%
X117922500Y-107695000D03*
%TD*%
%TO.P,TP10,1,1*%
%TO.N,/Stepped Down 5V*%
X117922500Y-103645000D03*
%TD*%
%TO.P,TP8,1,1*%
%TO.N,Net-(U12-AISEN)*%
X113872500Y-115795000D03*
%TD*%
%TO.P,TP6,1,1*%
%TO.N,Net-(U12-BISEN)*%
X113872500Y-111745000D03*
%TD*%
%TO.P,TP4,1,1*%
%TO.N,Net-(U11-AISEN)*%
X113872500Y-107695000D03*
%TD*%
%TO.P,TP2,1,1*%
%TO.N,Net-(U11-BISEN)*%
X113872500Y-103645000D03*
%TD*%
%TO.P,Testpoint1,1,1*%
%TO.N,/V_Battery+*%
X126022500Y-115795000D03*
%TD*%
D21*
%TO.P,R35,1*%
%TO.N,Net-(U11-AISEN)*%
X89362500Y-128865000D03*
%TO.P,R35,2*%
%TO.N,GND*%
X92462500Y-128865000D03*
%TD*%
D22*
%TO.P,R34,1*%
%TO.N,Net-(R33-Pad2)*%
X137430000Y-126605000D03*
%TO.P,R34,2*%
%TO.N,GND*%
X139255000Y-126605000D03*
%TD*%
%TO.P,R33,1*%
%TO.N,Net-(Q2-S)*%
X137430000Y-124095000D03*
%TO.P,R33,2*%
%TO.N,Net-(R33-Pad2)*%
X139255000Y-124095000D03*
%TD*%
%TO.P,R32,1*%
%TO.N,Net-(U12-AISEN)*%
X137430000Y-121585000D03*
%TO.P,R32,2*%
%TO.N,GND*%
X139255000Y-121585000D03*
%TD*%
%TO.P,R31,1*%
%TO.N,Net-(U12-AISEN)*%
X137430000Y-119075000D03*
%TO.P,R31,2*%
%TO.N,GND*%
X139255000Y-119075000D03*
%TD*%
%TO.P,R30,1*%
%TO.N,Net-(U12-BISEN)*%
X133080000Y-126605000D03*
%TO.P,R30,2*%
%TO.N,GND*%
X134905000Y-126605000D03*
%TD*%
%TO.P,R29,1*%
%TO.N,Net-(U12-BISEN)*%
X133080000Y-124095000D03*
%TO.P,R29,2*%
%TO.N,GND*%
X134905000Y-124095000D03*
%TD*%
D23*
%TO.P,R28,1*%
%TO.N,Net-(R27-Pad2)*%
X125862500Y-97495000D03*
%TO.P,R28,2*%
%TO.N,GND*%
X127862500Y-97495000D03*
%TD*%
D21*
%TO.P,R27,1*%
%TO.N,Net-(Q2-D)*%
X89362500Y-125575000D03*
%TO.P,R27,2*%
%TO.N,Net-(R27-Pad2)*%
X92462500Y-125575000D03*
%TD*%
%TO.P,R26,1*%
%TO.N,Net-(U11-BISEN)*%
X89362500Y-122285000D03*
%TO.P,R26,2*%
%TO.N,GND*%
X92462500Y-122285000D03*
%TD*%
%TO.P,R21,1*%
%TO.N,Net-(U7-SW_4)*%
X89362500Y-118995000D03*
%TO.P,R21,2*%
%TO.N,Net-(R21-Pad2)*%
X92462500Y-118995000D03*
%TD*%
D22*
%TO.P,R19,1*%
%TO.N,GND*%
X133080000Y-121585000D03*
%TO.P,R19,2*%
%TO.N,Net-(U15-TEMP)*%
X134905000Y-121585000D03*
%TD*%
%TO.P,R18,1*%
%TO.N,Net-(U9-VBUS)*%
X133080000Y-119075000D03*
%TO.P,R18,2*%
%TO.N,/HV*%
X134905000Y-119075000D03*
%TD*%
D23*
%TO.P,R16,1*%
%TO.N,GND*%
X125862500Y-94545000D03*
%TO.P,R16,2*%
%TO.N,Net-(U9-CFG1)*%
X127862500Y-94545000D03*
%TD*%
D24*
%TO.P,R15,1*%
%TO.N,/HV*%
X137895000Y-108585000D03*
%TO.P,R15,2*%
%TO.N,Net-(U9-VDD)*%
X139090000Y-108585000D03*
%TD*%
%TO.P,R9,1*%
%TO.N,Net-(U1-SDA)*%
X137895000Y-106595000D03*
%TO.P,R9,2*%
%TO.N,/SDA_INA219*%
X139090000Y-106595000D03*
%TD*%
D23*
%TO.P,R8,1*%
%TO.N,/FB*%
X125862500Y-91595000D03*
%TO.P,R8,2*%
%TO.N,/5V Out*%
X127862500Y-91595000D03*
%TD*%
%TO.P,R7,1*%
%TO.N,GND*%
X125862500Y-88645000D03*
%TO.P,R7,2*%
%TO.N,/FB*%
X127862500Y-88645000D03*
%TD*%
D25*
%TO.P,R6,1*%
%TO.N,Net-(C19-Pad1)*%
X117460000Y-129365000D03*
%TO.P,R6,2*%
%TO.N,Net-(U7-COMP)*%
X119285000Y-129365000D03*
%TD*%
D21*
%TO.P,R5,1*%
%TO.N,GND*%
X89362500Y-115705000D03*
%TO.P,R5,2*%
%TO.N,Net-(U7-ILIM)*%
X92462500Y-115705000D03*
%TD*%
D23*
%TO.P,R4,1*%
%TO.N,Net-(U7-FSW)*%
X125862500Y-85695000D03*
%TO.P,R4,2*%
%TO.N,Net-(R21-Pad2)*%
X127862500Y-85695000D03*
%TD*%
D24*
%TO.P,R3,1*%
%TO.N,Net-(U1-SCL)*%
X137895000Y-104605000D03*
%TO.P,R3,2*%
%TO.N,/SCLK_INA219*%
X139090000Y-104605000D03*
%TD*%
%TO.P,R2,1*%
%TO.N,Net-(U1-A1)*%
X137895000Y-102615000D03*
%TO.P,R2,2*%
%TO.N,/5V Out*%
X139090000Y-102615000D03*
%TD*%
D21*
%TO.P,R1,1*%
%TO.N,Net-(SW1-B)*%
X89362500Y-112415000D03*
%TO.P,R1,2*%
%TO.N,/V_Battery+*%
X92462500Y-112415000D03*
%TD*%
D26*
%TO.P,Q2,1,G*%
%TO.N,/FAST_CHARGE_CTRL*%
X135725000Y-129310000D03*
%TO.P,Q2,2,S*%
%TO.N,Net-(Q2-S)*%
X135725000Y-131210000D03*
%TO.P,Q2,3,D*%
%TO.N,Net-(Q2-D)*%
X137600000Y-130260000D03*
%TD*%
D10*
%TO.P,L5,1,1*%
%TO.N,Net-(L4-Pad2)*%
X89462500Y-106345000D03*
%TO.P,L5,2,2*%
%TO.N,/Stepped Down 5V*%
X95862500Y-106345000D03*
%TD*%
%TO.P,L4,1,1*%
%TO.N,Net-(L3-Pad2)*%
X89462500Y-97495000D03*
%TO.P,L4,2,2*%
%TO.N,Net-(L4-Pad2)*%
X95862500Y-97495000D03*
%TD*%
%TO.P,L3,1,1*%
%TO.N,Net-(D3-K)*%
X89462500Y-88645000D03*
%TO.P,L3,2,2*%
%TO.N,Net-(L3-Pad2)*%
X95862500Y-88645000D03*
%TD*%
D27*
%TO.P,L2,1,1*%
%TO.N,/Vcc*%
X128992500Y-130780000D03*
%TO.P,L2,2,2*%
%TO.N,Net-(U7-SW_4)*%
X132692500Y-130780000D03*
%TD*%
D28*
%TO.P,J3,A1_B12,GND*%
%TO.N,GND*%
X114711000Y-119770000D03*
%TO.P,J3,A4_B9,VBUS*%
%TO.N,/HV*%
X115511000Y-119770000D03*
D29*
%TO.P,J3,A6,DP1*%
%TO.N,Net-(J3-DP1)*%
X117661000Y-119770000D03*
%TO.P,J3,B7,DN2*%
%TO.N,unconnected-(J3-DN2-PadB7)*%
X117161000Y-119770000D03*
%TO.P,J3,A5,CC1*%
%TO.N,Net-(J3-CC1)*%
X116661000Y-119770000D03*
%TO.P,J3,B8,SBU2*%
%TO.N,unconnected-(J3-SBU2-PadB8)*%
X116161000Y-119770000D03*
%TO.P,J3,A7,DN1*%
%TO.N,Net-(J3-DN1)*%
X118161000Y-119770000D03*
%TO.P,J3,B6,DP2*%
%TO.N,unconnected-(J3-DP2-PadB6)*%
X118661000Y-119770000D03*
%TO.P,J3,A8,SBU1*%
%TO.N,unconnected-(J3-SBU1-PadA8)*%
X119161000Y-119770000D03*
%TO.P,J3,B5,CC2*%
%TO.N,Net-(J3-CC2)*%
X119661000Y-119770000D03*
D28*
%TO.P,J3,B4_A9,VBUS*%
%TO.N,/HV*%
X120311000Y-119770000D03*
%TO.P,J3,B1_A12,GND*%
%TO.N,GND*%
X121111000Y-119770000D03*
D30*
%TO.P,J3,S1,SHIELD*%
X113586000Y-120350000D03*
%TO.P,J3,S2,SHIELD*%
X122236000Y-120350000D03*
D31*
%TO.P,J3,S3,SHIELD*%
X113586000Y-124520000D03*
%TO.P,J3,S4,SHIELD*%
X122236000Y-124520000D03*
%TD*%
D32*
%TO.P,D4,1,K*%
%TO.N,Net-(D4-K)*%
X131307500Y-91045000D03*
%TO.P,D4,2,A*%
%TO.N,GND*%
X135307500Y-91045000D03*
%TD*%
%TO.P,D3,1,K*%
%TO.N,Net-(D3-K)*%
X131307500Y-86495000D03*
%TO.P,D3,2,A*%
%TO.N,GND*%
X135307500Y-86495000D03*
%TD*%
D33*
%TO.P,C51,1*%
%TO.N,GND*%
X94925000Y-127515000D03*
%TO.P,C51,2*%
%TO.N,/5V Out*%
X96060000Y-127515000D03*
%TD*%
D34*
%TO.P,C50,1*%
%TO.N,GND*%
X110860000Y-99445000D03*
%TO.P,C50,2*%
%TO.N,/HV*%
X113935000Y-99445000D03*
%TD*%
%TO.P,C49,1*%
%TO.N,GND*%
X110860000Y-95095000D03*
%TO.P,C49,2*%
%TO.N,/HV*%
X113935000Y-95095000D03*
%TD*%
%TO.P,C48,1*%
%TO.N,GND*%
X110860000Y-90745000D03*
%TO.P,C48,2*%
%TO.N,/HV*%
X113935000Y-90745000D03*
%TD*%
D35*
%TO.P,C47,1*%
%TO.N,/5V Out*%
X107280000Y-126745000D03*
%TO.P,C47,2*%
%TO.N,GND*%
X110405000Y-126745000D03*
%TD*%
D34*
%TO.P,C46,1*%
%TO.N,/5V Out*%
X110860000Y-86395000D03*
%TO.P,C46,2*%
%TO.N,GND*%
X113935000Y-86395000D03*
%TD*%
D36*
%TO.P,C45,1*%
%TO.N,GND*%
X129415000Y-112155000D03*
%TO.P,C45,2*%
%TO.N,/V_Battery+*%
X131490000Y-112155000D03*
%TD*%
%TO.P,C44,1*%
%TO.N,/V_Battery+*%
X129415000Y-109145000D03*
%TO.P,C44,2*%
%TO.N,GND*%
X131490000Y-109145000D03*
%TD*%
D35*
%TO.P,C43,1*%
%TO.N,/3.3V Out*%
X107280000Y-123395000D03*
%TO.P,C43,2*%
%TO.N,Net-(U2-FB)*%
X110405000Y-123395000D03*
%TD*%
%TO.P,C42,1*%
%TO.N,/3.3V Out*%
X107280000Y-120045000D03*
%TO.P,C42,2*%
%TO.N,Net-(U2-FB)*%
X110405000Y-120045000D03*
%TD*%
D36*
%TO.P,C41,1*%
%TO.N,GND*%
X129415000Y-106135000D03*
%TO.P,C41,2*%
%TO.N,/V_Battery+*%
X131490000Y-106135000D03*
%TD*%
D34*
%TO.P,C40,1*%
%TO.N,/5V Out*%
X104865000Y-99445000D03*
%TO.P,C40,2*%
%TO.N,GND*%
X107940000Y-99445000D03*
%TD*%
D36*
%TO.P,C39,1*%
%TO.N,/Vcc*%
X129415000Y-103125000D03*
%TO.P,C39,2*%
%TO.N,GND*%
X131490000Y-103125000D03*
%TD*%
D34*
%TO.P,C38,1*%
%TO.N,/5V Out*%
X104865000Y-95095000D03*
%TO.P,C38,2*%
%TO.N,GND*%
X107940000Y-95095000D03*
%TD*%
%TO.P,C37,1*%
%TO.N,/5V Out*%
X104865000Y-90745000D03*
%TO.P,C37,2*%
%TO.N,GND*%
X107940000Y-90745000D03*
%TD*%
D37*
%TO.P,C36,1*%
%TO.N,Net-(U13-SS2)*%
X134087500Y-112915000D03*
%TO.P,C36,2*%
%TO.N,GND*%
X135637500Y-112915000D03*
%TD*%
%TO.P,C35,1*%
%TO.N,Net-(U13-SS1)*%
X134087500Y-110405000D03*
%TO.P,C35,2*%
%TO.N,GND*%
X135637500Y-110405000D03*
%TD*%
D33*
%TO.P,C34,1*%
%TO.N,GND*%
X94925000Y-125545000D03*
%TO.P,C34,2*%
%TO.N,/EXT_LOAD2_OUT*%
X96060000Y-125545000D03*
%TD*%
%TO.P,C33,1*%
%TO.N,/EXT_LOAD1_OUT*%
X94925000Y-123575000D03*
%TO.P,C33,2*%
%TO.N,GND*%
X96060000Y-123575000D03*
%TD*%
%TO.P,C32,1*%
%TO.N,GND*%
X94925000Y-121605000D03*
%TO.P,C32,2*%
%TO.N,/5V Out*%
X96060000Y-121605000D03*
%TD*%
D38*
%TO.P,C31,1*%
%TO.N,GND*%
X128780000Y-124095000D03*
%TO.P,C31,2*%
%TO.N,Net-(U12-VINT)*%
X130505000Y-124095000D03*
%TD*%
D37*
%TO.P,C30,1*%
%TO.N,/V_Battery+*%
X134087500Y-107895000D03*
%TO.P,C30,2*%
%TO.N,Net-(U12-VCP)*%
X135637500Y-107895000D03*
%TD*%
D38*
%TO.P,C29,1*%
%TO.N,GND*%
X128780000Y-121585000D03*
%TO.P,C29,2*%
%TO.N,Net-(U11-VINT)*%
X130505000Y-121585000D03*
%TD*%
D37*
%TO.P,C28,1*%
%TO.N,/V_Battery+*%
X134087500Y-105385000D03*
%TO.P,C28,2*%
%TO.N,Net-(U11-VCP)*%
X135637500Y-105385000D03*
%TD*%
D33*
%TO.P,C27,1*%
%TO.N,/5V Out*%
X94925000Y-119635000D03*
%TO.P,C27,2*%
%TO.N,GND*%
X96060000Y-119635000D03*
%TD*%
D34*
%TO.P,C26,1*%
%TO.N,GND*%
X104865000Y-86395000D03*
%TO.P,C26,2*%
%TO.N,/HV*%
X107940000Y-86395000D03*
%TD*%
%TO.P,C25,1*%
%TO.N,/3.3V Out*%
X98870000Y-99445000D03*
%TO.P,C25,2*%
%TO.N,Net-(U2-FB)*%
X101945000Y-99445000D03*
%TD*%
D33*
%TO.P,C24,1*%
%TO.N,Net-(U9-VDD)*%
X94925000Y-117665000D03*
%TO.P,C24,2*%
%TO.N,GND*%
X96060000Y-117665000D03*
%TD*%
D34*
%TO.P,C23,1*%
%TO.N,/3.3V Out*%
X98870000Y-95095000D03*
%TO.P,C23,2*%
%TO.N,Net-(U2-FB)*%
X101945000Y-95095000D03*
%TD*%
D35*
%TO.P,C22,1*%
%TO.N,/5V Out*%
X107280000Y-116695000D03*
%TO.P,C22,2*%
%TO.N,GND*%
X110405000Y-116695000D03*
%TD*%
%TO.P,C21,1*%
%TO.N,/5V Out*%
X107280000Y-113345000D03*
%TO.P,C21,2*%
%TO.N,GND*%
X110405000Y-113345000D03*
%TD*%
%TO.P,C20,1*%
%TO.N,/5V Out*%
X107280000Y-109995000D03*
%TO.P,C20,2*%
%TO.N,GND*%
X110405000Y-109995000D03*
%TD*%
D37*
%TO.P,C19,1*%
%TO.N,Net-(C19-Pad1)*%
X134087500Y-102875000D03*
%TO.P,C19,2*%
%TO.N,GND*%
X135637500Y-102875000D03*
%TD*%
D38*
%TO.P,C18,1*%
%TO.N,Net-(U7-SS)*%
X128780000Y-119075000D03*
%TO.P,C18,2*%
%TO.N,GND*%
X130505000Y-119075000D03*
%TD*%
D33*
%TO.P,C17,1*%
%TO.N,Net-(U7-BOOT)*%
X94925000Y-115695000D03*
%TO.P,C17,2*%
%TO.N,Net-(U7-SW_4)*%
X96060000Y-115695000D03*
%TD*%
%TO.P,C16,1*%
%TO.N,GND*%
X94925000Y-113725000D03*
%TO.P,C16,2*%
%TO.N,/Vcc*%
X96060000Y-113725000D03*
%TD*%
D35*
%TO.P,C15,1*%
%TO.N,/Stepped Down 5V*%
X107280000Y-106645000D03*
%TO.P,C15,2*%
%TO.N,GND*%
X110405000Y-106645000D03*
%TD*%
%TO.P,C14,1*%
%TO.N,/Stepped Down 5V*%
X107280000Y-103295000D03*
%TO.P,C14,2*%
%TO.N,GND*%
X110405000Y-103295000D03*
%TD*%
D34*
%TO.P,C13,1*%
%TO.N,/3.3V Out*%
X98870000Y-90745000D03*
%TO.P,C13,2*%
%TO.N,Net-(U2-FB)*%
X101945000Y-90745000D03*
%TD*%
%TO.P,C12,1*%
%TO.N,/Stepped Down 5V*%
X98870000Y-86395000D03*
%TO.P,C12,2*%
%TO.N,GND*%
X101945000Y-86395000D03*
%TD*%
D33*
%TO.P,C1,1*%
%TO.N,/5V Out*%
X94925000Y-111755000D03*
%TO.P,C1,2*%
%TO.N,GND*%
X96060000Y-111755000D03*
%TD*%
D39*
%TO.P,J1,32,Pin_32*%
%TO.N,/MOTOR1_A_OUT*%
X74440000Y-126890000D03*
%TO.P,J1,31,Pin_31*%
%TO.N,/MOTOR1_B_OUT*%
X76980000Y-126890000D03*
%TO.P,J1,30,Pin_30*%
%TO.N,/MOTOR1_CTRL2*%
X74440000Y-124350000D03*
%TO.P,J1,29,Pin_29*%
%TO.N,/MOTOR3_B_OUT*%
X76980000Y-124350000D03*
%TO.P,J1,28,Pin_28*%
%TO.N,/MOTOR1_CTRL1*%
X74440000Y-121810000D03*
%TO.P,J1,27,Pin_27*%
%TO.N,/MOTOR3_A_OUT*%
X76980000Y-121810000D03*
%TO.P,J1,26,Pin_26*%
%TO.N,/MOTOR3_CTRL2*%
X74440000Y-119270000D03*
%TO.P,J1,25,Pin_25*%
%TO.N,/CTRL_EXT_LOAD1*%
X76980000Y-119270000D03*
%TO.P,J1,24,Pin_24*%
%TO.N,/MOTOR3_CTRL1*%
X74440000Y-116730000D03*
%TO.P,J1,23,Pin_23*%
%TO.N,GND*%
X76980000Y-116730000D03*
%TO.P,J1,22,Pin_22*%
%TO.N,/HV*%
X74440000Y-114190000D03*
%TO.P,J1,21,Pin_21*%
%TO.N,/EXT_LOAD1_OUT*%
X76980000Y-114190000D03*
%TO.P,J1,20,Pin_20*%
%TO.N,/5V Out*%
X74440000Y-111650000D03*
%TO.P,J1,19,Pin_19*%
%TO.N,GND*%
X76980000Y-111650000D03*
%TO.P,J1,18,Pin_18*%
%TO.N,/3V3 Out*%
X74440000Y-109110000D03*
%TO.P,J1,17,Pin_17*%
%TO.N,/SDA_INA219*%
X76980000Y-109110000D03*
%TO.P,J1,16,Pin_16*%
%TO.N,/SCLK_INA219*%
X74440000Y-106570000D03*
%TO.P,J1,15,Pin_15*%
%TO.N,unconnected-(J1-Pin_15-Pad15)*%
X76980000Y-106570000D03*
%TO.P,J1,14,Pin_14*%
%TO.N,/V_Battery+*%
X74440000Y-104030000D03*
%TO.P,J1,13,Pin_13*%
%TO.N,/FAST_CHARGE_CTRL*%
X76980000Y-104030000D03*
%TO.P,J1,12,Pin_12*%
%TO.N,unconnected-(J1-Pin_12-Pad12)*%
X74440000Y-101490000D03*
%TO.P,J1,11,Pin_11*%
%TO.N,/EXT_LOAD2_OUT*%
X76980000Y-101490000D03*
%TO.P,J1,10,Pin_10*%
%TO.N,/MOTOR4_CTRL2*%
X74440000Y-98950000D03*
%TO.P,J1,9,Pin_9*%
%TO.N,unconnected-(J1-Pin_9-Pad9)*%
X76980000Y-98950000D03*
%TO.P,J1,8,Pin_8*%
%TO.N,/MOTOR4_CTRL1*%
X74440000Y-96410000D03*
%TO.P,J1,7,Pin_7*%
%TO.N,/CTRL_EXT_LOAD2*%
X76980000Y-96410000D03*
%TO.P,J1,6,Pin_6*%
%TO.N,/MOTOR2_CTRL2*%
X74440000Y-93870000D03*
%TO.P,J1,5,Pin_5*%
%TO.N,/Motor4_B_OUT*%
X76980000Y-93870000D03*
%TO.P,J1,4,Pin_4*%
%TO.N,/MOTOR2_CTRL1*%
X74440000Y-91330000D03*
%TO.P,J1,3,Pin_3*%
%TO.N,/Motor4_A_OUT*%
X76980000Y-91330000D03*
%TO.P,J1,2,Pin_2*%
%TO.N,/Motor2_A_OUT*%
X74440000Y-88790000D03*
D40*
%TO.P,J1,1,Pin_1*%
%TO.N,/Motor2_B_OUT*%
X76980000Y-88790000D03*
%TD*%
D41*
%TO.P,J2,2,Pin_2*%
%TO.N,/V_Battery-*%
X67490000Y-105240000D03*
D42*
%TO.P,J2,1,Pin_1*%
%TO.N,/V_Battery+*%
X67490000Y-107240000D03*
%TD*%
M02*
