%TF.GenerationSoftware,KiCad,Pcbnew,9.0.0*%
%TF.CreationDate,2025-03-27T23:40:49+02:00*%
%TF.ProjectId,EEE3088F Micromouse Design,45454533-3038-4384-9620-4d6963726f6d,rev?*%
%TF.SameCoordinates,Original*%
%TF.FileFunction,Soldermask,Bot*%
%TF.FilePolarity,Negative*%
%FSLAX46Y46*%
G04 Gerber Fmt 4.6, Leading zero omitted, Abs format (unit mm)*
G04 Created by KiCad (PCBNEW 9.0.0) date 2025-03-27 23:40:49*
%MOMM*%
%LPD*%
G01*
G04 APERTURE LIST*
G04 Aperture macros list*
%AMRoundRect*
0 Rectangle with rounded corners*
0 $1 Rounding radius*
0 $2 $3 $4 $5 $6 $7 $8 $9 X,Y pos of 4 corners*
0 Add a 4 corners polygon primitive as box body*
4,1,4,$2,$3,$4,$5,$6,$7,$8,$9,$2,$3,0*
0 Add four circle primitives for the rounded corners*
1,1,$1+$1,$2,$3*
1,1,$1+$1,$4,$5*
1,1,$1+$1,$6,$7*
1,1,$1+$1,$8,$9*
0 Add four rect primitives between the rounded corners*
20,1,$1+$1,$2,$3,$4,$5,0*
20,1,$1+$1,$4,$5,$6,$7,0*
20,1,$1+$1,$6,$7,$8,$9,0*
20,1,$1+$1,$8,$9,$2,$3,0*%
G04 Aperture macros list end*
%ADD10C,0.600000*%
%ADD11O,0.900000X2.000000*%
%ADD12O,0.900000X1.700000*%
%ADD13O,1.700000X1.700000*%
%ADD14R,1.700000X1.700000*%
%ADD15O,1.750000X1.200000*%
%ADD16RoundRect,0.250000X0.625000X-0.350000X0.625000X0.350000X-0.625000X0.350000X-0.625000X-0.350000X0*%
G04 APERTURE END LIST*
D10*
%TO.C,J3*%
X115021000Y-120840000D03*
X120801000Y-120840000D03*
D11*
X113586000Y-120350000D03*
X122236000Y-120350000D03*
D12*
X113586000Y-124520000D03*
X122236000Y-124520000D03*
%TD*%
D13*
%TO.C,J1*%
X74440000Y-126890000D03*
X76980000Y-126890000D03*
X74440000Y-124350000D03*
X76980000Y-124350000D03*
X74440000Y-121810000D03*
X76980000Y-121810000D03*
X74440000Y-119270000D03*
X76980000Y-119270000D03*
X74440000Y-116730000D03*
X76980000Y-116730000D03*
X74440000Y-114190000D03*
X76980000Y-114190000D03*
X74440000Y-111650000D03*
X76980000Y-111650000D03*
X74440000Y-109110000D03*
X76980000Y-109110000D03*
X74440000Y-106570000D03*
X76980000Y-106570000D03*
X74440000Y-104030000D03*
X76980000Y-104030000D03*
X74440000Y-101490000D03*
X76980000Y-101490000D03*
X74440000Y-98950000D03*
X76980000Y-98950000D03*
X74440000Y-96410000D03*
X76980000Y-96410000D03*
X74440000Y-93870000D03*
X76980000Y-93870000D03*
X74440000Y-91330000D03*
X76980000Y-91330000D03*
X74440000Y-88790000D03*
D14*
X76980000Y-88790000D03*
%TD*%
D15*
%TO.C,J2*%
X67490000Y-105240000D03*
D16*
X67490000Y-107240000D03*
%TD*%
M02*
