M48
; DRILL file {KiCad 9.0.0} date 2025-03-27T23:40:49+0200
; FORMAT={-:-/ absolute / inch / decimal}
; #@! TF.CreationDate,2025-03-27T23:40:49+02:00
; #@! TF.GenerationSoftware,Kicad,Pcbnew,9.0.0
; #@! TF.FileFunction,Plated,1,2,PTH
FMAT,2
INCH
; #@! TA.AperFunction,Plated,PTH,ComponentDrill
T1C0.0079
; #@! TA.AperFunction,Plated,PTH,ComponentDrill
T2C0.0236
; #@! TA.AperFunction,Plated,PTH,ComponentDrill
T3C0.0295
; #@! TA.AperFunction,Plated,PTH,ComponentDrill
T4C0.0394
%
G90
G05
T1
X3.9729Y-4.8628
X3.9729Y-4.91
X3.9729Y-4.9573
X4.0281Y-4.8628
X4.0281Y-4.91
X4.0281Y-4.9573
T3
X2.6571Y-4.1433
X2.6571Y-4.222
T4
X2.9307Y-3.4957
X2.9307Y-3.5957
X2.9307Y-3.6957
X2.9307Y-3.7957
X2.9307Y-3.8957
X2.9307Y-3.9957
X2.9307Y-4.0957
X2.9307Y-4.1957
X2.9307Y-4.2957
X2.9307Y-4.3957
X2.9307Y-4.4957
X2.9307Y-4.5957
X2.9307Y-4.6957
X2.9307Y-4.7957
X2.9307Y-4.8957
X2.9307Y-4.9957
X3.0307Y-3.4957
X3.0307Y-3.5957
X3.0307Y-3.6957
X3.0307Y-3.7957
X3.0307Y-3.8957
X3.0307Y-3.9957
X3.0307Y-4.0957
X3.0307Y-4.1957
X3.0307Y-4.2957
X3.0307Y-4.3957
X3.0307Y-4.4957
X3.0307Y-4.5957
X3.0307Y-4.6957
X3.0307Y-4.7957
X3.0307Y-4.8957
X3.0307Y-4.9957
T2
G00X4.4719Y-4.7165
M15
G01X4.4719Y-4.7598
M16
G05
G00X4.4719Y-4.8866
M15
G01X4.4719Y-4.9181
M16
G05
G00X4.8124Y-4.7165
M15
G01X4.8124Y-4.7598
M16
G05
G00X4.8124Y-4.8866
M15
G01X4.8124Y-4.9181
M16
G05
M30
