%TF.GenerationSoftware,KiCad,Pcbnew,9.0.0*%
%TF.CreationDate,2025-03-27T21:08:07+02:00*%
%TF.ProjectId,EEE3088F Micromouse Design,45454533-3038-4384-9620-4d6963726f6d,rev?*%
%TF.SameCoordinates,Original*%
%TF.FileFunction,Soldermask,Top*%
%TF.FilePolarity,Negative*%
%FSLAX46Y46*%
G04 Gerber Fmt 4.6, Leading zero omitted, Abs format (unit mm)*
G04 Created by KiCad (PCBNEW 9.0.0) date 2025-03-27 21:08:07*
%MOMM*%
%LPD*%
G01*
G04 APERTURE LIST*
G04 Aperture macros list*
%AMRoundRect*
0 Rectangle with rounded corners*
0 $1 Rounding radius*
0 $2 $3 $4 $5 $6 $7 $8 $9 X,Y pos of 4 corners*
0 Add a 4 corners polygon primitive as box body*
4,1,4,$2,$3,$4,$5,$6,$7,$8,$9,$2,$3,0*
0 Add four circle primitives for the rounded corners*
1,1,$1+$1,$2,$3*
1,1,$1+$1,$4,$5*
1,1,$1+$1,$6,$7*
1,1,$1+$1,$8,$9*
0 Add four rect primitives between the rounded corners*
20,1,$1+$1,$2,$3,$4,$5,0*
20,1,$1+$1,$4,$5,$6,$7,0*
20,1,$1+$1,$6,$7,$8,$9,0*
20,1,$1+$1,$8,$9,$2,$3,0*%
%AMFreePoly0*
4,1,505,-0.203634,2.555678,-0.202053,2.555421,-0.199231,2.554726,-0.198634,2.554678,-0.197053,2.554421,-0.194231,2.553726,-0.193634,2.553678,-0.192053,2.553421,-0.176164,2.549509,-0.173164,2.548509,-0.166423,2.545994,-0.165768,2.545723,-0.159148,2.542704,-0.157464,2.541862,-0.157608,2.541572,-0.146835,2.536534,-0.144880,2.535327,-0.140541,2.531895,-0.136165,2.529249,-0.134865,2.528313,
-0.133109,2.526820,-0.132165,2.526249,-0.130865,2.525313,-0.118339,2.514661,-0.110339,2.506661,-0.099687,2.494135,-0.098751,2.492835,-0.098179,2.491890,-0.096687,2.490135,-0.095751,2.488835,-0.093104,2.484458,-0.089673,2.480120,-0.088466,2.478165,-0.083427,2.467391,-0.083138,2.467536,-0.082296,2.465852,-0.079277,2.459232,-0.079006,2.458577,-0.076491,2.451836,-0.075491,2.448836,
-0.071579,2.432947,-0.071322,2.431366,-0.071273,2.430768,-0.070579,2.427947,-0.070322,2.426366,-0.070273,2.425768,-0.069579,2.422947,-0.069322,2.421366,-0.068000,2.405000,-0.068000,2.032000,0.068000,2.032000,0.068000,2.405000,0.069322,2.421366,0.069579,2.422947,0.070273,2.425768,0.070322,2.426366,0.070579,2.427947,0.071273,2.430768,0.071322,2.431366,0.071579,2.432947,
0.075491,2.448836,0.076491,2.451836,0.079006,2.458577,0.079277,2.459232,0.082296,2.465852,0.083138,2.467536,0.083427,2.467391,0.088466,2.478165,0.089673,2.480120,0.093104,2.484458,0.095751,2.488835,0.096687,2.490135,0.098179,2.491890,0.098751,2.492835,0.099687,2.494135,0.110339,2.506661,0.118339,2.514661,0.130865,2.525313,0.132165,2.526249,0.133109,2.526820,
0.134865,2.528313,0.136165,2.529249,0.140541,2.531895,0.144880,2.535327,0.146835,2.536534,0.157608,2.541572,0.157464,2.541862,0.159148,2.542704,0.165768,2.545723,0.166423,2.545994,0.173164,2.548509,0.176164,2.549509,0.192053,2.553421,0.193634,2.553678,0.194231,2.553726,0.197053,2.554421,0.198634,2.554678,0.199231,2.554726,0.202053,2.555421,0.203634,2.555678,
0.220000,2.557000,0.330000,2.557000,0.346366,2.555678,0.347947,2.555421,0.350768,2.554726,0.351366,2.554678,0.352947,2.554421,0.355768,2.553726,0.356366,2.553678,0.357947,2.553421,0.373836,2.549509,0.376836,2.548509,0.383577,2.545994,0.384232,2.545723,0.390852,2.542704,0.392536,2.541862,0.392391,2.541572,0.403165,2.536534,0.405120,2.535327,0.409458,2.531895,
0.413835,2.529249,0.415135,2.528313,0.416890,2.526820,0.417835,2.526249,0.419135,2.525313,0.431661,2.514661,0.439661,2.506661,0.450313,2.494135,0.451249,2.492835,0.451820,2.491890,0.453313,2.490135,0.454249,2.488835,0.456895,2.484458,0.460327,2.480120,0.461534,2.478165,0.466572,2.467391,0.466862,2.467536,0.467704,2.465852,0.470723,2.459232,0.470994,2.458577,
0.473509,2.451836,0.474509,2.448836,0.478421,2.432947,0.478678,2.431366,0.478726,2.430768,0.479421,2.427947,0.479678,2.426366,0.479726,2.425768,0.480421,2.422947,0.480678,2.421366,0.482000,2.405000,0.482000,1.632000,0.980000,1.632000,0.996366,1.630678,0.997947,1.630421,1.000768,1.629726,1.001366,1.629678,1.002947,1.629421,1.005768,1.628726,1.006366,1.628678,
1.007947,1.628421,1.013719,1.627000,1.025000,1.627000,1.084954,1.607520,1.122008,1.556520,1.127000,1.525000,1.127000,1.513718,1.128421,1.507947,1.128678,1.506366,1.128726,1.505768,1.129421,1.502947,1.129678,1.501366,1.129726,1.500768,1.130421,1.497947,1.130678,1.496366,1.132000,1.480000,1.132000,-1.480000,1.130678,-1.496366,1.130421,-1.497947,1.129726,-1.500768,
1.129678,-1.501366,1.129421,-1.502947,1.128726,-1.505768,1.128678,-1.506366,1.128421,-1.507947,1.127000,-1.513718,1.127000,-1.525000,1.107520,-1.584954,1.056520,-1.622008,1.025000,-1.627000,1.013719,-1.627000,1.007947,-1.628421,1.006366,-1.628678,1.005768,-1.628726,1.002947,-1.629421,1.001366,-1.629678,1.000768,-1.629726,0.997947,-1.630421,0.996366,-1.630678,0.980000,-1.632000,
0.482000,-1.632000,0.482000,-2.405000,0.480678,-2.421366,0.480421,-2.422947,0.479726,-2.425768,0.479678,-2.426366,0.479421,-2.427947,0.478726,-2.430768,0.478678,-2.431366,0.478421,-2.432947,0.474509,-2.448836,0.473509,-2.451836,0.470994,-2.458577,0.470723,-2.459232,0.467704,-2.465852,0.466862,-2.467536,0.466572,-2.467391,0.461534,-2.478165,0.460327,-2.480120,0.456895,-2.484458,
0.454249,-2.488835,0.453313,-2.490135,0.451820,-2.491890,0.451249,-2.492835,0.450313,-2.494135,0.439661,-2.506661,0.431661,-2.514661,0.419135,-2.525313,0.417835,-2.526249,0.416890,-2.526820,0.415135,-2.528313,0.413835,-2.529249,0.409458,-2.531895,0.405120,-2.535327,0.403165,-2.536534,0.392391,-2.541572,0.392536,-2.541862,0.390852,-2.542704,0.384232,-2.545723,0.383577,-2.545994,
0.376836,-2.548509,0.373836,-2.549509,0.357947,-2.553421,0.356366,-2.553678,0.355768,-2.553726,0.352947,-2.554421,0.351366,-2.554678,0.350768,-2.554726,0.347947,-2.555421,0.346366,-2.555678,0.330000,-2.557000,0.220000,-2.557000,0.203634,-2.555678,0.202053,-2.555421,0.199231,-2.554726,0.198634,-2.554678,0.197053,-2.554421,0.194231,-2.553726,0.193634,-2.553678,0.192053,-2.553421,
0.176164,-2.549509,0.173164,-2.548509,0.166423,-2.545994,0.165768,-2.545723,0.159148,-2.542704,0.157464,-2.541862,0.157608,-2.541572,0.146835,-2.536534,0.144880,-2.535327,0.140541,-2.531895,0.136165,-2.529249,0.134865,-2.528313,0.133109,-2.526820,0.132165,-2.526249,0.130865,-2.525313,0.118339,-2.514661,0.110339,-2.506661,0.099687,-2.494135,0.098751,-2.492835,0.098179,-2.491890,
0.096687,-2.490135,0.095751,-2.488835,0.093104,-2.484458,0.089673,-2.480120,0.088466,-2.478165,0.083427,-2.467391,0.083138,-2.467536,0.082296,-2.465852,0.079277,-2.459232,0.079006,-2.458577,0.076491,-2.451836,0.075491,-2.448836,0.071579,-2.432947,0.071322,-2.431366,0.071273,-2.430768,0.070579,-2.427947,0.070322,-2.426366,0.070273,-2.425768,0.069579,-2.422947,0.069322,-2.421366,
0.068000,-2.405000,0.068000,-2.032000,-0.068000,-2.032000,-0.068000,-2.405000,-0.069322,-2.421366,-0.069579,-2.422947,-0.070273,-2.425768,-0.070322,-2.426366,-0.070579,-2.427947,-0.071273,-2.430768,-0.071322,-2.431366,-0.071579,-2.432947,-0.075491,-2.448836,-0.076491,-2.451836,-0.079006,-2.458577,-0.079277,-2.459232,-0.082296,-2.465852,-0.083138,-2.467536,-0.083427,-2.467391,-0.088466,-2.478165,
-0.089673,-2.480120,-0.093104,-2.484458,-0.095751,-2.488835,-0.096687,-2.490135,-0.098179,-2.491890,-0.098751,-2.492835,-0.099687,-2.494135,-0.110339,-2.506661,-0.118339,-2.514661,-0.130865,-2.525313,-0.132165,-2.526249,-0.133109,-2.526820,-0.134865,-2.528313,-0.136165,-2.529249,-0.140541,-2.531895,-0.144880,-2.535327,-0.146835,-2.536534,-0.157608,-2.541572,-0.157464,-2.541862,-0.159148,-2.542704,
-0.165768,-2.545723,-0.166423,-2.545994,-0.173164,-2.548509,-0.176164,-2.549509,-0.192053,-2.553421,-0.193634,-2.553678,-0.194231,-2.553726,-0.197053,-2.554421,-0.198634,-2.554678,-0.199231,-2.554726,-0.202053,-2.555421,-0.203634,-2.555678,-0.220000,-2.557000,-0.330000,-2.557000,-0.346366,-2.555678,-0.347947,-2.555421,-0.350768,-2.554726,-0.351366,-2.554678,-0.352947,-2.554421,-0.355768,-2.553726,
-0.356366,-2.553678,-0.357947,-2.553421,-0.373836,-2.549509,-0.376836,-2.548509,-0.383577,-2.545994,-0.384232,-2.545723,-0.390852,-2.542704,-0.392536,-2.541862,-0.392391,-2.541572,-0.403165,-2.536534,-0.405120,-2.535327,-0.409458,-2.531895,-0.413835,-2.529249,-0.415135,-2.528313,-0.416890,-2.526820,-0.417835,-2.526249,-0.419135,-2.525313,-0.431661,-2.514661,-0.439661,-2.506661,-0.450313,-2.494135,
-0.451249,-2.492835,-0.451820,-2.491890,-0.453313,-2.490135,-0.454249,-2.488835,-0.456895,-2.484458,-0.460327,-2.480120,-0.461534,-2.478165,-0.466572,-2.467391,-0.466862,-2.467536,-0.467704,-2.465852,-0.470723,-2.459232,-0.470994,-2.458577,-0.473509,-2.451836,-0.474509,-2.448836,-0.478421,-2.432947,-0.478678,-2.431366,-0.478726,-2.430768,-0.479421,-2.427947,-0.479678,-2.426366,-0.479726,-2.425768,
-0.480421,-2.422947,-0.480678,-2.421366,-0.482000,-2.405000,-0.482000,-1.632000,-0.980000,-1.632000,-0.996366,-1.630678,-0.997947,-1.630421,-1.000768,-1.629726,-1.001366,-1.629678,-1.002947,-1.629421,-1.005768,-1.628726,-1.006366,-1.628678,-1.007947,-1.628421,-1.013719,-1.627000,-1.025000,-1.627000,-1.084954,-1.607520,-1.122008,-1.556520,-1.127000,-1.525000,-1.127000,-1.513718,-1.128421,-1.507947,
-1.128678,-1.506366,-1.128726,-1.505768,-1.129421,-1.502947,-1.129678,-1.501366,-1.129726,-1.500768,-1.130421,-1.497947,-1.130678,-1.496366,-1.132000,-1.480000,-1.132000,1.480000,-1.130678,1.496366,-1.130421,1.497947,-1.129726,1.500768,-1.129678,1.501366,-1.129421,1.502947,-1.128726,1.505768,-1.128678,1.506366,-1.128421,1.507947,-1.127000,1.513718,-1.127000,1.525000,-1.107520,1.584954,
-1.056520,1.622008,-1.025000,1.627000,-1.013719,1.627000,-1.007947,1.628421,-1.006366,1.628678,-1.005768,1.628726,-1.002947,1.629421,-1.001366,1.629678,-1.000768,1.629726,-0.997947,1.630421,-0.996366,1.630678,-0.980000,1.632000,-0.482000,1.632000,-0.482000,2.405000,-0.480678,2.421366,-0.480421,2.422947,-0.479726,2.425768,-0.479678,2.426366,-0.479421,2.427947,-0.478726,2.430768,
-0.478678,2.431366,-0.478421,2.432947,-0.474509,2.448836,-0.473509,2.451836,-0.470994,2.458577,-0.470723,2.459232,-0.467704,2.465852,-0.466862,2.467536,-0.466572,2.467391,-0.461534,2.478165,-0.460327,2.480120,-0.456895,2.484458,-0.454249,2.488835,-0.453313,2.490135,-0.451820,2.491890,-0.451249,2.492835,-0.450313,2.494135,-0.439661,2.506661,-0.431661,2.514661,-0.419135,2.525313,
-0.417835,2.526249,-0.416890,2.526820,-0.415135,2.528313,-0.413835,2.529249,-0.409458,2.531895,-0.405120,2.535327,-0.403165,2.536534,-0.392391,2.541572,-0.392536,2.541862,-0.390852,2.542704,-0.384232,2.545723,-0.383577,2.545994,-0.376836,2.548509,-0.373836,2.549509,-0.357947,2.553421,-0.356366,2.553678,-0.355768,2.553726,-0.352947,2.554421,-0.351366,2.554678,-0.350768,2.554726,
-0.347947,2.555421,-0.346366,2.555678,-0.330000,2.557000,-0.220000,2.557000,-0.203634,2.555678,-0.203634,2.555678,$1*%
G04 Aperture macros list end*
%ADD10C,0.010000*%
%ADD11RoundRect,0.150000X-0.825000X-0.150000X0.825000X-0.150000X0.825000X0.150000X-0.825000X0.150000X0*%
%ADD12R,2.410000X3.300000*%
%ADD13C,2.000000*%
%ADD14RoundRect,0.237500X-0.250000X-0.237500X0.250000X-0.237500X0.250000X0.237500X-0.250000X0.237500X0*%
%ADD15RoundRect,0.250000X-0.350000X-0.450000X0.350000X-0.450000X0.350000X0.450000X-0.350000X0.450000X0*%
%ADD16RoundRect,0.250000X-0.400000X-0.625000X0.400000X-0.625000X0.400000X0.625000X-0.400000X0.625000X0*%
%ADD17RoundRect,0.150000X-0.587500X-0.150000X0.587500X-0.150000X0.587500X0.150000X-0.587500X0.150000X0*%
%ADD18R,1.500000X2.200000*%
%ADD19RoundRect,0.250000X-1.000000X-0.650000X1.000000X-0.650000X1.000000X0.650000X-1.000000X0.650000X0*%
%ADD20RoundRect,0.250000X-0.412500X-0.650000X0.412500X-0.650000X0.412500X0.650000X-0.412500X0.650000X0*%
%ADD21O,1.104000X1.904000*%
%ADD22O,1.104000X2.204000*%
%ADD23R,3.300000X2.100000*%
%ADD24RoundRect,0.150000X-0.150000X0.687500X-0.150000X-0.687500X0.150000X-0.687500X0.150000X0.687500X0*%
%ADD25RoundRect,0.250000X-0.337500X-0.475000X0.337500X-0.475000X0.337500X0.475000X-0.337500X0.475000X0*%
%ADD26RoundRect,0.225000X-0.225000X-0.250000X0.225000X-0.250000X0.225000X0.250000X-0.225000X0.250000X0*%
%ADD27RoundRect,0.237500X-0.300000X-0.237500X0.300000X-0.237500X0.300000X0.237500X-0.300000X0.237500X0*%
%ADD28RoundRect,0.100000X-0.637500X-0.100000X0.637500X-0.100000X0.637500X0.100000X-0.637500X0.100000X0*%
%ADD29RoundRect,0.250000X0.400000X0.625000X-0.400000X0.625000X-0.400000X-0.625000X0.400000X-0.625000X0*%
%ADD30RoundRect,0.250000X0.650000X-0.412500X0.650000X0.412500X-0.650000X0.412500X-0.650000X-0.412500X0*%
%ADD31RoundRect,0.250000X0.412500X0.650000X-0.412500X0.650000X-0.412500X-0.650000X0.412500X-0.650000X0*%
%ADD32RoundRect,0.093240X-0.128760X-0.308760X0.128760X-0.308760X0.128760X0.308760X-0.128760X0.308760X0*%
%ADD33RoundRect,0.093240X-0.308760X-0.128760X0.308760X-0.128760X0.308760X0.128760X-0.308760X0.128760X0*%
%ADD34FreePoly0,0.000000*%
%ADD35C,0.504000*%
%ADD36RoundRect,0.237500X-0.237500X0.287500X-0.237500X-0.287500X0.237500X-0.287500X0.237500X0.287500X0*%
%ADD37RoundRect,0.237500X-0.237500X0.250000X-0.237500X-0.250000X0.237500X-0.250000X0.237500X0.250000X0*%
%ADD38RoundRect,0.250000X-0.262500X-0.450000X0.262500X-0.450000X0.262500X0.450000X-0.262500X0.450000X0*%
%ADD39R,1.700000X1.700000*%
%ADD40O,1.700000X1.700000*%
%ADD41RoundRect,0.155000X-0.212500X-0.155000X0.212500X-0.155000X0.212500X0.155000X-0.212500X0.155000X0*%
%ADD42RoundRect,0.250000X0.625000X-0.400000X0.625000X0.400000X-0.625000X0.400000X-0.625000X-0.400000X0*%
%ADD43RoundRect,0.155000X0.212500X0.155000X-0.212500X0.155000X-0.212500X-0.155000X0.212500X-0.155000X0*%
%ADD44RoundRect,0.155000X0.155000X-0.212500X0.155000X0.212500X-0.155000X0.212500X-0.155000X-0.212500X0*%
%ADD45RoundRect,0.250000X0.625000X-0.350000X0.625000X0.350000X-0.625000X0.350000X-0.625000X-0.350000X0*%
%ADD46O,1.750000X1.200000*%
%ADD47C,3.000000*%
%ADD48RoundRect,0.250000X0.450000X-0.350000X0.450000X0.350000X-0.450000X0.350000X-0.450000X-0.350000X0*%
%ADD49RoundRect,0.160000X-0.160000X0.197500X-0.160000X-0.197500X0.160000X-0.197500X0.160000X0.197500X0*%
%ADD50RoundRect,0.250001X-0.499999X-0.999999X0.499999X-0.999999X0.499999X0.999999X-0.499999X0.999999X0*%
%ADD51R,2.200000X2.200000*%
%ADD52O,2.200000X2.200000*%
G04 APERTURE END LIST*
D10*
%TO.C,U13*%
X198475000Y-130425000D02*
X197425000Y-130425000D01*
X197425000Y-127950000D01*
X197434000Y-127950000D01*
X197443000Y-127949000D01*
X197452000Y-127948000D01*
X197461000Y-127946000D01*
X197470000Y-127944000D01*
X197479000Y-127941000D01*
X197488000Y-127938000D01*
X197496000Y-127935000D01*
X197504000Y-127931000D01*
X197512000Y-127927000D01*
X197520000Y-127922000D01*
X197528000Y-127917000D01*
X197535000Y-127911000D01*
X197542000Y-127905000D01*
X197549000Y-127899000D01*
X197555000Y-127892000D01*
X197561000Y-127885000D01*
X197567000Y-127878000D01*
X197572000Y-127870000D01*
X197577000Y-127863000D01*
X197581000Y-127854000D01*
X197585000Y-127846000D01*
X197588000Y-127838000D01*
X197591000Y-127829000D01*
X197594000Y-127820000D01*
X197596000Y-127811000D01*
X197598000Y-127802000D01*
X197599000Y-127793000D01*
X197600000Y-127784000D01*
X197600000Y-127775000D01*
X198475000Y-127775000D01*
X198475000Y-130425000D01*
G36*
X198475000Y-130425000D02*
G01*
X197425000Y-130425000D01*
X197425000Y-127950000D01*
X197434000Y-127950000D01*
X197443000Y-127949000D01*
X197452000Y-127948000D01*
X197461000Y-127946000D01*
X197470000Y-127944000D01*
X197479000Y-127941000D01*
X197488000Y-127938000D01*
X197496000Y-127935000D01*
X197504000Y-127931000D01*
X197512000Y-127927000D01*
X197520000Y-127922000D01*
X197528000Y-127917000D01*
X197535000Y-127911000D01*
X197542000Y-127905000D01*
X197549000Y-127899000D01*
X197555000Y-127892000D01*
X197561000Y-127885000D01*
X197567000Y-127878000D01*
X197572000Y-127870000D01*
X197577000Y-127863000D01*
X197581000Y-127854000D01*
X197585000Y-127846000D01*
X197588000Y-127838000D01*
X197591000Y-127829000D01*
X197594000Y-127820000D01*
X197596000Y-127811000D01*
X197598000Y-127802000D01*
X197599000Y-127793000D01*
X197600000Y-127784000D01*
X197600000Y-127775000D01*
X198475000Y-127775000D01*
X198475000Y-130425000D01*
G37*
X197400000Y-129275000D02*
X196800000Y-129275000D01*
X196800000Y-128925000D01*
X197400000Y-128925000D01*
X197400000Y-129275000D01*
G36*
X197400000Y-129275000D02*
G01*
X196800000Y-129275000D01*
X196800000Y-128925000D01*
X197400000Y-128925000D01*
X197400000Y-129275000D01*
G37*
X199100000Y-129275000D02*
X198500000Y-129275000D01*
X198500000Y-128925000D01*
X199100000Y-128925000D01*
X199100000Y-129275000D01*
G36*
X199100000Y-129275000D02*
G01*
X198500000Y-129275000D01*
X198500000Y-128925000D01*
X199100000Y-128925000D01*
X199100000Y-129275000D01*
G37*
X197400000Y-128875000D02*
X196800000Y-128875000D01*
X196800000Y-128525000D01*
X197400000Y-128525000D01*
X197400000Y-128875000D01*
G36*
X197400000Y-128875000D02*
G01*
X196800000Y-128875000D01*
X196800000Y-128525000D01*
X197400000Y-128525000D01*
X197400000Y-128875000D01*
G37*
X197400000Y-129675000D02*
X196800000Y-129675000D01*
X196800000Y-129325000D01*
X197400000Y-129325000D01*
X197400000Y-129675000D01*
G36*
X197400000Y-129675000D02*
G01*
X196800000Y-129675000D01*
X196800000Y-129325000D01*
X197400000Y-129325000D01*
X197400000Y-129675000D01*
G37*
X199100000Y-128875000D02*
X198500000Y-128875000D01*
X198500000Y-128525000D01*
X199100000Y-128525000D01*
X199100000Y-128875000D01*
G36*
X199100000Y-128875000D02*
G01*
X198500000Y-128875000D01*
X198500000Y-128525000D01*
X199100000Y-128525000D01*
X199100000Y-128875000D01*
G37*
X199100000Y-129675000D02*
X198500000Y-129675000D01*
X198500000Y-129325000D01*
X199100000Y-129325000D01*
X199100000Y-129675000D01*
G36*
X199100000Y-129675000D02*
G01*
X198500000Y-129675000D01*
X198500000Y-129325000D01*
X199100000Y-129325000D01*
X199100000Y-129675000D01*
G37*
X197400000Y-128475000D02*
X196800000Y-128475000D01*
X196800000Y-127725000D01*
X197400000Y-127725000D01*
X197400000Y-128475000D01*
G36*
X197400000Y-128475000D02*
G01*
X196800000Y-128475000D01*
X196800000Y-127725000D01*
X197400000Y-127725000D01*
X197400000Y-128475000D01*
G37*
X199100000Y-128475000D02*
X198500000Y-128475000D01*
X198500000Y-127725000D01*
X199100000Y-127725000D01*
X199100000Y-128475000D01*
G36*
X199100000Y-128475000D02*
G01*
X198500000Y-128475000D01*
X198500000Y-127725000D01*
X199100000Y-127725000D01*
X199100000Y-128475000D01*
G37*
X197400000Y-130475000D02*
X196800000Y-130475000D01*
X196800000Y-129725000D01*
X197400000Y-129725000D01*
X197400000Y-130475000D01*
G36*
X197400000Y-130475000D02*
G01*
X196800000Y-130475000D01*
X196800000Y-129725000D01*
X197400000Y-129725000D01*
X197400000Y-130475000D01*
G37*
X199100000Y-130475000D02*
X198500000Y-130475000D01*
X198500000Y-129725000D01*
X199100000Y-129725000D01*
X199100000Y-130475000D01*
G36*
X199100000Y-130475000D02*
G01*
X198500000Y-130475000D01*
X198500000Y-129725000D01*
X199100000Y-129725000D01*
X199100000Y-130475000D01*
G37*
%TO.C,J3*%
X201575000Y-76620000D02*
X200875000Y-76620000D01*
X200875000Y-75380000D01*
X201575000Y-75380000D01*
X201575000Y-76620000D01*
G36*
X201575000Y-76620000D02*
G01*
X200875000Y-76620000D01*
X200875000Y-75380000D01*
X201575000Y-75380000D01*
X201575000Y-76620000D01*
G37*
X202375000Y-76620000D02*
X201675000Y-76620000D01*
X201675000Y-75380000D01*
X202375000Y-75380000D01*
X202375000Y-76620000D01*
G36*
X202375000Y-76620000D02*
G01*
X201675000Y-76620000D01*
X201675000Y-75380000D01*
X202375000Y-75380000D01*
X202375000Y-76620000D01*
G37*
X202875000Y-76620000D02*
X202475000Y-76620000D01*
X202475000Y-75380000D01*
X202875000Y-75380000D01*
X202875000Y-76620000D01*
G36*
X202875000Y-76620000D02*
G01*
X202475000Y-76620000D01*
X202475000Y-75380000D01*
X202875000Y-75380000D01*
X202875000Y-76620000D01*
G37*
X203375000Y-76620000D02*
X202975000Y-76620000D01*
X202975000Y-75380000D01*
X203375000Y-75380000D01*
X203375000Y-76620000D01*
G36*
X203375000Y-76620000D02*
G01*
X202975000Y-76620000D01*
X202975000Y-75380000D01*
X203375000Y-75380000D01*
X203375000Y-76620000D01*
G37*
X203875000Y-76620000D02*
X203475000Y-76620000D01*
X203475000Y-75380000D01*
X203875000Y-75380000D01*
X203875000Y-76620000D01*
G36*
X203875000Y-76620000D02*
G01*
X203475000Y-76620000D01*
X203475000Y-75380000D01*
X203875000Y-75380000D01*
X203875000Y-76620000D01*
G37*
X204375000Y-76620000D02*
X203975000Y-76620000D01*
X203975000Y-75380000D01*
X204375000Y-75380000D01*
X204375000Y-76620000D01*
G36*
X204375000Y-76620000D02*
G01*
X203975000Y-76620000D01*
X203975000Y-75380000D01*
X204375000Y-75380000D01*
X204375000Y-76620000D01*
G37*
X204875000Y-76620000D02*
X204475000Y-76620000D01*
X204475000Y-75380000D01*
X204875000Y-75380000D01*
X204875000Y-76620000D01*
G36*
X204875000Y-76620000D02*
G01*
X204475000Y-76620000D01*
X204475000Y-75380000D01*
X204875000Y-75380000D01*
X204875000Y-76620000D01*
G37*
X205375000Y-76620000D02*
X204975000Y-76620000D01*
X204975000Y-75380000D01*
X205375000Y-75380000D01*
X205375000Y-76620000D01*
G36*
X205375000Y-76620000D02*
G01*
X204975000Y-76620000D01*
X204975000Y-75380000D01*
X205375000Y-75380000D01*
X205375000Y-76620000D01*
G37*
X205875000Y-76620000D02*
X205475000Y-76620000D01*
X205475000Y-75380000D01*
X205875000Y-75380000D01*
X205875000Y-76620000D01*
G36*
X205875000Y-76620000D02*
G01*
X205475000Y-76620000D01*
X205475000Y-75380000D01*
X205875000Y-75380000D01*
X205875000Y-76620000D01*
G37*
X206375000Y-76620000D02*
X205975000Y-76620000D01*
X205975000Y-75380000D01*
X206375000Y-75380000D01*
X206375000Y-76620000D01*
G36*
X206375000Y-76620000D02*
G01*
X205975000Y-76620000D01*
X205975000Y-75380000D01*
X206375000Y-75380000D01*
X206375000Y-76620000D01*
G37*
X207175000Y-76620000D02*
X206475000Y-76620000D01*
X206475000Y-75380000D01*
X207175000Y-75380000D01*
X207175000Y-76620000D01*
G36*
X207175000Y-76620000D02*
G01*
X206475000Y-76620000D01*
X206475000Y-75380000D01*
X207175000Y-75380000D01*
X207175000Y-76620000D01*
G37*
X207975000Y-76620000D02*
X207275000Y-76620000D01*
X207275000Y-75380000D01*
X207975000Y-75380000D01*
X207975000Y-76620000D01*
G36*
X207975000Y-76620000D02*
G01*
X207275000Y-76620000D01*
X207275000Y-75380000D01*
X207975000Y-75380000D01*
X207975000Y-76620000D01*
G37*
%TO.C,U7*%
X202091000Y-104094000D02*
X202099000Y-104095000D01*
X202107000Y-104096000D01*
X202114000Y-104098000D01*
X202122000Y-104100000D01*
X202129000Y-104103000D01*
X202137000Y-104106000D01*
X202144000Y-104110000D01*
X202151000Y-104113000D01*
X202158000Y-104118000D01*
X202164000Y-104122000D01*
X202171000Y-104127000D01*
X202177000Y-104132000D01*
X202182000Y-104138000D01*
X202188000Y-104143000D01*
X202193000Y-104149000D01*
X202198000Y-104156000D01*
X202202000Y-104162000D01*
X202207000Y-104169000D01*
X202210000Y-104176000D01*
X202214000Y-104183000D01*
X202217000Y-104191000D01*
X202220000Y-104198000D01*
X202222000Y-104206000D01*
X202224000Y-104213000D01*
X202225000Y-104221000D01*
X202226000Y-104229000D01*
X202227000Y-104237000D01*
X202227000Y-104245000D01*
X202227000Y-104618000D01*
X202372000Y-104618000D01*
X202373000Y-104618000D01*
X202373000Y-104243000D01*
X202373000Y-104235000D01*
X202374000Y-104227000D01*
X202375000Y-104220000D01*
X202376000Y-104212000D01*
X202378000Y-104204000D01*
X202380000Y-104197000D01*
X202383000Y-104189000D01*
X202386000Y-104182000D01*
X202389000Y-104175000D01*
X202393000Y-104168000D01*
X202397000Y-104161000D01*
X202402000Y-104155000D01*
X202406000Y-104149000D01*
X202412000Y-104143000D01*
X202417000Y-104137000D01*
X202423000Y-104132000D01*
X202429000Y-104126000D01*
X202435000Y-104122000D01*
X202441000Y-104117000D01*
X202448000Y-104113000D01*
X202455000Y-104109000D01*
X202462000Y-104106000D01*
X202469000Y-104103000D01*
X202477000Y-104100000D01*
X202484000Y-104098000D01*
X202492000Y-104096000D01*
X202500000Y-104095000D01*
X202507000Y-104094000D01*
X202515000Y-104093000D01*
X202523000Y-104093000D01*
X202626000Y-104093000D01*
X202634000Y-104093000D01*
X202642000Y-104094000D01*
X202650000Y-104095000D01*
X202657000Y-104096000D01*
X202665000Y-104098000D01*
X202673000Y-104100000D01*
X202680000Y-104103000D01*
X202687000Y-104106000D01*
X202695000Y-104109000D01*
X202701000Y-104113000D01*
X202708000Y-104117000D01*
X202715000Y-104122000D01*
X202721000Y-104127000D01*
X202727000Y-104132000D01*
X202733000Y-104137000D01*
X202738000Y-104143000D01*
X202743000Y-104149000D01*
X202748000Y-104155000D01*
X202753000Y-104162000D01*
X202757000Y-104169000D01*
X202761000Y-104175000D01*
X202764000Y-104183000D01*
X202767000Y-104190000D01*
X202770000Y-104197000D01*
X202772000Y-104205000D01*
X202774000Y-104213000D01*
X202775000Y-104220000D01*
X202776000Y-104228000D01*
X202777000Y-104236000D01*
X202777000Y-104244000D01*
X202777000Y-105018000D01*
X203275000Y-105018000D01*
X203283000Y-105018000D01*
X203291000Y-105019000D01*
X203299000Y-105020000D01*
X203307000Y-105021000D01*
X203314000Y-105023000D01*
X203322000Y-105025000D01*
X203329000Y-105028000D01*
X203337000Y-105031000D01*
X203344000Y-105035000D01*
X203351000Y-105038000D01*
X203358000Y-105043000D01*
X203364000Y-105047000D01*
X203371000Y-105052000D01*
X203377000Y-105057000D01*
X203382000Y-105063000D01*
X203388000Y-105068000D01*
X203393000Y-105074000D01*
X203398000Y-105081000D01*
X203402000Y-105087000D01*
X203407000Y-105094000D01*
X203410000Y-105101000D01*
X203414000Y-105108000D01*
X203417000Y-105116000D01*
X203420000Y-105123000D01*
X203422000Y-105131000D01*
X203424000Y-105138000D01*
X203425000Y-105146000D01*
X203426000Y-105154000D01*
X203427000Y-105162000D01*
X203427000Y-105170000D01*
X203427000Y-108121000D01*
X203427000Y-108129000D01*
X203426000Y-108137000D01*
X203425000Y-108144000D01*
X203424000Y-108152000D01*
X203422000Y-108160000D01*
X203420000Y-108167000D01*
X203417000Y-108175000D01*
X203414000Y-108182000D01*
X203411000Y-108189000D01*
X203407000Y-108196000D01*
X203403000Y-108203000D01*
X203398000Y-108209000D01*
X203394000Y-108215000D01*
X203388000Y-108221000D01*
X203383000Y-108227000D01*
X203377000Y-108232000D01*
X203371000Y-108238000D01*
X203365000Y-108242000D01*
X203359000Y-108247000D01*
X203352000Y-108251000D01*
X203345000Y-108255000D01*
X203338000Y-108258000D01*
X203331000Y-108261000D01*
X203323000Y-108264000D01*
X203316000Y-108266000D01*
X203308000Y-108268000D01*
X203300000Y-108269000D01*
X203293000Y-108270000D01*
X203285000Y-108271000D01*
X203277000Y-108271000D01*
X202778000Y-108271000D01*
X202777000Y-108271000D01*
X202777000Y-108272000D01*
X202777000Y-109046000D01*
X202777000Y-109054000D01*
X202776000Y-109062000D01*
X202775000Y-109069000D01*
X202774000Y-109077000D01*
X202772000Y-109085000D01*
X202770000Y-109092000D01*
X202767000Y-109100000D01*
X202764000Y-109107000D01*
X202761000Y-109114000D01*
X202757000Y-109121000D01*
X202753000Y-109128000D01*
X202748000Y-109134000D01*
X202744000Y-109140000D01*
X202738000Y-109146000D01*
X202733000Y-109152000D01*
X202727000Y-109157000D01*
X202721000Y-109163000D01*
X202715000Y-109167000D01*
X202709000Y-109172000D01*
X202702000Y-109176000D01*
X202695000Y-109180000D01*
X202688000Y-109183000D01*
X202681000Y-109186000D01*
X202673000Y-109189000D01*
X202666000Y-109191000D01*
X202658000Y-109193000D01*
X202650000Y-109194000D01*
X202643000Y-109195000D01*
X202635000Y-109196000D01*
X202627000Y-109196000D01*
X202522000Y-109196000D01*
X202514000Y-109196000D01*
X202506000Y-109195000D01*
X202499000Y-109194000D01*
X202491000Y-109193000D01*
X202483000Y-109191000D01*
X202476000Y-109189000D01*
X202469000Y-109186000D01*
X202461000Y-109183000D01*
X202454000Y-109180000D01*
X202447000Y-109176000D01*
X202441000Y-109172000D01*
X202434000Y-109168000D01*
X202428000Y-109163000D01*
X202422000Y-109158000D01*
X202417000Y-109152000D01*
X202411000Y-109147000D01*
X202406000Y-109141000D01*
X202401000Y-109135000D01*
X202397000Y-109128000D01*
X202393000Y-109122000D01*
X202389000Y-109115000D01*
X202386000Y-109108000D01*
X202383000Y-109100000D01*
X202380000Y-109093000D01*
X202378000Y-109086000D01*
X202376000Y-109078000D01*
X202375000Y-109070000D01*
X202374000Y-109063000D01*
X202373000Y-109055000D01*
X202373000Y-109047000D01*
X202373000Y-108672000D01*
X202228000Y-108672000D01*
X202227000Y-108672000D01*
X202227000Y-108673000D01*
X202227000Y-109046000D01*
X202227000Y-109054000D01*
X202226000Y-109062000D01*
X202225000Y-109069000D01*
X202224000Y-109077000D01*
X202222000Y-109085000D01*
X202220000Y-109092000D01*
X202217000Y-109100000D01*
X202214000Y-109107000D01*
X202211000Y-109114000D01*
X202207000Y-109121000D01*
X202203000Y-109128000D01*
X202198000Y-109134000D01*
X202194000Y-109140000D01*
X202188000Y-109146000D01*
X202183000Y-109152000D01*
X202177000Y-109157000D01*
X202171000Y-109163000D01*
X202165000Y-109167000D01*
X202159000Y-109172000D01*
X202152000Y-109176000D01*
X202145000Y-109180000D01*
X202138000Y-109183000D01*
X202131000Y-109186000D01*
X202123000Y-109189000D01*
X202116000Y-109191000D01*
X202108000Y-109193000D01*
X202100000Y-109194000D01*
X202093000Y-109195000D01*
X202085000Y-109196000D01*
X202077000Y-109196000D01*
X201971000Y-109196000D01*
X201963000Y-109196000D01*
X201956000Y-109195000D01*
X201948000Y-109194000D01*
X201940000Y-109193000D01*
X201933000Y-109191000D01*
X201925000Y-109189000D01*
X201918000Y-109186000D01*
X201911000Y-109183000D01*
X201904000Y-109180000D01*
X201897000Y-109176000D01*
X201890000Y-109172000D01*
X201884000Y-109168000D01*
X201878000Y-109163000D01*
X201872000Y-109158000D01*
X201866000Y-109153000D01*
X201861000Y-109147000D01*
X201856000Y-109141000D01*
X201851000Y-109135000D01*
X201847000Y-109129000D01*
X201843000Y-109122000D01*
X201839000Y-109115000D01*
X201836000Y-109108000D01*
X201833000Y-109101000D01*
X201830000Y-109094000D01*
X201828000Y-109086000D01*
X201826000Y-109079000D01*
X201825000Y-109071000D01*
X201824000Y-109063000D01*
X201823000Y-109056000D01*
X201823000Y-109048000D01*
X201823000Y-108272000D01*
X201325000Y-108272000D01*
X201317000Y-108272000D01*
X201309000Y-108271000D01*
X201301000Y-108270000D01*
X201293000Y-108269000D01*
X201286000Y-108267000D01*
X201278000Y-108265000D01*
X201271000Y-108262000D01*
X201263000Y-108259000D01*
X201256000Y-108255000D01*
X201249000Y-108252000D01*
X201242000Y-108247000D01*
X201236000Y-108243000D01*
X201229000Y-108238000D01*
X201223000Y-108233000D01*
X201218000Y-108227000D01*
X201212000Y-108222000D01*
X201207000Y-108216000D01*
X201202000Y-108209000D01*
X201198000Y-108203000D01*
X201193000Y-108196000D01*
X201190000Y-108189000D01*
X201186000Y-108182000D01*
X201183000Y-108174000D01*
X201180000Y-108167000D01*
X201178000Y-108159000D01*
X201176000Y-108152000D01*
X201175000Y-108144000D01*
X201174000Y-108136000D01*
X201173000Y-108128000D01*
X201173000Y-108120000D01*
X201173000Y-105171000D01*
X201173000Y-105163000D01*
X201174000Y-105155000D01*
X201175000Y-105147000D01*
X201176000Y-105139000D01*
X201178000Y-105132000D01*
X201180000Y-105124000D01*
X201183000Y-105117000D01*
X201186000Y-105109000D01*
X201190000Y-105102000D01*
X201193000Y-105095000D01*
X201198000Y-105088000D01*
X201202000Y-105082000D01*
X201207000Y-105075000D01*
X201212000Y-105069000D01*
X201218000Y-105064000D01*
X201223000Y-105058000D01*
X201229000Y-105053000D01*
X201236000Y-105048000D01*
X201242000Y-105044000D01*
X201249000Y-105039000D01*
X201256000Y-105036000D01*
X201263000Y-105032000D01*
X201271000Y-105029000D01*
X201278000Y-105026000D01*
X201286000Y-105024000D01*
X201293000Y-105022000D01*
X201301000Y-105021000D01*
X201309000Y-105020000D01*
X201317000Y-105019000D01*
X201325000Y-105019000D01*
X201822000Y-105019000D01*
X201823000Y-105019000D01*
X201823000Y-105018000D01*
X201823000Y-104245000D01*
X201823000Y-104237000D01*
X201824000Y-104229000D01*
X201825000Y-104221000D01*
X201826000Y-104213000D01*
X201828000Y-104206000D01*
X201830000Y-104198000D01*
X201833000Y-104191000D01*
X201836000Y-104183000D01*
X201840000Y-104176000D01*
X201843000Y-104169000D01*
X201848000Y-104162000D01*
X201852000Y-104156000D01*
X201857000Y-104149000D01*
X201862000Y-104143000D01*
X201868000Y-104138000D01*
X201873000Y-104132000D01*
X201879000Y-104127000D01*
X201886000Y-104122000D01*
X201892000Y-104118000D01*
X201899000Y-104113000D01*
X201906000Y-104110000D01*
X201913000Y-104106000D01*
X201921000Y-104103000D01*
X201928000Y-104100000D01*
X201936000Y-104098000D01*
X201943000Y-104096000D01*
X201951000Y-104095000D01*
X201959000Y-104094000D01*
X201967000Y-104093000D01*
X201975000Y-104093000D01*
X202075000Y-104093000D01*
X202083000Y-104093000D01*
X202091000Y-104094000D01*
G36*
X202091000Y-104094000D02*
G01*
X202099000Y-104095000D01*
X202107000Y-104096000D01*
X202114000Y-104098000D01*
X202122000Y-104100000D01*
X202129000Y-104103000D01*
X202137000Y-104106000D01*
X202144000Y-104110000D01*
X202151000Y-104113000D01*
X202158000Y-104118000D01*
X202164000Y-104122000D01*
X202171000Y-104127000D01*
X202177000Y-104132000D01*
X202182000Y-104138000D01*
X202188000Y-104143000D01*
X202193000Y-104149000D01*
X202198000Y-104156000D01*
X202202000Y-104162000D01*
X202207000Y-104169000D01*
X202210000Y-104176000D01*
X202214000Y-104183000D01*
X202217000Y-104191000D01*
X202220000Y-104198000D01*
X202222000Y-104206000D01*
X202224000Y-104213000D01*
X202225000Y-104221000D01*
X202226000Y-104229000D01*
X202227000Y-104237000D01*
X202227000Y-104245000D01*
X202227000Y-104618000D01*
X202372000Y-104618000D01*
X202373000Y-104618000D01*
X202373000Y-104243000D01*
X202373000Y-104235000D01*
X202374000Y-104227000D01*
X202375000Y-104220000D01*
X202376000Y-104212000D01*
X202378000Y-104204000D01*
X202380000Y-104197000D01*
X202383000Y-104189000D01*
X202386000Y-104182000D01*
X202389000Y-104175000D01*
X202393000Y-104168000D01*
X202397000Y-104161000D01*
X202402000Y-104155000D01*
X202406000Y-104149000D01*
X202412000Y-104143000D01*
X202417000Y-104137000D01*
X202423000Y-104132000D01*
X202429000Y-104126000D01*
X202435000Y-104122000D01*
X202441000Y-104117000D01*
X202448000Y-104113000D01*
X202455000Y-104109000D01*
X202462000Y-104106000D01*
X202469000Y-104103000D01*
X202477000Y-104100000D01*
X202484000Y-104098000D01*
X202492000Y-104096000D01*
X202500000Y-104095000D01*
X202507000Y-104094000D01*
X202515000Y-104093000D01*
X202523000Y-104093000D01*
X202626000Y-104093000D01*
X202634000Y-104093000D01*
X202642000Y-104094000D01*
X202650000Y-104095000D01*
X202657000Y-104096000D01*
X202665000Y-104098000D01*
X202673000Y-104100000D01*
X202680000Y-104103000D01*
X202687000Y-104106000D01*
X202695000Y-104109000D01*
X202701000Y-104113000D01*
X202708000Y-104117000D01*
X202715000Y-104122000D01*
X202721000Y-104127000D01*
X202727000Y-104132000D01*
X202733000Y-104137000D01*
X202738000Y-104143000D01*
X202743000Y-104149000D01*
X202748000Y-104155000D01*
X202753000Y-104162000D01*
X202757000Y-104169000D01*
X202761000Y-104175000D01*
X202764000Y-104183000D01*
X202767000Y-104190000D01*
X202770000Y-104197000D01*
X202772000Y-104205000D01*
X202774000Y-104213000D01*
X202775000Y-104220000D01*
X202776000Y-104228000D01*
X202777000Y-104236000D01*
X202777000Y-104244000D01*
X202777000Y-105018000D01*
X203275000Y-105018000D01*
X203283000Y-105018000D01*
X203291000Y-105019000D01*
X203299000Y-105020000D01*
X203307000Y-105021000D01*
X203314000Y-105023000D01*
X203322000Y-105025000D01*
X203329000Y-105028000D01*
X203337000Y-105031000D01*
X203344000Y-105035000D01*
X203351000Y-105038000D01*
X203358000Y-105043000D01*
X203364000Y-105047000D01*
X203371000Y-105052000D01*
X203377000Y-105057000D01*
X203382000Y-105063000D01*
X203388000Y-105068000D01*
X203393000Y-105074000D01*
X203398000Y-105081000D01*
X203402000Y-105087000D01*
X203407000Y-105094000D01*
X203410000Y-105101000D01*
X203414000Y-105108000D01*
X203417000Y-105116000D01*
X203420000Y-105123000D01*
X203422000Y-105131000D01*
X203424000Y-105138000D01*
X203425000Y-105146000D01*
X203426000Y-105154000D01*
X203427000Y-105162000D01*
X203427000Y-105170000D01*
X203427000Y-108121000D01*
X203427000Y-108129000D01*
X203426000Y-108137000D01*
X203425000Y-108144000D01*
X203424000Y-108152000D01*
X203422000Y-108160000D01*
X203420000Y-108167000D01*
X203417000Y-108175000D01*
X203414000Y-108182000D01*
X203411000Y-108189000D01*
X203407000Y-108196000D01*
X203403000Y-108203000D01*
X203398000Y-108209000D01*
X203394000Y-108215000D01*
X203388000Y-108221000D01*
X203383000Y-108227000D01*
X203377000Y-108232000D01*
X203371000Y-108238000D01*
X203365000Y-108242000D01*
X203359000Y-108247000D01*
X203352000Y-108251000D01*
X203345000Y-108255000D01*
X203338000Y-108258000D01*
X203331000Y-108261000D01*
X203323000Y-108264000D01*
X203316000Y-108266000D01*
X203308000Y-108268000D01*
X203300000Y-108269000D01*
X203293000Y-108270000D01*
X203285000Y-108271000D01*
X203277000Y-108271000D01*
X202778000Y-108271000D01*
X202777000Y-108271000D01*
X202777000Y-108272000D01*
X202777000Y-109046000D01*
X202777000Y-109054000D01*
X202776000Y-109062000D01*
X202775000Y-109069000D01*
X202774000Y-109077000D01*
X202772000Y-109085000D01*
X202770000Y-109092000D01*
X202767000Y-109100000D01*
X202764000Y-109107000D01*
X202761000Y-109114000D01*
X202757000Y-109121000D01*
X202753000Y-109128000D01*
X202748000Y-109134000D01*
X202744000Y-109140000D01*
X202738000Y-109146000D01*
X202733000Y-109152000D01*
X202727000Y-109157000D01*
X202721000Y-109163000D01*
X202715000Y-109167000D01*
X202709000Y-109172000D01*
X202702000Y-109176000D01*
X202695000Y-109180000D01*
X202688000Y-109183000D01*
X202681000Y-109186000D01*
X202673000Y-109189000D01*
X202666000Y-109191000D01*
X202658000Y-109193000D01*
X202650000Y-109194000D01*
X202643000Y-109195000D01*
X202635000Y-109196000D01*
X202627000Y-109196000D01*
X202522000Y-109196000D01*
X202514000Y-109196000D01*
X202506000Y-109195000D01*
X202499000Y-109194000D01*
X202491000Y-109193000D01*
X202483000Y-109191000D01*
X202476000Y-109189000D01*
X202469000Y-109186000D01*
X202461000Y-109183000D01*
X202454000Y-109180000D01*
X202447000Y-109176000D01*
X202441000Y-109172000D01*
X202434000Y-109168000D01*
X202428000Y-109163000D01*
X202422000Y-109158000D01*
X202417000Y-109152000D01*
X202411000Y-109147000D01*
X202406000Y-109141000D01*
X202401000Y-109135000D01*
X202397000Y-109128000D01*
X202393000Y-109122000D01*
X202389000Y-109115000D01*
X202386000Y-109108000D01*
X202383000Y-109100000D01*
X202380000Y-109093000D01*
X202378000Y-109086000D01*
X202376000Y-109078000D01*
X202375000Y-109070000D01*
X202374000Y-109063000D01*
X202373000Y-109055000D01*
X202373000Y-109047000D01*
X202373000Y-108672000D01*
X202228000Y-108672000D01*
X202227000Y-108672000D01*
X202227000Y-108673000D01*
X202227000Y-109046000D01*
X202227000Y-109054000D01*
X202226000Y-109062000D01*
X202225000Y-109069000D01*
X202224000Y-109077000D01*
X202222000Y-109085000D01*
X202220000Y-109092000D01*
X202217000Y-109100000D01*
X202214000Y-109107000D01*
X202211000Y-109114000D01*
X202207000Y-109121000D01*
X202203000Y-109128000D01*
X202198000Y-109134000D01*
X202194000Y-109140000D01*
X202188000Y-109146000D01*
X202183000Y-109152000D01*
X202177000Y-109157000D01*
X202171000Y-109163000D01*
X202165000Y-109167000D01*
X202159000Y-109172000D01*
X202152000Y-109176000D01*
X202145000Y-109180000D01*
X202138000Y-109183000D01*
X202131000Y-109186000D01*
X202123000Y-109189000D01*
X202116000Y-109191000D01*
X202108000Y-109193000D01*
X202100000Y-109194000D01*
X202093000Y-109195000D01*
X202085000Y-109196000D01*
X202077000Y-109196000D01*
X201971000Y-109196000D01*
X201963000Y-109196000D01*
X201956000Y-109195000D01*
X201948000Y-109194000D01*
X201940000Y-109193000D01*
X201933000Y-109191000D01*
X201925000Y-109189000D01*
X201918000Y-109186000D01*
X201911000Y-109183000D01*
X201904000Y-109180000D01*
X201897000Y-109176000D01*
X201890000Y-109172000D01*
X201884000Y-109168000D01*
X201878000Y-109163000D01*
X201872000Y-109158000D01*
X201866000Y-109153000D01*
X201861000Y-109147000D01*
X201856000Y-109141000D01*
X201851000Y-109135000D01*
X201847000Y-109129000D01*
X201843000Y-109122000D01*
X201839000Y-109115000D01*
X201836000Y-109108000D01*
X201833000Y-109101000D01*
X201830000Y-109094000D01*
X201828000Y-109086000D01*
X201826000Y-109079000D01*
X201825000Y-109071000D01*
X201824000Y-109063000D01*
X201823000Y-109056000D01*
X201823000Y-109048000D01*
X201823000Y-108272000D01*
X201325000Y-108272000D01*
X201317000Y-108272000D01*
X201309000Y-108271000D01*
X201301000Y-108270000D01*
X201293000Y-108269000D01*
X201286000Y-108267000D01*
X201278000Y-108265000D01*
X201271000Y-108262000D01*
X201263000Y-108259000D01*
X201256000Y-108255000D01*
X201249000Y-108252000D01*
X201242000Y-108247000D01*
X201236000Y-108243000D01*
X201229000Y-108238000D01*
X201223000Y-108233000D01*
X201218000Y-108227000D01*
X201212000Y-108222000D01*
X201207000Y-108216000D01*
X201202000Y-108209000D01*
X201198000Y-108203000D01*
X201193000Y-108196000D01*
X201190000Y-108189000D01*
X201186000Y-108182000D01*
X201183000Y-108174000D01*
X201180000Y-108167000D01*
X201178000Y-108159000D01*
X201176000Y-108152000D01*
X201175000Y-108144000D01*
X201174000Y-108136000D01*
X201173000Y-108128000D01*
X201173000Y-108120000D01*
X201173000Y-105171000D01*
X201173000Y-105163000D01*
X201174000Y-105155000D01*
X201175000Y-105147000D01*
X201176000Y-105139000D01*
X201178000Y-105132000D01*
X201180000Y-105124000D01*
X201183000Y-105117000D01*
X201186000Y-105109000D01*
X201190000Y-105102000D01*
X201193000Y-105095000D01*
X201198000Y-105088000D01*
X201202000Y-105082000D01*
X201207000Y-105075000D01*
X201212000Y-105069000D01*
X201218000Y-105064000D01*
X201223000Y-105058000D01*
X201229000Y-105053000D01*
X201236000Y-105048000D01*
X201242000Y-105044000D01*
X201249000Y-105039000D01*
X201256000Y-105036000D01*
X201263000Y-105032000D01*
X201271000Y-105029000D01*
X201278000Y-105026000D01*
X201286000Y-105024000D01*
X201293000Y-105022000D01*
X201301000Y-105021000D01*
X201309000Y-105020000D01*
X201317000Y-105019000D01*
X201325000Y-105019000D01*
X201822000Y-105019000D01*
X201823000Y-105019000D01*
X201823000Y-105018000D01*
X201823000Y-104245000D01*
X201823000Y-104237000D01*
X201824000Y-104229000D01*
X201825000Y-104221000D01*
X201826000Y-104213000D01*
X201828000Y-104206000D01*
X201830000Y-104198000D01*
X201833000Y-104191000D01*
X201836000Y-104183000D01*
X201840000Y-104176000D01*
X201843000Y-104169000D01*
X201848000Y-104162000D01*
X201852000Y-104156000D01*
X201857000Y-104149000D01*
X201862000Y-104143000D01*
X201868000Y-104138000D01*
X201873000Y-104132000D01*
X201879000Y-104127000D01*
X201886000Y-104122000D01*
X201892000Y-104118000D01*
X201899000Y-104113000D01*
X201906000Y-104110000D01*
X201913000Y-104106000D01*
X201921000Y-104103000D01*
X201928000Y-104100000D01*
X201936000Y-104098000D01*
X201943000Y-104096000D01*
X201951000Y-104095000D01*
X201959000Y-104094000D01*
X201967000Y-104093000D01*
X201975000Y-104093000D01*
X202075000Y-104093000D01*
X202083000Y-104093000D01*
X202091000Y-104094000D01*
G37*
%TD*%
D11*
%TO.C,U15*%
X174935000Y-112655000D03*
X174935000Y-113925000D03*
X174935000Y-115195000D03*
X174935000Y-116465000D03*
X179885000Y-116465000D03*
X179885000Y-115195000D03*
X179885000Y-113925000D03*
X179885000Y-112655000D03*
D12*
X177410000Y-114560000D03*
%TD*%
D11*
%TO.C,U14*%
X174935000Y-106075000D03*
X174935000Y-107345000D03*
X174935000Y-108615000D03*
X174935000Y-109885000D03*
X179885000Y-109885000D03*
X179885000Y-108615000D03*
X179885000Y-107345000D03*
X179885000Y-106075000D03*
%TD*%
D13*
%TO.C,TP14*%
X171160000Y-122850000D03*
%TD*%
%TO.C,TP13*%
X171160000Y-118800000D03*
%TD*%
%TO.C,TP12*%
X171160000Y-114750000D03*
%TD*%
%TO.C,TP11*%
X171160000Y-110700000D03*
%TD*%
%TO.C,TP10*%
X171160000Y-106650000D03*
%TD*%
D14*
%TO.C,R34*%
X180457500Y-129390000D03*
X182282500Y-129390000D03*
%TD*%
%TO.C,R33*%
X180457500Y-126880000D03*
X182282500Y-126880000D03*
%TD*%
D15*
%TO.C,R28*%
X183010000Y-110720000D03*
X185010000Y-110720000D03*
%TD*%
D16*
%TO.C,R27*%
X180620000Y-123980000D03*
X183720000Y-123980000D03*
%TD*%
D17*
%TO.C,Q2*%
X183142500Y-106075000D03*
X183142500Y-107975000D03*
X185017500Y-107025000D03*
%TD*%
D18*
%TO.C,L5*%
X161210000Y-126750000D03*
X167610000Y-126750000D03*
%TD*%
%TO.C,L4*%
X161210000Y-117900000D03*
X167610000Y-117900000D03*
%TD*%
%TO.C,L3*%
X161210000Y-109050000D03*
X167610000Y-109050000D03*
%TD*%
D19*
%TO.C,D3*%
X181265000Y-120060000D03*
X185265000Y-120060000D03*
%TD*%
D20*
%TO.C,C15*%
X174627500Y-126160000D03*
X177752500Y-126160000D03*
%TD*%
%TO.C,C14*%
X174627500Y-122810000D03*
X177752500Y-122810000D03*
%TD*%
%TO.C,C12*%
X174627500Y-119460000D03*
X177752500Y-119460000D03*
%TD*%
D21*
%TO.C,J3*%
X200100000Y-71250000D03*
X208750000Y-71250000D03*
D22*
X200100000Y-75420000D03*
X208750000Y-75420000D03*
%TD*%
D14*
%TO.C,R19*%
X180052500Y-94990000D03*
X178227500Y-94990000D03*
%TD*%
D23*
%TO.C,U9*%
X206180000Y-80917500D03*
D24*
X208180000Y-83555000D03*
X207180000Y-83555000D03*
X206180000Y-83555000D03*
X205180000Y-83555000D03*
X204180000Y-83555000D03*
X204180000Y-78280000D03*
X205180000Y-78280000D03*
X206180000Y-78280000D03*
X207180000Y-78280000D03*
X208180000Y-78280000D03*
%TD*%
D25*
%TO.C,C45*%
X163440000Y-143045000D03*
X161365000Y-143045000D03*
%TD*%
D26*
%TO.C,C30*%
X162777500Y-145805000D03*
X161227500Y-145805000D03*
%TD*%
D27*
%TO.C,C31*%
X154635000Y-136205000D03*
X152910000Y-136205000D03*
%TD*%
D28*
%TO.C,U12*%
X163560000Y-135970000D03*
X163560000Y-136620000D03*
X163560000Y-137270000D03*
X163560000Y-137920000D03*
X163560000Y-138570000D03*
X163560000Y-139220000D03*
X163560000Y-139870000D03*
X163560000Y-140520000D03*
X157835000Y-140520000D03*
X157835000Y-139870000D03*
X157835000Y-139220000D03*
X157835000Y-138570000D03*
X157835000Y-137920000D03*
X157835000Y-137270000D03*
X157835000Y-136620000D03*
X157835000Y-135970000D03*
%TD*%
D13*
%TO.C,TP8*%
X157972500Y-147615000D03*
%TD*%
D14*
%TO.C,R30*%
X154685000Y-141225000D03*
X152860000Y-141225000D03*
%TD*%
%TO.C,R29*%
X154685000Y-138715000D03*
X152860000Y-138715000D03*
%TD*%
%TO.C,R32*%
X154685000Y-146245000D03*
X152860000Y-146245000D03*
%TD*%
D13*
%TO.C,TP6*%
X157972500Y-143565000D03*
%TD*%
D14*
%TO.C,R31*%
X154685000Y-143735000D03*
X152860000Y-143735000D03*
%TD*%
D26*
%TO.C,C28*%
X176642500Y-142780000D03*
X175092500Y-142780000D03*
%TD*%
D27*
%TO.C,C29*%
X180857500Y-139090000D03*
X179132500Y-139090000D03*
%TD*%
D25*
%TO.C,C41*%
X181087500Y-135830000D03*
X179012500Y-135830000D03*
%TD*%
D16*
%TO.C,R35*%
X173162500Y-143030000D03*
X170062500Y-143030000D03*
%TD*%
D13*
%TO.C,TP4*%
X173892500Y-145940000D03*
%TD*%
D28*
%TO.C,U11*%
X176285000Y-135355000D03*
X176285000Y-136005000D03*
X176285000Y-136655000D03*
X176285000Y-137305000D03*
X176285000Y-137955000D03*
X176285000Y-138605000D03*
X176285000Y-139255000D03*
X176285000Y-139905000D03*
X170560000Y-139905000D03*
X170560000Y-139255000D03*
X170560000Y-138605000D03*
X170560000Y-137955000D03*
X170560000Y-137305000D03*
X170560000Y-136655000D03*
X170560000Y-136005000D03*
X170560000Y-135355000D03*
%TD*%
D13*
%TO.C,TP2*%
X180122500Y-146110000D03*
%TD*%
D29*
%TO.C,R26*%
X181782500Y-141580000D03*
X178682500Y-141580000D03*
%TD*%
D30*
%TO.C,C23*%
X188942500Y-87427500D03*
X188942500Y-84302500D03*
%TD*%
D31*
%TO.C,C7*%
X181850000Y-72610000D03*
X178725000Y-72610000D03*
%TD*%
D13*
%TO.C,Testpoint1*%
X160250000Y-72330000D03*
%TD*%
%TO.C,TP21*%
X166260000Y-88740000D03*
%TD*%
D32*
%TO.C,U7*%
X201550000Y-104495000D03*
D33*
X200650000Y-104895000D03*
X200650000Y-105395000D03*
X200650000Y-105895000D03*
X200650000Y-106395000D03*
X200650000Y-106895000D03*
X200650000Y-107395000D03*
X200650000Y-107895000D03*
X200650000Y-108395000D03*
D32*
X201550000Y-108795000D03*
X203050000Y-108795000D03*
D33*
X203950000Y-108395000D03*
X203950000Y-107895000D03*
X203950000Y-107395000D03*
X203950000Y-106895000D03*
X203950000Y-106395000D03*
X203950000Y-105895000D03*
X203950000Y-105395000D03*
X203950000Y-104895000D03*
D32*
X203050000Y-104495000D03*
D34*
X202300000Y-106645000D03*
D35*
X202300000Y-105370000D03*
X201525000Y-106120000D03*
X202300000Y-106120000D03*
X203075000Y-106120000D03*
X201525000Y-107170000D03*
X202300000Y-107170000D03*
X203075000Y-107170000D03*
X202300000Y-107920000D03*
%TD*%
D11*
%TO.C,U1*%
X169995000Y-72945000D03*
X169995000Y-74215000D03*
X169995000Y-75485000D03*
X169995000Y-76755000D03*
X174945000Y-76755000D03*
X174945000Y-75485000D03*
X174945000Y-74215000D03*
X174945000Y-72945000D03*
%TD*%
D31*
%TO.C,C4*%
X184120000Y-80450000D03*
X180995000Y-80450000D03*
%TD*%
D13*
%TO.C,TP17*%
X177620000Y-81980000D03*
%TD*%
D36*
%TO.C,L1*%
X188945000Y-75830000D03*
X188945000Y-77580000D03*
%TD*%
D30*
%TO.C,C43*%
X198992500Y-87427500D03*
X198992500Y-84302500D03*
%TD*%
D20*
%TO.C,C22*%
X189057500Y-102470000D03*
X192182500Y-102470000D03*
%TD*%
D30*
%TO.C,C13*%
X185592500Y-87427500D03*
X185592500Y-84302500D03*
%TD*%
%TO.C,C42*%
X195642500Y-87427500D03*
X195642500Y-84302500D03*
%TD*%
D37*
%TO.C,R18*%
X204460000Y-85737500D03*
X204460000Y-87562500D03*
%TD*%
D38*
%TO.C,R6*%
X188907500Y-105620000D03*
X190732500Y-105620000D03*
%TD*%
D39*
%TO.C,J1*%
X156800000Y-86140000D03*
D40*
X154260000Y-86140000D03*
X156800000Y-88680000D03*
X154260000Y-88680000D03*
X156800000Y-91220000D03*
X154260000Y-91220000D03*
X156800000Y-93760000D03*
X154260000Y-93760000D03*
X156800000Y-96300000D03*
X154260000Y-96300000D03*
X156800000Y-98840000D03*
X154260000Y-98840000D03*
X156800000Y-101380000D03*
X154260000Y-101380000D03*
X156800000Y-103920000D03*
X154260000Y-103920000D03*
X156800000Y-106460000D03*
X154260000Y-106460000D03*
X156800000Y-109000000D03*
X154260000Y-109000000D03*
X156800000Y-111540000D03*
X154260000Y-111540000D03*
X156800000Y-114080000D03*
X154260000Y-114080000D03*
X156800000Y-116620000D03*
X154260000Y-116620000D03*
X156800000Y-119160000D03*
X154260000Y-119160000D03*
X156800000Y-121700000D03*
X154260000Y-121700000D03*
X156800000Y-124240000D03*
X154260000Y-124240000D03*
%TD*%
D41*
%TO.C,C17*%
X188652500Y-110050000D03*
X189787500Y-110050000D03*
%TD*%
%TO.C,C32*%
X182352500Y-96690000D03*
X183487500Y-96690000D03*
%TD*%
D31*
%TO.C,C2*%
X181500000Y-85980000D03*
X178375000Y-85980000D03*
%TD*%
D20*
%TO.C,C20*%
X189057500Y-95770000D03*
X192182500Y-95770000D03*
%TD*%
D42*
%TO.C,R1*%
X166910000Y-76050000D03*
X166910000Y-72950000D03*
%TD*%
D16*
%TO.C,R5*%
X195050000Y-104590000D03*
X198150000Y-104590000D03*
%TD*%
D43*
%TO.C,C1*%
X204785000Y-102090000D03*
X203650000Y-102090000D03*
%TD*%
D31*
%TO.C,C5*%
X189550000Y-80480000D03*
X186425000Y-80480000D03*
%TD*%
D15*
%TO.C,R8*%
X195000000Y-101470000D03*
X197000000Y-101470000D03*
%TD*%
D27*
%TO.C,C18*%
X200887500Y-111120000D03*
X202612500Y-111120000D03*
%TD*%
D15*
%TO.C,R7*%
X195000000Y-98520000D03*
X197000000Y-98520000D03*
%TD*%
D41*
%TO.C,C16*%
X188652500Y-108080000D03*
X189787500Y-108080000D03*
%TD*%
D15*
%TO.C,R4*%
X195000000Y-95570000D03*
X197000000Y-95570000D03*
%TD*%
D44*
%TO.C,C24*%
X207510000Y-90447500D03*
X207510000Y-89312500D03*
%TD*%
D20*
%TO.C,C26*%
X178407500Y-92060000D03*
X181532500Y-92060000D03*
%TD*%
D45*
%TO.C,J2*%
X153960000Y-75960000D03*
D46*
X153960000Y-73960000D03*
%TD*%
D26*
%TO.C,C35*%
X178195000Y-97500000D03*
X179745000Y-97500000D03*
%TD*%
D30*
%TO.C,C25*%
X192292500Y-87427500D03*
X192292500Y-84302500D03*
%TD*%
D41*
%TO.C,C34*%
X182352500Y-100630000D03*
X183487500Y-100630000D03*
%TD*%
D47*
%TO.C,SW1*%
X162160000Y-88780000D03*
X162160000Y-83980000D03*
X162160000Y-79180000D03*
%TD*%
D25*
%TO.C,C44*%
X184342500Y-91890000D03*
X186417500Y-91890000D03*
%TD*%
D48*
%TO.C,R16*%
X207510000Y-87760000D03*
X207510000Y-85760000D03*
%TD*%
D25*
%TO.C,C39*%
X199742500Y-101440000D03*
X201817500Y-101440000D03*
%TD*%
D16*
%TO.C,R21*%
X195050000Y-107880000D03*
X198150000Y-107880000D03*
%TD*%
D31*
%TO.C,C6*%
X185605000Y-76220000D03*
X182480000Y-76220000D03*
%TD*%
D26*
%TO.C,C36*%
X178195000Y-100010000D03*
X179745000Y-100010000D03*
%TD*%
D41*
%TO.C,C27*%
X182352500Y-94720000D03*
X183487500Y-94720000D03*
%TD*%
%TO.C,C33*%
X182352500Y-98660000D03*
X183487500Y-98660000D03*
%TD*%
D26*
%TO.C,C19*%
X194855000Y-110780000D03*
X196405000Y-110780000D03*
%TD*%
D49*
%TO.C,R15*%
X204370000Y-89262500D03*
X204370000Y-90457500D03*
%TD*%
D50*
%TO.C,L2*%
X199900000Y-97015000D03*
X203600000Y-97015000D03*
%TD*%
D51*
%TO.C,D1*%
X185895000Y-72840000D03*
D52*
X196055000Y-72840000D03*
%TD*%
D13*
%TO.C,TP16*%
X200845000Y-80780000D03*
%TD*%
D20*
%TO.C,C21*%
X189057500Y-99120000D03*
X192182500Y-99120000D03*
%TD*%
D13*
%TO.C,TP22*%
X206850000Y-96990000D03*
%TD*%
%TO.C,TP20*%
X207650000Y-105290000D03*
%TD*%
D11*
%TO.C,U2*%
X192565000Y-77150000D03*
X192565000Y-78420000D03*
X192565000Y-79690000D03*
X192565000Y-80960000D03*
X197515000Y-80960000D03*
X197515000Y-79690000D03*
X197515000Y-78420000D03*
X197515000Y-77150000D03*
%TD*%
M02*
