%TF.GenerationSoftware,KiCad,Pcbnew,9.0.0*%
%TF.CreationDate,2025-03-26T21:47:53+02:00*%
%TF.ProjectId,EEE3088F Micromouse Design,45454533-3038-4384-9620-4d6963726f6d,rev?*%
%TF.SameCoordinates,Original*%
%TF.FileFunction,Legend,Top*%
%TF.FilePolarity,Positive*%
%FSLAX46Y46*%
G04 Gerber Fmt 4.6, Leading zero omitted, Abs format (unit mm)*
G04 Created by KiCad (PCBNEW 9.0.0) date 2025-03-26 21:47:53*
%MOMM*%
%LPD*%
G01*
G04 APERTURE LIST*
G04 Aperture macros list*
%AMRoundRect*
0 Rectangle with rounded corners*
0 $1 Rounding radius*
0 $2 $3 $4 $5 $6 $7 $8 $9 X,Y pos of 4 corners*
0 Add a 4 corners polygon primitive as box body*
4,1,4,$2,$3,$4,$5,$6,$7,$8,$9,$2,$3,0*
0 Add four circle primitives for the rounded corners*
1,1,$1+$1,$2,$3*
1,1,$1+$1,$4,$5*
1,1,$1+$1,$6,$7*
1,1,$1+$1,$8,$9*
0 Add four rect primitives between the rounded corners*
20,1,$1+$1,$2,$3,$4,$5,0*
20,1,$1+$1,$4,$5,$6,$7,0*
20,1,$1+$1,$6,$7,$8,$9,0*
20,1,$1+$1,$8,$9,$2,$3,0*%
G04 Aperture macros list end*
%ADD10C,0.150000*%
%ADD11C,0.100000*%
%ADD12C,0.120000*%
%ADD13C,0.200000*%
%ADD14C,0.010000*%
%ADD15RoundRect,0.150000X0.150000X-0.825000X0.150000X0.825000X-0.150000X0.825000X-0.150000X-0.825000X0*%
%ADD16R,3.300000X2.410000*%
%ADD17RoundRect,0.100000X0.100000X-0.637500X0.100000X0.637500X-0.100000X0.637500X-0.100000X-0.637500X0*%
%ADD18RoundRect,0.150000X0.150000X-0.687500X0.150000X0.687500X-0.150000X0.687500X-0.150000X-0.687500X0*%
%ADD19R,3.300000X2.100000*%
%ADD20R,0.600000X1.550000*%
%ADD21R,3.100000X2.600000*%
%ADD22RoundRect,0.237500X0.237500X-0.250000X0.237500X0.250000X-0.237500X0.250000X-0.237500X-0.250000X0*%
%ADD23RoundRect,0.250000X0.450000X-0.350000X0.450000X0.350000X-0.450000X0.350000X-0.450000X-0.350000X0*%
%ADD24RoundRect,0.250000X0.625000X-0.400000X0.625000X0.400000X-0.625000X0.400000X-0.625000X-0.400000X0*%
%ADD25RoundRect,0.160000X0.160000X-0.197500X0.160000X0.197500X-0.160000X0.197500X-0.160000X-0.197500X0*%
%ADD26RoundRect,0.250000X0.450000X-0.262500X0.450000X0.262500X-0.450000X0.262500X-0.450000X-0.262500X0*%
%ADD27RoundRect,0.150000X0.150000X-0.587500X0.150000X0.587500X-0.150000X0.587500X-0.150000X-0.587500X0*%
%ADD28RoundRect,0.250001X0.999999X-0.499999X0.999999X0.499999X-0.999999X0.499999X-0.999999X-0.499999X0*%
%ADD29C,2.000000*%
%ADD30O,2.000000X2.000000*%
%ADD31RoundRect,0.250000X0.750000X-0.600000X0.750000X0.600000X-0.750000X0.600000X-0.750000X-0.600000X0*%
%ADD32O,2.000000X1.700000*%
%ADD33R,1.700000X1.700000*%
%ADD34O,1.700000X1.700000*%
%ADD35RoundRect,0.180000X0.920000X-0.420000X0.920000X0.420000X-0.920000X0.420000X-0.920000X-0.420000X0*%
%ADD36RoundRect,0.250000X0.475000X-0.337500X0.475000X0.337500X-0.475000X0.337500X-0.475000X-0.337500X0*%
%ADD37RoundRect,0.225000X0.250000X-0.225000X0.250000X0.225000X-0.250000X0.225000X-0.250000X-0.225000X0*%
%ADD38RoundRect,0.155000X0.155000X-0.212500X0.155000X0.212500X-0.155000X0.212500X-0.155000X-0.212500X0*%
%ADD39RoundRect,0.140000X0.170000X-0.140000X0.170000X0.140000X-0.170000X0.140000X-0.170000X-0.140000X0*%
%ADD40RoundRect,0.250000X0.650000X-0.412500X0.650000X0.412500X-0.650000X0.412500X-0.650000X-0.412500X0*%
%ADD41RoundRect,0.237500X0.237500X-0.300000X0.237500X0.300000X-0.237500X0.300000X-0.237500X-0.300000X0*%
G04 APERTURE END LIST*
D10*
X60544819Y-75050594D02*
X61354342Y-75050594D01*
X61354342Y-75050594D02*
X61449580Y-75002975D01*
X61449580Y-75002975D02*
X61497200Y-74955356D01*
X61497200Y-74955356D02*
X61544819Y-74860118D01*
X61544819Y-74860118D02*
X61544819Y-74669642D01*
X61544819Y-74669642D02*
X61497200Y-74574404D01*
X61497200Y-74574404D02*
X61449580Y-74526785D01*
X61449580Y-74526785D02*
X61354342Y-74479166D01*
X61354342Y-74479166D02*
X60544819Y-74479166D01*
X61544819Y-73479166D02*
X61544819Y-74050594D01*
X61544819Y-73764880D02*
X60544819Y-73764880D01*
X60544819Y-73764880D02*
X60687676Y-73860118D01*
X60687676Y-73860118D02*
X60782914Y-73955356D01*
X60782914Y-73955356D02*
X60830533Y-74050594D01*
X60544819Y-72574404D02*
X60544819Y-73050594D01*
X60544819Y-73050594D02*
X61021009Y-73098213D01*
X61021009Y-73098213D02*
X60973390Y-73050594D01*
X60973390Y-73050594D02*
X60925771Y-72955356D01*
X60925771Y-72955356D02*
X60925771Y-72717261D01*
X60925771Y-72717261D02*
X60973390Y-72622023D01*
X60973390Y-72622023D02*
X61021009Y-72574404D01*
X61021009Y-72574404D02*
X61116247Y-72526785D01*
X61116247Y-72526785D02*
X61354342Y-72526785D01*
X61354342Y-72526785D02*
X61449580Y-72574404D01*
X61449580Y-72574404D02*
X61497200Y-72622023D01*
X61497200Y-72622023D02*
X61544819Y-72717261D01*
X61544819Y-72717261D02*
X61544819Y-72955356D01*
X61544819Y-72955356D02*
X61497200Y-73050594D01*
X61497200Y-73050594D02*
X61449580Y-73098213D01*
X92961876Y-119835381D02*
X93479971Y-119835381D01*
X93479971Y-119835381D02*
X93540923Y-119804904D01*
X93540923Y-119804904D02*
X93571400Y-119774428D01*
X93571400Y-119774428D02*
X93601876Y-119713476D01*
X93601876Y-119713476D02*
X93601876Y-119591571D01*
X93601876Y-119591571D02*
X93571400Y-119530619D01*
X93571400Y-119530619D02*
X93540923Y-119500142D01*
X93540923Y-119500142D02*
X93479971Y-119469666D01*
X93479971Y-119469666D02*
X92961876Y-119469666D01*
X93601876Y-118829666D02*
X93601876Y-119195381D01*
X93601876Y-119012524D02*
X92961876Y-119012524D01*
X92961876Y-119012524D02*
X93053304Y-119073476D01*
X93053304Y-119073476D02*
X93114257Y-119134428D01*
X93114257Y-119134428D02*
X93144733Y-119195381D01*
X92961876Y-118616333D02*
X92961876Y-118220142D01*
X92961876Y-118220142D02*
X93205685Y-118433476D01*
X93205685Y-118433476D02*
X93205685Y-118342047D01*
X93205685Y-118342047D02*
X93236161Y-118281095D01*
X93236161Y-118281095D02*
X93266638Y-118250619D01*
X93266638Y-118250619D02*
X93327590Y-118220142D01*
X93327590Y-118220142D02*
X93479971Y-118220142D01*
X93479971Y-118220142D02*
X93540923Y-118250619D01*
X93540923Y-118250619D02*
X93571400Y-118281095D01*
X93571400Y-118281095D02*
X93601876Y-118342047D01*
X93601876Y-118342047D02*
X93601876Y-118524904D01*
X93601876Y-118524904D02*
X93571400Y-118585857D01*
X93571400Y-118585857D02*
X93540923Y-118616333D01*
X80184819Y-64905594D02*
X80994342Y-64905594D01*
X80994342Y-64905594D02*
X81089580Y-64857975D01*
X81089580Y-64857975D02*
X81137200Y-64810356D01*
X81137200Y-64810356D02*
X81184819Y-64715118D01*
X81184819Y-64715118D02*
X81184819Y-64524642D01*
X81184819Y-64524642D02*
X81137200Y-64429404D01*
X81137200Y-64429404D02*
X81089580Y-64381785D01*
X81089580Y-64381785D02*
X80994342Y-64334166D01*
X80994342Y-64334166D02*
X80184819Y-64334166D01*
X81184819Y-63334166D02*
X81184819Y-63905594D01*
X81184819Y-63619880D02*
X80184819Y-63619880D01*
X80184819Y-63619880D02*
X80327676Y-63715118D01*
X80327676Y-63715118D02*
X80422914Y-63810356D01*
X80422914Y-63810356D02*
X80470533Y-63905594D01*
X80280057Y-62953213D02*
X80232438Y-62905594D01*
X80232438Y-62905594D02*
X80184819Y-62810356D01*
X80184819Y-62810356D02*
X80184819Y-62572261D01*
X80184819Y-62572261D02*
X80232438Y-62477023D01*
X80232438Y-62477023D02*
X80280057Y-62429404D01*
X80280057Y-62429404D02*
X80375295Y-62381785D01*
X80375295Y-62381785D02*
X80470533Y-62381785D01*
X80470533Y-62381785D02*
X80613390Y-62429404D01*
X80613390Y-62429404D02*
X81184819Y-63000832D01*
X81184819Y-63000832D02*
X81184819Y-62381785D01*
X73594819Y-64905594D02*
X74404342Y-64905594D01*
X74404342Y-64905594D02*
X74499580Y-64857975D01*
X74499580Y-64857975D02*
X74547200Y-64810356D01*
X74547200Y-64810356D02*
X74594819Y-64715118D01*
X74594819Y-64715118D02*
X74594819Y-64524642D01*
X74594819Y-64524642D02*
X74547200Y-64429404D01*
X74547200Y-64429404D02*
X74499580Y-64381785D01*
X74499580Y-64381785D02*
X74404342Y-64334166D01*
X74404342Y-64334166D02*
X73594819Y-64334166D01*
X74594819Y-63334166D02*
X74594819Y-63905594D01*
X74594819Y-63619880D02*
X73594819Y-63619880D01*
X73594819Y-63619880D02*
X73737676Y-63715118D01*
X73737676Y-63715118D02*
X73832914Y-63810356D01*
X73832914Y-63810356D02*
X73880533Y-63905594D01*
X74594819Y-62381785D02*
X74594819Y-62953213D01*
X74594819Y-62667499D02*
X73594819Y-62667499D01*
X73594819Y-62667499D02*
X73737676Y-62762737D01*
X73737676Y-62762737D02*
X73832914Y-62857975D01*
X73832914Y-62857975D02*
X73880533Y-62953213D01*
X66569819Y-62894404D02*
X67379342Y-62894404D01*
X67379342Y-62894404D02*
X67474580Y-62846785D01*
X67474580Y-62846785D02*
X67522200Y-62799166D01*
X67522200Y-62799166D02*
X67569819Y-62703928D01*
X67569819Y-62703928D02*
X67569819Y-62513452D01*
X67569819Y-62513452D02*
X67522200Y-62418214D01*
X67522200Y-62418214D02*
X67474580Y-62370595D01*
X67474580Y-62370595D02*
X67379342Y-62322976D01*
X67379342Y-62322976D02*
X66569819Y-62322976D01*
X67569819Y-61799166D02*
X67569819Y-61608690D01*
X67569819Y-61608690D02*
X67522200Y-61513452D01*
X67522200Y-61513452D02*
X67474580Y-61465833D01*
X67474580Y-61465833D02*
X67331723Y-61370595D01*
X67331723Y-61370595D02*
X67141247Y-61322976D01*
X67141247Y-61322976D02*
X66760295Y-61322976D01*
X66760295Y-61322976D02*
X66665057Y-61370595D01*
X66665057Y-61370595D02*
X66617438Y-61418214D01*
X66617438Y-61418214D02*
X66569819Y-61513452D01*
X66569819Y-61513452D02*
X66569819Y-61703928D01*
X66569819Y-61703928D02*
X66617438Y-61799166D01*
X66617438Y-61799166D02*
X66665057Y-61846785D01*
X66665057Y-61846785D02*
X66760295Y-61894404D01*
X66760295Y-61894404D02*
X66998390Y-61894404D01*
X66998390Y-61894404D02*
X67093628Y-61846785D01*
X67093628Y-61846785D02*
X67141247Y-61799166D01*
X67141247Y-61799166D02*
X67188866Y-61703928D01*
X67188866Y-61703928D02*
X67188866Y-61513452D01*
X67188866Y-61513452D02*
X67141247Y-61418214D01*
X67141247Y-61418214D02*
X67093628Y-61370595D01*
X67093628Y-61370595D02*
X66998390Y-61322976D01*
X59749819Y-62864404D02*
X60559342Y-62864404D01*
X60559342Y-62864404D02*
X60654580Y-62816785D01*
X60654580Y-62816785D02*
X60702200Y-62769166D01*
X60702200Y-62769166D02*
X60749819Y-62673928D01*
X60749819Y-62673928D02*
X60749819Y-62483452D01*
X60749819Y-62483452D02*
X60702200Y-62388214D01*
X60702200Y-62388214D02*
X60654580Y-62340595D01*
X60654580Y-62340595D02*
X60559342Y-62292976D01*
X60559342Y-62292976D02*
X59749819Y-62292976D01*
X59749819Y-61388214D02*
X59749819Y-61578690D01*
X59749819Y-61578690D02*
X59797438Y-61673928D01*
X59797438Y-61673928D02*
X59845057Y-61721547D01*
X59845057Y-61721547D02*
X59987914Y-61816785D01*
X59987914Y-61816785D02*
X60178390Y-61864404D01*
X60178390Y-61864404D02*
X60559342Y-61864404D01*
X60559342Y-61864404D02*
X60654580Y-61816785D01*
X60654580Y-61816785D02*
X60702200Y-61769166D01*
X60702200Y-61769166D02*
X60749819Y-61673928D01*
X60749819Y-61673928D02*
X60749819Y-61483452D01*
X60749819Y-61483452D02*
X60702200Y-61388214D01*
X60702200Y-61388214D02*
X60654580Y-61340595D01*
X60654580Y-61340595D02*
X60559342Y-61292976D01*
X60559342Y-61292976D02*
X60321247Y-61292976D01*
X60321247Y-61292976D02*
X60226009Y-61340595D01*
X60226009Y-61340595D02*
X60178390Y-61388214D01*
X60178390Y-61388214D02*
X60130771Y-61483452D01*
X60130771Y-61483452D02*
X60130771Y-61673928D01*
X60130771Y-61673928D02*
X60178390Y-61769166D01*
X60178390Y-61769166D02*
X60226009Y-61816785D01*
X60226009Y-61816785D02*
X60321247Y-61864404D01*
X53964819Y-74574404D02*
X54774342Y-74574404D01*
X54774342Y-74574404D02*
X54869580Y-74526785D01*
X54869580Y-74526785D02*
X54917200Y-74479166D01*
X54917200Y-74479166D02*
X54964819Y-74383928D01*
X54964819Y-74383928D02*
X54964819Y-74193452D01*
X54964819Y-74193452D02*
X54917200Y-74098214D01*
X54917200Y-74098214D02*
X54869580Y-74050595D01*
X54869580Y-74050595D02*
X54774342Y-74002976D01*
X54774342Y-74002976D02*
X53964819Y-74002976D01*
X54964819Y-73002976D02*
X54964819Y-73574404D01*
X54964819Y-73288690D02*
X53964819Y-73288690D01*
X53964819Y-73288690D02*
X54107676Y-73383928D01*
X54107676Y-73383928D02*
X54202914Y-73479166D01*
X54202914Y-73479166D02*
X54250533Y-73574404D01*
X75754819Y-120642857D02*
X75278628Y-120976190D01*
X75754819Y-121214285D02*
X74754819Y-121214285D01*
X74754819Y-121214285D02*
X74754819Y-120833333D01*
X74754819Y-120833333D02*
X74802438Y-120738095D01*
X74802438Y-120738095D02*
X74850057Y-120690476D01*
X74850057Y-120690476D02*
X74945295Y-120642857D01*
X74945295Y-120642857D02*
X75088152Y-120642857D01*
X75088152Y-120642857D02*
X75183390Y-120690476D01*
X75183390Y-120690476D02*
X75231009Y-120738095D01*
X75231009Y-120738095D02*
X75278628Y-120833333D01*
X75278628Y-120833333D02*
X75278628Y-121214285D01*
X74754819Y-120309523D02*
X74754819Y-119690476D01*
X74754819Y-119690476D02*
X75135771Y-120023809D01*
X75135771Y-120023809D02*
X75135771Y-119880952D01*
X75135771Y-119880952D02*
X75183390Y-119785714D01*
X75183390Y-119785714D02*
X75231009Y-119738095D01*
X75231009Y-119738095D02*
X75326247Y-119690476D01*
X75326247Y-119690476D02*
X75564342Y-119690476D01*
X75564342Y-119690476D02*
X75659580Y-119738095D01*
X75659580Y-119738095D02*
X75707200Y-119785714D01*
X75707200Y-119785714D02*
X75754819Y-119880952D01*
X75754819Y-119880952D02*
X75754819Y-120166666D01*
X75754819Y-120166666D02*
X75707200Y-120261904D01*
X75707200Y-120261904D02*
X75659580Y-120309523D01*
X75088152Y-118833333D02*
X75754819Y-118833333D01*
X74707200Y-119071428D02*
X75421485Y-119309523D01*
X75421485Y-119309523D02*
X75421485Y-118690476D01*
X73244819Y-120642857D02*
X72768628Y-120976190D01*
X73244819Y-121214285D02*
X72244819Y-121214285D01*
X72244819Y-121214285D02*
X72244819Y-120833333D01*
X72244819Y-120833333D02*
X72292438Y-120738095D01*
X72292438Y-120738095D02*
X72340057Y-120690476D01*
X72340057Y-120690476D02*
X72435295Y-120642857D01*
X72435295Y-120642857D02*
X72578152Y-120642857D01*
X72578152Y-120642857D02*
X72673390Y-120690476D01*
X72673390Y-120690476D02*
X72721009Y-120738095D01*
X72721009Y-120738095D02*
X72768628Y-120833333D01*
X72768628Y-120833333D02*
X72768628Y-121214285D01*
X72244819Y-120309523D02*
X72244819Y-119690476D01*
X72244819Y-119690476D02*
X72625771Y-120023809D01*
X72625771Y-120023809D02*
X72625771Y-119880952D01*
X72625771Y-119880952D02*
X72673390Y-119785714D01*
X72673390Y-119785714D02*
X72721009Y-119738095D01*
X72721009Y-119738095D02*
X72816247Y-119690476D01*
X72816247Y-119690476D02*
X73054342Y-119690476D01*
X73054342Y-119690476D02*
X73149580Y-119738095D01*
X73149580Y-119738095D02*
X73197200Y-119785714D01*
X73197200Y-119785714D02*
X73244819Y-119880952D01*
X73244819Y-119880952D02*
X73244819Y-120166666D01*
X73244819Y-120166666D02*
X73197200Y-120261904D01*
X73197200Y-120261904D02*
X73149580Y-120309523D01*
X72244819Y-119357142D02*
X72244819Y-118738095D01*
X72244819Y-118738095D02*
X72625771Y-119071428D01*
X72625771Y-119071428D02*
X72625771Y-118928571D01*
X72625771Y-118928571D02*
X72673390Y-118833333D01*
X72673390Y-118833333D02*
X72721009Y-118785714D01*
X72721009Y-118785714D02*
X72816247Y-118738095D01*
X72816247Y-118738095D02*
X73054342Y-118738095D01*
X73054342Y-118738095D02*
X73149580Y-118785714D01*
X73149580Y-118785714D02*
X73197200Y-118833333D01*
X73197200Y-118833333D02*
X73244819Y-118928571D01*
X73244819Y-118928571D02*
X73244819Y-119214285D01*
X73244819Y-119214285D02*
X73197200Y-119309523D01*
X73197200Y-119309523D02*
X73149580Y-119357142D01*
X70734819Y-120642857D02*
X70258628Y-120976190D01*
X70734819Y-121214285D02*
X69734819Y-121214285D01*
X69734819Y-121214285D02*
X69734819Y-120833333D01*
X69734819Y-120833333D02*
X69782438Y-120738095D01*
X69782438Y-120738095D02*
X69830057Y-120690476D01*
X69830057Y-120690476D02*
X69925295Y-120642857D01*
X69925295Y-120642857D02*
X70068152Y-120642857D01*
X70068152Y-120642857D02*
X70163390Y-120690476D01*
X70163390Y-120690476D02*
X70211009Y-120738095D01*
X70211009Y-120738095D02*
X70258628Y-120833333D01*
X70258628Y-120833333D02*
X70258628Y-121214285D01*
X69734819Y-120309523D02*
X69734819Y-119690476D01*
X69734819Y-119690476D02*
X70115771Y-120023809D01*
X70115771Y-120023809D02*
X70115771Y-119880952D01*
X70115771Y-119880952D02*
X70163390Y-119785714D01*
X70163390Y-119785714D02*
X70211009Y-119738095D01*
X70211009Y-119738095D02*
X70306247Y-119690476D01*
X70306247Y-119690476D02*
X70544342Y-119690476D01*
X70544342Y-119690476D02*
X70639580Y-119738095D01*
X70639580Y-119738095D02*
X70687200Y-119785714D01*
X70687200Y-119785714D02*
X70734819Y-119880952D01*
X70734819Y-119880952D02*
X70734819Y-120166666D01*
X70734819Y-120166666D02*
X70687200Y-120261904D01*
X70687200Y-120261904D02*
X70639580Y-120309523D01*
X69830057Y-119309523D02*
X69782438Y-119261904D01*
X69782438Y-119261904D02*
X69734819Y-119166666D01*
X69734819Y-119166666D02*
X69734819Y-118928571D01*
X69734819Y-118928571D02*
X69782438Y-118833333D01*
X69782438Y-118833333D02*
X69830057Y-118785714D01*
X69830057Y-118785714D02*
X69925295Y-118738095D01*
X69925295Y-118738095D02*
X70020533Y-118738095D01*
X70020533Y-118738095D02*
X70163390Y-118785714D01*
X70163390Y-118785714D02*
X70734819Y-119357142D01*
X70734819Y-119357142D02*
X70734819Y-118738095D01*
X68224819Y-120642857D02*
X67748628Y-120976190D01*
X68224819Y-121214285D02*
X67224819Y-121214285D01*
X67224819Y-121214285D02*
X67224819Y-120833333D01*
X67224819Y-120833333D02*
X67272438Y-120738095D01*
X67272438Y-120738095D02*
X67320057Y-120690476D01*
X67320057Y-120690476D02*
X67415295Y-120642857D01*
X67415295Y-120642857D02*
X67558152Y-120642857D01*
X67558152Y-120642857D02*
X67653390Y-120690476D01*
X67653390Y-120690476D02*
X67701009Y-120738095D01*
X67701009Y-120738095D02*
X67748628Y-120833333D01*
X67748628Y-120833333D02*
X67748628Y-121214285D01*
X67224819Y-120309523D02*
X67224819Y-119690476D01*
X67224819Y-119690476D02*
X67605771Y-120023809D01*
X67605771Y-120023809D02*
X67605771Y-119880952D01*
X67605771Y-119880952D02*
X67653390Y-119785714D01*
X67653390Y-119785714D02*
X67701009Y-119738095D01*
X67701009Y-119738095D02*
X67796247Y-119690476D01*
X67796247Y-119690476D02*
X68034342Y-119690476D01*
X68034342Y-119690476D02*
X68129580Y-119738095D01*
X68129580Y-119738095D02*
X68177200Y-119785714D01*
X68177200Y-119785714D02*
X68224819Y-119880952D01*
X68224819Y-119880952D02*
X68224819Y-120166666D01*
X68224819Y-120166666D02*
X68177200Y-120261904D01*
X68177200Y-120261904D02*
X68129580Y-120309523D01*
X68224819Y-118738095D02*
X68224819Y-119309523D01*
X68224819Y-119023809D02*
X67224819Y-119023809D01*
X67224819Y-119023809D02*
X67367676Y-119119047D01*
X67367676Y-119119047D02*
X67462914Y-119214285D01*
X67462914Y-119214285D02*
X67510533Y-119309523D01*
X65714819Y-120642857D02*
X65238628Y-120976190D01*
X65714819Y-121214285D02*
X64714819Y-121214285D01*
X64714819Y-121214285D02*
X64714819Y-120833333D01*
X64714819Y-120833333D02*
X64762438Y-120738095D01*
X64762438Y-120738095D02*
X64810057Y-120690476D01*
X64810057Y-120690476D02*
X64905295Y-120642857D01*
X64905295Y-120642857D02*
X65048152Y-120642857D01*
X65048152Y-120642857D02*
X65143390Y-120690476D01*
X65143390Y-120690476D02*
X65191009Y-120738095D01*
X65191009Y-120738095D02*
X65238628Y-120833333D01*
X65238628Y-120833333D02*
X65238628Y-121214285D01*
X64714819Y-120309523D02*
X64714819Y-119690476D01*
X64714819Y-119690476D02*
X65095771Y-120023809D01*
X65095771Y-120023809D02*
X65095771Y-119880952D01*
X65095771Y-119880952D02*
X65143390Y-119785714D01*
X65143390Y-119785714D02*
X65191009Y-119738095D01*
X65191009Y-119738095D02*
X65286247Y-119690476D01*
X65286247Y-119690476D02*
X65524342Y-119690476D01*
X65524342Y-119690476D02*
X65619580Y-119738095D01*
X65619580Y-119738095D02*
X65667200Y-119785714D01*
X65667200Y-119785714D02*
X65714819Y-119880952D01*
X65714819Y-119880952D02*
X65714819Y-120166666D01*
X65714819Y-120166666D02*
X65667200Y-120261904D01*
X65667200Y-120261904D02*
X65619580Y-120309523D01*
X64714819Y-119071428D02*
X64714819Y-118976190D01*
X64714819Y-118976190D02*
X64762438Y-118880952D01*
X64762438Y-118880952D02*
X64810057Y-118833333D01*
X64810057Y-118833333D02*
X64905295Y-118785714D01*
X64905295Y-118785714D02*
X65095771Y-118738095D01*
X65095771Y-118738095D02*
X65333866Y-118738095D01*
X65333866Y-118738095D02*
X65524342Y-118785714D01*
X65524342Y-118785714D02*
X65619580Y-118833333D01*
X65619580Y-118833333D02*
X65667200Y-118880952D01*
X65667200Y-118880952D02*
X65714819Y-118976190D01*
X65714819Y-118976190D02*
X65714819Y-119071428D01*
X65714819Y-119071428D02*
X65667200Y-119166666D01*
X65667200Y-119166666D02*
X65619580Y-119214285D01*
X65619580Y-119214285D02*
X65524342Y-119261904D01*
X65524342Y-119261904D02*
X65333866Y-119309523D01*
X65333866Y-119309523D02*
X65095771Y-119309523D01*
X65095771Y-119309523D02*
X64905295Y-119261904D01*
X64905295Y-119261904D02*
X64810057Y-119214285D01*
X64810057Y-119214285D02*
X64762438Y-119166666D01*
X64762438Y-119166666D02*
X64714819Y-119071428D01*
X63204819Y-120642857D02*
X62728628Y-120976190D01*
X63204819Y-121214285D02*
X62204819Y-121214285D01*
X62204819Y-121214285D02*
X62204819Y-120833333D01*
X62204819Y-120833333D02*
X62252438Y-120738095D01*
X62252438Y-120738095D02*
X62300057Y-120690476D01*
X62300057Y-120690476D02*
X62395295Y-120642857D01*
X62395295Y-120642857D02*
X62538152Y-120642857D01*
X62538152Y-120642857D02*
X62633390Y-120690476D01*
X62633390Y-120690476D02*
X62681009Y-120738095D01*
X62681009Y-120738095D02*
X62728628Y-120833333D01*
X62728628Y-120833333D02*
X62728628Y-121214285D01*
X62300057Y-120261904D02*
X62252438Y-120214285D01*
X62252438Y-120214285D02*
X62204819Y-120119047D01*
X62204819Y-120119047D02*
X62204819Y-119880952D01*
X62204819Y-119880952D02*
X62252438Y-119785714D01*
X62252438Y-119785714D02*
X62300057Y-119738095D01*
X62300057Y-119738095D02*
X62395295Y-119690476D01*
X62395295Y-119690476D02*
X62490533Y-119690476D01*
X62490533Y-119690476D02*
X62633390Y-119738095D01*
X62633390Y-119738095D02*
X63204819Y-120309523D01*
X63204819Y-120309523D02*
X63204819Y-119690476D01*
X63204819Y-119214285D02*
X63204819Y-119023809D01*
X63204819Y-119023809D02*
X63157200Y-118928571D01*
X63157200Y-118928571D02*
X63109580Y-118880952D01*
X63109580Y-118880952D02*
X62966723Y-118785714D01*
X62966723Y-118785714D02*
X62776247Y-118738095D01*
X62776247Y-118738095D02*
X62395295Y-118738095D01*
X62395295Y-118738095D02*
X62300057Y-118785714D01*
X62300057Y-118785714D02*
X62252438Y-118833333D01*
X62252438Y-118833333D02*
X62204819Y-118928571D01*
X62204819Y-118928571D02*
X62204819Y-119119047D01*
X62204819Y-119119047D02*
X62252438Y-119214285D01*
X62252438Y-119214285D02*
X62300057Y-119261904D01*
X62300057Y-119261904D02*
X62395295Y-119309523D01*
X62395295Y-119309523D02*
X62633390Y-119309523D01*
X62633390Y-119309523D02*
X62728628Y-119261904D01*
X62728628Y-119261904D02*
X62776247Y-119214285D01*
X62776247Y-119214285D02*
X62823866Y-119119047D01*
X62823866Y-119119047D02*
X62823866Y-118928571D01*
X62823866Y-118928571D02*
X62776247Y-118833333D01*
X62776247Y-118833333D02*
X62728628Y-118785714D01*
X62728628Y-118785714D02*
X62633390Y-118738095D01*
X93114819Y-116092857D02*
X92638628Y-116426190D01*
X93114819Y-116664285D02*
X92114819Y-116664285D01*
X92114819Y-116664285D02*
X92114819Y-116283333D01*
X92114819Y-116283333D02*
X92162438Y-116188095D01*
X92162438Y-116188095D02*
X92210057Y-116140476D01*
X92210057Y-116140476D02*
X92305295Y-116092857D01*
X92305295Y-116092857D02*
X92448152Y-116092857D01*
X92448152Y-116092857D02*
X92543390Y-116140476D01*
X92543390Y-116140476D02*
X92591009Y-116188095D01*
X92591009Y-116188095D02*
X92638628Y-116283333D01*
X92638628Y-116283333D02*
X92638628Y-116664285D01*
X92210057Y-115711904D02*
X92162438Y-115664285D01*
X92162438Y-115664285D02*
X92114819Y-115569047D01*
X92114819Y-115569047D02*
X92114819Y-115330952D01*
X92114819Y-115330952D02*
X92162438Y-115235714D01*
X92162438Y-115235714D02*
X92210057Y-115188095D01*
X92210057Y-115188095D02*
X92305295Y-115140476D01*
X92305295Y-115140476D02*
X92400533Y-115140476D01*
X92400533Y-115140476D02*
X92543390Y-115188095D01*
X92543390Y-115188095D02*
X93114819Y-115759523D01*
X93114819Y-115759523D02*
X93114819Y-115140476D01*
X92543390Y-114569047D02*
X92495771Y-114664285D01*
X92495771Y-114664285D02*
X92448152Y-114711904D01*
X92448152Y-114711904D02*
X92352914Y-114759523D01*
X92352914Y-114759523D02*
X92305295Y-114759523D01*
X92305295Y-114759523D02*
X92210057Y-114711904D01*
X92210057Y-114711904D02*
X92162438Y-114664285D01*
X92162438Y-114664285D02*
X92114819Y-114569047D01*
X92114819Y-114569047D02*
X92114819Y-114378571D01*
X92114819Y-114378571D02*
X92162438Y-114283333D01*
X92162438Y-114283333D02*
X92210057Y-114235714D01*
X92210057Y-114235714D02*
X92305295Y-114188095D01*
X92305295Y-114188095D02*
X92352914Y-114188095D01*
X92352914Y-114188095D02*
X92448152Y-114235714D01*
X92448152Y-114235714D02*
X92495771Y-114283333D01*
X92495771Y-114283333D02*
X92543390Y-114378571D01*
X92543390Y-114378571D02*
X92543390Y-114569047D01*
X92543390Y-114569047D02*
X92591009Y-114664285D01*
X92591009Y-114664285D02*
X92638628Y-114711904D01*
X92638628Y-114711904D02*
X92733866Y-114759523D01*
X92733866Y-114759523D02*
X92924342Y-114759523D01*
X92924342Y-114759523D02*
X93019580Y-114711904D01*
X93019580Y-114711904D02*
X93067200Y-114664285D01*
X93067200Y-114664285D02*
X93114819Y-114569047D01*
X93114819Y-114569047D02*
X93114819Y-114378571D01*
X93114819Y-114378571D02*
X93067200Y-114283333D01*
X93067200Y-114283333D02*
X93019580Y-114235714D01*
X93019580Y-114235714D02*
X92924342Y-114188095D01*
X92924342Y-114188095D02*
X92733866Y-114188095D01*
X92733866Y-114188095D02*
X92638628Y-114235714D01*
X92638628Y-114235714D02*
X92591009Y-114283333D01*
X92591009Y-114283333D02*
X92543390Y-114378571D01*
X72124819Y-115492857D02*
X71648628Y-115826190D01*
X72124819Y-116064285D02*
X71124819Y-116064285D01*
X71124819Y-116064285D02*
X71124819Y-115683333D01*
X71124819Y-115683333D02*
X71172438Y-115588095D01*
X71172438Y-115588095D02*
X71220057Y-115540476D01*
X71220057Y-115540476D02*
X71315295Y-115492857D01*
X71315295Y-115492857D02*
X71458152Y-115492857D01*
X71458152Y-115492857D02*
X71553390Y-115540476D01*
X71553390Y-115540476D02*
X71601009Y-115588095D01*
X71601009Y-115588095D02*
X71648628Y-115683333D01*
X71648628Y-115683333D02*
X71648628Y-116064285D01*
X71220057Y-115111904D02*
X71172438Y-115064285D01*
X71172438Y-115064285D02*
X71124819Y-114969047D01*
X71124819Y-114969047D02*
X71124819Y-114730952D01*
X71124819Y-114730952D02*
X71172438Y-114635714D01*
X71172438Y-114635714D02*
X71220057Y-114588095D01*
X71220057Y-114588095D02*
X71315295Y-114540476D01*
X71315295Y-114540476D02*
X71410533Y-114540476D01*
X71410533Y-114540476D02*
X71553390Y-114588095D01*
X71553390Y-114588095D02*
X72124819Y-115159523D01*
X72124819Y-115159523D02*
X72124819Y-114540476D01*
X71124819Y-114207142D02*
X71124819Y-113540476D01*
X71124819Y-113540476D02*
X72124819Y-113969047D01*
X68834819Y-115492857D02*
X68358628Y-115826190D01*
X68834819Y-116064285D02*
X67834819Y-116064285D01*
X67834819Y-116064285D02*
X67834819Y-115683333D01*
X67834819Y-115683333D02*
X67882438Y-115588095D01*
X67882438Y-115588095D02*
X67930057Y-115540476D01*
X67930057Y-115540476D02*
X68025295Y-115492857D01*
X68025295Y-115492857D02*
X68168152Y-115492857D01*
X68168152Y-115492857D02*
X68263390Y-115540476D01*
X68263390Y-115540476D02*
X68311009Y-115588095D01*
X68311009Y-115588095D02*
X68358628Y-115683333D01*
X68358628Y-115683333D02*
X68358628Y-116064285D01*
X67930057Y-115111904D02*
X67882438Y-115064285D01*
X67882438Y-115064285D02*
X67834819Y-114969047D01*
X67834819Y-114969047D02*
X67834819Y-114730952D01*
X67834819Y-114730952D02*
X67882438Y-114635714D01*
X67882438Y-114635714D02*
X67930057Y-114588095D01*
X67930057Y-114588095D02*
X68025295Y-114540476D01*
X68025295Y-114540476D02*
X68120533Y-114540476D01*
X68120533Y-114540476D02*
X68263390Y-114588095D01*
X68263390Y-114588095D02*
X68834819Y-115159523D01*
X68834819Y-115159523D02*
X68834819Y-114540476D01*
X67834819Y-113683333D02*
X67834819Y-113873809D01*
X67834819Y-113873809D02*
X67882438Y-113969047D01*
X67882438Y-113969047D02*
X67930057Y-114016666D01*
X67930057Y-114016666D02*
X68072914Y-114111904D01*
X68072914Y-114111904D02*
X68263390Y-114159523D01*
X68263390Y-114159523D02*
X68644342Y-114159523D01*
X68644342Y-114159523D02*
X68739580Y-114111904D01*
X68739580Y-114111904D02*
X68787200Y-114064285D01*
X68787200Y-114064285D02*
X68834819Y-113969047D01*
X68834819Y-113969047D02*
X68834819Y-113778571D01*
X68834819Y-113778571D02*
X68787200Y-113683333D01*
X68787200Y-113683333D02*
X68739580Y-113635714D01*
X68739580Y-113635714D02*
X68644342Y-113588095D01*
X68644342Y-113588095D02*
X68406247Y-113588095D01*
X68406247Y-113588095D02*
X68311009Y-113635714D01*
X68311009Y-113635714D02*
X68263390Y-113683333D01*
X68263390Y-113683333D02*
X68215771Y-113778571D01*
X68215771Y-113778571D02*
X68215771Y-113969047D01*
X68215771Y-113969047D02*
X68263390Y-114064285D01*
X68263390Y-114064285D02*
X68311009Y-114111904D01*
X68311009Y-114111904D02*
X68406247Y-114159523D01*
X65544819Y-115492857D02*
X65068628Y-115826190D01*
X65544819Y-116064285D02*
X64544819Y-116064285D01*
X64544819Y-116064285D02*
X64544819Y-115683333D01*
X64544819Y-115683333D02*
X64592438Y-115588095D01*
X64592438Y-115588095D02*
X64640057Y-115540476D01*
X64640057Y-115540476D02*
X64735295Y-115492857D01*
X64735295Y-115492857D02*
X64878152Y-115492857D01*
X64878152Y-115492857D02*
X64973390Y-115540476D01*
X64973390Y-115540476D02*
X65021009Y-115588095D01*
X65021009Y-115588095D02*
X65068628Y-115683333D01*
X65068628Y-115683333D02*
X65068628Y-116064285D01*
X64640057Y-115111904D02*
X64592438Y-115064285D01*
X64592438Y-115064285D02*
X64544819Y-114969047D01*
X64544819Y-114969047D02*
X64544819Y-114730952D01*
X64544819Y-114730952D02*
X64592438Y-114635714D01*
X64592438Y-114635714D02*
X64640057Y-114588095D01*
X64640057Y-114588095D02*
X64735295Y-114540476D01*
X64735295Y-114540476D02*
X64830533Y-114540476D01*
X64830533Y-114540476D02*
X64973390Y-114588095D01*
X64973390Y-114588095D02*
X65544819Y-115159523D01*
X65544819Y-115159523D02*
X65544819Y-114540476D01*
X64544819Y-113635714D02*
X64544819Y-114111904D01*
X64544819Y-114111904D02*
X65021009Y-114159523D01*
X65021009Y-114159523D02*
X64973390Y-114111904D01*
X64973390Y-114111904D02*
X64925771Y-114016666D01*
X64925771Y-114016666D02*
X64925771Y-113778571D01*
X64925771Y-113778571D02*
X64973390Y-113683333D01*
X64973390Y-113683333D02*
X65021009Y-113635714D01*
X65021009Y-113635714D02*
X65116247Y-113588095D01*
X65116247Y-113588095D02*
X65354342Y-113588095D01*
X65354342Y-113588095D02*
X65449580Y-113635714D01*
X65449580Y-113635714D02*
X65497200Y-113683333D01*
X65497200Y-113683333D02*
X65544819Y-113778571D01*
X65544819Y-113778571D02*
X65544819Y-114016666D01*
X65544819Y-114016666D02*
X65497200Y-114111904D01*
X65497200Y-114111904D02*
X65449580Y-114159523D01*
X62254819Y-115492857D02*
X61778628Y-115826190D01*
X62254819Y-116064285D02*
X61254819Y-116064285D01*
X61254819Y-116064285D02*
X61254819Y-115683333D01*
X61254819Y-115683333D02*
X61302438Y-115588095D01*
X61302438Y-115588095D02*
X61350057Y-115540476D01*
X61350057Y-115540476D02*
X61445295Y-115492857D01*
X61445295Y-115492857D02*
X61588152Y-115492857D01*
X61588152Y-115492857D02*
X61683390Y-115540476D01*
X61683390Y-115540476D02*
X61731009Y-115588095D01*
X61731009Y-115588095D02*
X61778628Y-115683333D01*
X61778628Y-115683333D02*
X61778628Y-116064285D01*
X61350057Y-115111904D02*
X61302438Y-115064285D01*
X61302438Y-115064285D02*
X61254819Y-114969047D01*
X61254819Y-114969047D02*
X61254819Y-114730952D01*
X61254819Y-114730952D02*
X61302438Y-114635714D01*
X61302438Y-114635714D02*
X61350057Y-114588095D01*
X61350057Y-114588095D02*
X61445295Y-114540476D01*
X61445295Y-114540476D02*
X61540533Y-114540476D01*
X61540533Y-114540476D02*
X61683390Y-114588095D01*
X61683390Y-114588095D02*
X62254819Y-115159523D01*
X62254819Y-115159523D02*
X62254819Y-114540476D01*
X62254819Y-113588095D02*
X62254819Y-114159523D01*
X62254819Y-113873809D02*
X61254819Y-113873809D01*
X61254819Y-113873809D02*
X61397676Y-113969047D01*
X61397676Y-113969047D02*
X61492914Y-114064285D01*
X61492914Y-114064285D02*
X61540533Y-114159523D01*
X60694819Y-120642857D02*
X60218628Y-120976190D01*
X60694819Y-121214285D02*
X59694819Y-121214285D01*
X59694819Y-121214285D02*
X59694819Y-120833333D01*
X59694819Y-120833333D02*
X59742438Y-120738095D01*
X59742438Y-120738095D02*
X59790057Y-120690476D01*
X59790057Y-120690476D02*
X59885295Y-120642857D01*
X59885295Y-120642857D02*
X60028152Y-120642857D01*
X60028152Y-120642857D02*
X60123390Y-120690476D01*
X60123390Y-120690476D02*
X60171009Y-120738095D01*
X60171009Y-120738095D02*
X60218628Y-120833333D01*
X60218628Y-120833333D02*
X60218628Y-121214285D01*
X60694819Y-119690476D02*
X60694819Y-120261904D01*
X60694819Y-119976190D02*
X59694819Y-119976190D01*
X59694819Y-119976190D02*
X59837676Y-120071428D01*
X59837676Y-120071428D02*
X59932914Y-120166666D01*
X59932914Y-120166666D02*
X59980533Y-120261904D01*
X60694819Y-119214285D02*
X60694819Y-119023809D01*
X60694819Y-119023809D02*
X60647200Y-118928571D01*
X60647200Y-118928571D02*
X60599580Y-118880952D01*
X60599580Y-118880952D02*
X60456723Y-118785714D01*
X60456723Y-118785714D02*
X60266247Y-118738095D01*
X60266247Y-118738095D02*
X59885295Y-118738095D01*
X59885295Y-118738095D02*
X59790057Y-118785714D01*
X59790057Y-118785714D02*
X59742438Y-118833333D01*
X59742438Y-118833333D02*
X59694819Y-118928571D01*
X59694819Y-118928571D02*
X59694819Y-119119047D01*
X59694819Y-119119047D02*
X59742438Y-119214285D01*
X59742438Y-119214285D02*
X59790057Y-119261904D01*
X59790057Y-119261904D02*
X59885295Y-119309523D01*
X59885295Y-119309523D02*
X60123390Y-119309523D01*
X60123390Y-119309523D02*
X60218628Y-119261904D01*
X60218628Y-119261904D02*
X60266247Y-119214285D01*
X60266247Y-119214285D02*
X60313866Y-119119047D01*
X60313866Y-119119047D02*
X60313866Y-118928571D01*
X60313866Y-118928571D02*
X60266247Y-118833333D01*
X60266247Y-118833333D02*
X60218628Y-118785714D01*
X60218628Y-118785714D02*
X60123390Y-118738095D01*
X58184819Y-120642857D02*
X57708628Y-120976190D01*
X58184819Y-121214285D02*
X57184819Y-121214285D01*
X57184819Y-121214285D02*
X57184819Y-120833333D01*
X57184819Y-120833333D02*
X57232438Y-120738095D01*
X57232438Y-120738095D02*
X57280057Y-120690476D01*
X57280057Y-120690476D02*
X57375295Y-120642857D01*
X57375295Y-120642857D02*
X57518152Y-120642857D01*
X57518152Y-120642857D02*
X57613390Y-120690476D01*
X57613390Y-120690476D02*
X57661009Y-120738095D01*
X57661009Y-120738095D02*
X57708628Y-120833333D01*
X57708628Y-120833333D02*
X57708628Y-121214285D01*
X58184819Y-119690476D02*
X58184819Y-120261904D01*
X58184819Y-119976190D02*
X57184819Y-119976190D01*
X57184819Y-119976190D02*
X57327676Y-120071428D01*
X57327676Y-120071428D02*
X57422914Y-120166666D01*
X57422914Y-120166666D02*
X57470533Y-120261904D01*
X57613390Y-119119047D02*
X57565771Y-119214285D01*
X57565771Y-119214285D02*
X57518152Y-119261904D01*
X57518152Y-119261904D02*
X57422914Y-119309523D01*
X57422914Y-119309523D02*
X57375295Y-119309523D01*
X57375295Y-119309523D02*
X57280057Y-119261904D01*
X57280057Y-119261904D02*
X57232438Y-119214285D01*
X57232438Y-119214285D02*
X57184819Y-119119047D01*
X57184819Y-119119047D02*
X57184819Y-118928571D01*
X57184819Y-118928571D02*
X57232438Y-118833333D01*
X57232438Y-118833333D02*
X57280057Y-118785714D01*
X57280057Y-118785714D02*
X57375295Y-118738095D01*
X57375295Y-118738095D02*
X57422914Y-118738095D01*
X57422914Y-118738095D02*
X57518152Y-118785714D01*
X57518152Y-118785714D02*
X57565771Y-118833333D01*
X57565771Y-118833333D02*
X57613390Y-118928571D01*
X57613390Y-118928571D02*
X57613390Y-119119047D01*
X57613390Y-119119047D02*
X57661009Y-119214285D01*
X57661009Y-119214285D02*
X57708628Y-119261904D01*
X57708628Y-119261904D02*
X57803866Y-119309523D01*
X57803866Y-119309523D02*
X57994342Y-119309523D01*
X57994342Y-119309523D02*
X58089580Y-119261904D01*
X58089580Y-119261904D02*
X58137200Y-119214285D01*
X58137200Y-119214285D02*
X58184819Y-119119047D01*
X58184819Y-119119047D02*
X58184819Y-118928571D01*
X58184819Y-118928571D02*
X58137200Y-118833333D01*
X58137200Y-118833333D02*
X58089580Y-118785714D01*
X58089580Y-118785714D02*
X57994342Y-118738095D01*
X57994342Y-118738095D02*
X57803866Y-118738095D01*
X57803866Y-118738095D02*
X57708628Y-118785714D01*
X57708628Y-118785714D02*
X57661009Y-118833333D01*
X57661009Y-118833333D02*
X57613390Y-118928571D01*
X90164819Y-116092857D02*
X89688628Y-116426190D01*
X90164819Y-116664285D02*
X89164819Y-116664285D01*
X89164819Y-116664285D02*
X89164819Y-116283333D01*
X89164819Y-116283333D02*
X89212438Y-116188095D01*
X89212438Y-116188095D02*
X89260057Y-116140476D01*
X89260057Y-116140476D02*
X89355295Y-116092857D01*
X89355295Y-116092857D02*
X89498152Y-116092857D01*
X89498152Y-116092857D02*
X89593390Y-116140476D01*
X89593390Y-116140476D02*
X89641009Y-116188095D01*
X89641009Y-116188095D02*
X89688628Y-116283333D01*
X89688628Y-116283333D02*
X89688628Y-116664285D01*
X90164819Y-115140476D02*
X90164819Y-115711904D01*
X90164819Y-115426190D02*
X89164819Y-115426190D01*
X89164819Y-115426190D02*
X89307676Y-115521428D01*
X89307676Y-115521428D02*
X89402914Y-115616666D01*
X89402914Y-115616666D02*
X89450533Y-115711904D01*
X89164819Y-114283333D02*
X89164819Y-114473809D01*
X89164819Y-114473809D02*
X89212438Y-114569047D01*
X89212438Y-114569047D02*
X89260057Y-114616666D01*
X89260057Y-114616666D02*
X89402914Y-114711904D01*
X89402914Y-114711904D02*
X89593390Y-114759523D01*
X89593390Y-114759523D02*
X89974342Y-114759523D01*
X89974342Y-114759523D02*
X90069580Y-114711904D01*
X90069580Y-114711904D02*
X90117200Y-114664285D01*
X90117200Y-114664285D02*
X90164819Y-114569047D01*
X90164819Y-114569047D02*
X90164819Y-114378571D01*
X90164819Y-114378571D02*
X90117200Y-114283333D01*
X90117200Y-114283333D02*
X90069580Y-114235714D01*
X90069580Y-114235714D02*
X89974342Y-114188095D01*
X89974342Y-114188095D02*
X89736247Y-114188095D01*
X89736247Y-114188095D02*
X89641009Y-114235714D01*
X89641009Y-114235714D02*
X89593390Y-114283333D01*
X89593390Y-114283333D02*
X89545771Y-114378571D01*
X89545771Y-114378571D02*
X89545771Y-114569047D01*
X89545771Y-114569047D02*
X89593390Y-114664285D01*
X89593390Y-114664285D02*
X89641009Y-114711904D01*
X89641009Y-114711904D02*
X89736247Y-114759523D01*
X92634819Y-78255357D02*
X92158628Y-78588690D01*
X92634819Y-78826785D02*
X91634819Y-78826785D01*
X91634819Y-78826785D02*
X91634819Y-78445833D01*
X91634819Y-78445833D02*
X91682438Y-78350595D01*
X91682438Y-78350595D02*
X91730057Y-78302976D01*
X91730057Y-78302976D02*
X91825295Y-78255357D01*
X91825295Y-78255357D02*
X91968152Y-78255357D01*
X91968152Y-78255357D02*
X92063390Y-78302976D01*
X92063390Y-78302976D02*
X92111009Y-78350595D01*
X92111009Y-78350595D02*
X92158628Y-78445833D01*
X92158628Y-78445833D02*
X92158628Y-78826785D01*
X92634819Y-77302976D02*
X92634819Y-77874404D01*
X92634819Y-77588690D02*
X91634819Y-77588690D01*
X91634819Y-77588690D02*
X91777676Y-77683928D01*
X91777676Y-77683928D02*
X91872914Y-77779166D01*
X91872914Y-77779166D02*
X91920533Y-77874404D01*
X91634819Y-76398214D02*
X91634819Y-76874404D01*
X91634819Y-76874404D02*
X92111009Y-76922023D01*
X92111009Y-76922023D02*
X92063390Y-76874404D01*
X92063390Y-76874404D02*
X92015771Y-76779166D01*
X92015771Y-76779166D02*
X92015771Y-76541071D01*
X92015771Y-76541071D02*
X92063390Y-76445833D01*
X92063390Y-76445833D02*
X92111009Y-76398214D01*
X92111009Y-76398214D02*
X92206247Y-76350595D01*
X92206247Y-76350595D02*
X92444342Y-76350595D01*
X92444342Y-76350595D02*
X92539580Y-76398214D01*
X92539580Y-76398214D02*
X92587200Y-76445833D01*
X92587200Y-76445833D02*
X92634819Y-76541071D01*
X92634819Y-76541071D02*
X92634819Y-76779166D01*
X92634819Y-76779166D02*
X92587200Y-76874404D01*
X92587200Y-76874404D02*
X92539580Y-76922023D01*
X87214819Y-115616666D02*
X86738628Y-115949999D01*
X87214819Y-116188094D02*
X86214819Y-116188094D01*
X86214819Y-116188094D02*
X86214819Y-115807142D01*
X86214819Y-115807142D02*
X86262438Y-115711904D01*
X86262438Y-115711904D02*
X86310057Y-115664285D01*
X86310057Y-115664285D02*
X86405295Y-115616666D01*
X86405295Y-115616666D02*
X86548152Y-115616666D01*
X86548152Y-115616666D02*
X86643390Y-115664285D01*
X86643390Y-115664285D02*
X86691009Y-115711904D01*
X86691009Y-115711904D02*
X86738628Y-115807142D01*
X86738628Y-115807142D02*
X86738628Y-116188094D01*
X86643390Y-115045237D02*
X86595771Y-115140475D01*
X86595771Y-115140475D02*
X86548152Y-115188094D01*
X86548152Y-115188094D02*
X86452914Y-115235713D01*
X86452914Y-115235713D02*
X86405295Y-115235713D01*
X86405295Y-115235713D02*
X86310057Y-115188094D01*
X86310057Y-115188094D02*
X86262438Y-115140475D01*
X86262438Y-115140475D02*
X86214819Y-115045237D01*
X86214819Y-115045237D02*
X86214819Y-114854761D01*
X86214819Y-114854761D02*
X86262438Y-114759523D01*
X86262438Y-114759523D02*
X86310057Y-114711904D01*
X86310057Y-114711904D02*
X86405295Y-114664285D01*
X86405295Y-114664285D02*
X86452914Y-114664285D01*
X86452914Y-114664285D02*
X86548152Y-114711904D01*
X86548152Y-114711904D02*
X86595771Y-114759523D01*
X86595771Y-114759523D02*
X86643390Y-114854761D01*
X86643390Y-114854761D02*
X86643390Y-115045237D01*
X86643390Y-115045237D02*
X86691009Y-115140475D01*
X86691009Y-115140475D02*
X86738628Y-115188094D01*
X86738628Y-115188094D02*
X86833866Y-115235713D01*
X86833866Y-115235713D02*
X87024342Y-115235713D01*
X87024342Y-115235713D02*
X87119580Y-115188094D01*
X87119580Y-115188094D02*
X87167200Y-115140475D01*
X87167200Y-115140475D02*
X87214819Y-115045237D01*
X87214819Y-115045237D02*
X87214819Y-114854761D01*
X87214819Y-114854761D02*
X87167200Y-114759523D01*
X87167200Y-114759523D02*
X87119580Y-114711904D01*
X87119580Y-114711904D02*
X87024342Y-114664285D01*
X87024342Y-114664285D02*
X86833866Y-114664285D01*
X86833866Y-114664285D02*
X86738628Y-114711904D01*
X86738628Y-114711904D02*
X86691009Y-114759523D01*
X86691009Y-114759523D02*
X86643390Y-114854761D01*
X84264819Y-115616666D02*
X83788628Y-115949999D01*
X84264819Y-116188094D02*
X83264819Y-116188094D01*
X83264819Y-116188094D02*
X83264819Y-115807142D01*
X83264819Y-115807142D02*
X83312438Y-115711904D01*
X83312438Y-115711904D02*
X83360057Y-115664285D01*
X83360057Y-115664285D02*
X83455295Y-115616666D01*
X83455295Y-115616666D02*
X83598152Y-115616666D01*
X83598152Y-115616666D02*
X83693390Y-115664285D01*
X83693390Y-115664285D02*
X83741009Y-115711904D01*
X83741009Y-115711904D02*
X83788628Y-115807142D01*
X83788628Y-115807142D02*
X83788628Y-116188094D01*
X83264819Y-115283332D02*
X83264819Y-114616666D01*
X83264819Y-114616666D02*
X84264819Y-115045237D01*
X93804819Y-60579166D02*
X93328628Y-60912499D01*
X93804819Y-61150594D02*
X92804819Y-61150594D01*
X92804819Y-61150594D02*
X92804819Y-60769642D01*
X92804819Y-60769642D02*
X92852438Y-60674404D01*
X92852438Y-60674404D02*
X92900057Y-60626785D01*
X92900057Y-60626785D02*
X92995295Y-60579166D01*
X92995295Y-60579166D02*
X93138152Y-60579166D01*
X93138152Y-60579166D02*
X93233390Y-60626785D01*
X93233390Y-60626785D02*
X93281009Y-60674404D01*
X93281009Y-60674404D02*
X93328628Y-60769642D01*
X93328628Y-60769642D02*
X93328628Y-61150594D01*
X92804819Y-59722023D02*
X92804819Y-59912499D01*
X92804819Y-59912499D02*
X92852438Y-60007737D01*
X92852438Y-60007737D02*
X92900057Y-60055356D01*
X92900057Y-60055356D02*
X93042914Y-60150594D01*
X93042914Y-60150594D02*
X93233390Y-60198213D01*
X93233390Y-60198213D02*
X93614342Y-60198213D01*
X93614342Y-60198213D02*
X93709580Y-60150594D01*
X93709580Y-60150594D02*
X93757200Y-60102975D01*
X93757200Y-60102975D02*
X93804819Y-60007737D01*
X93804819Y-60007737D02*
X93804819Y-59817261D01*
X93804819Y-59817261D02*
X93757200Y-59722023D01*
X93757200Y-59722023D02*
X93709580Y-59674404D01*
X93709580Y-59674404D02*
X93614342Y-59626785D01*
X93614342Y-59626785D02*
X93376247Y-59626785D01*
X93376247Y-59626785D02*
X93281009Y-59674404D01*
X93281009Y-59674404D02*
X93233390Y-59722023D01*
X93233390Y-59722023D02*
X93185771Y-59817261D01*
X93185771Y-59817261D02*
X93185771Y-60007737D01*
X93185771Y-60007737D02*
X93233390Y-60102975D01*
X93233390Y-60102975D02*
X93281009Y-60150594D01*
X93281009Y-60150594D02*
X93376247Y-60198213D01*
X58964819Y-115016666D02*
X58488628Y-115349999D01*
X58964819Y-115588094D02*
X57964819Y-115588094D01*
X57964819Y-115588094D02*
X57964819Y-115207142D01*
X57964819Y-115207142D02*
X58012438Y-115111904D01*
X58012438Y-115111904D02*
X58060057Y-115064285D01*
X58060057Y-115064285D02*
X58155295Y-115016666D01*
X58155295Y-115016666D02*
X58298152Y-115016666D01*
X58298152Y-115016666D02*
X58393390Y-115064285D01*
X58393390Y-115064285D02*
X58441009Y-115111904D01*
X58441009Y-115111904D02*
X58488628Y-115207142D01*
X58488628Y-115207142D02*
X58488628Y-115588094D01*
X57964819Y-114111904D02*
X57964819Y-114588094D01*
X57964819Y-114588094D02*
X58441009Y-114635713D01*
X58441009Y-114635713D02*
X58393390Y-114588094D01*
X58393390Y-114588094D02*
X58345771Y-114492856D01*
X58345771Y-114492856D02*
X58345771Y-114254761D01*
X58345771Y-114254761D02*
X58393390Y-114159523D01*
X58393390Y-114159523D02*
X58441009Y-114111904D01*
X58441009Y-114111904D02*
X58536247Y-114064285D01*
X58536247Y-114064285D02*
X58774342Y-114064285D01*
X58774342Y-114064285D02*
X58869580Y-114111904D01*
X58869580Y-114111904D02*
X58917200Y-114159523D01*
X58917200Y-114159523D02*
X58964819Y-114254761D01*
X58964819Y-114254761D02*
X58964819Y-114492856D01*
X58964819Y-114492856D02*
X58917200Y-114588094D01*
X58917200Y-114588094D02*
X58869580Y-114635713D01*
X81314819Y-115616666D02*
X80838628Y-115949999D01*
X81314819Y-116188094D02*
X80314819Y-116188094D01*
X80314819Y-116188094D02*
X80314819Y-115807142D01*
X80314819Y-115807142D02*
X80362438Y-115711904D01*
X80362438Y-115711904D02*
X80410057Y-115664285D01*
X80410057Y-115664285D02*
X80505295Y-115616666D01*
X80505295Y-115616666D02*
X80648152Y-115616666D01*
X80648152Y-115616666D02*
X80743390Y-115664285D01*
X80743390Y-115664285D02*
X80791009Y-115711904D01*
X80791009Y-115711904D02*
X80838628Y-115807142D01*
X80838628Y-115807142D02*
X80838628Y-116188094D01*
X80648152Y-114759523D02*
X81314819Y-114759523D01*
X80267200Y-114997618D02*
X80981485Y-115235713D01*
X80981485Y-115235713D02*
X80981485Y-114616666D01*
X78364819Y-115616666D02*
X77888628Y-115949999D01*
X78364819Y-116188094D02*
X77364819Y-116188094D01*
X77364819Y-116188094D02*
X77364819Y-115807142D01*
X77364819Y-115807142D02*
X77412438Y-115711904D01*
X77412438Y-115711904D02*
X77460057Y-115664285D01*
X77460057Y-115664285D02*
X77555295Y-115616666D01*
X77555295Y-115616666D02*
X77698152Y-115616666D01*
X77698152Y-115616666D02*
X77793390Y-115664285D01*
X77793390Y-115664285D02*
X77841009Y-115711904D01*
X77841009Y-115711904D02*
X77888628Y-115807142D01*
X77888628Y-115807142D02*
X77888628Y-116188094D01*
X77364819Y-115283332D02*
X77364819Y-114664285D01*
X77364819Y-114664285D02*
X77745771Y-114997618D01*
X77745771Y-114997618D02*
X77745771Y-114854761D01*
X77745771Y-114854761D02*
X77793390Y-114759523D01*
X77793390Y-114759523D02*
X77841009Y-114711904D01*
X77841009Y-114711904D02*
X77936247Y-114664285D01*
X77936247Y-114664285D02*
X78174342Y-114664285D01*
X78174342Y-114664285D02*
X78269580Y-114711904D01*
X78269580Y-114711904D02*
X78317200Y-114759523D01*
X78317200Y-114759523D02*
X78364819Y-114854761D01*
X78364819Y-114854761D02*
X78364819Y-115140475D01*
X78364819Y-115140475D02*
X78317200Y-115235713D01*
X78317200Y-115235713D02*
X78269580Y-115283332D01*
X75414819Y-115616666D02*
X74938628Y-115949999D01*
X75414819Y-116188094D02*
X74414819Y-116188094D01*
X74414819Y-116188094D02*
X74414819Y-115807142D01*
X74414819Y-115807142D02*
X74462438Y-115711904D01*
X74462438Y-115711904D02*
X74510057Y-115664285D01*
X74510057Y-115664285D02*
X74605295Y-115616666D01*
X74605295Y-115616666D02*
X74748152Y-115616666D01*
X74748152Y-115616666D02*
X74843390Y-115664285D01*
X74843390Y-115664285D02*
X74891009Y-115711904D01*
X74891009Y-115711904D02*
X74938628Y-115807142D01*
X74938628Y-115807142D02*
X74938628Y-116188094D01*
X74510057Y-115235713D02*
X74462438Y-115188094D01*
X74462438Y-115188094D02*
X74414819Y-115092856D01*
X74414819Y-115092856D02*
X74414819Y-114854761D01*
X74414819Y-114854761D02*
X74462438Y-114759523D01*
X74462438Y-114759523D02*
X74510057Y-114711904D01*
X74510057Y-114711904D02*
X74605295Y-114664285D01*
X74605295Y-114664285D02*
X74700533Y-114664285D01*
X74700533Y-114664285D02*
X74843390Y-114711904D01*
X74843390Y-114711904D02*
X75414819Y-115283332D01*
X75414819Y-115283332D02*
X75414819Y-114664285D01*
X55674819Y-115016666D02*
X55198628Y-115349999D01*
X55674819Y-115588094D02*
X54674819Y-115588094D01*
X54674819Y-115588094D02*
X54674819Y-115207142D01*
X54674819Y-115207142D02*
X54722438Y-115111904D01*
X54722438Y-115111904D02*
X54770057Y-115064285D01*
X54770057Y-115064285D02*
X54865295Y-115016666D01*
X54865295Y-115016666D02*
X55008152Y-115016666D01*
X55008152Y-115016666D02*
X55103390Y-115064285D01*
X55103390Y-115064285D02*
X55151009Y-115111904D01*
X55151009Y-115111904D02*
X55198628Y-115207142D01*
X55198628Y-115207142D02*
X55198628Y-115588094D01*
X55674819Y-114064285D02*
X55674819Y-114635713D01*
X55674819Y-114349999D02*
X54674819Y-114349999D01*
X54674819Y-114349999D02*
X54817676Y-114445237D01*
X54817676Y-114445237D02*
X54912914Y-114540475D01*
X54912914Y-114540475D02*
X54960533Y-114635713D01*
X91595057Y-72077738D02*
X91547438Y-72172976D01*
X91547438Y-72172976D02*
X91452200Y-72268214D01*
X91452200Y-72268214D02*
X91309342Y-72411071D01*
X91309342Y-72411071D02*
X91261723Y-72506309D01*
X91261723Y-72506309D02*
X91261723Y-72601547D01*
X91499819Y-72553928D02*
X91452200Y-72649166D01*
X91452200Y-72649166D02*
X91356961Y-72744404D01*
X91356961Y-72744404D02*
X91166485Y-72792023D01*
X91166485Y-72792023D02*
X90833152Y-72792023D01*
X90833152Y-72792023D02*
X90642676Y-72744404D01*
X90642676Y-72744404D02*
X90547438Y-72649166D01*
X90547438Y-72649166D02*
X90499819Y-72553928D01*
X90499819Y-72553928D02*
X90499819Y-72363452D01*
X90499819Y-72363452D02*
X90547438Y-72268214D01*
X90547438Y-72268214D02*
X90642676Y-72172976D01*
X90642676Y-72172976D02*
X90833152Y-72125357D01*
X90833152Y-72125357D02*
X91166485Y-72125357D01*
X91166485Y-72125357D02*
X91356961Y-72172976D01*
X91356961Y-72172976D02*
X91452200Y-72268214D01*
X91452200Y-72268214D02*
X91499819Y-72363452D01*
X91499819Y-72363452D02*
X91499819Y-72553928D01*
X90595057Y-71744404D02*
X90547438Y-71696785D01*
X90547438Y-71696785D02*
X90499819Y-71601547D01*
X90499819Y-71601547D02*
X90499819Y-71363452D01*
X90499819Y-71363452D02*
X90547438Y-71268214D01*
X90547438Y-71268214D02*
X90595057Y-71220595D01*
X90595057Y-71220595D02*
X90690295Y-71172976D01*
X90690295Y-71172976D02*
X90785533Y-71172976D01*
X90785533Y-71172976D02*
X90928390Y-71220595D01*
X90928390Y-71220595D02*
X91499819Y-71792023D01*
X91499819Y-71792023D02*
X91499819Y-71172976D01*
X67989819Y-74829166D02*
X67989819Y-75305356D01*
X67989819Y-75305356D02*
X66989819Y-75305356D01*
X67085057Y-74543451D02*
X67037438Y-74495832D01*
X67037438Y-74495832D02*
X66989819Y-74400594D01*
X66989819Y-74400594D02*
X66989819Y-74162499D01*
X66989819Y-74162499D02*
X67037438Y-74067261D01*
X67037438Y-74067261D02*
X67085057Y-74019642D01*
X67085057Y-74019642D02*
X67180295Y-73972023D01*
X67180295Y-73972023D02*
X67275533Y-73972023D01*
X67275533Y-73972023D02*
X67418390Y-74019642D01*
X67418390Y-74019642D02*
X67989819Y-74591070D01*
X67989819Y-74591070D02*
X67989819Y-73972023D01*
X87584819Y-63019166D02*
X87584819Y-63495356D01*
X87584819Y-63495356D02*
X86584819Y-63495356D01*
X87584819Y-62162023D02*
X87584819Y-62733451D01*
X87584819Y-62447737D02*
X86584819Y-62447737D01*
X86584819Y-62447737D02*
X86727676Y-62542975D01*
X86727676Y-62542975D02*
X86822914Y-62638213D01*
X86822914Y-62638213D02*
X86870533Y-62733451D01*
X53834819Y-61935833D02*
X54549104Y-61935833D01*
X54549104Y-61935833D02*
X54691961Y-61983452D01*
X54691961Y-61983452D02*
X54787200Y-62078690D01*
X54787200Y-62078690D02*
X54834819Y-62221547D01*
X54834819Y-62221547D02*
X54834819Y-62316785D01*
X53930057Y-61507261D02*
X53882438Y-61459642D01*
X53882438Y-61459642D02*
X53834819Y-61364404D01*
X53834819Y-61364404D02*
X53834819Y-61126309D01*
X53834819Y-61126309D02*
X53882438Y-61031071D01*
X53882438Y-61031071D02*
X53930057Y-60983452D01*
X53930057Y-60983452D02*
X54025295Y-60935833D01*
X54025295Y-60935833D02*
X54120533Y-60935833D01*
X54120533Y-60935833D02*
X54263390Y-60983452D01*
X54263390Y-60983452D02*
X54834819Y-61554880D01*
X54834819Y-61554880D02*
X54834819Y-60935833D01*
X54404819Y-126063333D02*
X55119104Y-126063333D01*
X55119104Y-126063333D02*
X55261961Y-126110952D01*
X55261961Y-126110952D02*
X55357200Y-126206190D01*
X55357200Y-126206190D02*
X55404819Y-126349047D01*
X55404819Y-126349047D02*
X55404819Y-126444285D01*
X55404819Y-125063333D02*
X55404819Y-125634761D01*
X55404819Y-125349047D02*
X54404819Y-125349047D01*
X54404819Y-125349047D02*
X54547676Y-125444285D01*
X54547676Y-125444285D02*
X54642914Y-125539523D01*
X54642914Y-125539523D02*
X54690533Y-125634761D01*
D11*
X93282419Y-66055594D02*
X92282419Y-66055594D01*
X92282419Y-66055594D02*
X92282419Y-65817499D01*
X92282419Y-65817499D02*
X92330038Y-65674642D01*
X92330038Y-65674642D02*
X92425276Y-65579404D01*
X92425276Y-65579404D02*
X92520514Y-65531785D01*
X92520514Y-65531785D02*
X92710990Y-65484166D01*
X92710990Y-65484166D02*
X92853847Y-65484166D01*
X92853847Y-65484166D02*
X93044323Y-65531785D01*
X93044323Y-65531785D02*
X93139561Y-65579404D01*
X93139561Y-65579404D02*
X93234800Y-65674642D01*
X93234800Y-65674642D02*
X93282419Y-65817499D01*
X93282419Y-65817499D02*
X93282419Y-66055594D01*
X93282419Y-64531785D02*
X93282419Y-65103213D01*
X93282419Y-64817499D02*
X92282419Y-64817499D01*
X92282419Y-64817499D02*
X92425276Y-64912737D01*
X92425276Y-64912737D02*
X92520514Y-65007975D01*
X92520514Y-65007975D02*
X92568133Y-65103213D01*
D10*
X96579819Y-68017500D02*
X96579819Y-68588928D01*
X96579819Y-68303214D02*
X95579819Y-68303214D01*
X95579819Y-68303214D02*
X95722676Y-68398452D01*
X95722676Y-68398452D02*
X95817914Y-68493690D01*
X95817914Y-68493690D02*
X95865533Y-68588928D01*
X96579819Y-67588928D02*
X95579819Y-67588928D01*
X95579819Y-67588928D02*
X96579819Y-67017500D01*
X96579819Y-67017500D02*
X95579819Y-67017500D01*
X95579819Y-66065119D02*
X95579819Y-66541309D01*
X95579819Y-66541309D02*
X96056009Y-66588928D01*
X96056009Y-66588928D02*
X96008390Y-66541309D01*
X96008390Y-66541309D02*
X95960771Y-66446071D01*
X95960771Y-66446071D02*
X95960771Y-66207976D01*
X95960771Y-66207976D02*
X96008390Y-66112738D01*
X96008390Y-66112738D02*
X96056009Y-66065119D01*
X96056009Y-66065119D02*
X96151247Y-66017500D01*
X96151247Y-66017500D02*
X96389342Y-66017500D01*
X96389342Y-66017500D02*
X96484580Y-66065119D01*
X96484580Y-66065119D02*
X96532200Y-66112738D01*
X96532200Y-66112738D02*
X96579819Y-66207976D01*
X96579819Y-66207976D02*
X96579819Y-66446071D01*
X96579819Y-66446071D02*
X96532200Y-66541309D01*
X96532200Y-66541309D02*
X96484580Y-66588928D01*
X95579819Y-65684166D02*
X95579819Y-65065119D01*
X95579819Y-65065119D02*
X95960771Y-65398452D01*
X95960771Y-65398452D02*
X95960771Y-65255595D01*
X95960771Y-65255595D02*
X96008390Y-65160357D01*
X96008390Y-65160357D02*
X96056009Y-65112738D01*
X96056009Y-65112738D02*
X96151247Y-65065119D01*
X96151247Y-65065119D02*
X96389342Y-65065119D01*
X96389342Y-65065119D02*
X96484580Y-65112738D01*
X96484580Y-65112738D02*
X96532200Y-65160357D01*
X96532200Y-65160357D02*
X96579819Y-65255595D01*
X96579819Y-65255595D02*
X96579819Y-65541309D01*
X96579819Y-65541309D02*
X96532200Y-65636547D01*
X96532200Y-65636547D02*
X96484580Y-65684166D01*
X96579819Y-64731785D02*
X95913152Y-64207976D01*
X95913152Y-64731785D02*
X96579819Y-64207976D01*
X96579819Y-63922261D02*
X95913152Y-63398452D01*
X95913152Y-63922261D02*
X96579819Y-63398452D01*
X96056009Y-62684166D02*
X96103628Y-62541309D01*
X96103628Y-62541309D02*
X96151247Y-62493690D01*
X96151247Y-62493690D02*
X96246485Y-62446071D01*
X96246485Y-62446071D02*
X96389342Y-62446071D01*
X96389342Y-62446071D02*
X96484580Y-62493690D01*
X96484580Y-62493690D02*
X96532200Y-62541309D01*
X96532200Y-62541309D02*
X96579819Y-62636547D01*
X96579819Y-62636547D02*
X96579819Y-63017499D01*
X96579819Y-63017499D02*
X95579819Y-63017499D01*
X95579819Y-63017499D02*
X95579819Y-62684166D01*
X95579819Y-62684166D02*
X95627438Y-62588928D01*
X95627438Y-62588928D02*
X95675057Y-62541309D01*
X95675057Y-62541309D02*
X95770295Y-62493690D01*
X95770295Y-62493690D02*
X95865533Y-62493690D01*
X95865533Y-62493690D02*
X95960771Y-62541309D01*
X95960771Y-62541309D02*
X96008390Y-62588928D01*
X96008390Y-62588928D02*
X96056009Y-62684166D01*
X96056009Y-62684166D02*
X96056009Y-63017499D01*
X89529580Y-77475357D02*
X89577200Y-77522976D01*
X89577200Y-77522976D02*
X89624819Y-77665833D01*
X89624819Y-77665833D02*
X89624819Y-77761071D01*
X89624819Y-77761071D02*
X89577200Y-77903928D01*
X89577200Y-77903928D02*
X89481961Y-77999166D01*
X89481961Y-77999166D02*
X89386723Y-78046785D01*
X89386723Y-78046785D02*
X89196247Y-78094404D01*
X89196247Y-78094404D02*
X89053390Y-78094404D01*
X89053390Y-78094404D02*
X88862914Y-78046785D01*
X88862914Y-78046785D02*
X88767676Y-77999166D01*
X88767676Y-77999166D02*
X88672438Y-77903928D01*
X88672438Y-77903928D02*
X88624819Y-77761071D01*
X88624819Y-77761071D02*
X88624819Y-77665833D01*
X88624819Y-77665833D02*
X88672438Y-77522976D01*
X88672438Y-77522976D02*
X88720057Y-77475357D01*
X88958152Y-76618214D02*
X89624819Y-76618214D01*
X88577200Y-76856309D02*
X89291485Y-77094404D01*
X89291485Y-77094404D02*
X89291485Y-76475357D01*
X89624819Y-75570595D02*
X89624819Y-76142023D01*
X89624819Y-75856309D02*
X88624819Y-75856309D01*
X88624819Y-75856309D02*
X88767676Y-75951547D01*
X88767676Y-75951547D02*
X88862914Y-76046785D01*
X88862914Y-76046785D02*
X88910533Y-76142023D01*
X86519580Y-77475357D02*
X86567200Y-77522976D01*
X86567200Y-77522976D02*
X86614819Y-77665833D01*
X86614819Y-77665833D02*
X86614819Y-77761071D01*
X86614819Y-77761071D02*
X86567200Y-77903928D01*
X86567200Y-77903928D02*
X86471961Y-77999166D01*
X86471961Y-77999166D02*
X86376723Y-78046785D01*
X86376723Y-78046785D02*
X86186247Y-78094404D01*
X86186247Y-78094404D02*
X86043390Y-78094404D01*
X86043390Y-78094404D02*
X85852914Y-78046785D01*
X85852914Y-78046785D02*
X85757676Y-77999166D01*
X85757676Y-77999166D02*
X85662438Y-77903928D01*
X85662438Y-77903928D02*
X85614819Y-77761071D01*
X85614819Y-77761071D02*
X85614819Y-77665833D01*
X85614819Y-77665833D02*
X85662438Y-77522976D01*
X85662438Y-77522976D02*
X85710057Y-77475357D01*
X85614819Y-77142023D02*
X85614819Y-76522976D01*
X85614819Y-76522976D02*
X85995771Y-76856309D01*
X85995771Y-76856309D02*
X85995771Y-76713452D01*
X85995771Y-76713452D02*
X86043390Y-76618214D01*
X86043390Y-76618214D02*
X86091009Y-76570595D01*
X86091009Y-76570595D02*
X86186247Y-76522976D01*
X86186247Y-76522976D02*
X86424342Y-76522976D01*
X86424342Y-76522976D02*
X86519580Y-76570595D01*
X86519580Y-76570595D02*
X86567200Y-76618214D01*
X86567200Y-76618214D02*
X86614819Y-76713452D01*
X86614819Y-76713452D02*
X86614819Y-76999166D01*
X86614819Y-76999166D02*
X86567200Y-77094404D01*
X86567200Y-77094404D02*
X86519580Y-77142023D01*
X86614819Y-76046785D02*
X86614819Y-75856309D01*
X86614819Y-75856309D02*
X86567200Y-75761071D01*
X86567200Y-75761071D02*
X86519580Y-75713452D01*
X86519580Y-75713452D02*
X86376723Y-75618214D01*
X86376723Y-75618214D02*
X86186247Y-75570595D01*
X86186247Y-75570595D02*
X85805295Y-75570595D01*
X85805295Y-75570595D02*
X85710057Y-75618214D01*
X85710057Y-75618214D02*
X85662438Y-75665833D01*
X85662438Y-75665833D02*
X85614819Y-75761071D01*
X85614819Y-75761071D02*
X85614819Y-75951547D01*
X85614819Y-75951547D02*
X85662438Y-76046785D01*
X85662438Y-76046785D02*
X85710057Y-76094404D01*
X85710057Y-76094404D02*
X85805295Y-76142023D01*
X85805295Y-76142023D02*
X86043390Y-76142023D01*
X86043390Y-76142023D02*
X86138628Y-76094404D01*
X86138628Y-76094404D02*
X86186247Y-76046785D01*
X86186247Y-76046785D02*
X86233866Y-75951547D01*
X86233866Y-75951547D02*
X86233866Y-75761071D01*
X86233866Y-75761071D02*
X86186247Y-75665833D01*
X86186247Y-75665833D02*
X86138628Y-75618214D01*
X86138628Y-75618214D02*
X86043390Y-75570595D01*
X83509580Y-77475357D02*
X83557200Y-77522976D01*
X83557200Y-77522976D02*
X83604819Y-77665833D01*
X83604819Y-77665833D02*
X83604819Y-77761071D01*
X83604819Y-77761071D02*
X83557200Y-77903928D01*
X83557200Y-77903928D02*
X83461961Y-77999166D01*
X83461961Y-77999166D02*
X83366723Y-78046785D01*
X83366723Y-78046785D02*
X83176247Y-78094404D01*
X83176247Y-78094404D02*
X83033390Y-78094404D01*
X83033390Y-78094404D02*
X82842914Y-78046785D01*
X82842914Y-78046785D02*
X82747676Y-77999166D01*
X82747676Y-77999166D02*
X82652438Y-77903928D01*
X82652438Y-77903928D02*
X82604819Y-77761071D01*
X82604819Y-77761071D02*
X82604819Y-77665833D01*
X82604819Y-77665833D02*
X82652438Y-77522976D01*
X82652438Y-77522976D02*
X82700057Y-77475357D01*
X82604819Y-77142023D02*
X82604819Y-76522976D01*
X82604819Y-76522976D02*
X82985771Y-76856309D01*
X82985771Y-76856309D02*
X82985771Y-76713452D01*
X82985771Y-76713452D02*
X83033390Y-76618214D01*
X83033390Y-76618214D02*
X83081009Y-76570595D01*
X83081009Y-76570595D02*
X83176247Y-76522976D01*
X83176247Y-76522976D02*
X83414342Y-76522976D01*
X83414342Y-76522976D02*
X83509580Y-76570595D01*
X83509580Y-76570595D02*
X83557200Y-76618214D01*
X83557200Y-76618214D02*
X83604819Y-76713452D01*
X83604819Y-76713452D02*
X83604819Y-76999166D01*
X83604819Y-76999166D02*
X83557200Y-77094404D01*
X83557200Y-77094404D02*
X83509580Y-77142023D01*
X83033390Y-75951547D02*
X82985771Y-76046785D01*
X82985771Y-76046785D02*
X82938152Y-76094404D01*
X82938152Y-76094404D02*
X82842914Y-76142023D01*
X82842914Y-76142023D02*
X82795295Y-76142023D01*
X82795295Y-76142023D02*
X82700057Y-76094404D01*
X82700057Y-76094404D02*
X82652438Y-76046785D01*
X82652438Y-76046785D02*
X82604819Y-75951547D01*
X82604819Y-75951547D02*
X82604819Y-75761071D01*
X82604819Y-75761071D02*
X82652438Y-75665833D01*
X82652438Y-75665833D02*
X82700057Y-75618214D01*
X82700057Y-75618214D02*
X82795295Y-75570595D01*
X82795295Y-75570595D02*
X82842914Y-75570595D01*
X82842914Y-75570595D02*
X82938152Y-75618214D01*
X82938152Y-75618214D02*
X82985771Y-75665833D01*
X82985771Y-75665833D02*
X83033390Y-75761071D01*
X83033390Y-75761071D02*
X83033390Y-75951547D01*
X83033390Y-75951547D02*
X83081009Y-76046785D01*
X83081009Y-76046785D02*
X83128628Y-76094404D01*
X83128628Y-76094404D02*
X83223866Y-76142023D01*
X83223866Y-76142023D02*
X83414342Y-76142023D01*
X83414342Y-76142023D02*
X83509580Y-76094404D01*
X83509580Y-76094404D02*
X83557200Y-76046785D01*
X83557200Y-76046785D02*
X83604819Y-75951547D01*
X83604819Y-75951547D02*
X83604819Y-75761071D01*
X83604819Y-75761071D02*
X83557200Y-75665833D01*
X83557200Y-75665833D02*
X83509580Y-75618214D01*
X83509580Y-75618214D02*
X83414342Y-75570595D01*
X83414342Y-75570595D02*
X83223866Y-75570595D01*
X83223866Y-75570595D02*
X83128628Y-75618214D01*
X83128628Y-75618214D02*
X83081009Y-75665833D01*
X83081009Y-75665833D02*
X83033390Y-75761071D01*
X83189580Y-120812857D02*
X83237200Y-120860476D01*
X83237200Y-120860476D02*
X83284819Y-121003333D01*
X83284819Y-121003333D02*
X83284819Y-121098571D01*
X83284819Y-121098571D02*
X83237200Y-121241428D01*
X83237200Y-121241428D02*
X83141961Y-121336666D01*
X83141961Y-121336666D02*
X83046723Y-121384285D01*
X83046723Y-121384285D02*
X82856247Y-121431904D01*
X82856247Y-121431904D02*
X82713390Y-121431904D01*
X82713390Y-121431904D02*
X82522914Y-121384285D01*
X82522914Y-121384285D02*
X82427676Y-121336666D01*
X82427676Y-121336666D02*
X82332438Y-121241428D01*
X82332438Y-121241428D02*
X82284819Y-121098571D01*
X82284819Y-121098571D02*
X82284819Y-121003333D01*
X82284819Y-121003333D02*
X82332438Y-120860476D01*
X82332438Y-120860476D02*
X82380057Y-120812857D01*
X82284819Y-120479523D02*
X82284819Y-119860476D01*
X82284819Y-119860476D02*
X82665771Y-120193809D01*
X82665771Y-120193809D02*
X82665771Y-120050952D01*
X82665771Y-120050952D02*
X82713390Y-119955714D01*
X82713390Y-119955714D02*
X82761009Y-119908095D01*
X82761009Y-119908095D02*
X82856247Y-119860476D01*
X82856247Y-119860476D02*
X83094342Y-119860476D01*
X83094342Y-119860476D02*
X83189580Y-119908095D01*
X83189580Y-119908095D02*
X83237200Y-119955714D01*
X83237200Y-119955714D02*
X83284819Y-120050952D01*
X83284819Y-120050952D02*
X83284819Y-120336666D01*
X83284819Y-120336666D02*
X83237200Y-120431904D01*
X83237200Y-120431904D02*
X83189580Y-120479523D01*
X82284819Y-119527142D02*
X82284819Y-118860476D01*
X82284819Y-118860476D02*
X83284819Y-119289047D01*
X80679580Y-120812857D02*
X80727200Y-120860476D01*
X80727200Y-120860476D02*
X80774819Y-121003333D01*
X80774819Y-121003333D02*
X80774819Y-121098571D01*
X80774819Y-121098571D02*
X80727200Y-121241428D01*
X80727200Y-121241428D02*
X80631961Y-121336666D01*
X80631961Y-121336666D02*
X80536723Y-121384285D01*
X80536723Y-121384285D02*
X80346247Y-121431904D01*
X80346247Y-121431904D02*
X80203390Y-121431904D01*
X80203390Y-121431904D02*
X80012914Y-121384285D01*
X80012914Y-121384285D02*
X79917676Y-121336666D01*
X79917676Y-121336666D02*
X79822438Y-121241428D01*
X79822438Y-121241428D02*
X79774819Y-121098571D01*
X79774819Y-121098571D02*
X79774819Y-121003333D01*
X79774819Y-121003333D02*
X79822438Y-120860476D01*
X79822438Y-120860476D02*
X79870057Y-120812857D01*
X79774819Y-120479523D02*
X79774819Y-119860476D01*
X79774819Y-119860476D02*
X80155771Y-120193809D01*
X80155771Y-120193809D02*
X80155771Y-120050952D01*
X80155771Y-120050952D02*
X80203390Y-119955714D01*
X80203390Y-119955714D02*
X80251009Y-119908095D01*
X80251009Y-119908095D02*
X80346247Y-119860476D01*
X80346247Y-119860476D02*
X80584342Y-119860476D01*
X80584342Y-119860476D02*
X80679580Y-119908095D01*
X80679580Y-119908095D02*
X80727200Y-119955714D01*
X80727200Y-119955714D02*
X80774819Y-120050952D01*
X80774819Y-120050952D02*
X80774819Y-120336666D01*
X80774819Y-120336666D02*
X80727200Y-120431904D01*
X80727200Y-120431904D02*
X80679580Y-120479523D01*
X79774819Y-119003333D02*
X79774819Y-119193809D01*
X79774819Y-119193809D02*
X79822438Y-119289047D01*
X79822438Y-119289047D02*
X79870057Y-119336666D01*
X79870057Y-119336666D02*
X80012914Y-119431904D01*
X80012914Y-119431904D02*
X80203390Y-119479523D01*
X80203390Y-119479523D02*
X80584342Y-119479523D01*
X80584342Y-119479523D02*
X80679580Y-119431904D01*
X80679580Y-119431904D02*
X80727200Y-119384285D01*
X80727200Y-119384285D02*
X80774819Y-119289047D01*
X80774819Y-119289047D02*
X80774819Y-119098571D01*
X80774819Y-119098571D02*
X80727200Y-119003333D01*
X80727200Y-119003333D02*
X80679580Y-118955714D01*
X80679580Y-118955714D02*
X80584342Y-118908095D01*
X80584342Y-118908095D02*
X80346247Y-118908095D01*
X80346247Y-118908095D02*
X80251009Y-118955714D01*
X80251009Y-118955714D02*
X80203390Y-119003333D01*
X80203390Y-119003333D02*
X80155771Y-119098571D01*
X80155771Y-119098571D02*
X80155771Y-119289047D01*
X80155771Y-119289047D02*
X80203390Y-119384285D01*
X80203390Y-119384285D02*
X80251009Y-119431904D01*
X80251009Y-119431904D02*
X80346247Y-119479523D01*
X66559580Y-68625357D02*
X66607200Y-68672976D01*
X66607200Y-68672976D02*
X66654819Y-68815833D01*
X66654819Y-68815833D02*
X66654819Y-68911071D01*
X66654819Y-68911071D02*
X66607200Y-69053928D01*
X66607200Y-69053928D02*
X66511961Y-69149166D01*
X66511961Y-69149166D02*
X66416723Y-69196785D01*
X66416723Y-69196785D02*
X66226247Y-69244404D01*
X66226247Y-69244404D02*
X66083390Y-69244404D01*
X66083390Y-69244404D02*
X65892914Y-69196785D01*
X65892914Y-69196785D02*
X65797676Y-69149166D01*
X65797676Y-69149166D02*
X65702438Y-69053928D01*
X65702438Y-69053928D02*
X65654819Y-68911071D01*
X65654819Y-68911071D02*
X65654819Y-68815833D01*
X65654819Y-68815833D02*
X65702438Y-68672976D01*
X65702438Y-68672976D02*
X65750057Y-68625357D01*
X65654819Y-68292023D02*
X65654819Y-67672976D01*
X65654819Y-67672976D02*
X66035771Y-68006309D01*
X66035771Y-68006309D02*
X66035771Y-67863452D01*
X66035771Y-67863452D02*
X66083390Y-67768214D01*
X66083390Y-67768214D02*
X66131009Y-67720595D01*
X66131009Y-67720595D02*
X66226247Y-67672976D01*
X66226247Y-67672976D02*
X66464342Y-67672976D01*
X66464342Y-67672976D02*
X66559580Y-67720595D01*
X66559580Y-67720595D02*
X66607200Y-67768214D01*
X66607200Y-67768214D02*
X66654819Y-67863452D01*
X66654819Y-67863452D02*
X66654819Y-68149166D01*
X66654819Y-68149166D02*
X66607200Y-68244404D01*
X66607200Y-68244404D02*
X66559580Y-68292023D01*
X65654819Y-66768214D02*
X65654819Y-67244404D01*
X65654819Y-67244404D02*
X66131009Y-67292023D01*
X66131009Y-67292023D02*
X66083390Y-67244404D01*
X66083390Y-67244404D02*
X66035771Y-67149166D01*
X66035771Y-67149166D02*
X66035771Y-66911071D01*
X66035771Y-66911071D02*
X66083390Y-66815833D01*
X66083390Y-66815833D02*
X66131009Y-66768214D01*
X66131009Y-66768214D02*
X66226247Y-66720595D01*
X66226247Y-66720595D02*
X66464342Y-66720595D01*
X66464342Y-66720595D02*
X66559580Y-66768214D01*
X66559580Y-66768214D02*
X66607200Y-66815833D01*
X66607200Y-66815833D02*
X66654819Y-66911071D01*
X66654819Y-66911071D02*
X66654819Y-67149166D01*
X66654819Y-67149166D02*
X66607200Y-67244404D01*
X66607200Y-67244404D02*
X66559580Y-67292023D01*
X64589580Y-68625357D02*
X64637200Y-68672976D01*
X64637200Y-68672976D02*
X64684819Y-68815833D01*
X64684819Y-68815833D02*
X64684819Y-68911071D01*
X64684819Y-68911071D02*
X64637200Y-69053928D01*
X64637200Y-69053928D02*
X64541961Y-69149166D01*
X64541961Y-69149166D02*
X64446723Y-69196785D01*
X64446723Y-69196785D02*
X64256247Y-69244404D01*
X64256247Y-69244404D02*
X64113390Y-69244404D01*
X64113390Y-69244404D02*
X63922914Y-69196785D01*
X63922914Y-69196785D02*
X63827676Y-69149166D01*
X63827676Y-69149166D02*
X63732438Y-69053928D01*
X63732438Y-69053928D02*
X63684819Y-68911071D01*
X63684819Y-68911071D02*
X63684819Y-68815833D01*
X63684819Y-68815833D02*
X63732438Y-68672976D01*
X63732438Y-68672976D02*
X63780057Y-68625357D01*
X63684819Y-68292023D02*
X63684819Y-67672976D01*
X63684819Y-67672976D02*
X64065771Y-68006309D01*
X64065771Y-68006309D02*
X64065771Y-67863452D01*
X64065771Y-67863452D02*
X64113390Y-67768214D01*
X64113390Y-67768214D02*
X64161009Y-67720595D01*
X64161009Y-67720595D02*
X64256247Y-67672976D01*
X64256247Y-67672976D02*
X64494342Y-67672976D01*
X64494342Y-67672976D02*
X64589580Y-67720595D01*
X64589580Y-67720595D02*
X64637200Y-67768214D01*
X64637200Y-67768214D02*
X64684819Y-67863452D01*
X64684819Y-67863452D02*
X64684819Y-68149166D01*
X64684819Y-68149166D02*
X64637200Y-68244404D01*
X64637200Y-68244404D02*
X64589580Y-68292023D01*
X64018152Y-66815833D02*
X64684819Y-66815833D01*
X63637200Y-67053928D02*
X64351485Y-67292023D01*
X64351485Y-67292023D02*
X64351485Y-66672976D01*
X62619580Y-68625357D02*
X62667200Y-68672976D01*
X62667200Y-68672976D02*
X62714819Y-68815833D01*
X62714819Y-68815833D02*
X62714819Y-68911071D01*
X62714819Y-68911071D02*
X62667200Y-69053928D01*
X62667200Y-69053928D02*
X62571961Y-69149166D01*
X62571961Y-69149166D02*
X62476723Y-69196785D01*
X62476723Y-69196785D02*
X62286247Y-69244404D01*
X62286247Y-69244404D02*
X62143390Y-69244404D01*
X62143390Y-69244404D02*
X61952914Y-69196785D01*
X61952914Y-69196785D02*
X61857676Y-69149166D01*
X61857676Y-69149166D02*
X61762438Y-69053928D01*
X61762438Y-69053928D02*
X61714819Y-68911071D01*
X61714819Y-68911071D02*
X61714819Y-68815833D01*
X61714819Y-68815833D02*
X61762438Y-68672976D01*
X61762438Y-68672976D02*
X61810057Y-68625357D01*
X61714819Y-68292023D02*
X61714819Y-67672976D01*
X61714819Y-67672976D02*
X62095771Y-68006309D01*
X62095771Y-68006309D02*
X62095771Y-67863452D01*
X62095771Y-67863452D02*
X62143390Y-67768214D01*
X62143390Y-67768214D02*
X62191009Y-67720595D01*
X62191009Y-67720595D02*
X62286247Y-67672976D01*
X62286247Y-67672976D02*
X62524342Y-67672976D01*
X62524342Y-67672976D02*
X62619580Y-67720595D01*
X62619580Y-67720595D02*
X62667200Y-67768214D01*
X62667200Y-67768214D02*
X62714819Y-67863452D01*
X62714819Y-67863452D02*
X62714819Y-68149166D01*
X62714819Y-68149166D02*
X62667200Y-68244404D01*
X62667200Y-68244404D02*
X62619580Y-68292023D01*
X61714819Y-67339642D02*
X61714819Y-66720595D01*
X61714819Y-66720595D02*
X62095771Y-67053928D01*
X62095771Y-67053928D02*
X62095771Y-66911071D01*
X62095771Y-66911071D02*
X62143390Y-66815833D01*
X62143390Y-66815833D02*
X62191009Y-66768214D01*
X62191009Y-66768214D02*
X62286247Y-66720595D01*
X62286247Y-66720595D02*
X62524342Y-66720595D01*
X62524342Y-66720595D02*
X62619580Y-66768214D01*
X62619580Y-66768214D02*
X62667200Y-66815833D01*
X62667200Y-66815833D02*
X62714819Y-66911071D01*
X62714819Y-66911071D02*
X62714819Y-67196785D01*
X62714819Y-67196785D02*
X62667200Y-67292023D01*
X62667200Y-67292023D02*
X62619580Y-67339642D01*
X60649580Y-68625357D02*
X60697200Y-68672976D01*
X60697200Y-68672976D02*
X60744819Y-68815833D01*
X60744819Y-68815833D02*
X60744819Y-68911071D01*
X60744819Y-68911071D02*
X60697200Y-69053928D01*
X60697200Y-69053928D02*
X60601961Y-69149166D01*
X60601961Y-69149166D02*
X60506723Y-69196785D01*
X60506723Y-69196785D02*
X60316247Y-69244404D01*
X60316247Y-69244404D02*
X60173390Y-69244404D01*
X60173390Y-69244404D02*
X59982914Y-69196785D01*
X59982914Y-69196785D02*
X59887676Y-69149166D01*
X59887676Y-69149166D02*
X59792438Y-69053928D01*
X59792438Y-69053928D02*
X59744819Y-68911071D01*
X59744819Y-68911071D02*
X59744819Y-68815833D01*
X59744819Y-68815833D02*
X59792438Y-68672976D01*
X59792438Y-68672976D02*
X59840057Y-68625357D01*
X59744819Y-68292023D02*
X59744819Y-67672976D01*
X59744819Y-67672976D02*
X60125771Y-68006309D01*
X60125771Y-68006309D02*
X60125771Y-67863452D01*
X60125771Y-67863452D02*
X60173390Y-67768214D01*
X60173390Y-67768214D02*
X60221009Y-67720595D01*
X60221009Y-67720595D02*
X60316247Y-67672976D01*
X60316247Y-67672976D02*
X60554342Y-67672976D01*
X60554342Y-67672976D02*
X60649580Y-67720595D01*
X60649580Y-67720595D02*
X60697200Y-67768214D01*
X60697200Y-67768214D02*
X60744819Y-67863452D01*
X60744819Y-67863452D02*
X60744819Y-68149166D01*
X60744819Y-68149166D02*
X60697200Y-68244404D01*
X60697200Y-68244404D02*
X60649580Y-68292023D01*
X59840057Y-67292023D02*
X59792438Y-67244404D01*
X59792438Y-67244404D02*
X59744819Y-67149166D01*
X59744819Y-67149166D02*
X59744819Y-66911071D01*
X59744819Y-66911071D02*
X59792438Y-66815833D01*
X59792438Y-66815833D02*
X59840057Y-66768214D01*
X59840057Y-66768214D02*
X59935295Y-66720595D01*
X59935295Y-66720595D02*
X60030533Y-66720595D01*
X60030533Y-66720595D02*
X60173390Y-66768214D01*
X60173390Y-66768214D02*
X60744819Y-67339642D01*
X60744819Y-67339642D02*
X60744819Y-66720595D01*
X91609580Y-121382857D02*
X91657200Y-121430476D01*
X91657200Y-121430476D02*
X91704819Y-121573333D01*
X91704819Y-121573333D02*
X91704819Y-121668571D01*
X91704819Y-121668571D02*
X91657200Y-121811428D01*
X91657200Y-121811428D02*
X91561961Y-121906666D01*
X91561961Y-121906666D02*
X91466723Y-121954285D01*
X91466723Y-121954285D02*
X91276247Y-122001904D01*
X91276247Y-122001904D02*
X91133390Y-122001904D01*
X91133390Y-122001904D02*
X90942914Y-121954285D01*
X90942914Y-121954285D02*
X90847676Y-121906666D01*
X90847676Y-121906666D02*
X90752438Y-121811428D01*
X90752438Y-121811428D02*
X90704819Y-121668571D01*
X90704819Y-121668571D02*
X90704819Y-121573333D01*
X90704819Y-121573333D02*
X90752438Y-121430476D01*
X90752438Y-121430476D02*
X90800057Y-121382857D01*
X90704819Y-121049523D02*
X90704819Y-120430476D01*
X90704819Y-120430476D02*
X91085771Y-120763809D01*
X91085771Y-120763809D02*
X91085771Y-120620952D01*
X91085771Y-120620952D02*
X91133390Y-120525714D01*
X91133390Y-120525714D02*
X91181009Y-120478095D01*
X91181009Y-120478095D02*
X91276247Y-120430476D01*
X91276247Y-120430476D02*
X91514342Y-120430476D01*
X91514342Y-120430476D02*
X91609580Y-120478095D01*
X91609580Y-120478095D02*
X91657200Y-120525714D01*
X91657200Y-120525714D02*
X91704819Y-120620952D01*
X91704819Y-120620952D02*
X91704819Y-120906666D01*
X91704819Y-120906666D02*
X91657200Y-121001904D01*
X91657200Y-121001904D02*
X91609580Y-121049523D01*
X91704819Y-119478095D02*
X91704819Y-120049523D01*
X91704819Y-119763809D02*
X90704819Y-119763809D01*
X90704819Y-119763809D02*
X90847676Y-119859047D01*
X90847676Y-119859047D02*
X90942914Y-119954285D01*
X90942914Y-119954285D02*
X90990533Y-120049523D01*
X89639580Y-121382857D02*
X89687200Y-121430476D01*
X89687200Y-121430476D02*
X89734819Y-121573333D01*
X89734819Y-121573333D02*
X89734819Y-121668571D01*
X89734819Y-121668571D02*
X89687200Y-121811428D01*
X89687200Y-121811428D02*
X89591961Y-121906666D01*
X89591961Y-121906666D02*
X89496723Y-121954285D01*
X89496723Y-121954285D02*
X89306247Y-122001904D01*
X89306247Y-122001904D02*
X89163390Y-122001904D01*
X89163390Y-122001904D02*
X88972914Y-121954285D01*
X88972914Y-121954285D02*
X88877676Y-121906666D01*
X88877676Y-121906666D02*
X88782438Y-121811428D01*
X88782438Y-121811428D02*
X88734819Y-121668571D01*
X88734819Y-121668571D02*
X88734819Y-121573333D01*
X88734819Y-121573333D02*
X88782438Y-121430476D01*
X88782438Y-121430476D02*
X88830057Y-121382857D01*
X88734819Y-121049523D02*
X88734819Y-120430476D01*
X88734819Y-120430476D02*
X89115771Y-120763809D01*
X89115771Y-120763809D02*
X89115771Y-120620952D01*
X89115771Y-120620952D02*
X89163390Y-120525714D01*
X89163390Y-120525714D02*
X89211009Y-120478095D01*
X89211009Y-120478095D02*
X89306247Y-120430476D01*
X89306247Y-120430476D02*
X89544342Y-120430476D01*
X89544342Y-120430476D02*
X89639580Y-120478095D01*
X89639580Y-120478095D02*
X89687200Y-120525714D01*
X89687200Y-120525714D02*
X89734819Y-120620952D01*
X89734819Y-120620952D02*
X89734819Y-120906666D01*
X89734819Y-120906666D02*
X89687200Y-121001904D01*
X89687200Y-121001904D02*
X89639580Y-121049523D01*
X88734819Y-119811428D02*
X88734819Y-119716190D01*
X88734819Y-119716190D02*
X88782438Y-119620952D01*
X88782438Y-119620952D02*
X88830057Y-119573333D01*
X88830057Y-119573333D02*
X88925295Y-119525714D01*
X88925295Y-119525714D02*
X89115771Y-119478095D01*
X89115771Y-119478095D02*
X89353866Y-119478095D01*
X89353866Y-119478095D02*
X89544342Y-119525714D01*
X89544342Y-119525714D02*
X89639580Y-119573333D01*
X89639580Y-119573333D02*
X89687200Y-119620952D01*
X89687200Y-119620952D02*
X89734819Y-119716190D01*
X89734819Y-119716190D02*
X89734819Y-119811428D01*
X89734819Y-119811428D02*
X89687200Y-119906666D01*
X89687200Y-119906666D02*
X89639580Y-119954285D01*
X89639580Y-119954285D02*
X89544342Y-120001904D01*
X89544342Y-120001904D02*
X89353866Y-120049523D01*
X89353866Y-120049523D02*
X89115771Y-120049523D01*
X89115771Y-120049523D02*
X88925295Y-120001904D01*
X88925295Y-120001904D02*
X88830057Y-119954285D01*
X88830057Y-119954285D02*
X88782438Y-119906666D01*
X88782438Y-119906666D02*
X88734819Y-119811428D01*
X87669580Y-121382857D02*
X87717200Y-121430476D01*
X87717200Y-121430476D02*
X87764819Y-121573333D01*
X87764819Y-121573333D02*
X87764819Y-121668571D01*
X87764819Y-121668571D02*
X87717200Y-121811428D01*
X87717200Y-121811428D02*
X87621961Y-121906666D01*
X87621961Y-121906666D02*
X87526723Y-121954285D01*
X87526723Y-121954285D02*
X87336247Y-122001904D01*
X87336247Y-122001904D02*
X87193390Y-122001904D01*
X87193390Y-122001904D02*
X87002914Y-121954285D01*
X87002914Y-121954285D02*
X86907676Y-121906666D01*
X86907676Y-121906666D02*
X86812438Y-121811428D01*
X86812438Y-121811428D02*
X86764819Y-121668571D01*
X86764819Y-121668571D02*
X86764819Y-121573333D01*
X86764819Y-121573333D02*
X86812438Y-121430476D01*
X86812438Y-121430476D02*
X86860057Y-121382857D01*
X86860057Y-121001904D02*
X86812438Y-120954285D01*
X86812438Y-120954285D02*
X86764819Y-120859047D01*
X86764819Y-120859047D02*
X86764819Y-120620952D01*
X86764819Y-120620952D02*
X86812438Y-120525714D01*
X86812438Y-120525714D02*
X86860057Y-120478095D01*
X86860057Y-120478095D02*
X86955295Y-120430476D01*
X86955295Y-120430476D02*
X87050533Y-120430476D01*
X87050533Y-120430476D02*
X87193390Y-120478095D01*
X87193390Y-120478095D02*
X87764819Y-121049523D01*
X87764819Y-121049523D02*
X87764819Y-120430476D01*
X87764819Y-119954285D02*
X87764819Y-119763809D01*
X87764819Y-119763809D02*
X87717200Y-119668571D01*
X87717200Y-119668571D02*
X87669580Y-119620952D01*
X87669580Y-119620952D02*
X87526723Y-119525714D01*
X87526723Y-119525714D02*
X87336247Y-119478095D01*
X87336247Y-119478095D02*
X86955295Y-119478095D01*
X86955295Y-119478095D02*
X86860057Y-119525714D01*
X86860057Y-119525714D02*
X86812438Y-119573333D01*
X86812438Y-119573333D02*
X86764819Y-119668571D01*
X86764819Y-119668571D02*
X86764819Y-119859047D01*
X86764819Y-119859047D02*
X86812438Y-119954285D01*
X86812438Y-119954285D02*
X86860057Y-120001904D01*
X86860057Y-120001904D02*
X86955295Y-120049523D01*
X86955295Y-120049523D02*
X87193390Y-120049523D01*
X87193390Y-120049523D02*
X87288628Y-120001904D01*
X87288628Y-120001904D02*
X87336247Y-119954285D01*
X87336247Y-119954285D02*
X87383866Y-119859047D01*
X87383866Y-119859047D02*
X87383866Y-119668571D01*
X87383866Y-119668571D02*
X87336247Y-119573333D01*
X87336247Y-119573333D02*
X87288628Y-119525714D01*
X87288628Y-119525714D02*
X87193390Y-119478095D01*
X85699580Y-121382857D02*
X85747200Y-121430476D01*
X85747200Y-121430476D02*
X85794819Y-121573333D01*
X85794819Y-121573333D02*
X85794819Y-121668571D01*
X85794819Y-121668571D02*
X85747200Y-121811428D01*
X85747200Y-121811428D02*
X85651961Y-121906666D01*
X85651961Y-121906666D02*
X85556723Y-121954285D01*
X85556723Y-121954285D02*
X85366247Y-122001904D01*
X85366247Y-122001904D02*
X85223390Y-122001904D01*
X85223390Y-122001904D02*
X85032914Y-121954285D01*
X85032914Y-121954285D02*
X84937676Y-121906666D01*
X84937676Y-121906666D02*
X84842438Y-121811428D01*
X84842438Y-121811428D02*
X84794819Y-121668571D01*
X84794819Y-121668571D02*
X84794819Y-121573333D01*
X84794819Y-121573333D02*
X84842438Y-121430476D01*
X84842438Y-121430476D02*
X84890057Y-121382857D01*
X84890057Y-121001904D02*
X84842438Y-120954285D01*
X84842438Y-120954285D02*
X84794819Y-120859047D01*
X84794819Y-120859047D02*
X84794819Y-120620952D01*
X84794819Y-120620952D02*
X84842438Y-120525714D01*
X84842438Y-120525714D02*
X84890057Y-120478095D01*
X84890057Y-120478095D02*
X84985295Y-120430476D01*
X84985295Y-120430476D02*
X85080533Y-120430476D01*
X85080533Y-120430476D02*
X85223390Y-120478095D01*
X85223390Y-120478095D02*
X85794819Y-121049523D01*
X85794819Y-121049523D02*
X85794819Y-120430476D01*
X85223390Y-119859047D02*
X85175771Y-119954285D01*
X85175771Y-119954285D02*
X85128152Y-120001904D01*
X85128152Y-120001904D02*
X85032914Y-120049523D01*
X85032914Y-120049523D02*
X84985295Y-120049523D01*
X84985295Y-120049523D02*
X84890057Y-120001904D01*
X84890057Y-120001904D02*
X84842438Y-119954285D01*
X84842438Y-119954285D02*
X84794819Y-119859047D01*
X84794819Y-119859047D02*
X84794819Y-119668571D01*
X84794819Y-119668571D02*
X84842438Y-119573333D01*
X84842438Y-119573333D02*
X84890057Y-119525714D01*
X84890057Y-119525714D02*
X84985295Y-119478095D01*
X84985295Y-119478095D02*
X85032914Y-119478095D01*
X85032914Y-119478095D02*
X85128152Y-119525714D01*
X85128152Y-119525714D02*
X85175771Y-119573333D01*
X85175771Y-119573333D02*
X85223390Y-119668571D01*
X85223390Y-119668571D02*
X85223390Y-119859047D01*
X85223390Y-119859047D02*
X85271009Y-119954285D01*
X85271009Y-119954285D02*
X85318628Y-120001904D01*
X85318628Y-120001904D02*
X85413866Y-120049523D01*
X85413866Y-120049523D02*
X85604342Y-120049523D01*
X85604342Y-120049523D02*
X85699580Y-120001904D01*
X85699580Y-120001904D02*
X85747200Y-119954285D01*
X85747200Y-119954285D02*
X85794819Y-119859047D01*
X85794819Y-119859047D02*
X85794819Y-119668571D01*
X85794819Y-119668571D02*
X85747200Y-119573333D01*
X85747200Y-119573333D02*
X85699580Y-119525714D01*
X85699580Y-119525714D02*
X85604342Y-119478095D01*
X85604342Y-119478095D02*
X85413866Y-119478095D01*
X85413866Y-119478095D02*
X85318628Y-119525714D01*
X85318628Y-119525714D02*
X85271009Y-119573333D01*
X85271009Y-119573333D02*
X85223390Y-119668571D01*
X80499580Y-77475357D02*
X80547200Y-77522976D01*
X80547200Y-77522976D02*
X80594819Y-77665833D01*
X80594819Y-77665833D02*
X80594819Y-77761071D01*
X80594819Y-77761071D02*
X80547200Y-77903928D01*
X80547200Y-77903928D02*
X80451961Y-77999166D01*
X80451961Y-77999166D02*
X80356723Y-78046785D01*
X80356723Y-78046785D02*
X80166247Y-78094404D01*
X80166247Y-78094404D02*
X80023390Y-78094404D01*
X80023390Y-78094404D02*
X79832914Y-78046785D01*
X79832914Y-78046785D02*
X79737676Y-77999166D01*
X79737676Y-77999166D02*
X79642438Y-77903928D01*
X79642438Y-77903928D02*
X79594819Y-77761071D01*
X79594819Y-77761071D02*
X79594819Y-77665833D01*
X79594819Y-77665833D02*
X79642438Y-77522976D01*
X79642438Y-77522976D02*
X79690057Y-77475357D01*
X79690057Y-77094404D02*
X79642438Y-77046785D01*
X79642438Y-77046785D02*
X79594819Y-76951547D01*
X79594819Y-76951547D02*
X79594819Y-76713452D01*
X79594819Y-76713452D02*
X79642438Y-76618214D01*
X79642438Y-76618214D02*
X79690057Y-76570595D01*
X79690057Y-76570595D02*
X79785295Y-76522976D01*
X79785295Y-76522976D02*
X79880533Y-76522976D01*
X79880533Y-76522976D02*
X80023390Y-76570595D01*
X80023390Y-76570595D02*
X80594819Y-77142023D01*
X80594819Y-77142023D02*
X80594819Y-76522976D01*
X79594819Y-76189642D02*
X79594819Y-75522976D01*
X79594819Y-75522976D02*
X80594819Y-75951547D01*
X77489580Y-77475357D02*
X77537200Y-77522976D01*
X77537200Y-77522976D02*
X77584819Y-77665833D01*
X77584819Y-77665833D02*
X77584819Y-77761071D01*
X77584819Y-77761071D02*
X77537200Y-77903928D01*
X77537200Y-77903928D02*
X77441961Y-77999166D01*
X77441961Y-77999166D02*
X77346723Y-78046785D01*
X77346723Y-78046785D02*
X77156247Y-78094404D01*
X77156247Y-78094404D02*
X77013390Y-78094404D01*
X77013390Y-78094404D02*
X76822914Y-78046785D01*
X76822914Y-78046785D02*
X76727676Y-77999166D01*
X76727676Y-77999166D02*
X76632438Y-77903928D01*
X76632438Y-77903928D02*
X76584819Y-77761071D01*
X76584819Y-77761071D02*
X76584819Y-77665833D01*
X76584819Y-77665833D02*
X76632438Y-77522976D01*
X76632438Y-77522976D02*
X76680057Y-77475357D01*
X76680057Y-77094404D02*
X76632438Y-77046785D01*
X76632438Y-77046785D02*
X76584819Y-76951547D01*
X76584819Y-76951547D02*
X76584819Y-76713452D01*
X76584819Y-76713452D02*
X76632438Y-76618214D01*
X76632438Y-76618214D02*
X76680057Y-76570595D01*
X76680057Y-76570595D02*
X76775295Y-76522976D01*
X76775295Y-76522976D02*
X76870533Y-76522976D01*
X76870533Y-76522976D02*
X77013390Y-76570595D01*
X77013390Y-76570595D02*
X77584819Y-77142023D01*
X77584819Y-77142023D02*
X77584819Y-76522976D01*
X76584819Y-75665833D02*
X76584819Y-75856309D01*
X76584819Y-75856309D02*
X76632438Y-75951547D01*
X76632438Y-75951547D02*
X76680057Y-75999166D01*
X76680057Y-75999166D02*
X76822914Y-76094404D01*
X76822914Y-76094404D02*
X77013390Y-76142023D01*
X77013390Y-76142023D02*
X77394342Y-76142023D01*
X77394342Y-76142023D02*
X77489580Y-76094404D01*
X77489580Y-76094404D02*
X77537200Y-76046785D01*
X77537200Y-76046785D02*
X77584819Y-75951547D01*
X77584819Y-75951547D02*
X77584819Y-75761071D01*
X77584819Y-75761071D02*
X77537200Y-75665833D01*
X77537200Y-75665833D02*
X77489580Y-75618214D01*
X77489580Y-75618214D02*
X77394342Y-75570595D01*
X77394342Y-75570595D02*
X77156247Y-75570595D01*
X77156247Y-75570595D02*
X77061009Y-75618214D01*
X77061009Y-75618214D02*
X77013390Y-75665833D01*
X77013390Y-75665833D02*
X76965771Y-75761071D01*
X76965771Y-75761071D02*
X76965771Y-75951547D01*
X76965771Y-75951547D02*
X77013390Y-76046785D01*
X77013390Y-76046785D02*
X77061009Y-76094404D01*
X77061009Y-76094404D02*
X77156247Y-76142023D01*
X58679580Y-68625357D02*
X58727200Y-68672976D01*
X58727200Y-68672976D02*
X58774819Y-68815833D01*
X58774819Y-68815833D02*
X58774819Y-68911071D01*
X58774819Y-68911071D02*
X58727200Y-69053928D01*
X58727200Y-69053928D02*
X58631961Y-69149166D01*
X58631961Y-69149166D02*
X58536723Y-69196785D01*
X58536723Y-69196785D02*
X58346247Y-69244404D01*
X58346247Y-69244404D02*
X58203390Y-69244404D01*
X58203390Y-69244404D02*
X58012914Y-69196785D01*
X58012914Y-69196785D02*
X57917676Y-69149166D01*
X57917676Y-69149166D02*
X57822438Y-69053928D01*
X57822438Y-69053928D02*
X57774819Y-68911071D01*
X57774819Y-68911071D02*
X57774819Y-68815833D01*
X57774819Y-68815833D02*
X57822438Y-68672976D01*
X57822438Y-68672976D02*
X57870057Y-68625357D01*
X57870057Y-68244404D02*
X57822438Y-68196785D01*
X57822438Y-68196785D02*
X57774819Y-68101547D01*
X57774819Y-68101547D02*
X57774819Y-67863452D01*
X57774819Y-67863452D02*
X57822438Y-67768214D01*
X57822438Y-67768214D02*
X57870057Y-67720595D01*
X57870057Y-67720595D02*
X57965295Y-67672976D01*
X57965295Y-67672976D02*
X58060533Y-67672976D01*
X58060533Y-67672976D02*
X58203390Y-67720595D01*
X58203390Y-67720595D02*
X58774819Y-68292023D01*
X58774819Y-68292023D02*
X58774819Y-67672976D01*
X58108152Y-66815833D02*
X58774819Y-66815833D01*
X57727200Y-67053928D02*
X58441485Y-67292023D01*
X58441485Y-67292023D02*
X58441485Y-66672976D01*
X87879580Y-72065357D02*
X87927200Y-72112976D01*
X87927200Y-72112976D02*
X87974819Y-72255833D01*
X87974819Y-72255833D02*
X87974819Y-72351071D01*
X87974819Y-72351071D02*
X87927200Y-72493928D01*
X87927200Y-72493928D02*
X87831961Y-72589166D01*
X87831961Y-72589166D02*
X87736723Y-72636785D01*
X87736723Y-72636785D02*
X87546247Y-72684404D01*
X87546247Y-72684404D02*
X87403390Y-72684404D01*
X87403390Y-72684404D02*
X87212914Y-72636785D01*
X87212914Y-72636785D02*
X87117676Y-72589166D01*
X87117676Y-72589166D02*
X87022438Y-72493928D01*
X87022438Y-72493928D02*
X86974819Y-72351071D01*
X86974819Y-72351071D02*
X86974819Y-72255833D01*
X86974819Y-72255833D02*
X87022438Y-72112976D01*
X87022438Y-72112976D02*
X87070057Y-72065357D01*
X87070057Y-71684404D02*
X87022438Y-71636785D01*
X87022438Y-71636785D02*
X86974819Y-71541547D01*
X86974819Y-71541547D02*
X86974819Y-71303452D01*
X86974819Y-71303452D02*
X87022438Y-71208214D01*
X87022438Y-71208214D02*
X87070057Y-71160595D01*
X87070057Y-71160595D02*
X87165295Y-71112976D01*
X87165295Y-71112976D02*
X87260533Y-71112976D01*
X87260533Y-71112976D02*
X87403390Y-71160595D01*
X87403390Y-71160595D02*
X87974819Y-71732023D01*
X87974819Y-71732023D02*
X87974819Y-71112976D01*
X86974819Y-70779642D02*
X86974819Y-70160595D01*
X86974819Y-70160595D02*
X87355771Y-70493928D01*
X87355771Y-70493928D02*
X87355771Y-70351071D01*
X87355771Y-70351071D02*
X87403390Y-70255833D01*
X87403390Y-70255833D02*
X87451009Y-70208214D01*
X87451009Y-70208214D02*
X87546247Y-70160595D01*
X87546247Y-70160595D02*
X87784342Y-70160595D01*
X87784342Y-70160595D02*
X87879580Y-70208214D01*
X87879580Y-70208214D02*
X87927200Y-70255833D01*
X87927200Y-70255833D02*
X87974819Y-70351071D01*
X87974819Y-70351071D02*
X87974819Y-70636785D01*
X87974819Y-70636785D02*
X87927200Y-70732023D01*
X87927200Y-70732023D02*
X87879580Y-70779642D01*
X84529580Y-72065357D02*
X84577200Y-72112976D01*
X84577200Y-72112976D02*
X84624819Y-72255833D01*
X84624819Y-72255833D02*
X84624819Y-72351071D01*
X84624819Y-72351071D02*
X84577200Y-72493928D01*
X84577200Y-72493928D02*
X84481961Y-72589166D01*
X84481961Y-72589166D02*
X84386723Y-72636785D01*
X84386723Y-72636785D02*
X84196247Y-72684404D01*
X84196247Y-72684404D02*
X84053390Y-72684404D01*
X84053390Y-72684404D02*
X83862914Y-72636785D01*
X83862914Y-72636785D02*
X83767676Y-72589166D01*
X83767676Y-72589166D02*
X83672438Y-72493928D01*
X83672438Y-72493928D02*
X83624819Y-72351071D01*
X83624819Y-72351071D02*
X83624819Y-72255833D01*
X83624819Y-72255833D02*
X83672438Y-72112976D01*
X83672438Y-72112976D02*
X83720057Y-72065357D01*
X83720057Y-71684404D02*
X83672438Y-71636785D01*
X83672438Y-71636785D02*
X83624819Y-71541547D01*
X83624819Y-71541547D02*
X83624819Y-71303452D01*
X83624819Y-71303452D02*
X83672438Y-71208214D01*
X83672438Y-71208214D02*
X83720057Y-71160595D01*
X83720057Y-71160595D02*
X83815295Y-71112976D01*
X83815295Y-71112976D02*
X83910533Y-71112976D01*
X83910533Y-71112976D02*
X84053390Y-71160595D01*
X84053390Y-71160595D02*
X84624819Y-71732023D01*
X84624819Y-71732023D02*
X84624819Y-71112976D01*
X83720057Y-70732023D02*
X83672438Y-70684404D01*
X83672438Y-70684404D02*
X83624819Y-70589166D01*
X83624819Y-70589166D02*
X83624819Y-70351071D01*
X83624819Y-70351071D02*
X83672438Y-70255833D01*
X83672438Y-70255833D02*
X83720057Y-70208214D01*
X83720057Y-70208214D02*
X83815295Y-70160595D01*
X83815295Y-70160595D02*
X83910533Y-70160595D01*
X83910533Y-70160595D02*
X84053390Y-70208214D01*
X84053390Y-70208214D02*
X84624819Y-70779642D01*
X84624819Y-70779642D02*
X84624819Y-70160595D01*
X81179580Y-72065357D02*
X81227200Y-72112976D01*
X81227200Y-72112976D02*
X81274819Y-72255833D01*
X81274819Y-72255833D02*
X81274819Y-72351071D01*
X81274819Y-72351071D02*
X81227200Y-72493928D01*
X81227200Y-72493928D02*
X81131961Y-72589166D01*
X81131961Y-72589166D02*
X81036723Y-72636785D01*
X81036723Y-72636785D02*
X80846247Y-72684404D01*
X80846247Y-72684404D02*
X80703390Y-72684404D01*
X80703390Y-72684404D02*
X80512914Y-72636785D01*
X80512914Y-72636785D02*
X80417676Y-72589166D01*
X80417676Y-72589166D02*
X80322438Y-72493928D01*
X80322438Y-72493928D02*
X80274819Y-72351071D01*
X80274819Y-72351071D02*
X80274819Y-72255833D01*
X80274819Y-72255833D02*
X80322438Y-72112976D01*
X80322438Y-72112976D02*
X80370057Y-72065357D01*
X80370057Y-71684404D02*
X80322438Y-71636785D01*
X80322438Y-71636785D02*
X80274819Y-71541547D01*
X80274819Y-71541547D02*
X80274819Y-71303452D01*
X80274819Y-71303452D02*
X80322438Y-71208214D01*
X80322438Y-71208214D02*
X80370057Y-71160595D01*
X80370057Y-71160595D02*
X80465295Y-71112976D01*
X80465295Y-71112976D02*
X80560533Y-71112976D01*
X80560533Y-71112976D02*
X80703390Y-71160595D01*
X80703390Y-71160595D02*
X81274819Y-71732023D01*
X81274819Y-71732023D02*
X81274819Y-71112976D01*
X81274819Y-70160595D02*
X81274819Y-70732023D01*
X81274819Y-70446309D02*
X80274819Y-70446309D01*
X80274819Y-70446309D02*
X80417676Y-70541547D01*
X80417676Y-70541547D02*
X80512914Y-70636785D01*
X80512914Y-70636785D02*
X80560533Y-70732023D01*
X77829580Y-72065357D02*
X77877200Y-72112976D01*
X77877200Y-72112976D02*
X77924819Y-72255833D01*
X77924819Y-72255833D02*
X77924819Y-72351071D01*
X77924819Y-72351071D02*
X77877200Y-72493928D01*
X77877200Y-72493928D02*
X77781961Y-72589166D01*
X77781961Y-72589166D02*
X77686723Y-72636785D01*
X77686723Y-72636785D02*
X77496247Y-72684404D01*
X77496247Y-72684404D02*
X77353390Y-72684404D01*
X77353390Y-72684404D02*
X77162914Y-72636785D01*
X77162914Y-72636785D02*
X77067676Y-72589166D01*
X77067676Y-72589166D02*
X76972438Y-72493928D01*
X76972438Y-72493928D02*
X76924819Y-72351071D01*
X76924819Y-72351071D02*
X76924819Y-72255833D01*
X76924819Y-72255833D02*
X76972438Y-72112976D01*
X76972438Y-72112976D02*
X77020057Y-72065357D01*
X77020057Y-71684404D02*
X76972438Y-71636785D01*
X76972438Y-71636785D02*
X76924819Y-71541547D01*
X76924819Y-71541547D02*
X76924819Y-71303452D01*
X76924819Y-71303452D02*
X76972438Y-71208214D01*
X76972438Y-71208214D02*
X77020057Y-71160595D01*
X77020057Y-71160595D02*
X77115295Y-71112976D01*
X77115295Y-71112976D02*
X77210533Y-71112976D01*
X77210533Y-71112976D02*
X77353390Y-71160595D01*
X77353390Y-71160595D02*
X77924819Y-71732023D01*
X77924819Y-71732023D02*
X77924819Y-71112976D01*
X76924819Y-70493928D02*
X76924819Y-70398690D01*
X76924819Y-70398690D02*
X76972438Y-70303452D01*
X76972438Y-70303452D02*
X77020057Y-70255833D01*
X77020057Y-70255833D02*
X77115295Y-70208214D01*
X77115295Y-70208214D02*
X77305771Y-70160595D01*
X77305771Y-70160595D02*
X77543866Y-70160595D01*
X77543866Y-70160595D02*
X77734342Y-70208214D01*
X77734342Y-70208214D02*
X77829580Y-70255833D01*
X77829580Y-70255833D02*
X77877200Y-70303452D01*
X77877200Y-70303452D02*
X77924819Y-70398690D01*
X77924819Y-70398690D02*
X77924819Y-70493928D01*
X77924819Y-70493928D02*
X77877200Y-70589166D01*
X77877200Y-70589166D02*
X77829580Y-70636785D01*
X77829580Y-70636785D02*
X77734342Y-70684404D01*
X77734342Y-70684404D02*
X77543866Y-70732023D01*
X77543866Y-70732023D02*
X77305771Y-70732023D01*
X77305771Y-70732023D02*
X77115295Y-70684404D01*
X77115295Y-70684404D02*
X77020057Y-70636785D01*
X77020057Y-70636785D02*
X76972438Y-70589166D01*
X76972438Y-70589166D02*
X76924819Y-70493928D01*
X78169580Y-120812857D02*
X78217200Y-120860476D01*
X78217200Y-120860476D02*
X78264819Y-121003333D01*
X78264819Y-121003333D02*
X78264819Y-121098571D01*
X78264819Y-121098571D02*
X78217200Y-121241428D01*
X78217200Y-121241428D02*
X78121961Y-121336666D01*
X78121961Y-121336666D02*
X78026723Y-121384285D01*
X78026723Y-121384285D02*
X77836247Y-121431904D01*
X77836247Y-121431904D02*
X77693390Y-121431904D01*
X77693390Y-121431904D02*
X77502914Y-121384285D01*
X77502914Y-121384285D02*
X77407676Y-121336666D01*
X77407676Y-121336666D02*
X77312438Y-121241428D01*
X77312438Y-121241428D02*
X77264819Y-121098571D01*
X77264819Y-121098571D02*
X77264819Y-121003333D01*
X77264819Y-121003333D02*
X77312438Y-120860476D01*
X77312438Y-120860476D02*
X77360057Y-120812857D01*
X78264819Y-119860476D02*
X78264819Y-120431904D01*
X78264819Y-120146190D02*
X77264819Y-120146190D01*
X77264819Y-120146190D02*
X77407676Y-120241428D01*
X77407676Y-120241428D02*
X77502914Y-120336666D01*
X77502914Y-120336666D02*
X77550533Y-120431904D01*
X78264819Y-119384285D02*
X78264819Y-119193809D01*
X78264819Y-119193809D02*
X78217200Y-119098571D01*
X78217200Y-119098571D02*
X78169580Y-119050952D01*
X78169580Y-119050952D02*
X78026723Y-118955714D01*
X78026723Y-118955714D02*
X77836247Y-118908095D01*
X77836247Y-118908095D02*
X77455295Y-118908095D01*
X77455295Y-118908095D02*
X77360057Y-118955714D01*
X77360057Y-118955714D02*
X77312438Y-119003333D01*
X77312438Y-119003333D02*
X77264819Y-119098571D01*
X77264819Y-119098571D02*
X77264819Y-119289047D01*
X77264819Y-119289047D02*
X77312438Y-119384285D01*
X77312438Y-119384285D02*
X77360057Y-119431904D01*
X77360057Y-119431904D02*
X77455295Y-119479523D01*
X77455295Y-119479523D02*
X77693390Y-119479523D01*
X77693390Y-119479523D02*
X77788628Y-119431904D01*
X77788628Y-119431904D02*
X77836247Y-119384285D01*
X77836247Y-119384285D02*
X77883866Y-119289047D01*
X77883866Y-119289047D02*
X77883866Y-119098571D01*
X77883866Y-119098571D02*
X77836247Y-119003333D01*
X77836247Y-119003333D02*
X77788628Y-118955714D01*
X77788628Y-118955714D02*
X77693390Y-118908095D01*
X55579580Y-120642857D02*
X55627200Y-120690476D01*
X55627200Y-120690476D02*
X55674819Y-120833333D01*
X55674819Y-120833333D02*
X55674819Y-120928571D01*
X55674819Y-120928571D02*
X55627200Y-121071428D01*
X55627200Y-121071428D02*
X55531961Y-121166666D01*
X55531961Y-121166666D02*
X55436723Y-121214285D01*
X55436723Y-121214285D02*
X55246247Y-121261904D01*
X55246247Y-121261904D02*
X55103390Y-121261904D01*
X55103390Y-121261904D02*
X54912914Y-121214285D01*
X54912914Y-121214285D02*
X54817676Y-121166666D01*
X54817676Y-121166666D02*
X54722438Y-121071428D01*
X54722438Y-121071428D02*
X54674819Y-120928571D01*
X54674819Y-120928571D02*
X54674819Y-120833333D01*
X54674819Y-120833333D02*
X54722438Y-120690476D01*
X54722438Y-120690476D02*
X54770057Y-120642857D01*
X55674819Y-119690476D02*
X55674819Y-120261904D01*
X55674819Y-119976190D02*
X54674819Y-119976190D01*
X54674819Y-119976190D02*
X54817676Y-120071428D01*
X54817676Y-120071428D02*
X54912914Y-120166666D01*
X54912914Y-120166666D02*
X54960533Y-120261904D01*
X55103390Y-119119047D02*
X55055771Y-119214285D01*
X55055771Y-119214285D02*
X55008152Y-119261904D01*
X55008152Y-119261904D02*
X54912914Y-119309523D01*
X54912914Y-119309523D02*
X54865295Y-119309523D01*
X54865295Y-119309523D02*
X54770057Y-119261904D01*
X54770057Y-119261904D02*
X54722438Y-119214285D01*
X54722438Y-119214285D02*
X54674819Y-119119047D01*
X54674819Y-119119047D02*
X54674819Y-118928571D01*
X54674819Y-118928571D02*
X54722438Y-118833333D01*
X54722438Y-118833333D02*
X54770057Y-118785714D01*
X54770057Y-118785714D02*
X54865295Y-118738095D01*
X54865295Y-118738095D02*
X54912914Y-118738095D01*
X54912914Y-118738095D02*
X55008152Y-118785714D01*
X55008152Y-118785714D02*
X55055771Y-118833333D01*
X55055771Y-118833333D02*
X55103390Y-118928571D01*
X55103390Y-118928571D02*
X55103390Y-119119047D01*
X55103390Y-119119047D02*
X55151009Y-119214285D01*
X55151009Y-119214285D02*
X55198628Y-119261904D01*
X55198628Y-119261904D02*
X55293866Y-119309523D01*
X55293866Y-119309523D02*
X55484342Y-119309523D01*
X55484342Y-119309523D02*
X55579580Y-119261904D01*
X55579580Y-119261904D02*
X55627200Y-119214285D01*
X55627200Y-119214285D02*
X55674819Y-119119047D01*
X55674819Y-119119047D02*
X55674819Y-118928571D01*
X55674819Y-118928571D02*
X55627200Y-118833333D01*
X55627200Y-118833333D02*
X55579580Y-118785714D01*
X55579580Y-118785714D02*
X55484342Y-118738095D01*
X55484342Y-118738095D02*
X55293866Y-118738095D01*
X55293866Y-118738095D02*
X55198628Y-118785714D01*
X55198628Y-118785714D02*
X55151009Y-118833333D01*
X55151009Y-118833333D02*
X55103390Y-118928571D01*
X56709580Y-68625357D02*
X56757200Y-68672976D01*
X56757200Y-68672976D02*
X56804819Y-68815833D01*
X56804819Y-68815833D02*
X56804819Y-68911071D01*
X56804819Y-68911071D02*
X56757200Y-69053928D01*
X56757200Y-69053928D02*
X56661961Y-69149166D01*
X56661961Y-69149166D02*
X56566723Y-69196785D01*
X56566723Y-69196785D02*
X56376247Y-69244404D01*
X56376247Y-69244404D02*
X56233390Y-69244404D01*
X56233390Y-69244404D02*
X56042914Y-69196785D01*
X56042914Y-69196785D02*
X55947676Y-69149166D01*
X55947676Y-69149166D02*
X55852438Y-69053928D01*
X55852438Y-69053928D02*
X55804819Y-68911071D01*
X55804819Y-68911071D02*
X55804819Y-68815833D01*
X55804819Y-68815833D02*
X55852438Y-68672976D01*
X55852438Y-68672976D02*
X55900057Y-68625357D01*
X56804819Y-67672976D02*
X56804819Y-68244404D01*
X56804819Y-67958690D02*
X55804819Y-67958690D01*
X55804819Y-67958690D02*
X55947676Y-68053928D01*
X55947676Y-68053928D02*
X56042914Y-68149166D01*
X56042914Y-68149166D02*
X56090533Y-68244404D01*
X55804819Y-67339642D02*
X55804819Y-66672976D01*
X55804819Y-66672976D02*
X56804819Y-67101547D01*
X54739580Y-68625357D02*
X54787200Y-68672976D01*
X54787200Y-68672976D02*
X54834819Y-68815833D01*
X54834819Y-68815833D02*
X54834819Y-68911071D01*
X54834819Y-68911071D02*
X54787200Y-69053928D01*
X54787200Y-69053928D02*
X54691961Y-69149166D01*
X54691961Y-69149166D02*
X54596723Y-69196785D01*
X54596723Y-69196785D02*
X54406247Y-69244404D01*
X54406247Y-69244404D02*
X54263390Y-69244404D01*
X54263390Y-69244404D02*
X54072914Y-69196785D01*
X54072914Y-69196785D02*
X53977676Y-69149166D01*
X53977676Y-69149166D02*
X53882438Y-69053928D01*
X53882438Y-69053928D02*
X53834819Y-68911071D01*
X53834819Y-68911071D02*
X53834819Y-68815833D01*
X53834819Y-68815833D02*
X53882438Y-68672976D01*
X53882438Y-68672976D02*
X53930057Y-68625357D01*
X54834819Y-67672976D02*
X54834819Y-68244404D01*
X54834819Y-67958690D02*
X53834819Y-67958690D01*
X53834819Y-67958690D02*
X53977676Y-68053928D01*
X53977676Y-68053928D02*
X54072914Y-68149166D01*
X54072914Y-68149166D02*
X54120533Y-68244404D01*
X53834819Y-66815833D02*
X53834819Y-67006309D01*
X53834819Y-67006309D02*
X53882438Y-67101547D01*
X53882438Y-67101547D02*
X53930057Y-67149166D01*
X53930057Y-67149166D02*
X54072914Y-67244404D01*
X54072914Y-67244404D02*
X54263390Y-67292023D01*
X54263390Y-67292023D02*
X54644342Y-67292023D01*
X54644342Y-67292023D02*
X54739580Y-67244404D01*
X54739580Y-67244404D02*
X54787200Y-67196785D01*
X54787200Y-67196785D02*
X54834819Y-67101547D01*
X54834819Y-67101547D02*
X54834819Y-66911071D01*
X54834819Y-66911071D02*
X54787200Y-66815833D01*
X54787200Y-66815833D02*
X54739580Y-66768214D01*
X54739580Y-66768214D02*
X54644342Y-66720595D01*
X54644342Y-66720595D02*
X54406247Y-66720595D01*
X54406247Y-66720595D02*
X54311009Y-66768214D01*
X54311009Y-66768214D02*
X54263390Y-66815833D01*
X54263390Y-66815833D02*
X54215771Y-66911071D01*
X54215771Y-66911071D02*
X54215771Y-67101547D01*
X54215771Y-67101547D02*
X54263390Y-67196785D01*
X54263390Y-67196785D02*
X54311009Y-67244404D01*
X54311009Y-67244404D02*
X54406247Y-67292023D01*
X74479580Y-77475357D02*
X74527200Y-77522976D01*
X74527200Y-77522976D02*
X74574819Y-77665833D01*
X74574819Y-77665833D02*
X74574819Y-77761071D01*
X74574819Y-77761071D02*
X74527200Y-77903928D01*
X74527200Y-77903928D02*
X74431961Y-77999166D01*
X74431961Y-77999166D02*
X74336723Y-78046785D01*
X74336723Y-78046785D02*
X74146247Y-78094404D01*
X74146247Y-78094404D02*
X74003390Y-78094404D01*
X74003390Y-78094404D02*
X73812914Y-78046785D01*
X73812914Y-78046785D02*
X73717676Y-77999166D01*
X73717676Y-77999166D02*
X73622438Y-77903928D01*
X73622438Y-77903928D02*
X73574819Y-77761071D01*
X73574819Y-77761071D02*
X73574819Y-77665833D01*
X73574819Y-77665833D02*
X73622438Y-77522976D01*
X73622438Y-77522976D02*
X73670057Y-77475357D01*
X74574819Y-76522976D02*
X74574819Y-77094404D01*
X74574819Y-76808690D02*
X73574819Y-76808690D01*
X73574819Y-76808690D02*
X73717676Y-76903928D01*
X73717676Y-76903928D02*
X73812914Y-76999166D01*
X73812914Y-76999166D02*
X73860533Y-77094404D01*
X73908152Y-75665833D02*
X74574819Y-75665833D01*
X73527200Y-75903928D02*
X74241485Y-76142023D01*
X74241485Y-76142023D02*
X74241485Y-75522976D01*
X74479580Y-71589166D02*
X74527200Y-71636785D01*
X74527200Y-71636785D02*
X74574819Y-71779642D01*
X74574819Y-71779642D02*
X74574819Y-71874880D01*
X74574819Y-71874880D02*
X74527200Y-72017737D01*
X74527200Y-72017737D02*
X74431961Y-72112975D01*
X74431961Y-72112975D02*
X74336723Y-72160594D01*
X74336723Y-72160594D02*
X74146247Y-72208213D01*
X74146247Y-72208213D02*
X74003390Y-72208213D01*
X74003390Y-72208213D02*
X73812914Y-72160594D01*
X73812914Y-72160594D02*
X73717676Y-72112975D01*
X73717676Y-72112975D02*
X73622438Y-72017737D01*
X73622438Y-72017737D02*
X73574819Y-71874880D01*
X73574819Y-71874880D02*
X73574819Y-71779642D01*
X73574819Y-71779642D02*
X73622438Y-71636785D01*
X73622438Y-71636785D02*
X73670057Y-71589166D01*
X74574819Y-70636785D02*
X74574819Y-71208213D01*
X74574819Y-70922499D02*
X73574819Y-70922499D01*
X73574819Y-70922499D02*
X73717676Y-71017737D01*
X73717676Y-71017737D02*
X73812914Y-71112975D01*
X73812914Y-71112975D02*
X73860533Y-71208213D01*
D12*
%TO.C,U15*%
X61930000Y-73812500D02*
X61930000Y-75762500D01*
X61930000Y-73812500D02*
X61930000Y-71862500D01*
X67050000Y-73812500D02*
X67050000Y-75762500D01*
X67050000Y-73812500D02*
X67050000Y-71862500D01*
X62025000Y-76512500D02*
X61695000Y-76752500D01*
X61695000Y-76272500D01*
X62025000Y-76512500D01*
G36*
X62025000Y-76512500D02*
G01*
X61695000Y-76752500D01*
X61695000Y-76272500D01*
X62025000Y-76512500D01*
G37*
D13*
%TO.C,U13*%
X94770000Y-121475000D02*
G75*
G02*
X94570000Y-121475000I-100000J0D01*
G01*
X94570000Y-121475000D02*
G75*
G02*
X94770000Y-121475000I100000J0D01*
G01*
D12*
%TO.C,U12*%
X81445000Y-63667500D02*
X81445000Y-65867500D01*
X81445000Y-63667500D02*
X81445000Y-61467500D01*
X86915000Y-63667500D02*
X86915000Y-65867500D01*
X86915000Y-63667500D02*
X86915000Y-61467500D01*
X82145000Y-67857500D02*
X81665000Y-67857500D01*
X81905000Y-67527500D01*
X82145000Y-67857500D01*
G36*
X82145000Y-67857500D02*
G01*
X81665000Y-67857500D01*
X81905000Y-67527500D01*
X82145000Y-67857500D01*
G37*
%TO.C,U11*%
X74855000Y-63667500D02*
X74855000Y-65867500D01*
X74855000Y-63667500D02*
X74855000Y-61467500D01*
X80325000Y-63667500D02*
X80325000Y-65867500D01*
X80325000Y-63667500D02*
X80325000Y-61467500D01*
X75555000Y-67857500D02*
X75075000Y-67857500D01*
X75315000Y-67527500D01*
X75555000Y-67857500D01*
G36*
X75555000Y-67857500D02*
G01*
X75075000Y-67857500D01*
X75315000Y-67527500D01*
X75555000Y-67857500D01*
G37*
%TO.C,U9*%
X67955000Y-62132500D02*
X67955000Y-64082500D01*
X67955000Y-62132500D02*
X67955000Y-60182500D01*
X73075000Y-62132500D02*
X73075000Y-64082500D01*
X73075000Y-62132500D02*
X73075000Y-60182500D01*
X67955000Y-64845000D02*
X67625000Y-65085000D01*
X67625000Y-64605000D01*
X67955000Y-64845000D01*
G36*
X67955000Y-64845000D02*
G01*
X67625000Y-65085000D01*
X67625000Y-64605000D01*
X67955000Y-64845000D01*
G37*
D10*
%TO.C,U6*%
X61220000Y-64177500D02*
X61220000Y-60027500D01*
X66370000Y-64177500D02*
X66370000Y-60027500D01*
D12*
X61295000Y-64602500D02*
X60965000Y-64842500D01*
X60965000Y-64362500D01*
X61295000Y-64602500D01*
G36*
X61295000Y-64602500D02*
G01*
X60965000Y-64842500D01*
X60965000Y-64362500D01*
X61295000Y-64602500D01*
G37*
%TO.C,U1*%
X55350000Y-73812500D02*
X55350000Y-75762500D01*
X55350000Y-73812500D02*
X55350000Y-71862500D01*
X60470000Y-73812500D02*
X60470000Y-75762500D01*
X60470000Y-73812500D02*
X60470000Y-71862500D01*
X55445000Y-76512500D02*
X55115000Y-76752500D01*
X55115000Y-76272500D01*
X55445000Y-76512500D01*
G36*
X55445000Y-76512500D02*
G01*
X55115000Y-76752500D01*
X55115000Y-76272500D01*
X55445000Y-76512500D01*
G37*
%TO.C,R34*%
X76207500Y-120254724D02*
X76207500Y-119745276D01*
X77252500Y-120254724D02*
X77252500Y-119745276D01*
%TO.C,R33*%
X73697500Y-120254724D02*
X73697500Y-119745276D01*
X74742500Y-120254724D02*
X74742500Y-119745276D01*
%TO.C,R32*%
X71187500Y-120254724D02*
X71187500Y-119745276D01*
X72232500Y-120254724D02*
X72232500Y-119745276D01*
%TO.C,R31*%
X68677500Y-120254724D02*
X68677500Y-119745276D01*
X69722500Y-120254724D02*
X69722500Y-119745276D01*
%TO.C,R30*%
X66167500Y-120254724D02*
X66167500Y-119745276D01*
X67212500Y-120254724D02*
X67212500Y-119745276D01*
%TO.C,R29*%
X63657500Y-120254724D02*
X63657500Y-119745276D01*
X64702500Y-120254724D02*
X64702500Y-119745276D01*
%TO.C,R28*%
X93575000Y-115677064D02*
X93575000Y-115222936D01*
X95045000Y-115677064D02*
X95045000Y-115222936D01*
%TO.C,R27*%
X72580000Y-115577064D02*
X72580000Y-114122936D01*
X74400000Y-115577064D02*
X74400000Y-114122936D01*
%TO.C,R26*%
X69290000Y-115577064D02*
X69290000Y-114122936D01*
X71110000Y-115577064D02*
X71110000Y-114122936D01*
%TO.C,R25*%
X66000000Y-115577064D02*
X66000000Y-114122936D01*
X67820000Y-115577064D02*
X67820000Y-114122936D01*
%TO.C,R21*%
X62710000Y-115577064D02*
X62710000Y-114122936D01*
X64530000Y-115577064D02*
X64530000Y-114122936D01*
%TO.C,R19*%
X61147500Y-120254724D02*
X61147500Y-119745276D01*
X62192500Y-120254724D02*
X62192500Y-119745276D01*
%TO.C,R18*%
X58637500Y-120254724D02*
X58637500Y-119745276D01*
X59682500Y-120254724D02*
X59682500Y-119745276D01*
%TO.C,R16*%
X90625000Y-115677064D02*
X90625000Y-115222936D01*
X92095000Y-115677064D02*
X92095000Y-115222936D01*
%TO.C,R15*%
X92970000Y-77780121D02*
X92970000Y-77444879D01*
X93730000Y-77780121D02*
X93730000Y-77444879D01*
%TO.C,R8*%
X87675000Y-115677064D02*
X87675000Y-115222936D01*
X89145000Y-115677064D02*
X89145000Y-115222936D01*
%TO.C,R7*%
X84725000Y-115677064D02*
X84725000Y-115222936D01*
X86195000Y-115677064D02*
X86195000Y-115222936D01*
%TO.C,R6*%
X94265000Y-60639564D02*
X94265000Y-60185436D01*
X95735000Y-60639564D02*
X95735000Y-60185436D01*
%TO.C,R5*%
X59420000Y-115577064D02*
X59420000Y-114122936D01*
X61240000Y-115577064D02*
X61240000Y-114122936D01*
%TO.C,R4*%
X81775000Y-115677064D02*
X81775000Y-115222936D01*
X83245000Y-115677064D02*
X83245000Y-115222936D01*
%TO.C,R3*%
X78825000Y-115677064D02*
X78825000Y-115222936D01*
X80295000Y-115677064D02*
X80295000Y-115222936D01*
%TO.C,R2*%
X75875000Y-115677064D02*
X75875000Y-115222936D01*
X77345000Y-115677064D02*
X77345000Y-115222936D01*
%TO.C,R1*%
X56130000Y-115577064D02*
X56130000Y-114122936D01*
X57950000Y-115577064D02*
X57950000Y-114122936D01*
%TO.C,Q2*%
X91885000Y-71982500D02*
X91885000Y-72632500D01*
X91885000Y-71982500D02*
X91885000Y-71332500D01*
X95005000Y-71982500D02*
X95005000Y-72632500D01*
X95005000Y-71982500D02*
X95005000Y-71332500D01*
X91935000Y-73145000D02*
X91605000Y-73385000D01*
X91605000Y-72905000D01*
X91935000Y-73145000D01*
G36*
X91935000Y-73145000D02*
G01*
X91605000Y-73385000D01*
X91605000Y-72905000D01*
X91935000Y-73145000D01*
G37*
%TO.C,L2*%
X68275000Y-76847500D02*
X69125000Y-76847500D01*
X68275000Y-76847500D02*
X68275000Y-72477500D01*
X72995000Y-76847500D02*
X72145000Y-76847500D01*
X72995000Y-76847500D02*
X72995000Y-72477500D01*
X68275000Y-72477500D02*
X69125000Y-72477500D01*
X72995000Y-72477500D02*
X72145000Y-72477500D01*
%TO.C,L1*%
X90500000Y-63022500D02*
X90500000Y-61612500D01*
X92870000Y-65392500D02*
G75*
G02*
X88130000Y-65392500I-2370000J0D01*
G01*
X88130000Y-65392500D02*
G75*
G02*
X92870000Y-65392500I2370000J0D01*
G01*
%TO.C,J2*%
X57290000Y-65762500D02*
X59790000Y-65762500D01*
X59790000Y-65762500D02*
X59790000Y-63262500D01*
X55470000Y-65462500D02*
X59490000Y-65462500D01*
X57180000Y-65462500D02*
X57180000Y-64962500D01*
X57990000Y-65462500D02*
X57990000Y-64462500D01*
X59490000Y-65462500D02*
X59490000Y-57742500D01*
X55970000Y-64962500D02*
X55970000Y-58242500D01*
X57180000Y-64962500D02*
X55970000Y-64962500D01*
X57990000Y-64462500D02*
X59490000Y-64462500D01*
X57990000Y-58742500D02*
X59490000Y-58742500D01*
X55970000Y-58242500D02*
X57180000Y-58242500D01*
X57180000Y-58242500D02*
X57180000Y-57742500D01*
X55470000Y-57742500D02*
X55470000Y-65462500D01*
X57990000Y-57742500D02*
X57990000Y-58742500D01*
X59490000Y-57742500D02*
X55470000Y-57742500D01*
%TO.C,J1*%
X56390000Y-128330000D02*
X97150000Y-128330000D01*
X56390000Y-128330000D02*
X56390000Y-125730000D01*
X97150000Y-128330000D02*
X97150000Y-123130000D01*
X56390000Y-125730000D02*
X58990000Y-125730000D01*
X58990000Y-125730000D02*
X58990000Y-123130000D01*
X56390000Y-124460000D02*
X56390000Y-123130000D01*
X56390000Y-123130000D02*
X57720000Y-123130000D01*
X58990000Y-123130000D02*
X97150000Y-123130000D01*
%TO.C,C41*%
X90115000Y-77093752D02*
X90115000Y-76571248D01*
X91585000Y-77093752D02*
X91585000Y-76571248D01*
%TO.C,C39*%
X87105000Y-77093752D02*
X87105000Y-76571248D01*
X88575000Y-77093752D02*
X88575000Y-76571248D01*
%TO.C,C38*%
X84095000Y-77093752D02*
X84095000Y-76571248D01*
X85565000Y-77093752D02*
X85565000Y-76571248D01*
%TO.C,C37*%
X83750000Y-120310580D02*
X83750000Y-120029420D01*
X84770000Y-120310580D02*
X84770000Y-120029420D01*
%TO.C,C36*%
X81240000Y-120310580D02*
X81240000Y-120029420D01*
X82260000Y-120310580D02*
X82260000Y-120029420D01*
%TO.C,C35*%
X67000000Y-68098335D02*
X67000000Y-67866665D01*
X67720000Y-68098335D02*
X67720000Y-67866665D01*
%TO.C,C34*%
X65030000Y-68098335D02*
X65030000Y-67866665D01*
X65750000Y-68098335D02*
X65750000Y-67866665D01*
%TO.C,C33*%
X63060000Y-68098335D02*
X63060000Y-67866665D01*
X63780000Y-68098335D02*
X63780000Y-67866665D01*
%TO.C,C32*%
X61090000Y-68098335D02*
X61090000Y-67866665D01*
X61810000Y-68098335D02*
X61810000Y-67866665D01*
%TO.C,C31*%
X92050000Y-120847836D02*
X92050000Y-120632164D01*
X92770000Y-120847836D02*
X92770000Y-120632164D01*
%TO.C,C30*%
X90080000Y-120847836D02*
X90080000Y-120632164D01*
X90800000Y-120847836D02*
X90800000Y-120632164D01*
%TO.C,C29*%
X88110000Y-120847836D02*
X88110000Y-120632164D01*
X88830000Y-120847836D02*
X88830000Y-120632164D01*
%TO.C,C28*%
X86140000Y-120847836D02*
X86140000Y-120632164D01*
X86860000Y-120847836D02*
X86860000Y-120632164D01*
%TO.C,C27*%
X81085000Y-77093752D02*
X81085000Y-76571248D01*
X82555000Y-77093752D02*
X82555000Y-76571248D01*
%TO.C,C26*%
X78075000Y-77093752D02*
X78075000Y-76571248D01*
X79545000Y-77093752D02*
X79545000Y-76571248D01*
%TO.C,C24*%
X59120000Y-68098335D02*
X59120000Y-67866665D01*
X59840000Y-68098335D02*
X59840000Y-67866665D01*
%TO.C,C23*%
X88460000Y-72133752D02*
X88460000Y-70711248D01*
X90280000Y-72133752D02*
X90280000Y-70711248D01*
%TO.C,C22*%
X85110000Y-72133752D02*
X85110000Y-70711248D01*
X86930000Y-72133752D02*
X86930000Y-70711248D01*
%TO.C,C21*%
X81760000Y-72133752D02*
X81760000Y-70711248D01*
X83580000Y-72133752D02*
X83580000Y-70711248D01*
%TO.C,C20*%
X78410000Y-72133752D02*
X78410000Y-70711248D01*
X80230000Y-72133752D02*
X80230000Y-70711248D01*
%TO.C,C19*%
X78730000Y-120310580D02*
X78730000Y-120029420D01*
X79750000Y-120310580D02*
X79750000Y-120029420D01*
%TO.C,C18*%
X56140000Y-120146267D02*
X56140000Y-119853733D01*
X57160000Y-120146267D02*
X57160000Y-119853733D01*
%TO.C,C17*%
X57150000Y-68098335D02*
X57150000Y-67866665D01*
X57870000Y-68098335D02*
X57870000Y-67866665D01*
%TO.C,C16*%
X55180000Y-68098335D02*
X55180000Y-67866665D01*
X55900000Y-68098335D02*
X55900000Y-67866665D01*
%TO.C,C14*%
X75065000Y-77093752D02*
X75065000Y-76571248D01*
X76535000Y-77093752D02*
X76535000Y-76571248D01*
%TO.C,C1*%
X75060000Y-72133752D02*
X75060000Y-70711248D01*
X76880000Y-72133752D02*
X76880000Y-70711248D01*
%TD*%
%LPC*%
D14*
%TO.C,U13*%
X96995000Y-120250000D02*
X94520000Y-120250000D01*
X94520000Y-120241000D01*
X94519000Y-120232000D01*
X94518000Y-120223000D01*
X94516000Y-120214000D01*
X94514000Y-120205000D01*
X94511000Y-120196000D01*
X94508000Y-120187000D01*
X94505000Y-120179000D01*
X94501000Y-120171000D01*
X94497000Y-120163000D01*
X94492000Y-120155000D01*
X94487000Y-120147000D01*
X94481000Y-120140000D01*
X94475000Y-120133000D01*
X94469000Y-120126000D01*
X94462000Y-120120000D01*
X94455000Y-120114000D01*
X94448000Y-120108000D01*
X94440000Y-120103000D01*
X94433000Y-120098000D01*
X94424000Y-120094000D01*
X94416000Y-120090000D01*
X94408000Y-120087000D01*
X94399000Y-120084000D01*
X94390000Y-120081000D01*
X94381000Y-120079000D01*
X94372000Y-120077000D01*
X94363000Y-120076000D01*
X94354000Y-120075000D01*
X94345000Y-120075000D01*
X94345000Y-119200000D01*
X96995000Y-119200000D01*
X96995000Y-120250000D01*
G36*
X96995000Y-120250000D02*
G01*
X94520000Y-120250000D01*
X94520000Y-120241000D01*
X94519000Y-120232000D01*
X94518000Y-120223000D01*
X94516000Y-120214000D01*
X94514000Y-120205000D01*
X94511000Y-120196000D01*
X94508000Y-120187000D01*
X94505000Y-120179000D01*
X94501000Y-120171000D01*
X94497000Y-120163000D01*
X94492000Y-120155000D01*
X94487000Y-120147000D01*
X94481000Y-120140000D01*
X94475000Y-120133000D01*
X94469000Y-120126000D01*
X94462000Y-120120000D01*
X94455000Y-120114000D01*
X94448000Y-120108000D01*
X94440000Y-120103000D01*
X94433000Y-120098000D01*
X94424000Y-120094000D01*
X94416000Y-120090000D01*
X94408000Y-120087000D01*
X94399000Y-120084000D01*
X94390000Y-120081000D01*
X94381000Y-120079000D01*
X94372000Y-120077000D01*
X94363000Y-120076000D01*
X94354000Y-120075000D01*
X94345000Y-120075000D01*
X94345000Y-119200000D01*
X96995000Y-119200000D01*
X96995000Y-120250000D01*
G37*
X95845000Y-120875000D02*
X95495000Y-120875000D01*
X95495000Y-120275000D01*
X95845000Y-120275000D01*
X95845000Y-120875000D01*
G36*
X95845000Y-120875000D02*
G01*
X95495000Y-120875000D01*
X95495000Y-120275000D01*
X95845000Y-120275000D01*
X95845000Y-120875000D01*
G37*
X95845000Y-119175000D02*
X95495000Y-119175000D01*
X95495000Y-118575000D01*
X95845000Y-118575000D01*
X95845000Y-119175000D01*
G36*
X95845000Y-119175000D02*
G01*
X95495000Y-119175000D01*
X95495000Y-118575000D01*
X95845000Y-118575000D01*
X95845000Y-119175000D01*
G37*
X95445000Y-120875000D02*
X95095000Y-120875000D01*
X95095000Y-120275000D01*
X95445000Y-120275000D01*
X95445000Y-120875000D01*
G36*
X95445000Y-120875000D02*
G01*
X95095000Y-120875000D01*
X95095000Y-120275000D01*
X95445000Y-120275000D01*
X95445000Y-120875000D01*
G37*
X96245000Y-120875000D02*
X95895000Y-120875000D01*
X95895000Y-120275000D01*
X96245000Y-120275000D01*
X96245000Y-120875000D01*
G36*
X96245000Y-120875000D02*
G01*
X95895000Y-120875000D01*
X95895000Y-120275000D01*
X96245000Y-120275000D01*
X96245000Y-120875000D01*
G37*
X95445000Y-119175000D02*
X95095000Y-119175000D01*
X95095000Y-118575000D01*
X95445000Y-118575000D01*
X95445000Y-119175000D01*
G36*
X95445000Y-119175000D02*
G01*
X95095000Y-119175000D01*
X95095000Y-118575000D01*
X95445000Y-118575000D01*
X95445000Y-119175000D01*
G37*
X96245000Y-119175000D02*
X95895000Y-119175000D01*
X95895000Y-118575000D01*
X96245000Y-118575000D01*
X96245000Y-119175000D01*
G36*
X96245000Y-119175000D02*
G01*
X95895000Y-119175000D01*
X95895000Y-118575000D01*
X96245000Y-118575000D01*
X96245000Y-119175000D01*
G37*
X95045000Y-120875000D02*
X94295000Y-120875000D01*
X94295000Y-120275000D01*
X95045000Y-120275000D01*
X95045000Y-120875000D01*
G36*
X95045000Y-120875000D02*
G01*
X94295000Y-120875000D01*
X94295000Y-120275000D01*
X95045000Y-120275000D01*
X95045000Y-120875000D01*
G37*
X95045000Y-119175000D02*
X94295000Y-119175000D01*
X94295000Y-118575000D01*
X95045000Y-118575000D01*
X95045000Y-119175000D01*
G36*
X95045000Y-119175000D02*
G01*
X94295000Y-119175000D01*
X94295000Y-118575000D01*
X95045000Y-118575000D01*
X95045000Y-119175000D01*
G37*
X97045000Y-120875000D02*
X96295000Y-120875000D01*
X96295000Y-120275000D01*
X97045000Y-120275000D01*
X97045000Y-120875000D01*
G36*
X97045000Y-120875000D02*
G01*
X96295000Y-120875000D01*
X96295000Y-120275000D01*
X97045000Y-120275000D01*
X97045000Y-120875000D01*
G37*
X97045000Y-119175000D02*
X96295000Y-119175000D01*
X96295000Y-118575000D01*
X97045000Y-118575000D01*
X97045000Y-119175000D01*
G36*
X97045000Y-119175000D02*
G01*
X96295000Y-119175000D01*
X96295000Y-118575000D01*
X97045000Y-118575000D01*
X97045000Y-119175000D01*
G37*
%TD*%
D15*
%TO.C,U15*%
X62585000Y-76287500D03*
X63855000Y-76287500D03*
X65125000Y-76287500D03*
X66395000Y-76287500D03*
X66395000Y-71337500D03*
X65125000Y-71337500D03*
X63855000Y-71337500D03*
X62585000Y-71337500D03*
D16*
X64490000Y-73812500D03*
%TD*%
D17*
%TO.C,U12*%
X81905000Y-66530000D03*
X82555000Y-66530000D03*
X83205000Y-66530000D03*
X83855000Y-66530000D03*
X84505000Y-66530000D03*
X85155000Y-66530000D03*
X85805000Y-66530000D03*
X86455000Y-66530000D03*
X86455000Y-60805000D03*
X85805000Y-60805000D03*
X85155000Y-60805000D03*
X84505000Y-60805000D03*
X83855000Y-60805000D03*
X83205000Y-60805000D03*
X82555000Y-60805000D03*
X81905000Y-60805000D03*
%TD*%
%TO.C,U11*%
X75315000Y-66530000D03*
X75965000Y-66530000D03*
X76615000Y-66530000D03*
X77265000Y-66530000D03*
X77915000Y-66530000D03*
X78565000Y-66530000D03*
X79215000Y-66530000D03*
X79865000Y-66530000D03*
X79865000Y-60805000D03*
X79215000Y-60805000D03*
X78565000Y-60805000D03*
X77915000Y-60805000D03*
X77265000Y-60805000D03*
X76615000Y-60805000D03*
X75965000Y-60805000D03*
X75315000Y-60805000D03*
%TD*%
D18*
%TO.C,U9*%
X68515000Y-64770000D03*
X69515000Y-64770000D03*
X70515000Y-64770000D03*
X71515000Y-64770000D03*
X72515000Y-64770000D03*
X72515000Y-59495000D03*
X71515000Y-59495000D03*
X70515000Y-59495000D03*
X69515000Y-59495000D03*
X68515000Y-59495000D03*
D19*
X70515000Y-62132500D03*
%TD*%
D20*
%TO.C,U6*%
X61890000Y-64802500D03*
X63160000Y-64802500D03*
X64430000Y-64802500D03*
X65700000Y-64802500D03*
X65700000Y-59402500D03*
X64430000Y-59402500D03*
X63160000Y-59402500D03*
X61890000Y-59402500D03*
D21*
X63795000Y-62102500D03*
%TD*%
D15*
%TO.C,U1*%
X56005000Y-76287500D03*
X57275000Y-76287500D03*
X58545000Y-76287500D03*
X59815000Y-76287500D03*
X59815000Y-71337500D03*
X58545000Y-71337500D03*
X57275000Y-71337500D03*
X56005000Y-71337500D03*
%TD*%
D22*
%TO.C,R34*%
X76730000Y-120912500D03*
X76730000Y-119087500D03*
%TD*%
%TO.C,R33*%
X74220000Y-120912500D03*
X74220000Y-119087500D03*
%TD*%
%TO.C,R32*%
X71710000Y-120912500D03*
X71710000Y-119087500D03*
%TD*%
%TO.C,R31*%
X69200000Y-120912500D03*
X69200000Y-119087500D03*
%TD*%
%TO.C,R30*%
X66690000Y-120912500D03*
X66690000Y-119087500D03*
%TD*%
%TO.C,R29*%
X64180000Y-120912500D03*
X64180000Y-119087500D03*
%TD*%
D23*
%TO.C,R28*%
X94310000Y-116450000D03*
X94310000Y-114450000D03*
%TD*%
D24*
%TO.C,R27*%
X73490000Y-116400000D03*
X73490000Y-113300000D03*
%TD*%
%TO.C,R26*%
X70200000Y-116400000D03*
X70200000Y-113300000D03*
%TD*%
%TO.C,R25*%
X66910000Y-116400000D03*
X66910000Y-113300000D03*
%TD*%
%TO.C,R21*%
X63620000Y-116400000D03*
X63620000Y-113300000D03*
%TD*%
D22*
%TO.C,R19*%
X61670000Y-120912500D03*
X61670000Y-119087500D03*
%TD*%
%TO.C,R18*%
X59160000Y-120912500D03*
X59160000Y-119087500D03*
%TD*%
D23*
%TO.C,R16*%
X91360000Y-116450000D03*
X91360000Y-114450000D03*
%TD*%
D25*
%TO.C,R15*%
X93350000Y-78210000D03*
X93350000Y-77015000D03*
%TD*%
D23*
%TO.C,R8*%
X88410000Y-116450000D03*
X88410000Y-114450000D03*
%TD*%
%TO.C,R7*%
X85460000Y-116450000D03*
X85460000Y-114450000D03*
%TD*%
D26*
%TO.C,R6*%
X95000000Y-61325000D03*
X95000000Y-59500000D03*
%TD*%
D24*
%TO.C,R5*%
X60330000Y-116400000D03*
X60330000Y-113300000D03*
%TD*%
D23*
%TO.C,R4*%
X82510000Y-116450000D03*
X82510000Y-114450000D03*
%TD*%
%TO.C,R3*%
X79560000Y-116450000D03*
X79560000Y-114450000D03*
%TD*%
%TO.C,R2*%
X76610000Y-116450000D03*
X76610000Y-114450000D03*
%TD*%
D24*
%TO.C,R1*%
X57040000Y-116400000D03*
X57040000Y-113300000D03*
%TD*%
D27*
%TO.C,Q2*%
X92495000Y-72920000D03*
X94395000Y-72920000D03*
X93445000Y-71045000D03*
%TD*%
D28*
%TO.C,L2*%
X70635000Y-76512500D03*
X70635000Y-72812500D03*
%TD*%
D29*
%TO.C,L1*%
X90500000Y-65392500D03*
D30*
X90500000Y-60312500D03*
%TD*%
D31*
%TO.C,J2*%
X57180000Y-62852500D03*
D32*
X57180000Y-60352500D03*
%TD*%
D33*
%TO.C,J1*%
X57720000Y-124460000D03*
D34*
X57720000Y-127000000D03*
X60260000Y-124460000D03*
X60260000Y-127000000D03*
X62800000Y-124460000D03*
X62800000Y-127000000D03*
X65340000Y-124460000D03*
X65340000Y-127000000D03*
X67880000Y-124460000D03*
X67880000Y-127000000D03*
X70420000Y-124460000D03*
X70420000Y-127000000D03*
X72960000Y-124460000D03*
X72960000Y-127000000D03*
X75500000Y-124460000D03*
X75500000Y-127000000D03*
X78040000Y-124460000D03*
X78040000Y-127000000D03*
X80580000Y-124460000D03*
X80580000Y-127000000D03*
X83120000Y-124460000D03*
X83120000Y-127000000D03*
X85660000Y-124460000D03*
X85660000Y-127000000D03*
X88200000Y-124460000D03*
X88200000Y-127000000D03*
X90740000Y-124460000D03*
X90740000Y-127000000D03*
X93280000Y-124460000D03*
X93280000Y-127000000D03*
X95820000Y-124460000D03*
X95820000Y-127000000D03*
%TD*%
D35*
%TO.C,D1*%
X95125000Y-67317500D03*
X95125000Y-63717500D03*
%TD*%
D36*
%TO.C,C41*%
X90850000Y-77870000D03*
X90850000Y-75795000D03*
%TD*%
%TO.C,C39*%
X87840000Y-77870000D03*
X87840000Y-75795000D03*
%TD*%
%TO.C,C38*%
X84830000Y-77870000D03*
X84830000Y-75795000D03*
%TD*%
D37*
%TO.C,C37*%
X84260000Y-120945000D03*
X84260000Y-119395000D03*
%TD*%
%TO.C,C36*%
X81750000Y-120945000D03*
X81750000Y-119395000D03*
%TD*%
D38*
%TO.C,C35*%
X67360000Y-68550000D03*
X67360000Y-67415000D03*
%TD*%
%TO.C,C34*%
X65390000Y-68550000D03*
X65390000Y-67415000D03*
%TD*%
%TO.C,C33*%
X63420000Y-68550000D03*
X63420000Y-67415000D03*
%TD*%
%TO.C,C32*%
X61450000Y-68550000D03*
X61450000Y-67415000D03*
%TD*%
D39*
%TO.C,C31*%
X92410000Y-121220000D03*
X92410000Y-120260000D03*
%TD*%
%TO.C,C30*%
X90440000Y-121220000D03*
X90440000Y-120260000D03*
%TD*%
%TO.C,C29*%
X88470000Y-121220000D03*
X88470000Y-120260000D03*
%TD*%
%TO.C,C28*%
X86500000Y-121220000D03*
X86500000Y-120260000D03*
%TD*%
D36*
%TO.C,C27*%
X81820000Y-77870000D03*
X81820000Y-75795000D03*
%TD*%
%TO.C,C26*%
X78810000Y-77870000D03*
X78810000Y-75795000D03*
%TD*%
D38*
%TO.C,C24*%
X59480000Y-68550000D03*
X59480000Y-67415000D03*
%TD*%
D40*
%TO.C,C23*%
X89370000Y-72985000D03*
X89370000Y-69860000D03*
%TD*%
%TO.C,C22*%
X86020000Y-72985000D03*
X86020000Y-69860000D03*
%TD*%
%TO.C,C21*%
X82670000Y-72985000D03*
X82670000Y-69860000D03*
%TD*%
%TO.C,C20*%
X79320000Y-72985000D03*
X79320000Y-69860000D03*
%TD*%
D37*
%TO.C,C19*%
X79240000Y-120945000D03*
X79240000Y-119395000D03*
%TD*%
D41*
%TO.C,C18*%
X56650000Y-120862500D03*
X56650000Y-119137500D03*
%TD*%
D38*
%TO.C,C17*%
X57510000Y-68550000D03*
X57510000Y-67415000D03*
%TD*%
%TO.C,C16*%
X55540000Y-68550000D03*
X55540000Y-67415000D03*
%TD*%
D36*
%TO.C,C14*%
X75800000Y-77870000D03*
X75800000Y-75795000D03*
%TD*%
D40*
%TO.C,C1*%
X75970000Y-72985000D03*
X75970000Y-69860000D03*
%TD*%
%LPD*%
M02*
