%TF.GenerationSoftware,KiCad,Pcbnew,9.0.0*%
%TF.CreationDate,2025-03-27T23:40:49+02:00*%
%TF.ProjectId,EEE3088F Micromouse Design,45454533-3038-4384-9620-4d6963726f6d,rev?*%
%TF.SameCoordinates,Original*%
%TF.FileFunction,Copper,L2,Bot*%
%TF.FilePolarity,Positive*%
%FSLAX46Y46*%
G04 Gerber Fmt 4.6, Leading zero omitted, Abs format (unit mm)*
G04 Created by KiCad (PCBNEW 9.0.0) date 2025-03-27 23:40:49*
%MOMM*%
%LPD*%
G01*
G04 APERTURE LIST*
G04 Aperture macros list*
%AMRoundRect*
0 Rectangle with rounded corners*
0 $1 Rounding radius*
0 $2 $3 $4 $5 $6 $7 $8 $9 X,Y pos of 4 corners*
0 Add a 4 corners polygon primitive as box body*
4,1,4,$2,$3,$4,$5,$6,$7,$8,$9,$2,$3,0*
0 Add four circle primitives for the rounded corners*
1,1,$1+$1,$2,$3*
1,1,$1+$1,$4,$5*
1,1,$1+$1,$6,$7*
1,1,$1+$1,$8,$9*
0 Add four rect primitives between the rounded corners*
20,1,$1+$1,$2,$3,$4,$5,0*
20,1,$1+$1,$4,$5,$6,$7,0*
20,1,$1+$1,$6,$7,$8,$9,0*
20,1,$1+$1,$8,$9,$2,$3,0*%
G04 Aperture macros list end*
%TA.AperFunction,HeatsinkPad*%
%ADD10C,0.500000*%
%TD*%
%TA.AperFunction,HeatsinkPad*%
%ADD11R,1.900000X2.900000*%
%TD*%
%TA.AperFunction,ComponentPad*%
%ADD12O,0.900000X2.000000*%
%TD*%
%TA.AperFunction,ComponentPad*%
%ADD13O,0.900000X1.700000*%
%TD*%
%TA.AperFunction,ComponentPad*%
%ADD14O,1.700000X1.700000*%
%TD*%
%TA.AperFunction,ComponentPad*%
%ADD15R,1.700000X1.700000*%
%TD*%
%TA.AperFunction,ComponentPad*%
%ADD16O,1.750000X1.200000*%
%TD*%
%TA.AperFunction,ComponentPad*%
%ADD17RoundRect,0.250000X0.625000X-0.350000X0.625000X0.350000X-0.625000X0.350000X-0.625000X-0.350000X0*%
%TD*%
G04 APERTURE END LIST*
D10*
%TO.P,U15,9,EPAD*%
%TO.N,GND*%
X100912500Y-123515000D03*
X100912500Y-124715000D03*
X100912500Y-125915000D03*
D11*
X101612500Y-124715000D03*
D10*
X102312500Y-123515000D03*
X102312500Y-124715000D03*
X102312500Y-125915000D03*
%TD*%
D12*
%TO.P,J3,S1,SHIELD*%
%TO.N,GND*%
X113586000Y-120350000D03*
%TO.P,J3,S2,SHIELD*%
X122236000Y-120350000D03*
D13*
%TO.P,J3,S3,SHIELD*%
X113586000Y-124520000D03*
%TO.P,J3,S4,SHIELD*%
X122236000Y-124520000D03*
%TD*%
D14*
%TO.P,J1,32,Pin_32*%
%TO.N,/MOTOR1_A_OUT*%
X74440000Y-126890000D03*
%TO.P,J1,31,Pin_31*%
%TO.N,/MOTOR1_B_OUT*%
X76980000Y-126890000D03*
%TO.P,J1,30,Pin_30*%
%TO.N,/MOTOR1_CTRL2*%
X74440000Y-124350000D03*
%TO.P,J1,29,Pin_29*%
%TO.N,/MOTOR3_B_OUT*%
X76980000Y-124350000D03*
%TO.P,J1,28,Pin_28*%
%TO.N,/MOTOR1_CTRL1*%
X74440000Y-121810000D03*
%TO.P,J1,27,Pin_27*%
%TO.N,/MOTOR3_A_OUT*%
X76980000Y-121810000D03*
%TO.P,J1,26,Pin_26*%
%TO.N,/MOTOR3_CTRL2*%
X74440000Y-119270000D03*
%TO.P,J1,25,Pin_25*%
%TO.N,/CTRL_EXT_LOAD1*%
X76980000Y-119270000D03*
%TO.P,J1,24,Pin_24*%
%TO.N,/MOTOR3_CTRL1*%
X74440000Y-116730000D03*
%TO.P,J1,23,Pin_23*%
%TO.N,GND*%
X76980000Y-116730000D03*
%TO.P,J1,22,Pin_22*%
%TO.N,/HV*%
X74440000Y-114190000D03*
%TO.P,J1,21,Pin_21*%
%TO.N,/EXT_LOAD1_OUT*%
X76980000Y-114190000D03*
%TO.P,J1,20,Pin_20*%
%TO.N,/5V Out*%
X74440000Y-111650000D03*
%TO.P,J1,19,Pin_19*%
%TO.N,GND*%
X76980000Y-111650000D03*
%TO.P,J1,18,Pin_18*%
%TO.N,/3V3 Out*%
X74440000Y-109110000D03*
%TO.P,J1,17,Pin_17*%
%TO.N,/SDA_INA219*%
X76980000Y-109110000D03*
%TO.P,J1,16,Pin_16*%
%TO.N,/SCLK_INA219*%
X74440000Y-106570000D03*
%TO.P,J1,15,Pin_15*%
%TO.N,unconnected-(J1-Pin_15-Pad15)*%
X76980000Y-106570000D03*
%TO.P,J1,14,Pin_14*%
%TO.N,/V_Battery+*%
X74440000Y-104030000D03*
%TO.P,J1,13,Pin_13*%
%TO.N,/FAST_CHARGE_CTRL*%
X76980000Y-104030000D03*
%TO.P,J1,12,Pin_12*%
%TO.N,unconnected-(J1-Pin_12-Pad12)*%
X74440000Y-101490000D03*
%TO.P,J1,11,Pin_11*%
%TO.N,/EXT_LOAD2_OUT*%
X76980000Y-101490000D03*
%TO.P,J1,10,Pin_10*%
%TO.N,/MOTOR4_CTRL2*%
X74440000Y-98950000D03*
%TO.P,J1,9,Pin_9*%
%TO.N,unconnected-(J1-Pin_9-Pad9)*%
X76980000Y-98950000D03*
%TO.P,J1,8,Pin_8*%
%TO.N,/MOTOR4_CTRL1*%
X74440000Y-96410000D03*
%TO.P,J1,7,Pin_7*%
%TO.N,/CTRL_EXT_LOAD2*%
X76980000Y-96410000D03*
%TO.P,J1,6,Pin_6*%
%TO.N,/MOTOR2_CTRL2*%
X74440000Y-93870000D03*
%TO.P,J1,5,Pin_5*%
%TO.N,/Motor4_B_OUT*%
X76980000Y-93870000D03*
%TO.P,J1,4,Pin_4*%
%TO.N,/MOTOR2_CTRL1*%
X74440000Y-91330000D03*
%TO.P,J1,3,Pin_3*%
%TO.N,/Motor4_A_OUT*%
X76980000Y-91330000D03*
%TO.P,J1,2,Pin_2*%
%TO.N,/Motor2_A_OUT*%
X74440000Y-88790000D03*
D15*
%TO.P,J1,1,Pin_1*%
%TO.N,/Motor2_B_OUT*%
X76980000Y-88790000D03*
%TD*%
D16*
%TO.P,J2,2,Pin_2*%
%TO.N,/V_Battery-*%
X67490000Y-105240000D03*
D17*
%TO.P,J2,1,Pin_1*%
%TO.N,/V_Battery+*%
X67490000Y-107240000D03*
%TD*%
%TA.AperFunction,Conductor*%
%TO.N,GND*%
G36*
X127343007Y-70019685D02*
G01*
X127388762Y-70072489D01*
X127399968Y-70124032D01*
X127380031Y-147765844D01*
X127360329Y-147832878D01*
X127307513Y-147878620D01*
X127255844Y-147889812D01*
X67896217Y-147800145D01*
X67829207Y-147780359D01*
X67783532Y-147727486D01*
X67776243Y-147706761D01*
X62824017Y-128270500D01*
X57707951Y-108191205D01*
X57708239Y-108128867D01*
X62348885Y-90595499D01*
X62846947Y-88713713D01*
X75019500Y-88713713D01*
X75019500Y-88926287D01*
X75052754Y-89136243D01*
X75067720Y-89182304D01*
X75118444Y-89338414D01*
X75214951Y-89527820D01*
X75339890Y-89699786D01*
X75490213Y-89850109D01*
X75662182Y-89975050D01*
X75670946Y-89979516D01*
X75721742Y-90027491D01*
X75738536Y-90095312D01*
X75715998Y-90161447D01*
X75670946Y-90200484D01*
X75662182Y-90204949D01*
X75490213Y-90329890D01*
X75339890Y-90480213D01*
X75214951Y-90652179D01*
X75118444Y-90841585D01*
X75052753Y-91043760D01*
X75019500Y-91253713D01*
X75019500Y-91466286D01*
X75052753Y-91676239D01*
X75118444Y-91878414D01*
X75214951Y-92067820D01*
X75339890Y-92239786D01*
X75490213Y-92390109D01*
X75662182Y-92515050D01*
X75670946Y-92519516D01*
X75721742Y-92567491D01*
X75738536Y-92635312D01*
X75715998Y-92701447D01*
X75670946Y-92740484D01*
X75662182Y-92744949D01*
X75490213Y-92869890D01*
X75339890Y-93020213D01*
X75214951Y-93192179D01*
X75118444Y-93381585D01*
X75052753Y-93583760D01*
X75019500Y-93793713D01*
X75019500Y-94006286D01*
X75052753Y-94216239D01*
X75118444Y-94418414D01*
X75214951Y-94607820D01*
X75339890Y-94779786D01*
X75490213Y-94930109D01*
X75662182Y-95055050D01*
X75670946Y-95059516D01*
X75721742Y-95107491D01*
X75738536Y-95175312D01*
X75715998Y-95241447D01*
X75670946Y-95280484D01*
X75662182Y-95284949D01*
X75490213Y-95409890D01*
X75339890Y-95560213D01*
X75214951Y-95732179D01*
X75118444Y-95921585D01*
X75052753Y-96123760D01*
X75019500Y-96333713D01*
X75019500Y-96546286D01*
X75052753Y-96756239D01*
X75118444Y-96958414D01*
X75214951Y-97147820D01*
X75339890Y-97319786D01*
X75490213Y-97470109D01*
X75662182Y-97595050D01*
X75670946Y-97599516D01*
X75721742Y-97647491D01*
X75738536Y-97715312D01*
X75715998Y-97781447D01*
X75670946Y-97820484D01*
X75662182Y-97824949D01*
X75490213Y-97949890D01*
X75339890Y-98100213D01*
X75214951Y-98272179D01*
X75118444Y-98461585D01*
X75052753Y-98663760D01*
X75019500Y-98873713D01*
X75019500Y-99086286D01*
X75052753Y-99296239D01*
X75118444Y-99498414D01*
X75214951Y-99687820D01*
X75339890Y-99859786D01*
X75490213Y-100010109D01*
X75662182Y-100135050D01*
X75670946Y-100139516D01*
X75721742Y-100187491D01*
X75738536Y-100255312D01*
X75715998Y-100321447D01*
X75670946Y-100360484D01*
X75662182Y-100364949D01*
X75490213Y-100489890D01*
X75339890Y-100640213D01*
X75214951Y-100812179D01*
X75118444Y-101001585D01*
X75052753Y-101203760D01*
X75019500Y-101413713D01*
X75019500Y-101626286D01*
X75052753Y-101836239D01*
X75118444Y-102038414D01*
X75214951Y-102227820D01*
X75339890Y-102399786D01*
X75490213Y-102550109D01*
X75662182Y-102675050D01*
X75670946Y-102679516D01*
X75721742Y-102727491D01*
X75738536Y-102795312D01*
X75715998Y-102861447D01*
X75670946Y-102900484D01*
X75662182Y-102904949D01*
X75490213Y-103029890D01*
X75339890Y-103180213D01*
X75214951Y-103352179D01*
X75118444Y-103541585D01*
X75052753Y-103743760D01*
X75019500Y-103953713D01*
X75019500Y-104166286D01*
X75052753Y-104376239D01*
X75118444Y-104578414D01*
X75214951Y-104767820D01*
X75339890Y-104939786D01*
X75490213Y-105090109D01*
X75662182Y-105215050D01*
X75670946Y-105219516D01*
X75721742Y-105267491D01*
X75738536Y-105335312D01*
X75715998Y-105401447D01*
X75670946Y-105440484D01*
X75662182Y-105444949D01*
X75490213Y-105569890D01*
X75339890Y-105720213D01*
X75214951Y-105892179D01*
X75118444Y-106081585D01*
X75052753Y-106283760D01*
X75019500Y-106493713D01*
X75019500Y-106706286D01*
X75052753Y-106916239D01*
X75118444Y-107118414D01*
X75214951Y-107307820D01*
X75339890Y-107479786D01*
X75490213Y-107630109D01*
X75662182Y-107755050D01*
X75670946Y-107759516D01*
X75721742Y-107807491D01*
X75738536Y-107875312D01*
X75715998Y-107941447D01*
X75670946Y-107980484D01*
X75662182Y-107984949D01*
X75490213Y-108109890D01*
X75339890Y-108260213D01*
X75214951Y-108432179D01*
X75118444Y-108621585D01*
X75052753Y-108823760D01*
X75019500Y-109033713D01*
X75019500Y-109246286D01*
X75052753Y-109456239D01*
X75118444Y-109658414D01*
X75214951Y-109847820D01*
X75339890Y-110019786D01*
X75490213Y-110170109D01*
X75662182Y-110295050D01*
X75670946Y-110299516D01*
X75721742Y-110347491D01*
X75738536Y-110415312D01*
X75715998Y-110481447D01*
X75670946Y-110520484D01*
X75662182Y-110524949D01*
X75490213Y-110649890D01*
X75339890Y-110800213D01*
X75214951Y-110972179D01*
X75118444Y-111161585D01*
X75052753Y-111363760D01*
X75019500Y-111573713D01*
X75019500Y-111786286D01*
X75052753Y-111996239D01*
X75118444Y-112198414D01*
X75214951Y-112387820D01*
X75339890Y-112559786D01*
X75490213Y-112710109D01*
X75662182Y-112835050D01*
X75670946Y-112839516D01*
X75721742Y-112887491D01*
X75738536Y-112955312D01*
X75715998Y-113021447D01*
X75670946Y-113060484D01*
X75662182Y-113064949D01*
X75490213Y-113189890D01*
X75339890Y-113340213D01*
X75214951Y-113512179D01*
X75118444Y-113701585D01*
X75052753Y-113903760D01*
X75019500Y-114113713D01*
X75019500Y-114326286D01*
X75052753Y-114536239D01*
X75118444Y-114738414D01*
X75214951Y-114927820D01*
X75339890Y-115099786D01*
X75490213Y-115250109D01*
X75662182Y-115375050D01*
X75670946Y-115379516D01*
X75721742Y-115427491D01*
X75738536Y-115495312D01*
X75715998Y-115561447D01*
X75670946Y-115600484D01*
X75662182Y-115604949D01*
X75490213Y-115729890D01*
X75339890Y-115880213D01*
X75214951Y-116052179D01*
X75118444Y-116241585D01*
X75052753Y-116443760D01*
X75019500Y-116653713D01*
X75019500Y-116866286D01*
X75052753Y-117076239D01*
X75118444Y-117278414D01*
X75214951Y-117467820D01*
X75339890Y-117639786D01*
X75490213Y-117790109D01*
X75662182Y-117915050D01*
X75670946Y-117919516D01*
X75721742Y-117967491D01*
X75738536Y-118035312D01*
X75715998Y-118101447D01*
X75670946Y-118140484D01*
X75662182Y-118144949D01*
X75490213Y-118269890D01*
X75339890Y-118420213D01*
X75214951Y-118592179D01*
X75118444Y-118781585D01*
X75052753Y-118983760D01*
X75019500Y-119193713D01*
X75019500Y-119406286D01*
X75052753Y-119616239D01*
X75118444Y-119818414D01*
X75214951Y-120007820D01*
X75339890Y-120179786D01*
X75490213Y-120330109D01*
X75662182Y-120455050D01*
X75670946Y-120459516D01*
X75721742Y-120507491D01*
X75738536Y-120575312D01*
X75715998Y-120641447D01*
X75670946Y-120680484D01*
X75662182Y-120684949D01*
X75490213Y-120809890D01*
X75339890Y-120960213D01*
X75214951Y-121132179D01*
X75118444Y-121321585D01*
X75052753Y-121523760D01*
X75019500Y-121733713D01*
X75019500Y-121946286D01*
X75052753Y-122156239D01*
X75118444Y-122358414D01*
X75214951Y-122547820D01*
X75339890Y-122719786D01*
X75490213Y-122870109D01*
X75662182Y-122995050D01*
X75670946Y-122999516D01*
X75721742Y-123047491D01*
X75738536Y-123115312D01*
X75715998Y-123181447D01*
X75670946Y-123220484D01*
X75662182Y-123224949D01*
X75490213Y-123349890D01*
X75339890Y-123500213D01*
X75214951Y-123672179D01*
X75118444Y-123861585D01*
X75052753Y-124063760D01*
X75019500Y-124273713D01*
X75019500Y-124486286D01*
X75052753Y-124696239D01*
X75118444Y-124898414D01*
X75214951Y-125087820D01*
X75339890Y-125259786D01*
X75490213Y-125410109D01*
X75662182Y-125535050D01*
X75670946Y-125539516D01*
X75721742Y-125587491D01*
X75738536Y-125655312D01*
X75715998Y-125721447D01*
X75670946Y-125760484D01*
X75662182Y-125764949D01*
X75490213Y-125889890D01*
X75339890Y-126040213D01*
X75214951Y-126212179D01*
X75118444Y-126401585D01*
X75052753Y-126603760D01*
X75019500Y-126813713D01*
X75019500Y-127026286D01*
X75052753Y-127236239D01*
X75118444Y-127438414D01*
X75214951Y-127627820D01*
X75339890Y-127799786D01*
X75490213Y-127950109D01*
X75662179Y-128075048D01*
X75662181Y-128075049D01*
X75662184Y-128075051D01*
X75851588Y-128171557D01*
X76053757Y-128237246D01*
X76263713Y-128270500D01*
X76263714Y-128270500D01*
X76476286Y-128270500D01*
X76476287Y-128270500D01*
X76686243Y-128237246D01*
X76888412Y-128171557D01*
X77077816Y-128075051D01*
X77099789Y-128059086D01*
X77249786Y-127950109D01*
X77249788Y-127950106D01*
X77249792Y-127950104D01*
X77400104Y-127799792D01*
X77400106Y-127799788D01*
X77400109Y-127799786D01*
X77525048Y-127627820D01*
X77525047Y-127627820D01*
X77525051Y-127627816D01*
X77529514Y-127619054D01*
X77577488Y-127568259D01*
X77645308Y-127551463D01*
X77711444Y-127573999D01*
X77750486Y-127619056D01*
X77754951Y-127627820D01*
X77879890Y-127799786D01*
X78030213Y-127950109D01*
X78202179Y-128075048D01*
X78202181Y-128075049D01*
X78202184Y-128075051D01*
X78391588Y-128171557D01*
X78593757Y-128237246D01*
X78803713Y-128270500D01*
X78803714Y-128270500D01*
X79016286Y-128270500D01*
X79016287Y-128270500D01*
X79226243Y-128237246D01*
X79428412Y-128171557D01*
X79617816Y-128075051D01*
X79639789Y-128059086D01*
X79789786Y-127950109D01*
X79789788Y-127950106D01*
X79789792Y-127950104D01*
X79940104Y-127799792D01*
X79940106Y-127799788D01*
X79940109Y-127799786D01*
X80065048Y-127627820D01*
X80065047Y-127627820D01*
X80065051Y-127627816D01*
X80161557Y-127438412D01*
X80227246Y-127236243D01*
X80260500Y-127026287D01*
X80260500Y-126813713D01*
X80227246Y-126603757D01*
X80161557Y-126401588D01*
X80065051Y-126212184D01*
X80065049Y-126212181D01*
X80065048Y-126212179D01*
X79940109Y-126040213D01*
X79789786Y-125889890D01*
X79617820Y-125764951D01*
X79617115Y-125764591D01*
X79609054Y-125760485D01*
X79558259Y-125712512D01*
X79541463Y-125644692D01*
X79563999Y-125578556D01*
X79609054Y-125539515D01*
X79617816Y-125535051D01*
X79639789Y-125519086D01*
X79789786Y-125410109D01*
X79789788Y-125410106D01*
X79789792Y-125410104D01*
X79940104Y-125259792D01*
X79940106Y-125259788D01*
X79940109Y-125259786D01*
X80065048Y-125087820D01*
X80065047Y-125087820D01*
X80065051Y-125087816D01*
X80161557Y-124898412D01*
X80227246Y-124696243D01*
X80260500Y-124486287D01*
X80260500Y-124273713D01*
X80227246Y-124063757D01*
X80161557Y-123861588D01*
X80065051Y-123672184D01*
X80065049Y-123672181D01*
X80065048Y-123672179D01*
X79940109Y-123500213D01*
X79789786Y-123349890D01*
X79617820Y-123224951D01*
X79617115Y-123224591D01*
X79609054Y-123220485D01*
X79558259Y-123172512D01*
X79541463Y-123104692D01*
X79563999Y-123038556D01*
X79609054Y-122999515D01*
X79617816Y-122995051D01*
X79639789Y-122979086D01*
X79789786Y-122870109D01*
X79789788Y-122870106D01*
X79789792Y-122870104D01*
X79940104Y-122719792D01*
X79940106Y-122719788D01*
X79940109Y-122719786D01*
X80065048Y-122547820D01*
X80065047Y-122547820D01*
X80065051Y-122547816D01*
X80161557Y-122358412D01*
X80227246Y-122156243D01*
X80260500Y-121946287D01*
X80260500Y-121733713D01*
X80227246Y-121523757D01*
X80161557Y-121321588D01*
X80065051Y-121132184D01*
X80065049Y-121132181D01*
X80065048Y-121132179D01*
X79940109Y-120960213D01*
X79789786Y-120809890D01*
X79617820Y-120684951D01*
X79617115Y-120684591D01*
X79609054Y-120680485D01*
X79558259Y-120632512D01*
X79541463Y-120564692D01*
X79563999Y-120498556D01*
X79609054Y-120459515D01*
X79617816Y-120455051D01*
X79639789Y-120439086D01*
X79789786Y-120330109D01*
X79789788Y-120330106D01*
X79789792Y-120330104D01*
X79940104Y-120179792D01*
X79940106Y-120179788D01*
X79940109Y-120179786D01*
X80065048Y-120007820D01*
X80065047Y-120007820D01*
X80065051Y-120007816D01*
X80161557Y-119818412D01*
X80227246Y-119616243D01*
X80260500Y-119406287D01*
X80260500Y-119193713D01*
X80227246Y-118983757D01*
X80161557Y-118781588D01*
X80065051Y-118592184D01*
X80065049Y-118592181D01*
X80065048Y-118592179D01*
X79940109Y-118420213D01*
X79789786Y-118269890D01*
X79617817Y-118144949D01*
X79608504Y-118140204D01*
X79557707Y-118092230D01*
X79540912Y-118024409D01*
X79563449Y-117958274D01*
X79608507Y-117919232D01*
X79617558Y-117914620D01*
X79789459Y-117789727D01*
X79789464Y-117789723D01*
X79939723Y-117639464D01*
X79939727Y-117639459D01*
X80064620Y-117467557D01*
X80161095Y-117278217D01*
X80226757Y-117076129D01*
X80226757Y-117076126D01*
X80237231Y-117010000D01*
X79343012Y-117010000D01*
X79375925Y-116952993D01*
X79410000Y-116825826D01*
X79410000Y-116694174D01*
X79375925Y-116567007D01*
X79343012Y-116510000D01*
X80237231Y-116510000D01*
X80226757Y-116443873D01*
X80226757Y-116443870D01*
X80161095Y-116241782D01*
X80064620Y-116052442D01*
X79939727Y-115880540D01*
X79939723Y-115880535D01*
X79789464Y-115730276D01*
X79789459Y-115730272D01*
X79617555Y-115605377D01*
X79608500Y-115600763D01*
X79557706Y-115552788D01*
X79540912Y-115484966D01*
X79563451Y-115418832D01*
X79608508Y-115379793D01*
X79617816Y-115375051D01*
X79697007Y-115317515D01*
X79789786Y-115250109D01*
X79789788Y-115250106D01*
X79789792Y-115250104D01*
X79940104Y-115099792D01*
X79940106Y-115099788D01*
X79940109Y-115099786D01*
X80065048Y-114927820D01*
X80065047Y-114927820D01*
X80065051Y-114927816D01*
X80161557Y-114738412D01*
X80227246Y-114536243D01*
X80260500Y-114326287D01*
X80260500Y-114113713D01*
X80227246Y-113903757D01*
X80161557Y-113701588D01*
X80065051Y-113512184D01*
X80065049Y-113512181D01*
X80065048Y-113512179D01*
X79940109Y-113340213D01*
X79789786Y-113189890D01*
X79617817Y-113064949D01*
X79608504Y-113060204D01*
X79557707Y-113012230D01*
X79540912Y-112944409D01*
X79563449Y-112878274D01*
X79608507Y-112839232D01*
X79617558Y-112834620D01*
X79789459Y-112709727D01*
X79789464Y-112709723D01*
X79939723Y-112559464D01*
X79939727Y-112559459D01*
X80064620Y-112387557D01*
X80161095Y-112198217D01*
X80226757Y-111996129D01*
X80226757Y-111996126D01*
X80237231Y-111930000D01*
X79343012Y-111930000D01*
X79375925Y-111872993D01*
X79410000Y-111745826D01*
X79410000Y-111614174D01*
X79375925Y-111487007D01*
X79343012Y-111430000D01*
X80237231Y-111430000D01*
X80226757Y-111363873D01*
X80226757Y-111363870D01*
X80161095Y-111161782D01*
X80064620Y-110972442D01*
X79939727Y-110800540D01*
X79939723Y-110800535D01*
X79789464Y-110650276D01*
X79789459Y-110650272D01*
X79617555Y-110525377D01*
X79608500Y-110520763D01*
X79557706Y-110472788D01*
X79540912Y-110404966D01*
X79563451Y-110338832D01*
X79608508Y-110299793D01*
X79617816Y-110295051D01*
X79697007Y-110237515D01*
X79789786Y-110170109D01*
X79789788Y-110170106D01*
X79789792Y-110170104D01*
X79940104Y-110019792D01*
X79940106Y-110019788D01*
X79940109Y-110019786D01*
X80065048Y-109847820D01*
X80065047Y-109847820D01*
X80065051Y-109847816D01*
X80161557Y-109658412D01*
X80227246Y-109456243D01*
X80260500Y-109246287D01*
X80260500Y-109033713D01*
X80227246Y-108823757D01*
X80161557Y-108621588D01*
X80065051Y-108432184D01*
X80065049Y-108432181D01*
X80065048Y-108432179D01*
X79940109Y-108260213D01*
X79789786Y-108109890D01*
X79617820Y-107984951D01*
X79617115Y-107984591D01*
X79609054Y-107980485D01*
X79558259Y-107932512D01*
X79541463Y-107864692D01*
X79563999Y-107798556D01*
X79609054Y-107759515D01*
X79617816Y-107755051D01*
X79639789Y-107739086D01*
X79789786Y-107630109D01*
X79789788Y-107630106D01*
X79789792Y-107630104D01*
X79940104Y-107479792D01*
X79940106Y-107479788D01*
X79940109Y-107479786D01*
X80065048Y-107307820D01*
X80065047Y-107307820D01*
X80065051Y-107307816D01*
X80161557Y-107118412D01*
X80227246Y-106916243D01*
X80260500Y-106706287D01*
X80260500Y-106493713D01*
X80227246Y-106283757D01*
X80161557Y-106081588D01*
X80065051Y-105892184D01*
X80065049Y-105892181D01*
X80065048Y-105892179D01*
X79940109Y-105720213D01*
X79789786Y-105569890D01*
X79617820Y-105444951D01*
X79617115Y-105444591D01*
X79609054Y-105440485D01*
X79558259Y-105392512D01*
X79541463Y-105324692D01*
X79563999Y-105258556D01*
X79609054Y-105219515D01*
X79617816Y-105215051D01*
X79639789Y-105199086D01*
X79789786Y-105090109D01*
X79789788Y-105090106D01*
X79789792Y-105090104D01*
X79940104Y-104939792D01*
X79940106Y-104939788D01*
X79940109Y-104939786D01*
X80065048Y-104767820D01*
X80065047Y-104767820D01*
X80065051Y-104767816D01*
X80161557Y-104578412D01*
X80227246Y-104376243D01*
X80260500Y-104166287D01*
X80260500Y-103953713D01*
X80227246Y-103743757D01*
X80161557Y-103541588D01*
X80065051Y-103352184D01*
X80065049Y-103352181D01*
X80065048Y-103352179D01*
X79940109Y-103180213D01*
X79789786Y-103029890D01*
X79617820Y-102904951D01*
X79617115Y-102904591D01*
X79609054Y-102900485D01*
X79558259Y-102852512D01*
X79541463Y-102784692D01*
X79563999Y-102718556D01*
X79609054Y-102679515D01*
X79617816Y-102675051D01*
X79639789Y-102659086D01*
X79789786Y-102550109D01*
X79789788Y-102550106D01*
X79789792Y-102550104D01*
X79940104Y-102399792D01*
X79940106Y-102399788D01*
X79940109Y-102399786D01*
X80065048Y-102227820D01*
X80065047Y-102227820D01*
X80065051Y-102227816D01*
X80161557Y-102038412D01*
X80227246Y-101836243D01*
X80260500Y-101626287D01*
X80260500Y-101413713D01*
X80227246Y-101203757D01*
X80161557Y-101001588D01*
X80065051Y-100812184D01*
X80065049Y-100812181D01*
X80065048Y-100812179D01*
X79940109Y-100640213D01*
X79789786Y-100489890D01*
X79617820Y-100364951D01*
X79617115Y-100364591D01*
X79609054Y-100360485D01*
X79558259Y-100312512D01*
X79541463Y-100244692D01*
X79563999Y-100178556D01*
X79609054Y-100139515D01*
X79617816Y-100135051D01*
X79639789Y-100119086D01*
X79789786Y-100010109D01*
X79789788Y-100010106D01*
X79789792Y-100010104D01*
X79940104Y-99859792D01*
X79940106Y-99859788D01*
X79940109Y-99859786D01*
X80065048Y-99687820D01*
X80065047Y-99687820D01*
X80065051Y-99687816D01*
X80161557Y-99498412D01*
X80227246Y-99296243D01*
X80260500Y-99086287D01*
X80260500Y-98873713D01*
X80227246Y-98663757D01*
X80161557Y-98461588D01*
X80065051Y-98272184D01*
X80065049Y-98272181D01*
X80065048Y-98272179D01*
X79940109Y-98100213D01*
X79789786Y-97949890D01*
X79617820Y-97824951D01*
X79617115Y-97824591D01*
X79609054Y-97820485D01*
X79558259Y-97772512D01*
X79541463Y-97704692D01*
X79563999Y-97638556D01*
X79609054Y-97599515D01*
X79617816Y-97595051D01*
X79639789Y-97579086D01*
X79789786Y-97470109D01*
X79789788Y-97470106D01*
X79789792Y-97470104D01*
X79940104Y-97319792D01*
X79940106Y-97319788D01*
X79940109Y-97319786D01*
X80065048Y-97147820D01*
X80065047Y-97147820D01*
X80065051Y-97147816D01*
X80161557Y-96958412D01*
X80227246Y-96756243D01*
X80260500Y-96546287D01*
X80260500Y-96333713D01*
X80227246Y-96123757D01*
X80161557Y-95921588D01*
X80065051Y-95732184D01*
X80065049Y-95732181D01*
X80065048Y-95732179D01*
X79940109Y-95560213D01*
X79789786Y-95409890D01*
X79617820Y-95284951D01*
X79617115Y-95284591D01*
X79609054Y-95280485D01*
X79558259Y-95232512D01*
X79541463Y-95164692D01*
X79563999Y-95098556D01*
X79609054Y-95059515D01*
X79617816Y-95055051D01*
X79639789Y-95039086D01*
X79789786Y-94930109D01*
X79789788Y-94930106D01*
X79789792Y-94930104D01*
X79940104Y-94779792D01*
X79940106Y-94779788D01*
X79940109Y-94779786D01*
X80065048Y-94607820D01*
X80065047Y-94607820D01*
X80065051Y-94607816D01*
X80161557Y-94418412D01*
X80227246Y-94216243D01*
X80260500Y-94006287D01*
X80260500Y-93793713D01*
X80227246Y-93583757D01*
X80161557Y-93381588D01*
X80065051Y-93192184D01*
X80065049Y-93192181D01*
X80065048Y-93192179D01*
X79940109Y-93020213D01*
X79789786Y-92869890D01*
X79617820Y-92744951D01*
X79617115Y-92744591D01*
X79609054Y-92740485D01*
X79558259Y-92692512D01*
X79541463Y-92624692D01*
X79563999Y-92558556D01*
X79609054Y-92519515D01*
X79617816Y-92515051D01*
X79639789Y-92499086D01*
X79789786Y-92390109D01*
X79789788Y-92390106D01*
X79789792Y-92390104D01*
X79940104Y-92239792D01*
X79940106Y-92239788D01*
X79940109Y-92239786D01*
X80065048Y-92067820D01*
X80065047Y-92067820D01*
X80065051Y-92067816D01*
X80161557Y-91878412D01*
X80227246Y-91676243D01*
X80260500Y-91466287D01*
X80260500Y-91253713D01*
X80227246Y-91043757D01*
X80161557Y-90841588D01*
X80065051Y-90652184D01*
X80065049Y-90652181D01*
X80065048Y-90652179D01*
X79940109Y-90480213D01*
X79826569Y-90366673D01*
X79793084Y-90305350D01*
X79798068Y-90235658D01*
X79839940Y-90179725D01*
X79870915Y-90162810D01*
X80002331Y-90113796D01*
X80117546Y-90027546D01*
X80203796Y-89912331D01*
X80254091Y-89777483D01*
X80260500Y-89717873D01*
X80260499Y-88544983D01*
X83069500Y-88544983D01*
X83069500Y-89895001D01*
X83069501Y-89895018D01*
X83080000Y-89997796D01*
X83080001Y-89997799D01*
X83135185Y-90164331D01*
X83135187Y-90164336D01*
X83157483Y-90200484D01*
X83227288Y-90313656D01*
X83351344Y-90437712D01*
X83500666Y-90529814D01*
X83667203Y-90584999D01*
X83769991Y-90595500D01*
X84570008Y-90595499D01*
X84570016Y-90595498D01*
X84570019Y-90595498D01*
X84626302Y-90589748D01*
X84672797Y-90584999D01*
X84839334Y-90529814D01*
X84988656Y-90437712D01*
X85112712Y-90313656D01*
X85152310Y-90249456D01*
X85204258Y-90202732D01*
X85273220Y-90191509D01*
X85337303Y-90219352D01*
X85345530Y-90226872D01*
X85453072Y-90334414D01*
X85593212Y-90436232D01*
X85747555Y-90514873D01*
X85912299Y-90568402D01*
X86083389Y-90595500D01*
X86083390Y-90595500D01*
X86256610Y-90595500D01*
X86256611Y-90595500D01*
X86427701Y-90568402D01*
X86592445Y-90514873D01*
X86746788Y-90436232D01*
X86886928Y-90334414D01*
X87009414Y-90211928D01*
X87111232Y-90071788D01*
X87189873Y-89917445D01*
X87243402Y-89752701D01*
X87270500Y-89581611D01*
X87270500Y-88858389D01*
X87243402Y-88687299D01*
X87189873Y-88522555D01*
X87111232Y-88368212D01*
X87009414Y-88228072D01*
X86886928Y-88105586D01*
X86746788Y-88003768D01*
X86592445Y-87925127D01*
X86427701Y-87871598D01*
X86427699Y-87871597D01*
X86427698Y-87871597D01*
X86296271Y-87850781D01*
X86256611Y-87844500D01*
X86083389Y-87844500D01*
X86043728Y-87850781D01*
X85912302Y-87871597D01*
X85747552Y-87925128D01*
X85593211Y-88003768D01*
X85453073Y-88105585D01*
X85345530Y-88213128D01*
X85284207Y-88246612D01*
X85214515Y-88241628D01*
X85158582Y-88199756D01*
X85152310Y-88190543D01*
X85145680Y-88179794D01*
X85112712Y-88126344D01*
X84988656Y-88002288D01*
X84863559Y-87925128D01*
X84839336Y-87910187D01*
X84839331Y-87910185D01*
X84818946Y-87903430D01*
X84672797Y-87855001D01*
X84672795Y-87855000D01*
X84570010Y-87844500D01*
X83769998Y-87844500D01*
X83769980Y-87844501D01*
X83667203Y-87855000D01*
X83667200Y-87855001D01*
X83500668Y-87910185D01*
X83500663Y-87910187D01*
X83351342Y-88002289D01*
X83227289Y-88126342D01*
X83135187Y-88275663D01*
X83135186Y-88275666D01*
X83080001Y-88442203D01*
X83080001Y-88442204D01*
X83080000Y-88442204D01*
X83069500Y-88544983D01*
X80260499Y-88544983D01*
X80260499Y-87922128D01*
X80254091Y-87862517D01*
X80252810Y-87859083D01*
X80203797Y-87727671D01*
X80203793Y-87727664D01*
X80117547Y-87612455D01*
X80117544Y-87612452D01*
X80002335Y-87526206D01*
X80002328Y-87526202D01*
X79867482Y-87475908D01*
X79867483Y-87475908D01*
X79807883Y-87469501D01*
X79807881Y-87469500D01*
X79807873Y-87469500D01*
X79807864Y-87469500D01*
X78012129Y-87469500D01*
X78012123Y-87469501D01*
X77952516Y-87475908D01*
X77817671Y-87526202D01*
X77817664Y-87526206D01*
X77702455Y-87612452D01*
X77702452Y-87612455D01*
X77616206Y-87727664D01*
X77616203Y-87727669D01*
X77567189Y-87859083D01*
X77525317Y-87915016D01*
X77459853Y-87939433D01*
X77391580Y-87924581D01*
X77363326Y-87903430D01*
X77249786Y-87789890D01*
X77077820Y-87664951D01*
X76888414Y-87568444D01*
X76888413Y-87568443D01*
X76888412Y-87568443D01*
X76686243Y-87502754D01*
X76686241Y-87502753D01*
X76686240Y-87502753D01*
X76524957Y-87477208D01*
X76476287Y-87469500D01*
X76263713Y-87469500D01*
X76215042Y-87477208D01*
X76053760Y-87502753D01*
X75851585Y-87568444D01*
X75662179Y-87664951D01*
X75490213Y-87789890D01*
X75339890Y-87940213D01*
X75214951Y-88112179D01*
X75118444Y-88301585D01*
X75052753Y-88503760D01*
X75046224Y-88544983D01*
X75019500Y-88713713D01*
X62846947Y-88713713D01*
X62856634Y-88677114D01*
X67775578Y-70092273D01*
X67811760Y-70032501D01*
X67874513Y-70001780D01*
X67895450Y-70000000D01*
X127275968Y-70000000D01*
X127343007Y-70019685D01*
G37*
%TD.AperFunction*%
%TD*%
M02*
