%TF.GenerationSoftware,KiCad,Pcbnew,9.0.0*%
%TF.CreationDate,2025-03-27T21:08:07+02:00*%
%TF.ProjectId,EEE3088F Micromouse Design,45454533-3038-4384-9620-4d6963726f6d,rev?*%
%TF.SameCoordinates,Original*%
%TF.FileFunction,Soldermask,Bot*%
%TF.FilePolarity,Negative*%
%FSLAX46Y46*%
G04 Gerber Fmt 4.6, Leading zero omitted, Abs format (unit mm)*
G04 Created by KiCad (PCBNEW 9.0.0) date 2025-03-27 21:08:07*
%MOMM*%
%LPD*%
G01*
G04 APERTURE LIST*
G04 Aperture macros list*
%AMRoundRect*
0 Rectangle with rounded corners*
0 $1 Rounding radius*
0 $2 $3 $4 $5 $6 $7 $8 $9 X,Y pos of 4 corners*
0 Add a 4 corners polygon primitive as box body*
4,1,4,$2,$3,$4,$5,$6,$7,$8,$9,$2,$3,0*
0 Add four circle primitives for the rounded corners*
1,1,$1+$1,$2,$3*
1,1,$1+$1,$4,$5*
1,1,$1+$1,$6,$7*
1,1,$1+$1,$8,$9*
0 Add four rect primitives between the rounded corners*
20,1,$1+$1,$2,$3,$4,$5,0*
20,1,$1+$1,$4,$5,$6,$7,0*
20,1,$1+$1,$6,$7,$8,$9,0*
20,1,$1+$1,$8,$9,$2,$3,0*%
G04 Aperture macros list end*
%ADD10O,0.900000X1.700000*%
%ADD11O,0.900000X2.000000*%
%ADD12C,0.600000*%
%ADD13C,0.300000*%
%ADD14R,1.700000X1.700000*%
%ADD15O,1.700000X1.700000*%
%ADD16RoundRect,0.250000X0.625000X-0.350000X0.625000X0.350000X-0.625000X0.350000X-0.625000X-0.350000X0*%
%ADD17O,1.750000X1.200000*%
%ADD18C,3.000000*%
%ADD19R,2.200000X2.200000*%
%ADD20O,2.200000X2.200000*%
G04 APERTURE END LIST*
D10*
%TO.C,J3*%
X200100000Y-71250000D03*
X208750000Y-71250000D03*
D11*
X200100000Y-75420000D03*
X208750000Y-75420000D03*
D12*
X201535000Y-74930000D03*
X207315000Y-74930000D03*
%TD*%
D13*
%TO.C,U7*%
X202300000Y-105370000D03*
X201525000Y-106120000D03*
X202300000Y-106120000D03*
X203075000Y-106120000D03*
X201525000Y-107170000D03*
X202300000Y-107170000D03*
X203075000Y-107170000D03*
X202300000Y-107920000D03*
%TD*%
D14*
%TO.C,J1*%
X156800000Y-86140000D03*
D15*
X154260000Y-86140000D03*
X156800000Y-88680000D03*
X154260000Y-88680000D03*
X156800000Y-91220000D03*
X154260000Y-91220000D03*
X156800000Y-93760000D03*
X154260000Y-93760000D03*
X156800000Y-96300000D03*
X154260000Y-96300000D03*
X156800000Y-98840000D03*
X154260000Y-98840000D03*
X156800000Y-101380000D03*
X154260000Y-101380000D03*
X156800000Y-103920000D03*
X154260000Y-103920000D03*
X156800000Y-106460000D03*
X154260000Y-106460000D03*
X156800000Y-109000000D03*
X154260000Y-109000000D03*
X156800000Y-111540000D03*
X154260000Y-111540000D03*
X156800000Y-114080000D03*
X154260000Y-114080000D03*
X156800000Y-116620000D03*
X154260000Y-116620000D03*
X156800000Y-119160000D03*
X154260000Y-119160000D03*
X156800000Y-121700000D03*
X154260000Y-121700000D03*
X156800000Y-124240000D03*
X154260000Y-124240000D03*
%TD*%
D16*
%TO.C,J2*%
X153960000Y-75960000D03*
D17*
X153960000Y-73960000D03*
%TD*%
D18*
%TO.C,SW1*%
X162160000Y-88780000D03*
X162160000Y-83980000D03*
X162160000Y-79180000D03*
%TD*%
D19*
%TO.C,D1*%
X185895000Y-72840000D03*
D20*
X196055000Y-72840000D03*
%TD*%
M02*
