M48
; DRILL file {KiCad 9.0.0} date 2025-03-28T16:39:02+0200
; FORMAT={-:-/ absolute / inch / decimal}
; #@! TF.CreationDate,2025-03-28T16:39:02+02:00
; #@! TF.GenerationSoftware,Kicad,Pcbnew,9.0.0
; #@! TF.FileFunction,Plated,1,2,PTH
FMAT,2
INCH
; #@! TA.AperFunction,Plated,PTH,ViaDrill
T1C0.0157
; #@! TA.AperFunction,Plated,PTH,ComponentDrill
T2C0.0236
; #@! TA.AperFunction,Plated,PTH,ComponentDrill
T3C0.0295
; #@! TA.AperFunction,Plated,PTH,ComponentDrill
T4C0.0394
; #@! TA.AperFunction,Plated,PTH,ViaDrill
T5C0.1260
%
G90
G05
T1
X2.4934Y-4.2965
X2.5114Y-3.5873
X2.6861Y-3.7156
X2.6929Y-3.8338
X2.6931Y-4.4194
X2.7844Y-4.0211
X2.814Y-4.1061
X3.012Y-2.9675
X3.012Y-3.4124
X3.0642Y-3.1568
X3.0672Y-3.2155
X3.0838Y-4.758
X3.1223Y-2.873
X3.1223Y-3.0814
X3.1309Y-3.827
X3.1359Y-5.7824
X3.142Y-4.562
X3.142Y-4.7246
X3.1577Y-3.8704
X3.1656Y-3.167
X3.1884Y-3.0921
X3.192Y-3.047
X3.2084Y-3.8238
X3.2128Y-3.2909
X3.2168Y-4.4244
X3.2207Y-4.5462
X3.2325Y-2.8572
X3.2391Y-3.8546
X3.2593Y-4.6494
X3.268Y-2.8533
X3.2683Y-3.2191
X3.2879Y-4.4244
X3.2968Y-3.2838
X3.2992Y-4.5654
X3.3624Y-3.7665
X3.3624Y-4.5641
X3.3802Y-4.6967
X3.4088Y-4.7326
X3.4157Y-3.0331
X3.4503Y-2.8533
X3.4885Y-3.1869
X3.5032Y-4.6821
X3.5425Y-4.7273
X3.5695Y-4.6821
X3.575Y-4.1026
X3.5856Y-3.9741
X3.5987Y-3.3195
X3.6128Y-3.5872
X3.6577Y-5.7509
X3.6886Y-4.7043
X3.7157Y-3.5001
X3.7288Y-2.8543
X3.7465Y-4.7108
X3.7524Y-3.7671
X3.7751Y-4.6183
X3.7906Y-3.4714
X3.8013Y-3.9768
X3.8063Y-4.7643
X3.8268Y-3.5611
X3.8459Y-4.0054
X3.8605Y-4.5817
X3.9136Y-4.6395
X3.9254Y-3.5885
X3.9294Y-3.6456
X3.9632Y-3.9975
X3.9766Y-3.7706
X3.9963Y-5.3927
X4.0444Y-3.857
X4.0908Y-3.6446
X4.1183Y-3.7116
X4.2273Y-4.5285
X4.2391Y-3.4538
X4.2719Y-3.9793
X4.4163Y-3.4375
X4.4176Y-4.8848
X4.4435Y-3.6403
X4.4451Y-4.999
X4.4512Y-5.1636
X4.5265Y-5.4651
X4.5396Y-4.6722
X4.5578Y-3.9728
X4.575Y-4.7667
X4.6102Y-5.2151
X4.6391Y-5.4743
X4.7164Y-5.434
X4.7451Y-5.2471
X4.7955Y-4.8297
X4.8024Y-5.1636
X4.8349Y-5.4754
X4.8503Y-3.4512
X4.9136Y-5.3454
X4.9849Y-4.6044
X4.9946Y-5.2151
T3
X2.5518Y-4.1521
X2.5518Y-4.2309
T4
X2.925Y-3.549
X2.925Y-3.649
X2.925Y-3.749
X2.925Y-3.849
X2.925Y-3.949
X2.925Y-4.049
X2.925Y-4.149
X2.925Y-4.249
X2.925Y-4.349
X2.925Y-4.449
X2.925Y-4.549
X2.925Y-4.649
X2.925Y-4.749
X2.925Y-4.849
X2.925Y-4.949
X2.925Y-5.049
X3.025Y-3.549
X3.025Y-3.649
X3.025Y-3.749
X3.025Y-3.849
X3.025Y-3.949
X3.025Y-4.049
X3.025Y-4.149
X3.025Y-4.249
X3.025Y-4.349
X3.025Y-4.449
X3.025Y-4.549
X3.025Y-4.649
X3.025Y-4.749
X3.025Y-4.849
X3.025Y-4.949
X3.025Y-5.049
T5
X4.005Y-4.288
X4.3987Y-4.288
X4.7924Y-4.288
T2
G00X4.5662Y-5.5218
M15
G01X4.5662Y-5.5651
M16
G05
G00X4.5662Y-5.6919
M15
G01X4.5662Y-5.7234
M16
G05
G00X4.9067Y-5.5218
M15
G01X4.9067Y-5.5651
M16
G05
G00X4.9067Y-5.6919
M15
G01X4.9067Y-5.7234
M16
G05
T4
G00X2.6026Y-3.1683
M15
G01X2.6026Y-3.1919
M16
G05
G00X2.7916Y-3.1683
M15
G01X2.7916Y-3.1919
M16
G05
G00X2.9806Y-3.1683
M15
G01X2.9806Y-3.1919
M16
G05
M30
