%TF.GenerationSoftware,KiCad,Pcbnew,9.0.0*%
%TF.CreationDate,2025-03-26T08:11:03+02:00*%
%TF.ProjectId,EEE3088F Micromouse Design,45454533-3038-4384-9620-4d6963726f6d,rev?*%
%TF.SameCoordinates,Original*%
%TF.FileFunction,Copper,L2,Bot*%
%TF.FilePolarity,Positive*%
%FSLAX46Y46*%
G04 Gerber Fmt 4.6, Leading zero omitted, Abs format (unit mm)*
G04 Created by KiCad (PCBNEW 9.0.0) date 2025-03-26 08:11:03*
%MOMM*%
%LPD*%
G01*
G04 APERTURE LIST*
G04 Aperture macros list*
%AMRoundRect*
0 Rectangle with rounded corners*
0 $1 Rounding radius*
0 $2 $3 $4 $5 $6 $7 $8 $9 X,Y pos of 4 corners*
0 Add a 4 corners polygon primitive as box body*
4,1,4,$2,$3,$4,$5,$6,$7,$8,$9,$2,$3,0*
0 Add four circle primitives for the rounded corners*
1,1,$1+$1,$2,$3*
1,1,$1+$1,$4,$5*
1,1,$1+$1,$6,$7*
1,1,$1+$1,$8,$9*
0 Add four rect primitives between the rounded corners*
20,1,$1+$1,$2,$3,$4,$5,0*
20,1,$1+$1,$4,$5,$6,$7,0*
20,1,$1+$1,$6,$7,$8,$9,0*
20,1,$1+$1,$8,$9,$2,$3,0*%
G04 Aperture macros list end*
%TA.AperFunction,HeatsinkPad*%
%ADD10C,0.500000*%
%TD*%
%TA.AperFunction,HeatsinkPad*%
%ADD11R,1.900000X2.900000*%
%TD*%
%TA.AperFunction,ComponentPad*%
%ADD12C,0.600000*%
%TD*%
%TA.AperFunction,SMDPad,CuDef*%
%ADD13R,2.950000X4.500000*%
%TD*%
%TA.AperFunction,ComponentPad*%
%ADD14C,2.000000*%
%TD*%
%TA.AperFunction,ComponentPad*%
%ADD15O,2.000000X2.000000*%
%TD*%
%TA.AperFunction,ComponentPad*%
%ADD16RoundRect,0.250000X-0.600000X-0.750000X0.600000X-0.750000X0.600000X0.750000X-0.600000X0.750000X0*%
%TD*%
%TA.AperFunction,ComponentPad*%
%ADD17O,1.700000X2.000000*%
%TD*%
%TA.AperFunction,ComponentPad*%
%ADD18R,1.700000X1.700000*%
%TD*%
%TA.AperFunction,ComponentPad*%
%ADD19O,1.700000X1.700000*%
%TD*%
G04 APERTURE END LIST*
D10*
%TO.P,U15,9,EPAD*%
%TO.N,GND*%
X76350000Y-97350000D03*
X76350000Y-98550000D03*
X76350000Y-99750000D03*
D11*
X77050000Y-98550000D03*
D10*
X77750000Y-97350000D03*
X77750000Y-98550000D03*
X77750000Y-99750000D03*
%TD*%
D12*
%TO.P,U6,9,GNDPAD*%
%TO.N,GND*%
X90600000Y-109655000D03*
X90600000Y-110855000D03*
X90600000Y-112155000D03*
X90600000Y-113255000D03*
D13*
X91200000Y-111455000D03*
D12*
X91800000Y-109655000D03*
X91800000Y-110855000D03*
X91800000Y-112155000D03*
X91800000Y-113255000D03*
%TD*%
D14*
%TO.P,L1,1,1*%
%TO.N,Net-(D1-K)*%
X89950000Y-105040000D03*
D15*
%TO.P,L1,2,2*%
%TO.N,/3V3 Out*%
X95030000Y-105040000D03*
%TD*%
D16*
%TO.P,J2,1,Pin_1*%
%TO.N,/V_Battery+*%
X89420000Y-76180000D03*
D17*
%TO.P,J2,2,Pin_2*%
%TO.N,/V_Battery-*%
X91920000Y-76180000D03*
%TD*%
D18*
%TO.P,J1,1,Pin_1*%
%TO.N,/Motor2_B_OUT*%
X65790000Y-75880000D03*
D19*
%TO.P,J1,2,Pin_2*%
%TO.N,/Motor2_A_OUT*%
X63250000Y-75880000D03*
%TO.P,J1,3,Pin_3*%
%TO.N,/Motor4_A_OUT*%
X65790000Y-78420000D03*
%TO.P,J1,4,Pin_4*%
%TO.N,/MOTOR2_CTRL1*%
X63250000Y-78420000D03*
%TO.P,J1,5,Pin_5*%
%TO.N,/Motor4_B_OUT*%
X65790000Y-80960000D03*
%TO.P,J1,6,Pin_6*%
%TO.N,/MOTOR2_CTRL2*%
X63250000Y-80960000D03*
%TO.P,J1,7,Pin_7*%
%TO.N,/CTRL_EXT_LOAD2*%
X65790000Y-83500000D03*
%TO.P,J1,8,Pin_8*%
%TO.N,/MOTOR4_CTRL1*%
X63250000Y-83500000D03*
%TO.P,J1,9,Pin_9*%
%TO.N,unconnected-(J1-Pin_9-Pad9)*%
X65790000Y-86040000D03*
%TO.P,J1,10,Pin_10*%
%TO.N,/MOTOR4_CTRL2*%
X63250000Y-86040000D03*
%TO.P,J1,11,Pin_11*%
%TO.N,/EXT_LOAD2_OUT*%
X65790000Y-88580000D03*
%TO.P,J1,12,Pin_12*%
%TO.N,unconnected-(J1-Pin_12-Pad12)*%
X63250000Y-88580000D03*
%TO.P,J1,13,Pin_13*%
%TO.N,/FAST_CHARGE_CTRL*%
X65790000Y-91120000D03*
%TO.P,J1,14,Pin_14*%
%TO.N,/V_Battery+*%
X63250000Y-91120000D03*
%TO.P,J1,15,Pin_15*%
%TO.N,unconnected-(J1-Pin_15-Pad15)*%
X65790000Y-93660000D03*
%TO.P,J1,16,Pin_16*%
%TO.N,/SCLK_INA219*%
X63250000Y-93660000D03*
%TO.P,J1,17,Pin_17*%
%TO.N,/SDA_INA219*%
X65790000Y-96200000D03*
%TO.P,J1,18,Pin_18*%
%TO.N,/3V3 Out*%
X63250000Y-96200000D03*
%TO.P,J1,19,Pin_19*%
%TO.N,GND*%
X65790000Y-98740000D03*
%TO.P,J1,20,Pin_20*%
%TO.N,/5V Out*%
X63250000Y-98740000D03*
%TO.P,J1,21,Pin_21*%
%TO.N,/EXT_LOAD1_OUT*%
X65790000Y-101280000D03*
%TO.P,J1,22,Pin_22*%
%TO.N,/HV*%
X63250000Y-101280000D03*
%TO.P,J1,23,Pin_23*%
%TO.N,GND*%
X65790000Y-103820000D03*
%TO.P,J1,24,Pin_24*%
%TO.N,/MOTOR3_CTRL1*%
X63250000Y-103820000D03*
%TO.P,J1,25,Pin_25*%
%TO.N,/CTRL_EXT_LOAD1*%
X65790000Y-106360000D03*
%TO.P,J1,26,Pin_26*%
%TO.N,/MOTOR3_CTRL2*%
X63250000Y-106360000D03*
%TO.P,J1,27,Pin_27*%
%TO.N,/MOTOR3_A_OUT*%
X65790000Y-108900000D03*
%TO.P,J1,28,Pin_28*%
%TO.N,/MOTOR1_CTRL1*%
X63250000Y-108900000D03*
%TO.P,J1,29,Pin_29*%
%TO.N,/MOTOR3_B_OUT*%
X65790000Y-111440000D03*
%TO.P,J1,30,Pin_30*%
%TO.N,/MOTOR1_CTRL2*%
X63250000Y-111440000D03*
%TO.P,J1,31,Pin_31*%
%TO.N,/MOTOR1_B_OUT*%
X65790000Y-113980000D03*
%TO.P,J1,32,Pin_32*%
%TO.N,/MOTOR1_A_OUT*%
X63250000Y-113980000D03*
%TD*%
M02*
