%TF.GenerationSoftware,KiCad,Pcbnew,9.0.0*%
%TF.CreationDate,2025-03-28T12:28:05+02:00*%
%TF.ProjectId,EEE3088F Micromouse Design,45454533-3038-4384-9620-4d6963726f6d,rev?*%
%TF.SameCoordinates,Original*%
%TF.FileFunction,Soldermask,Bot*%
%TF.FilePolarity,Negative*%
%FSLAX46Y46*%
G04 Gerber Fmt 4.6, Leading zero omitted, Abs format (unit mm)*
G04 Created by KiCad (PCBNEW 9.0.0) date 2025-03-28 12:28:05*
%MOMM*%
%LPD*%
G01*
G04 APERTURE LIST*
G04 Aperture macros list*
%AMRoundRect*
0 Rectangle with rounded corners*
0 $1 Rounding radius*
0 $2 $3 $4 $5 $6 $7 $8 $9 X,Y pos of 4 corners*
0 Add a 4 corners polygon primitive as box body*
4,1,4,$2,$3,$4,$5,$6,$7,$8,$9,$2,$3,0*
0 Add four circle primitives for the rounded corners*
1,1,$1+$1,$2,$3*
1,1,$1+$1,$4,$5*
1,1,$1+$1,$6,$7*
1,1,$1+$1,$8,$9*
0 Add four rect primitives between the rounded corners*
20,1,$1+$1,$2,$3,$4,$5,0*
20,1,$1+$1,$4,$5,$6,$7,0*
20,1,$1+$1,$6,$7,$8,$9,0*
20,1,$1+$1,$8,$9,$2,$3,0*%
G04 Aperture macros list end*
%ADD10RoundRect,0.250000X-0.625000X0.350000X-0.625000X-0.350000X0.625000X-0.350000X0.625000X0.350000X0*%
%ADD11O,1.750000X1.200000*%
%ADD12R,2.000000X3.000000*%
%ADD13R,1.700000X1.700000*%
%ADD14O,1.700000X1.700000*%
%ADD15C,0.600000*%
%ADD16O,0.900000X2.000000*%
%ADD17O,0.900000X1.700000*%
G04 APERTURE END LIST*
D10*
%TO.C,J2*%
X64816000Y-105464000D03*
D11*
X64816000Y-107464000D03*
%TD*%
D12*
%TO.C,SW1*%
X66106000Y-80774000D03*
X70906000Y-80774000D03*
X75706000Y-80774000D03*
%TD*%
D13*
%TO.C,J1*%
X76836000Y-90144000D03*
D14*
X74296000Y-90144000D03*
X76836000Y-92684000D03*
X74296000Y-92684000D03*
X76836000Y-95224000D03*
X74296000Y-95224000D03*
X76836000Y-97764000D03*
X74296000Y-97764000D03*
X76836000Y-100304000D03*
X74296000Y-100304000D03*
X76836000Y-102844000D03*
X74296000Y-102844000D03*
X76836000Y-105384000D03*
X74296000Y-105384000D03*
X76836000Y-107924000D03*
X74296000Y-107924000D03*
X76836000Y-110464000D03*
X74296000Y-110464000D03*
X76836000Y-113004000D03*
X74296000Y-113004000D03*
X76836000Y-115544000D03*
X74296000Y-115544000D03*
X76836000Y-118084000D03*
X74296000Y-118084000D03*
X76836000Y-120624000D03*
X74296000Y-120624000D03*
X76836000Y-123164000D03*
X74296000Y-123164000D03*
X76836000Y-125704000D03*
X74296000Y-125704000D03*
X76836000Y-128244000D03*
X74296000Y-128244000D03*
%TD*%
D15*
%TO.C,J3*%
X117416000Y-141294000D03*
X123196000Y-141294000D03*
D16*
X115981000Y-140804000D03*
X124631000Y-140804000D03*
D17*
X115981000Y-144974000D03*
X124631000Y-144974000D03*
%TD*%
M02*
