%TF.GenerationSoftware,KiCad,Pcbnew,9.0.0*%
%TF.CreationDate,2025-03-22T02:35:01+02:00*%
%TF.ProjectId,EEE3088F Micromouse Design,45454533-3038-4384-9620-4d6963726f6d,rev?*%
%TF.SameCoordinates,Original*%
%TF.FileFunction,Legend,Top*%
%TF.FilePolarity,Positive*%
%FSLAX46Y46*%
G04 Gerber Fmt 4.6, Leading zero omitted, Abs format (unit mm)*
G04 Created by KiCad (PCBNEW 9.0.0) date 2025-03-22 02:35:01*
%MOMM*%
%LPD*%
G01*
G04 APERTURE LIST*
G04 Aperture macros list*
%AMRoundRect*
0 Rectangle with rounded corners*
0 $1 Rounding radius*
0 $2 $3 $4 $5 $6 $7 $8 $9 X,Y pos of 4 corners*
0 Add a 4 corners polygon primitive as box body*
4,1,4,$2,$3,$4,$5,$6,$7,$8,$9,$2,$3,0*
0 Add four circle primitives for the rounded corners*
1,1,$1+$1,$2,$3*
1,1,$1+$1,$4,$5*
1,1,$1+$1,$6,$7*
1,1,$1+$1,$8,$9*
0 Add four rect primitives between the rounded corners*
20,1,$1+$1,$2,$3,$4,$5,0*
20,1,$1+$1,$4,$5,$6,$7,0*
20,1,$1+$1,$6,$7,$8,$9,0*
20,1,$1+$1,$8,$9,$2,$3,0*%
G04 Aperture macros list end*
%ADD10C,0.150000*%
%ADD11C,0.120000*%
%ADD12RoundRect,0.250000X-0.400000X-0.625000X0.400000X-0.625000X0.400000X0.625000X-0.400000X0.625000X0*%
%ADD13R,1.700000X1.700000*%
%ADD14O,1.700000X1.700000*%
%ADD15RoundRect,0.150000X-0.825000X-0.150000X0.825000X-0.150000X0.825000X0.150000X-0.825000X0.150000X0*%
%ADD16RoundRect,0.250000X0.600000X0.750000X-0.600000X0.750000X-0.600000X-0.750000X0.600000X-0.750000X0*%
%ADD17O,1.700000X2.000000*%
G04 APERTURE END LIST*
D10*
X108393333Y-85034819D02*
X108060000Y-84558628D01*
X107821905Y-85034819D02*
X107821905Y-84034819D01*
X107821905Y-84034819D02*
X108202857Y-84034819D01*
X108202857Y-84034819D02*
X108298095Y-84082438D01*
X108298095Y-84082438D02*
X108345714Y-84130057D01*
X108345714Y-84130057D02*
X108393333Y-84225295D01*
X108393333Y-84225295D02*
X108393333Y-84368152D01*
X108393333Y-84368152D02*
X108345714Y-84463390D01*
X108345714Y-84463390D02*
X108298095Y-84511009D01*
X108298095Y-84511009D02*
X108202857Y-84558628D01*
X108202857Y-84558628D02*
X107821905Y-84558628D01*
X109345714Y-85034819D02*
X108774286Y-85034819D01*
X109060000Y-85034819D02*
X109060000Y-84034819D01*
X109060000Y-84034819D02*
X108964762Y-84177676D01*
X108964762Y-84177676D02*
X108869524Y-84272914D01*
X108869524Y-84272914D02*
X108774286Y-84320533D01*
X101696666Y-71464819D02*
X101696666Y-72179104D01*
X101696666Y-72179104D02*
X101649047Y-72321961D01*
X101649047Y-72321961D02*
X101553809Y-72417200D01*
X101553809Y-72417200D02*
X101410952Y-72464819D01*
X101410952Y-72464819D02*
X101315714Y-72464819D01*
X102696666Y-72464819D02*
X102125238Y-72464819D01*
X102410952Y-72464819D02*
X102410952Y-71464819D01*
X102410952Y-71464819D02*
X102315714Y-71607676D01*
X102315714Y-71607676D02*
X102220476Y-71702914D01*
X102220476Y-71702914D02*
X102125238Y-71750533D01*
X109048095Y-77584819D02*
X109048095Y-78394342D01*
X109048095Y-78394342D02*
X109095714Y-78489580D01*
X109095714Y-78489580D02*
X109143333Y-78537200D01*
X109143333Y-78537200D02*
X109238571Y-78584819D01*
X109238571Y-78584819D02*
X109429047Y-78584819D01*
X109429047Y-78584819D02*
X109524285Y-78537200D01*
X109524285Y-78537200D02*
X109571904Y-78489580D01*
X109571904Y-78489580D02*
X109619523Y-78394342D01*
X109619523Y-78394342D02*
X109619523Y-77584819D01*
X110619523Y-78584819D02*
X110048095Y-78584819D01*
X110333809Y-78584819D02*
X110333809Y-77584819D01*
X110333809Y-77584819D02*
X110238571Y-77727676D01*
X110238571Y-77727676D02*
X110143333Y-77822914D01*
X110143333Y-77822914D02*
X110048095Y-77870533D01*
X109626666Y-96234819D02*
X109626666Y-96949104D01*
X109626666Y-96949104D02*
X109579047Y-97091961D01*
X109579047Y-97091961D02*
X109483809Y-97187200D01*
X109483809Y-97187200D02*
X109340952Y-97234819D01*
X109340952Y-97234819D02*
X109245714Y-97234819D01*
X110055238Y-96330057D02*
X110102857Y-96282438D01*
X110102857Y-96282438D02*
X110198095Y-96234819D01*
X110198095Y-96234819D02*
X110436190Y-96234819D01*
X110436190Y-96234819D02*
X110531428Y-96282438D01*
X110531428Y-96282438D02*
X110579047Y-96330057D01*
X110579047Y-96330057D02*
X110626666Y-96425295D01*
X110626666Y-96425295D02*
X110626666Y-96520533D01*
X110626666Y-96520533D02*
X110579047Y-96663390D01*
X110579047Y-96663390D02*
X110007619Y-97234819D01*
X110007619Y-97234819D02*
X110626666Y-97234819D01*
D11*
%TO.C,R1*%
X107832936Y-85490000D02*
X109287064Y-85490000D01*
X107832936Y-87310000D02*
X109287064Y-87310000D01*
%TO.C,J1*%
X99430000Y-73450000D02*
X99430000Y-114210000D01*
X99430000Y-73450000D02*
X102030000Y-73450000D01*
X99430000Y-114210000D02*
X104630000Y-114210000D01*
X102030000Y-73450000D02*
X102030000Y-76050000D01*
X102030000Y-76050000D02*
X104630000Y-76050000D01*
X103300000Y-73450000D02*
X104630000Y-73450000D01*
X104630000Y-73450000D02*
X104630000Y-74780000D01*
X104630000Y-76050000D02*
X104630000Y-114210000D01*
%TO.C,U1*%
X109810000Y-78970000D02*
X106360000Y-78970000D01*
X109810000Y-78970000D02*
X111760000Y-78970000D01*
X109810000Y-84090000D02*
X107860000Y-84090000D01*
X109810000Y-84090000D02*
X111760000Y-84090000D01*
%TO.C,J2*%
X114120000Y-93870000D02*
X114120000Y-91370000D01*
X114120000Y-91370000D02*
X111620000Y-91370000D01*
X113820000Y-95690000D02*
X113820000Y-91670000D01*
X113820000Y-93980000D02*
X113320000Y-93980000D01*
X113820000Y-93170000D02*
X112820000Y-93170000D01*
X113820000Y-91670000D02*
X106100000Y-91670000D01*
X113320000Y-95190000D02*
X106600000Y-95190000D01*
X113320000Y-93980000D02*
X113320000Y-95190000D01*
X112820000Y-93170000D02*
X112820000Y-91670000D01*
X107100000Y-93170000D02*
X107100000Y-91670000D01*
X106600000Y-95190000D02*
X106600000Y-93980000D01*
X106600000Y-93980000D02*
X106100000Y-93980000D01*
X106100000Y-95690000D02*
X113820000Y-95690000D01*
X106100000Y-93170000D02*
X107100000Y-93170000D01*
X106100000Y-91670000D02*
X106100000Y-95690000D01*
%TD*%
%LPC*%
D12*
%TO.C,R1*%
X107010000Y-86400000D03*
X110110000Y-86400000D03*
%TD*%
D13*
%TO.C,J1*%
X103300000Y-74780000D03*
D14*
X100760000Y-74780000D03*
X103300000Y-77320000D03*
X100760000Y-77320000D03*
X103300000Y-79860000D03*
X100760000Y-79860000D03*
X103300000Y-82400000D03*
X100760000Y-82400000D03*
X103300000Y-84940000D03*
X100760000Y-84940000D03*
X103300000Y-87480000D03*
X100760000Y-87480000D03*
X103300000Y-90020000D03*
X100760000Y-90020000D03*
X103300000Y-92560000D03*
X100760000Y-92560000D03*
X103300000Y-95100000D03*
X100760000Y-95100000D03*
X103300000Y-97640000D03*
X100760000Y-97640000D03*
X103300000Y-100180000D03*
X100760000Y-100180000D03*
X103300000Y-102720000D03*
X100760000Y-102720000D03*
X103300000Y-105260000D03*
X100760000Y-105260000D03*
X103300000Y-107800000D03*
X100760000Y-107800000D03*
X103300000Y-110340000D03*
X100760000Y-110340000D03*
X103300000Y-112880000D03*
X100760000Y-112880000D03*
%TD*%
D15*
%TO.C,U1*%
X107335000Y-79625000D03*
X107335000Y-80895000D03*
X107335000Y-82165000D03*
X107335000Y-83435000D03*
X112285000Y-83435000D03*
X112285000Y-82165000D03*
X112285000Y-80895000D03*
X112285000Y-79625000D03*
%TD*%
D16*
%TO.C,J2*%
X111210000Y-93980000D03*
D17*
X108710000Y-93980000D03*
%TD*%
%LPD*%
M02*
