%TF.GenerationSoftware,KiCad,Pcbnew,9.0.0*%
%TF.CreationDate,2025-03-23T19:49:56+02:00*%
%TF.ProjectId,EEE3088F Micromouse Design,45454533-3038-4384-9620-4d6963726f6d,rev?*%
%TF.SameCoordinates,Original*%
%TF.FileFunction,Copper,L1,Top*%
%TF.FilePolarity,Positive*%
%FSLAX46Y46*%
G04 Gerber Fmt 4.6, Leading zero omitted, Abs format (unit mm)*
G04 Created by KiCad (PCBNEW 9.0.0) date 2025-03-23 19:49:56*
%MOMM*%
%LPD*%
G01*
G04 APERTURE LIST*
G04 Aperture macros list*
%AMRoundRect*
0 Rectangle with rounded corners*
0 $1 Rounding radius*
0 $2 $3 $4 $5 $6 $7 $8 $9 X,Y pos of 4 corners*
0 Add a 4 corners polygon primitive as box body*
4,1,4,$2,$3,$4,$5,$6,$7,$8,$9,$2,$3,0*
0 Add four circle primitives for the rounded corners*
1,1,$1+$1,$2,$3*
1,1,$1+$1,$4,$5*
1,1,$1+$1,$6,$7*
1,1,$1+$1,$8,$9*
0 Add four rect primitives between the rounded corners*
20,1,$1+$1,$2,$3,$4,$5,0*
20,1,$1+$1,$4,$5,$6,$7,0*
20,1,$1+$1,$6,$7,$8,$9,0*
20,1,$1+$1,$8,$9,$2,$3,0*%
G04 Aperture macros list end*
%TA.AperFunction,SMDPad,CuDef*%
%ADD10RoundRect,0.155000X-0.212500X-0.155000X0.212500X-0.155000X0.212500X0.155000X-0.212500X0.155000X0*%
%TD*%
%TA.AperFunction,SMDPad,CuDef*%
%ADD11RoundRect,0.250000X-0.400000X-0.625000X0.400000X-0.625000X0.400000X0.625000X-0.400000X0.625000X0*%
%TD*%
%TA.AperFunction,SMDPad,CuDef*%
%ADD12RoundRect,0.062500X-0.187500X-0.062500X0.187500X-0.062500X0.187500X0.062500X-0.187500X0.062500X0*%
%TD*%
%TA.AperFunction,SMDPad,CuDef*%
%ADD13R,0.900000X1.600000*%
%TD*%
%TA.AperFunction,ComponentPad*%
%ADD14R,1.700000X1.700000*%
%TD*%
%TA.AperFunction,ComponentPad*%
%ADD15O,1.700000X1.700000*%
%TD*%
%TA.AperFunction,SMDPad,CuDef*%
%ADD16RoundRect,0.150000X-0.825000X-0.150000X0.825000X-0.150000X0.825000X0.150000X-0.825000X0.150000X0*%
%TD*%
%TA.AperFunction,ComponentPad*%
%ADD17RoundRect,0.250000X0.600000X0.750000X-0.600000X0.750000X-0.600000X-0.750000X0.600000X-0.750000X0*%
%TD*%
%TA.AperFunction,ComponentPad*%
%ADD18O,1.700000X2.000000*%
%TD*%
G04 APERTURE END LIST*
D10*
%TO.P,C9,1*%
%TO.N,/Motor_H_Supply*%
X89655000Y-86500000D03*
%TO.P,C9,2*%
%TO.N,GND*%
X90790000Y-86500000D03*
%TD*%
%TO.P,C7,1*%
%TO.N,GND*%
X89655000Y-82560000D03*
%TO.P,C7,2*%
%TO.N,/3.3V Regulated*%
X90790000Y-82560000D03*
%TD*%
%TO.P,C5,1*%
%TO.N,/5V Out*%
X86445000Y-86500000D03*
%TO.P,C5,2*%
%TO.N,GND*%
X87580000Y-86500000D03*
%TD*%
D11*
%TO.P,R1,1*%
%TO.N,/Vcc*%
X107010000Y-86400000D03*
%TO.P,R1,2*%
%TO.N,/V_Battery+*%
X110110000Y-86400000D03*
%TD*%
D10*
%TO.P,C12,1*%
%TO.N,/Motor_H_Supply*%
X92865000Y-84530000D03*
%TO.P,C12,2*%
%TO.N,GND*%
X94000000Y-84530000D03*
%TD*%
D12*
%TO.P,U2,1,VM*%
%TO.N,/3.3V Regulated*%
X90550000Y-111350000D03*
%TO.P,U2,2,OUT1*%
%TO.N,/MOTOR1_A_OUT*%
X90550000Y-111850000D03*
%TO.P,U2,3,OUT2*%
%TO.N,/MOTOR1_B_OUT*%
X90550000Y-112350000D03*
%TO.P,U2,4,GND*%
%TO.N,GND*%
X90550000Y-112850000D03*
%TO.P,U2,5,IN2*%
%TO.N,/MOTOR1_CTRL2*%
X92450000Y-112850000D03*
%TO.P,U2,6,IN1*%
%TO.N,/MOTOR1_CTRL1*%
X92450000Y-112350000D03*
%TO.P,U2,7,~{SLEEP}*%
%TO.N,/5V Out*%
X92450000Y-111850000D03*
%TO.P,U2,8,VCC*%
%TO.N,GND*%
X92450000Y-111350000D03*
D13*
%TO.P,U2,9,GND*%
X91500000Y-112100000D03*
%TD*%
D10*
%TO.P,C4,1*%
%TO.N,GND*%
X86445000Y-84530000D03*
%TO.P,C4,2*%
%TO.N,/3.3V Regulated*%
X87580000Y-84530000D03*
%TD*%
%TO.P,C6,1*%
%TO.N,/Motor_H_Supply*%
X86932500Y-76000000D03*
%TO.P,C6,2*%
%TO.N,GND*%
X88067500Y-76000000D03*
%TD*%
%TO.P,C3,1*%
%TO.N,/5V Out*%
X86445000Y-82560000D03*
%TO.P,C3,2*%
%TO.N,GND*%
X87580000Y-82560000D03*
%TD*%
D12*
%TO.P,U3,1,VM*%
%TO.N,/3.3V Regulated*%
X94550000Y-71850000D03*
%TO.P,U3,2,OUT1*%
%TO.N,/Motor2_A_OUT*%
X94550000Y-72350000D03*
%TO.P,U3,3,OUT2*%
%TO.N,/Motor2_B_OUT*%
X94550000Y-72850000D03*
%TO.P,U3,4,GND*%
%TO.N,GND*%
X94550000Y-73350000D03*
%TO.P,U3,5,IN2*%
%TO.N,/MOTOR2_CTRL2*%
X96450000Y-73350000D03*
%TO.P,U3,6,IN1*%
%TO.N,/MOTOR2_CTRL1*%
X96450000Y-72850000D03*
%TO.P,U3,7,~{SLEEP}*%
%TO.N,/5V Out*%
X96450000Y-72350000D03*
%TO.P,U3,8,VCC*%
%TO.N,GND*%
X96450000Y-71850000D03*
D13*
%TO.P,U3,9,GND*%
X95500000Y-72600000D03*
%TD*%
D14*
%TO.P,J1,1,Pin_1*%
%TO.N,/Motor2_B_OUT*%
X103300000Y-74780000D03*
D15*
%TO.P,J1,2,Pin_2*%
%TO.N,/Motor2_A_OUT*%
X100760000Y-74780000D03*
%TO.P,J1,3,Pin_3*%
%TO.N,/Motor4_A_OUT*%
X103300000Y-77320000D03*
%TO.P,J1,4,Pin_4*%
%TO.N,/MOTOR2_CTRL1*%
X100760000Y-77320000D03*
%TO.P,J1,5,Pin_5*%
%TO.N,/Motor4_B_OUT*%
X103300000Y-79860000D03*
%TO.P,J1,6,Pin_6*%
%TO.N,/MOTOR2_CTRL2*%
X100760000Y-79860000D03*
%TO.P,J1,7,Pin_7*%
%TO.N,unconnected-(J1-Pin_7-Pad7)*%
X103300000Y-82400000D03*
%TO.P,J1,8,Pin_8*%
%TO.N,/MOTOR4_CTRL1*%
X100760000Y-82400000D03*
%TO.P,J1,9,Pin_9*%
%TO.N,unconnected-(J1-Pin_9-Pad9)*%
X103300000Y-84940000D03*
%TO.P,J1,10,Pin_10*%
%TO.N,/MOTOR4_CTRL2*%
X100760000Y-84940000D03*
%TO.P,J1,11,Pin_11*%
%TO.N,unconnected-(J1-Pin_11-Pad11)*%
X103300000Y-87480000D03*
%TO.P,J1,12,Pin_12*%
%TO.N,unconnected-(J1-Pin_12-Pad12)*%
X100760000Y-87480000D03*
%TO.P,J1,13,Pin_13*%
%TO.N,unconnected-(J1-Pin_13-Pad13)*%
X103300000Y-90020000D03*
%TO.P,J1,14,Pin_14*%
%TO.N,unconnected-(J1-Pin_14-Pad14)*%
X100760000Y-90020000D03*
%TO.P,J1,15,Pin_15*%
%TO.N,unconnected-(J1-Pin_15-Pad15)*%
X103300000Y-92560000D03*
%TO.P,J1,16,Pin_16*%
%TO.N,/SCLK_INA219*%
X100760000Y-92560000D03*
%TO.P,J1,17,Pin_17*%
%TO.N,/SDA_INA219*%
X103300000Y-95100000D03*
%TO.P,J1,18,Pin_18*%
%TO.N,unconnected-(J1-Pin_18-Pad18)*%
X100760000Y-95100000D03*
%TO.P,J1,19,Pin_19*%
%TO.N,unconnected-(J1-Pin_19-Pad19)*%
X103300000Y-97640000D03*
%TO.P,J1,20,Pin_20*%
%TO.N,/5V Out*%
X100760000Y-97640000D03*
%TO.P,J1,21,Pin_21*%
%TO.N,unconnected-(J1-Pin_21-Pad21)*%
X103300000Y-100180000D03*
%TO.P,J1,22,Pin_22*%
%TO.N,unconnected-(J1-Pin_22-Pad22)*%
X100760000Y-100180000D03*
%TO.P,J1,23,Pin_23*%
%TO.N,unconnected-(J1-Pin_23-Pad23)*%
X103300000Y-102720000D03*
%TO.P,J1,24,Pin_24*%
%TO.N,/MOTOR3_CTRL1*%
X100760000Y-102720000D03*
%TO.P,J1,25,Pin_25*%
%TO.N,unconnected-(J1-Pin_25-Pad25)*%
X103300000Y-105260000D03*
%TO.P,J1,26,Pin_26*%
%TO.N,/MOTOR3_CTRL2*%
X100760000Y-105260000D03*
%TO.P,J1,27,Pin_27*%
%TO.N,/MOTOR3_A_OUT*%
X103300000Y-107800000D03*
%TO.P,J1,28,Pin_28*%
%TO.N,/MOTOR1_CTRL1*%
X100760000Y-107800000D03*
%TO.P,J1,29,Pin_29*%
%TO.N,/MOTOR3_B_OUT*%
X103300000Y-110340000D03*
%TO.P,J1,30,Pin_30*%
%TO.N,/MOTOR1_CTRL2*%
X100760000Y-110340000D03*
%TO.P,J1,31,Pin_31*%
%TO.N,/MOTOR1_B_OUT*%
X103300000Y-112880000D03*
%TO.P,J1,32,Pin_32*%
%TO.N,/MOTOR1_A_OUT*%
X100760000Y-112880000D03*
%TD*%
D12*
%TO.P,U5,1,VM*%
%TO.N,/3.3V Regulated*%
X90050000Y-104850000D03*
%TO.P,U5,2,OUT1*%
%TO.N,/Motor4_A_OUT*%
X90050000Y-105350000D03*
%TO.P,U5,3,OUT2*%
%TO.N,/Motor4_B_OUT*%
X90050000Y-105850000D03*
%TO.P,U5,4,GND*%
%TO.N,GND*%
X90050000Y-106350000D03*
%TO.P,U5,5,IN2*%
%TO.N,/MOTOR4_CTRL2*%
X91950000Y-106350000D03*
%TO.P,U5,6,IN1*%
%TO.N,/MOTOR4_CTRL1*%
X91950000Y-105850000D03*
%TO.P,U5,7,~{SLEEP}*%
%TO.N,/5V Out*%
X91950000Y-105350000D03*
%TO.P,U5,8,VCC*%
%TO.N,GND*%
X91950000Y-104850000D03*
D13*
%TO.P,U5,9,GND*%
X91000000Y-105600000D03*
%TD*%
D10*
%TO.P,C8,1*%
%TO.N,/5V Out*%
X89655000Y-84530000D03*
%TO.P,C8,2*%
%TO.N,GND*%
X90790000Y-84530000D03*
%TD*%
%TO.P,C2,1*%
%TO.N,/Motor_H_Supply*%
X90932500Y-73500000D03*
%TO.P,C2,2*%
%TO.N,GND*%
X92067500Y-73500000D03*
%TD*%
D16*
%TO.P,U1,1,A1*%
%TO.N,/V_Battery+*%
X107335000Y-79625000D03*
%TO.P,U1,2,A0*%
%TO.N,/V_Battery-*%
X107335000Y-80895000D03*
%TO.P,U1,3,SDA*%
%TO.N,/SDA_INA219*%
X107335000Y-82165000D03*
%TO.P,U1,4,SCL*%
%TO.N,/SCLK_INA219*%
X107335000Y-83435000D03*
%TO.P,U1,5,VS*%
%TO.N,/V_Battery+*%
X112285000Y-83435000D03*
%TO.P,U1,6,GND*%
%TO.N,GND*%
X112285000Y-82165000D03*
%TO.P,U1,7,IN-*%
%TO.N,/Vcc*%
X112285000Y-80895000D03*
%TO.P,U1,8,IN+*%
%TO.N,/V_Battery+*%
X112285000Y-79625000D03*
%TD*%
D10*
%TO.P,C10,1*%
%TO.N,GND*%
X92865000Y-80590000D03*
%TO.P,C10,2*%
%TO.N,/3.3V Regulated*%
X94000000Y-80590000D03*
%TD*%
D17*
%TO.P,J2,1,Pin_1*%
%TO.N,/V_Battery+*%
X111210000Y-93980000D03*
D18*
%TO.P,J2,2,Pin_2*%
%TO.N,/V_Battery-*%
X108710000Y-93980000D03*
%TD*%
D10*
%TO.P,C13,1*%
%TO.N,GND*%
X92865000Y-86500000D03*
%TO.P,C13,2*%
%TO.N,/3.3V Regulated*%
X94000000Y-86500000D03*
%TD*%
%TO.P,C11,1*%
%TO.N,/5V Out*%
X92865000Y-82560000D03*
%TO.P,C11,2*%
%TO.N,GND*%
X94000000Y-82560000D03*
%TD*%
D12*
%TO.P,U4,1,VM*%
%TO.N,/3.3V Regulated*%
X109600000Y-104500000D03*
%TO.P,U4,2,OUT1*%
%TO.N,/MOTOR3_A_OUT*%
X109600000Y-105000000D03*
%TO.P,U4,3,OUT2*%
%TO.N,/MOTOR3_B_OUT*%
X109600000Y-105500000D03*
%TO.P,U4,4,GND*%
%TO.N,GND*%
X109600000Y-106000000D03*
%TO.P,U4,5,IN2*%
%TO.N,/MOTOR3_CTRL2*%
X111500000Y-106000000D03*
%TO.P,U4,6,IN1*%
%TO.N,/MOTOR3_CTRL1*%
X111500000Y-105500000D03*
%TO.P,U4,7,~{SLEEP}*%
%TO.N,/5V Out*%
X111500000Y-105000000D03*
%TO.P,U4,8,VCC*%
%TO.N,GND*%
X111500000Y-104500000D03*
D13*
%TO.P,U4,9,GND*%
X110550000Y-105250000D03*
%TD*%
M02*
