M48
; DRILL file {KiCad 9.0.0} date 2025-03-26T08:11:03+0200
; FORMAT={-:-/ absolute / inch / decimal}
; #@! TF.CreationDate,2025-03-26T08:11:03+02:00
; #@! TF.GenerationSoftware,Kicad,Pcbnew,9.0.0
; #@! TF.FileFunction,Plated,1,2,PTH
FMAT,2
INCH
; #@! TA.AperFunction,Plated,PTH,ComponentDrill
T1C0.0079
; #@! TA.AperFunction,Plated,PTH,ComponentDrill
T2C0.0118
; #@! TA.AperFunction,Plated,PTH,ComponentDrill
T3C0.0394
%
G90
G05
T1
X3.0059Y-3.8327
X3.0059Y-3.8799
X3.0059Y-3.9272
X3.061Y-3.8327
X3.061Y-3.8799
X3.061Y-3.9272
T2
X3.5669Y-4.3171
X3.5669Y-4.3644
X3.5669Y-4.4156
X3.5669Y-4.4589
X3.6142Y-4.3171
X3.6142Y-4.3644
X3.6142Y-4.4156
X3.6142Y-4.4589
T3
X2.4902Y-2.9874
X2.4902Y-3.0874
X2.4902Y-3.1874
X2.4902Y-3.2874
X2.4902Y-3.3874
X2.4902Y-3.4874
X2.4902Y-3.5874
X2.4902Y-3.6874
X2.4902Y-3.7874
X2.4902Y-3.8874
X2.4902Y-3.9874
X2.4902Y-4.0874
X2.4902Y-4.1874
X2.4902Y-4.2874
X2.4902Y-4.3874
X2.4902Y-4.4874
X2.5902Y-2.9874
X2.5902Y-3.0874
X2.5902Y-3.1874
X2.5902Y-3.2874
X2.5902Y-3.3874
X2.5902Y-3.4874
X2.5902Y-3.5874
X2.5902Y-3.6874
X2.5902Y-3.7874
X2.5902Y-3.8874
X2.5902Y-3.9874
X2.5902Y-4.0874
X2.5902Y-4.1874
X2.5902Y-4.2874
X2.5902Y-4.3874
X2.5902Y-4.4874
X3.5205Y-2.9992
X3.5413Y-4.1354
X3.6189Y-2.9992
X3.7413Y-4.1354
M30
