%TF.GenerationSoftware,KiCad,Pcbnew,9.0.0*%
%TF.CreationDate,2025-03-26T08:11:03+02:00*%
%TF.ProjectId,EEE3088F Micromouse Design,45454533-3038-4384-9620-4d6963726f6d,rev?*%
%TF.SameCoordinates,Original*%
%TF.FileFunction,Legend,Top*%
%TF.FilePolarity,Positive*%
%FSLAX46Y46*%
G04 Gerber Fmt 4.6, Leading zero omitted, Abs format (unit mm)*
G04 Created by KiCad (PCBNEW 9.0.0) date 2025-03-26 08:11:03*
%MOMM*%
%LPD*%
G01*
G04 APERTURE LIST*
G04 Aperture macros list*
%AMRoundRect*
0 Rectangle with rounded corners*
0 $1 Rounding radius*
0 $2 $3 $4 $5 $6 $7 $8 $9 X,Y pos of 4 corners*
0 Add a 4 corners polygon primitive as box body*
4,1,4,$2,$3,$4,$5,$6,$7,$8,$9,$2,$3,0*
0 Add four circle primitives for the rounded corners*
1,1,$1+$1,$2,$3*
1,1,$1+$1,$4,$5*
1,1,$1+$1,$6,$7*
1,1,$1+$1,$8,$9*
0 Add four rect primitives between the rounded corners*
20,1,$1+$1,$2,$3,$4,$5,0*
20,1,$1+$1,$4,$5,$6,$7,0*
20,1,$1+$1,$6,$7,$8,$9,0*
20,1,$1+$1,$8,$9,$2,$3,0*%
G04 Aperture macros list end*
%ADD10C,0.150000*%
%ADD11C,0.100000*%
%ADD12C,0.120000*%
%ADD13C,0.200000*%
%ADD14C,0.010000*%
%ADD15RoundRect,0.150000X-0.825000X-0.150000X0.825000X-0.150000X0.825000X0.150000X-0.825000X0.150000X0*%
%ADD16R,2.410000X3.300000*%
%ADD17RoundRect,0.100000X-0.637500X-0.100000X0.637500X-0.100000X0.637500X0.100000X-0.637500X0.100000X0*%
%ADD18RoundRect,0.150000X-0.687500X-0.150000X0.687500X-0.150000X0.687500X0.150000X-0.687500X0.150000X0*%
%ADD19R,2.100000X3.300000*%
%ADD20R,1.550000X0.600000*%
%ADD21R,2.600000X3.100000*%
%ADD22RoundRect,0.237500X-0.250000X-0.237500X0.250000X-0.237500X0.250000X0.237500X-0.250000X0.237500X0*%
%ADD23RoundRect,0.250000X-0.350000X-0.450000X0.350000X-0.450000X0.350000X0.450000X-0.350000X0.450000X0*%
%ADD24RoundRect,0.250000X-0.400000X-0.625000X0.400000X-0.625000X0.400000X0.625000X-0.400000X0.625000X0*%
%ADD25RoundRect,0.160000X-0.197500X-0.160000X0.197500X-0.160000X0.197500X0.160000X-0.197500X0.160000X0*%
%ADD26RoundRect,0.250000X-0.262500X-0.450000X0.262500X-0.450000X0.262500X0.450000X-0.262500X0.450000X0*%
%ADD27RoundRect,0.250000X-0.362500X-1.425000X0.362500X-1.425000X0.362500X1.425000X-0.362500X1.425000X0*%
%ADD28RoundRect,0.150000X-0.587500X-0.150000X0.587500X-0.150000X0.587500X0.150000X-0.587500X0.150000X0*%
%ADD29RoundRect,0.250001X-0.499999X-0.999999X0.499999X-0.999999X0.499999X0.999999X-0.499999X0.999999X0*%
%ADD30C,2.000000*%
%ADD31O,2.000000X2.000000*%
%ADD32RoundRect,0.250000X-0.600000X-0.750000X0.600000X-0.750000X0.600000X0.750000X-0.600000X0.750000X0*%
%ADD33O,1.700000X2.000000*%
%ADD34R,1.700000X1.700000*%
%ADD35O,1.700000X1.700000*%
%ADD36RoundRect,0.180000X-0.420000X-0.920000X0.420000X-0.920000X0.420000X0.920000X-0.420000X0.920000X0*%
%ADD37RoundRect,0.250000X-0.337500X-0.475000X0.337500X-0.475000X0.337500X0.475000X-0.337500X0.475000X0*%
%ADD38RoundRect,0.225000X-0.225000X-0.250000X0.225000X-0.250000X0.225000X0.250000X-0.225000X0.250000X0*%
%ADD39RoundRect,0.155000X-0.212500X-0.155000X0.212500X-0.155000X0.212500X0.155000X-0.212500X0.155000X0*%
%ADD40RoundRect,0.140000X-0.140000X-0.170000X0.140000X-0.170000X0.140000X0.170000X-0.140000X0.170000X0*%
%ADD41RoundRect,0.250000X-0.325000X-0.650000X0.325000X-0.650000X0.325000X0.650000X-0.325000X0.650000X0*%
%ADD42RoundRect,0.250000X-0.412500X-0.650000X0.412500X-0.650000X0.412500X0.650000X-0.412500X0.650000X0*%
%ADD43RoundRect,0.237500X-0.300000X-0.237500X0.300000X-0.237500X0.300000X0.237500X-0.300000X0.237500X0*%
G04 APERTURE END LIST*
D10*
X75811905Y-94604819D02*
X75811905Y-95414342D01*
X75811905Y-95414342D02*
X75859524Y-95509580D01*
X75859524Y-95509580D02*
X75907143Y-95557200D01*
X75907143Y-95557200D02*
X76002381Y-95604819D01*
X76002381Y-95604819D02*
X76192857Y-95604819D01*
X76192857Y-95604819D02*
X76288095Y-95557200D01*
X76288095Y-95557200D02*
X76335714Y-95509580D01*
X76335714Y-95509580D02*
X76383333Y-95414342D01*
X76383333Y-95414342D02*
X76383333Y-94604819D01*
X77383333Y-95604819D02*
X76811905Y-95604819D01*
X77097619Y-95604819D02*
X77097619Y-94604819D01*
X77097619Y-94604819D02*
X77002381Y-94747676D01*
X77002381Y-94747676D02*
X76907143Y-94842914D01*
X76907143Y-94842914D02*
X76811905Y-94890533D01*
X78288095Y-94604819D02*
X77811905Y-94604819D01*
X77811905Y-94604819D02*
X77764286Y-95081009D01*
X77764286Y-95081009D02*
X77811905Y-95033390D01*
X77811905Y-95033390D02*
X77907143Y-94985771D01*
X77907143Y-94985771D02*
X78145238Y-94985771D01*
X78145238Y-94985771D02*
X78240476Y-95033390D01*
X78240476Y-95033390D02*
X78288095Y-95081009D01*
X78288095Y-95081009D02*
X78335714Y-95176247D01*
X78335714Y-95176247D02*
X78335714Y-95414342D01*
X78335714Y-95414342D02*
X78288095Y-95509580D01*
X78288095Y-95509580D02*
X78240476Y-95557200D01*
X78240476Y-95557200D02*
X78145238Y-95604819D01*
X78145238Y-95604819D02*
X77907143Y-95604819D01*
X77907143Y-95604819D02*
X77811905Y-95557200D01*
X77811905Y-95557200D02*
X77764286Y-95509580D01*
X99144618Y-101581876D02*
X99144618Y-102099971D01*
X99144618Y-102099971D02*
X99175095Y-102160923D01*
X99175095Y-102160923D02*
X99205571Y-102191400D01*
X99205571Y-102191400D02*
X99266523Y-102221876D01*
X99266523Y-102221876D02*
X99388428Y-102221876D01*
X99388428Y-102221876D02*
X99449380Y-102191400D01*
X99449380Y-102191400D02*
X99479857Y-102160923D01*
X99479857Y-102160923D02*
X99510333Y-102099971D01*
X99510333Y-102099971D02*
X99510333Y-101581876D01*
X100150333Y-102221876D02*
X99784618Y-102221876D01*
X99967475Y-102221876D02*
X99967475Y-101581876D01*
X99967475Y-101581876D02*
X99906523Y-101673304D01*
X99906523Y-101673304D02*
X99845571Y-101734257D01*
X99845571Y-101734257D02*
X99784618Y-101764733D01*
X100363666Y-101581876D02*
X100759857Y-101581876D01*
X100759857Y-101581876D02*
X100546523Y-101825685D01*
X100546523Y-101825685D02*
X100637952Y-101825685D01*
X100637952Y-101825685D02*
X100698904Y-101856161D01*
X100698904Y-101856161D02*
X100729380Y-101886638D01*
X100729380Y-101886638D02*
X100759857Y-101947590D01*
X100759857Y-101947590D02*
X100759857Y-102099971D01*
X100759857Y-102099971D02*
X100729380Y-102160923D01*
X100729380Y-102160923D02*
X100698904Y-102191400D01*
X100698904Y-102191400D02*
X100637952Y-102221876D01*
X100637952Y-102221876D02*
X100455095Y-102221876D01*
X100455095Y-102221876D02*
X100394142Y-102191400D01*
X100394142Y-102191400D02*
X100363666Y-102160923D01*
X80286905Y-79444819D02*
X80286905Y-80254342D01*
X80286905Y-80254342D02*
X80334524Y-80349580D01*
X80334524Y-80349580D02*
X80382143Y-80397200D01*
X80382143Y-80397200D02*
X80477381Y-80444819D01*
X80477381Y-80444819D02*
X80667857Y-80444819D01*
X80667857Y-80444819D02*
X80763095Y-80397200D01*
X80763095Y-80397200D02*
X80810714Y-80349580D01*
X80810714Y-80349580D02*
X80858333Y-80254342D01*
X80858333Y-80254342D02*
X80858333Y-79444819D01*
X81858333Y-80444819D02*
X81286905Y-80444819D01*
X81572619Y-80444819D02*
X81572619Y-79444819D01*
X81572619Y-79444819D02*
X81477381Y-79587676D01*
X81477381Y-79587676D02*
X81382143Y-79682914D01*
X81382143Y-79682914D02*
X81286905Y-79730533D01*
X82239286Y-79540057D02*
X82286905Y-79492438D01*
X82286905Y-79492438D02*
X82382143Y-79444819D01*
X82382143Y-79444819D02*
X82620238Y-79444819D01*
X82620238Y-79444819D02*
X82715476Y-79492438D01*
X82715476Y-79492438D02*
X82763095Y-79540057D01*
X82763095Y-79540057D02*
X82810714Y-79635295D01*
X82810714Y-79635295D02*
X82810714Y-79730533D01*
X82810714Y-79730533D02*
X82763095Y-79873390D01*
X82763095Y-79873390D02*
X82191667Y-80444819D01*
X82191667Y-80444819D02*
X82810714Y-80444819D01*
X80286905Y-72854819D02*
X80286905Y-73664342D01*
X80286905Y-73664342D02*
X80334524Y-73759580D01*
X80334524Y-73759580D02*
X80382143Y-73807200D01*
X80382143Y-73807200D02*
X80477381Y-73854819D01*
X80477381Y-73854819D02*
X80667857Y-73854819D01*
X80667857Y-73854819D02*
X80763095Y-73807200D01*
X80763095Y-73807200D02*
X80810714Y-73759580D01*
X80810714Y-73759580D02*
X80858333Y-73664342D01*
X80858333Y-73664342D02*
X80858333Y-72854819D01*
X81858333Y-73854819D02*
X81286905Y-73854819D01*
X81572619Y-73854819D02*
X81572619Y-72854819D01*
X81572619Y-72854819D02*
X81477381Y-72997676D01*
X81477381Y-72997676D02*
X81382143Y-73092914D01*
X81382143Y-73092914D02*
X81286905Y-73140533D01*
X82810714Y-73854819D02*
X82239286Y-73854819D01*
X82525000Y-73854819D02*
X82525000Y-72854819D01*
X82525000Y-72854819D02*
X82429762Y-72997676D01*
X82429762Y-72997676D02*
X82334524Y-73092914D01*
X82334524Y-73092914D02*
X82239286Y-73140533D01*
X96418095Y-88119819D02*
X96418095Y-88929342D01*
X96418095Y-88929342D02*
X96465714Y-89024580D01*
X96465714Y-89024580D02*
X96513333Y-89072200D01*
X96513333Y-89072200D02*
X96608571Y-89119819D01*
X96608571Y-89119819D02*
X96799047Y-89119819D01*
X96799047Y-89119819D02*
X96894285Y-89072200D01*
X96894285Y-89072200D02*
X96941904Y-89024580D01*
X96941904Y-89024580D02*
X96989523Y-88929342D01*
X96989523Y-88929342D02*
X96989523Y-88119819D01*
X97513333Y-89119819D02*
X97703809Y-89119819D01*
X97703809Y-89119819D02*
X97799047Y-89072200D01*
X97799047Y-89072200D02*
X97846666Y-89024580D01*
X97846666Y-89024580D02*
X97941904Y-88881723D01*
X97941904Y-88881723D02*
X97989523Y-88691247D01*
X97989523Y-88691247D02*
X97989523Y-88310295D01*
X97989523Y-88310295D02*
X97941904Y-88215057D01*
X97941904Y-88215057D02*
X97894285Y-88167438D01*
X97894285Y-88167438D02*
X97799047Y-88119819D01*
X97799047Y-88119819D02*
X97608571Y-88119819D01*
X97608571Y-88119819D02*
X97513333Y-88167438D01*
X97513333Y-88167438D02*
X97465714Y-88215057D01*
X97465714Y-88215057D02*
X97418095Y-88310295D01*
X97418095Y-88310295D02*
X97418095Y-88548390D01*
X97418095Y-88548390D02*
X97465714Y-88643628D01*
X97465714Y-88643628D02*
X97513333Y-88691247D01*
X97513333Y-88691247D02*
X97608571Y-88738866D01*
X97608571Y-88738866D02*
X97799047Y-88738866D01*
X97799047Y-88738866D02*
X97894285Y-88691247D01*
X97894285Y-88691247D02*
X97941904Y-88643628D01*
X97941904Y-88643628D02*
X97989523Y-88548390D01*
X90438095Y-107409819D02*
X90438095Y-108219342D01*
X90438095Y-108219342D02*
X90485714Y-108314580D01*
X90485714Y-108314580D02*
X90533333Y-108362200D01*
X90533333Y-108362200D02*
X90628571Y-108409819D01*
X90628571Y-108409819D02*
X90819047Y-108409819D01*
X90819047Y-108409819D02*
X90914285Y-108362200D01*
X90914285Y-108362200D02*
X90961904Y-108314580D01*
X90961904Y-108314580D02*
X91009523Y-108219342D01*
X91009523Y-108219342D02*
X91009523Y-107409819D01*
X91914285Y-107409819D02*
X91723809Y-107409819D01*
X91723809Y-107409819D02*
X91628571Y-107457438D01*
X91628571Y-107457438D02*
X91580952Y-107505057D01*
X91580952Y-107505057D02*
X91485714Y-107647914D01*
X91485714Y-107647914D02*
X91438095Y-107838390D01*
X91438095Y-107838390D02*
X91438095Y-108219342D01*
X91438095Y-108219342D02*
X91485714Y-108314580D01*
X91485714Y-108314580D02*
X91533333Y-108362200D01*
X91533333Y-108362200D02*
X91628571Y-108409819D01*
X91628571Y-108409819D02*
X91819047Y-108409819D01*
X91819047Y-108409819D02*
X91914285Y-108362200D01*
X91914285Y-108362200D02*
X91961904Y-108314580D01*
X91961904Y-108314580D02*
X92009523Y-108219342D01*
X92009523Y-108219342D02*
X92009523Y-107981247D01*
X92009523Y-107981247D02*
X91961904Y-107886009D01*
X91961904Y-107886009D02*
X91914285Y-107838390D01*
X91914285Y-107838390D02*
X91819047Y-107790771D01*
X91819047Y-107790771D02*
X91628571Y-107790771D01*
X91628571Y-107790771D02*
X91533333Y-107838390D01*
X91533333Y-107838390D02*
X91485714Y-107886009D01*
X91485714Y-107886009D02*
X91438095Y-107981247D01*
X76288095Y-88024819D02*
X76288095Y-88834342D01*
X76288095Y-88834342D02*
X76335714Y-88929580D01*
X76335714Y-88929580D02*
X76383333Y-88977200D01*
X76383333Y-88977200D02*
X76478571Y-89024819D01*
X76478571Y-89024819D02*
X76669047Y-89024819D01*
X76669047Y-89024819D02*
X76764285Y-88977200D01*
X76764285Y-88977200D02*
X76811904Y-88929580D01*
X76811904Y-88929580D02*
X76859523Y-88834342D01*
X76859523Y-88834342D02*
X76859523Y-88024819D01*
X77859523Y-89024819D02*
X77288095Y-89024819D01*
X77573809Y-89024819D02*
X77573809Y-88024819D01*
X77573809Y-88024819D02*
X77478571Y-88167676D01*
X77478571Y-88167676D02*
X77383333Y-88262914D01*
X77383333Y-88262914D02*
X77288095Y-88310533D01*
X73957142Y-83874819D02*
X73623809Y-83398628D01*
X73385714Y-83874819D02*
X73385714Y-82874819D01*
X73385714Y-82874819D02*
X73766666Y-82874819D01*
X73766666Y-82874819D02*
X73861904Y-82922438D01*
X73861904Y-82922438D02*
X73909523Y-82970057D01*
X73909523Y-82970057D02*
X73957142Y-83065295D01*
X73957142Y-83065295D02*
X73957142Y-83208152D01*
X73957142Y-83208152D02*
X73909523Y-83303390D01*
X73909523Y-83303390D02*
X73861904Y-83351009D01*
X73861904Y-83351009D02*
X73766666Y-83398628D01*
X73766666Y-83398628D02*
X73385714Y-83398628D01*
X74290476Y-82874819D02*
X74909523Y-82874819D01*
X74909523Y-82874819D02*
X74576190Y-83255771D01*
X74576190Y-83255771D02*
X74719047Y-83255771D01*
X74719047Y-83255771D02*
X74814285Y-83303390D01*
X74814285Y-83303390D02*
X74861904Y-83351009D01*
X74861904Y-83351009D02*
X74909523Y-83446247D01*
X74909523Y-83446247D02*
X74909523Y-83684342D01*
X74909523Y-83684342D02*
X74861904Y-83779580D01*
X74861904Y-83779580D02*
X74814285Y-83827200D01*
X74814285Y-83827200D02*
X74719047Y-83874819D01*
X74719047Y-83874819D02*
X74433333Y-83874819D01*
X74433333Y-83874819D02*
X74338095Y-83827200D01*
X74338095Y-83827200D02*
X74290476Y-83779580D01*
X75766666Y-83208152D02*
X75766666Y-83874819D01*
X75528571Y-82827200D02*
X75290476Y-83541485D01*
X75290476Y-83541485D02*
X75909523Y-83541485D01*
X73957142Y-81364819D02*
X73623809Y-80888628D01*
X73385714Y-81364819D02*
X73385714Y-80364819D01*
X73385714Y-80364819D02*
X73766666Y-80364819D01*
X73766666Y-80364819D02*
X73861904Y-80412438D01*
X73861904Y-80412438D02*
X73909523Y-80460057D01*
X73909523Y-80460057D02*
X73957142Y-80555295D01*
X73957142Y-80555295D02*
X73957142Y-80698152D01*
X73957142Y-80698152D02*
X73909523Y-80793390D01*
X73909523Y-80793390D02*
X73861904Y-80841009D01*
X73861904Y-80841009D02*
X73766666Y-80888628D01*
X73766666Y-80888628D02*
X73385714Y-80888628D01*
X74290476Y-80364819D02*
X74909523Y-80364819D01*
X74909523Y-80364819D02*
X74576190Y-80745771D01*
X74576190Y-80745771D02*
X74719047Y-80745771D01*
X74719047Y-80745771D02*
X74814285Y-80793390D01*
X74814285Y-80793390D02*
X74861904Y-80841009D01*
X74861904Y-80841009D02*
X74909523Y-80936247D01*
X74909523Y-80936247D02*
X74909523Y-81174342D01*
X74909523Y-81174342D02*
X74861904Y-81269580D01*
X74861904Y-81269580D02*
X74814285Y-81317200D01*
X74814285Y-81317200D02*
X74719047Y-81364819D01*
X74719047Y-81364819D02*
X74433333Y-81364819D01*
X74433333Y-81364819D02*
X74338095Y-81317200D01*
X74338095Y-81317200D02*
X74290476Y-81269580D01*
X75242857Y-80364819D02*
X75861904Y-80364819D01*
X75861904Y-80364819D02*
X75528571Y-80745771D01*
X75528571Y-80745771D02*
X75671428Y-80745771D01*
X75671428Y-80745771D02*
X75766666Y-80793390D01*
X75766666Y-80793390D02*
X75814285Y-80841009D01*
X75814285Y-80841009D02*
X75861904Y-80936247D01*
X75861904Y-80936247D02*
X75861904Y-81174342D01*
X75861904Y-81174342D02*
X75814285Y-81269580D01*
X75814285Y-81269580D02*
X75766666Y-81317200D01*
X75766666Y-81317200D02*
X75671428Y-81364819D01*
X75671428Y-81364819D02*
X75385714Y-81364819D01*
X75385714Y-81364819D02*
X75290476Y-81317200D01*
X75290476Y-81317200D02*
X75242857Y-81269580D01*
X73957142Y-78854819D02*
X73623809Y-78378628D01*
X73385714Y-78854819D02*
X73385714Y-77854819D01*
X73385714Y-77854819D02*
X73766666Y-77854819D01*
X73766666Y-77854819D02*
X73861904Y-77902438D01*
X73861904Y-77902438D02*
X73909523Y-77950057D01*
X73909523Y-77950057D02*
X73957142Y-78045295D01*
X73957142Y-78045295D02*
X73957142Y-78188152D01*
X73957142Y-78188152D02*
X73909523Y-78283390D01*
X73909523Y-78283390D02*
X73861904Y-78331009D01*
X73861904Y-78331009D02*
X73766666Y-78378628D01*
X73766666Y-78378628D02*
X73385714Y-78378628D01*
X74290476Y-77854819D02*
X74909523Y-77854819D01*
X74909523Y-77854819D02*
X74576190Y-78235771D01*
X74576190Y-78235771D02*
X74719047Y-78235771D01*
X74719047Y-78235771D02*
X74814285Y-78283390D01*
X74814285Y-78283390D02*
X74861904Y-78331009D01*
X74861904Y-78331009D02*
X74909523Y-78426247D01*
X74909523Y-78426247D02*
X74909523Y-78664342D01*
X74909523Y-78664342D02*
X74861904Y-78759580D01*
X74861904Y-78759580D02*
X74814285Y-78807200D01*
X74814285Y-78807200D02*
X74719047Y-78854819D01*
X74719047Y-78854819D02*
X74433333Y-78854819D01*
X74433333Y-78854819D02*
X74338095Y-78807200D01*
X74338095Y-78807200D02*
X74290476Y-78759580D01*
X75290476Y-77950057D02*
X75338095Y-77902438D01*
X75338095Y-77902438D02*
X75433333Y-77854819D01*
X75433333Y-77854819D02*
X75671428Y-77854819D01*
X75671428Y-77854819D02*
X75766666Y-77902438D01*
X75766666Y-77902438D02*
X75814285Y-77950057D01*
X75814285Y-77950057D02*
X75861904Y-78045295D01*
X75861904Y-78045295D02*
X75861904Y-78140533D01*
X75861904Y-78140533D02*
X75814285Y-78283390D01*
X75814285Y-78283390D02*
X75242857Y-78854819D01*
X75242857Y-78854819D02*
X75861904Y-78854819D01*
X73957142Y-76344819D02*
X73623809Y-75868628D01*
X73385714Y-76344819D02*
X73385714Y-75344819D01*
X73385714Y-75344819D02*
X73766666Y-75344819D01*
X73766666Y-75344819D02*
X73861904Y-75392438D01*
X73861904Y-75392438D02*
X73909523Y-75440057D01*
X73909523Y-75440057D02*
X73957142Y-75535295D01*
X73957142Y-75535295D02*
X73957142Y-75678152D01*
X73957142Y-75678152D02*
X73909523Y-75773390D01*
X73909523Y-75773390D02*
X73861904Y-75821009D01*
X73861904Y-75821009D02*
X73766666Y-75868628D01*
X73766666Y-75868628D02*
X73385714Y-75868628D01*
X74290476Y-75344819D02*
X74909523Y-75344819D01*
X74909523Y-75344819D02*
X74576190Y-75725771D01*
X74576190Y-75725771D02*
X74719047Y-75725771D01*
X74719047Y-75725771D02*
X74814285Y-75773390D01*
X74814285Y-75773390D02*
X74861904Y-75821009D01*
X74861904Y-75821009D02*
X74909523Y-75916247D01*
X74909523Y-75916247D02*
X74909523Y-76154342D01*
X74909523Y-76154342D02*
X74861904Y-76249580D01*
X74861904Y-76249580D02*
X74814285Y-76297200D01*
X74814285Y-76297200D02*
X74719047Y-76344819D01*
X74719047Y-76344819D02*
X74433333Y-76344819D01*
X74433333Y-76344819D02*
X74338095Y-76297200D01*
X74338095Y-76297200D02*
X74290476Y-76249580D01*
X75861904Y-76344819D02*
X75290476Y-76344819D01*
X75576190Y-76344819D02*
X75576190Y-75344819D01*
X75576190Y-75344819D02*
X75480952Y-75487676D01*
X75480952Y-75487676D02*
X75385714Y-75582914D01*
X75385714Y-75582914D02*
X75290476Y-75630533D01*
X73957142Y-73834819D02*
X73623809Y-73358628D01*
X73385714Y-73834819D02*
X73385714Y-72834819D01*
X73385714Y-72834819D02*
X73766666Y-72834819D01*
X73766666Y-72834819D02*
X73861904Y-72882438D01*
X73861904Y-72882438D02*
X73909523Y-72930057D01*
X73909523Y-72930057D02*
X73957142Y-73025295D01*
X73957142Y-73025295D02*
X73957142Y-73168152D01*
X73957142Y-73168152D02*
X73909523Y-73263390D01*
X73909523Y-73263390D02*
X73861904Y-73311009D01*
X73861904Y-73311009D02*
X73766666Y-73358628D01*
X73766666Y-73358628D02*
X73385714Y-73358628D01*
X74290476Y-72834819D02*
X74909523Y-72834819D01*
X74909523Y-72834819D02*
X74576190Y-73215771D01*
X74576190Y-73215771D02*
X74719047Y-73215771D01*
X74719047Y-73215771D02*
X74814285Y-73263390D01*
X74814285Y-73263390D02*
X74861904Y-73311009D01*
X74861904Y-73311009D02*
X74909523Y-73406247D01*
X74909523Y-73406247D02*
X74909523Y-73644342D01*
X74909523Y-73644342D02*
X74861904Y-73739580D01*
X74861904Y-73739580D02*
X74814285Y-73787200D01*
X74814285Y-73787200D02*
X74719047Y-73834819D01*
X74719047Y-73834819D02*
X74433333Y-73834819D01*
X74433333Y-73834819D02*
X74338095Y-73787200D01*
X74338095Y-73787200D02*
X74290476Y-73739580D01*
X75528571Y-72834819D02*
X75623809Y-72834819D01*
X75623809Y-72834819D02*
X75719047Y-72882438D01*
X75719047Y-72882438D02*
X75766666Y-72930057D01*
X75766666Y-72930057D02*
X75814285Y-73025295D01*
X75814285Y-73025295D02*
X75861904Y-73215771D01*
X75861904Y-73215771D02*
X75861904Y-73453866D01*
X75861904Y-73453866D02*
X75814285Y-73644342D01*
X75814285Y-73644342D02*
X75766666Y-73739580D01*
X75766666Y-73739580D02*
X75719047Y-73787200D01*
X75719047Y-73787200D02*
X75623809Y-73834819D01*
X75623809Y-73834819D02*
X75528571Y-73834819D01*
X75528571Y-73834819D02*
X75433333Y-73787200D01*
X75433333Y-73787200D02*
X75385714Y-73739580D01*
X75385714Y-73739580D02*
X75338095Y-73644342D01*
X75338095Y-73644342D02*
X75290476Y-73453866D01*
X75290476Y-73453866D02*
X75290476Y-73215771D01*
X75290476Y-73215771D02*
X75338095Y-73025295D01*
X75338095Y-73025295D02*
X75385714Y-72930057D01*
X75385714Y-72930057D02*
X75433333Y-72882438D01*
X75433333Y-72882438D02*
X75528571Y-72834819D01*
X69607142Y-86384819D02*
X69273809Y-85908628D01*
X69035714Y-86384819D02*
X69035714Y-85384819D01*
X69035714Y-85384819D02*
X69416666Y-85384819D01*
X69416666Y-85384819D02*
X69511904Y-85432438D01*
X69511904Y-85432438D02*
X69559523Y-85480057D01*
X69559523Y-85480057D02*
X69607142Y-85575295D01*
X69607142Y-85575295D02*
X69607142Y-85718152D01*
X69607142Y-85718152D02*
X69559523Y-85813390D01*
X69559523Y-85813390D02*
X69511904Y-85861009D01*
X69511904Y-85861009D02*
X69416666Y-85908628D01*
X69416666Y-85908628D02*
X69035714Y-85908628D01*
X69988095Y-85480057D02*
X70035714Y-85432438D01*
X70035714Y-85432438D02*
X70130952Y-85384819D01*
X70130952Y-85384819D02*
X70369047Y-85384819D01*
X70369047Y-85384819D02*
X70464285Y-85432438D01*
X70464285Y-85432438D02*
X70511904Y-85480057D01*
X70511904Y-85480057D02*
X70559523Y-85575295D01*
X70559523Y-85575295D02*
X70559523Y-85670533D01*
X70559523Y-85670533D02*
X70511904Y-85813390D01*
X70511904Y-85813390D02*
X69940476Y-86384819D01*
X69940476Y-86384819D02*
X70559523Y-86384819D01*
X71035714Y-86384819D02*
X71226190Y-86384819D01*
X71226190Y-86384819D02*
X71321428Y-86337200D01*
X71321428Y-86337200D02*
X71369047Y-86289580D01*
X71369047Y-86289580D02*
X71464285Y-86146723D01*
X71464285Y-86146723D02*
X71511904Y-85956247D01*
X71511904Y-85956247D02*
X71511904Y-85575295D01*
X71511904Y-85575295D02*
X71464285Y-85480057D01*
X71464285Y-85480057D02*
X71416666Y-85432438D01*
X71416666Y-85432438D02*
X71321428Y-85384819D01*
X71321428Y-85384819D02*
X71130952Y-85384819D01*
X71130952Y-85384819D02*
X71035714Y-85432438D01*
X71035714Y-85432438D02*
X70988095Y-85480057D01*
X70988095Y-85480057D02*
X70940476Y-85575295D01*
X70940476Y-85575295D02*
X70940476Y-85813390D01*
X70940476Y-85813390D02*
X70988095Y-85908628D01*
X70988095Y-85908628D02*
X71035714Y-85956247D01*
X71035714Y-85956247D02*
X71130952Y-86003866D01*
X71130952Y-86003866D02*
X71321428Y-86003866D01*
X71321428Y-86003866D02*
X71416666Y-85956247D01*
X71416666Y-85956247D02*
X71464285Y-85908628D01*
X71464285Y-85908628D02*
X71511904Y-85813390D01*
X69807142Y-109544819D02*
X69473809Y-109068628D01*
X69235714Y-109544819D02*
X69235714Y-108544819D01*
X69235714Y-108544819D02*
X69616666Y-108544819D01*
X69616666Y-108544819D02*
X69711904Y-108592438D01*
X69711904Y-108592438D02*
X69759523Y-108640057D01*
X69759523Y-108640057D02*
X69807142Y-108735295D01*
X69807142Y-108735295D02*
X69807142Y-108878152D01*
X69807142Y-108878152D02*
X69759523Y-108973390D01*
X69759523Y-108973390D02*
X69711904Y-109021009D01*
X69711904Y-109021009D02*
X69616666Y-109068628D01*
X69616666Y-109068628D02*
X69235714Y-109068628D01*
X70188095Y-108640057D02*
X70235714Y-108592438D01*
X70235714Y-108592438D02*
X70330952Y-108544819D01*
X70330952Y-108544819D02*
X70569047Y-108544819D01*
X70569047Y-108544819D02*
X70664285Y-108592438D01*
X70664285Y-108592438D02*
X70711904Y-108640057D01*
X70711904Y-108640057D02*
X70759523Y-108735295D01*
X70759523Y-108735295D02*
X70759523Y-108830533D01*
X70759523Y-108830533D02*
X70711904Y-108973390D01*
X70711904Y-108973390D02*
X70140476Y-109544819D01*
X70140476Y-109544819D02*
X70759523Y-109544819D01*
X71330952Y-108973390D02*
X71235714Y-108925771D01*
X71235714Y-108925771D02*
X71188095Y-108878152D01*
X71188095Y-108878152D02*
X71140476Y-108782914D01*
X71140476Y-108782914D02*
X71140476Y-108735295D01*
X71140476Y-108735295D02*
X71188095Y-108640057D01*
X71188095Y-108640057D02*
X71235714Y-108592438D01*
X71235714Y-108592438D02*
X71330952Y-108544819D01*
X71330952Y-108544819D02*
X71521428Y-108544819D01*
X71521428Y-108544819D02*
X71616666Y-108592438D01*
X71616666Y-108592438D02*
X71664285Y-108640057D01*
X71664285Y-108640057D02*
X71711904Y-108735295D01*
X71711904Y-108735295D02*
X71711904Y-108782914D01*
X71711904Y-108782914D02*
X71664285Y-108878152D01*
X71664285Y-108878152D02*
X71616666Y-108925771D01*
X71616666Y-108925771D02*
X71521428Y-108973390D01*
X71521428Y-108973390D02*
X71330952Y-108973390D01*
X71330952Y-108973390D02*
X71235714Y-109021009D01*
X71235714Y-109021009D02*
X71188095Y-109068628D01*
X71188095Y-109068628D02*
X71140476Y-109163866D01*
X71140476Y-109163866D02*
X71140476Y-109354342D01*
X71140476Y-109354342D02*
X71188095Y-109449580D01*
X71188095Y-109449580D02*
X71235714Y-109497200D01*
X71235714Y-109497200D02*
X71330952Y-109544819D01*
X71330952Y-109544819D02*
X71521428Y-109544819D01*
X71521428Y-109544819D02*
X71616666Y-109497200D01*
X71616666Y-109497200D02*
X71664285Y-109449580D01*
X71664285Y-109449580D02*
X71711904Y-109354342D01*
X71711904Y-109354342D02*
X71711904Y-109163866D01*
X71711904Y-109163866D02*
X71664285Y-109068628D01*
X71664285Y-109068628D02*
X71616666Y-109021009D01*
X71616666Y-109021009D02*
X71521428Y-108973390D01*
X69807142Y-106594819D02*
X69473809Y-106118628D01*
X69235714Y-106594819D02*
X69235714Y-105594819D01*
X69235714Y-105594819D02*
X69616666Y-105594819D01*
X69616666Y-105594819D02*
X69711904Y-105642438D01*
X69711904Y-105642438D02*
X69759523Y-105690057D01*
X69759523Y-105690057D02*
X69807142Y-105785295D01*
X69807142Y-105785295D02*
X69807142Y-105928152D01*
X69807142Y-105928152D02*
X69759523Y-106023390D01*
X69759523Y-106023390D02*
X69711904Y-106071009D01*
X69711904Y-106071009D02*
X69616666Y-106118628D01*
X69616666Y-106118628D02*
X69235714Y-106118628D01*
X70188095Y-105690057D02*
X70235714Y-105642438D01*
X70235714Y-105642438D02*
X70330952Y-105594819D01*
X70330952Y-105594819D02*
X70569047Y-105594819D01*
X70569047Y-105594819D02*
X70664285Y-105642438D01*
X70664285Y-105642438D02*
X70711904Y-105690057D01*
X70711904Y-105690057D02*
X70759523Y-105785295D01*
X70759523Y-105785295D02*
X70759523Y-105880533D01*
X70759523Y-105880533D02*
X70711904Y-106023390D01*
X70711904Y-106023390D02*
X70140476Y-106594819D01*
X70140476Y-106594819D02*
X70759523Y-106594819D01*
X71092857Y-105594819D02*
X71759523Y-105594819D01*
X71759523Y-105594819D02*
X71330952Y-106594819D01*
X69607142Y-83874819D02*
X69273809Y-83398628D01*
X69035714Y-83874819D02*
X69035714Y-82874819D01*
X69035714Y-82874819D02*
X69416666Y-82874819D01*
X69416666Y-82874819D02*
X69511904Y-82922438D01*
X69511904Y-82922438D02*
X69559523Y-82970057D01*
X69559523Y-82970057D02*
X69607142Y-83065295D01*
X69607142Y-83065295D02*
X69607142Y-83208152D01*
X69607142Y-83208152D02*
X69559523Y-83303390D01*
X69559523Y-83303390D02*
X69511904Y-83351009D01*
X69511904Y-83351009D02*
X69416666Y-83398628D01*
X69416666Y-83398628D02*
X69035714Y-83398628D01*
X69988095Y-82970057D02*
X70035714Y-82922438D01*
X70035714Y-82922438D02*
X70130952Y-82874819D01*
X70130952Y-82874819D02*
X70369047Y-82874819D01*
X70369047Y-82874819D02*
X70464285Y-82922438D01*
X70464285Y-82922438D02*
X70511904Y-82970057D01*
X70511904Y-82970057D02*
X70559523Y-83065295D01*
X70559523Y-83065295D02*
X70559523Y-83160533D01*
X70559523Y-83160533D02*
X70511904Y-83303390D01*
X70511904Y-83303390D02*
X69940476Y-83874819D01*
X69940476Y-83874819D02*
X70559523Y-83874819D01*
X71416666Y-82874819D02*
X71226190Y-82874819D01*
X71226190Y-82874819D02*
X71130952Y-82922438D01*
X71130952Y-82922438D02*
X71083333Y-82970057D01*
X71083333Y-82970057D02*
X70988095Y-83112914D01*
X70988095Y-83112914D02*
X70940476Y-83303390D01*
X70940476Y-83303390D02*
X70940476Y-83684342D01*
X70940476Y-83684342D02*
X70988095Y-83779580D01*
X70988095Y-83779580D02*
X71035714Y-83827200D01*
X71035714Y-83827200D02*
X71130952Y-83874819D01*
X71130952Y-83874819D02*
X71321428Y-83874819D01*
X71321428Y-83874819D02*
X71416666Y-83827200D01*
X71416666Y-83827200D02*
X71464285Y-83779580D01*
X71464285Y-83779580D02*
X71511904Y-83684342D01*
X71511904Y-83684342D02*
X71511904Y-83446247D01*
X71511904Y-83446247D02*
X71464285Y-83351009D01*
X71464285Y-83351009D02*
X71416666Y-83303390D01*
X71416666Y-83303390D02*
X71321428Y-83255771D01*
X71321428Y-83255771D02*
X71130952Y-83255771D01*
X71130952Y-83255771D02*
X71035714Y-83303390D01*
X71035714Y-83303390D02*
X70988095Y-83351009D01*
X70988095Y-83351009D02*
X70940476Y-83446247D01*
X69607142Y-81364819D02*
X69273809Y-80888628D01*
X69035714Y-81364819D02*
X69035714Y-80364819D01*
X69035714Y-80364819D02*
X69416666Y-80364819D01*
X69416666Y-80364819D02*
X69511904Y-80412438D01*
X69511904Y-80412438D02*
X69559523Y-80460057D01*
X69559523Y-80460057D02*
X69607142Y-80555295D01*
X69607142Y-80555295D02*
X69607142Y-80698152D01*
X69607142Y-80698152D02*
X69559523Y-80793390D01*
X69559523Y-80793390D02*
X69511904Y-80841009D01*
X69511904Y-80841009D02*
X69416666Y-80888628D01*
X69416666Y-80888628D02*
X69035714Y-80888628D01*
X69988095Y-80460057D02*
X70035714Y-80412438D01*
X70035714Y-80412438D02*
X70130952Y-80364819D01*
X70130952Y-80364819D02*
X70369047Y-80364819D01*
X70369047Y-80364819D02*
X70464285Y-80412438D01*
X70464285Y-80412438D02*
X70511904Y-80460057D01*
X70511904Y-80460057D02*
X70559523Y-80555295D01*
X70559523Y-80555295D02*
X70559523Y-80650533D01*
X70559523Y-80650533D02*
X70511904Y-80793390D01*
X70511904Y-80793390D02*
X69940476Y-81364819D01*
X69940476Y-81364819D02*
X70559523Y-81364819D01*
X71464285Y-80364819D02*
X70988095Y-80364819D01*
X70988095Y-80364819D02*
X70940476Y-80841009D01*
X70940476Y-80841009D02*
X70988095Y-80793390D01*
X70988095Y-80793390D02*
X71083333Y-80745771D01*
X71083333Y-80745771D02*
X71321428Y-80745771D01*
X71321428Y-80745771D02*
X71416666Y-80793390D01*
X71416666Y-80793390D02*
X71464285Y-80841009D01*
X71464285Y-80841009D02*
X71511904Y-80936247D01*
X71511904Y-80936247D02*
X71511904Y-81174342D01*
X71511904Y-81174342D02*
X71464285Y-81269580D01*
X71464285Y-81269580D02*
X71416666Y-81317200D01*
X71416666Y-81317200D02*
X71321428Y-81364819D01*
X71321428Y-81364819D02*
X71083333Y-81364819D01*
X71083333Y-81364819D02*
X70988095Y-81317200D01*
X70988095Y-81317200D02*
X70940476Y-81269580D01*
X97807142Y-111634819D02*
X97473809Y-111158628D01*
X97235714Y-111634819D02*
X97235714Y-110634819D01*
X97235714Y-110634819D02*
X97616666Y-110634819D01*
X97616666Y-110634819D02*
X97711904Y-110682438D01*
X97711904Y-110682438D02*
X97759523Y-110730057D01*
X97759523Y-110730057D02*
X97807142Y-110825295D01*
X97807142Y-110825295D02*
X97807142Y-110968152D01*
X97807142Y-110968152D02*
X97759523Y-111063390D01*
X97759523Y-111063390D02*
X97711904Y-111111009D01*
X97711904Y-111111009D02*
X97616666Y-111158628D01*
X97616666Y-111158628D02*
X97235714Y-111158628D01*
X98188095Y-110730057D02*
X98235714Y-110682438D01*
X98235714Y-110682438D02*
X98330952Y-110634819D01*
X98330952Y-110634819D02*
X98569047Y-110634819D01*
X98569047Y-110634819D02*
X98664285Y-110682438D01*
X98664285Y-110682438D02*
X98711904Y-110730057D01*
X98711904Y-110730057D02*
X98759523Y-110825295D01*
X98759523Y-110825295D02*
X98759523Y-110920533D01*
X98759523Y-110920533D02*
X98711904Y-111063390D01*
X98711904Y-111063390D02*
X98140476Y-111634819D01*
X98140476Y-111634819D02*
X98759523Y-111634819D01*
X99711904Y-111634819D02*
X99140476Y-111634819D01*
X99426190Y-111634819D02*
X99426190Y-110634819D01*
X99426190Y-110634819D02*
X99330952Y-110777676D01*
X99330952Y-110777676D02*
X99235714Y-110872914D01*
X99235714Y-110872914D02*
X99140476Y-110920533D01*
X69607142Y-78854819D02*
X69273809Y-78378628D01*
X69035714Y-78854819D02*
X69035714Y-77854819D01*
X69035714Y-77854819D02*
X69416666Y-77854819D01*
X69416666Y-77854819D02*
X69511904Y-77902438D01*
X69511904Y-77902438D02*
X69559523Y-77950057D01*
X69559523Y-77950057D02*
X69607142Y-78045295D01*
X69607142Y-78045295D02*
X69607142Y-78188152D01*
X69607142Y-78188152D02*
X69559523Y-78283390D01*
X69559523Y-78283390D02*
X69511904Y-78331009D01*
X69511904Y-78331009D02*
X69416666Y-78378628D01*
X69416666Y-78378628D02*
X69035714Y-78378628D01*
X70559523Y-78854819D02*
X69988095Y-78854819D01*
X70273809Y-78854819D02*
X70273809Y-77854819D01*
X70273809Y-77854819D02*
X70178571Y-77997676D01*
X70178571Y-77997676D02*
X70083333Y-78092914D01*
X70083333Y-78092914D02*
X69988095Y-78140533D01*
X71035714Y-78854819D02*
X71226190Y-78854819D01*
X71226190Y-78854819D02*
X71321428Y-78807200D01*
X71321428Y-78807200D02*
X71369047Y-78759580D01*
X71369047Y-78759580D02*
X71464285Y-78616723D01*
X71464285Y-78616723D02*
X71511904Y-78426247D01*
X71511904Y-78426247D02*
X71511904Y-78045295D01*
X71511904Y-78045295D02*
X71464285Y-77950057D01*
X71464285Y-77950057D02*
X71416666Y-77902438D01*
X71416666Y-77902438D02*
X71321428Y-77854819D01*
X71321428Y-77854819D02*
X71130952Y-77854819D01*
X71130952Y-77854819D02*
X71035714Y-77902438D01*
X71035714Y-77902438D02*
X70988095Y-77950057D01*
X70988095Y-77950057D02*
X70940476Y-78045295D01*
X70940476Y-78045295D02*
X70940476Y-78283390D01*
X70940476Y-78283390D02*
X70988095Y-78378628D01*
X70988095Y-78378628D02*
X71035714Y-78426247D01*
X71035714Y-78426247D02*
X71130952Y-78473866D01*
X71130952Y-78473866D02*
X71321428Y-78473866D01*
X71321428Y-78473866D02*
X71416666Y-78426247D01*
X71416666Y-78426247D02*
X71464285Y-78378628D01*
X71464285Y-78378628D02*
X71511904Y-78283390D01*
X69607142Y-76344819D02*
X69273809Y-75868628D01*
X69035714Y-76344819D02*
X69035714Y-75344819D01*
X69035714Y-75344819D02*
X69416666Y-75344819D01*
X69416666Y-75344819D02*
X69511904Y-75392438D01*
X69511904Y-75392438D02*
X69559523Y-75440057D01*
X69559523Y-75440057D02*
X69607142Y-75535295D01*
X69607142Y-75535295D02*
X69607142Y-75678152D01*
X69607142Y-75678152D02*
X69559523Y-75773390D01*
X69559523Y-75773390D02*
X69511904Y-75821009D01*
X69511904Y-75821009D02*
X69416666Y-75868628D01*
X69416666Y-75868628D02*
X69035714Y-75868628D01*
X70559523Y-76344819D02*
X69988095Y-76344819D01*
X70273809Y-76344819D02*
X70273809Y-75344819D01*
X70273809Y-75344819D02*
X70178571Y-75487676D01*
X70178571Y-75487676D02*
X70083333Y-75582914D01*
X70083333Y-75582914D02*
X69988095Y-75630533D01*
X71130952Y-75773390D02*
X71035714Y-75725771D01*
X71035714Y-75725771D02*
X70988095Y-75678152D01*
X70988095Y-75678152D02*
X70940476Y-75582914D01*
X70940476Y-75582914D02*
X70940476Y-75535295D01*
X70940476Y-75535295D02*
X70988095Y-75440057D01*
X70988095Y-75440057D02*
X71035714Y-75392438D01*
X71035714Y-75392438D02*
X71130952Y-75344819D01*
X71130952Y-75344819D02*
X71321428Y-75344819D01*
X71321428Y-75344819D02*
X71416666Y-75392438D01*
X71416666Y-75392438D02*
X71464285Y-75440057D01*
X71464285Y-75440057D02*
X71511904Y-75535295D01*
X71511904Y-75535295D02*
X71511904Y-75582914D01*
X71511904Y-75582914D02*
X71464285Y-75678152D01*
X71464285Y-75678152D02*
X71416666Y-75725771D01*
X71416666Y-75725771D02*
X71321428Y-75773390D01*
X71321428Y-75773390D02*
X71130952Y-75773390D01*
X71130952Y-75773390D02*
X71035714Y-75821009D01*
X71035714Y-75821009D02*
X70988095Y-75868628D01*
X70988095Y-75868628D02*
X70940476Y-75963866D01*
X70940476Y-75963866D02*
X70940476Y-76154342D01*
X70940476Y-76154342D02*
X70988095Y-76249580D01*
X70988095Y-76249580D02*
X71035714Y-76297200D01*
X71035714Y-76297200D02*
X71130952Y-76344819D01*
X71130952Y-76344819D02*
X71321428Y-76344819D01*
X71321428Y-76344819D02*
X71416666Y-76297200D01*
X71416666Y-76297200D02*
X71464285Y-76249580D01*
X71464285Y-76249580D02*
X71511904Y-76154342D01*
X71511904Y-76154342D02*
X71511904Y-75963866D01*
X71511904Y-75963866D02*
X71464285Y-75868628D01*
X71464285Y-75868628D02*
X71416666Y-75821009D01*
X71416666Y-75821009D02*
X71321428Y-75773390D01*
X69807142Y-103644819D02*
X69473809Y-103168628D01*
X69235714Y-103644819D02*
X69235714Y-102644819D01*
X69235714Y-102644819D02*
X69616666Y-102644819D01*
X69616666Y-102644819D02*
X69711904Y-102692438D01*
X69711904Y-102692438D02*
X69759523Y-102740057D01*
X69759523Y-102740057D02*
X69807142Y-102835295D01*
X69807142Y-102835295D02*
X69807142Y-102978152D01*
X69807142Y-102978152D02*
X69759523Y-103073390D01*
X69759523Y-103073390D02*
X69711904Y-103121009D01*
X69711904Y-103121009D02*
X69616666Y-103168628D01*
X69616666Y-103168628D02*
X69235714Y-103168628D01*
X70759523Y-103644819D02*
X70188095Y-103644819D01*
X70473809Y-103644819D02*
X70473809Y-102644819D01*
X70473809Y-102644819D02*
X70378571Y-102787676D01*
X70378571Y-102787676D02*
X70283333Y-102882914D01*
X70283333Y-102882914D02*
X70188095Y-102930533D01*
X71616666Y-102644819D02*
X71426190Y-102644819D01*
X71426190Y-102644819D02*
X71330952Y-102692438D01*
X71330952Y-102692438D02*
X71283333Y-102740057D01*
X71283333Y-102740057D02*
X71188095Y-102882914D01*
X71188095Y-102882914D02*
X71140476Y-103073390D01*
X71140476Y-103073390D02*
X71140476Y-103454342D01*
X71140476Y-103454342D02*
X71188095Y-103549580D01*
X71188095Y-103549580D02*
X71235714Y-103597200D01*
X71235714Y-103597200D02*
X71330952Y-103644819D01*
X71330952Y-103644819D02*
X71521428Y-103644819D01*
X71521428Y-103644819D02*
X71616666Y-103597200D01*
X71616666Y-103597200D02*
X71664285Y-103549580D01*
X71664285Y-103549580D02*
X71711904Y-103454342D01*
X71711904Y-103454342D02*
X71711904Y-103216247D01*
X71711904Y-103216247D02*
X71664285Y-103121009D01*
X71664285Y-103121009D02*
X71616666Y-103073390D01*
X71616666Y-103073390D02*
X71521428Y-103025771D01*
X71521428Y-103025771D02*
X71330952Y-103025771D01*
X71330952Y-103025771D02*
X71235714Y-103073390D01*
X71235714Y-103073390D02*
X71188095Y-103121009D01*
X71188095Y-103121009D02*
X71140476Y-103216247D01*
X86877142Y-84574819D02*
X86543809Y-84098628D01*
X86305714Y-84574819D02*
X86305714Y-83574819D01*
X86305714Y-83574819D02*
X86686666Y-83574819D01*
X86686666Y-83574819D02*
X86781904Y-83622438D01*
X86781904Y-83622438D02*
X86829523Y-83670057D01*
X86829523Y-83670057D02*
X86877142Y-83765295D01*
X86877142Y-83765295D02*
X86877142Y-83908152D01*
X86877142Y-83908152D02*
X86829523Y-84003390D01*
X86829523Y-84003390D02*
X86781904Y-84051009D01*
X86781904Y-84051009D02*
X86686666Y-84098628D01*
X86686666Y-84098628D02*
X86305714Y-84098628D01*
X87829523Y-84574819D02*
X87258095Y-84574819D01*
X87543809Y-84574819D02*
X87543809Y-83574819D01*
X87543809Y-83574819D02*
X87448571Y-83717676D01*
X87448571Y-83717676D02*
X87353333Y-83812914D01*
X87353333Y-83812914D02*
X87258095Y-83860533D01*
X88734285Y-83574819D02*
X88258095Y-83574819D01*
X88258095Y-83574819D02*
X88210476Y-84051009D01*
X88210476Y-84051009D02*
X88258095Y-84003390D01*
X88258095Y-84003390D02*
X88353333Y-83955771D01*
X88353333Y-83955771D02*
X88591428Y-83955771D01*
X88591428Y-83955771D02*
X88686666Y-84003390D01*
X88686666Y-84003390D02*
X88734285Y-84051009D01*
X88734285Y-84051009D02*
X88781904Y-84146247D01*
X88781904Y-84146247D02*
X88781904Y-84384342D01*
X88781904Y-84384342D02*
X88734285Y-84479580D01*
X88734285Y-84479580D02*
X88686666Y-84527200D01*
X88686666Y-84527200D02*
X88591428Y-84574819D01*
X88591428Y-84574819D02*
X88353333Y-84574819D01*
X88353333Y-84574819D02*
X88258095Y-84527200D01*
X88258095Y-84527200D02*
X88210476Y-84479580D01*
X70283333Y-100694819D02*
X69950000Y-100218628D01*
X69711905Y-100694819D02*
X69711905Y-99694819D01*
X69711905Y-99694819D02*
X70092857Y-99694819D01*
X70092857Y-99694819D02*
X70188095Y-99742438D01*
X70188095Y-99742438D02*
X70235714Y-99790057D01*
X70235714Y-99790057D02*
X70283333Y-99885295D01*
X70283333Y-99885295D02*
X70283333Y-100028152D01*
X70283333Y-100028152D02*
X70235714Y-100123390D01*
X70235714Y-100123390D02*
X70188095Y-100171009D01*
X70188095Y-100171009D02*
X70092857Y-100218628D01*
X70092857Y-100218628D02*
X69711905Y-100218628D01*
X70854762Y-100123390D02*
X70759524Y-100075771D01*
X70759524Y-100075771D02*
X70711905Y-100028152D01*
X70711905Y-100028152D02*
X70664286Y-99932914D01*
X70664286Y-99932914D02*
X70664286Y-99885295D01*
X70664286Y-99885295D02*
X70711905Y-99790057D01*
X70711905Y-99790057D02*
X70759524Y-99742438D01*
X70759524Y-99742438D02*
X70854762Y-99694819D01*
X70854762Y-99694819D02*
X71045238Y-99694819D01*
X71045238Y-99694819D02*
X71140476Y-99742438D01*
X71140476Y-99742438D02*
X71188095Y-99790057D01*
X71188095Y-99790057D02*
X71235714Y-99885295D01*
X71235714Y-99885295D02*
X71235714Y-99932914D01*
X71235714Y-99932914D02*
X71188095Y-100028152D01*
X71188095Y-100028152D02*
X71140476Y-100075771D01*
X71140476Y-100075771D02*
X71045238Y-100123390D01*
X71045238Y-100123390D02*
X70854762Y-100123390D01*
X70854762Y-100123390D02*
X70759524Y-100171009D01*
X70759524Y-100171009D02*
X70711905Y-100218628D01*
X70711905Y-100218628D02*
X70664286Y-100313866D01*
X70664286Y-100313866D02*
X70664286Y-100504342D01*
X70664286Y-100504342D02*
X70711905Y-100599580D01*
X70711905Y-100599580D02*
X70759524Y-100647200D01*
X70759524Y-100647200D02*
X70854762Y-100694819D01*
X70854762Y-100694819D02*
X71045238Y-100694819D01*
X71045238Y-100694819D02*
X71140476Y-100647200D01*
X71140476Y-100647200D02*
X71188095Y-100599580D01*
X71188095Y-100599580D02*
X71235714Y-100504342D01*
X71235714Y-100504342D02*
X71235714Y-100313866D01*
X71235714Y-100313866D02*
X71188095Y-100218628D01*
X71188095Y-100218628D02*
X71140476Y-100171009D01*
X71140476Y-100171009D02*
X71045238Y-100123390D01*
X70283333Y-97744819D02*
X69950000Y-97268628D01*
X69711905Y-97744819D02*
X69711905Y-96744819D01*
X69711905Y-96744819D02*
X70092857Y-96744819D01*
X70092857Y-96744819D02*
X70188095Y-96792438D01*
X70188095Y-96792438D02*
X70235714Y-96840057D01*
X70235714Y-96840057D02*
X70283333Y-96935295D01*
X70283333Y-96935295D02*
X70283333Y-97078152D01*
X70283333Y-97078152D02*
X70235714Y-97173390D01*
X70235714Y-97173390D02*
X70188095Y-97221009D01*
X70188095Y-97221009D02*
X70092857Y-97268628D01*
X70092857Y-97268628D02*
X69711905Y-97268628D01*
X70616667Y-96744819D02*
X71283333Y-96744819D01*
X71283333Y-96744819D02*
X70854762Y-97744819D01*
X83313333Y-113524819D02*
X82980000Y-113048628D01*
X82741905Y-113524819D02*
X82741905Y-112524819D01*
X82741905Y-112524819D02*
X83122857Y-112524819D01*
X83122857Y-112524819D02*
X83218095Y-112572438D01*
X83218095Y-112572438D02*
X83265714Y-112620057D01*
X83265714Y-112620057D02*
X83313333Y-112715295D01*
X83313333Y-112715295D02*
X83313333Y-112858152D01*
X83313333Y-112858152D02*
X83265714Y-112953390D01*
X83265714Y-112953390D02*
X83218095Y-113001009D01*
X83218095Y-113001009D02*
X83122857Y-113048628D01*
X83122857Y-113048628D02*
X82741905Y-113048628D01*
X84170476Y-112524819D02*
X83980000Y-112524819D01*
X83980000Y-112524819D02*
X83884762Y-112572438D01*
X83884762Y-112572438D02*
X83837143Y-112620057D01*
X83837143Y-112620057D02*
X83741905Y-112762914D01*
X83741905Y-112762914D02*
X83694286Y-112953390D01*
X83694286Y-112953390D02*
X83694286Y-113334342D01*
X83694286Y-113334342D02*
X83741905Y-113429580D01*
X83741905Y-113429580D02*
X83789524Y-113477200D01*
X83789524Y-113477200D02*
X83884762Y-113524819D01*
X83884762Y-113524819D02*
X84075238Y-113524819D01*
X84075238Y-113524819D02*
X84170476Y-113477200D01*
X84170476Y-113477200D02*
X84218095Y-113429580D01*
X84218095Y-113429580D02*
X84265714Y-113334342D01*
X84265714Y-113334342D02*
X84265714Y-113096247D01*
X84265714Y-113096247D02*
X84218095Y-113001009D01*
X84218095Y-113001009D02*
X84170476Y-112953390D01*
X84170476Y-112953390D02*
X84075238Y-112905771D01*
X84075238Y-112905771D02*
X83884762Y-112905771D01*
X83884762Y-112905771D02*
X83789524Y-112953390D01*
X83789524Y-112953390D02*
X83741905Y-113001009D01*
X83741905Y-113001009D02*
X83694286Y-113096247D01*
X98283333Y-108344819D02*
X97950000Y-107868628D01*
X97711905Y-108344819D02*
X97711905Y-107344819D01*
X97711905Y-107344819D02*
X98092857Y-107344819D01*
X98092857Y-107344819D02*
X98188095Y-107392438D01*
X98188095Y-107392438D02*
X98235714Y-107440057D01*
X98235714Y-107440057D02*
X98283333Y-107535295D01*
X98283333Y-107535295D02*
X98283333Y-107678152D01*
X98283333Y-107678152D02*
X98235714Y-107773390D01*
X98235714Y-107773390D02*
X98188095Y-107821009D01*
X98188095Y-107821009D02*
X98092857Y-107868628D01*
X98092857Y-107868628D02*
X97711905Y-107868628D01*
X99188095Y-107344819D02*
X98711905Y-107344819D01*
X98711905Y-107344819D02*
X98664286Y-107821009D01*
X98664286Y-107821009D02*
X98711905Y-107773390D01*
X98711905Y-107773390D02*
X98807143Y-107725771D01*
X98807143Y-107725771D02*
X99045238Y-107725771D01*
X99045238Y-107725771D02*
X99140476Y-107773390D01*
X99140476Y-107773390D02*
X99188095Y-107821009D01*
X99188095Y-107821009D02*
X99235714Y-107916247D01*
X99235714Y-107916247D02*
X99235714Y-108154342D01*
X99235714Y-108154342D02*
X99188095Y-108249580D01*
X99188095Y-108249580D02*
X99140476Y-108297200D01*
X99140476Y-108297200D02*
X99045238Y-108344819D01*
X99045238Y-108344819D02*
X98807143Y-108344819D01*
X98807143Y-108344819D02*
X98711905Y-108297200D01*
X98711905Y-108297200D02*
X98664286Y-108249580D01*
X70283333Y-94794819D02*
X69950000Y-94318628D01*
X69711905Y-94794819D02*
X69711905Y-93794819D01*
X69711905Y-93794819D02*
X70092857Y-93794819D01*
X70092857Y-93794819D02*
X70188095Y-93842438D01*
X70188095Y-93842438D02*
X70235714Y-93890057D01*
X70235714Y-93890057D02*
X70283333Y-93985295D01*
X70283333Y-93985295D02*
X70283333Y-94128152D01*
X70283333Y-94128152D02*
X70235714Y-94223390D01*
X70235714Y-94223390D02*
X70188095Y-94271009D01*
X70188095Y-94271009D02*
X70092857Y-94318628D01*
X70092857Y-94318628D02*
X69711905Y-94318628D01*
X71140476Y-94128152D02*
X71140476Y-94794819D01*
X70902381Y-93747200D02*
X70664286Y-94461485D01*
X70664286Y-94461485D02*
X71283333Y-94461485D01*
X70283333Y-91844819D02*
X69950000Y-91368628D01*
X69711905Y-91844819D02*
X69711905Y-90844819D01*
X69711905Y-90844819D02*
X70092857Y-90844819D01*
X70092857Y-90844819D02*
X70188095Y-90892438D01*
X70188095Y-90892438D02*
X70235714Y-90940057D01*
X70235714Y-90940057D02*
X70283333Y-91035295D01*
X70283333Y-91035295D02*
X70283333Y-91178152D01*
X70283333Y-91178152D02*
X70235714Y-91273390D01*
X70235714Y-91273390D02*
X70188095Y-91321009D01*
X70188095Y-91321009D02*
X70092857Y-91368628D01*
X70092857Y-91368628D02*
X69711905Y-91368628D01*
X70616667Y-90844819D02*
X71235714Y-90844819D01*
X71235714Y-90844819D02*
X70902381Y-91225771D01*
X70902381Y-91225771D02*
X71045238Y-91225771D01*
X71045238Y-91225771D02*
X71140476Y-91273390D01*
X71140476Y-91273390D02*
X71188095Y-91321009D01*
X71188095Y-91321009D02*
X71235714Y-91416247D01*
X71235714Y-91416247D02*
X71235714Y-91654342D01*
X71235714Y-91654342D02*
X71188095Y-91749580D01*
X71188095Y-91749580D02*
X71140476Y-91797200D01*
X71140476Y-91797200D02*
X71045238Y-91844819D01*
X71045238Y-91844819D02*
X70759524Y-91844819D01*
X70759524Y-91844819D02*
X70664286Y-91797200D01*
X70664286Y-91797200D02*
X70616667Y-91749580D01*
X70283333Y-88894819D02*
X69950000Y-88418628D01*
X69711905Y-88894819D02*
X69711905Y-87894819D01*
X69711905Y-87894819D02*
X70092857Y-87894819D01*
X70092857Y-87894819D02*
X70188095Y-87942438D01*
X70188095Y-87942438D02*
X70235714Y-87990057D01*
X70235714Y-87990057D02*
X70283333Y-88085295D01*
X70283333Y-88085295D02*
X70283333Y-88228152D01*
X70283333Y-88228152D02*
X70235714Y-88323390D01*
X70235714Y-88323390D02*
X70188095Y-88371009D01*
X70188095Y-88371009D02*
X70092857Y-88418628D01*
X70092857Y-88418628D02*
X69711905Y-88418628D01*
X70664286Y-87990057D02*
X70711905Y-87942438D01*
X70711905Y-87942438D02*
X70807143Y-87894819D01*
X70807143Y-87894819D02*
X71045238Y-87894819D01*
X71045238Y-87894819D02*
X71140476Y-87942438D01*
X71140476Y-87942438D02*
X71188095Y-87990057D01*
X71188095Y-87990057D02*
X71235714Y-88085295D01*
X71235714Y-88085295D02*
X71235714Y-88180533D01*
X71235714Y-88180533D02*
X71188095Y-88323390D01*
X71188095Y-88323390D02*
X70616667Y-88894819D01*
X70616667Y-88894819D02*
X71235714Y-88894819D01*
X90073333Y-79684819D02*
X89740000Y-79208628D01*
X89501905Y-79684819D02*
X89501905Y-78684819D01*
X89501905Y-78684819D02*
X89882857Y-78684819D01*
X89882857Y-78684819D02*
X89978095Y-78732438D01*
X89978095Y-78732438D02*
X90025714Y-78780057D01*
X90025714Y-78780057D02*
X90073333Y-78875295D01*
X90073333Y-78875295D02*
X90073333Y-79018152D01*
X90073333Y-79018152D02*
X90025714Y-79113390D01*
X90025714Y-79113390D02*
X89978095Y-79161009D01*
X89978095Y-79161009D02*
X89882857Y-79208628D01*
X89882857Y-79208628D02*
X89501905Y-79208628D01*
X91025714Y-79684819D02*
X90454286Y-79684819D01*
X90740000Y-79684819D02*
X90740000Y-78684819D01*
X90740000Y-78684819D02*
X90644762Y-78827676D01*
X90644762Y-78827676D02*
X90549524Y-78922914D01*
X90549524Y-78922914D02*
X90454286Y-78970533D01*
X97794761Y-74105057D02*
X97699523Y-74057438D01*
X97699523Y-74057438D02*
X97604285Y-73962200D01*
X97604285Y-73962200D02*
X97461428Y-73819342D01*
X97461428Y-73819342D02*
X97366190Y-73771723D01*
X97366190Y-73771723D02*
X97270952Y-73771723D01*
X97318571Y-74009819D02*
X97223333Y-73962200D01*
X97223333Y-73962200D02*
X97128095Y-73866961D01*
X97128095Y-73866961D02*
X97080476Y-73676485D01*
X97080476Y-73676485D02*
X97080476Y-73343152D01*
X97080476Y-73343152D02*
X97128095Y-73152676D01*
X97128095Y-73152676D02*
X97223333Y-73057438D01*
X97223333Y-73057438D02*
X97318571Y-73009819D01*
X97318571Y-73009819D02*
X97509047Y-73009819D01*
X97509047Y-73009819D02*
X97604285Y-73057438D01*
X97604285Y-73057438D02*
X97699523Y-73152676D01*
X97699523Y-73152676D02*
X97747142Y-73343152D01*
X97747142Y-73343152D02*
X97747142Y-73676485D01*
X97747142Y-73676485D02*
X97699523Y-73866961D01*
X97699523Y-73866961D02*
X97604285Y-73962200D01*
X97604285Y-73962200D02*
X97509047Y-74009819D01*
X97509047Y-74009819D02*
X97318571Y-74009819D01*
X98128095Y-73105057D02*
X98175714Y-73057438D01*
X98175714Y-73057438D02*
X98270952Y-73009819D01*
X98270952Y-73009819D02*
X98509047Y-73009819D01*
X98509047Y-73009819D02*
X98604285Y-73057438D01*
X98604285Y-73057438D02*
X98651904Y-73105057D01*
X98651904Y-73105057D02*
X98699523Y-73200295D01*
X98699523Y-73200295D02*
X98699523Y-73295533D01*
X98699523Y-73295533D02*
X98651904Y-73438390D01*
X98651904Y-73438390D02*
X98080476Y-74009819D01*
X98080476Y-74009819D02*
X98699523Y-74009819D01*
X97793333Y-79679819D02*
X97317143Y-79679819D01*
X97317143Y-79679819D02*
X97317143Y-78679819D01*
X98079048Y-78775057D02*
X98126667Y-78727438D01*
X98126667Y-78727438D02*
X98221905Y-78679819D01*
X98221905Y-78679819D02*
X98460000Y-78679819D01*
X98460000Y-78679819D02*
X98555238Y-78727438D01*
X98555238Y-78727438D02*
X98602857Y-78775057D01*
X98602857Y-78775057D02*
X98650476Y-78870295D01*
X98650476Y-78870295D02*
X98650476Y-78965533D01*
X98650476Y-78965533D02*
X98602857Y-79108390D01*
X98602857Y-79108390D02*
X98031429Y-79679819D01*
X98031429Y-79679819D02*
X98650476Y-79679819D01*
X92323333Y-102124819D02*
X91847143Y-102124819D01*
X91847143Y-102124819D02*
X91847143Y-101124819D01*
X93180476Y-102124819D02*
X92609048Y-102124819D01*
X92894762Y-102124819D02*
X92894762Y-101124819D01*
X92894762Y-101124819D02*
X92799524Y-101267676D01*
X92799524Y-101267676D02*
X92704286Y-101362914D01*
X92704286Y-101362914D02*
X92609048Y-101410533D01*
X90336666Y-72834819D02*
X90336666Y-73549104D01*
X90336666Y-73549104D02*
X90289047Y-73691961D01*
X90289047Y-73691961D02*
X90193809Y-73787200D01*
X90193809Y-73787200D02*
X90050952Y-73834819D01*
X90050952Y-73834819D02*
X89955714Y-73834819D01*
X90765238Y-72930057D02*
X90812857Y-72882438D01*
X90812857Y-72882438D02*
X90908095Y-72834819D01*
X90908095Y-72834819D02*
X91146190Y-72834819D01*
X91146190Y-72834819D02*
X91241428Y-72882438D01*
X91241428Y-72882438D02*
X91289047Y-72930057D01*
X91289047Y-72930057D02*
X91336666Y-73025295D01*
X91336666Y-73025295D02*
X91336666Y-73120533D01*
X91336666Y-73120533D02*
X91289047Y-73263390D01*
X91289047Y-73263390D02*
X90717619Y-73834819D01*
X90717619Y-73834819D02*
X91336666Y-73834819D01*
X64186666Y-72564819D02*
X64186666Y-73279104D01*
X64186666Y-73279104D02*
X64139047Y-73421961D01*
X64139047Y-73421961D02*
X64043809Y-73517200D01*
X64043809Y-73517200D02*
X63900952Y-73564819D01*
X63900952Y-73564819D02*
X63805714Y-73564819D01*
X65186666Y-73564819D02*
X64615238Y-73564819D01*
X64900952Y-73564819D02*
X64900952Y-72564819D01*
X64900952Y-72564819D02*
X64805714Y-72707676D01*
X64805714Y-72707676D02*
X64710476Y-72802914D01*
X64710476Y-72802914D02*
X64615238Y-72850533D01*
D11*
X96946905Y-85002419D02*
X96946905Y-84002419D01*
X96946905Y-84002419D02*
X97185000Y-84002419D01*
X97185000Y-84002419D02*
X97327857Y-84050038D01*
X97327857Y-84050038D02*
X97423095Y-84145276D01*
X97423095Y-84145276D02*
X97470714Y-84240514D01*
X97470714Y-84240514D02*
X97518333Y-84430990D01*
X97518333Y-84430990D02*
X97518333Y-84573847D01*
X97518333Y-84573847D02*
X97470714Y-84764323D01*
X97470714Y-84764323D02*
X97423095Y-84859561D01*
X97423095Y-84859561D02*
X97327857Y-84954800D01*
X97327857Y-84954800D02*
X97185000Y-85002419D01*
X97185000Y-85002419D02*
X96946905Y-85002419D01*
X98470714Y-85002419D02*
X97899286Y-85002419D01*
X98185000Y-85002419D02*
X98185000Y-84002419D01*
X98185000Y-84002419D02*
X98089762Y-84145276D01*
X98089762Y-84145276D02*
X97994524Y-84240514D01*
X97994524Y-84240514D02*
X97899286Y-84288133D01*
D10*
X94984999Y-88299819D02*
X94413571Y-88299819D01*
X94699285Y-88299819D02*
X94699285Y-87299819D01*
X94699285Y-87299819D02*
X94604047Y-87442676D01*
X94604047Y-87442676D02*
X94508809Y-87537914D01*
X94508809Y-87537914D02*
X94413571Y-87585533D01*
X95413571Y-88299819D02*
X95413571Y-87299819D01*
X95413571Y-87299819D02*
X95984999Y-88299819D01*
X95984999Y-88299819D02*
X95984999Y-87299819D01*
X96937380Y-87299819D02*
X96461190Y-87299819D01*
X96461190Y-87299819D02*
X96413571Y-87776009D01*
X96413571Y-87776009D02*
X96461190Y-87728390D01*
X96461190Y-87728390D02*
X96556428Y-87680771D01*
X96556428Y-87680771D02*
X96794523Y-87680771D01*
X96794523Y-87680771D02*
X96889761Y-87728390D01*
X96889761Y-87728390D02*
X96937380Y-87776009D01*
X96937380Y-87776009D02*
X96984999Y-87871247D01*
X96984999Y-87871247D02*
X96984999Y-88109342D01*
X96984999Y-88109342D02*
X96937380Y-88204580D01*
X96937380Y-88204580D02*
X96889761Y-88252200D01*
X96889761Y-88252200D02*
X96794523Y-88299819D01*
X96794523Y-88299819D02*
X96556428Y-88299819D01*
X96556428Y-88299819D02*
X96461190Y-88252200D01*
X96461190Y-88252200D02*
X96413571Y-88204580D01*
X97318333Y-87299819D02*
X97937380Y-87299819D01*
X97937380Y-87299819D02*
X97604047Y-87680771D01*
X97604047Y-87680771D02*
X97746904Y-87680771D01*
X97746904Y-87680771D02*
X97842142Y-87728390D01*
X97842142Y-87728390D02*
X97889761Y-87776009D01*
X97889761Y-87776009D02*
X97937380Y-87871247D01*
X97937380Y-87871247D02*
X97937380Y-88109342D01*
X97937380Y-88109342D02*
X97889761Y-88204580D01*
X97889761Y-88204580D02*
X97842142Y-88252200D01*
X97842142Y-88252200D02*
X97746904Y-88299819D01*
X97746904Y-88299819D02*
X97461190Y-88299819D01*
X97461190Y-88299819D02*
X97365952Y-88252200D01*
X97365952Y-88252200D02*
X97318333Y-88204580D01*
X98270714Y-88299819D02*
X98794523Y-87633152D01*
X98270714Y-87633152D02*
X98794523Y-88299819D01*
X99080238Y-88299819D02*
X99604047Y-87633152D01*
X99080238Y-87633152D02*
X99604047Y-88299819D01*
X100318333Y-87776009D02*
X100461190Y-87823628D01*
X100461190Y-87823628D02*
X100508809Y-87871247D01*
X100508809Y-87871247D02*
X100556428Y-87966485D01*
X100556428Y-87966485D02*
X100556428Y-88109342D01*
X100556428Y-88109342D02*
X100508809Y-88204580D01*
X100508809Y-88204580D02*
X100461190Y-88252200D01*
X100461190Y-88252200D02*
X100365952Y-88299819D01*
X100365952Y-88299819D02*
X99985000Y-88299819D01*
X99985000Y-88299819D02*
X99985000Y-87299819D01*
X99985000Y-87299819D02*
X100318333Y-87299819D01*
X100318333Y-87299819D02*
X100413571Y-87347438D01*
X100413571Y-87347438D02*
X100461190Y-87395057D01*
X100461190Y-87395057D02*
X100508809Y-87490295D01*
X100508809Y-87490295D02*
X100508809Y-87585533D01*
X100508809Y-87585533D02*
X100461190Y-87680771D01*
X100461190Y-87680771D02*
X100413571Y-87728390D01*
X100413571Y-87728390D02*
X100318333Y-87776009D01*
X100318333Y-87776009D02*
X99985000Y-87776009D01*
X77797142Y-112499580D02*
X77749523Y-112547200D01*
X77749523Y-112547200D02*
X77606666Y-112594819D01*
X77606666Y-112594819D02*
X77511428Y-112594819D01*
X77511428Y-112594819D02*
X77368571Y-112547200D01*
X77368571Y-112547200D02*
X77273333Y-112451961D01*
X77273333Y-112451961D02*
X77225714Y-112356723D01*
X77225714Y-112356723D02*
X77178095Y-112166247D01*
X77178095Y-112166247D02*
X77178095Y-112023390D01*
X77178095Y-112023390D02*
X77225714Y-111832914D01*
X77225714Y-111832914D02*
X77273333Y-111737676D01*
X77273333Y-111737676D02*
X77368571Y-111642438D01*
X77368571Y-111642438D02*
X77511428Y-111594819D01*
X77511428Y-111594819D02*
X77606666Y-111594819D01*
X77606666Y-111594819D02*
X77749523Y-111642438D01*
X77749523Y-111642438D02*
X77797142Y-111690057D01*
X78654285Y-111928152D02*
X78654285Y-112594819D01*
X78416190Y-111547200D02*
X78178095Y-112261485D01*
X78178095Y-112261485D02*
X78797142Y-112261485D01*
X79701904Y-112594819D02*
X79130476Y-112594819D01*
X79416190Y-112594819D02*
X79416190Y-111594819D01*
X79416190Y-111594819D02*
X79320952Y-111737676D01*
X79320952Y-111737676D02*
X79225714Y-111832914D01*
X79225714Y-111832914D02*
X79130476Y-111880533D01*
X77397142Y-106979580D02*
X77349523Y-107027200D01*
X77349523Y-107027200D02*
X77206666Y-107074819D01*
X77206666Y-107074819D02*
X77111428Y-107074819D01*
X77111428Y-107074819D02*
X76968571Y-107027200D01*
X76968571Y-107027200D02*
X76873333Y-106931961D01*
X76873333Y-106931961D02*
X76825714Y-106836723D01*
X76825714Y-106836723D02*
X76778095Y-106646247D01*
X76778095Y-106646247D02*
X76778095Y-106503390D01*
X76778095Y-106503390D02*
X76825714Y-106312914D01*
X76825714Y-106312914D02*
X76873333Y-106217676D01*
X76873333Y-106217676D02*
X76968571Y-106122438D01*
X76968571Y-106122438D02*
X77111428Y-106074819D01*
X77111428Y-106074819D02*
X77206666Y-106074819D01*
X77206666Y-106074819D02*
X77349523Y-106122438D01*
X77349523Y-106122438D02*
X77397142Y-106170057D01*
X77730476Y-106074819D02*
X78349523Y-106074819D01*
X78349523Y-106074819D02*
X78016190Y-106455771D01*
X78016190Y-106455771D02*
X78159047Y-106455771D01*
X78159047Y-106455771D02*
X78254285Y-106503390D01*
X78254285Y-106503390D02*
X78301904Y-106551009D01*
X78301904Y-106551009D02*
X78349523Y-106646247D01*
X78349523Y-106646247D02*
X78349523Y-106884342D01*
X78349523Y-106884342D02*
X78301904Y-106979580D01*
X78301904Y-106979580D02*
X78254285Y-107027200D01*
X78254285Y-107027200D02*
X78159047Y-107074819D01*
X78159047Y-107074819D02*
X77873333Y-107074819D01*
X77873333Y-107074819D02*
X77778095Y-107027200D01*
X77778095Y-107027200D02*
X77730476Y-106979580D01*
X78682857Y-106074819D02*
X79349523Y-106074819D01*
X79349523Y-106074819D02*
X78920952Y-107074819D01*
X77397142Y-104469580D02*
X77349523Y-104517200D01*
X77349523Y-104517200D02*
X77206666Y-104564819D01*
X77206666Y-104564819D02*
X77111428Y-104564819D01*
X77111428Y-104564819D02*
X76968571Y-104517200D01*
X76968571Y-104517200D02*
X76873333Y-104421961D01*
X76873333Y-104421961D02*
X76825714Y-104326723D01*
X76825714Y-104326723D02*
X76778095Y-104136247D01*
X76778095Y-104136247D02*
X76778095Y-103993390D01*
X76778095Y-103993390D02*
X76825714Y-103802914D01*
X76825714Y-103802914D02*
X76873333Y-103707676D01*
X76873333Y-103707676D02*
X76968571Y-103612438D01*
X76968571Y-103612438D02*
X77111428Y-103564819D01*
X77111428Y-103564819D02*
X77206666Y-103564819D01*
X77206666Y-103564819D02*
X77349523Y-103612438D01*
X77349523Y-103612438D02*
X77397142Y-103660057D01*
X77730476Y-103564819D02*
X78349523Y-103564819D01*
X78349523Y-103564819D02*
X78016190Y-103945771D01*
X78016190Y-103945771D02*
X78159047Y-103945771D01*
X78159047Y-103945771D02*
X78254285Y-103993390D01*
X78254285Y-103993390D02*
X78301904Y-104041009D01*
X78301904Y-104041009D02*
X78349523Y-104136247D01*
X78349523Y-104136247D02*
X78349523Y-104374342D01*
X78349523Y-104374342D02*
X78301904Y-104469580D01*
X78301904Y-104469580D02*
X78254285Y-104517200D01*
X78254285Y-104517200D02*
X78159047Y-104564819D01*
X78159047Y-104564819D02*
X77873333Y-104564819D01*
X77873333Y-104564819D02*
X77778095Y-104517200D01*
X77778095Y-104517200D02*
X77730476Y-104469580D01*
X79206666Y-103564819D02*
X79016190Y-103564819D01*
X79016190Y-103564819D02*
X78920952Y-103612438D01*
X78920952Y-103612438D02*
X78873333Y-103660057D01*
X78873333Y-103660057D02*
X78778095Y-103802914D01*
X78778095Y-103802914D02*
X78730476Y-103993390D01*
X78730476Y-103993390D02*
X78730476Y-104374342D01*
X78730476Y-104374342D02*
X78778095Y-104469580D01*
X78778095Y-104469580D02*
X78825714Y-104517200D01*
X78825714Y-104517200D02*
X78920952Y-104564819D01*
X78920952Y-104564819D02*
X79111428Y-104564819D01*
X79111428Y-104564819D02*
X79206666Y-104517200D01*
X79206666Y-104517200D02*
X79254285Y-104469580D01*
X79254285Y-104469580D02*
X79301904Y-104374342D01*
X79301904Y-104374342D02*
X79301904Y-104136247D01*
X79301904Y-104136247D02*
X79254285Y-104041009D01*
X79254285Y-104041009D02*
X79206666Y-103993390D01*
X79206666Y-103993390D02*
X79111428Y-103945771D01*
X79111428Y-103945771D02*
X78920952Y-103945771D01*
X78920952Y-103945771D02*
X78825714Y-103993390D01*
X78825714Y-103993390D02*
X78778095Y-104041009D01*
X78778095Y-104041009D02*
X78730476Y-104136247D01*
X73787142Y-113779580D02*
X73739523Y-113827200D01*
X73739523Y-113827200D02*
X73596666Y-113874819D01*
X73596666Y-113874819D02*
X73501428Y-113874819D01*
X73501428Y-113874819D02*
X73358571Y-113827200D01*
X73358571Y-113827200D02*
X73263333Y-113731961D01*
X73263333Y-113731961D02*
X73215714Y-113636723D01*
X73215714Y-113636723D02*
X73168095Y-113446247D01*
X73168095Y-113446247D02*
X73168095Y-113303390D01*
X73168095Y-113303390D02*
X73215714Y-113112914D01*
X73215714Y-113112914D02*
X73263333Y-113017676D01*
X73263333Y-113017676D02*
X73358571Y-112922438D01*
X73358571Y-112922438D02*
X73501428Y-112874819D01*
X73501428Y-112874819D02*
X73596666Y-112874819D01*
X73596666Y-112874819D02*
X73739523Y-112922438D01*
X73739523Y-112922438D02*
X73787142Y-112970057D01*
X74120476Y-112874819D02*
X74739523Y-112874819D01*
X74739523Y-112874819D02*
X74406190Y-113255771D01*
X74406190Y-113255771D02*
X74549047Y-113255771D01*
X74549047Y-113255771D02*
X74644285Y-113303390D01*
X74644285Y-113303390D02*
X74691904Y-113351009D01*
X74691904Y-113351009D02*
X74739523Y-113446247D01*
X74739523Y-113446247D02*
X74739523Y-113684342D01*
X74739523Y-113684342D02*
X74691904Y-113779580D01*
X74691904Y-113779580D02*
X74644285Y-113827200D01*
X74644285Y-113827200D02*
X74549047Y-113874819D01*
X74549047Y-113874819D02*
X74263333Y-113874819D01*
X74263333Y-113874819D02*
X74168095Y-113827200D01*
X74168095Y-113827200D02*
X74120476Y-113779580D01*
X75644285Y-112874819D02*
X75168095Y-112874819D01*
X75168095Y-112874819D02*
X75120476Y-113351009D01*
X75120476Y-113351009D02*
X75168095Y-113303390D01*
X75168095Y-113303390D02*
X75263333Y-113255771D01*
X75263333Y-113255771D02*
X75501428Y-113255771D01*
X75501428Y-113255771D02*
X75596666Y-113303390D01*
X75596666Y-113303390D02*
X75644285Y-113351009D01*
X75644285Y-113351009D02*
X75691904Y-113446247D01*
X75691904Y-113446247D02*
X75691904Y-113684342D01*
X75691904Y-113684342D02*
X75644285Y-113779580D01*
X75644285Y-113779580D02*
X75596666Y-113827200D01*
X75596666Y-113827200D02*
X75501428Y-113874819D01*
X75501428Y-113874819D02*
X75263333Y-113874819D01*
X75263333Y-113874819D02*
X75168095Y-113827200D01*
X75168095Y-113827200D02*
X75120476Y-113779580D01*
X73787142Y-111809580D02*
X73739523Y-111857200D01*
X73739523Y-111857200D02*
X73596666Y-111904819D01*
X73596666Y-111904819D02*
X73501428Y-111904819D01*
X73501428Y-111904819D02*
X73358571Y-111857200D01*
X73358571Y-111857200D02*
X73263333Y-111761961D01*
X73263333Y-111761961D02*
X73215714Y-111666723D01*
X73215714Y-111666723D02*
X73168095Y-111476247D01*
X73168095Y-111476247D02*
X73168095Y-111333390D01*
X73168095Y-111333390D02*
X73215714Y-111142914D01*
X73215714Y-111142914D02*
X73263333Y-111047676D01*
X73263333Y-111047676D02*
X73358571Y-110952438D01*
X73358571Y-110952438D02*
X73501428Y-110904819D01*
X73501428Y-110904819D02*
X73596666Y-110904819D01*
X73596666Y-110904819D02*
X73739523Y-110952438D01*
X73739523Y-110952438D02*
X73787142Y-111000057D01*
X74120476Y-110904819D02*
X74739523Y-110904819D01*
X74739523Y-110904819D02*
X74406190Y-111285771D01*
X74406190Y-111285771D02*
X74549047Y-111285771D01*
X74549047Y-111285771D02*
X74644285Y-111333390D01*
X74644285Y-111333390D02*
X74691904Y-111381009D01*
X74691904Y-111381009D02*
X74739523Y-111476247D01*
X74739523Y-111476247D02*
X74739523Y-111714342D01*
X74739523Y-111714342D02*
X74691904Y-111809580D01*
X74691904Y-111809580D02*
X74644285Y-111857200D01*
X74644285Y-111857200D02*
X74549047Y-111904819D01*
X74549047Y-111904819D02*
X74263333Y-111904819D01*
X74263333Y-111904819D02*
X74168095Y-111857200D01*
X74168095Y-111857200D02*
X74120476Y-111809580D01*
X75596666Y-111238152D02*
X75596666Y-111904819D01*
X75358571Y-110857200D02*
X75120476Y-111571485D01*
X75120476Y-111571485D02*
X75739523Y-111571485D01*
X73787142Y-109839580D02*
X73739523Y-109887200D01*
X73739523Y-109887200D02*
X73596666Y-109934819D01*
X73596666Y-109934819D02*
X73501428Y-109934819D01*
X73501428Y-109934819D02*
X73358571Y-109887200D01*
X73358571Y-109887200D02*
X73263333Y-109791961D01*
X73263333Y-109791961D02*
X73215714Y-109696723D01*
X73215714Y-109696723D02*
X73168095Y-109506247D01*
X73168095Y-109506247D02*
X73168095Y-109363390D01*
X73168095Y-109363390D02*
X73215714Y-109172914D01*
X73215714Y-109172914D02*
X73263333Y-109077676D01*
X73263333Y-109077676D02*
X73358571Y-108982438D01*
X73358571Y-108982438D02*
X73501428Y-108934819D01*
X73501428Y-108934819D02*
X73596666Y-108934819D01*
X73596666Y-108934819D02*
X73739523Y-108982438D01*
X73739523Y-108982438D02*
X73787142Y-109030057D01*
X74120476Y-108934819D02*
X74739523Y-108934819D01*
X74739523Y-108934819D02*
X74406190Y-109315771D01*
X74406190Y-109315771D02*
X74549047Y-109315771D01*
X74549047Y-109315771D02*
X74644285Y-109363390D01*
X74644285Y-109363390D02*
X74691904Y-109411009D01*
X74691904Y-109411009D02*
X74739523Y-109506247D01*
X74739523Y-109506247D02*
X74739523Y-109744342D01*
X74739523Y-109744342D02*
X74691904Y-109839580D01*
X74691904Y-109839580D02*
X74644285Y-109887200D01*
X74644285Y-109887200D02*
X74549047Y-109934819D01*
X74549047Y-109934819D02*
X74263333Y-109934819D01*
X74263333Y-109934819D02*
X74168095Y-109887200D01*
X74168095Y-109887200D02*
X74120476Y-109839580D01*
X75072857Y-108934819D02*
X75691904Y-108934819D01*
X75691904Y-108934819D02*
X75358571Y-109315771D01*
X75358571Y-109315771D02*
X75501428Y-109315771D01*
X75501428Y-109315771D02*
X75596666Y-109363390D01*
X75596666Y-109363390D02*
X75644285Y-109411009D01*
X75644285Y-109411009D02*
X75691904Y-109506247D01*
X75691904Y-109506247D02*
X75691904Y-109744342D01*
X75691904Y-109744342D02*
X75644285Y-109839580D01*
X75644285Y-109839580D02*
X75596666Y-109887200D01*
X75596666Y-109887200D02*
X75501428Y-109934819D01*
X75501428Y-109934819D02*
X75215714Y-109934819D01*
X75215714Y-109934819D02*
X75120476Y-109887200D01*
X75120476Y-109887200D02*
X75072857Y-109839580D01*
X73787142Y-107869580D02*
X73739523Y-107917200D01*
X73739523Y-107917200D02*
X73596666Y-107964819D01*
X73596666Y-107964819D02*
X73501428Y-107964819D01*
X73501428Y-107964819D02*
X73358571Y-107917200D01*
X73358571Y-107917200D02*
X73263333Y-107821961D01*
X73263333Y-107821961D02*
X73215714Y-107726723D01*
X73215714Y-107726723D02*
X73168095Y-107536247D01*
X73168095Y-107536247D02*
X73168095Y-107393390D01*
X73168095Y-107393390D02*
X73215714Y-107202914D01*
X73215714Y-107202914D02*
X73263333Y-107107676D01*
X73263333Y-107107676D02*
X73358571Y-107012438D01*
X73358571Y-107012438D02*
X73501428Y-106964819D01*
X73501428Y-106964819D02*
X73596666Y-106964819D01*
X73596666Y-106964819D02*
X73739523Y-107012438D01*
X73739523Y-107012438D02*
X73787142Y-107060057D01*
X74120476Y-106964819D02*
X74739523Y-106964819D01*
X74739523Y-106964819D02*
X74406190Y-107345771D01*
X74406190Y-107345771D02*
X74549047Y-107345771D01*
X74549047Y-107345771D02*
X74644285Y-107393390D01*
X74644285Y-107393390D02*
X74691904Y-107441009D01*
X74691904Y-107441009D02*
X74739523Y-107536247D01*
X74739523Y-107536247D02*
X74739523Y-107774342D01*
X74739523Y-107774342D02*
X74691904Y-107869580D01*
X74691904Y-107869580D02*
X74644285Y-107917200D01*
X74644285Y-107917200D02*
X74549047Y-107964819D01*
X74549047Y-107964819D02*
X74263333Y-107964819D01*
X74263333Y-107964819D02*
X74168095Y-107917200D01*
X74168095Y-107917200D02*
X74120476Y-107869580D01*
X75120476Y-107060057D02*
X75168095Y-107012438D01*
X75168095Y-107012438D02*
X75263333Y-106964819D01*
X75263333Y-106964819D02*
X75501428Y-106964819D01*
X75501428Y-106964819D02*
X75596666Y-107012438D01*
X75596666Y-107012438D02*
X75644285Y-107060057D01*
X75644285Y-107060057D02*
X75691904Y-107155295D01*
X75691904Y-107155295D02*
X75691904Y-107250533D01*
X75691904Y-107250533D02*
X75644285Y-107393390D01*
X75644285Y-107393390D02*
X75072857Y-107964819D01*
X75072857Y-107964819D02*
X75691904Y-107964819D01*
X82067142Y-111459580D02*
X82019523Y-111507200D01*
X82019523Y-111507200D02*
X81876666Y-111554819D01*
X81876666Y-111554819D02*
X81781428Y-111554819D01*
X81781428Y-111554819D02*
X81638571Y-111507200D01*
X81638571Y-111507200D02*
X81543333Y-111411961D01*
X81543333Y-111411961D02*
X81495714Y-111316723D01*
X81495714Y-111316723D02*
X81448095Y-111126247D01*
X81448095Y-111126247D02*
X81448095Y-110983390D01*
X81448095Y-110983390D02*
X81495714Y-110792914D01*
X81495714Y-110792914D02*
X81543333Y-110697676D01*
X81543333Y-110697676D02*
X81638571Y-110602438D01*
X81638571Y-110602438D02*
X81781428Y-110554819D01*
X81781428Y-110554819D02*
X81876666Y-110554819D01*
X81876666Y-110554819D02*
X82019523Y-110602438D01*
X82019523Y-110602438D02*
X82067142Y-110650057D01*
X82400476Y-110554819D02*
X83019523Y-110554819D01*
X83019523Y-110554819D02*
X82686190Y-110935771D01*
X82686190Y-110935771D02*
X82829047Y-110935771D01*
X82829047Y-110935771D02*
X82924285Y-110983390D01*
X82924285Y-110983390D02*
X82971904Y-111031009D01*
X82971904Y-111031009D02*
X83019523Y-111126247D01*
X83019523Y-111126247D02*
X83019523Y-111364342D01*
X83019523Y-111364342D02*
X82971904Y-111459580D01*
X82971904Y-111459580D02*
X82924285Y-111507200D01*
X82924285Y-111507200D02*
X82829047Y-111554819D01*
X82829047Y-111554819D02*
X82543333Y-111554819D01*
X82543333Y-111554819D02*
X82448095Y-111507200D01*
X82448095Y-111507200D02*
X82400476Y-111459580D01*
X83971904Y-111554819D02*
X83400476Y-111554819D01*
X83686190Y-111554819D02*
X83686190Y-110554819D01*
X83686190Y-110554819D02*
X83590952Y-110697676D01*
X83590952Y-110697676D02*
X83495714Y-110792914D01*
X83495714Y-110792914D02*
X83400476Y-110840533D01*
X82067142Y-109489580D02*
X82019523Y-109537200D01*
X82019523Y-109537200D02*
X81876666Y-109584819D01*
X81876666Y-109584819D02*
X81781428Y-109584819D01*
X81781428Y-109584819D02*
X81638571Y-109537200D01*
X81638571Y-109537200D02*
X81543333Y-109441961D01*
X81543333Y-109441961D02*
X81495714Y-109346723D01*
X81495714Y-109346723D02*
X81448095Y-109156247D01*
X81448095Y-109156247D02*
X81448095Y-109013390D01*
X81448095Y-109013390D02*
X81495714Y-108822914D01*
X81495714Y-108822914D02*
X81543333Y-108727676D01*
X81543333Y-108727676D02*
X81638571Y-108632438D01*
X81638571Y-108632438D02*
X81781428Y-108584819D01*
X81781428Y-108584819D02*
X81876666Y-108584819D01*
X81876666Y-108584819D02*
X82019523Y-108632438D01*
X82019523Y-108632438D02*
X82067142Y-108680057D01*
X82400476Y-108584819D02*
X83019523Y-108584819D01*
X83019523Y-108584819D02*
X82686190Y-108965771D01*
X82686190Y-108965771D02*
X82829047Y-108965771D01*
X82829047Y-108965771D02*
X82924285Y-109013390D01*
X82924285Y-109013390D02*
X82971904Y-109061009D01*
X82971904Y-109061009D02*
X83019523Y-109156247D01*
X83019523Y-109156247D02*
X83019523Y-109394342D01*
X83019523Y-109394342D02*
X82971904Y-109489580D01*
X82971904Y-109489580D02*
X82924285Y-109537200D01*
X82924285Y-109537200D02*
X82829047Y-109584819D01*
X82829047Y-109584819D02*
X82543333Y-109584819D01*
X82543333Y-109584819D02*
X82448095Y-109537200D01*
X82448095Y-109537200D02*
X82400476Y-109489580D01*
X83638571Y-108584819D02*
X83733809Y-108584819D01*
X83733809Y-108584819D02*
X83829047Y-108632438D01*
X83829047Y-108632438D02*
X83876666Y-108680057D01*
X83876666Y-108680057D02*
X83924285Y-108775295D01*
X83924285Y-108775295D02*
X83971904Y-108965771D01*
X83971904Y-108965771D02*
X83971904Y-109203866D01*
X83971904Y-109203866D02*
X83924285Y-109394342D01*
X83924285Y-109394342D02*
X83876666Y-109489580D01*
X83876666Y-109489580D02*
X83829047Y-109537200D01*
X83829047Y-109537200D02*
X83733809Y-109584819D01*
X83733809Y-109584819D02*
X83638571Y-109584819D01*
X83638571Y-109584819D02*
X83543333Y-109537200D01*
X83543333Y-109537200D02*
X83495714Y-109489580D01*
X83495714Y-109489580D02*
X83448095Y-109394342D01*
X83448095Y-109394342D02*
X83400476Y-109203866D01*
X83400476Y-109203866D02*
X83400476Y-108965771D01*
X83400476Y-108965771D02*
X83448095Y-108775295D01*
X83448095Y-108775295D02*
X83495714Y-108680057D01*
X83495714Y-108680057D02*
X83543333Y-108632438D01*
X83543333Y-108632438D02*
X83638571Y-108584819D01*
X82067142Y-107519580D02*
X82019523Y-107567200D01*
X82019523Y-107567200D02*
X81876666Y-107614819D01*
X81876666Y-107614819D02*
X81781428Y-107614819D01*
X81781428Y-107614819D02*
X81638571Y-107567200D01*
X81638571Y-107567200D02*
X81543333Y-107471961D01*
X81543333Y-107471961D02*
X81495714Y-107376723D01*
X81495714Y-107376723D02*
X81448095Y-107186247D01*
X81448095Y-107186247D02*
X81448095Y-107043390D01*
X81448095Y-107043390D02*
X81495714Y-106852914D01*
X81495714Y-106852914D02*
X81543333Y-106757676D01*
X81543333Y-106757676D02*
X81638571Y-106662438D01*
X81638571Y-106662438D02*
X81781428Y-106614819D01*
X81781428Y-106614819D02*
X81876666Y-106614819D01*
X81876666Y-106614819D02*
X82019523Y-106662438D01*
X82019523Y-106662438D02*
X82067142Y-106710057D01*
X82448095Y-106710057D02*
X82495714Y-106662438D01*
X82495714Y-106662438D02*
X82590952Y-106614819D01*
X82590952Y-106614819D02*
X82829047Y-106614819D01*
X82829047Y-106614819D02*
X82924285Y-106662438D01*
X82924285Y-106662438D02*
X82971904Y-106710057D01*
X82971904Y-106710057D02*
X83019523Y-106805295D01*
X83019523Y-106805295D02*
X83019523Y-106900533D01*
X83019523Y-106900533D02*
X82971904Y-107043390D01*
X82971904Y-107043390D02*
X82400476Y-107614819D01*
X82400476Y-107614819D02*
X83019523Y-107614819D01*
X83495714Y-107614819D02*
X83686190Y-107614819D01*
X83686190Y-107614819D02*
X83781428Y-107567200D01*
X83781428Y-107567200D02*
X83829047Y-107519580D01*
X83829047Y-107519580D02*
X83924285Y-107376723D01*
X83924285Y-107376723D02*
X83971904Y-107186247D01*
X83971904Y-107186247D02*
X83971904Y-106805295D01*
X83971904Y-106805295D02*
X83924285Y-106710057D01*
X83924285Y-106710057D02*
X83876666Y-106662438D01*
X83876666Y-106662438D02*
X83781428Y-106614819D01*
X83781428Y-106614819D02*
X83590952Y-106614819D01*
X83590952Y-106614819D02*
X83495714Y-106662438D01*
X83495714Y-106662438D02*
X83448095Y-106710057D01*
X83448095Y-106710057D02*
X83400476Y-106805295D01*
X83400476Y-106805295D02*
X83400476Y-107043390D01*
X83400476Y-107043390D02*
X83448095Y-107138628D01*
X83448095Y-107138628D02*
X83495714Y-107186247D01*
X83495714Y-107186247D02*
X83590952Y-107233866D01*
X83590952Y-107233866D02*
X83781428Y-107233866D01*
X83781428Y-107233866D02*
X83876666Y-107186247D01*
X83876666Y-107186247D02*
X83924285Y-107138628D01*
X83924285Y-107138628D02*
X83971904Y-107043390D01*
X82067142Y-105549580D02*
X82019523Y-105597200D01*
X82019523Y-105597200D02*
X81876666Y-105644819D01*
X81876666Y-105644819D02*
X81781428Y-105644819D01*
X81781428Y-105644819D02*
X81638571Y-105597200D01*
X81638571Y-105597200D02*
X81543333Y-105501961D01*
X81543333Y-105501961D02*
X81495714Y-105406723D01*
X81495714Y-105406723D02*
X81448095Y-105216247D01*
X81448095Y-105216247D02*
X81448095Y-105073390D01*
X81448095Y-105073390D02*
X81495714Y-104882914D01*
X81495714Y-104882914D02*
X81543333Y-104787676D01*
X81543333Y-104787676D02*
X81638571Y-104692438D01*
X81638571Y-104692438D02*
X81781428Y-104644819D01*
X81781428Y-104644819D02*
X81876666Y-104644819D01*
X81876666Y-104644819D02*
X82019523Y-104692438D01*
X82019523Y-104692438D02*
X82067142Y-104740057D01*
X82448095Y-104740057D02*
X82495714Y-104692438D01*
X82495714Y-104692438D02*
X82590952Y-104644819D01*
X82590952Y-104644819D02*
X82829047Y-104644819D01*
X82829047Y-104644819D02*
X82924285Y-104692438D01*
X82924285Y-104692438D02*
X82971904Y-104740057D01*
X82971904Y-104740057D02*
X83019523Y-104835295D01*
X83019523Y-104835295D02*
X83019523Y-104930533D01*
X83019523Y-104930533D02*
X82971904Y-105073390D01*
X82971904Y-105073390D02*
X82400476Y-105644819D01*
X82400476Y-105644819D02*
X83019523Y-105644819D01*
X83590952Y-105073390D02*
X83495714Y-105025771D01*
X83495714Y-105025771D02*
X83448095Y-104978152D01*
X83448095Y-104978152D02*
X83400476Y-104882914D01*
X83400476Y-104882914D02*
X83400476Y-104835295D01*
X83400476Y-104835295D02*
X83448095Y-104740057D01*
X83448095Y-104740057D02*
X83495714Y-104692438D01*
X83495714Y-104692438D02*
X83590952Y-104644819D01*
X83590952Y-104644819D02*
X83781428Y-104644819D01*
X83781428Y-104644819D02*
X83876666Y-104692438D01*
X83876666Y-104692438D02*
X83924285Y-104740057D01*
X83924285Y-104740057D02*
X83971904Y-104835295D01*
X83971904Y-104835295D02*
X83971904Y-104882914D01*
X83971904Y-104882914D02*
X83924285Y-104978152D01*
X83924285Y-104978152D02*
X83876666Y-105025771D01*
X83876666Y-105025771D02*
X83781428Y-105073390D01*
X83781428Y-105073390D02*
X83590952Y-105073390D01*
X83590952Y-105073390D02*
X83495714Y-105121009D01*
X83495714Y-105121009D02*
X83448095Y-105168628D01*
X83448095Y-105168628D02*
X83400476Y-105263866D01*
X83400476Y-105263866D02*
X83400476Y-105454342D01*
X83400476Y-105454342D02*
X83448095Y-105549580D01*
X83448095Y-105549580D02*
X83495714Y-105597200D01*
X83495714Y-105597200D02*
X83590952Y-105644819D01*
X83590952Y-105644819D02*
X83781428Y-105644819D01*
X83781428Y-105644819D02*
X83876666Y-105597200D01*
X83876666Y-105597200D02*
X83924285Y-105549580D01*
X83924285Y-105549580D02*
X83971904Y-105454342D01*
X83971904Y-105454342D02*
X83971904Y-105263866D01*
X83971904Y-105263866D02*
X83924285Y-105168628D01*
X83924285Y-105168628D02*
X83876666Y-105121009D01*
X83876666Y-105121009D02*
X83781428Y-105073390D01*
X83457142Y-102199580D02*
X83409523Y-102247200D01*
X83409523Y-102247200D02*
X83266666Y-102294819D01*
X83266666Y-102294819D02*
X83171428Y-102294819D01*
X83171428Y-102294819D02*
X83028571Y-102247200D01*
X83028571Y-102247200D02*
X82933333Y-102151961D01*
X82933333Y-102151961D02*
X82885714Y-102056723D01*
X82885714Y-102056723D02*
X82838095Y-101866247D01*
X82838095Y-101866247D02*
X82838095Y-101723390D01*
X82838095Y-101723390D02*
X82885714Y-101532914D01*
X82885714Y-101532914D02*
X82933333Y-101437676D01*
X82933333Y-101437676D02*
X83028571Y-101342438D01*
X83028571Y-101342438D02*
X83171428Y-101294819D01*
X83171428Y-101294819D02*
X83266666Y-101294819D01*
X83266666Y-101294819D02*
X83409523Y-101342438D01*
X83409523Y-101342438D02*
X83457142Y-101390057D01*
X83838095Y-101390057D02*
X83885714Y-101342438D01*
X83885714Y-101342438D02*
X83980952Y-101294819D01*
X83980952Y-101294819D02*
X84219047Y-101294819D01*
X84219047Y-101294819D02*
X84314285Y-101342438D01*
X84314285Y-101342438D02*
X84361904Y-101390057D01*
X84361904Y-101390057D02*
X84409523Y-101485295D01*
X84409523Y-101485295D02*
X84409523Y-101580533D01*
X84409523Y-101580533D02*
X84361904Y-101723390D01*
X84361904Y-101723390D02*
X83790476Y-102294819D01*
X83790476Y-102294819D02*
X84409523Y-102294819D01*
X84742857Y-101294819D02*
X85409523Y-101294819D01*
X85409523Y-101294819D02*
X84980952Y-102294819D01*
X83457142Y-98849580D02*
X83409523Y-98897200D01*
X83409523Y-98897200D02*
X83266666Y-98944819D01*
X83266666Y-98944819D02*
X83171428Y-98944819D01*
X83171428Y-98944819D02*
X83028571Y-98897200D01*
X83028571Y-98897200D02*
X82933333Y-98801961D01*
X82933333Y-98801961D02*
X82885714Y-98706723D01*
X82885714Y-98706723D02*
X82838095Y-98516247D01*
X82838095Y-98516247D02*
X82838095Y-98373390D01*
X82838095Y-98373390D02*
X82885714Y-98182914D01*
X82885714Y-98182914D02*
X82933333Y-98087676D01*
X82933333Y-98087676D02*
X83028571Y-97992438D01*
X83028571Y-97992438D02*
X83171428Y-97944819D01*
X83171428Y-97944819D02*
X83266666Y-97944819D01*
X83266666Y-97944819D02*
X83409523Y-97992438D01*
X83409523Y-97992438D02*
X83457142Y-98040057D01*
X83838095Y-98040057D02*
X83885714Y-97992438D01*
X83885714Y-97992438D02*
X83980952Y-97944819D01*
X83980952Y-97944819D02*
X84219047Y-97944819D01*
X84219047Y-97944819D02*
X84314285Y-97992438D01*
X84314285Y-97992438D02*
X84361904Y-98040057D01*
X84361904Y-98040057D02*
X84409523Y-98135295D01*
X84409523Y-98135295D02*
X84409523Y-98230533D01*
X84409523Y-98230533D02*
X84361904Y-98373390D01*
X84361904Y-98373390D02*
X83790476Y-98944819D01*
X83790476Y-98944819D02*
X84409523Y-98944819D01*
X85266666Y-97944819D02*
X85076190Y-97944819D01*
X85076190Y-97944819D02*
X84980952Y-97992438D01*
X84980952Y-97992438D02*
X84933333Y-98040057D01*
X84933333Y-98040057D02*
X84838095Y-98182914D01*
X84838095Y-98182914D02*
X84790476Y-98373390D01*
X84790476Y-98373390D02*
X84790476Y-98754342D01*
X84790476Y-98754342D02*
X84838095Y-98849580D01*
X84838095Y-98849580D02*
X84885714Y-98897200D01*
X84885714Y-98897200D02*
X84980952Y-98944819D01*
X84980952Y-98944819D02*
X85171428Y-98944819D01*
X85171428Y-98944819D02*
X85266666Y-98897200D01*
X85266666Y-98897200D02*
X85314285Y-98849580D01*
X85314285Y-98849580D02*
X85361904Y-98754342D01*
X85361904Y-98754342D02*
X85361904Y-98516247D01*
X85361904Y-98516247D02*
X85314285Y-98421009D01*
X85314285Y-98421009D02*
X85266666Y-98373390D01*
X85266666Y-98373390D02*
X85171428Y-98325771D01*
X85171428Y-98325771D02*
X84980952Y-98325771D01*
X84980952Y-98325771D02*
X84885714Y-98373390D01*
X84885714Y-98373390D02*
X84838095Y-98421009D01*
X84838095Y-98421009D02*
X84790476Y-98516247D01*
X83457142Y-95499580D02*
X83409523Y-95547200D01*
X83409523Y-95547200D02*
X83266666Y-95594819D01*
X83266666Y-95594819D02*
X83171428Y-95594819D01*
X83171428Y-95594819D02*
X83028571Y-95547200D01*
X83028571Y-95547200D02*
X82933333Y-95451961D01*
X82933333Y-95451961D02*
X82885714Y-95356723D01*
X82885714Y-95356723D02*
X82838095Y-95166247D01*
X82838095Y-95166247D02*
X82838095Y-95023390D01*
X82838095Y-95023390D02*
X82885714Y-94832914D01*
X82885714Y-94832914D02*
X82933333Y-94737676D01*
X82933333Y-94737676D02*
X83028571Y-94642438D01*
X83028571Y-94642438D02*
X83171428Y-94594819D01*
X83171428Y-94594819D02*
X83266666Y-94594819D01*
X83266666Y-94594819D02*
X83409523Y-94642438D01*
X83409523Y-94642438D02*
X83457142Y-94690057D01*
X83838095Y-94690057D02*
X83885714Y-94642438D01*
X83885714Y-94642438D02*
X83980952Y-94594819D01*
X83980952Y-94594819D02*
X84219047Y-94594819D01*
X84219047Y-94594819D02*
X84314285Y-94642438D01*
X84314285Y-94642438D02*
X84361904Y-94690057D01*
X84361904Y-94690057D02*
X84409523Y-94785295D01*
X84409523Y-94785295D02*
X84409523Y-94880533D01*
X84409523Y-94880533D02*
X84361904Y-95023390D01*
X84361904Y-95023390D02*
X83790476Y-95594819D01*
X83790476Y-95594819D02*
X84409523Y-95594819D01*
X85314285Y-94594819D02*
X84838095Y-94594819D01*
X84838095Y-94594819D02*
X84790476Y-95071009D01*
X84790476Y-95071009D02*
X84838095Y-95023390D01*
X84838095Y-95023390D02*
X84933333Y-94975771D01*
X84933333Y-94975771D02*
X85171428Y-94975771D01*
X85171428Y-94975771D02*
X85266666Y-95023390D01*
X85266666Y-95023390D02*
X85314285Y-95071009D01*
X85314285Y-95071009D02*
X85361904Y-95166247D01*
X85361904Y-95166247D02*
X85361904Y-95404342D01*
X85361904Y-95404342D02*
X85314285Y-95499580D01*
X85314285Y-95499580D02*
X85266666Y-95547200D01*
X85266666Y-95547200D02*
X85171428Y-95594819D01*
X85171428Y-95594819D02*
X84933333Y-95594819D01*
X84933333Y-95594819D02*
X84838095Y-95547200D01*
X84838095Y-95547200D02*
X84790476Y-95499580D01*
X73787142Y-105899580D02*
X73739523Y-105947200D01*
X73739523Y-105947200D02*
X73596666Y-105994819D01*
X73596666Y-105994819D02*
X73501428Y-105994819D01*
X73501428Y-105994819D02*
X73358571Y-105947200D01*
X73358571Y-105947200D02*
X73263333Y-105851961D01*
X73263333Y-105851961D02*
X73215714Y-105756723D01*
X73215714Y-105756723D02*
X73168095Y-105566247D01*
X73168095Y-105566247D02*
X73168095Y-105423390D01*
X73168095Y-105423390D02*
X73215714Y-105232914D01*
X73215714Y-105232914D02*
X73263333Y-105137676D01*
X73263333Y-105137676D02*
X73358571Y-105042438D01*
X73358571Y-105042438D02*
X73501428Y-104994819D01*
X73501428Y-104994819D02*
X73596666Y-104994819D01*
X73596666Y-104994819D02*
X73739523Y-105042438D01*
X73739523Y-105042438D02*
X73787142Y-105090057D01*
X74168095Y-105090057D02*
X74215714Y-105042438D01*
X74215714Y-105042438D02*
X74310952Y-104994819D01*
X74310952Y-104994819D02*
X74549047Y-104994819D01*
X74549047Y-104994819D02*
X74644285Y-105042438D01*
X74644285Y-105042438D02*
X74691904Y-105090057D01*
X74691904Y-105090057D02*
X74739523Y-105185295D01*
X74739523Y-105185295D02*
X74739523Y-105280533D01*
X74739523Y-105280533D02*
X74691904Y-105423390D01*
X74691904Y-105423390D02*
X74120476Y-105994819D01*
X74120476Y-105994819D02*
X74739523Y-105994819D01*
X75596666Y-105328152D02*
X75596666Y-105994819D01*
X75358571Y-104947200D02*
X75120476Y-105661485D01*
X75120476Y-105661485D02*
X75739523Y-105661485D01*
X89287142Y-98849580D02*
X89239523Y-98897200D01*
X89239523Y-98897200D02*
X89096666Y-98944819D01*
X89096666Y-98944819D02*
X89001428Y-98944819D01*
X89001428Y-98944819D02*
X88858571Y-98897200D01*
X88858571Y-98897200D02*
X88763333Y-98801961D01*
X88763333Y-98801961D02*
X88715714Y-98706723D01*
X88715714Y-98706723D02*
X88668095Y-98516247D01*
X88668095Y-98516247D02*
X88668095Y-98373390D01*
X88668095Y-98373390D02*
X88715714Y-98182914D01*
X88715714Y-98182914D02*
X88763333Y-98087676D01*
X88763333Y-98087676D02*
X88858571Y-97992438D01*
X88858571Y-97992438D02*
X89001428Y-97944819D01*
X89001428Y-97944819D02*
X89096666Y-97944819D01*
X89096666Y-97944819D02*
X89239523Y-97992438D01*
X89239523Y-97992438D02*
X89287142Y-98040057D01*
X89668095Y-98040057D02*
X89715714Y-97992438D01*
X89715714Y-97992438D02*
X89810952Y-97944819D01*
X89810952Y-97944819D02*
X90049047Y-97944819D01*
X90049047Y-97944819D02*
X90144285Y-97992438D01*
X90144285Y-97992438D02*
X90191904Y-98040057D01*
X90191904Y-98040057D02*
X90239523Y-98135295D01*
X90239523Y-98135295D02*
X90239523Y-98230533D01*
X90239523Y-98230533D02*
X90191904Y-98373390D01*
X90191904Y-98373390D02*
X89620476Y-98944819D01*
X89620476Y-98944819D02*
X90239523Y-98944819D01*
X90572857Y-97944819D02*
X91191904Y-97944819D01*
X91191904Y-97944819D02*
X90858571Y-98325771D01*
X90858571Y-98325771D02*
X91001428Y-98325771D01*
X91001428Y-98325771D02*
X91096666Y-98373390D01*
X91096666Y-98373390D02*
X91144285Y-98421009D01*
X91144285Y-98421009D02*
X91191904Y-98516247D01*
X91191904Y-98516247D02*
X91191904Y-98754342D01*
X91191904Y-98754342D02*
X91144285Y-98849580D01*
X91144285Y-98849580D02*
X91096666Y-98897200D01*
X91096666Y-98897200D02*
X91001428Y-98944819D01*
X91001428Y-98944819D02*
X90715714Y-98944819D01*
X90715714Y-98944819D02*
X90620476Y-98897200D01*
X90620476Y-98897200D02*
X90572857Y-98849580D01*
X89287142Y-95499580D02*
X89239523Y-95547200D01*
X89239523Y-95547200D02*
X89096666Y-95594819D01*
X89096666Y-95594819D02*
X89001428Y-95594819D01*
X89001428Y-95594819D02*
X88858571Y-95547200D01*
X88858571Y-95547200D02*
X88763333Y-95451961D01*
X88763333Y-95451961D02*
X88715714Y-95356723D01*
X88715714Y-95356723D02*
X88668095Y-95166247D01*
X88668095Y-95166247D02*
X88668095Y-95023390D01*
X88668095Y-95023390D02*
X88715714Y-94832914D01*
X88715714Y-94832914D02*
X88763333Y-94737676D01*
X88763333Y-94737676D02*
X88858571Y-94642438D01*
X88858571Y-94642438D02*
X89001428Y-94594819D01*
X89001428Y-94594819D02*
X89096666Y-94594819D01*
X89096666Y-94594819D02*
X89239523Y-94642438D01*
X89239523Y-94642438D02*
X89287142Y-94690057D01*
X89668095Y-94690057D02*
X89715714Y-94642438D01*
X89715714Y-94642438D02*
X89810952Y-94594819D01*
X89810952Y-94594819D02*
X90049047Y-94594819D01*
X90049047Y-94594819D02*
X90144285Y-94642438D01*
X90144285Y-94642438D02*
X90191904Y-94690057D01*
X90191904Y-94690057D02*
X90239523Y-94785295D01*
X90239523Y-94785295D02*
X90239523Y-94880533D01*
X90239523Y-94880533D02*
X90191904Y-95023390D01*
X90191904Y-95023390D02*
X89620476Y-95594819D01*
X89620476Y-95594819D02*
X90239523Y-95594819D01*
X90620476Y-94690057D02*
X90668095Y-94642438D01*
X90668095Y-94642438D02*
X90763333Y-94594819D01*
X90763333Y-94594819D02*
X91001428Y-94594819D01*
X91001428Y-94594819D02*
X91096666Y-94642438D01*
X91096666Y-94642438D02*
X91144285Y-94690057D01*
X91144285Y-94690057D02*
X91191904Y-94785295D01*
X91191904Y-94785295D02*
X91191904Y-94880533D01*
X91191904Y-94880533D02*
X91144285Y-95023390D01*
X91144285Y-95023390D02*
X90572857Y-95594819D01*
X90572857Y-95594819D02*
X91191904Y-95594819D01*
X89287142Y-92149580D02*
X89239523Y-92197200D01*
X89239523Y-92197200D02*
X89096666Y-92244819D01*
X89096666Y-92244819D02*
X89001428Y-92244819D01*
X89001428Y-92244819D02*
X88858571Y-92197200D01*
X88858571Y-92197200D02*
X88763333Y-92101961D01*
X88763333Y-92101961D02*
X88715714Y-92006723D01*
X88715714Y-92006723D02*
X88668095Y-91816247D01*
X88668095Y-91816247D02*
X88668095Y-91673390D01*
X88668095Y-91673390D02*
X88715714Y-91482914D01*
X88715714Y-91482914D02*
X88763333Y-91387676D01*
X88763333Y-91387676D02*
X88858571Y-91292438D01*
X88858571Y-91292438D02*
X89001428Y-91244819D01*
X89001428Y-91244819D02*
X89096666Y-91244819D01*
X89096666Y-91244819D02*
X89239523Y-91292438D01*
X89239523Y-91292438D02*
X89287142Y-91340057D01*
X89668095Y-91340057D02*
X89715714Y-91292438D01*
X89715714Y-91292438D02*
X89810952Y-91244819D01*
X89810952Y-91244819D02*
X90049047Y-91244819D01*
X90049047Y-91244819D02*
X90144285Y-91292438D01*
X90144285Y-91292438D02*
X90191904Y-91340057D01*
X90191904Y-91340057D02*
X90239523Y-91435295D01*
X90239523Y-91435295D02*
X90239523Y-91530533D01*
X90239523Y-91530533D02*
X90191904Y-91673390D01*
X90191904Y-91673390D02*
X89620476Y-92244819D01*
X89620476Y-92244819D02*
X90239523Y-92244819D01*
X91191904Y-92244819D02*
X90620476Y-92244819D01*
X90906190Y-92244819D02*
X90906190Y-91244819D01*
X90906190Y-91244819D02*
X90810952Y-91387676D01*
X90810952Y-91387676D02*
X90715714Y-91482914D01*
X90715714Y-91482914D02*
X90620476Y-91530533D01*
X83457142Y-92149580D02*
X83409523Y-92197200D01*
X83409523Y-92197200D02*
X83266666Y-92244819D01*
X83266666Y-92244819D02*
X83171428Y-92244819D01*
X83171428Y-92244819D02*
X83028571Y-92197200D01*
X83028571Y-92197200D02*
X82933333Y-92101961D01*
X82933333Y-92101961D02*
X82885714Y-92006723D01*
X82885714Y-92006723D02*
X82838095Y-91816247D01*
X82838095Y-91816247D02*
X82838095Y-91673390D01*
X82838095Y-91673390D02*
X82885714Y-91482914D01*
X82885714Y-91482914D02*
X82933333Y-91387676D01*
X82933333Y-91387676D02*
X83028571Y-91292438D01*
X83028571Y-91292438D02*
X83171428Y-91244819D01*
X83171428Y-91244819D02*
X83266666Y-91244819D01*
X83266666Y-91244819D02*
X83409523Y-91292438D01*
X83409523Y-91292438D02*
X83457142Y-91340057D01*
X83838095Y-91340057D02*
X83885714Y-91292438D01*
X83885714Y-91292438D02*
X83980952Y-91244819D01*
X83980952Y-91244819D02*
X84219047Y-91244819D01*
X84219047Y-91244819D02*
X84314285Y-91292438D01*
X84314285Y-91292438D02*
X84361904Y-91340057D01*
X84361904Y-91340057D02*
X84409523Y-91435295D01*
X84409523Y-91435295D02*
X84409523Y-91530533D01*
X84409523Y-91530533D02*
X84361904Y-91673390D01*
X84361904Y-91673390D02*
X83790476Y-92244819D01*
X83790476Y-92244819D02*
X84409523Y-92244819D01*
X85028571Y-91244819D02*
X85123809Y-91244819D01*
X85123809Y-91244819D02*
X85219047Y-91292438D01*
X85219047Y-91292438D02*
X85266666Y-91340057D01*
X85266666Y-91340057D02*
X85314285Y-91435295D01*
X85314285Y-91435295D02*
X85361904Y-91625771D01*
X85361904Y-91625771D02*
X85361904Y-91863866D01*
X85361904Y-91863866D02*
X85314285Y-92054342D01*
X85314285Y-92054342D02*
X85266666Y-92149580D01*
X85266666Y-92149580D02*
X85219047Y-92197200D01*
X85219047Y-92197200D02*
X85123809Y-92244819D01*
X85123809Y-92244819D02*
X85028571Y-92244819D01*
X85028571Y-92244819D02*
X84933333Y-92197200D01*
X84933333Y-92197200D02*
X84885714Y-92149580D01*
X84885714Y-92149580D02*
X84838095Y-92054342D01*
X84838095Y-92054342D02*
X84790476Y-91863866D01*
X84790476Y-91863866D02*
X84790476Y-91625771D01*
X84790476Y-91625771D02*
X84838095Y-91435295D01*
X84838095Y-91435295D02*
X84885714Y-91340057D01*
X84885714Y-91340057D02*
X84933333Y-91292438D01*
X84933333Y-91292438D02*
X85028571Y-91244819D01*
X77397142Y-101959580D02*
X77349523Y-102007200D01*
X77349523Y-102007200D02*
X77206666Y-102054819D01*
X77206666Y-102054819D02*
X77111428Y-102054819D01*
X77111428Y-102054819D02*
X76968571Y-102007200D01*
X76968571Y-102007200D02*
X76873333Y-101911961D01*
X76873333Y-101911961D02*
X76825714Y-101816723D01*
X76825714Y-101816723D02*
X76778095Y-101626247D01*
X76778095Y-101626247D02*
X76778095Y-101483390D01*
X76778095Y-101483390D02*
X76825714Y-101292914D01*
X76825714Y-101292914D02*
X76873333Y-101197676D01*
X76873333Y-101197676D02*
X76968571Y-101102438D01*
X76968571Y-101102438D02*
X77111428Y-101054819D01*
X77111428Y-101054819D02*
X77206666Y-101054819D01*
X77206666Y-101054819D02*
X77349523Y-101102438D01*
X77349523Y-101102438D02*
X77397142Y-101150057D01*
X78349523Y-102054819D02*
X77778095Y-102054819D01*
X78063809Y-102054819D02*
X78063809Y-101054819D01*
X78063809Y-101054819D02*
X77968571Y-101197676D01*
X77968571Y-101197676D02*
X77873333Y-101292914D01*
X77873333Y-101292914D02*
X77778095Y-101340533D01*
X78825714Y-102054819D02*
X79016190Y-102054819D01*
X79016190Y-102054819D02*
X79111428Y-102007200D01*
X79111428Y-102007200D02*
X79159047Y-101959580D01*
X79159047Y-101959580D02*
X79254285Y-101816723D01*
X79254285Y-101816723D02*
X79301904Y-101626247D01*
X79301904Y-101626247D02*
X79301904Y-101245295D01*
X79301904Y-101245295D02*
X79254285Y-101150057D01*
X79254285Y-101150057D02*
X79206666Y-101102438D01*
X79206666Y-101102438D02*
X79111428Y-101054819D01*
X79111428Y-101054819D02*
X78920952Y-101054819D01*
X78920952Y-101054819D02*
X78825714Y-101102438D01*
X78825714Y-101102438D02*
X78778095Y-101150057D01*
X78778095Y-101150057D02*
X78730476Y-101245295D01*
X78730476Y-101245295D02*
X78730476Y-101483390D01*
X78730476Y-101483390D02*
X78778095Y-101578628D01*
X78778095Y-101578628D02*
X78825714Y-101626247D01*
X78825714Y-101626247D02*
X78920952Y-101673866D01*
X78920952Y-101673866D02*
X79111428Y-101673866D01*
X79111428Y-101673866D02*
X79206666Y-101626247D01*
X79206666Y-101626247D02*
X79254285Y-101578628D01*
X79254285Y-101578628D02*
X79301904Y-101483390D01*
X69607142Y-73739580D02*
X69559523Y-73787200D01*
X69559523Y-73787200D02*
X69416666Y-73834819D01*
X69416666Y-73834819D02*
X69321428Y-73834819D01*
X69321428Y-73834819D02*
X69178571Y-73787200D01*
X69178571Y-73787200D02*
X69083333Y-73691961D01*
X69083333Y-73691961D02*
X69035714Y-73596723D01*
X69035714Y-73596723D02*
X68988095Y-73406247D01*
X68988095Y-73406247D02*
X68988095Y-73263390D01*
X68988095Y-73263390D02*
X69035714Y-73072914D01*
X69035714Y-73072914D02*
X69083333Y-72977676D01*
X69083333Y-72977676D02*
X69178571Y-72882438D01*
X69178571Y-72882438D02*
X69321428Y-72834819D01*
X69321428Y-72834819D02*
X69416666Y-72834819D01*
X69416666Y-72834819D02*
X69559523Y-72882438D01*
X69559523Y-72882438D02*
X69607142Y-72930057D01*
X70559523Y-73834819D02*
X69988095Y-73834819D01*
X70273809Y-73834819D02*
X70273809Y-72834819D01*
X70273809Y-72834819D02*
X70178571Y-72977676D01*
X70178571Y-72977676D02*
X70083333Y-73072914D01*
X70083333Y-73072914D02*
X69988095Y-73120533D01*
X71130952Y-73263390D02*
X71035714Y-73215771D01*
X71035714Y-73215771D02*
X70988095Y-73168152D01*
X70988095Y-73168152D02*
X70940476Y-73072914D01*
X70940476Y-73072914D02*
X70940476Y-73025295D01*
X70940476Y-73025295D02*
X70988095Y-72930057D01*
X70988095Y-72930057D02*
X71035714Y-72882438D01*
X71035714Y-72882438D02*
X71130952Y-72834819D01*
X71130952Y-72834819D02*
X71321428Y-72834819D01*
X71321428Y-72834819D02*
X71416666Y-72882438D01*
X71416666Y-72882438D02*
X71464285Y-72930057D01*
X71464285Y-72930057D02*
X71511904Y-73025295D01*
X71511904Y-73025295D02*
X71511904Y-73072914D01*
X71511904Y-73072914D02*
X71464285Y-73168152D01*
X71464285Y-73168152D02*
X71416666Y-73215771D01*
X71416666Y-73215771D02*
X71321428Y-73263390D01*
X71321428Y-73263390D02*
X71130952Y-73263390D01*
X71130952Y-73263390D02*
X71035714Y-73311009D01*
X71035714Y-73311009D02*
X70988095Y-73358628D01*
X70988095Y-73358628D02*
X70940476Y-73453866D01*
X70940476Y-73453866D02*
X70940476Y-73644342D01*
X70940476Y-73644342D02*
X70988095Y-73739580D01*
X70988095Y-73739580D02*
X71035714Y-73787200D01*
X71035714Y-73787200D02*
X71130952Y-73834819D01*
X71130952Y-73834819D02*
X71321428Y-73834819D01*
X71321428Y-73834819D02*
X71416666Y-73787200D01*
X71416666Y-73787200D02*
X71464285Y-73739580D01*
X71464285Y-73739580D02*
X71511904Y-73644342D01*
X71511904Y-73644342D02*
X71511904Y-73453866D01*
X71511904Y-73453866D02*
X71464285Y-73358628D01*
X71464285Y-73358628D02*
X71416666Y-73311009D01*
X71416666Y-73311009D02*
X71321428Y-73263390D01*
X73787142Y-103929580D02*
X73739523Y-103977200D01*
X73739523Y-103977200D02*
X73596666Y-104024819D01*
X73596666Y-104024819D02*
X73501428Y-104024819D01*
X73501428Y-104024819D02*
X73358571Y-103977200D01*
X73358571Y-103977200D02*
X73263333Y-103881961D01*
X73263333Y-103881961D02*
X73215714Y-103786723D01*
X73215714Y-103786723D02*
X73168095Y-103596247D01*
X73168095Y-103596247D02*
X73168095Y-103453390D01*
X73168095Y-103453390D02*
X73215714Y-103262914D01*
X73215714Y-103262914D02*
X73263333Y-103167676D01*
X73263333Y-103167676D02*
X73358571Y-103072438D01*
X73358571Y-103072438D02*
X73501428Y-103024819D01*
X73501428Y-103024819D02*
X73596666Y-103024819D01*
X73596666Y-103024819D02*
X73739523Y-103072438D01*
X73739523Y-103072438D02*
X73787142Y-103120057D01*
X74739523Y-104024819D02*
X74168095Y-104024819D01*
X74453809Y-104024819D02*
X74453809Y-103024819D01*
X74453809Y-103024819D02*
X74358571Y-103167676D01*
X74358571Y-103167676D02*
X74263333Y-103262914D01*
X74263333Y-103262914D02*
X74168095Y-103310533D01*
X75072857Y-103024819D02*
X75739523Y-103024819D01*
X75739523Y-103024819D02*
X75310952Y-104024819D01*
X73787142Y-101959580D02*
X73739523Y-102007200D01*
X73739523Y-102007200D02*
X73596666Y-102054819D01*
X73596666Y-102054819D02*
X73501428Y-102054819D01*
X73501428Y-102054819D02*
X73358571Y-102007200D01*
X73358571Y-102007200D02*
X73263333Y-101911961D01*
X73263333Y-101911961D02*
X73215714Y-101816723D01*
X73215714Y-101816723D02*
X73168095Y-101626247D01*
X73168095Y-101626247D02*
X73168095Y-101483390D01*
X73168095Y-101483390D02*
X73215714Y-101292914D01*
X73215714Y-101292914D02*
X73263333Y-101197676D01*
X73263333Y-101197676D02*
X73358571Y-101102438D01*
X73358571Y-101102438D02*
X73501428Y-101054819D01*
X73501428Y-101054819D02*
X73596666Y-101054819D01*
X73596666Y-101054819D02*
X73739523Y-101102438D01*
X73739523Y-101102438D02*
X73787142Y-101150057D01*
X74739523Y-102054819D02*
X74168095Y-102054819D01*
X74453809Y-102054819D02*
X74453809Y-101054819D01*
X74453809Y-101054819D02*
X74358571Y-101197676D01*
X74358571Y-101197676D02*
X74263333Y-101292914D01*
X74263333Y-101292914D02*
X74168095Y-101340533D01*
X75596666Y-101054819D02*
X75406190Y-101054819D01*
X75406190Y-101054819D02*
X75310952Y-101102438D01*
X75310952Y-101102438D02*
X75263333Y-101150057D01*
X75263333Y-101150057D02*
X75168095Y-101292914D01*
X75168095Y-101292914D02*
X75120476Y-101483390D01*
X75120476Y-101483390D02*
X75120476Y-101864342D01*
X75120476Y-101864342D02*
X75168095Y-101959580D01*
X75168095Y-101959580D02*
X75215714Y-102007200D01*
X75215714Y-102007200D02*
X75310952Y-102054819D01*
X75310952Y-102054819D02*
X75501428Y-102054819D01*
X75501428Y-102054819D02*
X75596666Y-102007200D01*
X75596666Y-102007200D02*
X75644285Y-101959580D01*
X75644285Y-101959580D02*
X75691904Y-101864342D01*
X75691904Y-101864342D02*
X75691904Y-101626247D01*
X75691904Y-101626247D02*
X75644285Y-101531009D01*
X75644285Y-101531009D02*
X75596666Y-101483390D01*
X75596666Y-101483390D02*
X75501428Y-101435771D01*
X75501428Y-101435771D02*
X75310952Y-101435771D01*
X75310952Y-101435771D02*
X75215714Y-101483390D01*
X75215714Y-101483390D02*
X75168095Y-101531009D01*
X75168095Y-101531009D02*
X75120476Y-101626247D01*
X83457142Y-88799580D02*
X83409523Y-88847200D01*
X83409523Y-88847200D02*
X83266666Y-88894819D01*
X83266666Y-88894819D02*
X83171428Y-88894819D01*
X83171428Y-88894819D02*
X83028571Y-88847200D01*
X83028571Y-88847200D02*
X82933333Y-88751961D01*
X82933333Y-88751961D02*
X82885714Y-88656723D01*
X82885714Y-88656723D02*
X82838095Y-88466247D01*
X82838095Y-88466247D02*
X82838095Y-88323390D01*
X82838095Y-88323390D02*
X82885714Y-88132914D01*
X82885714Y-88132914D02*
X82933333Y-88037676D01*
X82933333Y-88037676D02*
X83028571Y-87942438D01*
X83028571Y-87942438D02*
X83171428Y-87894819D01*
X83171428Y-87894819D02*
X83266666Y-87894819D01*
X83266666Y-87894819D02*
X83409523Y-87942438D01*
X83409523Y-87942438D02*
X83457142Y-87990057D01*
X84409523Y-88894819D02*
X83838095Y-88894819D01*
X84123809Y-88894819D02*
X84123809Y-87894819D01*
X84123809Y-87894819D02*
X84028571Y-88037676D01*
X84028571Y-88037676D02*
X83933333Y-88132914D01*
X83933333Y-88132914D02*
X83838095Y-88180533D01*
X85314285Y-87894819D02*
X84838095Y-87894819D01*
X84838095Y-87894819D02*
X84790476Y-88371009D01*
X84790476Y-88371009D02*
X84838095Y-88323390D01*
X84838095Y-88323390D02*
X84933333Y-88275771D01*
X84933333Y-88275771D02*
X85171428Y-88275771D01*
X85171428Y-88275771D02*
X85266666Y-88323390D01*
X85266666Y-88323390D02*
X85314285Y-88371009D01*
X85314285Y-88371009D02*
X85361904Y-88466247D01*
X85361904Y-88466247D02*
X85361904Y-88704342D01*
X85361904Y-88704342D02*
X85314285Y-88799580D01*
X85314285Y-88799580D02*
X85266666Y-88847200D01*
X85266666Y-88847200D02*
X85171428Y-88894819D01*
X85171428Y-88894819D02*
X84933333Y-88894819D01*
X84933333Y-88894819D02*
X84838095Y-88847200D01*
X84838095Y-88847200D02*
X84790476Y-88799580D01*
X77797142Y-109489580D02*
X77749523Y-109537200D01*
X77749523Y-109537200D02*
X77606666Y-109584819D01*
X77606666Y-109584819D02*
X77511428Y-109584819D01*
X77511428Y-109584819D02*
X77368571Y-109537200D01*
X77368571Y-109537200D02*
X77273333Y-109441961D01*
X77273333Y-109441961D02*
X77225714Y-109346723D01*
X77225714Y-109346723D02*
X77178095Y-109156247D01*
X77178095Y-109156247D02*
X77178095Y-109013390D01*
X77178095Y-109013390D02*
X77225714Y-108822914D01*
X77225714Y-108822914D02*
X77273333Y-108727676D01*
X77273333Y-108727676D02*
X77368571Y-108632438D01*
X77368571Y-108632438D02*
X77511428Y-108584819D01*
X77511428Y-108584819D02*
X77606666Y-108584819D01*
X77606666Y-108584819D02*
X77749523Y-108632438D01*
X77749523Y-108632438D02*
X77797142Y-108680057D01*
X78749523Y-109584819D02*
X78178095Y-109584819D01*
X78463809Y-109584819D02*
X78463809Y-108584819D01*
X78463809Y-108584819D02*
X78368571Y-108727676D01*
X78368571Y-108727676D02*
X78273333Y-108822914D01*
X78273333Y-108822914D02*
X78178095Y-108870533D01*
X79606666Y-108918152D02*
X79606666Y-109584819D01*
X79368571Y-108537200D02*
X79130476Y-109251485D01*
X79130476Y-109251485D02*
X79749523Y-109251485D01*
X89763333Y-88799580D02*
X89715714Y-88847200D01*
X89715714Y-88847200D02*
X89572857Y-88894819D01*
X89572857Y-88894819D02*
X89477619Y-88894819D01*
X89477619Y-88894819D02*
X89334762Y-88847200D01*
X89334762Y-88847200D02*
X89239524Y-88751961D01*
X89239524Y-88751961D02*
X89191905Y-88656723D01*
X89191905Y-88656723D02*
X89144286Y-88466247D01*
X89144286Y-88466247D02*
X89144286Y-88323390D01*
X89144286Y-88323390D02*
X89191905Y-88132914D01*
X89191905Y-88132914D02*
X89239524Y-88037676D01*
X89239524Y-88037676D02*
X89334762Y-87942438D01*
X89334762Y-87942438D02*
X89477619Y-87894819D01*
X89477619Y-87894819D02*
X89572857Y-87894819D01*
X89572857Y-87894819D02*
X89715714Y-87942438D01*
X89715714Y-87942438D02*
X89763333Y-87990057D01*
X90715714Y-88894819D02*
X90144286Y-88894819D01*
X90430000Y-88894819D02*
X90430000Y-87894819D01*
X90430000Y-87894819D02*
X90334762Y-88037676D01*
X90334762Y-88037676D02*
X90239524Y-88132914D01*
X90239524Y-88132914D02*
X90144286Y-88180533D01*
D12*
%TO.C,U15*%
X77050000Y-95990000D02*
X75100000Y-95990000D01*
X77050000Y-95990000D02*
X79000000Y-95990000D01*
X77050000Y-101110000D02*
X75100000Y-101110000D01*
X77050000Y-101110000D02*
X79000000Y-101110000D01*
X74350000Y-96085000D02*
X74110000Y-95755000D01*
X74590000Y-95755000D01*
X74350000Y-96085000D01*
G36*
X74350000Y-96085000D02*
G01*
X74110000Y-95755000D01*
X74590000Y-95755000D01*
X74350000Y-96085000D01*
G37*
D13*
%TO.C,U13*%
X97605000Y-103290000D02*
G75*
G02*
X97405000Y-103290000I-100000J0D01*
G01*
X97405000Y-103290000D02*
G75*
G02*
X97605000Y-103290000I100000J0D01*
G01*
D12*
%TO.C,U12*%
X81525000Y-80705000D02*
X79325000Y-80705000D01*
X81525000Y-80705000D02*
X83725000Y-80705000D01*
X81525000Y-86175000D02*
X79325000Y-86175000D01*
X81525000Y-86175000D02*
X83725000Y-86175000D01*
X77665000Y-81165000D02*
X77335000Y-81405000D01*
X77335000Y-80925000D01*
X77665000Y-81165000D01*
G36*
X77665000Y-81165000D02*
G01*
X77335000Y-81405000D01*
X77335000Y-80925000D01*
X77665000Y-81165000D01*
G37*
%TO.C,U11*%
X81525000Y-74115000D02*
X79325000Y-74115000D01*
X81525000Y-74115000D02*
X83725000Y-74115000D01*
X81525000Y-79585000D02*
X79325000Y-79585000D01*
X81525000Y-79585000D02*
X83725000Y-79585000D01*
X77665000Y-74575000D02*
X77335000Y-74815000D01*
X77335000Y-74335000D01*
X77665000Y-74575000D01*
G36*
X77665000Y-74575000D02*
G01*
X77335000Y-74815000D01*
X77335000Y-74335000D01*
X77665000Y-74575000D01*
G37*
%TO.C,U9*%
X97180000Y-89505000D02*
X95230000Y-89505000D01*
X97180000Y-89505000D02*
X99130000Y-89505000D01*
X97180000Y-94625000D02*
X95230000Y-94625000D01*
X97180000Y-94625000D02*
X99130000Y-94625000D01*
X94467500Y-89505000D02*
X94227500Y-89175000D01*
X94707500Y-89175000D01*
X94467500Y-89505000D01*
G36*
X94467500Y-89505000D02*
G01*
X94227500Y-89175000D01*
X94707500Y-89175000D01*
X94467500Y-89505000D01*
G37*
D10*
%TO.C,U6*%
X89125000Y-108880000D02*
X93275000Y-108880000D01*
X89125000Y-114030000D02*
X93275000Y-114030000D01*
D12*
X88700000Y-108955000D02*
X88460000Y-108625000D01*
X88940000Y-108625000D01*
X88700000Y-108955000D01*
G36*
X88700000Y-108955000D02*
G01*
X88460000Y-108625000D01*
X88940000Y-108625000D01*
X88700000Y-108955000D01*
G37*
%TO.C,U1*%
X77050000Y-89410000D02*
X75100000Y-89410000D01*
X77050000Y-89410000D02*
X79000000Y-89410000D01*
X77050000Y-94530000D02*
X75100000Y-94530000D01*
X77050000Y-94530000D02*
X79000000Y-94530000D01*
X74350000Y-89505000D02*
X74110000Y-89175000D01*
X74590000Y-89175000D01*
X74350000Y-89505000D01*
G36*
X74350000Y-89505000D02*
G01*
X74110000Y-89175000D01*
X74590000Y-89175000D01*
X74350000Y-89505000D01*
G37*
%TO.C,R34*%
X74345276Y-84327500D02*
X74854724Y-84327500D01*
X74345276Y-85372500D02*
X74854724Y-85372500D01*
%TO.C,R33*%
X74345276Y-81817500D02*
X74854724Y-81817500D01*
X74345276Y-82862500D02*
X74854724Y-82862500D01*
%TO.C,R32*%
X74345276Y-79307500D02*
X74854724Y-79307500D01*
X74345276Y-80352500D02*
X74854724Y-80352500D01*
%TO.C,R31*%
X74345276Y-76797500D02*
X74854724Y-76797500D01*
X74345276Y-77842500D02*
X74854724Y-77842500D01*
%TO.C,R30*%
X74345276Y-74287500D02*
X74854724Y-74287500D01*
X74345276Y-75332500D02*
X74854724Y-75332500D01*
%TO.C,R29*%
X69995276Y-86837500D02*
X70504724Y-86837500D01*
X69995276Y-87882500D02*
X70504724Y-87882500D01*
%TO.C,R28*%
X70222936Y-110005000D02*
X70677064Y-110005000D01*
X70222936Y-111475000D02*
X70677064Y-111475000D01*
%TO.C,R27*%
X70222936Y-107055000D02*
X70677064Y-107055000D01*
X70222936Y-108525000D02*
X70677064Y-108525000D01*
%TO.C,R26*%
X69995276Y-84327500D02*
X70504724Y-84327500D01*
X69995276Y-85372500D02*
X70504724Y-85372500D01*
%TO.C,R25*%
X69995276Y-81817500D02*
X70504724Y-81817500D01*
X69995276Y-82862500D02*
X70504724Y-82862500D01*
%TO.C,R21*%
X97722936Y-112090000D02*
X99177064Y-112090000D01*
X97722936Y-113910000D02*
X99177064Y-113910000D01*
%TO.C,R19*%
X69995276Y-79307500D02*
X70504724Y-79307500D01*
X69995276Y-80352500D02*
X70504724Y-80352500D01*
%TO.C,R18*%
X69995276Y-76797500D02*
X70504724Y-76797500D01*
X69995276Y-77842500D02*
X70504724Y-77842500D01*
%TO.C,R16*%
X70222936Y-104105000D02*
X70677064Y-104105000D01*
X70222936Y-105575000D02*
X70677064Y-105575000D01*
%TO.C,R15*%
X87352379Y-84910000D02*
X87687621Y-84910000D01*
X87352379Y-85670000D02*
X87687621Y-85670000D01*
%TO.C,R8*%
X70222936Y-101155000D02*
X70677064Y-101155000D01*
X70222936Y-102625000D02*
X70677064Y-102625000D01*
%TO.C,R7*%
X70222936Y-98205000D02*
X70677064Y-98205000D01*
X70222936Y-99675000D02*
X70677064Y-99675000D01*
%TO.C,R6*%
X83252936Y-113985000D02*
X83707064Y-113985000D01*
X83252936Y-115455000D02*
X83707064Y-115455000D01*
%TO.C,R5*%
X97722936Y-108800000D02*
X99177064Y-108800000D01*
X97722936Y-110620000D02*
X99177064Y-110620000D01*
%TO.C,R4*%
X70222936Y-95255000D02*
X70677064Y-95255000D01*
X70222936Y-96725000D02*
X70677064Y-96725000D01*
%TO.C,R3*%
X70222936Y-92305000D02*
X70677064Y-92305000D01*
X70222936Y-93775000D02*
X70677064Y-93775000D01*
%TO.C,R2*%
X70222936Y-89355000D02*
X70677064Y-89355000D01*
X70222936Y-90825000D02*
X70677064Y-90825000D01*
%TO.C,R1*%
X88062936Y-80140000D02*
X92417064Y-80140000D01*
X88062936Y-83560000D02*
X92417064Y-83560000D01*
%TO.C,Q2*%
X97890000Y-74395000D02*
X97240000Y-74395000D01*
X97890000Y-74395000D02*
X98540000Y-74395000D01*
X97890000Y-77515000D02*
X97240000Y-77515000D01*
X97890000Y-77515000D02*
X98540000Y-77515000D01*
X96727500Y-74445000D02*
X96487500Y-74115000D01*
X96967500Y-74115000D01*
X96727500Y-74445000D01*
G36*
X96727500Y-74445000D02*
G01*
X96487500Y-74115000D01*
X96967500Y-74115000D01*
X96727500Y-74445000D01*
G37*
%TO.C,L2*%
X95775000Y-79965000D02*
X95775000Y-80815000D01*
X95775000Y-79965000D02*
X100145000Y-79965000D01*
X95775000Y-84685000D02*
X95775000Y-83835000D01*
X95775000Y-84685000D02*
X100145000Y-84685000D01*
X100145000Y-79965000D02*
X100145000Y-80815000D01*
X100145000Y-84685000D02*
X100145000Y-83835000D01*
%TO.C,L1*%
X92320000Y-105040000D02*
X93730000Y-105040000D01*
X92320000Y-105040000D02*
G75*
G02*
X87580000Y-105040000I-2370000J0D01*
G01*
X87580000Y-105040000D02*
G75*
G02*
X92320000Y-105040000I2370000J0D01*
G01*
%TO.C,J2*%
X86510000Y-76290000D02*
X86510000Y-78790000D01*
X86510000Y-78790000D02*
X89010000Y-78790000D01*
X86810000Y-74470000D02*
X86810000Y-78490000D01*
X86810000Y-76180000D02*
X87310000Y-76180000D01*
X86810000Y-76990000D02*
X87810000Y-76990000D01*
X86810000Y-78490000D02*
X94530000Y-78490000D01*
X87310000Y-74970000D02*
X94030000Y-74970000D01*
X87310000Y-76180000D02*
X87310000Y-74970000D01*
X87810000Y-76990000D02*
X87810000Y-78490000D01*
X93530000Y-76990000D02*
X93530000Y-78490000D01*
X94030000Y-74970000D02*
X94030000Y-76180000D01*
X94030000Y-76180000D02*
X94530000Y-76180000D01*
X94530000Y-74470000D02*
X86810000Y-74470000D01*
X94530000Y-76990000D02*
X93530000Y-76990000D01*
X94530000Y-78490000D02*
X94530000Y-74470000D01*
%TO.C,J1*%
X61920000Y-74550000D02*
X61920000Y-115310000D01*
X61920000Y-74550000D02*
X64520000Y-74550000D01*
X61920000Y-115310000D02*
X67120000Y-115310000D01*
X64520000Y-74550000D02*
X64520000Y-77150000D01*
X64520000Y-77150000D02*
X67120000Y-77150000D01*
X65790000Y-74550000D02*
X67120000Y-74550000D01*
X67120000Y-74550000D02*
X67120000Y-75880000D01*
X67120000Y-77150000D02*
X67120000Y-115310000D01*
%TO.C,C41*%
X78178748Y-113085000D02*
X78701252Y-113085000D01*
X78178748Y-114555000D02*
X78701252Y-114555000D01*
%TO.C,C37*%
X77899420Y-107540000D02*
X78180580Y-107540000D01*
X77899420Y-108560000D02*
X78180580Y-108560000D01*
%TO.C,C36*%
X77899420Y-105030000D02*
X78180580Y-105030000D01*
X77899420Y-106050000D02*
X78180580Y-106050000D01*
%TO.C,C35*%
X74314165Y-114220000D02*
X74545835Y-114220000D01*
X74314165Y-114940000D02*
X74545835Y-114940000D01*
%TO.C,C34*%
X74314165Y-112250000D02*
X74545835Y-112250000D01*
X74314165Y-112970000D02*
X74545835Y-112970000D01*
%TO.C,C33*%
X74314165Y-110280000D02*
X74545835Y-110280000D01*
X74314165Y-111000000D02*
X74545835Y-111000000D01*
%TO.C,C32*%
X74314165Y-108310000D02*
X74545835Y-108310000D01*
X74314165Y-109030000D02*
X74545835Y-109030000D01*
%TO.C,C31*%
X82602164Y-111900000D02*
X82817836Y-111900000D01*
X82602164Y-112620000D02*
X82817836Y-112620000D01*
%TO.C,C30*%
X82602164Y-109930000D02*
X82817836Y-109930000D01*
X82602164Y-110650000D02*
X82817836Y-110650000D01*
%TO.C,C29*%
X82602164Y-107960000D02*
X82817836Y-107960000D01*
X82602164Y-108680000D02*
X82817836Y-108680000D01*
%TO.C,C28*%
X82602164Y-105990000D02*
X82817836Y-105990000D01*
X82602164Y-106710000D02*
X82817836Y-106710000D01*
%TO.C,C27*%
X83388748Y-102780000D02*
X84811252Y-102780000D01*
X83388748Y-104600000D02*
X84811252Y-104600000D01*
%TO.C,C26*%
X83388748Y-99430000D02*
X84811252Y-99430000D01*
X83388748Y-101250000D02*
X84811252Y-101250000D01*
%TO.C,C25*%
X83388748Y-96080000D02*
X84811252Y-96080000D01*
X83388748Y-97900000D02*
X84811252Y-97900000D01*
%TO.C,C24*%
X74314165Y-106340000D02*
X74545835Y-106340000D01*
X74314165Y-107060000D02*
X74545835Y-107060000D01*
%TO.C,C23*%
X89218748Y-99430000D02*
X90641252Y-99430000D01*
X89218748Y-101250000D02*
X90641252Y-101250000D01*
%TO.C,C22*%
X89218748Y-96080000D02*
X90641252Y-96080000D01*
X89218748Y-97900000D02*
X90641252Y-97900000D01*
%TO.C,C21*%
X89218748Y-92730000D02*
X90641252Y-92730000D01*
X89218748Y-94550000D02*
X90641252Y-94550000D01*
%TO.C,C20*%
X83388748Y-92730000D02*
X84811252Y-92730000D01*
X83388748Y-94550000D02*
X84811252Y-94550000D01*
%TO.C,C19*%
X77899420Y-102520000D02*
X78180580Y-102520000D01*
X77899420Y-103540000D02*
X78180580Y-103540000D01*
%TO.C,C18*%
X70103733Y-74300000D02*
X70396267Y-74300000D01*
X70103733Y-75320000D02*
X70396267Y-75320000D01*
%TO.C,C17*%
X74314165Y-104370000D02*
X74545835Y-104370000D01*
X74314165Y-105090000D02*
X74545835Y-105090000D01*
%TO.C,C16*%
X74314165Y-102400000D02*
X74545835Y-102400000D01*
X74314165Y-103120000D02*
X74545835Y-103120000D01*
%TO.C,C15*%
X83388748Y-89380000D02*
X84811252Y-89380000D01*
X83388748Y-91200000D02*
X84811252Y-91200000D01*
%TO.C,C14*%
X78178748Y-110075000D02*
X78701252Y-110075000D01*
X78178748Y-111545000D02*
X78701252Y-111545000D01*
%TO.C,C1*%
X89218748Y-89380000D02*
X90641252Y-89380000D01*
X89218748Y-91200000D02*
X90641252Y-91200000D01*
%TD*%
%LPC*%
D14*
%TO.C,U13*%
X99780000Y-105615000D02*
X98730000Y-105615000D01*
X98730000Y-103140000D01*
X98739000Y-103140000D01*
X98748000Y-103139000D01*
X98757000Y-103138000D01*
X98766000Y-103136000D01*
X98775000Y-103134000D01*
X98784000Y-103131000D01*
X98793000Y-103128000D01*
X98801000Y-103125000D01*
X98809000Y-103121000D01*
X98817000Y-103117000D01*
X98825000Y-103112000D01*
X98833000Y-103107000D01*
X98840000Y-103101000D01*
X98847000Y-103095000D01*
X98854000Y-103089000D01*
X98860000Y-103082000D01*
X98866000Y-103075000D01*
X98872000Y-103068000D01*
X98877000Y-103060000D01*
X98882000Y-103053000D01*
X98886000Y-103044000D01*
X98890000Y-103036000D01*
X98893000Y-103028000D01*
X98896000Y-103019000D01*
X98899000Y-103010000D01*
X98901000Y-103001000D01*
X98903000Y-102992000D01*
X98904000Y-102983000D01*
X98905000Y-102974000D01*
X98905000Y-102965000D01*
X99780000Y-102965000D01*
X99780000Y-105615000D01*
G36*
X99780000Y-105615000D02*
G01*
X98730000Y-105615000D01*
X98730000Y-103140000D01*
X98739000Y-103140000D01*
X98748000Y-103139000D01*
X98757000Y-103138000D01*
X98766000Y-103136000D01*
X98775000Y-103134000D01*
X98784000Y-103131000D01*
X98793000Y-103128000D01*
X98801000Y-103125000D01*
X98809000Y-103121000D01*
X98817000Y-103117000D01*
X98825000Y-103112000D01*
X98833000Y-103107000D01*
X98840000Y-103101000D01*
X98847000Y-103095000D01*
X98854000Y-103089000D01*
X98860000Y-103082000D01*
X98866000Y-103075000D01*
X98872000Y-103068000D01*
X98877000Y-103060000D01*
X98882000Y-103053000D01*
X98886000Y-103044000D01*
X98890000Y-103036000D01*
X98893000Y-103028000D01*
X98896000Y-103019000D01*
X98899000Y-103010000D01*
X98901000Y-103001000D01*
X98903000Y-102992000D01*
X98904000Y-102983000D01*
X98905000Y-102974000D01*
X98905000Y-102965000D01*
X99780000Y-102965000D01*
X99780000Y-105615000D01*
G37*
X98705000Y-104465000D02*
X98105000Y-104465000D01*
X98105000Y-104115000D01*
X98705000Y-104115000D01*
X98705000Y-104465000D01*
G36*
X98705000Y-104465000D02*
G01*
X98105000Y-104465000D01*
X98105000Y-104115000D01*
X98705000Y-104115000D01*
X98705000Y-104465000D01*
G37*
X100405000Y-104465000D02*
X99805000Y-104465000D01*
X99805000Y-104115000D01*
X100405000Y-104115000D01*
X100405000Y-104465000D01*
G36*
X100405000Y-104465000D02*
G01*
X99805000Y-104465000D01*
X99805000Y-104115000D01*
X100405000Y-104115000D01*
X100405000Y-104465000D01*
G37*
X98705000Y-104065000D02*
X98105000Y-104065000D01*
X98105000Y-103715000D01*
X98705000Y-103715000D01*
X98705000Y-104065000D01*
G36*
X98705000Y-104065000D02*
G01*
X98105000Y-104065000D01*
X98105000Y-103715000D01*
X98705000Y-103715000D01*
X98705000Y-104065000D01*
G37*
X98705000Y-104865000D02*
X98105000Y-104865000D01*
X98105000Y-104515000D01*
X98705000Y-104515000D01*
X98705000Y-104865000D01*
G36*
X98705000Y-104865000D02*
G01*
X98105000Y-104865000D01*
X98105000Y-104515000D01*
X98705000Y-104515000D01*
X98705000Y-104865000D01*
G37*
X100405000Y-104065000D02*
X99805000Y-104065000D01*
X99805000Y-103715000D01*
X100405000Y-103715000D01*
X100405000Y-104065000D01*
G36*
X100405000Y-104065000D02*
G01*
X99805000Y-104065000D01*
X99805000Y-103715000D01*
X100405000Y-103715000D01*
X100405000Y-104065000D01*
G37*
X100405000Y-104865000D02*
X99805000Y-104865000D01*
X99805000Y-104515000D01*
X100405000Y-104515000D01*
X100405000Y-104865000D01*
G36*
X100405000Y-104865000D02*
G01*
X99805000Y-104865000D01*
X99805000Y-104515000D01*
X100405000Y-104515000D01*
X100405000Y-104865000D01*
G37*
X98705000Y-103665000D02*
X98105000Y-103665000D01*
X98105000Y-102915000D01*
X98705000Y-102915000D01*
X98705000Y-103665000D01*
G36*
X98705000Y-103665000D02*
G01*
X98105000Y-103665000D01*
X98105000Y-102915000D01*
X98705000Y-102915000D01*
X98705000Y-103665000D01*
G37*
X100405000Y-103665000D02*
X99805000Y-103665000D01*
X99805000Y-102915000D01*
X100405000Y-102915000D01*
X100405000Y-103665000D01*
G36*
X100405000Y-103665000D02*
G01*
X99805000Y-103665000D01*
X99805000Y-102915000D01*
X100405000Y-102915000D01*
X100405000Y-103665000D01*
G37*
X98705000Y-105665000D02*
X98105000Y-105665000D01*
X98105000Y-104915000D01*
X98705000Y-104915000D01*
X98705000Y-105665000D01*
G36*
X98705000Y-105665000D02*
G01*
X98105000Y-105665000D01*
X98105000Y-104915000D01*
X98705000Y-104915000D01*
X98705000Y-105665000D01*
G37*
X100405000Y-105665000D02*
X99805000Y-105665000D01*
X99805000Y-104915000D01*
X100405000Y-104915000D01*
X100405000Y-105665000D01*
G36*
X100405000Y-105665000D02*
G01*
X99805000Y-105665000D01*
X99805000Y-104915000D01*
X100405000Y-104915000D01*
X100405000Y-105665000D01*
G37*
%TD*%
D15*
%TO.C,U15*%
X74575000Y-96645000D03*
X74575000Y-97915000D03*
X74575000Y-99185000D03*
X74575000Y-100455000D03*
X79525000Y-100455000D03*
X79525000Y-99185000D03*
X79525000Y-97915000D03*
X79525000Y-96645000D03*
D16*
X77050000Y-98550000D03*
%TD*%
D17*
%TO.C,U12*%
X78662500Y-81165000D03*
X78662500Y-81815000D03*
X78662500Y-82465000D03*
X78662500Y-83115000D03*
X78662500Y-83765000D03*
X78662500Y-84415000D03*
X78662500Y-85065000D03*
X78662500Y-85715000D03*
X84387500Y-85715000D03*
X84387500Y-85065000D03*
X84387500Y-84415000D03*
X84387500Y-83765000D03*
X84387500Y-83115000D03*
X84387500Y-82465000D03*
X84387500Y-81815000D03*
X84387500Y-81165000D03*
%TD*%
%TO.C,U11*%
X78662500Y-74575000D03*
X78662500Y-75225000D03*
X78662500Y-75875000D03*
X78662500Y-76525000D03*
X78662500Y-77175000D03*
X78662500Y-77825000D03*
X78662500Y-78475000D03*
X78662500Y-79125000D03*
X84387500Y-79125000D03*
X84387500Y-78475000D03*
X84387500Y-77825000D03*
X84387500Y-77175000D03*
X84387500Y-76525000D03*
X84387500Y-75875000D03*
X84387500Y-75225000D03*
X84387500Y-74575000D03*
%TD*%
D18*
%TO.C,U9*%
X94542500Y-90065000D03*
X94542500Y-91065000D03*
X94542500Y-92065000D03*
X94542500Y-93065000D03*
X94542500Y-94065000D03*
X99817500Y-94065000D03*
X99817500Y-93065000D03*
X99817500Y-92065000D03*
X99817500Y-91065000D03*
X99817500Y-90065000D03*
D19*
X97180000Y-92065000D03*
%TD*%
D20*
%TO.C,U6*%
X88500000Y-109550000D03*
X88500000Y-110820000D03*
X88500000Y-112090000D03*
X88500000Y-113360000D03*
X93900000Y-113360000D03*
X93900000Y-112090000D03*
X93900000Y-110820000D03*
X93900000Y-109550000D03*
D21*
X91200000Y-111455000D03*
%TD*%
D15*
%TO.C,U1*%
X74575000Y-90065000D03*
X74575000Y-91335000D03*
X74575000Y-92605000D03*
X74575000Y-93875000D03*
X79525000Y-93875000D03*
X79525000Y-92605000D03*
X79525000Y-91335000D03*
X79525000Y-90065000D03*
%TD*%
D22*
%TO.C,R34*%
X73687500Y-84850000D03*
X75512500Y-84850000D03*
%TD*%
%TO.C,R33*%
X73687500Y-82340000D03*
X75512500Y-82340000D03*
%TD*%
%TO.C,R32*%
X73687500Y-79830000D03*
X75512500Y-79830000D03*
%TD*%
%TO.C,R31*%
X73687500Y-77320000D03*
X75512500Y-77320000D03*
%TD*%
%TO.C,R30*%
X73687500Y-74810000D03*
X75512500Y-74810000D03*
%TD*%
%TO.C,R29*%
X69337500Y-87360000D03*
X71162500Y-87360000D03*
%TD*%
D23*
%TO.C,R28*%
X69450000Y-110740000D03*
X71450000Y-110740000D03*
%TD*%
%TO.C,R27*%
X69450000Y-107790000D03*
X71450000Y-107790000D03*
%TD*%
D22*
%TO.C,R26*%
X69337500Y-84850000D03*
X71162500Y-84850000D03*
%TD*%
%TO.C,R25*%
X69337500Y-82340000D03*
X71162500Y-82340000D03*
%TD*%
D24*
%TO.C,R21*%
X96900000Y-113000000D03*
X100000000Y-113000000D03*
%TD*%
D22*
%TO.C,R19*%
X69337500Y-79830000D03*
X71162500Y-79830000D03*
%TD*%
%TO.C,R18*%
X69337500Y-77320000D03*
X71162500Y-77320000D03*
%TD*%
D23*
%TO.C,R16*%
X69450000Y-104840000D03*
X71450000Y-104840000D03*
%TD*%
D25*
%TO.C,R15*%
X86922500Y-85290000D03*
X88117500Y-85290000D03*
%TD*%
D23*
%TO.C,R8*%
X69450000Y-101890000D03*
X71450000Y-101890000D03*
%TD*%
%TO.C,R7*%
X69450000Y-98940000D03*
X71450000Y-98940000D03*
%TD*%
D26*
%TO.C,R6*%
X82567500Y-114720000D03*
X84392500Y-114720000D03*
%TD*%
D24*
%TO.C,R5*%
X96900000Y-109710000D03*
X100000000Y-109710000D03*
%TD*%
D23*
%TO.C,R4*%
X69450000Y-95990000D03*
X71450000Y-95990000D03*
%TD*%
%TO.C,R3*%
X69450000Y-93040000D03*
X71450000Y-93040000D03*
%TD*%
%TO.C,R2*%
X69450000Y-90090000D03*
X71450000Y-90090000D03*
%TD*%
D27*
%TO.C,R1*%
X87277500Y-81850000D03*
X93202500Y-81850000D03*
%TD*%
D28*
%TO.C,Q2*%
X96952500Y-75005000D03*
X96952500Y-76905000D03*
X98827500Y-75955000D03*
%TD*%
D29*
%TO.C,L2*%
X96110000Y-82325000D03*
X99810000Y-82325000D03*
%TD*%
D30*
%TO.C,L1*%
X89950000Y-105040000D03*
D31*
X95030000Y-105040000D03*
%TD*%
D32*
%TO.C,J2*%
X89420000Y-76180000D03*
D33*
X91920000Y-76180000D03*
%TD*%
D34*
%TO.C,J1*%
X65790000Y-75880000D03*
D35*
X63250000Y-75880000D03*
X65790000Y-78420000D03*
X63250000Y-78420000D03*
X65790000Y-80960000D03*
X63250000Y-80960000D03*
X65790000Y-83500000D03*
X63250000Y-83500000D03*
X65790000Y-86040000D03*
X63250000Y-86040000D03*
X65790000Y-88580000D03*
X63250000Y-88580000D03*
X65790000Y-91120000D03*
X63250000Y-91120000D03*
X65790000Y-93660000D03*
X63250000Y-93660000D03*
X65790000Y-96200000D03*
X63250000Y-96200000D03*
X65790000Y-98740000D03*
X63250000Y-98740000D03*
X65790000Y-101280000D03*
X63250000Y-101280000D03*
X65790000Y-103820000D03*
X63250000Y-103820000D03*
X65790000Y-106360000D03*
X63250000Y-106360000D03*
X65790000Y-108900000D03*
X63250000Y-108900000D03*
X65790000Y-111440000D03*
X63250000Y-111440000D03*
X65790000Y-113980000D03*
X63250000Y-113980000D03*
%TD*%
D36*
%TO.C,D1*%
X95685000Y-86845000D03*
X99285000Y-86845000D03*
%TD*%
D37*
%TO.C,C41*%
X77402500Y-113820000D03*
X79477500Y-113820000D03*
%TD*%
D38*
%TO.C,C37*%
X77265000Y-108050000D03*
X78815000Y-108050000D03*
%TD*%
%TO.C,C36*%
X77265000Y-105540000D03*
X78815000Y-105540000D03*
%TD*%
D39*
%TO.C,C35*%
X73862500Y-114580000D03*
X74997500Y-114580000D03*
%TD*%
%TO.C,C34*%
X73862500Y-112610000D03*
X74997500Y-112610000D03*
%TD*%
%TO.C,C33*%
X73862500Y-110640000D03*
X74997500Y-110640000D03*
%TD*%
%TO.C,C32*%
X73862500Y-108670000D03*
X74997500Y-108670000D03*
%TD*%
D40*
%TO.C,C31*%
X82230000Y-112260000D03*
X83190000Y-112260000D03*
%TD*%
%TO.C,C30*%
X82230000Y-110290000D03*
X83190000Y-110290000D03*
%TD*%
%TO.C,C29*%
X82230000Y-108320000D03*
X83190000Y-108320000D03*
%TD*%
%TO.C,C28*%
X82230000Y-106350000D03*
X83190000Y-106350000D03*
%TD*%
D41*
%TO.C,C27*%
X82625000Y-103690000D03*
X85575000Y-103690000D03*
%TD*%
%TO.C,C26*%
X82625000Y-100340000D03*
X85575000Y-100340000D03*
%TD*%
%TO.C,C25*%
X82625000Y-96990000D03*
X85575000Y-96990000D03*
%TD*%
D39*
%TO.C,C24*%
X73862500Y-106700000D03*
X74997500Y-106700000D03*
%TD*%
D42*
%TO.C,C23*%
X88367500Y-100340000D03*
X91492500Y-100340000D03*
%TD*%
%TO.C,C22*%
X88367500Y-96990000D03*
X91492500Y-96990000D03*
%TD*%
%TO.C,C21*%
X88367500Y-93640000D03*
X91492500Y-93640000D03*
%TD*%
D41*
%TO.C,C20*%
X82625000Y-93640000D03*
X85575000Y-93640000D03*
%TD*%
D38*
%TO.C,C19*%
X77265000Y-103030000D03*
X78815000Y-103030000D03*
%TD*%
D43*
%TO.C,C18*%
X69387500Y-74810000D03*
X71112500Y-74810000D03*
%TD*%
D39*
%TO.C,C17*%
X73862500Y-104730000D03*
X74997500Y-104730000D03*
%TD*%
%TO.C,C16*%
X73862500Y-102760000D03*
X74997500Y-102760000D03*
%TD*%
D41*
%TO.C,C15*%
X82625000Y-90290000D03*
X85575000Y-90290000D03*
%TD*%
D37*
%TO.C,C14*%
X77402500Y-110810000D03*
X79477500Y-110810000D03*
%TD*%
D42*
%TO.C,C1*%
X88367500Y-90290000D03*
X91492500Y-90290000D03*
%TD*%
%LPD*%
M02*
