%TF.GenerationSoftware,KiCad,Pcbnew,9.0.0*%
%TF.CreationDate,2025-03-27T21:08:07+02:00*%
%TF.ProjectId,EEE3088F Micromouse Design,45454533-3038-4384-9620-4d6963726f6d,rev?*%
%TF.SameCoordinates,Original*%
%TF.FileFunction,Copper,L2,Bot*%
%TF.FilePolarity,Positive*%
%FSLAX46Y46*%
G04 Gerber Fmt 4.6, Leading zero omitted, Abs format (unit mm)*
G04 Created by KiCad (PCBNEW 9.0.0) date 2025-03-27 21:08:07*
%MOMM*%
%LPD*%
G01*
G04 APERTURE LIST*
G04 Aperture macros list*
%AMRoundRect*
0 Rectangle with rounded corners*
0 $1 Rounding radius*
0 $2 $3 $4 $5 $6 $7 $8 $9 X,Y pos of 4 corners*
0 Add a 4 corners polygon primitive as box body*
4,1,4,$2,$3,$4,$5,$6,$7,$8,$9,$2,$3,0*
0 Add four circle primitives for the rounded corners*
1,1,$1+$1,$2,$3*
1,1,$1+$1,$4,$5*
1,1,$1+$1,$6,$7*
1,1,$1+$1,$8,$9*
0 Add four rect primitives between the rounded corners*
20,1,$1+$1,$2,$3,$4,$5,0*
20,1,$1+$1,$4,$5,$6,$7,0*
20,1,$1+$1,$6,$7,$8,$9,0*
20,1,$1+$1,$8,$9,$2,$3,0*%
G04 Aperture macros list end*
%TA.AperFunction,NonConductor*%
%ADD10C,0.200000*%
%TD*%
%TA.AperFunction,HeatsinkPad*%
%ADD11C,0.500000*%
%TD*%
%TA.AperFunction,HeatsinkPad*%
%ADD12R,1.900000X2.900000*%
%TD*%
%TA.AperFunction,ComponentPad*%
%ADD13O,0.900000X1.700000*%
%TD*%
%TA.AperFunction,ComponentPad*%
%ADD14O,0.900000X2.000000*%
%TD*%
%TA.AperFunction,ComponentPad*%
%ADD15C,0.300000*%
%TD*%
%TA.AperFunction,ComponentPad*%
%ADD16R,1.700000X1.700000*%
%TD*%
%TA.AperFunction,ComponentPad*%
%ADD17O,1.700000X1.700000*%
%TD*%
%TA.AperFunction,ComponentPad*%
%ADD18RoundRect,0.250000X0.625000X-0.350000X0.625000X0.350000X-0.625000X0.350000X-0.625000X-0.350000X0*%
%TD*%
%TA.AperFunction,ComponentPad*%
%ADD19O,1.750000X1.200000*%
%TD*%
%TA.AperFunction,ComponentPad*%
%ADD20C,3.000000*%
%TD*%
%TA.AperFunction,ComponentPad*%
%ADD21R,2.200000X2.200000*%
%TD*%
%TA.AperFunction,ComponentPad*%
%ADD22O,2.200000X2.200000*%
%TD*%
G04 APERTURE END LIST*
D10*
X210000000Y-67980000D02*
X150000000Y-67940000D01*
X150000000Y-67940000D02*
X150000000Y-149980000D01*
X210030000Y-149980000D02*
X150000000Y-149980000D01*
X210030000Y-149980000D02*
X210000000Y-67980000D01*
D11*
%TO.P,U15,9,EPAD*%
%TO.N,GND*%
X176710000Y-113360000D03*
X176710000Y-114560000D03*
X176710000Y-115760000D03*
D12*
X177410000Y-114560000D03*
D11*
X178110000Y-113360000D03*
X178110000Y-114560000D03*
X178110000Y-115760000D03*
%TD*%
D13*
%TO.P,J3,S4,SHIELD*%
%TO.N,GND*%
X200100000Y-71250000D03*
%TO.P,J3,S3,SHIELD*%
X208750000Y-71250000D03*
D14*
%TO.P,J3,S2,SHIELD*%
X200100000Y-75420000D03*
%TO.P,J3,S1,SHIELD*%
X208750000Y-75420000D03*
%TD*%
D15*
%TO.P,U7,22,PGND*%
%TO.N,GND*%
X202300000Y-105370000D03*
%TO.P,U7,23,PGND*%
X201525000Y-106120000D03*
%TO.P,U7,24,PGND*%
X202300000Y-106120000D03*
%TO.P,U7,25,PGND*%
X203075000Y-106120000D03*
%TO.P,U7,26,PGND*%
X201525000Y-107170000D03*
%TO.P,U7,27,PGND*%
X202300000Y-107170000D03*
%TO.P,U7,28,PGND*%
X203075000Y-107170000D03*
%TO.P,U7,29,PGND*%
X202300000Y-107920000D03*
%TD*%
D16*
%TO.P,J1,1,Pin_1*%
%TO.N,/Motor2_B_OUT*%
X156800000Y-86140000D03*
D17*
%TO.P,J1,2,Pin_2*%
%TO.N,/Motor2_A_OUT*%
X154260000Y-86140000D03*
%TO.P,J1,3,Pin_3*%
%TO.N,/Motor4_A_OUT*%
X156800000Y-88680000D03*
%TO.P,J1,4,Pin_4*%
%TO.N,/MOTOR2_CTRL1*%
X154260000Y-88680000D03*
%TO.P,J1,5,Pin_5*%
%TO.N,/Motor4_B_OUT*%
X156800000Y-91220000D03*
%TO.P,J1,6,Pin_6*%
%TO.N,/MOTOR2_CTRL2*%
X154260000Y-91220000D03*
%TO.P,J1,7,Pin_7*%
%TO.N,/CTRL_EXT_LOAD2*%
X156800000Y-93760000D03*
%TO.P,J1,8,Pin_8*%
%TO.N,/MOTOR4_CTRL1*%
X154260000Y-93760000D03*
%TO.P,J1,9,Pin_9*%
%TO.N,unconnected-(J1-Pin_9-Pad9)*%
X156800000Y-96300000D03*
%TO.P,J1,10,Pin_10*%
%TO.N,/MOTOR4_CTRL2*%
X154260000Y-96300000D03*
%TO.P,J1,11,Pin_11*%
%TO.N,/EXT_LOAD2_OUT*%
X156800000Y-98840000D03*
%TO.P,J1,12,Pin_12*%
%TO.N,unconnected-(J1-Pin_12-Pad12)*%
X154260000Y-98840000D03*
%TO.P,J1,13,Pin_13*%
%TO.N,/FAST_CHARGE_CTRL*%
X156800000Y-101380000D03*
%TO.P,J1,14,Pin_14*%
%TO.N,/V_Battery+*%
X154260000Y-101380000D03*
%TO.P,J1,15,Pin_15*%
%TO.N,unconnected-(J1-Pin_15-Pad15)*%
X156800000Y-103920000D03*
%TO.P,J1,16,Pin_16*%
%TO.N,/SCLK_INA219*%
X154260000Y-103920000D03*
%TO.P,J1,17,Pin_17*%
%TO.N,/SDA_INA219*%
X156800000Y-106460000D03*
%TO.P,J1,18,Pin_18*%
%TO.N,/3V3 Out*%
X154260000Y-106460000D03*
%TO.P,J1,19,Pin_19*%
%TO.N,GND*%
X156800000Y-109000000D03*
%TO.P,J1,20,Pin_20*%
%TO.N,/5V Out*%
X154260000Y-109000000D03*
%TO.P,J1,21,Pin_21*%
%TO.N,/EXT_LOAD1_OUT*%
X156800000Y-111540000D03*
%TO.P,J1,22,Pin_22*%
%TO.N,/HV*%
X154260000Y-111540000D03*
%TO.P,J1,23,Pin_23*%
%TO.N,GND*%
X156800000Y-114080000D03*
%TO.P,J1,24,Pin_24*%
%TO.N,/MOTOR3_CTRL1*%
X154260000Y-114080000D03*
%TO.P,J1,25,Pin_25*%
%TO.N,/CTRL_EXT_LOAD1*%
X156800000Y-116620000D03*
%TO.P,J1,26,Pin_26*%
%TO.N,/MOTOR3_CTRL2*%
X154260000Y-116620000D03*
%TO.P,J1,27,Pin_27*%
%TO.N,/MOTOR3_A_OUT*%
X156800000Y-119160000D03*
%TO.P,J1,28,Pin_28*%
%TO.N,/MOTOR1_CTRL1*%
X154260000Y-119160000D03*
%TO.P,J1,29,Pin_29*%
%TO.N,/MOTOR3_B_OUT*%
X156800000Y-121700000D03*
%TO.P,J1,30,Pin_30*%
%TO.N,/MOTOR1_CTRL2*%
X154260000Y-121700000D03*
%TO.P,J1,31,Pin_31*%
%TO.N,/MOTOR1_B_OUT*%
X156800000Y-124240000D03*
%TO.P,J1,32,Pin_32*%
%TO.N,/MOTOR1_A_OUT*%
X154260000Y-124240000D03*
%TD*%
D18*
%TO.P,J2,1,Pin_1*%
%TO.N,/V_Battery+*%
X153960000Y-75960000D03*
D19*
%TO.P,J2,2,Pin_2*%
%TO.N,/V_Battery-*%
X153960000Y-73960000D03*
%TD*%
D20*
%TO.P,SW1,1,A*%
%TO.N,/Vcc*%
X162160000Y-88780000D03*
%TO.P,SW1,2,B*%
%TO.N,Net-(SW1-B)*%
X162160000Y-83980000D03*
%TO.P,SW1,3,C*%
%TO.N,unconnected-(SW1-C-Pad3)*%
X162160000Y-79180000D03*
%TD*%
D21*
%TO.P,D1,1,K*%
%TO.N,Net-(D1-K)*%
X185895000Y-72840000D03*
D22*
%TO.P,D1,2,A*%
%TO.N,GND*%
X196055000Y-72840000D03*
%TD*%
M02*
