M48
; DRILL file {KiCad 9.0.0} date 2025-03-23T19:49:56+0200
; FORMAT={-:-/ absolute / inch / decimal}
; #@! TF.CreationDate,2025-03-23T19:49:56+02:00
; #@! TF.GenerationSoftware,Kicad,Pcbnew,9.0.0
; #@! TF.FileFunction,Plated,1,2,PTH
FMAT,2
INCH
; #@! TA.AperFunction,Plated,PTH,ComponentDrill
T1C0.0394
%
G90
G05
T1
X3.9669Y-2.9441
X3.9669Y-3.0441
X3.9669Y-3.1441
X3.9669Y-3.2441
X3.9669Y-3.3441
X3.9669Y-3.4441
X3.9669Y-3.5441
X3.9669Y-3.6441
X3.9669Y-3.7441
X3.9669Y-3.8441
X3.9669Y-3.9441
X3.9669Y-4.0441
X3.9669Y-4.1441
X3.9669Y-4.2441
X3.9669Y-4.3441
X3.9669Y-4.4441
X4.0669Y-2.9441
X4.0669Y-3.0441
X4.0669Y-3.1441
X4.0669Y-3.2441
X4.0669Y-3.3441
X4.0669Y-3.4441
X4.0669Y-3.5441
X4.0669Y-3.6441
X4.0669Y-3.7441
X4.0669Y-3.8441
X4.0669Y-3.9441
X4.0669Y-4.0441
X4.0669Y-4.1441
X4.0669Y-4.2441
X4.0669Y-4.3441
X4.0669Y-4.4441
X4.2799Y-3.7
X4.3783Y-3.7
M30
